<?xml version="1.0" encoding="UTF-8"?>
<svg xmlns="http://www.w3.org/2000/svg" xmlns:xlink="http://www.w3.org/1999/xlink" version="1.2" >
<font id="Config Rounded Bold">
<font-face  font-family="Config Rounded" units-per-em="1000" ascent="770" descent="-230" font-style="normal" font-weight="700" font-stretch="normal" cap-height="670" x-height="500" underline-position="-74" underline-thickness="92" />
<missing-glyph  horiz-adv-x="500" d="M410 770 L93 770 L93 -230 L410 -230 L410 770 Z M333 703 L333 670 L267 670 L267 633 L333 633 L333 600 L167 600 L167 633 L233 633 L233 670 L168 670 L168 703 L333 703 Z M267 574 L267 504 L333 504 L333 470 L167 470 L167 574 L267 574 Z M233 540 L200 540 L200 504 L233 504 L233 540 Z M333 443 L333 410 L267 410 L267 340 L167 340 L167 373 L233 373 L233 410 L167 410 L167 443 L333 443 Z M333 383 L333 283 L167 283 L167 317 L300 317 L300 383 L333 383 Z M333 261 L333 148 L167 148 L167 261 L200 261 L200 181 L300 181 L300 228 L267 228 L267 205 L233 205 L233 261 L333 261 Z M333 88 L333 -25 L167 -25 L167 88 L333 88 Z M300 55 L200 55 L200 8 L300 8 L300 55 Z M333 -48 L333 -81 L301 -81 L231 -128 L333 -128 L333 -161 L167 -161 L167 -128 L237 -81 L167 -81 L167 -48 L333 -48 Z " />
<glyph glyph-name="NULL" d="" />
<glyph glyph-name="CR" unicode="&#xd;" horiz-adv-x="250" d="" />
<glyph glyph-name="space" unicode="&#x20;" horiz-adv-x="226" d="" />
<glyph glyph-name="exclam" unicode="&#x21;" horiz-adv-x="267" d="M106 219 L162 219 C181 219 192 229 193 249 L208 486 L208 639 C208 659 197 670 177 670 L91 670 C71 670 60 659 60 639 L60 486 L75 249 C76 229 87 219 106 219 L106 219 Z M134 -10 C187 -10 222 26 222 79 C222 132 187 167 134 167 C81 167 45 132 45 79 C45 26 81 -10 134 -10 L134 -10 Z " />
<glyph glyph-name="quotedbl" unicode="&#x22;" horiz-adv-x="463" d="M98 415 L157 415 C176 415 187 424 188 444 L201 628 L201 639 C201 659 190 670 170 670 L84 670 C64 670 53 659 53 639 L53 628 L67 444 C68 424 79 415 98 415 L98 415 Z M306 415 L365 415 C384 415 395 424 396 444 L410 628 L410 639 C410 659 399 670 379 670 L293 670 C273 670 262 659 262 639 L262 628 L275 444 C276 424 287 415 306 415 L306 415 Z " />
<glyph glyph-name="numbersign" unicode="&#x23;" horiz-adv-x="703" d="M622 504 L564 504 L584 637 C587 658 576 670 555 670 L498 670 C479 670 468 661 464 641 L444 504 L312 504 L332 637 C335 658 324 670 303 670 L246 670 C227 670 216 661 213 641 L192 504 L120 504 C100 504 89 493 89 473 L89 433 C89 413 100 402 120 402 L177 402 L157 268 L80 268 C60 268 49 257 49 237 L49 197 C49 177 60 166 80 166 L142 166 L122 33 C119 12 130 0 151 0 L208 0 C226 0 238 9 241 29 L262 166 L394 166 L374 33 C370 12 382 0 402 0 L460 0 C478 0 490 9 493 29 L514 166 L582 166 C602 166 613 177 613 197 L613 237 C613 257 602 268 582 268 L529 268 L549 402 L622 402 C642 402 653 413 653 433 L653 473 C653 493 642 504 622 504 L622 504 Z M409 268 L277 268 L297 402 L429 402 L409 268 Z " />
<glyph glyph-name="dollar" unicode="&#x24;" horiz-adv-x="559" d="M504 219 C504 434 202 363 202 473 C202 509 231 534 277 534 C317 534 344 515 352 479 C357 468 364 459 380 459 L462 459 C482 459 495 471 491 491 C481 571 428 622 346 639 L346 694 C346 714 335 725 315 725 L245 725 C225 725 214 714 214 694 L214 638 C119 618 60 551 60 459 C60 248 363 312 363 202 C363 163 331 136 282 136 C236 136 206 158 197 200 C193 212 186 221 169 221 L87 221 C67 221 54 210 57 189 C68 103 125 48 214 31 L214 -24 C214 -44 225 -55 245 -55 L315 -55 C335 -55 346 -44 346 -24 L346 32 C443 53 504 123 504 219 L504 219 Z " />
<glyph glyph-name="percent" unicode="&#x25;" horiz-adv-x="864" d="M205 308 C297 308 357 363 357 447 L357 543 C357 627 297 682 205 682 C113 682 52 627 52 543 L52 447 C52 363 113 308 205 308 L205 308 Z M211 0 L260 0 C278 0 291 7 300 23 L673 630 C687 652 678 670 653 670 L604 670 C586 670 573 663 564 647 L191 40 C177 18 186 0 211 0 L211 0 Z M205 404 C177 404 157 422 157 449 L157 541 C157 568 177 586 205 586 C234 586 253 568 253 541 L253 449 C253 422 234 404 205 404 L205 404 Z M661 -12 C752 -12 812 43 812 127 L812 223 C812 307 752 362 661 362 C568 362 506 307 506 223 L506 127 C506 43 568 -12 661 -12 L661 -12 Z M661 84 C632 84 611 102 611 129 L611 221 C611 248 632 266 661 266 C689 266 708 248 708 221 L708 129 C708 102 689 84 661 84 L661 84 Z " />
<glyph glyph-name="ampersand" unicode="&#x26;" horiz-adv-x="639" d="M612 64 L557 123 C578 157 589 199 589 245 L589 291 C589 311 578 322 558 322 L499 322 C479 322 468 311 468 291 L468 243 C468 235 467 227 466 220 L350 344 C428 389 473 454 473 524 C473 615 400 682 286 682 C171 682 97 613 97 526 C97 479 119 430 152 385 L152 374 C77 340 31 271 31 192 C31 73 137 -12 291 -12 C365 -12 424 7 469 44 L496 16 C507 4 518 0 534 0 L597 0 C617 0 628 10 628 26 C628 41 623 53 612 64 L612 64 Z M286 573 C323 573 347 551 347 522 C347 492 318 459 268 433 C244 461 224 489 224 517 C224 549 249 573 286 573 L286 573 Z M308 104 C227 104 177 145 177 199 C177 234 199 267 235 290 L394 123 C370 111 341 104 308 104 L308 104 Z " />
<glyph glyph-name="quotesingle" unicode="&#x27;" horiz-adv-x="255" d="M98 415 L157 415 C176 415 187 424 188 444 L201 628 L201 639 C201 659 190 670 170 670 L84 670 C64 670 53 659 53 639 L53 628 L67 444 C68 424 79 415 98 415 L98 415 Z " />
<glyph glyph-name="parenleft" unicode="&#x28;" horiz-adv-x="352" d="M233 -150 L296 -150 C321 -150 329 -135 316 -114 C249 -10 208 133 208 285 C208 435 248 580 315 684 C329 705 321 720 296 720 L233 720 C217 720 205 715 195 702 C111 597 62 447 62 285 C62 124 111 -26 195 -132 C205 -145 217 -150 233 -150 L233 -150 Z " />
<glyph glyph-name="parenright" unicode="&#x29;" horiz-adv-x="352" d="M56 -150 L119 -150 C135 -150 147 -145 157 -132 C242 -26 290 124 290 285 C290 447 242 597 157 702 C147 715 135 720 119 720 L56 720 C32 720 24 705 36 684 C103 581 145 438 145 285 C145 135 105 -9 36 -114 C24 -135 32 -150 56 -150 L56 -150 Z " />
<glyph glyph-name="asterisk" unicode="&#x2a;" horiz-adv-x="426" d="M368 493 L348 504 L272 533 L348 562 L368 574 C381 582 384 593 377 607 L359 639 C352 652 340 655 326 647 L305 636 L243 585 L256 665 L256 688 C256 703 247 712 232 712 L194 712 C179 712 171 703 171 688 L171 665 L184 585 L121 636 L100 647 C87 655 75 652 68 639 L49 607 C42 593 45 582 58 574 L78 562 L154 533 L78 504 L58 493 C45 485 42 474 49 460 L68 428 C75 415 87 412 100 420 L121 431 L184 482 L171 402 L171 379 C171 364 179 355 194 355 L232 355 C247 355 256 364 256 379 L256 402 L242 482 L305 431 L326 420 C340 412 352 415 359 428 L377 460 C384 474 381 485 368 493 L368 493 Z " />
<glyph glyph-name="plus" unicode="&#x2b;" horiz-adv-x="551" d="M458 359 L339 359 L339 481 C339 501 328 512 308 512 L244 512 C224 512 213 501 213 481 L213 359 L93 359 C73 359 62 348 62 328 L62 269 C62 249 73 238 93 238 L213 238 L213 115 C213 95 224 84 244 84 L308 84 C328 84 339 95 339 115 L339 238 L458 238 C478 238 489 249 489 269 L489 328 C489 348 478 359 458 359 L458 359 Z " />
<glyph glyph-name="comma" unicode="&#x2c;" horiz-adv-x="270" d="M66 -99 L111 -99 C129 -99 140 -92 146 -75 L221 115 C229 137 220 152 197 152 L109 152 C90 152 78 143 75 124 L38 -66 C34 -87 45 -99 66 -99 L66 -99 Z " />
<glyph glyph-name="hyphen" unicode="&#x2d;" horiz-adv-x="408" d="M93 212 L315 212 C335 212 346 223 346 243 L346 313 C346 333 335 344 315 344 L93 344 C73 344 62 333 62 313 L62 243 C62 223 73 212 93 212 L93 212 Z " />
<glyph glyph-name="period" unicode="&#x2e;" horiz-adv-x="268" d="M135 -10 C190 -10 225 27 225 82 C225 137 190 172 135 172 C80 172 43 137 43 82 C43 27 80 -10 135 -10 L135 -10 Z " />
<glyph glyph-name="slash" unicode="&#x2f;" horiz-adv-x="455" d="M54 -150 L129 -150 C147 -150 159 -142 164 -124 L424 685 C431 706 421 720 401 720 L326 720 C309 720 296 712 291 694 L31 -115 C24 -136 34 -150 54 -150 L54 -150 Z " />
<glyph glyph-name="zero" unicode="0" horiz-adv-x="629" d="M315 -12 C466 -12 565 79 565 217 L565 453 C565 591 466 682 315 682 C164 682 64 591 64 453 L64 217 C64 79 164 -12 315 -12 L315 -12 Z M315 124 C253 124 212 162 212 220 L212 450 C212 508 253 546 315 546 C376 546 417 508 417 450 L417 220 C417 162 376 124 315 124 L315 124 Z " />
<glyph glyph-name="one" unicode="1" horiz-adv-x="406" d="M204 0 L290 0 C310 0 321 11 321 31 L321 639 C321 659 310 670 290 670 L226 670 C212 670 201 668 187 662 L68 610 C52 604 44 592 44 575 L44 504 C44 480 59 470 81 480 L164 517 L173 517 L173 31 C173 11 184 0 204 0 L204 0 Z " />
<glyph glyph-name="two" unicode="2" horiz-adv-x="572" d="M82 0 L489 0 C509 0 520 11 520 31 L520 105 C520 125 509 136 489 136 L271 136 L271 144 L420 295 C498 369 522 431 522 494 C522 605 430 682 287 682 C144 682 50 603 50 487 L50 469 C50 449 62 440 81 440 L173 440 C189 440 202 447 202 467 L202 475 C202 519 235 547 287 547 C338 547 369 519 369 480 C369 445 342 406 280 345 L67 133 C55 122 51 110 51 95 L51 31 C51 11 62 0 82 0 L82 0 Z " />
<glyph glyph-name="three" unicode="3" horiz-adv-x="579" d="M289 -12 C439 -12 537 66 537 181 C537 257 493 320 426 341 L426 349 C486 369 526 426 526 497 C526 607 432 682 290 682 C147 682 53 605 53 504 L53 496 C53 476 64 465 84 465 L178 465 C194 465 205 474 208 486 C211 526 239 553 289 553 C338 553 371 523 371 476 C371 428 337 397 285 397 L217 397 C197 397 186 386 186 366 L186 311 C186 291 197 280 217 280 L297 280 C349 280 383 248 383 199 C383 150 346 117 290 117 C233 117 202 148 197 188 C192 201 183 210 163 210 L73 210 C53 210 42 199 42 179 L42 168 C42 67 139 -12 289 -12 L289 -12 Z " />
<glyph glyph-name="four" unicode="4" horiz-adv-x="605" d="M538 260 L497 260 L497 639 C497 659 486 670 466 670 L327 670 C310 670 298 664 290 649 L47 261 C39 248 37 236 37 222 L37 162 C37 142 48 131 68 131 L349 131 L349 31 C349 11 360 0 380 0 L466 0 C486 0 497 11 497 31 L497 131 L538 131 C558 131 569 142 569 162 L569 229 C569 249 558 260 538 260 L538 260 Z M189 260 L189 268 L344 516 L356 516 L349 468 L349 260 L189 260 Z " />
<glyph glyph-name="five" unicode="5" horiz-adv-x="578" d="M288 -12 C444 -12 545 81 545 222 C545 352 460 439 335 439 C287 439 246 425 225 404 L217 404 L238 541 L464 541 C484 541 495 552 495 572 L495 639 C495 659 484 670 464 670 L141 670 C122 670 110 660 108 641 L63 313 C60 292 71 280 92 280 L203 280 C211 280 215 282 220 286 C234 304 264 317 296 317 C353 317 392 277 392 216 C392 156 354 117 294 117 C241 117 210 141 202 185 C197 199 190 207 171 207 L80 207 C61 207 49 195 49 177 L49 167 C49 63 149 -12 288 -12 L288 -12 Z " />
<glyph glyph-name="six" unicode="6" horiz-adv-x="583" d="M292 -12 C444 -12 548 82 548 226 C548 352 468 439 348 439 C309 439 274 429 258 414 L250 414 L404 632 C418 653 410 670 387 670 L290 670 C274 670 262 665 253 650 L110 436 C68 373 41 295 41 222 C41 84 139 -12 292 -12 L292 -12 Z M293 117 C232 117 193 157 193 217 C193 278 233 317 294 317 C355 317 396 277 396 218 C396 157 352 117 293 117 L293 117 Z " />
<glyph glyph-name="seven" unicode="7" horiz-adv-x="543" d="M132 0 L230 0 C247 0 259 7 266 23 L497 536 C503 550 505 561 505 575 L505 639 C505 659 494 670 474 670 L78 670 C58 670 47 659 47 639 L47 565 C47 545 58 534 78 534 L332 534 L332 526 L110 40 C99 15 109 0 132 0 L132 0 Z " />
<glyph glyph-name="eight" unicode="8" horiz-adv-x="593" d="M296 -12 C450 -12 551 68 551 183 C551 259 506 320 435 345 L435 353 C497 378 534 434 534 499 C534 606 439 682 296 682 C153 682 59 605 59 499 C59 432 97 377 158 353 L158 345 C87 321 42 259 42 183 C42 68 143 -12 296 -12 L296 -12 Z M296 401 C241 401 202 432 202 478 C202 525 241 556 296 556 C352 556 390 525 390 478 C390 432 352 401 296 401 L296 401 Z M296 116 C233 116 191 149 191 203 C191 256 233 289 296 289 C360 289 402 256 402 203 C402 149 360 116 296 116 L296 116 Z " />
<glyph glyph-name="nine" unicode="9" horiz-adv-x="583" d="M200 0 L296 0 C312 0 324 5 333 20 L474 236 C514 297 543 374 543 447 C543 586 445 682 291 682 C139 682 36 589 36 442 C36 314 115 224 235 224 C274 224 308 233 323 248 L331 248 L184 38 C168 17 177 0 200 0 L200 0 Z M290 353 C228 353 188 393 188 452 C188 513 231 553 290 553 C351 553 391 513 391 453 C391 392 350 353 290 353 L290 353 Z " />
<glyph glyph-name="colon" unicode="&#x3a;" horiz-adv-x="277" d="M139 303 C194 303 229 339 229 394 C229 449 194 484 139 484 C84 484 48 449 48 394 C48 339 84 303 139 303 L139 303 Z M139 -10 C194 -10 229 27 229 82 C229 137 194 172 139 172 C84 172 48 137 48 82 C48 27 84 -10 139 -10 L139 -10 Z " />
<glyph glyph-name="semicolon" unicode="&#x3b;" horiz-adv-x="285" d="M151 303 C206 303 241 339 241 394 C241 449 206 484 151 484 C96 484 60 449 60 394 C60 339 96 303 151 303 L151 303 Z M60 -99 L106 -99 C123 -99 134 -92 141 -75 L216 115 C224 137 215 152 192 152 L103 152 C85 152 73 143 70 124 L33 -66 C29 -87 39 -99 60 -99 L60 -99 Z " />
<glyph glyph-name="less" unicode="&#x3c;" horiz-adv-x="511" d="M449 101 L449 170 C449 188 441 198 424 205 L198 295 L198 303 L424 392 C441 397 449 409 449 427 L449 496 C449 519 433 529 412 520 L85 369 C69 362 62 350 62 333 L62 263 C62 246 69 235 85 227 L412 77 C433 67 449 77 449 101 L449 101 Z " />
<glyph glyph-name="equal" unicode="&#x3d;" horiz-adv-x="551" d="M93 347 L458 347 C478 347 489 358 489 378 L489 436 C489 456 478 467 458 467 L93 467 C73 467 62 456 62 436 L62 378 C62 358 73 347 93 347 L93 347 Z M93 129 L458 129 C478 129 489 140 489 160 L489 219 C489 239 478 250 458 250 L93 250 C73 250 62 239 62 219 L62 160 C62 140 73 129 93 129 L93 129 Z " />
<glyph glyph-name="greater" unicode="&#x3e;" horiz-adv-x="511" d="M98 77 L426 227 C442 235 449 246 449 263 L449 333 C449 350 442 362 426 369 L98 520 C77 529 62 519 62 496 L62 427 C62 409 70 397 87 392 L313 303 L313 295 L87 205 C70 198 62 188 62 170 L62 101 C62 77 77 67 98 77 L98 77 Z " />
<glyph glyph-name="question" unicode="&#x3f;" horiz-adv-x="531" d="M218 219 L309 219 C324 219 338 224 338 242 L338 258 C338 340 502 353 502 493 C502 612 407 682 267 682 C123 682 32 620 31 494 C31 474 41 462 61 462 L159 462 C173 462 178 470 182 480 C189 524 215 547 266 547 C316 547 349 522 349 482 C349 398 188 404 188 276 L188 253 C188 232 198 219 218 219 L218 219 Z M262 -10 C316 -10 350 26 350 79 C350 132 316 167 262 167 C209 167 174 132 174 79 C174 26 209 -10 262 -10 L262 -10 Z " />
<glyph glyph-name="at" unicode="&#x40;" horiz-adv-x="903" d="M592 469 L527 469 C507 469 496 458 496 438 L496 416 L490 416 C474 454 434 479 386 479 C314 479 264 427 264 350 L264 220 C264 134 316 75 398 75 C448 75 493 100 510 138 L515 138 C542 99 592 75 654 75 C780 75 859 176 859 325 C859 542 696 682 461 682 C210 682 49 524 49 283 C49 34 221 -132 482 -132 C556 -132 630 -119 682 -99 C694 -95 698 -83 698 -66 L698 -32 C698 -10 685 -1 664 -7 C616 -23 550 -34 489 -34 C283 -34 154 92 154 284 C154 467 273 584 461 584 C634 584 754 482 754 324 C754 244 724 186 673 186 C645 186 623 205 623 233 L623 438 C623 458 612 469 592 469 L592 469 Z M443 194 C412 194 391 214 391 243 L391 311 C391 340 412 360 443 360 C475 360 496 339 496 312 L496 242 C496 215 475 194 443 194 L443 194 Z " />
<glyph glyph-name="A" unicode="A" horiz-adv-x="649" d="M615 39 L437 640 C431 661 419 670 398 670 L251 670 C230 670 218 661 213 640 L34 39 C28 14 38 0 63 0 L154 0 C172 0 183 10 187 28 L213 127 L431 127 L457 28 C461 10 472 0 490 0 L586 0 C612 0 622 14 615 39 L615 39 Z M248 259 L317 522 L326 522 L396 259 L248 259 Z " />
<glyph glyph-name="B" unicode="B" horiz-adv-x="621" d="M459 336 L459 344 C525 356 569 415 569 496 C569 600 497 670 388 670 L111 670 C89 670 76 658 76 635 L76 35 C76 12 89 0 111 0 L408 0 C517 0 589 71 589 176 C589 262 537 322 459 336 L459 336 Z M348 541 C392 541 421 512 421 468 C421 425 392 397 348 397 L224 397 L224 541 L348 541 Z M368 129 L224 129 L224 279 L368 279 C412 279 441 250 441 205 C441 159 412 129 368 129 L368 129 Z " />
<glyph glyph-name="C" unicode="C" horiz-adv-x="636" d="M320 -12 C475 -12 583 67 583 224 C583 246 573 258 553 258 L467 258 C447 258 438 248 435 228 C430 163 391 124 320 124 C249 124 202 168 202 235 L202 435 C202 502 249 546 320 546 C389 546 429 508 435 442 C438 422 447 412 467 412 L553 412 C573 412 583 424 583 444 C583 600 478 682 320 682 C159 682 54 585 54 438 L54 232 C54 85 159 -12 320 -12 L320 -12 Z " />
<glyph glyph-name="D" unicode="D" horiz-adv-x="651" d="M331 670 L111 670 C89 670 76 658 76 635 L76 35 C76 12 89 0 111 0 L331 0 C491 0 597 98 597 248 L597 422 C597 572 491 670 331 670 L331 670 Z M449 252 C449 180 403 136 327 136 L224 136 L224 534 L327 534 C403 534 449 490 449 418 L449 252 Z " />
<glyph glyph-name="E" unicode="E" horiz-adv-x="562" d="M475 535 C496 535 509 547 509 569 L509 636 C509 658 496 670 475 670 L110 670 C89 670 76 658 76 636 L76 34 C76 12 89 0 110 0 L475 0 C496 0 509 12 509 34 L509 101 C509 123 496 135 475 135 L224 135 L224 271 L436 271 C458 271 470 284 470 306 L470 370 C470 392 458 405 436 405 L224 405 L224 535 L475 535 Z " />
<glyph glyph-name="F" unicode="F" horiz-adv-x="545" d="M464 670 L111 670 C89 670 76 658 76 635 L76 35 C76 12 89 0 111 0 L189 0 C211 0 224 12 224 35 L224 250 L417 250 C439 250 452 262 452 284 L452 352 C452 374 439 386 417 386 L224 386 L224 534 L464 534 C486 534 499 546 499 568 L499 635 C499 658 486 670 464 670 L464 670 Z " />
<glyph glyph-name="G" unicode="G" horiz-adv-x="639" d="M550 362 L366 362 C344 362 332 349 332 327 L332 280 C332 258 344 245 366 245 L437 245 L437 220 C437 158 390 117 320 117 C249 117 202 161 202 228 L202 435 C202 502 249 546 320 546 C381 546 423 515 433 460 C439 444 447 434 467 434 L553 434 C573 434 585 446 582 466 C569 603 471 682 320 682 C159 682 54 585 54 438 L54 232 C54 85 159 -12 320 -12 C479 -12 585 82 585 225 L585 327 C585 349 572 362 550 362 L550 362 Z " />
<glyph glyph-name="H" unicode="H" horiz-adv-x="656" d="M545 670 L466 670 C444 670 432 658 432 635 L432 406 L224 406 L224 635 C224 658 211 670 189 670 L111 670 C89 670 76 658 76 635 L76 35 C76 12 89 0 111 0 L189 0 C211 0 224 12 224 35 L224 270 L432 270 L432 35 C432 12 444 0 466 0 L545 0 C567 0 579 12 579 35 L579 635 C579 658 567 670 545 670 L545 670 Z " />
<glyph glyph-name="I" unicode="I" horiz-adv-x="300" d="M111 0 L189 0 C211 0 224 12 224 35 L224 635 C224 658 211 670 189 670 L111 670 C89 670 76 658 76 635 L76 35 C76 12 89 0 111 0 L111 0 Z " />
<glyph glyph-name="J" unicode="J" horiz-adv-x="575" d="M276 -12 C416 -12 508 72 508 199 L508 635 C508 658 496 670 474 670 L396 670 C373 670 361 658 361 635 L361 202 C361 155 327 124 276 124 C225 124 191 155 191 202 L191 213 C191 235 179 248 156 248 L78 248 C56 248 43 235 43 213 L43 199 C43 72 136 -12 276 -12 L276 -12 Z " />
<glyph glyph-name="K" unicode="K" horiz-adv-x="630" d="M587 42 L380 387 L574 628 C591 650 582 670 555 670 L462 670 C444 670 431 663 421 647 L233 400 L224 400 L224 635 C224 658 211 670 189 670 L111 670 C89 670 76 658 76 635 L76 35 C76 12 89 0 111 0 L189 0 C211 0 224 12 224 35 L224 194 L282 266 L422 25 C431 8 444 0 463 0 L565 0 C590 0 600 18 587 42 L587 42 Z " />
<glyph glyph-name="L" unicode="L" horiz-adv-x="527" d="M454 136 L224 136 L224 635 C224 658 211 670 189 670 L111 670 C89 670 76 658 76 635 L76 35 C76 12 89 0 111 0 L454 0 C476 0 489 12 489 35 L489 102 C489 124 476 136 454 136 L454 136 Z " />
<glyph glyph-name="M" unicode="M" horiz-adv-x="828" d="M111 0 L189 0 C211 0 224 12 224 35 L224 389 L217 436 L229 436 L350 156 C356 137 369 128 389 128 L439 128 C459 128 472 137 479 156 L600 436 L611 436 L604 389 L604 35 C604 12 617 0 639 0 L717 0 C739 0 752 12 752 35 L752 635 C752 658 739 670 717 670 L592 670 C572 670 559 662 552 642 L422 324 L413 324 L281 642 C275 662 261 670 242 670 L111 670 C89 670 76 658 76 635 L76 35 C76 12 89 0 111 0 L111 0 Z " />
<glyph glyph-name="N" unicode="N" horiz-adv-x="685" d="M107 0 L193 0 C213 0 224 11 224 31 L224 377 L217 424 L229 424 L425 24 C432 8 444 0 462 0 L578 0 C598 0 609 11 609 31 L609 639 C609 659 598 670 578 670 L492 670 C472 670 461 659 461 639 L461 293 L468 246 L457 246 L260 646 C253 662 241 670 223 670 L107 670 C87 670 76 659 76 639 L76 31 C76 11 87 0 107 0 L107 0 Z " />
<glyph glyph-name="O" unicode="O" horiz-adv-x="649" d="M325 -12 C487 -12 595 87 595 237 L595 433 C595 583 487 682 325 682 C161 682 54 583 54 433 L54 237 C54 87 161 -12 325 -12 L325 -12 Z M325 124 C251 124 202 170 202 240 L202 430 C202 500 251 546 325 546 C398 546 447 500 447 430 L447 240 C447 170 398 124 325 124 L325 124 Z " />
<glyph glyph-name="P" unicode="P" horiz-adv-x="621" d="M352 670 L111 670 C89 670 76 658 76 635 L76 35 C76 12 89 0 111 0 L189 0 C211 0 224 12 224 35 L224 192 L352 192 C495 192 589 286 589 431 C589 575 495 670 352 670 L352 670 Z M340 328 L224 328 L224 534 L340 534 C402 534 441 494 441 431 C441 367 402 328 340 328 L340 328 Z " />
<glyph glyph-name="Q" unicode="Q" horiz-adv-x="649" d="M595 237 L595 433 C595 583 487 682 325 682 C161 682 54 583 54 433 L54 237 C54 87 161 -12 325 -12 C346 -12 367 -10 386 -7 L413 -60 C422 -76 434 -85 453 -85 L518 -85 C544 -85 555 -69 543 -45 L501 40 C560 83 595 152 595 237 L595 237 Z M428 185 C420 202 407 209 389 209 L346 209 C320 209 310 193 321 170 L343 125 C338 124 331 124 325 124 C251 124 202 170 202 240 L202 430 C202 500 251 546 325 546 C398 546 447 500 447 430 L447 240 C447 216 441 196 431 178 L428 185 Z " />
<glyph glyph-name="R" unicode="R" horiz-adv-x="640" d="M477 233 C553 268 599 344 599 444 C599 582 509 670 373 670 L111 670 C89 670 76 658 76 635 L76 35 C76 12 89 0 111 0 L189 0 C211 0 224 12 224 35 L224 212 L330 212 L426 27 C436 6 448 0 469 0 L567 0 C594 0 603 16 589 41 L477 233 Z M224 534 L358 534 C416 534 451 498 451 441 C451 383 416 348 358 348 L224 348 L224 534 Z " />
<glyph glyph-name="S" unicode="S" horiz-adv-x="593" d="M299 -12 C453 -12 554 67 554 194 C554 441 202 377 202 498 C202 538 242 562 292 562 C339 562 373 543 385 504 C390 489 398 479 418 479 L506 479 C528 479 542 491 539 514 C523 622 433 682 294 682 C147 682 45 609 45 484 C45 242 398 299 398 177 C398 135 353 108 298 108 C245 108 209 129 198 175 C192 193 185 203 164 203 L75 203 C52 203 39 190 41 167 C58 53 153 -12 299 -12 L299 -12 Z " />
<glyph glyph-name="T" unicode="T" horiz-adv-x="569" d="M500 670 L68 670 C46 670 34 658 34 635 L34 568 C34 546 46 534 68 534 L211 534 L211 35 C211 12 223 0 246 0 L324 0 C346 0 359 12 359 35 L359 534 L500 534 C522 534 535 546 535 568 L535 635 C535 658 522 670 500 670 L500 670 Z " />
<glyph glyph-name="U" unicode="U" horiz-adv-x="654" d="M328 -12 C484 -12 587 83 587 227 L587 635 C587 658 575 670 553 670 L475 670 C452 670 440 658 440 635 L440 230 C440 166 395 124 328 124 C259 124 215 166 215 230 L215 635 C215 658 202 670 180 670 L102 670 C79 670 67 658 67 635 L67 227 C67 83 170 -12 328 -12 L328 -12 Z " />
<glyph glyph-name="V" unicode="V" horiz-adv-x="632" d="M251 0 L381 0 C401 0 414 10 419 30 L598 631 C604 655 593 670 568 670 L482 670 C461 670 448 660 444 639 L324 166 L314 166 L193 639 C189 660 176 670 155 670 L64 670 C39 670 28 655 34 631 L213 30 C218 10 231 0 251 0 L251 0 Z " />
<glyph glyph-name="W" unicode="W" horiz-adv-x="946" d="M222 0 L337 0 C358 0 370 10 374 31 L468 415 L478 415 L571 31 C575 10 588 0 608 0 L723 0 C744 0 757 11 761 31 L906 632 C910 655 899 670 875 670 L788 670 C767 670 754 659 752 638 L666 203 L657 203 L552 639 C548 660 535 670 515 670 L436 670 C416 670 403 660 399 639 L295 203 L286 203 L199 638 C197 659 184 670 163 670 L70 670 C46 670 35 655 40 632 L184 31 C188 11 202 0 222 0 L222 0 Z " />
<glyph glyph-name="X" unicode="X" horiz-adv-x="640" d="M76 0 L167 0 C186 0 199 8 208 26 L311 204 L322 204 L425 26 C434 8 447 0 466 0 L571 0 C597 0 608 18 593 44 L414 341 L585 626 C600 653 590 670 563 670 L473 670 C454 670 440 662 432 644 L330 466 L319 466 L216 644 C207 662 194 670 175 670 L71 670 C44 670 33 652 48 626 L226 329 L54 44 C40 17 50 0 76 0 L76 0 Z " />
<glyph glyph-name="Y" unicode="Y" horiz-adv-x="612" d="M267 0 L345 0 C368 0 380 12 380 35 L380 264 L576 629 C589 654 578 670 551 670 L461 670 C442 670 429 662 421 643 L314 424 L304 424 L196 643 C188 661 175 670 156 670 L61 670 C34 670 23 654 35 629 L232 263 L232 35 C232 12 245 0 267 0 L267 0 Z " />
<glyph glyph-name="Z" unicode="Z" horiz-adv-x="578" d="M85 0 L493 0 C515 0 527 12 527 35 L527 102 C527 124 515 136 493 136 L245 136 L245 144 L508 539 C518 553 522 565 522 582 L522 635 C522 658 510 670 488 670 L90 670 C68 670 56 658 56 635 L56 568 C56 546 68 534 90 534 L328 534 L328 526 L65 131 C55 117 51 105 51 88 L51 35 C51 12 63 0 85 0 L85 0 Z " />
<glyph glyph-name="bracketleft" unicode="&#x5b;" horiz-adv-x="394" d="M332 588 C352 588 363 599 363 619 L363 689 C363 709 352 720 332 720 L113 720 C93 720 82 709 82 689 L82 -119 C82 -139 93 -150 113 -150 L332 -150 C352 -150 363 -139 363 -119 L363 -49 C363 -29 352 -18 332 -18 L226 -18 L226 588 L332 588 Z " />
<glyph glyph-name="backslash" unicode="&#x5c;" horiz-adv-x="455" d="M326 -150 L401 -150 C421 -150 431 -136 424 -115 L164 694 C159 712 147 720 129 720 L54 720 C34 720 24 706 31 685 L291 -124 C296 -142 309 -150 326 -150 L326 -150 Z " />
<glyph glyph-name="bracketright" unicode="&#x5d;" horiz-adv-x="394" d="M281 720 L62 720 C42 720 31 709 31 689 L31 619 C31 599 42 588 62 588 L168 588 L168 -18 L62 -18 C42 -18 31 -29 31 -49 L31 -119 C31 -139 42 -150 62 -150 L281 -150 C301 -150 312 -139 312 -119 L312 689 C312 709 301 720 281 720 L281 720 Z " />
<glyph glyph-name="asciicircum" unicode="&#x5e;" horiz-adv-x="520" d="M80 403 L155 403 C172 403 184 411 191 427 L255 551 L263 551 L329 426 C336 410 348 403 364 403 L440 403 C464 403 473 420 462 440 L341 648 C332 664 321 670 304 670 L216 670 C199 670 187 664 179 648 L58 440 C46 420 56 403 80 403 L80 403 Z " />
<glyph glyph-name="underscore" unicode="&#x5f;" horiz-adv-x="493" d="M64 -167 L429 -167 C449 -167 460 -156 460 -136 L460 -89 C460 -69 449 -58 429 -58 L64 -58 C44 -58 33 -69 33 -89 L33 -136 C33 -156 44 -167 64 -167 L64 -167 Z " />
<glyph glyph-name="grave" unicode="&#x60;" horiz-adv-x="245" d="M157 551 L203 551 C227 551 237 567 226 587 L174 681 C167 697 155 704 138 704 L52 704 C25 704 16 686 34 666 L119 568 C130 556 142 551 157 551 L157 551 Z " />
<glyph glyph-name="a" unicode="a" horiz-adv-x="525" d="M260 512 C139 512 50 453 50 366 C50 346 61 335 81 335 L158 335 C176 335 184 345 188 359 C197 387 221 399 257 399 C303 399 332 373 332 333 L332 287 L196 287 C97 287 31 227 31 136 C31 46 96 -12 193 -12 C259 -12 308 17 328 63 L337 63 L337 31 C337 11 348 0 368 0 L441 0 C461 0 472 11 472 31 L472 343 C472 445 389 512 260 512 L260 512 Z M247 94 C201 94 172 115 172 146 C172 175 195 195 230 195 L332 195 L332 152 C332 117 297 94 247 94 L247 94 Z " />
<glyph glyph-name="b" unicode="b" horiz-adv-x="547" d="M343 512 C278 512 229 478 210 430 L202 430 L202 669 C202 689 191 700 171 700 L93 700 C73 700 62 689 62 669 L62 31 C62 11 73 0 93 0 L171 0 C191 0 202 11 202 31 L202 70 L210 70 C229 22 278 -12 343 -12 C437 -12 501 53 501 151 L501 349 C501 447 437 512 343 512 L343 512 Z M361 193 C361 148 330 119 283 119 C234 119 202 151 202 192 L202 308 C202 349 234 381 283 381 C330 381 361 352 361 307 L361 193 Z " />
<glyph glyph-name="c" unicode="c" horiz-adv-x="512" d="M259 -12 C381 -12 474 51 474 168 C474 189 465 201 445 201 L365 201 C347 201 338 191 335 179 C330 139 302 117 259 117 C213 117 183 146 183 189 L183 311 C183 354 213 383 259 383 C300 383 330 362 335 321 C338 309 347 299 365 299 L445 299 C465 299 474 311 474 331 C474 447 383 512 259 512 C129 512 43 433 43 312 L43 188 C43 67 129 -12 259 -12 L259 -12 Z " />
<glyph glyph-name="d" unicode="d" horiz-adv-x="547" d="M454 700 L376 700 C356 700 345 689 345 669 L345 430 L337 430 C318 478 269 512 204 512 C111 512 46 447 46 349 L46 151 C46 53 111 -12 204 -12 C269 -12 318 22 337 70 L345 70 L345 31 C345 11 356 0 376 0 L454 0 C474 0 485 11 485 31 L485 669 C485 689 474 700 454 700 L454 700 Z M264 119 C217 119 186 148 186 193 L186 307 C186 352 217 381 264 381 C313 381 345 349 345 308 L345 192 C345 151 313 119 264 119 L264 119 Z " />
<glyph glyph-name="e" unicode="e" horiz-adv-x="526" d="M451 204 C471 204 482 215 482 235 L482 308 C482 431 395 512 263 512 C130 512 43 432 43 310 L43 190 C43 68 131 -12 266 -12 C384 -12 466 41 479 126 C482 146 470 156 452 156 L368 156 C350 156 344 148 338 135 C327 113 301 101 266 101 C216 101 183 131 183 176 L183 204 L451 204 Z M263 399 C311 399 342 370 342 325 L342 300 L183 300 L183 325 C183 370 215 399 263 399 L263 399 Z " />
<glyph glyph-name="f" unicode="f" horiz-adv-x="394" d="M310 584 L333 584 C353 584 364 595 364 615 L364 669 C364 689 353 700 333 700 L272 700 C180 700 120 644 120 558 L120 500 L68 500 C48 500 37 489 37 469 L37 406 C37 386 48 375 68 375 L120 375 L120 31 C120 11 131 0 151 0 L229 0 C249 0 260 11 260 31 L260 375 L333 375 C353 375 364 386 364 406 L364 469 C364 489 353 500 333 500 L260 500 L260 534 C260 565 279 584 310 584 L310 584 Z " />
<glyph glyph-name="g" unicode="g" horiz-adv-x="544" d="M454 500 L376 500 C356 500 345 489 345 469 L345 430 L337 430 C318 478 269 512 204 512 C111 512 46 447 46 349 L46 178 C46 80 111 15 204 15 C266 15 318 47 337 94 L345 94 L345 -12 C345 -56 315 -86 267 -86 C232 -86 202 -72 194 -40 C188 -30 179 -23 165 -23 L84 -23 C68 -23 55 -35 58 -56 C72 -142 152 -192 269 -192 C402 -192 485 -121 485 -19 L485 469 C485 489 474 500 454 500 L454 500 Z M264 146 C217 146 186 175 186 220 L186 307 C186 352 217 381 264 381 C313 381 345 349 345 308 L345 219 C345 179 313 146 264 146 L264 146 Z " />
<glyph glyph-name="h" unicode="h" horiz-adv-x="550" d="M345 512 C280 512 230 478 210 430 L202 430 L202 669 C202 689 191 700 171 700 L93 700 C73 700 62 689 62 669 L62 31 C62 11 73 0 93 0 L171 0 C191 0 202 11 202 31 L202 312 C202 350 234 381 282 381 C326 381 355 353 355 311 L355 31 C355 11 366 0 386 0 L464 0 C484 0 495 11 495 31 L495 365 C495 453 434 512 345 512 L345 512 Z " />
<glyph glyph-name="i" unicode="i" horiz-adv-x="264" d="M133 564 C183 564 216 596 216 645 C216 693 183 725 133 725 C82 725 49 693 49 644 C49 597 81 564 133 564 L133 564 Z M93 0 L171 0 C191 0 202 11 202 31 L202 469 C202 489 191 500 171 500 L93 500 C73 500 62 489 62 469 L62 31 C62 11 73 0 93 0 L93 0 Z " />
<glyph glyph-name="j" unicode="j" horiz-adv-x="266" d="M135 564 C185 564 218 596 218 645 C218 693 185 725 135 725 C84 725 51 693 51 644 C51 597 83 564 135 564 L135 564 Z M-8 -180 L53 -180 C145 -180 205 -124 205 -38 L205 469 C205 489 194 500 174 500 L96 500 C76 500 65 489 65 469 L65 -13 C65 -45 46 -64 14 -64 L-8 -64 C-28 -64 -39 -75 -39 -95 L-39 -149 C-39 -169 -28 -180 -8 -180 L-8 -180 Z " />
<glyph glyph-name="k" unicode="k" horiz-adv-x="528" d="M500 37 L341 297 L487 462 C504 482 496 500 474 500 L380 500 C364 500 352 494 343 480 L212 319 L202 319 L202 669 C202 689 191 700 171 700 L93 700 C73 700 62 689 62 669 L62 31 C62 11 73 0 93 0 L171 0 C191 0 202 11 202 31 L202 140 L250 194 L346 23 C353 8 366 0 383 0 L479 0 C503 0 513 16 500 37 L500 37 Z " />
<glyph glyph-name="l" unicode="l" horiz-adv-x="308" d="M207 0 L244 0 C264 0 275 11 275 31 L275 109 C275 121 268 129 256 129 L245 129 C215 129 197 147 197 177 L197 669 C197 689 186 700 166 700 L88 700 C68 700 57 689 57 669 L57 140 C57 56 117 0 207 0 L207 0 Z " />
<glyph glyph-name="m" unicode="m" horiz-adv-x="827" d="M626 512 C556 512 505 474 484 423 L477 423 C456 478 406 512 340 512 C277 512 229 478 210 430 L202 430 L202 469 C202 489 191 500 171 500 L93 500 C73 500 62 489 62 469 L62 31 C62 11 73 0 93 0 L171 0 C191 0 202 11 202 31 L202 314 C202 352 232 381 277 381 C320 381 347 354 347 313 L347 31 C347 11 358 0 378 0 L456 0 C476 0 487 11 487 31 L487 314 C487 352 517 381 562 381 C605 381 632 354 632 313 L632 31 C632 11 643 0 663 0 L741 0 C761 0 772 11 772 31 L772 364 C772 453 712 512 626 512 L626 512 Z " />
<glyph glyph-name="n" unicode="n" horiz-adv-x="550" d="M345 512 C280 512 230 478 210 430 L202 430 L202 469 C202 489 191 500 171 500 L93 500 C73 500 62 489 62 469 L62 31 C62 11 73 0 93 0 L171 0 C191 0 202 11 202 31 L202 312 C202 350 234 381 282 381 C326 381 355 353 355 311 L355 31 C355 11 366 0 386 0 L464 0 C484 0 495 11 495 31 L495 365 C495 453 434 512 345 512 L345 512 Z " />
<glyph glyph-name="o" unicode="o" horiz-adv-x="526" d="M263 -12 C395 -12 482 68 482 190 L482 310 C482 432 395 512 263 512 C131 512 43 432 43 310 L43 190 C43 68 131 -12 263 -12 L263 -12 Z M263 117 C215 117 183 146 183 191 L183 309 C183 354 215 383 263 383 C311 383 342 354 342 309 L342 191 C342 146 311 117 263 117 L263 117 Z " />
<glyph glyph-name="p" unicode="p" horiz-adv-x="547" d="M343 512 C278 512 229 478 210 430 L202 430 L202 469 C202 489 191 500 171 500 L93 500 C73 500 62 489 62 469 L62 -149 C62 -169 73 -180 93 -180 L171 -180 C191 -180 202 -169 202 -149 L202 70 L210 70 C229 22 278 -12 343 -12 C437 -12 501 53 501 151 L501 349 C501 447 437 512 343 512 L343 512 Z M361 193 C361 148 330 119 283 119 C234 119 202 151 202 192 L202 308 C202 349 234 381 283 381 C330 381 361 352 361 307 L361 193 Z " />
<glyph glyph-name="q" unicode="q" horiz-adv-x="547" d="M454 500 L376 500 C356 500 345 489 345 469 L345 430 L337 430 C318 478 269 512 204 512 C111 512 46 447 46 349 L46 151 C46 53 111 -12 204 -12 C269 -12 318 22 337 70 L345 70 L345 -149 C345 -169 356 -180 376 -180 L454 -180 C474 -180 485 -169 485 -149 L485 469 C485 489 474 500 454 500 L454 500 Z M264 119 C217 119 186 148 186 193 L186 307 C186 352 217 381 264 381 C313 381 345 349 345 308 L345 192 C345 151 313 119 264 119 L264 119 Z " />
<glyph glyph-name="r" unicode="r" horiz-adv-x="382" d="M323 511 C264 507 228 476 210 416 L202 416 L202 469 C202 489 191 500 171 500 L93 500 C73 500 62 489 62 469 L62 31 C62 11 73 0 93 0 L171 0 C191 0 202 11 202 31 L202 255 C202 324 241 368 325 368 C344 368 356 380 356 399 L356 480 C356 500 344 513 323 511 L323 511 Z " />
<glyph glyph-name="s" unicode="s" horiz-adv-x="478" d="M241 -12 C368 -12 448 49 448 151 C448 340 176 285 176 366 C176 390 199 406 236 406 C264 406 282 396 296 375 C304 364 308 354 326 354 L408 354 C426 354 439 366 435 386 C420 467 345 512 234 512 C115 512 35 457 35 355 C35 168 306 219 306 137 C306 111 281 94 240 94 C207 94 183 106 173 132 C167 147 162 155 142 155 L60 155 C42 155 28 143 33 122 C48 37 126 -12 241 -12 L241 -12 Z " />
<glyph glyph-name="t" unicode="t" horiz-adv-x="399" d="M328 375 C348 375 359 386 359 406 L359 469 C359 489 348 500 328 500 L249 500 L249 599 C249 619 238 630 218 630 L149 630 C129 630 118 619 118 599 L118 539 C118 515 104 500 79 500 L54 500 C36 500 26 490 26 472 L26 406 C26 386 37 375 57 375 L109 375 L109 142 C109 56 169 0 261 0 L322 0 C342 0 353 11 353 31 L353 98 C353 118 342 129 322 129 L300 129 C268 129 249 148 249 179 L249 375 L328 375 Z " />
<glyph glyph-name="u" unicode="u" horiz-adv-x="543" d="M450 500 L372 500 C352 500 341 489 341 469 L341 186 C341 148 311 119 266 119 C223 119 196 146 196 187 L196 469 C196 489 185 500 165 500 L87 500 C67 500 56 489 56 469 L56 134 C56 46 116 -12 203 -12 C267 -12 314 22 333 70 L341 70 L341 31 C341 11 352 0 372 0 L450 0 C470 0 481 11 481 31 L481 469 C481 489 470 500 450 500 L450 500 Z " />
<glyph glyph-name="v" unicode="v" horiz-adv-x="522" d="M204 0 L318 0 C336 0 349 9 353 26 L493 465 C500 486 489 500 470 500 L383 500 C365 500 353 491 350 472 L269 157 L260 157 L178 472 C175 491 163 500 145 500 L52 500 C34 500 23 486 29 465 L169 26 C174 9 186 0 204 0 L204 0 Z " />
<glyph glyph-name="w" unicode="w" horiz-adv-x="801" d="M190 0 L293 0 C311 0 324 10 327 28 L396 290 L405 290 L474 28 C477 10 490 0 508 0 L611 0 C630 0 642 9 646 27 L769 466 C775 487 764 500 745 500 L658 500 C639 500 627 490 625 471 L558 172 L548 172 L475 472 C472 491 460 500 442 500 L365 500 C346 500 335 491 331 472 L258 172 L248 172 L182 471 C179 490 168 500 149 500 L56 500 C37 500 27 487 32 466 L155 27 C160 9 171 0 190 0 L190 0 Z " />
<glyph glyph-name="x" unicode="x" horiz-adv-x="522" d="M61 0 L146 0 C163 0 175 8 182 23 L253 147 L262 147 L333 23 C340 8 352 0 369 0 L468 0 C491 0 499 16 487 37 L348 256 L479 463 C491 484 483 500 460 500 L376 500 C359 500 347 492 339 477 L269 354 L261 354 L190 477 C183 492 171 500 154 500 L55 500 C32 500 24 484 36 463 L174 244 L43 37 C30 16 39 0 61 0 L61 0 Z " />
<glyph glyph-name="y" unicode="y" horiz-adv-x="528" d="M106 -180 L174 -180 C254 -180 304 -144 327 -71 L499 465 C506 486 495 500 475 500 L389 500 C371 500 359 491 356 472 L275 157 L260 157 L178 472 C175 491 163 500 145 500 L53 500 C34 500 23 486 29 465 L166 36 C171 21 180 15 195 15 L211 15 L195 -28 C187 -53 168 -64 139 -64 L106 -64 C86 -64 75 -75 75 -95 L75 -149 C75 -169 86 -180 106 -180 L106 -180 Z " />
<glyph glyph-name="z" unicode="z" horiz-adv-x="492" d="M73 0 L419 0 C439 0 450 11 450 31 L450 96 C450 116 439 127 419 127 L236 127 L236 135 L430 379 C440 391 445 402 445 417 L445 469 C445 489 434 500 414 500 L78 500 C58 500 47 489 47 469 L47 404 C47 384 58 373 78 373 L251 373 L251 365 L56 121 C46 109 42 98 42 83 L42 31 C42 11 53 0 73 0 L73 0 Z " />
<glyph glyph-name="braceleft" unicode="&#x7b;" horiz-adv-x="434" d="M306 -150 L372 -150 C392 -150 403 -139 403 -119 L403 -49 C403 -29 392 -18 372 -18 L341 -18 C307 -18 286 4 286 36 L286 195 C286 243 257 275 215 275 L203 275 L203 296 L215 296 C257 296 286 328 286 376 L286 534 C286 566 307 588 341 588 L372 588 C392 588 403 599 403 619 L403 689 C403 709 392 720 372 720 L306 720 C207 720 142 660 142 568 L142 404 C142 374 125 355 99 355 L89 355 C72 355 62 345 62 328 L62 243 C62 226 72 216 89 216 L99 216 C125 216 142 196 142 166 L142 2 C142 -90 207 -150 306 -150 L306 -150 Z " />
<glyph glyph-name="bar" unicode="&#x7c;" horiz-adv-x="299" d="M117 -180 L181 -180 C201 -180 212 -169 212 -149 L212 719 C212 739 201 750 181 750 L117 750 C97 750 86 739 86 719 L86 -149 C86 -169 97 -180 117 -180 L117 -180 Z " />
<glyph glyph-name="braceright" unicode="&#x7d;" horiz-adv-x="434" d="M62 -150 L125 -150 C226 -150 292 -90 292 2 L292 168 C292 198 309 218 335 218 L344 218 C362 218 372 228 372 245 L372 326 C372 343 362 353 344 353 L335 353 C309 353 292 372 292 402 L292 568 C292 660 226 720 125 720 L62 720 C42 720 31 709 31 689 L31 619 C31 599 42 588 62 588 L91 588 C126 588 148 566 148 534 L148 375 C148 328 177 296 219 296 L231 296 L231 275 L219 275 C177 275 148 243 148 195 L148 36 C148 4 126 -18 91 -18 L62 -18 C42 -18 31 -29 31 -49 L31 -119 C31 -139 42 -150 62 -150 L62 -150 Z " />
<glyph glyph-name="asciitilde" unicode="&#x7e;" horiz-adv-x="622" d="M413 203 C501 203 551 253 560 350 C563 375 550 389 530 389 L451 389 C437 389 432 382 425 369 C419 353 402 343 380 343 C330 343 290 392 213 392 C120 392 70 339 62 238 C61 218 73 206 93 206 L172 206 C186 206 191 213 198 226 C204 242 221 252 243 252 C290 252 335 203 413 203 L413 203 Z " />
<glyph glyph-name="exclamdown" unicode="&#xa1;" horiz-adv-x="267" d="M134 333 C187 333 222 368 222 421 C222 474 187 510 134 510 C81 510 45 474 45 421 C45 368 81 333 134 333 L134 333 Z M91 -170 L177 -170 C197 -170 208 -159 208 -139 L208 14 L193 251 C192 271 181 281 162 281 L106 281 C87 281 76 271 75 251 L60 14 L60 -139 C60 -159 71 -170 91 -170 L91 -170 Z " />
<glyph glyph-name="cent" unicode="&#xa2;" horiz-adv-x="550" d="M460 286 L380 286 C362 286 354 276 350 264 C343 222 317 202 274 202 C229 202 198 231 198 274 L198 396 C198 439 229 468 274 468 C315 468 343 448 350 406 C354 394 362 384 380 384 L460 384 C480 384 489 396 489 416 C489 510 429 570 341 590 L341 639 C341 659 330 670 310 670 L240 670 C220 670 209 659 209 639 L209 590 C117 567 58 496 58 397 L58 273 C58 174 117 103 209 80 L209 31 C209 11 220 0 240 0 L310 0 C330 0 341 11 341 31 L341 80 C428 99 489 159 489 253 C489 274 480 286 460 286 L460 286 Z " />
<glyph glyph-name="sterling" unicode="&#xa3;" horiz-adv-x="632" d="M349 546 C397 546 423 523 430 474 C434 461 444 452 462 452 L548 452 C568 452 580 463 578 483 C566 612 484 682 349 682 C210 682 118 599 118 472 L118 373 L93 373 C73 373 62 362 62 342 L62 283 C62 263 73 252 93 252 L118 252 L118 194 C118 166 106 142 84 127 C71 119 63 111 63 96 L63 31 C63 11 74 0 94 0 L529 0 C549 0 560 11 560 31 L560 105 C560 125 549 136 529 136 L238 136 L238 144 C255 160 265 184 265 209 L265 252 L440 252 C460 252 471 263 471 283 L471 342 C471 362 460 373 440 373 L265 373 L265 469 C265 516 298 546 349 546 L349 546 Z " />
<glyph glyph-name="currency" unicode="&#xa4;" horiz-adv-x="561" d="M487 224 L449 262 C458 284 463 309 463 336 C463 362 458 387 449 408 L487 446 C501 460 501 475 487 489 L435 542 C421 556 406 556 391 542 L348 499 C328 506 305 509 281 509 C256 509 234 506 213 499 L170 542 C155 556 140 556 126 542 L74 489 C60 475 60 460 74 446 L112 407 C104 386 99 362 99 336 C99 309 104 285 113 263 L74 224 C60 210 60 195 74 181 L126 128 C140 114 155 114 170 128 L213 171 C234 165 256 161 281 161 C305 161 328 164 348 171 L391 128 C406 114 420 114 435 128 L487 181 C502 195 501 210 487 224 L487 224 Z M201 336 C201 384 232 416 281 416 C329 416 361 384 361 336 C361 287 329 255 281 255 C232 255 201 287 201 336 L201 336 Z " />
<glyph glyph-name="yen" unicode="&#xa5;" horiz-adv-x="608" d="M531 670 L436 670 C417 670 405 662 398 644 L312 424 L302 424 L215 644 C208 662 196 670 178 670 L77 670 C53 670 43 654 54 632 L191 344 L136 344 C118 344 107 334 107 315 L107 293 C107 275 118 265 136 265 L229 265 L230 263 L230 212 L136 212 C118 212 107 202 107 184 L107 161 C107 143 118 132 136 132 L230 132 L230 32 C230 11 241 0 262 0 L346 0 C366 0 378 11 378 32 L378 132 L473 132 C491 132 501 143 501 161 L501 184 C501 202 491 212 473 212 L378 212 L378 265 L473 265 C491 265 501 275 501 293 L501 315 C501 334 491 344 473 344 L416 344 L555 632 C566 654 555 670 531 670 L531 670 Z " />
<glyph glyph-name="brokenbar" unicode="&#xa6;" horiz-adv-x="299" d="M117 375 L181 375 C201 375 212 386 212 406 L212 719 C212 739 201 750 181 750 L117 750 C97 750 86 739 86 719 L86 406 C86 386 97 375 117 375 L117 375 Z M117 -180 L181 -180 C201 -180 212 -169 212 -149 L212 164 C212 184 201 195 181 195 L117 195 C97 195 86 184 86 164 L86 -149 C86 -169 97 -180 117 -180 L117 -180 Z " />
<glyph glyph-name="section" unicode="&#xa7;" horiz-adv-x="615" d="M479 108 L479 120 C528 150 553 194 553 252 C553 458 230 404 230 523 C230 560 259 582 304 582 C345 582 371 566 381 529 C386 519 392 511 407 511 L492 511 C513 511 525 523 521 544 C506 633 426 682 304 682 C172 682 85 619 85 506 C85 451 106 414 137 388 L137 378 C87 347 62 303 62 246 C62 39 385 93 385 -26 C385 -63 356 -85 311 -85 C271 -85 244 -68 234 -33 C229 -23 224 -15 209 -15 L123 -15 C102 -15 90 -27 94 -48 C109 -137 189 -186 310 -186 C443 -186 530 -123 530 -9 C530 45 510 82 479 108 L479 108 Z M206 271 C206 296 218 320 236 337 C321 308 409 293 409 223 C409 200 399 176 382 159 C297 189 206 202 206 271 L206 271 Z " />
<glyph glyph-name="dieresis" unicode="&#xa8;" horiz-adv-x="359" d="M77 554 C122 554 152 585 152 631 C152 676 122 706 77 706 C31 706 0 676 0 631 C0 585 31 554 77 554 L77 554 Z M284 554 C329 554 359 585 359 631 C359 676 329 706 284 706 C238 706 207 676 207 631 C207 585 238 554 284 554 L284 554 Z " />
<glyph glyph-name="copyright" unicode="&#xa9;" horiz-adv-x="817" d="M408 -12 C619 -12 758 126 758 335 C758 544 619 682 408 682 C198 682 59 544 59 335 C59 126 198 -12 408 -12 L408 -12 Z M408 54 C242 54 132 165 132 335 C132 505 242 616 408 616 C575 616 685 505 685 335 C685 165 575 54 408 54 L408 54 Z M408 135 C505 135 572 186 583 279 C585 296 575 305 558 305 L481 305 C469 305 464 299 460 287 C455 263 437 248 408 248 C377 248 356 269 356 299 L356 371 C356 401 377 422 408 422 C435 422 454 409 460 383 C464 371 469 365 481 365 L558 365 C575 365 585 374 583 391 C573 482 507 535 408 535 C302 535 233 470 233 372 L233 298 C233 200 302 135 408 135 L408 135 Z " />
<glyph glyph-name="ordfeminine" unicode="&#xaa;" horiz-adv-x="419" d="M217 682 C127 682 66 637 66 584 L66 581 C66 565 75 556 91 556 L147 556 C161 556 167 565 170 573 C176 595 192 603 214 603 C241 603 261 586 261 561 L261 524 L168 524 C99 524 53 482 53 418 C53 356 97 316 165 316 C207 316 243 331 258 359 L265 359 L265 349 C265 333 274 324 290 324 L341 324 C357 324 366 333 366 349 L366 566 C366 635 306 682 217 682 L217 682 Z M205 390 C178 390 160 404 160 426 C160 447 176 461 203 461 L261 461 L261 433 C261 407 238 390 205 390 L205 390 Z " />
<glyph glyph-name="guillemotleft" unicode="&#xab;" horiz-adv-x="615" d="M200 70 L280 70 C304 70 314 87 300 107 L191 260 L191 270 L300 423 C314 443 304 460 280 460 L200 460 C184 460 172 454 162 441 L44 287 C33 272 33 258 44 243 L162 89 C172 76 184 70 200 70 L200 70 Z M454 70 L533 70 C558 70 567 87 554 107 L445 260 L445 270 L554 423 C567 443 558 460 533 460 L454 460 C438 460 425 454 416 441 L297 287 C287 272 287 258 297 243 L416 89 C425 76 438 70 454 70 L454 70 Z " />
<glyph glyph-name="logicalnot" unicode="&#xac;" horiz-adv-x="580" d="M487 399 L93 399 C73 399 62 388 62 368 L62 309 C62 289 73 278 93 278 L393 278 L393 187 C393 167 404 156 424 156 L487 156 C507 156 518 167 518 187 L518 368 C518 388 507 399 487 399 L487 399 Z " />
<glyph glyph-name="registered" unicode="&#xae;" horiz-adv-x="481" d="M240 682 C121 682 43 604 43 485 C43 366 121 288 240 288 C359 288 437 366 437 485 C437 604 359 682 240 682 L240 682 Z M240 331 C148 331 87 392 87 485 C87 578 148 639 240 639 C333 639 394 578 394 485 C394 392 333 331 240 331 L240 331 Z M331 521 C331 564 303 592 260 592 L180 592 C171 592 166 587 166 578 L166 405 C166 396 171 391 180 391 L207 391 C217 391 222 396 222 405 L222 448 L242 448 L265 402 C269 395 274 391 282 391 L316 391 C327 391 330 398 325 408 L298 457 C319 469 331 492 331 521 L331 521 Z M222 540 L254 540 C266 540 275 533 275 520 C275 507 267 499 254 499 L222 499 L222 540 Z " />
<glyph glyph-name="macron" unicode="&#xaf;" horiz-adv-x="299" d="M31 569 L268 569 C288 569 299 580 299 600 L299 647 C299 667 288 678 268 678 L31 678 C11 678 0 667 0 647 L0 600 C0 580 11 569 31 569 L31 569 Z " />
<glyph glyph-name="degree" unicode="&#xb0;" horiz-adv-x="381" d="M191 384 C285 384 347 443 347 533 C347 623 285 682 191 682 C96 682 33 623 33 533 C33 443 96 384 191 384 L191 384 Z M191 476 C157 476 135 498 135 533 C135 567 157 590 191 590 C225 590 247 567 247 533 C247 498 225 476 191 476 L191 476 Z " />
<glyph glyph-name="plusminus" unicode="&#xb1;" horiz-adv-x="551" d="M458 446 L339 446 L339 568 C339 588 328 599 308 599 L244 599 C224 599 213 588 213 568 L213 446 L93 446 C73 446 62 435 62 415 L62 356 C62 336 73 325 93 325 L213 325 L213 203 C213 183 224 172 244 172 L308 172 C328 172 339 183 339 203 L339 325 L458 325 C478 325 489 336 489 356 L489 415 C489 435 478 446 458 446 L458 446 Z M458 121 L93 121 C73 121 62 110 62 90 L62 31 C62 11 73 0 93 0 L458 0 C478 0 489 11 489 31 L489 90 C489 110 478 121 458 121 L458 121 Z " />
<glyph glyph-name="uni00B2" unicode="&#xb2;" horiz-adv-x="361" d="M62 368 L299 368 C315 368 324 377 324 393 L324 433 C324 449 315 458 299 458 L182 458 L182 463 L263 543 C298 576 325 613 325 662 C325 731 267 777 181 777 C94 777 37 729 37 657 L37 652 C37 636 46 627 62 627 L117 627 C129 627 137 634 137 647 L137 650 C137 672 154 689 181 689 C207 689 224 674 224 653 C224 631 203 604 171 573 L50 455 C41 445 37 436 37 424 L37 393 C37 377 46 368 62 368 L62 368 Z " />
<glyph glyph-name="uni00B3" unicode="&#xb3;" horiz-adv-x="375" d="M187 361 C277 361 338 409 338 477 C338 523 311 560 271 572 L271 577 C308 589 332 624 332 666 C332 732 273 777 188 777 C100 777 43 729 43 670 L43 667 C43 655 50 647 63 647 L122 647 C136 647 141 653 145 664 C151 684 165 693 186 693 C212 693 230 677 230 652 C230 626 210 609 182 609 L148 609 C132 609 123 600 123 584 L123 557 C123 541 132 532 148 532 L189 532 C217 532 236 515 236 489 C236 463 216 445 187 445 C162 445 146 454 140 476 C135 487 129 495 115 495 L56 495 C43 495 36 488 36 475 L36 470 C36 410 95 361 187 361 L187 361 Z " />
<glyph glyph-name="acute" unicode="&#xb4;" horiz-adv-x="245" d="M41 551 L88 551 C103 551 115 556 125 568 L210 666 C229 686 220 704 193 704 L107 704 C90 704 78 697 70 681 L19 587 C8 567 17 551 41 551 L41 551 Z " />
<glyph glyph-name="uni00B5" unicode="&#xb5;" horiz-adv-x="584" d="M481 500 L396 500 C376 500 365 489 365 469 L365 193 C365 156 334 127 289 127 C247 127 220 154 220 194 L220 469 C220 489 209 500 189 500 L103 500 C83 500 72 489 72 469 L72 -149 C72 -169 83 -180 103 -180 L189 -180 C209 -180 220 -169 220 -149 L220 -12 L224 -12 C291 -12 338 19 356 62 L365 62 L365 31 C365 11 376 0 396 0 L481 0 C501 0 512 11 512 31 L512 469 C512 489 501 500 481 500 L481 500 Z " />
<glyph glyph-name="paragraph" unicode="&#xb6;" horiz-adv-x="606" d="M353 670 L264 670 C133 670 47 582 47 448 C47 315 133 226 264 226 L287 226 L287 -139 C287 -159 298 -170 318 -170 L353 -170 C373 -170 384 -159 384 -139 L384 639 C384 659 373 670 353 670 L353 670 Z M513 670 L479 670 C459 670 448 659 448 639 L448 -139 C448 -159 459 -170 479 -170 L513 -170 C533 -170 544 -159 544 -139 L544 639 C544 659 533 670 513 670 L513 670 Z " />
<glyph glyph-name="periodcentered" unicode="&#xb7;" horiz-adv-x="300" d="M150 195 C203 195 238 230 238 283 C238 336 203 370 150 370 C97 370 62 336 62 283 C62 230 97 195 150 195 L150 195 Z " />
<glyph glyph-name="cedilla" unicode="&#xb8;" horiz-adv-x="219" d="M127 -41 L115 -41 L138 0 L136 2 L56 2 L58 0 L28 -49 C24 -56 22 -62 22 -70 L22 -79 C22 -94 31 -102 46 -102 L97 -102 C113 -102 124 -112 124 -126 C124 -145 103 -156 73 -156 C58 -156 43 -153 29 -149 C10 -145 0 -153 0 -175 L0 -189 C0 -206 7 -219 25 -224 C43 -229 64 -232 86 -232 C166 -232 219 -191 219 -130 C219 -76 182 -41 127 -41 L127 -41 Z " />
<glyph glyph-name="uni00B9" unicode="&#xb9;" horiz-adv-x="328" d="M267 458 L221 458 L221 745 C221 761 212 770 196 770 L161 770 C150 770 141 768 131 764 L67 736 C54 730 48 721 48 707 L48 670 C48 651 60 643 77 651 L118 669 L124 669 L124 458 L71 458 C55 458 46 449 46 433 L46 393 C46 377 55 368 71 368 L267 368 C282 368 291 377 291 393 L291 433 C291 449 282 458 267 458 L267 458 Z " />
<glyph glyph-name="ordmasculine" unicode="&#xba;" horiz-adv-x="418" d="M209 316 C302 316 364 373 364 459 L364 539 C364 625 302 682 209 682 C116 682 53 625 53 539 L53 459 C53 373 116 316 209 316 L209 316 Z M209 413 C179 413 159 432 159 460 L159 538 C159 566 179 585 209 585 C238 585 259 567 259 538 L259 460 C259 431 238 413 209 413 L209 413 Z " />
<glyph glyph-name="guillemotright" unicode="&#xbb;" horiz-adv-x="615" d="M82 70 L161 70 C177 70 190 76 199 89 L318 243 C328 258 328 272 318 287 L199 441 C190 454 177 460 161 460 L82 460 C57 460 48 443 61 423 L170 270 L170 260 L61 107 C48 87 57 70 82 70 L82 70 Z M335 70 L415 70 C431 70 443 76 452 89 L571 243 C582 258 582 272 571 287 L452 441 C443 454 431 460 415 460 L335 460 C310 460 301 443 315 423 L424 270 L424 260 L315 107 C301 87 310 70 335 70 L335 70 Z " />
<glyph glyph-name="onequarter" unicode="&#xbc;" horiz-adv-x="927" d="M291 293 L291 333 C291 349 282 358 267 358 L221 358 L221 645 C221 661 212 670 196 670 L161 670 C150 670 141 668 131 664 L67 636 C54 630 48 621 48 607 L48 570 C48 551 60 543 77 551 L118 569 L124 569 L124 358 L71 358 C55 358 46 349 46 333 L46 293 C46 277 55 268 71 268 L267 268 C282 268 291 277 291 293 L291 293 Z M684 670 L618 670 C606 670 596 665 590 654 L243 28 C234 12 241 0 259 0 L325 0 C337 0 347 5 353 16 L700 642 C709 658 702 670 684 670 L684 670 Z M866 161 L849 161 L849 377 C849 393 840 402 824 402 L741 402 C728 402 718 396 711 385 L575 163 C569 152 566 144 566 132 L566 100 C566 84 575 75 591 75 L752 75 L752 25 C752 9 761 0 777 0 L824 0 C840 0 849 9 849 25 L849 75 L866 75 C882 75 891 84 891 100 L891 136 C891 152 882 161 866 161 L866 161 Z M666 161 L666 165 L749 300 L756 300 L752 272 L752 161 L666 161 Z " />
<glyph glyph-name="onehalf" unicode="&#xbd;" horiz-adv-x="947" d="M291 293 L291 333 C291 349 282 358 267 358 L221 358 L221 645 C221 661 212 670 196 670 L161 670 C150 670 141 668 131 664 L67 636 C54 630 48 621 48 607 L48 570 C48 551 60 543 77 551 L118 569 L124 569 L124 358 L71 358 C55 358 46 349 46 333 L46 293 C46 277 55 268 71 268 L267 268 C282 268 291 277 291 293 L291 293 Z M684 670 L618 670 C606 670 596 665 590 654 L243 28 C234 12 241 0 259 0 L325 0 C337 0 347 5 353 16 L700 642 C709 658 702 670 684 670 L684 670 Z M884 90 L767 90 L767 95 L848 175 C883 208 910 245 910 294 C910 363 852 409 766 409 C679 409 622 361 622 289 L622 284 C622 268 631 259 647 259 L702 259 C714 259 722 266 722 279 L722 282 C722 304 739 321 766 321 C792 321 809 306 809 285 C809 263 788 236 756 205 L635 87 C626 77 622 68 622 56 L622 25 C622 9 631 0 647 0 L884 0 C900 0 909 9 909 25 L909 65 C909 81 900 90 884 90 L884 90 Z " />
<glyph glyph-name="threequarters" unicode="&#xbe;" horiz-adv-x="944" d="M338 377 C338 423 311 460 271 472 L271 477 C308 489 332 524 332 566 C332 632 273 677 188 677 C100 677 43 629 43 570 L43 567 C43 555 50 547 63 547 L122 547 C136 547 141 553 145 564 C151 584 165 593 186 593 C212 593 230 577 230 552 C230 526 210 509 182 509 L148 509 C132 509 123 500 123 484 L123 457 C123 441 132 432 148 432 L189 432 C217 432 236 415 236 389 C236 363 216 345 187 345 C162 345 146 354 140 376 C135 387 129 395 115 395 L56 395 C43 395 36 388 36 375 L36 370 C36 310 95 261 187 261 C277 261 338 309 338 377 L338 377 Z M701 670 L635 670 C623 670 613 665 607 654 L260 28 C251 12 258 0 276 0 L342 0 C354 0 364 5 370 16 L717 642 C726 658 719 670 701 670 L701 670 Z M883 161 L866 161 L866 377 C866 393 857 402 841 402 L758 402 C745 402 735 396 728 385 L592 163 C586 152 583 144 583 132 L583 100 C583 84 592 75 608 75 L769 75 L769 25 C769 9 778 0 794 0 L841 0 C857 0 866 9 866 25 L866 75 L883 75 C899 75 908 84 908 100 L908 136 C908 152 899 161 883 161 L883 161 Z M683 161 L683 165 L766 300 L773 300 L769 272 L769 161 L683 161 Z " />
<glyph glyph-name="questiondown" unicode="&#xbf;" horiz-adv-x="527" d="M271 510 C218 510 183 474 183 421 C183 368 218 333 271 333 C325 333 360 368 360 421 C360 474 325 510 271 510 L271 510 Z M316 281 L225 281 C210 281 196 276 196 258 L196 242 C196 160 32 147 32 7 C32 -112 127 -182 267 -182 C410 -182 503 -120 503 6 C503 26 493 38 473 38 L375 38 C361 38 356 30 352 20 C346 -24 319 -47 268 -47 C218 -47 185 -22 185 18 C185 102 345 96 345 224 L345 247 C345 268 336 281 316 281 L316 281 Z " />
<glyph glyph-name="Agrave" unicode="&#xc0;" horiz-adv-x="649" d="M269 738 C280 726 292 721 307 721 L353 721 C377 721 387 737 376 757 L324 851 C317 867 305 874 288 874 L202 874 C175 874 166 856 184 836 L269 738 Z M615 39 L437 640 C431 661 419 670 398 670 L251 670 C230 670 218 661 213 640 L34 39 C28 14 38 0 63 0 L154 0 C172 0 183 10 187 28 L213 127 L431 127 L457 28 C461 10 472 0 490 0 L586 0 C612 0 622 14 615 39 L615 39 Z M248 259 L317 522 L326 522 L396 259 L248 259 Z " />
<glyph glyph-name="Aacute" unicode="&#xc1;" horiz-adv-x="649" d="M295 721 L342 721 C357 721 369 726 379 738 L464 836 C483 856 474 874 447 874 L361 874 C344 874 332 867 324 851 L273 757 C262 737 271 721 295 721 L295 721 Z M615 39 L437 640 C431 661 419 670 398 670 L251 670 C230 670 218 661 213 640 L34 39 C28 14 38 0 63 0 L154 0 C172 0 183 10 187 28 L213 127 L431 127 L457 28 C461 10 472 0 490 0 L586 0 C612 0 622 14 615 39 L615 39 Z M248 259 L317 522 L326 522 L396 259 L248 259 Z " />
<glyph glyph-name="Acircumflex" unicode="&#xc2;" horiz-adv-x="649" d="M185 721 L235 721 C251 721 263 726 273 739 L321 791 L328 791 L376 739 C387 726 398 721 414 721 L464 721 C490 721 498 738 484 759 L411 855 C402 868 390 874 374 874 L275 874 C259 874 246 868 237 855 L165 759 C151 738 159 721 185 721 L185 721 Z M615 39 L437 640 C431 661 419 670 398 670 L251 670 C230 670 218 661 213 640 L34 39 C28 14 38 0 63 0 L154 0 C172 0 183 10 187 28 L213 127 L431 127 L457 28 C461 10 472 0 490 0 L586 0 C612 0 622 14 615 39 L615 39 Z M248 259 L317 522 L326 522 L396 259 L248 259 Z " />
<glyph glyph-name="Atilde" unicode="&#xc3;" horiz-adv-x="649" d="M157 728 L210 728 C230 728 235 734 239 746 C244 761 256 771 273 771 C310 771 346 725 406 725 C472 725 507 767 514 848 C516 869 506 881 491 881 L438 881 C418 881 413 875 409 863 C404 847 391 838 373 838 C335 838 303 884 243 884 C174 884 139 839 134 752 C133 736 142 728 157 728 L157 728 Z M615 39 L437 640 C431 661 419 670 398 670 L251 670 C230 670 218 661 213 640 L34 39 C28 14 38 0 63 0 L154 0 C172 0 183 10 187 28 L213 127 L431 127 L457 28 C461 10 472 0 490 0 L586 0 C612 0 622 14 615 39 L615 39 Z M248 259 L317 522 L326 522 L396 259 L248 259 Z " />
<glyph glyph-name="Adieresis" unicode="&#xc4;" horiz-adv-x="649" d="M222 724 C267 724 297 755 297 801 C297 846 267 876 222 876 C176 876 145 846 145 801 C145 755 176 724 222 724 L222 724 Z M429 724 C474 724 504 755 504 801 C504 846 474 876 429 876 C383 876 352 846 352 801 C352 755 383 724 429 724 L429 724 Z M615 39 L437 640 C431 661 419 670 398 670 L251 670 C230 670 218 661 213 640 L34 39 C28 14 38 0 63 0 L154 0 C172 0 183 10 187 28 L213 127 L431 127 L457 28 C461 10 472 0 490 0 L586 0 C612 0 622 14 615 39 L615 39 Z M248 259 L317 522 L326 522 L396 259 L248 259 Z " />
<glyph glyph-name="Aring" unicode="&#xc5;" horiz-adv-x="649" d="M325 713 C395 713 442 759 442 826 C442 893 395 939 325 939 C253 939 206 893 206 826 C206 759 253 713 325 713 L325 713 Z M325 872 C351 872 369 853 369 826 C369 799 351 780 325 780 C297 780 279 800 279 826 C279 853 298 872 325 872 L325 872 Z M615 39 L437 640 C431 661 419 670 398 670 L251 670 C230 670 218 661 213 640 L34 39 C28 14 38 0 63 0 L154 0 C172 0 183 10 187 28 L213 127 L431 127 L457 28 C461 10 472 0 490 0 L586 0 C612 0 622 14 615 39 L615 39 Z M248 259 L317 522 L326 522 L396 259 L248 259 Z " />
<glyph glyph-name="AE" unicode="&#xc6;" horiz-adv-x="891" d="M799 534 C821 534 833 546 833 568 L833 635 C833 658 821 670 799 670 L327 670 C306 670 293 662 285 642 L6 39 C-4 14 5 0 32 0 L125 0 C146 0 158 8 166 28 L210 127 L401 127 L401 35 C401 12 413 0 435 0 L799 0 C821 0 833 12 833 35 L833 102 C833 124 821 136 799 136 L548 136 L548 273 L760 273 C782 273 795 286 795 308 L795 368 C795 390 782 403 760 403 L548 403 L548 534 L799 534 Z M268 259 L389 534 L401 534 L401 259 L268 259 Z " />
<glyph glyph-name="Ccedilla" unicode="&#xc7;" horiz-adv-x="636" d="M553 258 L467 258 C447 258 438 248 435 228 C430 163 391 124 320 124 C249 124 202 168 202 235 L202 435 C202 502 249 546 320 546 C389 546 429 508 435 442 C438 422 447 412 467 412 L553 412 C573 412 583 424 583 444 C583 600 478 682 320 682 C159 682 54 585 54 438 L54 232 C54 100 139 8 272 -9 L248 -49 C244 -56 242 -62 242 -70 L242 -79 C242 -94 251 -102 266 -102 L317 -102 C333 -102 344 -112 344 -126 C344 -145 323 -156 293 -156 C278 -156 263 -153 249 -149 C230 -145 220 -153 220 -175 L220 -189 C220 -206 227 -219 245 -224 C263 -229 284 -232 306 -232 C386 -232 439 -191 439 -130 C439 -76 402 -41 347 -41 L335 -41 L352 -11 C490 0 583 78 583 224 C583 246 573 258 553 258 L553 258 Z " />
<glyph glyph-name="Egrave" unicode="&#xc8;" horiz-adv-x="562" d="M237 738 C248 726 260 721 275 721 L321 721 C345 721 355 737 344 757 L292 851 C285 867 273 874 256 874 L170 874 C143 874 134 856 152 836 L237 738 Z M475 535 C496 535 509 547 509 569 L509 636 C509 658 496 670 475 670 L110 670 C89 670 76 658 76 636 L76 34 C76 12 89 0 110 0 L475 0 C496 0 509 12 509 34 L509 101 C509 123 496 135 475 135 L224 135 L224 271 L436 271 C458 271 470 284 470 306 L470 370 C470 392 458 405 436 405 L224 405 L224 535 L475 535 Z " />
<glyph glyph-name="Eacute" unicode="&#xc9;" horiz-adv-x="562" d="M263 721 L310 721 C325 721 337 726 347 738 L432 836 C451 856 442 874 415 874 L329 874 C312 874 300 867 292 851 L241 757 C230 737 239 721 263 721 L263 721 Z M475 535 C496 535 509 547 509 569 L509 636 C509 658 496 670 475 670 L110 670 C89 670 76 658 76 636 L76 34 C76 12 89 0 110 0 L475 0 C496 0 509 12 509 34 L509 101 C509 123 496 135 475 135 L224 135 L224 271 L436 271 C458 271 470 284 470 306 L470 370 C470 392 458 405 436 405 L224 405 L224 535 L475 535 Z " />
<glyph glyph-name="Ecircumflex" unicode="&#xca;" horiz-adv-x="562" d="M153 721 L203 721 C219 721 231 726 241 739 L289 791 L296 791 L344 739 C355 726 366 721 382 721 L432 721 C458 721 466 738 452 759 L379 855 C370 868 358 874 342 874 L243 874 C227 874 214 868 205 855 L133 759 C119 738 127 721 153 721 L153 721 Z M475 535 C496 535 509 547 509 569 L509 636 C509 658 496 670 475 670 L110 670 C89 670 76 658 76 636 L76 34 C76 12 89 0 110 0 L475 0 C496 0 509 12 509 34 L509 101 C509 123 496 135 475 135 L224 135 L224 271 L436 271 C458 271 470 284 470 306 L470 370 C470 392 458 405 436 405 L224 405 L224 535 L475 535 Z " />
<glyph glyph-name="Edieresis" unicode="&#xcb;" horiz-adv-x="562" d="M190 724 C235 724 265 755 265 801 C265 846 235 876 190 876 C144 876 113 846 113 801 C113 755 144 724 190 724 L190 724 Z M397 724 C442 724 472 755 472 801 C472 846 442 876 397 876 C351 876 320 846 320 801 C320 755 351 724 397 724 L397 724 Z M475 535 C496 535 509 547 509 569 L509 636 C509 658 496 670 475 670 L110 670 C89 670 76 658 76 636 L76 34 C76 12 89 0 110 0 L475 0 C496 0 509 12 509 34 L509 101 C509 123 496 135 475 135 L224 135 L224 271 L436 271 C458 271 470 284 470 306 L470 370 C470 392 458 405 436 405 L224 405 L224 535 L475 535 Z " />
<glyph glyph-name="Igrave" unicode="&#xcc;" horiz-adv-x="300" d="M132 721 L178 721 C202 721 212 737 201 757 L149 851 C142 867 130 874 113 874 L27 874 C0 874 -9 856 9 836 L94 738 C105 726 117 721 132 721 L132 721 Z M111 0 L189 0 C211 0 224 12 224 35 L224 635 C224 658 211 670 189 670 L111 670 C89 670 76 658 76 635 L76 35 C76 12 89 0 111 0 L111 0 Z " />
<glyph glyph-name="Iacute" unicode="&#xcd;" horiz-adv-x="300" d="M121 721 L168 721 C183 721 195 726 205 738 L290 836 C309 856 300 874 273 874 L187 874 C170 874 158 867 150 851 L99 757 C88 737 97 721 121 721 L121 721 Z M111 0 L189 0 C211 0 224 12 224 35 L224 635 C224 658 211 670 189 670 L111 670 C89 670 76 658 76 635 L76 35 C76 12 89 0 111 0 L111 0 Z " />
<glyph glyph-name="Icircumflex" unicode="&#xce;" horiz-adv-x="300" d="M11 721 L61 721 C77 721 89 726 99 739 L147 791 L154 791 L202 739 C213 726 224 721 240 721 L290 721 C316 721 324 738 310 759 L237 855 C228 868 216 874 200 874 L101 874 C85 874 72 868 63 855 L-9 759 C-23 738 -15 721 11 721 L11 721 Z M111 0 L189 0 C211 0 224 12 224 35 L224 635 C224 658 211 670 189 670 L111 670 C89 670 76 658 76 635 L76 35 C76 12 89 0 111 0 L111 0 Z " />
<glyph glyph-name="Idieresis" unicode="&#xcf;" horiz-adv-x="300" d="M48 724 C93 724 123 755 123 801 C123 846 93 876 48 876 C2 876 -29 846 -29 801 C-29 755 2 724 48 724 L48 724 Z M255 724 C300 724 330 755 330 801 C330 846 300 876 255 876 C209 876 178 846 178 801 C178 755 209 724 255 724 L255 724 Z M111 0 L189 0 C211 0 224 12 224 35 L224 635 C224 658 211 670 189 670 L111 670 C89 670 76 658 76 635 L76 35 C76 12 89 0 111 0 L111 0 Z " />
<glyph glyph-name="Eth" unicode="&#xd0;" horiz-adv-x="651" d="M331 670 L111 670 C89 670 76 658 76 635 L76 394 L45 394 C25 394 14 383 14 363 L14 307 C14 287 25 276 45 276 L76 276 L76 35 C76 12 89 0 111 0 L331 0 C491 0 597 98 597 248 L597 422 C597 572 491 670 331 670 L331 670 Z M449 252 C449 180 403 136 327 136 L224 136 L224 276 L297 276 C317 276 328 287 328 307 L328 363 C328 383 317 394 297 394 L224 394 L224 534 L327 534 C403 534 449 490 449 418 L449 252 Z " />
<glyph glyph-name="Ntilde" unicode="&#xd1;" horiz-adv-x="685" d="M424 725 C490 725 525 767 532 848 C534 869 524 881 509 881 L456 881 C436 881 431 875 427 863 C422 847 409 838 391 838 C353 838 321 884 261 884 C192 884 157 839 152 752 C151 736 160 728 175 728 L228 728 C248 728 253 734 257 746 C262 761 274 771 291 771 C328 771 364 725 424 725 L424 725 Z M107 0 L193 0 C213 0 224 11 224 31 L224 377 L217 424 L229 424 L425 24 C432 8 444 0 462 0 L578 0 C598 0 609 11 609 31 L609 639 C609 659 598 670 578 670 L492 670 C472 670 461 659 461 639 L461 293 L468 246 L457 246 L260 646 C253 662 241 670 223 670 L107 670 C87 670 76 659 76 639 L76 31 C76 11 87 0 107 0 L107 0 Z " />
<glyph glyph-name="Ograve" unicode="&#xd2;" horiz-adv-x="649" d="M307 721 L353 721 C377 721 387 737 376 757 L324 851 C317 867 305 874 288 874 L202 874 C175 874 166 856 184 836 L269 738 C280 726 292 721 307 721 L307 721 Z M325 -12 C487 -12 595 87 595 237 L595 433 C595 583 487 682 325 682 C161 682 54 583 54 433 L54 237 C54 87 161 -12 325 -12 L325 -12 Z M325 124 C251 124 202 170 202 240 L202 430 C202 500 251 546 325 546 C398 546 447 500 447 430 L447 240 C447 170 398 124 325 124 L325 124 Z " />
<glyph glyph-name="Oacute" unicode="&#xd3;" horiz-adv-x="649" d="M295 721 L342 721 C357 721 369 726 379 738 L464 836 C483 856 474 874 447 874 L361 874 C344 874 332 867 324 851 L273 757 C262 737 271 721 295 721 L295 721 Z M325 -12 C487 -12 595 87 595 237 L595 433 C595 583 487 682 325 682 C161 682 54 583 54 433 L54 237 C54 87 161 -12 325 -12 L325 -12 Z M325 124 C251 124 202 170 202 240 L202 430 C202 500 251 546 325 546 C398 546 447 500 447 430 L447 240 C447 170 398 124 325 124 L325 124 Z " />
<glyph glyph-name="Ocircumflex" unicode="&#xd4;" horiz-adv-x="649" d="M185 721 L235 721 C251 721 263 726 273 739 L321 791 L328 791 L376 739 C387 726 398 721 414 721 L464 721 C490 721 498 738 484 759 L411 855 C402 868 390 874 374 874 L275 874 C259 874 246 868 237 855 L165 759 C151 738 159 721 185 721 L185 721 Z M325 -12 C487 -12 595 87 595 237 L595 433 C595 583 487 682 325 682 C161 682 54 583 54 433 L54 237 C54 87 161 -12 325 -12 L325 -12 Z M325 124 C251 124 202 170 202 240 L202 430 C202 500 251 546 325 546 C398 546 447 500 447 430 L447 240 C447 170 398 124 325 124 L325 124 Z " />
<glyph glyph-name="Otilde" unicode="&#xd5;" horiz-adv-x="649" d="M406 725 C472 725 507 767 514 848 C516 869 506 881 491 881 L438 881 C418 881 413 875 409 863 C404 847 391 838 373 838 C335 838 303 884 243 884 C174 884 139 839 134 752 C133 736 142 728 157 728 L210 728 C230 728 235 734 239 746 C244 761 256 771 273 771 C310 771 346 725 406 725 L406 725 Z M325 -12 C487 -12 595 87 595 237 L595 433 C595 583 487 682 325 682 C161 682 54 583 54 433 L54 237 C54 87 161 -12 325 -12 L325 -12 Z M325 124 C251 124 202 170 202 240 L202 430 C202 500 251 546 325 546 C398 546 447 500 447 430 L447 240 C447 170 398 124 325 124 L325 124 Z " />
<glyph glyph-name="Odieresis" unicode="&#xd6;" horiz-adv-x="649" d="M222 724 C267 724 297 755 297 801 C297 846 267 876 222 876 C176 876 145 846 145 801 C145 755 176 724 222 724 L222 724 Z M429 724 C474 724 504 755 504 801 C504 846 474 876 429 876 C383 876 352 846 352 801 C352 755 383 724 429 724 L429 724 Z M325 -12 C487 -12 595 87 595 237 L595 433 C595 583 487 682 325 682 C161 682 54 583 54 433 L54 237 C54 87 161 -12 325 -12 L325 -12 Z M325 124 C251 124 202 170 202 240 L202 430 C202 500 251 546 325 546 C398 546 447 500 447 430 L447 240 C447 170 398 124 325 124 L325 124 Z " />
<glyph glyph-name="multiply" unicode="&#xd7;" horiz-adv-x="491" d="M332 298 L418 384 C432 398 432 414 418 428 L375 471 C361 485 346 485 332 471 L245 384 L159 470 C144 485 129 484 116 470 L73 428 C59 414 58 399 73 384 L159 298 L73 212 C59 198 59 183 73 169 L116 125 C129 111 145 111 159 125 L246 212 L332 126 C346 111 361 112 375 126 L418 169 C432 183 432 197 418 212 L332 298 Z " />
<glyph glyph-name="Oslash" unicode="&#xd8;" horiz-adv-x="649" d="M529 606 L564 666 C576 686 567 700 548 700 L518 700 C503 700 492 694 485 680 L468 651 C427 671 379 682 325 682 C161 682 54 583 54 433 L54 237 C54 166 78 107 120 64 L84 4 C73 -16 82 -30 101 -30 L130 -30 C145 -30 156 -24 164 -10 L181 19 C222 -1 270 -12 325 -12 C487 -12 595 87 595 237 L595 433 C595 504 571 563 529 606 L529 606 Z M202 240 L202 430 C202 500 251 546 325 546 C352 546 376 540 395 528 L206 209 C203 219 202 229 202 240 L202 240 Z M447 240 C447 170 398 124 325 124 C297 124 273 130 254 142 L443 462 C446 452 447 441 447 430 L447 240 Z " />
<glyph glyph-name="Ugrave" unicode="&#xd9;" horiz-adv-x="654" d="M309 721 L355 721 C379 721 389 737 378 757 L326 851 C319 867 307 874 290 874 L204 874 C177 874 168 856 186 836 L271 738 C282 726 294 721 309 721 L309 721 Z M328 -12 C484 -12 587 83 587 227 L587 635 C587 658 575 670 553 670 L475 670 C452 670 440 658 440 635 L440 230 C440 166 395 124 328 124 C259 124 215 166 215 230 L215 635 C215 658 202 670 180 670 L102 670 C79 670 67 658 67 635 L67 227 C67 83 170 -12 328 -12 L328 -12 Z " />
<glyph glyph-name="Uacute" unicode="&#xda;" horiz-adv-x="654" d="M298 721 L345 721 C360 721 372 726 382 738 L467 836 C486 856 477 874 450 874 L364 874 C347 874 335 867 327 851 L276 757 C265 737 274 721 298 721 L298 721 Z M328 -12 C484 -12 587 83 587 227 L587 635 C587 658 575 670 553 670 L475 670 C452 670 440 658 440 635 L440 230 C440 166 395 124 328 124 C259 124 215 166 215 230 L215 635 C215 658 202 670 180 670 L102 670 C79 670 67 658 67 635 L67 227 C67 83 170 -12 328 -12 L328 -12 Z " />
<glyph glyph-name="Ucircumflex" unicode="&#xdb;" horiz-adv-x="654" d="M188 721 L238 721 C254 721 266 726 276 739 L324 791 L331 791 L379 739 C390 726 401 721 417 721 L467 721 C493 721 501 738 487 759 L414 855 C405 868 393 874 377 874 L278 874 C262 874 249 868 240 855 L168 759 C154 738 162 721 188 721 L188 721 Z M328 -12 C484 -12 587 83 587 227 L587 635 C587 658 575 670 553 670 L475 670 C452 670 440 658 440 635 L440 230 C440 166 395 124 328 124 C259 124 215 166 215 230 L215 635 C215 658 202 670 180 670 L102 670 C79 670 67 658 67 635 L67 227 C67 83 170 -12 328 -12 L328 -12 Z " />
<glyph glyph-name="Udieresis" unicode="&#xdc;" horiz-adv-x="654" d="M225 724 C270 724 300 755 300 801 C300 846 270 876 225 876 C179 876 148 846 148 801 C148 755 179 724 225 724 L225 724 Z M432 724 C477 724 507 755 507 801 C507 846 477 876 432 876 C386 876 355 846 355 801 C355 755 386 724 432 724 L432 724 Z M328 -12 C484 -12 587 83 587 227 L587 635 C587 658 575 670 553 670 L475 670 C452 670 440 658 440 635 L440 230 C440 166 395 124 328 124 C259 124 215 166 215 230 L215 635 C215 658 202 670 180 670 L102 670 C79 670 67 658 67 635 L67 227 C67 83 170 -12 328 -12 L328 -12 Z " />
<glyph glyph-name="Yacute" unicode="&#xdd;" horiz-adv-x="612" d="M277 721 L324 721 C339 721 351 726 361 738 L446 836 C465 856 456 874 429 874 L343 874 C326 874 314 867 306 851 L255 757 C244 737 253 721 277 721 L277 721 Z M267 0 L345 0 C368 0 380 12 380 35 L380 264 L576 629 C589 654 578 670 551 670 L461 670 C442 670 429 662 421 643 L314 424 L304 424 L196 643 C188 661 175 670 156 670 L61 670 C34 670 23 654 35 629 L232 263 L232 35 C232 12 245 0 267 0 L267 0 Z " />
<glyph glyph-name="Thorn" unicode="&#xde;" horiz-adv-x="629" d="M373 564 L224 564 L224 635 C224 658 211 670 189 670 L111 670 C89 670 76 658 76 635 L76 35 C76 12 89 0 111 0 L189 0 C211 0 224 12 224 35 L224 106 L373 106 C509 106 599 199 599 338 C599 476 509 564 373 564 L373 564 Z M358 242 L224 242 L224 428 L358 428 C416 428 451 392 451 335 C451 278 416 242 358 242 L358 242 Z " />
<glyph glyph-name="germandbls" unicode="&#xdf;" horiz-adv-x="552" d="M88 0 L166 0 C186 0 197 11 197 31 L197 480 C197 528 230 560 280 560 C329 560 362 528 362 481 C362 434 333 403 290 403 L280 403 C270 403 265 397 265 387 L265 307 C265 295 273 286 285 286 L303 286 C351 286 383 254 383 205 C383 155 351 122 303 122 L281 122 C266 122 257 113 257 99 L257 31 C257 11 268 0 288 0 L327 0 C445 0 523 70 523 179 C523 261 479 329 412 345 L412 352 C467 372 502 426 502 495 C502 607 414 682 281 682 C146 682 57 607 57 493 L57 31 C57 11 68 0 88 0 L88 0 Z " />
<glyph glyph-name="agrave" unicode="&#xe0;" horiz-adv-x="525" d="M207 568 C218 556 230 551 245 551 L291 551 C315 551 325 567 314 587 L262 681 C255 697 243 704 226 704 L140 704 C113 704 104 686 122 666 L207 568 Z M260 512 C139 512 50 453 50 366 C50 346 61 335 81 335 L158 335 C176 335 184 345 188 359 C197 387 221 399 257 399 C303 399 332 373 332 333 L332 287 L196 287 C97 287 31 227 31 136 C31 46 96 -12 193 -12 C259 -12 308 17 328 63 L337 63 L337 31 C337 11 348 0 368 0 L441 0 C461 0 472 11 472 31 L472 343 C472 445 389 512 260 512 L260 512 Z M247 94 C201 94 172 115 172 146 C172 175 195 195 230 195 L332 195 L332 152 C332 117 297 94 247 94 L247 94 Z " />
<glyph glyph-name="aacute" unicode="&#xe1;" horiz-adv-x="525" d="M234 551 L281 551 C296 551 308 556 318 568 L403 666 C422 686 413 704 386 704 L300 704 C283 704 271 697 263 681 L212 587 C201 567 210 551 234 551 L234 551 Z M260 512 C139 512 50 453 50 366 C50 346 61 335 81 335 L158 335 C176 335 184 345 188 359 C197 387 221 399 257 399 C303 399 332 373 332 333 L332 287 L196 287 C97 287 31 227 31 136 C31 46 96 -12 193 -12 C259 -12 308 17 328 63 L337 63 L337 31 C337 11 348 0 368 0 L441 0 C461 0 472 11 472 31 L472 343 C472 445 389 512 260 512 L260 512 Z M247 94 C201 94 172 115 172 146 C172 175 195 195 230 195 L332 195 L332 152 C332 117 297 94 247 94 L247 94 Z " />
<glyph glyph-name="acircumflex" unicode="&#xe2;" horiz-adv-x="525" d="M123 551 L173 551 C189 551 201 556 211 569 L259 621 L266 621 L314 569 C325 556 336 551 352 551 L402 551 C428 551 436 568 422 589 L349 685 C340 698 328 704 312 704 L213 704 C197 704 184 698 175 685 L103 589 C89 568 97 551 123 551 L123 551 Z M260 512 C139 512 50 453 50 366 C50 346 61 335 81 335 L158 335 C176 335 184 345 188 359 C197 387 221 399 257 399 C303 399 332 373 332 333 L332 287 L196 287 C97 287 31 227 31 136 C31 46 96 -12 193 -12 C259 -12 308 17 328 63 L337 63 L337 31 C337 11 348 0 368 0 L441 0 C461 0 472 11 472 31 L472 343 C472 445 389 512 260 512 L260 512 Z M247 94 C201 94 172 115 172 146 C172 175 195 195 230 195 L332 195 L332 152 C332 117 297 94 247 94 L247 94 Z " />
<glyph glyph-name="atilde" unicode="&#xe3;" horiz-adv-x="525" d="M96 558 L149 558 C169 558 174 564 178 576 C183 591 195 601 212 601 C249 601 285 555 345 555 C411 555 446 597 453 678 C455 699 445 711 430 711 L377 711 C357 711 352 705 348 693 C343 677 330 668 312 668 C274 668 242 714 182 714 C113 714 78 669 73 582 C72 566 81 558 96 558 L96 558 Z M260 512 C139 512 50 453 50 366 C50 346 61 335 81 335 L158 335 C176 335 184 345 188 359 C197 387 221 399 257 399 C303 399 332 373 332 333 L332 287 L196 287 C97 287 31 227 31 136 C31 46 96 -12 193 -12 C259 -12 308 17 328 63 L337 63 L337 31 C337 11 348 0 368 0 L441 0 C461 0 472 11 472 31 L472 343 C472 445 389 512 260 512 L260 512 Z M247 94 C201 94 172 115 172 146 C172 175 195 195 230 195 L332 195 L332 152 C332 117 297 94 247 94 L247 94 Z " />
<glyph glyph-name="adieresis" unicode="&#xe4;" horiz-adv-x="525" d="M160 554 C205 554 235 585 235 631 C235 676 205 706 160 706 C114 706 83 676 83 631 C83 585 114 554 160 554 L160 554 Z M367 554 C412 554 442 585 442 631 C442 676 412 706 367 706 C321 706 290 676 290 631 C290 585 321 554 367 554 L367 554 Z M260 512 C139 512 50 453 50 366 C50 346 61 335 81 335 L158 335 C176 335 184 345 188 359 C197 387 221 399 257 399 C303 399 332 373 332 333 L332 287 L196 287 C97 287 31 227 31 136 C31 46 96 -12 193 -12 C259 -12 308 17 328 63 L337 63 L337 31 C337 11 348 0 368 0 L441 0 C461 0 472 11 472 31 L472 343 C472 445 389 512 260 512 L260 512 Z M247 94 C201 94 172 115 172 146 C172 175 195 195 230 195 L332 195 L332 152 C332 117 297 94 247 94 L247 94 Z " />
<glyph glyph-name="aring" unicode="&#xe5;" horiz-adv-x="525" d="M263 543 C333 543 380 589 380 656 C380 723 333 769 263 769 C191 769 144 723 144 656 C144 589 191 543 263 543 L263 543 Z M263 702 C289 702 307 683 307 656 C307 629 289 610 263 610 C235 610 217 630 217 656 C217 683 236 702 263 702 L263 702 Z M260 512 C139 512 50 453 50 366 C50 346 61 335 81 335 L158 335 C176 335 184 345 188 359 C197 387 221 399 257 399 C303 399 332 373 332 333 L332 287 L196 287 C97 287 31 227 31 136 C31 46 96 -12 193 -12 C259 -12 308 17 328 63 L337 63 L337 31 C337 11 348 0 368 0 L441 0 C461 0 472 11 472 31 L472 343 C472 445 389 512 260 512 L260 512 Z M247 94 C201 94 172 115 172 146 C172 175 195 195 230 195 L332 195 L332 152 C332 117 297 94 247 94 L247 94 Z " />
<glyph glyph-name="ae" unicode="&#xe6;" horiz-adv-x="815" d="M740 202 C760 202 771 213 771 233 L771 314 C771 433 687 512 563 512 C492 512 431 485 406 445 L399 445 C373 485 314 512 241 512 C134 512 51 463 51 366 C51 346 62 335 82 335 L160 335 C176 335 184 343 189 360 C196 384 217 399 258 399 C303 399 332 373 332 333 L332 291 L198 291 C97 291 31 231 31 141 C31 49 105 -12 221 -12 C298 -12 370 15 399 55 L406 55 C432 15 496 -12 572 -12 C679 -12 754 35 769 124 C772 145 759 156 741 156 L657 156 C641 156 634 148 628 136 C616 113 592 101 557 101 C505 101 472 131 472 176 L472 202 L740 202 Z M552 399 C600 399 631 370 631 325 L631 297 L472 297 L472 325 C472 370 505 399 552 399 L552 399 Z M248 94 C202 94 172 116 172 148 C172 178 196 197 231 197 L332 197 L332 153 C332 118 298 94 248 94 L248 94 Z " />
<glyph glyph-name="ccedilla" unicode="&#xe7;" horiz-adv-x="512" d="M445 201 L365 201 C347 201 338 191 335 179 C330 139 302 117 259 117 C213 117 183 146 183 189 L183 311 C183 354 213 383 259 383 C300 383 330 362 335 321 C338 309 347 299 365 299 L445 299 C465 299 474 311 474 331 C474 447 383 512 259 512 C129 512 43 433 43 312 L43 188 C43 82 109 8 213 -8 L188 -49 C184 -56 182 -62 182 -70 L182 -79 C182 -94 191 -102 206 -102 L257 -102 C273 -102 284 -112 284 -126 C284 -145 263 -156 233 -156 C218 -156 203 -153 189 -149 C170 -145 160 -153 160 -175 L160 -189 C160 -206 167 -219 185 -224 C203 -229 224 -232 246 -232 C326 -232 379 -191 379 -130 C379 -76 342 -41 287 -41 L275 -41 L292 -10 C398 0 474 62 474 168 C474 189 465 201 445 201 L445 201 Z " />
<glyph glyph-name="egrave" unicode="&#xe8;" horiz-adv-x="526" d="M207 568 C218 556 230 551 245 551 L291 551 C315 551 325 567 314 587 L262 681 C255 697 243 704 226 704 L140 704 C113 704 104 686 122 666 L207 568 Z M451 204 C471 204 482 215 482 235 L482 308 C482 431 395 512 263 512 C130 512 43 432 43 310 L43 190 C43 68 131 -12 266 -12 C384 -12 466 41 479 126 C482 146 470 156 452 156 L368 156 C350 156 344 148 338 135 C327 113 301 101 266 101 C216 101 183 131 183 176 L183 204 L451 204 Z M263 399 C311 399 342 370 342 325 L342 300 L183 300 L183 325 C183 370 215 399 263 399 L263 399 Z " />
<glyph glyph-name="eacute" unicode="&#xe9;" horiz-adv-x="526" d="M234 551 L281 551 C296 551 308 556 318 568 L403 666 C422 686 413 704 386 704 L300 704 C283 704 271 697 263 681 L212 587 C201 567 210 551 234 551 L234 551 Z M451 204 C471 204 482 215 482 235 L482 308 C482 431 395 512 263 512 C130 512 43 432 43 310 L43 190 C43 68 131 -12 266 -12 C384 -12 466 41 479 126 C482 146 470 156 452 156 L368 156 C350 156 344 148 338 135 C327 113 301 101 266 101 C216 101 183 131 183 176 L183 204 L451 204 Z M263 399 C311 399 342 370 342 325 L342 300 L183 300 L183 325 C183 370 215 399 263 399 L263 399 Z " />
<glyph glyph-name="ecircumflex" unicode="&#xea;" horiz-adv-x="526" d="M123 551 L173 551 C189 551 201 556 211 569 L259 621 L266 621 L314 569 C325 556 336 551 352 551 L402 551 C428 551 436 568 422 589 L349 685 C340 698 328 704 312 704 L213 704 C197 704 184 698 175 685 L103 589 C89 568 97 551 123 551 L123 551 Z M451 204 C471 204 482 215 482 235 L482 308 C482 431 395 512 263 512 C130 512 43 432 43 310 L43 190 C43 68 131 -12 266 -12 C384 -12 466 41 479 126 C482 146 470 156 452 156 L368 156 C350 156 344 148 338 135 C327 113 301 101 266 101 C216 101 183 131 183 176 L183 204 L451 204 Z M263 399 C311 399 342 370 342 325 L342 300 L183 300 L183 325 C183 370 215 399 263 399 L263 399 Z " />
<glyph glyph-name="edieresis" unicode="&#xeb;" horiz-adv-x="526" d="M160 554 C205 554 235 585 235 631 C235 676 205 706 160 706 C114 706 83 676 83 631 C83 585 114 554 160 554 L160 554 Z M367 554 C412 554 442 585 442 631 C442 676 412 706 367 706 C321 706 290 676 290 631 C290 585 321 554 367 554 L367 554 Z M451 204 C471 204 482 215 482 235 L482 308 C482 431 395 512 263 512 C130 512 43 432 43 310 L43 190 C43 68 131 -12 266 -12 C384 -12 466 41 479 126 C482 146 470 156 452 156 L368 156 C350 156 344 148 338 135 C327 113 301 101 266 101 C216 101 183 131 183 176 L183 204 L451 204 Z M263 399 C311 399 342 370 342 325 L342 300 L183 300 L183 325 C183 370 215 399 263 399 L263 399 Z " />
<glyph glyph-name="igrave" unicode="&#xec;" horiz-adv-x="264" d="M114 551 L160 551 C184 551 194 567 183 587 L131 681 C124 697 112 704 95 704 L9 704 C-18 704 -27 686 -9 666 L76 568 C87 556 99 551 114 551 L114 551 Z M93 0 L171 0 C191 0 202 11 202 31 L202 469 C202 489 191 500 171 500 L93 500 C73 500 62 489 62 469 L62 31 C62 11 73 0 93 0 L93 0 Z " />
<glyph glyph-name="iacute" unicode="&#xed;" horiz-adv-x="264" d="M103 551 L150 551 C165 551 177 556 187 568 L272 666 C291 686 282 704 255 704 L169 704 C152 704 140 697 132 681 L81 587 C70 567 79 551 103 551 L103 551 Z M93 0 L171 0 C191 0 202 11 202 31 L202 469 C202 489 191 500 171 500 L93 500 C73 500 62 489 62 469 L62 31 C62 11 73 0 93 0 L93 0 Z " />
<glyph glyph-name="icircumflex" unicode="&#xee;" horiz-adv-x="264" d="M-8 551 L42 551 C58 551 70 556 80 569 L128 621 L135 621 L183 569 C194 556 205 551 221 551 L271 551 C297 551 305 568 291 589 L218 685 C209 698 197 704 181 704 L82 704 C66 704 53 698 44 685 L-28 589 C-42 568 -34 551 -8 551 L-8 551 Z M93 0 L171 0 C191 0 202 11 202 31 L202 469 C202 489 191 500 171 500 L93 500 C73 500 62 489 62 469 L62 31 C62 11 73 0 93 0 L93 0 Z " />
<glyph glyph-name="idieresis" unicode="&#xef;" horiz-adv-x="264" d="M29 554 C74 554 104 585 104 631 C104 676 74 706 29 706 C-17 706 -48 676 -48 631 C-48 585 -17 554 29 554 L29 554 Z M236 554 C281 554 311 585 311 631 C311 676 281 706 236 706 C190 706 159 676 159 631 C159 585 190 554 236 554 L236 554 Z M93 0 L171 0 C191 0 202 11 202 31 L202 469 C202 489 191 500 171 500 L93 500 C73 500 62 489 62 469 L62 31 C62 11 73 0 93 0 L93 0 Z " />
<glyph glyph-name="eth" unicode="&#xf0;" horiz-adv-x="526" d="M390 566 L417 574 C434 578 444 590 444 609 L444 627 C444 649 430 659 409 654 L339 633 C329 645 318 656 306 667 C294 678 283 682 268 682 L207 682 C180 682 175 668 194 648 C208 634 222 619 235 603 L188 589 C170 585 161 573 161 555 L161 536 C161 514 174 504 195 509 L280 534 C298 501 312 466 321 432 L313 432 C292 456 254 472 207 472 C110 472 40 397 40 285 L40 190 C40 68 128 -12 260 -12 C392 -12 479 68 479 190 L479 278 C479 376 446 480 390 566 L390 566 Z M339 191 C339 146 308 117 260 117 C212 117 180 146 180 191 L180 269 C180 314 212 343 260 343 C308 343 339 314 339 269 L339 191 Z " />
<glyph glyph-name="ntilde" unicode="&#xf1;" horiz-adv-x="550" d="M112 558 L165 558 C185 558 190 564 194 576 C199 591 211 601 228 601 C265 601 301 555 361 555 C427 555 462 597 469 678 C471 699 461 711 446 711 L393 711 C373 711 368 705 364 693 C359 677 346 668 328 668 C290 668 258 714 198 714 C129 714 94 669 89 582 C88 566 97 558 112 558 L112 558 Z M345 512 C280 512 230 478 210 430 L202 430 L202 469 C202 489 191 500 171 500 L93 500 C73 500 62 489 62 469 L62 31 C62 11 73 0 93 0 L171 0 C191 0 202 11 202 31 L202 312 C202 350 234 381 282 381 C326 381 355 353 355 311 L355 31 C355 11 366 0 386 0 L464 0 C484 0 495 11 495 31 L495 365 C495 453 434 512 345 512 L345 512 Z " />
<glyph glyph-name="ograve" unicode="&#xf2;" horiz-adv-x="526" d="M245 551 L291 551 C315 551 325 567 314 587 L262 681 C255 697 243 704 226 704 L140 704 C113 704 104 686 122 666 L207 568 C218 556 230 551 245 551 L245 551 Z M263 -12 C395 -12 482 68 482 190 L482 310 C482 432 395 512 263 512 C131 512 43 432 43 310 L43 190 C43 68 131 -12 263 -12 L263 -12 Z M263 117 C215 117 183 146 183 191 L183 309 C183 354 215 383 263 383 C311 383 342 354 342 309 L342 191 C342 146 311 117 263 117 L263 117 Z " />
<glyph glyph-name="oacute" unicode="&#xf3;" horiz-adv-x="526" d="M234 551 L281 551 C296 551 308 556 318 568 L403 666 C422 686 413 704 386 704 L300 704 C283 704 271 697 263 681 L212 587 C201 567 210 551 234 551 L234 551 Z M263 -12 C395 -12 482 68 482 190 L482 310 C482 432 395 512 263 512 C131 512 43 432 43 310 L43 190 C43 68 131 -12 263 -12 L263 -12 Z M263 117 C215 117 183 146 183 191 L183 309 C183 354 215 383 263 383 C311 383 342 354 342 309 L342 191 C342 146 311 117 263 117 L263 117 Z " />
<glyph glyph-name="ocircumflex" unicode="&#xf4;" horiz-adv-x="526" d="M123 551 L173 551 C189 551 201 556 211 569 L259 621 L266 621 L314 569 C325 556 336 551 352 551 L402 551 C428 551 436 568 422 589 L349 685 C340 698 328 704 312 704 L213 704 C197 704 184 698 175 685 L103 589 C89 568 97 551 123 551 L123 551 Z M263 -12 C395 -12 482 68 482 190 L482 310 C482 432 395 512 263 512 C131 512 43 432 43 310 L43 190 C43 68 131 -12 263 -12 L263 -12 Z M263 117 C215 117 183 146 183 191 L183 309 C183 354 215 383 263 383 C311 383 342 354 342 309 L342 191 C342 146 311 117 263 117 L263 117 Z " />
<glyph glyph-name="otilde" unicode="&#xf5;" horiz-adv-x="526" d="M345 555 C411 555 446 597 453 678 C455 699 445 711 430 711 L377 711 C357 711 352 705 348 693 C343 677 330 668 312 668 C274 668 242 714 182 714 C113 714 78 669 73 582 C72 566 81 558 96 558 L149 558 C169 558 174 564 178 576 C183 591 195 601 212 601 C249 601 285 555 345 555 L345 555 Z M263 -12 C395 -12 482 68 482 190 L482 310 C482 432 395 512 263 512 C131 512 43 432 43 310 L43 190 C43 68 131 -12 263 -12 L263 -12 Z M263 117 C215 117 183 146 183 191 L183 309 C183 354 215 383 263 383 C311 383 342 354 342 309 L342 191 C342 146 311 117 263 117 L263 117 Z " />
<glyph glyph-name="odieresis" unicode="&#xf6;" horiz-adv-x="526" d="M160 554 C205 554 235 585 235 631 C235 676 205 706 160 706 C114 706 83 676 83 631 C83 585 114 554 160 554 L160 554 Z M367 554 C412 554 442 585 442 631 C442 676 412 706 367 706 C321 706 290 676 290 631 C290 585 321 554 367 554 L367 554 Z M263 -12 C395 -12 482 68 482 190 L482 310 C482 432 395 512 263 512 C131 512 43 432 43 310 L43 190 C43 68 131 -12 263 -12 L263 -12 Z M263 117 C215 117 183 146 183 191 L183 309 C183 354 215 383 263 383 C311 383 342 354 342 309 L342 191 C342 146 311 117 263 117 L263 117 Z " />
<glyph glyph-name="divide" unicode="&#xf7;" horiz-adv-x="551" d="M276 406 C320 406 349 435 349 479 C349 523 320 552 276 552 C232 552 202 523 202 479 C202 435 232 406 276 406 L276 406 Z M93 245 L458 245 C478 245 489 256 489 276 L489 320 C489 340 478 351 458 351 L93 351 C73 351 62 340 62 320 L62 276 C62 256 73 245 93 245 L93 245 Z M276 44 C320 44 349 74 349 118 C349 162 320 191 276 191 C232 191 202 162 202 118 C202 74 232 44 276 44 L276 44 Z " />
<glyph glyph-name="oslash" unicode="&#xf8;" horiz-adv-x="526" d="M426 453 L453 495 C466 515 457 530 437 530 L415 530 C400 530 389 525 381 511 L368 491 C338 505 303 512 263 512 C131 512 43 432 43 310 L43 190 C43 131 63 82 100 47 L73 5 C60 -15 69 -30 89 -30 L111 -30 C126 -30 136 -24 145 -11 L157 9 C188 -5 223 -12 263 -12 C395 -12 482 68 482 190 L482 310 C482 369 462 418 426 453 L426 453 Z M183 309 C183 354 215 383 263 383 C279 383 294 380 306 373 L185 172 C184 178 183 184 183 191 L183 309 Z M342 191 C342 146 311 117 263 117 C247 117 232 120 220 127 L340 327 C341 322 342 315 342 309 L342 191 Z " />
<glyph glyph-name="ugrave" unicode="&#xf9;" horiz-adv-x="543" d="M213 568 C224 556 236 551 251 551 L297 551 C321 551 331 567 320 587 L268 681 C261 697 249 704 232 704 L146 704 C119 704 110 686 128 666 L213 568 Z M450 500 L372 500 C352 500 341 489 341 469 L341 186 C341 148 311 119 266 119 C223 119 196 146 196 187 L196 469 C196 489 185 500 165 500 L87 500 C67 500 56 489 56 469 L56 134 C56 46 116 -12 203 -12 C267 -12 314 22 333 70 L341 70 L341 31 C341 11 352 0 372 0 L450 0 C470 0 481 11 481 31 L481 469 C481 489 470 500 450 500 L450 500 Z " />
<glyph glyph-name="uacute" unicode="&#xfa;" horiz-adv-x="543" d="M239 551 L286 551 C301 551 313 556 323 568 L408 666 C427 686 418 704 391 704 L305 704 C288 704 276 697 268 681 L217 587 C206 567 215 551 239 551 L239 551 Z M450 500 L372 500 C352 500 341 489 341 469 L341 186 C341 148 311 119 266 119 C223 119 196 146 196 187 L196 469 C196 489 185 500 165 500 L87 500 C67 500 56 489 56 469 L56 134 C56 46 116 -12 203 -12 C267 -12 314 22 333 70 L341 70 L341 31 C341 11 352 0 372 0 L450 0 C470 0 481 11 481 31 L481 469 C481 489 470 500 450 500 L450 500 Z " />
<glyph glyph-name="ucircumflex" unicode="&#xfb;" horiz-adv-x="543" d="M129 551 L179 551 C195 551 207 556 217 569 L265 621 L272 621 L320 569 C331 556 342 551 358 551 L408 551 C434 551 442 568 428 589 L355 685 C346 698 334 704 318 704 L219 704 C203 704 190 698 181 685 L109 589 C95 568 103 551 129 551 L129 551 Z M450 500 L372 500 C352 500 341 489 341 469 L341 186 C341 148 311 119 266 119 C223 119 196 146 196 187 L196 469 C196 489 185 500 165 500 L87 500 C67 500 56 489 56 469 L56 134 C56 46 116 -12 203 -12 C267 -12 314 22 333 70 L341 70 L341 31 C341 11 352 0 372 0 L450 0 C470 0 481 11 481 31 L481 469 C481 489 470 500 450 500 L450 500 Z " />
<glyph glyph-name="udieresis" unicode="&#xfc;" horiz-adv-x="543" d="M166 554 C211 554 241 585 241 631 C241 676 211 706 166 706 C120 706 89 676 89 631 C89 585 120 554 166 554 L166 554 Z M373 554 C418 554 448 585 448 631 C448 676 418 706 373 706 C327 706 296 676 296 631 C296 585 327 554 373 554 L373 554 Z M450 500 L372 500 C352 500 341 489 341 469 L341 186 C341 148 311 119 266 119 C223 119 196 146 196 187 L196 469 C196 489 185 500 165 500 L87 500 C67 500 56 489 56 469 L56 134 C56 46 116 -12 203 -12 C267 -12 314 22 333 70 L341 70 L341 31 C341 11 352 0 372 0 L450 0 C470 0 481 11 481 31 L481 469 C481 489 470 500 450 500 L450 500 Z " />
<glyph glyph-name="yacute" unicode="&#xfd;" horiz-adv-x="528" d="M235 551 L282 551 C297 551 309 556 319 568 L404 666 C423 686 414 704 387 704 L301 704 C284 704 272 697 264 681 L213 587 C202 567 211 551 235 551 L235 551 Z M106 -180 L174 -180 C254 -180 304 -144 327 -71 L499 465 C506 486 495 500 475 500 L389 500 C371 500 359 491 356 472 L275 157 L260 157 L178 472 C175 491 163 500 145 500 L53 500 C34 500 23 486 29 465 L166 36 C171 21 180 15 195 15 L211 15 L195 -28 C187 -53 168 -64 139 -64 L106 -64 C86 -64 75 -75 75 -95 L75 -149 C75 -169 86 -180 106 -180 L106 -180 Z " />
<glyph glyph-name="thorn" unicode="&#xfe;" horiz-adv-x="547" d="M343 512 C278 512 229 478 210 430 L202 430 L202 669 C202 689 191 700 171 700 L93 700 C73 700 62 689 62 669 L62 -149 C62 -169 73 -180 93 -180 L171 -180 C191 -180 202 -169 202 -149 L202 70 L210 70 C229 22 278 -12 343 -12 C437 -12 501 53 501 151 L501 349 C501 447 437 512 343 512 L343 512 Z M361 193 C361 148 330 119 283 119 C234 119 202 151 202 192 L202 308 C202 349 234 381 283 381 C330 381 361 352 361 307 L361 193 Z " />
<glyph glyph-name="ydieresis" unicode="&#xff;" horiz-adv-x="528" d="M161 554 C206 554 236 585 236 631 C236 676 206 706 161 706 C115 706 84 676 84 631 C84 585 115 554 161 554 L161 554 Z M368 554 C413 554 443 585 443 631 C443 676 413 706 368 706 C322 706 291 676 291 631 C291 585 322 554 368 554 L368 554 Z M106 -180 L174 -180 C254 -180 304 -144 327 -71 L499 465 C506 486 495 500 475 500 L389 500 C371 500 359 491 356 472 L275 157 L260 157 L178 472 C175 491 163 500 145 500 L53 500 C34 500 23 486 29 465 L166 36 C171 21 180 15 195 15 L211 15 L195 -28 C187 -53 168 -64 139 -64 L106 -64 C86 -64 75 -75 75 -95 L75 -149 C75 -169 86 -180 106 -180 L106 -180 Z " />
<glyph glyph-name="Amacron" unicode="&#x100;" horiz-adv-x="649" d="M206 739 L443 739 C463 739 474 750 474 770 L474 817 C474 837 463 848 443 848 L206 848 C186 848 175 837 175 817 L175 770 C175 750 186 739 206 739 L206 739 Z M615 39 L437 640 C431 661 419 670 398 670 L251 670 C230 670 218 661 213 640 L34 39 C28 14 38 0 63 0 L154 0 C172 0 183 10 187 28 L213 127 L431 127 L457 28 C461 10 472 0 490 0 L586 0 C612 0 622 14 615 39 L615 39 Z M248 259 L317 522 L326 522 L396 259 L248 259 Z " />
<glyph glyph-name="amacron" unicode="&#x101;" horiz-adv-x="525" d="M145 569 L382 569 C402 569 413 580 413 600 L413 647 C413 667 402 678 382 678 L145 678 C125 678 114 667 114 647 L114 600 C114 580 125 569 145 569 L145 569 Z M260 512 C139 512 50 453 50 366 C50 346 61 335 81 335 L158 335 C176 335 184 345 188 359 C197 387 221 399 257 399 C303 399 332 373 332 333 L332 287 L196 287 C97 287 31 227 31 136 C31 46 96 -12 193 -12 C259 -12 308 17 328 63 L337 63 L337 31 C337 11 348 0 368 0 L441 0 C461 0 472 11 472 31 L472 343 C472 445 389 512 260 512 L260 512 Z M247 94 C201 94 172 115 172 146 C172 175 195 195 230 195 L332 195 L332 152 C332 117 297 94 247 94 L247 94 Z " />
<glyph glyph-name="Abreve" unicode="&#x102;" horiz-adv-x="649" d="M325 713 C412 713 471 758 483 839 C486 860 473 873 453 873 L399 873 C385 873 378 865 375 853 C372 828 354 813 325 813 C296 813 278 826 273 853 C270 865 264 873 249 873 L195 873 C175 873 162 861 165 840 C176 760 236 713 325 713 L325 713 Z M615 39 L437 640 C431 661 419 670 398 670 L251 670 C230 670 218 661 213 640 L34 39 C28 14 38 0 63 0 L154 0 C172 0 183 10 187 28 L213 127 L431 127 L457 28 C461 10 472 0 490 0 L586 0 C612 0 622 14 615 39 L615 39 Z M248 259 L317 522 L326 522 L396 259 L248 259 Z " />
<glyph glyph-name="abreve" unicode="&#x103;" horiz-adv-x="525" d="M263 543 C350 543 409 588 421 669 C424 690 411 703 391 703 L337 703 C323 703 316 695 313 683 C310 658 292 643 263 643 C234 643 216 656 211 683 C208 695 202 703 187 703 L133 703 C113 703 100 691 103 670 C114 590 174 543 263 543 L263 543 Z M260 512 C139 512 50 453 50 366 C50 346 61 335 81 335 L158 335 C176 335 184 345 188 359 C197 387 221 399 257 399 C303 399 332 373 332 333 L332 287 L196 287 C97 287 31 227 31 136 C31 46 96 -12 193 -12 C259 -12 308 17 328 63 L337 63 L337 31 C337 11 348 0 368 0 L441 0 C461 0 472 11 472 31 L472 343 C472 445 389 512 260 512 L260 512 Z M247 94 C201 94 172 115 172 146 C172 175 195 195 230 195 L332 195 L332 152 C332 117 297 94 247 94 L247 94 Z " />
<glyph glyph-name="Aogonek" unicode="&#x104;" horiz-adv-x="649" d="M583 -2 L588 0 C612 1 622 15 615 39 L437 640 C431 661 419 670 398 670 L251 670 C230 670 218 661 213 640 L34 39 C28 14 38 0 63 0 L154 0 C172 0 183 10 187 28 L213 127 L431 127 L457 28 C460 16 466 7 475 3 L475 1 C430 -18 401 -62 401 -111 C401 -174 451 -216 526 -216 C552 -216 576 -213 591 -207 C602 -203 606 -194 606 -181 L606 -135 C606 -117 599 -112 585 -116 C580 -117 574 -118 568 -118 C544 -118 528 -102 528 -78 C528 -47 549 -17 583 -2 L583 -2 Z M248 259 L317 522 L326 522 L396 259 L248 259 Z " />
<glyph glyph-name="aogonek" unicode="&#x105;" horiz-adv-x="525" d="M460 -118 C455 -119 449 -120 443 -120 C419 -120 403 -104 403 -80 C403 -49 424 -19 458 -4 C467 -1 471 5 471 13 L471 21 C472 24 472 28 472 31 L472 343 C472 445 389 512 260 512 C139 512 50 453 50 366 C50 346 61 335 81 335 L158 335 C176 335 184 345 188 359 C197 387 221 399 257 399 C303 399 332 373 332 333 L332 287 L196 287 C97 287 31 227 31 136 C31 46 96 -12 193 -12 C259 -12 308 17 328 63 L337 63 L337 31 C337 18 341 9 350 4 L350 -1 C305 -20 276 -64 276 -113 C276 -176 326 -218 401 -218 C427 -218 451 -215 466 -209 C477 -205 481 -196 481 -183 L481 -137 C481 -119 474 -114 460 -118 L460 -118 Z M247 94 C201 94 172 115 172 146 C172 175 195 195 230 195 L332 195 L332 152 C332 117 297 94 247 94 L247 94 Z " />
<glyph glyph-name="Cacute" unicode="&#x106;" horiz-adv-x="636" d="M290 721 L337 721 C352 721 364 726 374 738 L459 836 C478 856 469 874 442 874 L356 874 C339 874 327 867 319 851 L268 757 C257 737 266 721 290 721 L290 721 Z M320 -12 C475 -12 583 67 583 224 C583 246 573 258 553 258 L467 258 C447 258 438 248 435 228 C430 163 391 124 320 124 C249 124 202 168 202 235 L202 435 C202 502 249 546 320 546 C389 546 429 508 435 442 C438 422 447 412 467 412 L553 412 C573 412 583 424 583 444 C583 600 478 682 320 682 C159 682 54 585 54 438 L54 232 C54 85 159 -12 320 -12 L320 -12 Z " />
<glyph glyph-name="cacute" unicode="&#x107;" horiz-adv-x="512" d="M231 551 L278 551 C293 551 305 556 315 568 L400 666 C419 686 410 704 383 704 L297 704 C280 704 268 697 260 681 L209 587 C198 567 207 551 231 551 L231 551 Z M259 -12 C381 -12 474 51 474 168 C474 189 465 201 445 201 L365 201 C347 201 338 191 335 179 C330 139 302 117 259 117 C213 117 183 146 183 189 L183 311 C183 354 213 383 259 383 C300 383 330 362 335 321 C338 309 347 299 365 299 L445 299 C465 299 474 311 474 331 C474 447 383 512 259 512 C129 512 43 433 43 312 L43 188 C43 67 129 -12 259 -12 L259 -12 Z " />
<glyph glyph-name="Ccircumflex" unicode="&#x108;" horiz-adv-x="636" d="M180 721 L230 721 C246 721 258 726 268 739 L316 791 L323 791 L371 739 C382 726 393 721 409 721 L459 721 C485 721 493 738 479 759 L406 855 C397 868 385 874 369 874 L270 874 C254 874 241 868 232 855 L160 759 C146 738 154 721 180 721 L180 721 Z M320 -12 C475 -12 583 67 583 224 C583 246 573 258 553 258 L467 258 C447 258 438 248 435 228 C430 163 391 124 320 124 C249 124 202 168 202 235 L202 435 C202 502 249 546 320 546 C389 546 429 508 435 442 C438 422 447 412 467 412 L553 412 C573 412 583 424 583 444 C583 600 478 682 320 682 C159 682 54 585 54 438 L54 232 C54 85 159 -12 320 -12 L320 -12 Z " />
<glyph glyph-name="ccircumflex" unicode="&#x109;" horiz-adv-x="512" d="M120 551 L170 551 C186 551 198 556 208 569 L256 621 L263 621 L311 569 C322 556 333 551 349 551 L399 551 C425 551 433 568 419 589 L346 685 C337 698 325 704 309 704 L210 704 C194 704 181 698 172 685 L100 589 C86 568 94 551 120 551 L120 551 Z M259 -12 C381 -12 474 51 474 168 C474 189 465 201 445 201 L365 201 C347 201 338 191 335 179 C330 139 302 117 259 117 C213 117 183 146 183 189 L183 311 C183 354 213 383 259 383 C300 383 330 362 335 321 C338 309 347 299 365 299 L445 299 C465 299 474 311 474 331 C474 447 383 512 259 512 C129 512 43 433 43 312 L43 188 C43 67 129 -12 259 -12 L259 -12 Z " />
<glyph glyph-name="Cdotaccent" unicode="&#x10a;" horiz-adv-x="636" d="M320 724 C368 724 399 756 399 804 C399 852 368 884 320 884 C272 884 240 852 240 804 C240 756 272 724 320 724 L320 724 Z M320 -12 C475 -12 583 67 583 224 C583 246 573 258 553 258 L467 258 C447 258 438 248 435 228 C430 163 391 124 320 124 C249 124 202 168 202 235 L202 435 C202 502 249 546 320 546 C389 546 429 508 435 442 C438 422 447 412 467 412 L553 412 C573 412 583 424 583 444 C583 600 478 682 320 682 C159 682 54 585 54 438 L54 232 C54 85 159 -12 320 -12 L320 -12 Z " />
<glyph glyph-name="cdotaccent" unicode="&#x10b;" horiz-adv-x="512" d="M261 554 C309 554 340 586 340 634 C340 682 309 714 261 714 C213 714 181 682 181 634 C181 586 213 554 261 554 L261 554 Z M259 -12 C381 -12 474 51 474 168 C474 189 465 201 445 201 L365 201 C347 201 338 191 335 179 C330 139 302 117 259 117 C213 117 183 146 183 189 L183 311 C183 354 213 383 259 383 C300 383 330 362 335 321 C338 309 347 299 365 299 L445 299 C465 299 474 311 474 331 C474 447 383 512 259 512 C129 512 43 433 43 312 L43 188 C43 67 129 -12 259 -12 L259 -12 Z " />
<glyph glyph-name="Ccaron" unicode="&#x10c;" horiz-adv-x="636" d="M270 721 L369 721 C385 721 398 727 407 740 L479 836 C493 856 485 874 459 874 L409 874 C393 874 382 869 371 856 L323 804 L316 804 L268 856 C258 869 246 874 230 874 L180 874 C154 874 146 856 160 836 L233 740 C242 727 254 721 270 721 L270 721 Z M320 -12 C475 -12 583 67 583 224 C583 246 573 258 553 258 L467 258 C447 258 438 248 435 228 C430 163 391 124 320 124 C249 124 202 168 202 235 L202 435 C202 502 249 546 320 546 C389 546 429 508 435 442 C438 422 447 412 467 412 L553 412 C573 412 583 424 583 444 C583 600 478 682 320 682 C159 682 54 585 54 438 L54 232 C54 85 159 -12 320 -12 L320 -12 Z " />
<glyph glyph-name="ccaron" unicode="&#x10d;" horiz-adv-x="512" d="M210 551 L309 551 C325 551 338 557 347 570 L419 666 C433 686 425 704 399 704 L349 704 C333 704 322 699 311 686 L263 634 L256 634 L208 686 C198 699 186 704 170 704 L120 704 C94 704 86 686 100 666 L173 570 C182 557 194 551 210 551 L210 551 Z M259 -12 C381 -12 474 51 474 168 C474 189 465 201 445 201 L365 201 C347 201 338 191 335 179 C330 139 302 117 259 117 C213 117 183 146 183 189 L183 311 C183 354 213 383 259 383 C300 383 330 362 335 321 C338 309 347 299 365 299 L445 299 C465 299 474 311 474 331 C474 447 383 512 259 512 C129 512 43 433 43 312 L43 188 C43 67 129 -12 259 -12 L259 -12 Z " />
<glyph glyph-name="Dcaron" unicode="&#x10e;" horiz-adv-x="651" d="M240 740 C249 727 261 721 277 721 L376 721 C392 721 405 727 414 740 L486 836 C500 856 492 874 466 874 L416 874 C400 874 389 869 378 856 L330 804 L323 804 L275 856 C265 869 253 874 237 874 L187 874 C161 874 153 856 167 836 L240 740 Z M331 670 L111 670 C89 670 76 658 76 635 L76 35 C76 12 89 0 111 0 L331 0 C491 0 597 98 597 248 L597 422 C597 572 491 670 331 670 L331 670 Z M449 252 C449 180 403 136 327 136 L224 136 L224 534 L327 534 C403 534 449 490 449 418 L449 252 Z " />
<glyph glyph-name="dcaron" unicode="&#x10f;" horiz-adv-x="659" d="M454 700 L376 700 C356 700 345 689 345 669 L345 430 L337 430 C318 478 269 512 204 512 C111 512 46 447 46 349 L46 151 C46 53 111 -12 204 -12 C269 -12 318 22 337 70 L345 70 L345 31 C345 11 356 0 376 0 L454 0 C474 0 485 11 485 31 L485 669 C485 689 474 700 454 700 L454 700 Z M637 700 L574 700 C554 700 543 689 543 669 L543 548 C543 528 554 517 574 517 L616 517 C635 517 646 527 649 545 L666 667 C669 688 658 700 637 700 L637 700 Z M264 119 C217 119 186 148 186 193 L186 307 C186 352 217 381 264 381 C313 381 345 349 345 308 L345 192 C345 151 313 119 264 119 L264 119 Z " />
<glyph glyph-name="Dcroat" unicode="&#x110;" horiz-adv-x="651" d="M331 670 L111 670 C89 670 76 658 76 635 L76 394 L45 394 C25 394 14 383 14 363 L14 307 C14 287 25 276 45 276 L76 276 L76 35 C76 12 89 0 111 0 L331 0 C491 0 597 98 597 248 L597 422 C597 572 491 670 331 670 L331 670 Z M449 252 C449 180 403 136 327 136 L224 136 L224 276 L297 276 C317 276 328 287 328 307 L328 363 C328 383 317 394 297 394 L224 394 L224 534 L327 534 C403 534 449 490 449 418 L449 252 Z " />
<glyph glyph-name="dcroat" unicode="&#x111;" horiz-adv-x="547" d="M511 626 L485 626 L485 669 C485 689 474 700 454 700 L376 700 C356 700 345 689 345 669 L345 626 L280 626 C260 626 249 615 249 595 L249 574 C249 554 260 543 280 543 L345 543 L345 430 L337 430 C318 478 269 512 204 512 C111 512 46 447 46 349 L46 151 C46 53 111 -12 204 -12 C269 -12 318 22 337 70 L345 70 L345 31 C345 11 356 0 376 0 L454 0 C474 0 485 11 485 31 L485 543 L511 543 C532 543 542 554 542 574 L542 595 C542 615 532 626 511 626 L511 626 Z M264 119 C217 119 186 148 186 193 L186 307 C186 352 217 381 264 381 C313 381 345 349 345 308 L345 192 C345 151 313 119 264 119 L264 119 Z " />
<glyph glyph-name="Emacron" unicode="&#x112;" horiz-adv-x="562" d="M174 739 L411 739 C431 739 442 750 442 770 L442 817 C442 837 431 848 411 848 L174 848 C154 848 143 837 143 817 L143 770 C143 750 154 739 174 739 L174 739 Z M475 535 C496 535 509 547 509 569 L509 636 C509 658 496 670 475 670 L110 670 C89 670 76 658 76 636 L76 34 C76 12 89 0 110 0 L475 0 C496 0 509 12 509 34 L509 101 C509 123 496 135 475 135 L224 135 L224 271 L436 271 C458 271 470 284 470 306 L470 370 C470 392 458 405 436 405 L224 405 L224 535 L475 535 Z " />
<glyph glyph-name="emacron" unicode="&#x113;" horiz-adv-x="526" d="M145 569 L382 569 C402 569 413 580 413 600 L413 647 C413 667 402 678 382 678 L145 678 C125 678 114 667 114 647 L114 600 C114 580 125 569 145 569 L145 569 Z M451 204 C471 204 482 215 482 235 L482 308 C482 431 395 512 263 512 C130 512 43 432 43 310 L43 190 C43 68 131 -12 266 -12 C384 -12 466 41 479 126 C482 146 470 156 452 156 L368 156 C350 156 344 148 338 135 C327 113 301 101 266 101 C216 101 183 131 183 176 L183 204 L451 204 Z M263 399 C311 399 342 370 342 325 L342 300 L183 300 L183 325 C183 370 215 399 263 399 L263 399 Z " />
<glyph glyph-name="Ebreve" unicode="&#x114;" horiz-adv-x="562" d="M293 713 C380 713 439 758 451 839 C454 860 441 873 421 873 L367 873 C353 873 346 865 343 853 C340 828 322 813 293 813 C264 813 246 826 241 853 C238 865 232 873 217 873 L163 873 C143 873 130 861 133 840 C144 760 204 713 293 713 L293 713 Z M475 535 C496 535 509 547 509 569 L509 636 C509 658 496 670 475 670 L110 670 C89 670 76 658 76 636 L76 34 C76 12 89 0 110 0 L475 0 C496 0 509 12 509 34 L509 101 C509 123 496 135 475 135 L224 135 L224 271 L436 271 C458 271 470 284 470 306 L470 370 C470 392 458 405 436 405 L224 405 L224 535 L475 535 Z " />
<glyph glyph-name="ebreve" unicode="&#x115;" horiz-adv-x="526" d="M263 543 C350 543 409 588 421 669 C424 690 411 703 391 703 L337 703 C323 703 316 695 313 683 C310 658 292 643 263 643 C234 643 216 656 211 683 C208 695 202 703 187 703 L133 703 C113 703 100 691 103 670 C114 590 174 543 263 543 L263 543 Z M451 204 C471 204 482 215 482 235 L482 308 C482 431 395 512 263 512 C130 512 43 432 43 310 L43 190 C43 68 131 -12 266 -12 C384 -12 466 41 479 126 C482 146 470 156 452 156 L368 156 C350 156 344 148 338 135 C327 113 301 101 266 101 C216 101 183 131 183 176 L183 204 L451 204 Z M263 399 C311 399 342 370 342 325 L342 300 L183 300 L183 325 C183 370 215 399 263 399 L263 399 Z " />
<glyph glyph-name="Edotaccent" unicode="&#x116;" horiz-adv-x="562" d="M293 724 C341 724 372 756 372 804 C372 852 341 884 293 884 C245 884 213 852 213 804 C213 756 245 724 293 724 L293 724 Z M475 535 C496 535 509 547 509 569 L509 636 C509 658 496 670 475 670 L110 670 C89 670 76 658 76 636 L76 34 C76 12 89 0 110 0 L475 0 C496 0 509 12 509 34 L509 101 C509 123 496 135 475 135 L224 135 L224 271 L436 271 C458 271 470 284 470 306 L470 370 C470 392 458 405 436 405 L224 405 L224 535 L475 535 Z " />
<glyph glyph-name="edotaccent" unicode="&#x117;" horiz-adv-x="526" d="M263 554 C311 554 342 586 342 634 C342 682 311 714 263 714 C215 714 183 682 183 634 C183 586 215 554 263 554 L263 554 Z M451 204 C471 204 482 215 482 235 L482 308 C482 431 395 512 263 512 C130 512 43 432 43 310 L43 190 C43 68 131 -12 266 -12 C384 -12 466 41 479 126 C482 146 470 156 452 156 L368 156 C350 156 344 148 338 135 C327 113 301 101 266 101 C216 101 183 131 183 176 L183 204 L451 204 Z M263 399 C311 399 342 370 342 325 L342 300 L183 300 L183 325 C183 370 215 399 263 399 L263 399 Z " />
<glyph glyph-name="Eogonek" unicode="&#x118;" horiz-adv-x="562" d="M498 -118 C493 -119 487 -120 481 -120 C457 -120 441 -104 441 -80 C441 -49 462 -19 496 -4 C505 -1 509 5 509 13 L509 101 C509 123 496 135 475 135 L224 135 L224 271 L436 271 C458 271 470 284 470 306 L470 370 C470 392 458 405 436 405 L224 405 L224 535 L475 535 C496 535 509 547 509 569 L509 636 C509 658 496 670 475 670 L110 670 C89 670 76 658 76 636 L76 34 C76 12 89 0 110 0 L388 0 L388 -1 C343 -20 314 -64 314 -113 C314 -176 364 -218 439 -218 C465 -218 489 -215 504 -209 C515 -205 519 -196 519 -183 L519 -137 C519 -119 512 -114 498 -118 L498 -118 Z " />
<glyph glyph-name="eogonek" unicode="&#x119;" horiz-adv-x="526" d="M451 204 C471 204 482 215 482 235 L482 308 C482 431 395 512 263 512 C130 512 43 432 43 310 L43 190 C43 79 116 3 231 -10 C206 -33 191 -65 191 -100 C191 -163 241 -205 316 -205 C342 -205 366 -202 381 -196 C392 -192 396 -183 396 -170 L396 -124 C396 -106 389 -101 375 -105 C370 -106 364 -107 358 -107 C334 -107 318 -91 318 -67 C318 -41 333 -16 357 0 C425 21 470 65 479 126 C482 146 470 156 452 156 L368 156 C350 156 344 148 338 135 C327 113 301 101 266 101 C216 101 183 131 183 176 L183 204 L451 204 Z M263 399 C311 399 342 370 342 325 L342 300 L183 300 L183 325 C183 370 215 399 263 399 L263 399 Z " />
<glyph glyph-name="Ecaron" unicode="&#x11a;" horiz-adv-x="562" d="M206 740 C215 727 227 721 243 721 L342 721 C358 721 371 727 380 740 L452 836 C466 856 458 874 432 874 L382 874 C366 874 355 869 344 856 L296 804 L289 804 L241 856 C231 869 219 874 203 874 L153 874 C127 874 119 856 133 836 L206 740 Z M475 535 C496 535 509 547 509 569 L509 636 C509 658 496 670 475 670 L110 670 C89 670 76 658 76 636 L76 34 C76 12 89 0 110 0 L475 0 C496 0 509 12 509 34 L509 101 C509 123 496 135 475 135 L224 135 L224 271 L436 271 C458 271 470 284 470 306 L470 370 C470 392 458 405 436 405 L224 405 L224 535 L475 535 Z " />
<glyph glyph-name="ecaron" unicode="&#x11b;" horiz-adv-x="526" d="M176 570 C185 557 197 551 213 551 L312 551 C328 551 341 557 350 570 L422 666 C436 686 428 704 402 704 L352 704 C336 704 325 699 314 686 L266 634 L259 634 L211 686 C201 699 189 704 173 704 L123 704 C97 704 89 686 103 666 L176 570 Z M451 204 C471 204 482 215 482 235 L482 308 C482 431 395 512 263 512 C130 512 43 432 43 310 L43 190 C43 68 131 -12 266 -12 C384 -12 466 41 479 126 C482 146 470 156 452 156 L368 156 C350 156 344 148 338 135 C327 113 301 101 266 101 C216 101 183 131 183 176 L183 204 L451 204 Z M263 399 C311 399 342 370 342 325 L342 300 L183 300 L183 325 C183 370 215 399 263 399 L263 399 Z " />
<glyph glyph-name="Gcircumflex" unicode="&#x11c;" horiz-adv-x="639" d="M180 721 L230 721 C246 721 258 726 268 739 L316 791 L323 791 L371 739 C382 726 393 721 409 721 L459 721 C485 721 493 738 479 759 L406 855 C397 868 385 874 369 874 L270 874 C254 874 241 868 232 855 L160 759 C146 738 154 721 180 721 L180 721 Z M550 362 L366 362 C344 362 332 349 332 327 L332 280 C332 258 344 245 366 245 L437 245 L437 220 C437 158 390 117 320 117 C249 117 202 161 202 228 L202 435 C202 502 249 546 320 546 C381 546 423 515 433 460 C439 444 447 434 467 434 L553 434 C573 434 585 446 582 466 C569 603 471 682 320 682 C159 682 54 585 54 438 L54 232 C54 85 159 -12 320 -12 C479 -12 585 82 585 225 L585 327 C585 349 572 362 550 362 L550 362 Z " />
<glyph glyph-name="gcircumflex" unicode="&#x11d;" horiz-adv-x="544" d="M136 551 L186 551 C202 551 214 556 224 569 L272 621 L279 621 L327 569 C338 556 349 551 365 551 L415 551 C441 551 449 568 435 589 L362 685 C353 698 341 704 325 704 L226 704 C210 704 197 698 188 685 L116 589 C102 568 110 551 136 551 L136 551 Z M454 500 L376 500 C356 500 345 489 345 469 L345 430 L337 430 C318 478 269 512 204 512 C111 512 46 447 46 349 L46 178 C46 80 111 15 204 15 C266 15 318 47 337 94 L345 94 L345 -12 C345 -56 315 -86 267 -86 C232 -86 202 -72 194 -40 C188 -30 179 -23 165 -23 L84 -23 C68 -23 55 -35 58 -56 C72 -142 152 -192 269 -192 C402 -192 485 -121 485 -19 L485 469 C485 489 474 500 454 500 L454 500 Z M264 146 C217 146 186 175 186 220 L186 307 C186 352 217 381 264 381 C313 381 345 349 345 308 L345 219 C345 179 313 146 264 146 L264 146 Z " />
<glyph glyph-name="Gbreve" unicode="&#x11e;" horiz-adv-x="639" d="M320 713 C407 713 466 758 478 839 C481 860 468 873 448 873 L394 873 C380 873 373 865 370 853 C367 828 349 813 320 813 C291 813 273 826 268 853 C265 865 259 873 244 873 L190 873 C170 873 157 861 160 840 C171 760 231 713 320 713 L320 713 Z M550 362 L366 362 C344 362 332 349 332 327 L332 280 C332 258 344 245 366 245 L437 245 L437 220 C437 158 390 117 320 117 C249 117 202 161 202 228 L202 435 C202 502 249 546 320 546 C381 546 423 515 433 460 C439 444 447 434 467 434 L553 434 C573 434 585 446 582 466 C569 603 471 682 320 682 C159 682 54 585 54 438 L54 232 C54 85 159 -12 320 -12 C479 -12 585 82 585 225 L585 327 C585 349 572 362 550 362 L550 362 Z " />
<glyph glyph-name="gbreve" unicode="&#x11f;" horiz-adv-x="544" d="M276 543 C363 543 422 588 434 669 C437 690 424 703 404 703 L350 703 C336 703 329 695 326 683 C323 658 305 643 276 643 C247 643 229 656 224 683 C221 695 215 703 200 703 L146 703 C126 703 113 691 116 670 C127 590 187 543 276 543 L276 543 Z M454 500 L376 500 C356 500 345 489 345 469 L345 430 L337 430 C318 478 269 512 204 512 C111 512 46 447 46 349 L46 178 C46 80 111 15 204 15 C266 15 318 47 337 94 L345 94 L345 -12 C345 -56 315 -86 267 -86 C232 -86 202 -72 194 -40 C188 -30 179 -23 165 -23 L84 -23 C68 -23 55 -35 58 -56 C72 -142 152 -192 269 -192 C402 -192 485 -121 485 -19 L485 469 C485 489 474 500 454 500 L454 500 Z M264 146 C217 146 186 175 186 220 L186 307 C186 352 217 381 264 381 C313 381 345 349 345 308 L345 219 C345 179 313 146 264 146 L264 146 Z " />
<glyph glyph-name="Gdotaccent" unicode="&#x120;" horiz-adv-x="639" d="M320 724 C368 724 399 756 399 804 C399 852 368 884 320 884 C272 884 240 852 240 804 C240 756 272 724 320 724 L320 724 Z M550 362 L366 362 C344 362 332 349 332 327 L332 280 C332 258 344 245 366 245 L437 245 L437 220 C437 158 390 117 320 117 C249 117 202 161 202 228 L202 435 C202 502 249 546 320 546 C381 546 423 515 433 460 C439 444 447 434 467 434 L553 434 C573 434 585 446 582 466 C569 603 471 682 320 682 C159 682 54 585 54 438 L54 232 C54 85 159 -12 320 -12 C479 -12 585 82 585 225 L585 327 C585 349 572 362 550 362 L550 362 Z " />
<glyph glyph-name="gdotaccent" unicode="&#x121;" horiz-adv-x="544" d="M277 554 C325 554 356 586 356 634 C356 682 325 714 277 714 C229 714 197 682 197 634 C197 586 229 554 277 554 L277 554 Z M454 500 L376 500 C356 500 345 489 345 469 L345 430 L337 430 C318 478 269 512 204 512 C111 512 46 447 46 349 L46 178 C46 80 111 15 204 15 C266 15 318 47 337 94 L345 94 L345 -12 C345 -56 315 -86 267 -86 C232 -86 202 -72 194 -40 C188 -30 179 -23 165 -23 L84 -23 C68 -23 55 -35 58 -56 C72 -142 152 -192 269 -192 C402 -192 485 -121 485 -19 L485 469 C485 489 474 500 454 500 L454 500 Z M264 146 C217 146 186 175 186 220 L186 307 C186 352 217 381 264 381 C313 381 345 349 345 308 L345 219 C345 179 313 146 264 146 L264 146 Z " />
<glyph glyph-name="uni0122" unicode="&#x122;" horiz-adv-x="639" d="M550 362 L366 362 C344 362 332 349 332 327 L332 280 C332 258 344 245 366 245 L437 245 L437 220 C437 158 390 117 320 117 C249 117 202 161 202 228 L202 435 C202 502 249 546 320 546 C381 546 423 515 433 460 C439 444 447 434 467 434 L553 434 C573 434 585 446 582 466 C569 603 471 682 320 682 C159 682 54 585 54 438 L54 232 C54 85 159 -12 320 -12 C479 -12 585 82 585 225 L585 327 C585 349 572 362 550 362 L550 362 Z M364 -51 L283 -51 C264 -51 252 -60 249 -78 L221 -200 C216 -221 226 -234 248 -234 L289 -234 C307 -234 318 -227 327 -212 L386 -88 C397 -67 388 -51 364 -51 L364 -51 Z " />
<glyph glyph-name="uni0123" unicode="&#x123;" horiz-adv-x="544" d="M231 551 L312 551 C330 551 342 560 346 578 L374 699 C379 720 369 733 347 733 L305 733 C288 733 276 727 268 711 L209 588 C198 567 207 551 231 551 L231 551 Z M454 500 L376 500 C356 500 345 489 345 469 L345 430 L337 430 C318 478 269 512 204 512 C111 512 46 447 46 349 L46 178 C46 80 111 15 204 15 C266 15 318 47 337 94 L345 94 L345 -12 C345 -56 315 -86 267 -86 C232 -86 202 -72 194 -40 C188 -30 179 -23 165 -23 L84 -23 C68 -23 55 -35 58 -56 C72 -142 152 -192 269 -192 C402 -192 485 -121 485 -19 L485 469 C485 489 474 500 454 500 L454 500 Z M264 146 C217 146 186 175 186 220 L186 307 C186 352 217 381 264 381 C313 381 345 349 345 308 L345 219 C345 179 313 146 264 146 L264 146 Z " />
<glyph glyph-name="Hcircumflex" unicode="&#x124;" horiz-adv-x="656" d="M188 721 L238 721 C254 721 266 726 276 739 L324 791 L331 791 L379 739 C390 726 401 721 417 721 L467 721 C493 721 501 738 487 759 L414 855 C405 868 393 874 377 874 L278 874 C262 874 249 868 240 855 L168 759 C154 738 162 721 188 721 L188 721 Z M545 670 L466 670 C444 670 432 658 432 635 L432 406 L224 406 L224 635 C224 658 211 670 189 670 L111 670 C89 670 76 658 76 635 L76 35 C76 12 89 0 111 0 L189 0 C211 0 224 12 224 35 L224 270 L432 270 L432 35 C432 12 444 0 466 0 L545 0 C567 0 579 12 579 35 L579 635 C579 658 567 670 545 670 L545 670 Z " />
<glyph glyph-name="hcircumflex" unicode="&#x125;" horiz-adv-x="550" d="M80 749 L128 801 L135 801 L183 749 C194 736 205 731 221 731 L271 731 C297 731 305 748 291 769 L218 865 C209 878 197 884 181 884 L82 884 C66 884 53 878 44 865 L-28 769 C-42 748 -34 731 -8 731 L42 731 C58 731 70 736 80 749 L80 749 Z M345 512 C280 512 230 478 210 430 L202 430 L202 669 C202 689 191 700 171 700 L93 700 C73 700 62 689 62 669 L62 31 C62 11 73 0 93 0 L171 0 C191 0 202 11 202 31 L202 312 C202 350 234 381 282 381 C326 381 355 353 355 311 L355 31 C355 11 366 0 386 0 L464 0 C484 0 495 11 495 31 L495 365 C495 453 434 512 345 512 L345 512 Z " />
<glyph glyph-name="Hbar" unicode="&#x126;" horiz-adv-x="656" d="M596 584 L579 584 L579 635 C579 658 567 670 545 670 L466 670 C444 670 432 658 432 635 L432 584 L224 584 L224 635 C224 658 211 670 189 670 L111 670 C89 670 76 658 76 635 L76 584 L59 584 C39 584 28 573 28 553 L28 511 C28 491 39 480 59 480 L76 480 L76 35 C76 12 89 0 111 0 L189 0 C211 0 224 12 224 35 L224 270 L432 270 L432 35 C432 12 444 0 466 0 L545 0 C567 0 579 12 579 35 L579 480 L596 480 C616 480 627 491 627 511 L627 553 C627 573 616 584 596 584 L596 584 Z M432 406 L224 406 L224 480 L432 480 L432 406 Z " />
<glyph glyph-name="hbar" unicode="&#x127;" horiz-adv-x="550" d="M345 512 C280 512 230 478 210 430 L202 430 L202 543 L267 543 C288 543 298 554 298 574 L298 595 C298 615 288 626 267 626 L202 626 L202 669 C202 689 191 700 171 700 L93 700 C73 700 62 689 62 669 L62 626 L36 626 C16 626 5 615 5 595 L5 574 C5 554 16 543 36 543 L62 543 L62 31 C62 11 73 0 93 0 L171 0 C191 0 202 11 202 31 L202 312 C202 350 234 381 282 381 C326 381 355 353 355 311 L355 31 C355 11 366 0 386 0 L464 0 C484 0 495 11 495 31 L495 365 C495 453 434 512 345 512 L345 512 Z " />
<glyph glyph-name="Itilde" unicode="&#x128;" horiz-adv-x="300" d="M232 725 C298 725 333 767 340 848 C342 869 332 881 317 881 L264 881 C244 881 239 875 235 863 C230 847 217 838 199 838 C161 838 129 884 69 884 C0 884 -35 839 -40 752 C-41 736 -32 728 -17 728 L36 728 C56 728 61 734 65 746 C70 761 82 771 99 771 C136 771 172 725 232 725 L232 725 Z M111 0 L189 0 C211 0 224 12 224 35 L224 635 C224 658 211 670 189 670 L111 670 C89 670 76 658 76 635 L76 35 C76 12 89 0 111 0 L111 0 Z " />
<glyph glyph-name="itilde" unicode="&#x129;" horiz-adv-x="264" d="M214 555 C280 555 315 597 322 678 C324 699 314 711 299 711 L246 711 C226 711 221 705 217 693 C212 677 199 668 181 668 C143 668 111 714 51 714 C-18 714 -53 669 -58 582 C-59 566 -50 558 -35 558 L18 558 C38 558 43 564 47 576 C52 591 64 601 81 601 C118 601 154 555 214 555 L214 555 Z M93 0 L171 0 C191 0 202 11 202 31 L202 469 C202 489 191 500 171 500 L93 500 C73 500 62 489 62 469 L62 31 C62 11 73 0 93 0 L93 0 Z " />
<glyph glyph-name="Imacron" unicode="&#x12a;" horiz-adv-x="300" d="M32 739 L269 739 C289 739 300 750 300 770 L300 817 C300 837 289 848 269 848 L32 848 C12 848 1 837 1 817 L1 770 C1 750 12 739 32 739 L32 739 Z M111 0 L189 0 C211 0 224 12 224 35 L224 635 C224 658 211 670 189 670 L111 670 C89 670 76 658 76 635 L76 35 C76 12 89 0 111 0 L111 0 Z " />
<glyph glyph-name="imacron" unicode="&#x12b;" horiz-adv-x="264" d="M14 569 L251 569 C271 569 282 580 282 600 L282 647 C282 667 271 678 251 678 L14 678 C-6 678 -17 667 -17 647 L-17 600 C-17 580 -6 569 14 569 L14 569 Z M93 0 L171 0 C191 0 202 11 202 31 L202 469 C202 489 191 500 171 500 L93 500 C73 500 62 489 62 469 L62 31 C62 11 73 0 93 0 L93 0 Z " />
<glyph glyph-name="Ibreve" unicode="&#x12c;" horiz-adv-x="300" d="M151 713 C238 713 297 758 309 839 C312 860 299 873 279 873 L225 873 C211 873 204 865 201 853 C198 828 180 813 151 813 C122 813 104 826 99 853 C96 865 90 873 75 873 L21 873 C1 873 -12 861 -9 840 C2 760 62 713 151 713 L151 713 Z M111 0 L189 0 C211 0 224 12 224 35 L224 635 C224 658 211 670 189 670 L111 670 C89 670 76 658 76 635 L76 35 C76 12 89 0 111 0 L111 0 Z " />
<glyph glyph-name="ibreve" unicode="&#x12d;" horiz-adv-x="264" d="M133 543 C220 543 279 588 291 669 C294 690 281 703 261 703 L207 703 C193 703 186 695 183 683 C180 658 162 643 133 643 C104 643 86 656 81 683 C78 695 72 703 57 703 L3 703 C-17 703 -30 691 -27 670 C-16 590 44 543 133 543 L133 543 Z M93 0 L171 0 C191 0 202 11 202 31 L202 469 C202 489 191 500 171 500 L93 500 C73 500 62 489 62 469 L62 31 C62 11 73 0 93 0 L93 0 Z " />
<glyph glyph-name="Iogonek" unicode="&#x12e;" horiz-adv-x="300" d="M213 -118 C208 -119 202 -120 196 -120 C172 -120 156 -104 156 -80 C156 -49 177 -19 211 -4 C220 -1 224 5 224 13 L224 635 C224 658 211 670 189 670 L111 670 C89 670 76 658 76 635 L76 35 C76 15 86 3 103 1 L103 -1 C58 -20 29 -64 29 -113 C29 -176 79 -218 154 -218 C180 -218 204 -215 219 -209 C230 -205 234 -196 234 -183 L234 -137 C234 -119 227 -114 213 -118 L213 -118 Z " />
<glyph glyph-name="iogonek" unicode="&#x12f;" horiz-adv-x="264" d="M133 554 C181 554 212 586 212 634 C212 682 181 714 133 714 C85 714 53 682 53 634 C53 586 85 554 133 554 L133 554 Z M191 -118 C186 -119 180 -120 174 -120 C150 -120 134 -104 134 -80 C134 -49 155 -19 189 -4 C198 -1 202 5 202 13 L202 469 C202 489 191 500 171 500 L93 500 C73 500 62 489 62 469 L62 31 C62 16 69 5 81 2 L81 -1 C36 -20 7 -64 7 -113 C7 -176 57 -218 132 -218 C158 -218 182 -215 197 -209 C208 -205 212 -196 212 -183 L212 -137 C212 -119 205 -114 191 -118 L191 -118 Z " />
<glyph glyph-name="Idotaccent" unicode="&#x130;" horiz-adv-x="300" d="M151 724 C199 724 230 756 230 804 C230 852 199 884 151 884 C103 884 71 852 71 804 C71 756 103 724 151 724 L151 724 Z M111 0 L189 0 C211 0 224 12 224 35 L224 635 C224 658 211 670 189 670 L111 670 C89 670 76 658 76 635 L76 35 C76 12 89 0 111 0 L111 0 Z " />
<glyph glyph-name="dotlessi" unicode="&#x131;" horiz-adv-x="264" d="M93 0 L171 0 C191 0 202 11 202 31 L202 469 C202 489 191 500 171 500 L93 500 C73 500 62 489 62 469 L62 31 C62 11 73 0 93 0 L93 0 Z " />
<glyph glyph-name="IJ" unicode="&#x132;" horiz-adv-x="876" d="M111 0 L189 0 C211 0 224 12 224 35 L224 635 C224 658 211 670 189 670 L111 670 C89 670 76 658 76 635 L76 35 C76 12 89 0 111 0 L111 0 Z M576 -12 C716 -12 808 72 808 199 L808 635 C808 658 796 670 774 670 L696 670 C673 670 661 658 661 635 L661 202 C661 155 627 124 576 124 C525 124 491 155 491 202 L491 213 C491 235 479 248 456 248 L378 248 C356 248 343 235 343 213 L343 199 C343 72 436 -12 576 -12 L576 -12 Z " />
<glyph glyph-name="ij" unicode="&#x133;" horiz-adv-x="530" d="M133 564 C183 564 216 596 216 645 C216 693 183 725 133 725 C82 725 49 693 49 644 C49 597 81 564 133 564 L133 564 Z M399 564 C449 564 482 596 482 645 C482 693 449 725 399 725 C348 725 315 693 315 644 C315 597 347 564 399 564 L399 564 Z M93 0 L171 0 C191 0 202 11 202 31 L202 469 C202 489 191 500 171 500 L93 500 C73 500 62 489 62 469 L62 31 C62 11 73 0 93 0 L93 0 Z M256 -180 L317 -180 C409 -180 469 -124 469 -38 L469 469 C469 489 458 500 438 500 L360 500 C340 500 329 489 329 469 L329 -13 C329 -45 310 -64 278 -64 L256 -64 C236 -64 225 -75 225 -95 L225 -149 C225 -169 236 -180 256 -180 L256 -180 Z " />
<glyph glyph-name="Jcircumflex" unicode="&#x134;" horiz-adv-x="575" d="M292 721 L342 721 C358 721 370 726 380 739 L428 791 L435 791 L483 739 C494 726 505 721 521 721 L571 721 C597 721 605 738 591 759 L518 855 C509 868 497 874 481 874 L382 874 C366 874 353 868 344 855 L272 759 C258 738 266 721 292 721 L292 721 Z M276 -12 C416 -12 508 72 508 199 L508 635 C508 658 496 670 474 670 L396 670 C373 670 361 658 361 635 L361 202 C361 155 327 124 276 124 C225 124 191 155 191 202 L191 213 C191 235 179 248 156 248 L78 248 C56 248 43 235 43 213 L43 199 C43 72 136 -12 276 -12 L276 -12 Z " />
<glyph glyph-name="jcircumflex" unicode="&#x135;" horiz-adv-x="264" d="M-5 551 L45 551 C61 551 73 556 83 569 L131 621 L138 621 L186 569 C197 556 208 551 224 551 L274 551 C300 551 308 568 294 589 L221 685 C212 698 200 704 184 704 L85 704 C69 704 56 698 47 685 L-25 589 C-39 568 -31 551 -5 551 L-5 551 Z M-8 -180 L53 -180 C145 -180 205 -124 205 -38 L205 469 C205 489 194 500 174 500 L96 500 C76 500 65 489 65 469 L65 -13 C65 -45 46 -64 14 -64 L-8 -64 C-28 -64 -39 -75 -39 -95 L-39 -149 C-39 -169 -28 -180 -8 -180 L-8 -180 Z " />
<glyph glyph-name="uni0136" unicode="&#x136;" horiz-adv-x="630" d="M587 42 L380 387 L574 628 C591 650 582 670 555 670 L462 670 C444 670 431 663 421 647 L233 400 L224 400 L224 635 C224 658 211 670 189 670 L111 670 C89 670 76 658 76 635 L76 35 C76 12 89 0 111 0 L189 0 C211 0 224 12 224 35 L224 194 L282 266 L422 25 C431 8 444 0 463 0 L565 0 C590 0 600 18 587 42 L587 42 Z M377 -51 L296 -51 C277 -51 265 -60 262 -78 L234 -200 C229 -221 239 -234 261 -234 L302 -234 C320 -234 331 -227 340 -212 L399 -88 C410 -67 401 -51 377 -51 L377 -51 Z " />
<glyph glyph-name="uni0137" unicode="&#x137;" horiz-adv-x="528" d="M500 37 L341 297 L487 462 C504 482 496 500 474 500 L380 500 C364 500 352 494 343 480 L212 319 L202 319 L202 669 C202 689 191 700 171 700 L93 700 C73 700 62 689 62 669 L62 31 C62 11 73 0 93 0 L171 0 C191 0 202 11 202 31 L202 140 L250 194 L346 23 C353 8 366 0 383 0 L479 0 C503 0 513 16 500 37 L500 37 Z M332 -51 L251 -51 C232 -51 220 -60 217 -78 L189 -200 C184 -221 194 -234 216 -234 L257 -234 C275 -234 286 -227 295 -212 L354 -88 C365 -67 356 -51 332 -51 L332 -51 Z " />
<glyph glyph-name="Lacute" unicode="&#x139;" horiz-adv-x="527" d="M121 721 L168 721 C183 721 195 726 205 738 L290 836 C309 856 300 874 273 874 L187 874 C170 874 158 867 150 851 L99 757 C88 737 97 721 121 721 L121 721 Z M454 136 L224 136 L224 635 C224 658 211 670 189 670 L111 670 C89 670 76 658 76 635 L76 35 C76 12 89 0 111 0 L454 0 C476 0 489 12 489 35 L489 102 C489 124 476 136 454 136 L454 136 Z " />
<glyph glyph-name="lacute" unicode="&#x13a;" horiz-adv-x="308" d="M98 731 L145 731 C160 731 172 736 182 748 L267 846 C286 866 277 884 250 884 L164 884 C147 884 135 877 127 861 L76 767 C65 747 74 731 98 731 L98 731 Z M207 0 L244 0 C264 0 275 11 275 31 L275 109 C275 121 268 129 256 129 L245 129 C215 129 197 147 197 177 L197 669 C197 689 186 700 166 700 L88 700 C68 700 57 689 57 669 L57 140 C57 56 117 0 207 0 L207 0 Z " />
<glyph glyph-name="uni013B" unicode="&#x13b;" horiz-adv-x="527" d="M454 136 L224 136 L224 635 C224 658 211 670 189 670 L111 670 C89 670 76 658 76 635 L76 35 C76 12 89 0 111 0 L454 0 C476 0 489 12 489 35 L489 102 C489 124 476 136 454 136 L454 136 Z M317 -51 L236 -51 C217 -51 205 -60 202 -78 L174 -200 C169 -221 179 -234 201 -234 L242 -234 C260 -234 271 -227 280 -212 L339 -88 C350 -67 341 -51 317 -51 L317 -51 Z " />
<glyph glyph-name="uni013C" unicode="&#x13c;" horiz-adv-x="308" d="M207 0 L244 0 C264 0 275 11 275 31 L275 109 C275 121 268 129 256 129 L245 129 C215 129 197 147 197 177 L197 669 C197 689 186 700 166 700 L88 700 C68 700 57 689 57 669 L57 140 C57 56 117 0 207 0 L207 0 Z M93 -234 L134 -234 C152 -234 163 -227 172 -212 L231 -88 C242 -67 233 -51 209 -51 L128 -51 C109 -51 97 -60 94 -78 L66 -200 C61 -221 71 -234 93 -234 L93 -234 Z " />
<glyph glyph-name="Lcaron" unicode="&#x13d;" horiz-adv-x="527" d="M454 136 L224 136 L224 635 C224 658 211 670 189 670 L111 670 C89 670 76 658 76 635 L76 35 C76 12 89 0 111 0 L454 0 C476 0 489 12 489 35 L489 102 C489 124 476 136 454 136 L454 136 Z M332 487 L373 487 C391 487 403 496 406 515 L422 637 C426 658 415 670 394 670 L332 670 C312 670 301 659 301 639 L301 518 C301 498 312 487 332 487 L332 487 Z " />
<glyph glyph-name="lcaron" unicode="&#x13e;" horiz-adv-x="378" d="M207 0 L244 0 C264 0 275 11 275 31 L275 109 C275 121 268 129 256 129 L245 129 C215 129 197 147 197 177 L197 669 C197 689 186 700 166 700 L88 700 C68 700 57 689 57 669 L57 140 C57 56 117 0 207 0 L207 0 Z M293 517 L334 517 C353 517 365 526 367 545 L384 667 C388 688 377 700 356 700 L293 700 C273 700 262 689 262 669 L262 548 C262 528 273 517 293 517 L293 517 Z " />
<glyph glyph-name="Ldot" unicode="&#x13f;" horiz-adv-x="527" d="M454 136 L224 136 L224 635 C224 658 211 670 189 670 L111 670 C89 670 76 658 76 635 L76 35 C76 12 89 0 111 0 L454 0 C476 0 489 12 489 35 L489 102 C489 124 476 136 454 136 L454 136 Z M364 286 C408 286 437 315 437 359 C437 403 408 432 364 432 C319 432 290 403 290 359 C290 315 319 286 364 286 L364 286 Z " />
<glyph glyph-name="ldot" unicode="&#x140;" horiz-adv-x="401" d="M207 0 L244 0 C264 0 275 11 275 31 L275 109 C275 121 268 129 256 129 L245 129 C215 129 197 147 197 177 L197 669 C197 689 186 700 166 700 L88 700 C68 700 57 689 57 669 L57 140 C57 56 117 0 207 0 L207 0 Z M313 286 C356 286 386 315 386 360 C386 403 356 433 313 433 C268 433 238 403 238 360 C238 315 268 286 313 286 L313 286 Z " />
<glyph glyph-name="Lslash" unicode="&#x141;" horiz-adv-x="527" d="M454 136 L224 136 L224 324 L308 364 C324 372 331 384 331 401 L331 467 C331 490 316 500 295 491 L224 457 L224 635 C224 658 211 670 189 670 L111 670 C89 670 76 658 76 635 L76 387 L32 366 C16 359 9 347 9 330 L9 264 C9 240 24 230 45 240 L76 255 L76 35 C76 12 89 0 111 0 L454 0 C476 0 489 12 489 35 L489 102 C489 124 476 136 454 136 L454 136 Z " />
<glyph glyph-name="lslash" unicode="&#x142;" horiz-adv-x="344" d="M292 129 L282 129 C251 129 233 147 233 177 L233 331 L280 351 C296 358 304 369 304 387 L304 453 C304 477 290 487 268 478 L233 463 L233 669 C233 689 222 700 202 700 L124 700 C104 700 93 689 93 669 L93 403 L64 390 C47 383 40 372 40 354 L40 288 C40 264 54 254 76 263 L93 270 L93 140 C93 56 153 0 243 0 L280 0 C300 0 311 11 311 31 L311 109 C311 121 304 129 292 129 L292 129 Z " />
<glyph glyph-name="Nacute" unicode="&#x143;" horiz-adv-x="685" d="M313 721 L360 721 C375 721 387 726 397 738 L482 836 C501 856 492 874 465 874 L379 874 C362 874 350 867 342 851 L291 757 C280 737 289 721 313 721 L313 721 Z M107 0 L193 0 C213 0 224 11 224 31 L224 377 L217 424 L229 424 L425 24 C432 8 444 0 462 0 L578 0 C598 0 609 11 609 31 L609 639 C609 659 598 670 578 670 L492 670 C472 670 461 659 461 639 L461 293 L468 246 L457 246 L260 646 C253 662 241 670 223 670 L107 670 C87 670 76 659 76 639 L76 31 C76 11 87 0 107 0 L107 0 Z " />
<glyph glyph-name="nacute" unicode="&#x144;" horiz-adv-x="550" d="M250 551 L297 551 C312 551 324 556 334 568 L419 666 C438 686 429 704 402 704 L316 704 C299 704 287 697 279 681 L228 587 C217 567 226 551 250 551 L250 551 Z M345 512 C280 512 230 478 210 430 L202 430 L202 469 C202 489 191 500 171 500 L93 500 C73 500 62 489 62 469 L62 31 C62 11 73 0 93 0 L171 0 C191 0 202 11 202 31 L202 312 C202 350 234 381 282 381 C326 381 355 353 355 311 L355 31 C355 11 366 0 386 0 L464 0 C484 0 495 11 495 31 L495 365 C495 453 434 512 345 512 L345 512 Z " />
<glyph glyph-name="uni0145" unicode="&#x145;" horiz-adv-x="685" d="M107 0 L193 0 C213 0 224 11 224 31 L224 377 L217 424 L229 424 L425 24 C432 8 444 0 462 0 L578 0 C598 0 609 11 609 31 L609 639 C609 659 598 670 578 670 L492 670 C472 670 461 659 461 639 L461 293 L468 246 L457 246 L260 646 C253 662 241 670 223 670 L107 670 C87 670 76 659 76 639 L76 31 C76 11 87 0 107 0 L107 0 Z M278 -234 L319 -234 C337 -234 348 -227 357 -212 L416 -88 C427 -67 418 -51 394 -51 L313 -51 C294 -51 282 -60 279 -78 L251 -200 C246 -221 256 -234 278 -234 L278 -234 Z " />
<glyph glyph-name="uni0146" unicode="&#x146;" horiz-adv-x="550" d="M345 512 C280 512 230 478 210 430 L202 430 L202 469 C202 489 191 500 171 500 L93 500 C73 500 62 489 62 469 L62 31 C62 11 73 0 93 0 L171 0 C191 0 202 11 202 31 L202 312 C202 350 234 381 282 381 C326 381 355 353 355 311 L355 31 C355 11 366 0 386 0 L464 0 C484 0 495 11 495 31 L495 365 C495 453 434 512 345 512 L345 512 Z M323 -51 L242 -51 C223 -51 211 -60 208 -78 L180 -200 C175 -221 185 -234 207 -234 L248 -234 C266 -234 277 -227 286 -212 L345 -88 C356 -67 347 -51 323 -51 L323 -51 Z " />
<glyph glyph-name="Ncaron" unicode="&#x147;" horiz-adv-x="685" d="M293 721 L392 721 C408 721 421 727 430 740 L502 836 C516 856 508 874 482 874 L432 874 C416 874 405 869 394 856 L346 804 L339 804 L291 856 C281 869 269 874 253 874 L203 874 C177 874 169 856 183 836 L256 740 C265 727 277 721 293 721 L293 721 Z M107 0 L193 0 C213 0 224 11 224 31 L224 377 L217 424 L229 424 L425 24 C432 8 444 0 462 0 L578 0 C598 0 609 11 609 31 L609 639 C609 659 598 670 578 670 L492 670 C472 670 461 659 461 639 L461 293 L468 246 L457 246 L260 646 C253 662 241 670 223 670 L107 670 C87 670 76 659 76 639 L76 31 C76 11 87 0 107 0 L107 0 Z " />
<glyph glyph-name="ncaron" unicode="&#x148;" horiz-adv-x="550" d="M192 570 C201 557 213 551 229 551 L328 551 C344 551 357 557 366 570 L438 666 C452 686 444 704 418 704 L368 704 C352 704 341 699 330 686 L282 634 L275 634 L227 686 C217 699 205 704 189 704 L139 704 C113 704 105 686 119 666 L192 570 Z M345 512 C280 512 230 478 210 430 L202 430 L202 469 C202 489 191 500 171 500 L93 500 C73 500 62 489 62 469 L62 31 C62 11 73 0 93 0 L171 0 C191 0 202 11 202 31 L202 312 C202 350 234 381 282 381 C326 381 355 353 355 311 L355 31 C355 11 366 0 386 0 L464 0 C484 0 495 11 495 31 L495 365 C495 453 434 512 345 512 L345 512 Z " />
<glyph glyph-name="Eng" unicode="&#x14a;" horiz-adv-x="685" d="M609 639 C609 659 598 670 578 670 L492 670 C472 670 461 659 461 639 L461 293 L468 246 L457 246 L260 646 C253 662 241 670 223 670 L107 670 C87 670 76 659 76 639 L76 31 C76 11 87 0 107 0 L193 0 C213 0 224 11 224 31 L224 377 L217 424 L229 424 L425 24 C432 8 444 0 461 0 L461 -42 C461 -71 440 -90 408 -90 L390 -90 C370 -90 359 -101 359 -121 L359 -166 C359 -186 370 -197 390 -197 L459 -197 C549 -197 608 -144 608 -63 L608 21 C609 24 609 28 609 31 L609 639 Z " />
<glyph glyph-name="eng" unicode="&#x14b;" horiz-adv-x="550" d="M345 512 C280 512 230 478 210 430 L202 430 L202 469 C202 489 191 500 171 500 L93 500 C73 500 62 489 62 469 L62 31 C62 11 73 0 93 0 L171 0 C191 0 202 11 202 31 L202 312 C202 350 234 381 282 381 C326 381 355 353 355 311 L355 -39 C355 -64 337 -80 310 -80 L296 -80 C281 -80 272 -89 272 -104 L272 -156 C272 -176 283 -187 303 -187 L346 -187 C436 -187 495 -134 495 -53 L495 365 C495 453 434 512 345 512 L345 512 Z " />
<glyph glyph-name="Omacron" unicode="&#x14c;" horiz-adv-x="649" d="M206 739 L443 739 C463 739 474 750 474 770 L474 817 C474 837 463 848 443 848 L206 848 C186 848 175 837 175 817 L175 770 C175 750 186 739 206 739 L206 739 Z M325 -12 C487 -12 595 87 595 237 L595 433 C595 583 487 682 325 682 C161 682 54 583 54 433 L54 237 C54 87 161 -12 325 -12 L325 -12 Z M325 124 C251 124 202 170 202 240 L202 430 C202 500 251 546 325 546 C398 546 447 500 447 430 L447 240 C447 170 398 124 325 124 L325 124 Z " />
<glyph glyph-name="omacron" unicode="&#x14d;" horiz-adv-x="526" d="M145 569 L382 569 C402 569 413 580 413 600 L413 647 C413 667 402 678 382 678 L145 678 C125 678 114 667 114 647 L114 600 C114 580 125 569 145 569 L145 569 Z M263 -12 C395 -12 482 68 482 190 L482 310 C482 432 395 512 263 512 C131 512 43 432 43 310 L43 190 C43 68 131 -12 263 -12 L263 -12 Z M263 117 C215 117 183 146 183 191 L183 309 C183 354 215 383 263 383 C311 383 342 354 342 309 L342 191 C342 146 311 117 263 117 L263 117 Z " />
<glyph glyph-name="Obreve" unicode="&#x14e;" horiz-adv-x="649" d="M325 713 C412 713 471 758 483 839 C486 860 473 873 453 873 L399 873 C385 873 378 865 375 853 C372 828 354 813 325 813 C296 813 278 826 273 853 C270 865 264 873 249 873 L195 873 C175 873 162 861 165 840 C176 760 236 713 325 713 L325 713 Z M325 -12 C487 -12 595 87 595 237 L595 433 C595 583 487 682 325 682 C161 682 54 583 54 433 L54 237 C54 87 161 -12 325 -12 L325 -12 Z M325 124 C251 124 202 170 202 240 L202 430 C202 500 251 546 325 546 C398 546 447 500 447 430 L447 240 C447 170 398 124 325 124 L325 124 Z " />
<glyph glyph-name="obreve" unicode="&#x14f;" horiz-adv-x="526" d="M263 543 C350 543 409 588 421 669 C424 690 411 703 391 703 L337 703 C323 703 316 695 313 683 C310 658 292 643 263 643 C234 643 216 656 211 683 C208 695 202 703 187 703 L133 703 C113 703 100 691 103 670 C114 590 174 543 263 543 L263 543 Z M263 -12 C395 -12 482 68 482 190 L482 310 C482 432 395 512 263 512 C131 512 43 432 43 310 L43 190 C43 68 131 -12 263 -12 L263 -12 Z M263 117 C215 117 183 146 183 191 L183 309 C183 354 215 383 263 383 C311 383 342 354 342 309 L342 191 C342 146 311 117 263 117 L263 117 Z " />
<glyph glyph-name="Ohungarumlaut" unicode="&#x150;" horiz-adv-x="649" d="M190 721 L238 721 C255 721 267 727 276 743 L331 837 C343 857 333 874 309 874 L240 874 C222 874 210 866 204 849 L166 757 C159 736 168 721 190 721 L190 721 Z M389 721 L437 721 C454 721 465 727 474 743 L530 837 C543 857 532 874 508 874 L439 874 C421 874 410 866 404 849 L364 757 C356 736 367 721 389 721 L389 721 Z M325 -12 C487 -12 595 87 595 237 L595 433 C595 583 487 682 325 682 C161 682 54 583 54 433 L54 237 C54 87 161 -12 325 -12 L325 -12 Z M325 124 C251 124 202 170 202 240 L202 430 C202 500 251 546 325 546 C398 546 447 500 447 430 L447 240 C447 170 398 124 325 124 L325 124 Z " />
<glyph glyph-name="ohungarumlaut" unicode="&#x151;" horiz-adv-x="526" d="M128 551 L176 551 C193 551 205 557 214 573 L269 667 C281 687 271 704 247 704 L178 704 C160 704 148 696 142 679 L104 587 C97 566 106 551 128 551 L128 551 Z M327 551 L375 551 C392 551 403 557 412 573 L468 667 C481 687 470 704 446 704 L377 704 C359 704 348 696 342 679 L302 587 C294 566 305 551 327 551 L327 551 Z M263 -12 C395 -12 482 68 482 190 L482 310 C482 432 395 512 263 512 C131 512 43 432 43 310 L43 190 C43 68 131 -12 263 -12 L263 -12 Z M263 117 C215 117 183 146 183 191 L183 309 C183 354 215 383 263 383 C311 383 342 354 342 309 L342 191 C342 146 311 117 263 117 L263 117 Z " />
<glyph glyph-name="OE" unicode="&#x152;" horiz-adv-x="913" d="M821 534 C843 534 855 546 855 568 L855 635 C855 658 843 670 821 670 L325 670 C161 670 54 571 54 421 L54 249 C54 99 161 0 325 0 L821 0 C843 0 855 12 855 35 L855 102 C855 124 843 136 821 136 L570 136 L570 273 L782 273 C804 273 817 286 817 308 L817 368 C817 390 804 403 782 403 L570 403 L570 534 L821 534 Z M325 136 C251 136 202 182 202 252 L202 418 C202 488 251 534 325 534 L423 534 L423 136 L325 136 Z " />
<glyph glyph-name="oe" unicode="&#x153;" horiz-adv-x="825" d="M751 204 C771 204 782 215 782 235 L782 314 C782 433 698 512 573 512 C502 512 443 487 416 445 L408 445 C380 487 321 512 251 512 C127 512 43 435 43 317 L43 183 C43 65 127 -12 251 -12 C323 -12 384 15 408 55 L417 55 C443 15 504 -12 580 -12 C688 -12 764 35 779 124 C783 145 769 156 749 156 L669 156 C652 156 644 147 638 136 C626 113 602 101 567 101 C515 101 483 131 483 176 L483 204 L751 204 Z M563 399 C610 399 642 370 642 325 L642 300 L483 300 L483 325 C483 370 515 399 563 399 L563 399 Z M342 191 C342 146 311 117 263 117 C215 117 183 146 183 191 L183 309 C183 354 215 383 263 383 C311 383 342 354 342 309 L342 191 Z " />
<glyph glyph-name="Racute" unicode="&#x154;" horiz-adv-x="640" d="M295 721 L342 721 C357 721 369 726 379 738 L464 836 C483 856 474 874 447 874 L361 874 C344 874 332 867 324 851 L273 757 C262 737 271 721 295 721 L295 721 Z M477 233 C553 268 599 344 599 444 C599 582 509 670 373 670 L111 670 C89 670 76 658 76 635 L76 35 C76 12 89 0 111 0 L189 0 C211 0 224 12 224 35 L224 212 L330 212 L426 27 C436 6 448 0 469 0 L567 0 C594 0 603 16 589 41 L477 233 Z M224 534 L358 534 C416 534 451 498 451 441 C451 383 416 348 358 348 L224 348 L224 534 Z " />
<glyph glyph-name="racute" unicode="&#x155;" horiz-adv-x="382" d="M177 551 L224 551 C239 551 251 556 261 568 L346 666 C365 686 356 704 329 704 L243 704 C226 704 214 697 206 681 L155 587 C144 567 153 551 177 551 L177 551 Z M323 511 C264 507 228 476 210 416 L202 416 L202 469 C202 489 191 500 171 500 L93 500 C73 500 62 489 62 469 L62 31 C62 11 73 0 93 0 L171 0 C191 0 202 11 202 31 L202 255 C202 324 241 368 325 368 C344 368 356 380 356 399 L356 480 C356 500 344 513 323 511 L323 511 Z " />
<glyph glyph-name="uni0156" unicode="&#x156;" horiz-adv-x="640" d="M477 233 C553 268 599 344 599 444 C599 582 509 670 373 670 L111 670 C89 670 76 658 76 635 L76 35 C76 12 89 0 111 0 L189 0 C211 0 224 12 224 35 L224 212 L330 212 L426 27 C436 6 448 0 469 0 L567 0 C594 0 603 16 589 41 L477 233 Z M224 534 L358 534 C416 534 451 498 451 441 C451 383 416 348 358 348 L224 348 L224 534 Z M369 -51 L288 -51 C269 -51 257 -60 254 -78 L226 -200 C221 -221 231 -234 253 -234 L294 -234 C312 -234 323 -227 332 -212 L391 -88 C402 -67 393 -51 369 -51 L369 -51 Z " />
<glyph glyph-name="uni0157" unicode="&#x157;" horiz-adv-x="382" d="M323 511 C264 507 228 476 210 416 L202 416 L202 469 C202 489 191 500 171 500 L93 500 C73 500 62 489 62 469 L62 31 C62 11 73 0 93 0 L171 0 C191 0 202 11 202 31 L202 255 C202 324 241 368 325 368 C344 368 356 380 356 399 L356 480 C356 500 344 513 323 511 L323 511 Z M176 -51 L95 -51 C76 -51 64 -60 61 -78 L33 -200 C28 -221 38 -234 60 -234 L101 -234 C119 -234 130 -227 139 -212 L198 -88 C209 -67 200 -51 176 -51 L176 -51 Z " />
<glyph glyph-name="Rcaron" unicode="&#x158;" horiz-adv-x="640" d="M238 740 C247 727 259 721 275 721 L374 721 C390 721 403 727 412 740 L484 836 C498 856 490 874 464 874 L414 874 C398 874 387 869 376 856 L328 804 L321 804 L273 856 C263 869 251 874 235 874 L185 874 C159 874 151 856 165 836 L238 740 Z M477 233 C553 268 599 344 599 444 C599 582 509 670 373 670 L111 670 C89 670 76 658 76 635 L76 35 C76 12 89 0 111 0 L189 0 C211 0 224 12 224 35 L224 212 L330 212 L426 27 C436 6 448 0 469 0 L567 0 C594 0 603 16 589 41 L477 233 Z M224 534 L358 534 C416 534 451 498 451 441 C451 383 416 348 358 348 L224 348 L224 534 Z " />
<glyph glyph-name="rcaron" unicode="&#x159;" horiz-adv-x="382" d="M345 704 L295 704 C279 704 268 699 257 686 L209 634 L202 634 L154 686 C144 699 132 704 116 704 L66 704 C40 704 32 686 46 666 L119 570 C128 557 140 551 156 551 L255 551 C271 551 284 557 293 570 L365 666 C379 686 371 704 345 704 L345 704 Z M323 511 C264 507 228 476 210 416 L202 416 L202 469 C202 489 191 500 171 500 L93 500 C73 500 62 489 62 469 L62 31 C62 11 73 0 93 0 L171 0 C191 0 202 11 202 31 L202 255 C202 324 241 368 325 368 C344 368 356 380 356 399 L356 480 C356 500 344 513 323 511 L323 511 Z " />
<glyph glyph-name="Sacute" unicode="&#x15a;" horiz-adv-x="593" d="M268 721 L315 721 C330 721 342 726 352 738 L437 836 C456 856 447 874 420 874 L334 874 C317 874 305 867 297 851 L246 757 C235 737 244 721 268 721 L268 721 Z M299 -12 C453 -12 554 67 554 194 C554 441 202 377 202 498 C202 538 242 562 292 562 C339 562 373 543 385 504 C390 489 398 479 418 479 L506 479 C528 479 542 491 539 514 C523 622 433 682 294 682 C147 682 45 609 45 484 C45 242 398 299 398 177 C398 135 353 108 298 108 C245 108 209 129 198 175 C192 193 185 203 164 203 L75 203 C52 203 39 190 41 167 C58 53 153 -12 299 -12 L299 -12 Z " />
<glyph glyph-name="sacute" unicode="&#x15b;" horiz-adv-x="478" d="M209 551 L256 551 C271 551 283 556 293 568 L378 666 C397 686 388 704 361 704 L275 704 C258 704 246 697 238 681 L187 587 C176 567 185 551 209 551 L209 551 Z M241 -12 C368 -12 448 49 448 151 C448 340 176 285 176 366 C176 390 199 406 236 406 C264 406 282 396 296 375 C304 364 308 354 326 354 L408 354 C426 354 439 366 435 386 C420 467 345 512 234 512 C115 512 35 457 35 355 C35 168 306 219 306 137 C306 111 281 94 240 94 C207 94 183 106 173 132 C167 147 162 155 142 155 L60 155 C42 155 28 143 33 122 C48 37 126 -12 241 -12 L241 -12 Z " />
<glyph glyph-name="Scircumflex" unicode="&#x15c;" horiz-adv-x="593" d="M157 721 L207 721 C223 721 235 726 245 739 L293 791 L300 791 L348 739 C359 726 370 721 386 721 L436 721 C462 721 470 738 456 759 L383 855 C374 868 362 874 346 874 L247 874 C231 874 218 868 209 855 L137 759 C123 738 131 721 157 721 L157 721 Z M299 -12 C453 -12 554 67 554 194 C554 441 202 377 202 498 C202 538 242 562 292 562 C339 562 373 543 385 504 C390 489 398 479 418 479 L506 479 C528 479 542 491 539 514 C523 622 433 682 294 682 C147 682 45 609 45 484 C45 242 398 299 398 177 C398 135 353 108 298 108 C245 108 209 129 198 175 C192 193 185 203 164 203 L75 203 C52 203 39 190 41 167 C58 53 153 -12 299 -12 L299 -12 Z " />
<glyph glyph-name="scircumflex" unicode="&#x15d;" horiz-adv-x="478" d="M98 551 L148 551 C164 551 176 556 186 569 L234 621 L241 621 L289 569 C300 556 311 551 327 551 L377 551 C403 551 411 568 397 589 L324 685 C315 698 303 704 287 704 L188 704 C172 704 159 698 150 685 L78 589 C64 568 72 551 98 551 L98 551 Z M241 -12 C368 -12 448 49 448 151 C448 340 176 285 176 366 C176 390 199 406 236 406 C264 406 282 396 296 375 C304 364 308 354 326 354 L408 354 C426 354 439 366 435 386 C420 467 345 512 234 512 C115 512 35 457 35 355 C35 168 306 219 306 137 C306 111 281 94 240 94 C207 94 183 106 173 132 C167 147 162 155 142 155 L60 155 C42 155 28 143 33 122 C48 37 126 -12 241 -12 L241 -12 Z " />
<glyph glyph-name="Scedilla" unicode="&#x15e;" horiz-adv-x="593" d="M554 194 C554 441 202 377 202 498 C202 538 242 562 292 562 C339 562 373 543 385 504 C390 489 398 479 418 479 L506 479 C528 479 542 491 539 514 C523 622 433 682 294 682 C147 682 45 609 45 484 C45 242 398 299 398 177 C398 135 353 108 298 108 C245 108 209 129 198 175 C192 193 185 203 164 203 L75 203 C52 203 39 190 41 167 C56 67 132 4 249 -9 L225 -49 C221 -56 219 -62 219 -70 L219 -79 C219 -94 228 -102 243 -102 L294 -102 C310 -102 321 -112 321 -126 C321 -145 300 -156 270 -156 C255 -156 240 -153 226 -149 C207 -145 197 -153 197 -175 L197 -189 C197 -206 204 -219 222 -224 C240 -229 261 -232 283 -232 C363 -232 416 -191 416 -130 C416 -76 379 -41 324 -41 L312 -41 L329 -11 C466 -1 554 75 554 194 L554 194 Z " />
<glyph glyph-name="scedilla" unicode="&#x15f;" horiz-adv-x="478" d="M448 151 C448 340 176 285 176 366 C176 390 199 406 236 406 C264 406 282 396 296 375 C304 364 308 354 326 354 L408 354 C426 354 439 366 435 386 C420 467 345 512 234 512 C115 512 35 457 35 355 C35 168 306 219 306 137 C306 111 281 94 240 94 C207 94 183 106 173 132 C167 147 162 155 142 155 L60 155 C42 155 28 143 33 122 C46 50 104 4 191 -9 L166 -49 C162 -56 160 -62 160 -70 L160 -79 C160 -94 169 -102 184 -102 L235 -102 C251 -102 262 -112 262 -126 C262 -145 241 -156 211 -156 C196 -156 181 -153 167 -149 C148 -145 138 -153 138 -175 L138 -189 C138 -206 145 -219 163 -224 C181 -229 202 -232 224 -232 C304 -232 357 -191 357 -130 C357 -76 320 -41 265 -41 L253 -41 L270 -11 C380 -2 448 57 448 151 L448 151 Z " />
<glyph glyph-name="Scaron" unicode="&#x160;" horiz-adv-x="593" d="M247 721 L346 721 C362 721 375 727 384 740 L456 836 C470 856 462 874 436 874 L386 874 C370 874 359 869 348 856 L300 804 L293 804 L245 856 C235 869 223 874 207 874 L157 874 C131 874 123 856 137 836 L210 740 C219 727 231 721 247 721 L247 721 Z M299 -12 C453 -12 554 67 554 194 C554 441 202 377 202 498 C202 538 242 562 292 562 C339 562 373 543 385 504 C390 489 398 479 418 479 L506 479 C528 479 542 491 539 514 C523 622 433 682 294 682 C147 682 45 609 45 484 C45 242 398 299 398 177 C398 135 353 108 298 108 C245 108 209 129 198 175 C192 193 185 203 164 203 L75 203 C52 203 39 190 41 167 C58 53 153 -12 299 -12 L299 -12 Z " />
<glyph glyph-name="scaron" unicode="&#x161;" horiz-adv-x="478" d="M188 551 L287 551 C303 551 316 557 325 570 L397 666 C411 686 403 704 377 704 L327 704 C311 704 300 699 289 686 L241 634 L234 634 L186 686 C176 699 164 704 148 704 L98 704 C72 704 64 686 78 666 L151 570 C160 557 172 551 188 551 L188 551 Z M241 -12 C368 -12 448 49 448 151 C448 340 176 285 176 366 C176 390 199 406 236 406 C264 406 282 396 296 375 C304 364 308 354 326 354 L408 354 C426 354 439 366 435 386 C420 467 345 512 234 512 C115 512 35 457 35 355 C35 168 306 219 306 137 C306 111 281 94 240 94 C207 94 183 106 173 132 C167 147 162 155 142 155 L60 155 C42 155 28 143 33 122 C48 37 126 -12 241 -12 L241 -12 Z " />
<glyph glyph-name="uni0162" unicode="&#x162;" horiz-adv-x="569" d="M500 670 L68 670 C46 670 34 658 34 635 L34 568 C34 546 46 534 68 534 L211 534 L211 35 C211 13 222 2 242 0 L212 -49 C208 -56 206 -62 206 -70 L206 -79 C206 -94 215 -102 230 -102 L281 -102 C297 -102 308 -112 308 -126 C308 -145 287 -156 257 -156 C242 -156 227 -153 213 -149 C194 -145 184 -153 184 -175 L184 -189 C184 -206 191 -219 209 -224 C227 -229 248 -232 270 -232 C350 -232 403 -191 403 -130 C403 -76 366 -41 311 -41 L299 -41 L322 0 L324 0 C346 0 359 12 359 35 L359 534 L500 534 C522 534 535 546 535 568 L535 635 C535 658 522 670 500 670 L500 670 Z " />
<glyph glyph-name="uni0163" unicode="&#x163;" horiz-adv-x="399" d="M328 375 C348 375 359 386 359 406 L359 469 C359 489 348 500 328 500 L249 500 L249 599 C249 619 238 630 218 630 L149 630 C129 630 118 619 118 599 L118 539 C118 515 104 500 79 500 L54 500 C36 500 26 490 26 472 L26 406 C26 386 37 375 57 375 L109 375 L109 142 C109 83 137 38 185 16 L148 -49 C144 -56 142 -62 142 -69 L142 -79 C142 -94 151 -102 166 -102 L217 -102 C233 -102 244 -112 244 -126 C244 -145 223 -156 193 -156 C178 -156 163 -153 149 -149 C130 -145 120 -153 120 -175 L120 -189 C120 -206 127 -220 145 -224 C163 -229 184 -232 206 -232 C286 -232 339 -191 339 -130 C339 -76 302 -41 247 -41 L235 -41 L257 0 L261 0 L322 0 C342 0 353 11 353 31 L353 98 C353 118 342 129 322 129 L300 129 C268 129 249 148 249 179 L249 375 L328 375 Z " />
<glyph glyph-name="Tcaron" unicode="&#x164;" horiz-adv-x="569" d="M197 740 C206 727 218 721 234 721 L333 721 C349 721 362 727 371 740 L443 836 C457 856 449 874 423 874 L373 874 C357 874 346 869 335 856 L287 804 L280 804 L232 856 C222 869 210 874 194 874 L144 874 C118 874 110 856 124 836 L197 740 Z M500 670 L68 670 C46 670 34 658 34 635 L34 568 C34 546 46 534 68 534 L211 534 L211 35 C211 12 223 0 246 0 L324 0 C346 0 359 12 359 35 L359 534 L500 534 C522 534 535 546 535 568 L535 635 C535 658 522 670 500 670 L500 670 Z " />
<glyph glyph-name="tcaron" unicode="&#x165;" horiz-adv-x="399" d="M395 733 L333 733 C313 733 302 722 302 702 L302 581 C302 561 313 550 333 550 L374 550 C392 550 404 559 407 578 L423 700 C427 721 416 733 395 733 L395 733 Z M328 500 L249 500 L249 599 C249 619 238 630 218 630 L149 630 C129 630 118 619 118 599 L118 539 C118 515 104 500 79 500 L54 500 C36 500 26 490 26 472 L26 406 C26 386 37 375 57 375 L109 375 L109 142 C109 56 169 0 261 0 L322 0 C342 0 353 11 353 31 L353 98 C353 118 342 129 322 129 L300 129 C268 129 249 148 249 179 L249 375 L328 375 C348 375 359 386 359 406 L359 469 C359 489 348 500 328 500 L328 500 Z " />
<glyph glyph-name="Tbar" unicode="&#x166;" horiz-adv-x="569" d="M500 670 L68 670 C46 670 34 658 34 635 L34 568 C34 546 46 534 68 534 L211 534 L211 358 L136 358 C116 358 105 347 105 327 L105 270 C105 250 116 239 136 239 L211 239 L211 35 C211 12 223 0 246 0 L324 0 C346 0 359 12 359 35 L359 239 L433 239 C453 239 464 250 464 270 L464 327 C464 347 453 358 433 358 L359 358 L359 534 L500 534 C522 534 535 546 535 568 L535 635 C535 658 522 670 500 670 L500 670 Z " />
<glyph glyph-name="tbar" unicode="&#x167;" horiz-adv-x="399" d="M328 375 C348 375 359 386 359 406 L359 469 C359 489 348 500 328 500 L249 500 L249 599 C249 619 238 630 218 630 L149 630 C129 630 118 619 118 599 L118 539 C118 515 104 500 79 500 L54 500 C36 500 26 490 26 472 L26 406 C26 386 37 375 57 375 L109 375 L109 298 L77 298 C57 298 46 287 46 267 L46 246 C46 226 57 215 77 215 L109 215 L109 142 C109 56 169 0 261 0 L322 0 C342 0 353 11 353 31 L353 98 C353 118 342 129 322 129 L300 129 C268 129 249 148 249 179 L249 215 L308 215 C329 215 339 226 339 246 L339 267 C339 287 329 298 308 298 L249 298 L249 375 L328 375 Z " />
<glyph glyph-name="Utilde" unicode="&#x168;" horiz-adv-x="654" d="M409 725 C475 725 510 767 517 848 C519 869 509 881 494 881 L441 881 C421 881 416 875 412 863 C407 847 394 838 376 838 C338 838 306 884 246 884 C177 884 142 839 137 752 C136 736 145 728 160 728 L213 728 C233 728 238 734 242 746 C247 761 259 771 276 771 C313 771 349 725 409 725 L409 725 Z M328 -12 C484 -12 587 83 587 227 L587 635 C587 658 575 670 553 670 L475 670 C452 670 440 658 440 635 L440 230 C440 166 395 124 328 124 C259 124 215 166 215 230 L215 635 C215 658 202 670 180 670 L102 670 C79 670 67 658 67 635 L67 227 C67 83 170 -12 328 -12 L328 -12 Z " />
<glyph glyph-name="utilde" unicode="&#x169;" horiz-adv-x="543" d="M101 558 L154 558 C174 558 179 564 183 576 C188 591 200 601 217 601 C254 601 290 555 350 555 C416 555 451 597 458 678 C460 699 450 711 435 711 L382 711 C362 711 357 705 353 693 C348 677 335 668 317 668 C279 668 247 714 187 714 C118 714 83 669 78 582 C77 566 86 558 101 558 L101 558 Z M450 500 L372 500 C352 500 341 489 341 469 L341 186 C341 148 311 119 266 119 C223 119 196 146 196 187 L196 469 C196 489 185 500 165 500 L87 500 C67 500 56 489 56 469 L56 134 C56 46 116 -12 203 -12 C267 -12 314 22 333 70 L341 70 L341 31 C341 11 352 0 372 0 L450 0 C470 0 481 11 481 31 L481 469 C481 489 470 500 450 500 L450 500 Z " />
<glyph glyph-name="Umacron" unicode="&#x16a;" horiz-adv-x="654" d="M209 739 L446 739 C466 739 477 750 477 770 L477 817 C477 837 466 848 446 848 L209 848 C189 848 178 837 178 817 L178 770 C178 750 189 739 209 739 L209 739 Z M328 -12 C484 -12 587 83 587 227 L587 635 C587 658 575 670 553 670 L475 670 C452 670 440 658 440 635 L440 230 C440 166 395 124 328 124 C259 124 215 166 215 230 L215 635 C215 658 202 670 180 670 L102 670 C79 670 67 658 67 635 L67 227 C67 83 170 -12 328 -12 L328 -12 Z " />
<glyph glyph-name="umacron" unicode="&#x16b;" horiz-adv-x="543" d="M150 569 L387 569 C407 569 418 580 418 600 L418 647 C418 667 407 678 387 678 L150 678 C130 678 119 667 119 647 L119 600 C119 580 130 569 150 569 L150 569 Z M450 500 L372 500 C352 500 341 489 341 469 L341 186 C341 148 311 119 266 119 C223 119 196 146 196 187 L196 469 C196 489 185 500 165 500 L87 500 C67 500 56 489 56 469 L56 134 C56 46 116 -12 203 -12 C267 -12 314 22 333 70 L341 70 L341 31 C341 11 352 0 372 0 L450 0 C470 0 481 11 481 31 L481 469 C481 489 470 500 450 500 L450 500 Z " />
<glyph glyph-name="Ubreve" unicode="&#x16c;" horiz-adv-x="654" d="M328 713 C415 713 474 758 486 839 C489 860 476 873 456 873 L402 873 C388 873 381 865 378 853 C375 828 357 813 328 813 C299 813 281 826 276 853 C273 865 267 873 252 873 L198 873 C178 873 165 861 168 840 C179 760 239 713 328 713 L328 713 Z M328 -12 C484 -12 587 83 587 227 L587 635 C587 658 575 670 553 670 L475 670 C452 670 440 658 440 635 L440 230 C440 166 395 124 328 124 C259 124 215 166 215 230 L215 635 C215 658 202 670 180 670 L102 670 C79 670 67 658 67 635 L67 227 C67 83 170 -12 328 -12 L328 -12 Z " />
<glyph glyph-name="ubreve" unicode="&#x16d;" horiz-adv-x="543" d="M269 543 C356 543 415 588 427 669 C430 690 417 703 397 703 L343 703 C329 703 322 695 319 683 C316 658 298 643 269 643 C240 643 222 656 217 683 C214 695 208 703 193 703 L139 703 C119 703 106 691 109 670 C120 590 180 543 269 543 L269 543 Z M450 500 L372 500 C352 500 341 489 341 469 L341 186 C341 148 311 119 266 119 C223 119 196 146 196 187 L196 469 C196 489 185 500 165 500 L87 500 C67 500 56 489 56 469 L56 134 C56 46 116 -12 203 -12 C267 -12 314 22 333 70 L341 70 L341 31 C341 11 352 0 372 0 L450 0 C470 0 481 11 481 31 L481 469 C481 489 470 500 450 500 L450 500 Z " />
<glyph glyph-name="Uring" unicode="&#x16e;" horiz-adv-x="654" d="M328 713 C398 713 445 759 445 826 C445 893 398 939 328 939 C256 939 209 893 209 826 C209 759 256 713 328 713 L328 713 Z M328 780 C300 780 282 800 282 826 C282 853 301 872 328 872 C354 872 372 853 372 826 C372 799 354 780 328 780 L328 780 Z M328 -12 C484 -12 587 83 587 227 L587 635 C587 658 575 670 553 670 L475 670 C452 670 440 658 440 635 L440 230 C440 166 395 124 328 124 C259 124 215 166 215 230 L215 635 C215 658 202 670 180 670 L102 670 C79 670 67 658 67 635 L67 227 C67 83 170 -12 328 -12 L328 -12 Z " />
<glyph glyph-name="uring" unicode="&#x16f;" horiz-adv-x="543" d="M269 543 C339 543 386 589 386 656 C386 723 339 769 269 769 C197 769 150 723 150 656 C150 589 197 543 269 543 L269 543 Z M269 702 C295 702 313 683 313 656 C313 629 295 610 269 610 C241 610 223 630 223 656 C223 683 242 702 269 702 L269 702 Z M450 500 L372 500 C352 500 341 489 341 469 L341 186 C341 148 311 119 266 119 C223 119 196 146 196 187 L196 469 C196 489 185 500 165 500 L87 500 C67 500 56 489 56 469 L56 134 C56 46 116 -12 203 -12 C267 -12 314 22 333 70 L341 70 L341 31 C341 11 352 0 372 0 L450 0 C470 0 481 11 481 31 L481 469 C481 489 470 500 450 500 L450 500 Z " />
<glyph glyph-name="Uhungarumlaut" unicode="&#x170;" horiz-adv-x="654" d="M192 721 L240 721 C257 721 269 727 278 743 L333 837 C345 857 335 874 311 874 L242 874 C224 874 212 866 206 849 L168 757 C161 736 170 721 192 721 L192 721 Z M391 721 L439 721 C456 721 467 727 476 743 L532 837 C545 857 534 874 510 874 L441 874 C423 874 412 866 406 849 L366 757 C358 736 369 721 391 721 L391 721 Z M328 -12 C484 -12 587 83 587 227 L587 635 C587 658 575 670 553 670 L475 670 C452 670 440 658 440 635 L440 230 C440 166 395 124 328 124 C259 124 215 166 215 230 L215 635 C215 658 202 670 180 670 L102 670 C79 670 67 658 67 635 L67 227 C67 83 170 -12 328 -12 L328 -12 Z " />
<glyph glyph-name="uhungarumlaut" unicode="&#x171;" horiz-adv-x="543" d="M134 551 L182 551 C199 551 211 557 220 573 L275 667 C287 687 277 704 253 704 L184 704 C166 704 154 696 148 679 L110 587 C103 566 112 551 134 551 L134 551 Z M333 551 L381 551 C398 551 409 557 418 573 L474 667 C487 687 476 704 452 704 L383 704 C365 704 354 696 348 679 L308 587 C300 566 311 551 333 551 L333 551 Z M450 500 L372 500 C352 500 341 489 341 469 L341 186 C341 148 311 119 266 119 C223 119 196 146 196 187 L196 469 C196 489 185 500 165 500 L87 500 C67 500 56 489 56 469 L56 134 C56 46 116 -12 203 -12 C267 -12 314 22 333 70 L341 70 L341 31 C341 11 352 0 372 0 L450 0 C470 0 481 11 481 31 L481 469 C481 489 470 500 450 500 L450 500 Z " />
<glyph glyph-name="Uogonek" unicode="&#x172;" horiz-adv-x="654" d="M553 670 L475 670 C452 670 440 658 440 635 L440 230 C440 166 395 124 328 124 C259 124 215 166 215 230 L215 635 C215 658 202 670 180 670 L102 670 C79 670 67 658 67 635 L67 227 C67 98 149 9 280 -9 C243 -31 221 -70 221 -113 C221 -176 271 -218 346 -218 C372 -218 396 -215 411 -209 C422 -205 426 -196 426 -183 L426 -137 C426 -119 419 -114 405 -118 C400 -119 394 -120 388 -120 C364 -120 348 -104 348 -80 C348 -49 369 -19 403 -4 L404 -4 C516 22 587 108 587 227 L587 635 C587 658 575 670 553 670 L553 670 Z " />
<glyph glyph-name="uogonek" unicode="&#x173;" horiz-adv-x="543" d="M470 -118 C465 -119 459 -120 453 -120 C429 -120 413 -104 413 -80 C413 -49 434 -19 468 -4 C477 -1 481 5 481 13 L481 469 C481 489 470 500 450 500 L372 500 C352 500 341 489 341 469 L341 186 C341 148 311 119 266 119 C223 119 196 146 196 187 L196 469 C196 489 185 500 165 500 L87 500 C67 500 56 489 56 469 L56 134 C56 46 116 -12 203 -12 C267 -12 314 22 333 70 L341 70 L341 31 C341 16 348 5 360 2 L360 -1 C315 -20 286 -64 286 -113 C286 -176 336 -218 411 -218 C437 -218 461 -215 476 -209 C487 -205 491 -196 491 -183 L491 -137 C491 -119 484 -114 470 -118 L470 -118 Z " />
<glyph glyph-name="Wcircumflex" unicode="&#x174;" horiz-adv-x="946" d="M333 721 L383 721 C399 721 411 726 421 739 L469 791 L476 791 L524 739 C535 726 546 721 562 721 L612 721 C638 721 646 738 632 759 L559 855 C550 868 538 874 522 874 L423 874 C407 874 394 868 385 855 L313 759 C299 738 307 721 333 721 L333 721 Z M222 0 L337 0 C358 0 370 10 374 31 L468 415 L478 415 L571 31 C575 10 588 0 608 0 L723 0 C744 0 757 11 761 31 L906 632 C910 655 899 670 875 670 L788 670 C767 670 754 659 752 638 L666 203 L657 203 L552 639 C548 660 535 670 515 670 L436 670 C416 670 403 660 399 639 L295 203 L286 203 L199 638 C197 659 184 670 163 670 L70 670 C46 670 35 655 40 632 L184 31 C188 11 202 0 222 0 L222 0 Z " />
<glyph glyph-name="wcircumflex" unicode="&#x175;" horiz-adv-x="801" d="M261 551 L311 551 C327 551 339 556 349 569 L397 621 L404 621 L452 569 C463 556 474 551 490 551 L540 551 C566 551 574 568 560 589 L487 685 C478 698 466 704 450 704 L351 704 C335 704 322 698 313 685 L241 589 C227 568 235 551 261 551 L261 551 Z M190 0 L293 0 C311 0 324 10 327 28 L396 290 L405 290 L474 28 C477 10 490 0 508 0 L611 0 C630 0 642 9 646 27 L769 466 C775 487 764 500 745 500 L658 500 C639 500 627 490 625 471 L558 172 L548 172 L475 472 C472 491 460 500 442 500 L365 500 C346 500 335 491 331 472 L258 172 L248 172 L182 471 C179 490 168 500 149 500 L56 500 C37 500 27 487 32 466 L155 27 C160 9 171 0 190 0 L190 0 Z " />
<glyph glyph-name="Ycircumflex" unicode="&#x176;" horiz-adv-x="612" d="M166 721 L216 721 C232 721 244 726 254 739 L302 791 L309 791 L357 739 C368 726 379 721 395 721 L445 721 C471 721 479 738 465 759 L392 855 C383 868 371 874 355 874 L256 874 C240 874 227 868 218 855 L146 759 C132 738 140 721 166 721 L166 721 Z M267 0 L345 0 C368 0 380 12 380 35 L380 264 L576 629 C589 654 578 670 551 670 L461 670 C442 670 429 662 421 643 L314 424 L304 424 L196 643 C188 661 175 670 156 670 L61 670 C34 670 23 654 35 629 L232 263 L232 35 C232 12 245 0 267 0 L267 0 Z " />
<glyph glyph-name="ycircumflex" unicode="&#x177;" horiz-adv-x="528" d="M124 551 L174 551 C190 551 202 556 212 569 L260 621 L267 621 L315 569 C326 556 337 551 353 551 L403 551 C429 551 437 568 423 589 L350 685 C341 698 329 704 313 704 L214 704 C198 704 185 698 176 685 L104 589 C90 568 98 551 124 551 L124 551 Z M106 -180 L174 -180 C254 -180 304 -144 327 -71 L499 465 C506 486 495 500 475 500 L389 500 C371 500 359 491 356 472 L275 157 L260 157 L178 472 C175 491 163 500 145 500 L53 500 C34 500 23 486 29 465 L166 36 C171 21 180 15 195 15 L211 15 L195 -28 C187 -53 168 -64 139 -64 L106 -64 C86 -64 75 -75 75 -95 L75 -149 C75 -169 86 -180 106 -180 L106 -180 Z " />
<glyph glyph-name="Ydieresis" unicode="&#x178;" horiz-adv-x="612" d="M203 724 C248 724 278 755 278 801 C278 846 248 876 203 876 C157 876 126 846 126 801 C126 755 157 724 203 724 L203 724 Z M410 724 C455 724 485 755 485 801 C485 846 455 876 410 876 C364 876 333 846 333 801 C333 755 364 724 410 724 L410 724 Z M267 0 L345 0 C368 0 380 12 380 35 L380 264 L576 629 C589 654 578 670 551 670 L461 670 C442 670 429 662 421 643 L314 424 L304 424 L196 643 C188 661 175 670 156 670 L61 670 C34 670 23 654 35 629 L232 263 L232 35 C232 12 245 0 267 0 L267 0 Z " />
<glyph glyph-name="Zacute" unicode="&#x179;" horiz-adv-x="578" d="M260 721 L307 721 C322 721 334 726 344 738 L429 836 C448 856 439 874 412 874 L326 874 C309 874 297 867 289 851 L238 757 C227 737 236 721 260 721 L260 721 Z M85 0 L493 0 C515 0 527 12 527 35 L527 102 C527 124 515 136 493 136 L245 136 L245 144 L508 539 C518 553 522 565 522 582 L522 635 C522 658 510 670 488 670 L90 670 C68 670 56 658 56 635 L56 568 C56 546 68 534 90 534 L328 534 L328 526 L65 131 C55 117 51 105 51 88 L51 35 C51 12 63 0 85 0 L85 0 Z " />
<glyph glyph-name="zacute" unicode="&#x17a;" horiz-adv-x="492" d="M217 551 L264 551 C279 551 291 556 301 568 L386 666 C405 686 396 704 369 704 L283 704 C266 704 254 697 246 681 L195 587 C184 567 193 551 217 551 L217 551 Z M73 0 L419 0 C439 0 450 11 450 31 L450 96 C450 116 439 127 419 127 L236 127 L236 135 L430 379 C440 391 445 402 445 417 L445 469 C445 489 434 500 414 500 L78 500 C58 500 47 489 47 469 L47 404 C47 384 58 373 78 373 L251 373 L251 365 L56 121 C46 109 42 98 42 83 L42 31 C42 11 53 0 73 0 L73 0 Z " />
<glyph glyph-name="Zdotaccent" unicode="&#x17b;" horiz-adv-x="578" d="M290 724 C338 724 369 756 369 804 C369 852 338 884 290 884 C242 884 210 852 210 804 C210 756 242 724 290 724 L290 724 Z M85 0 L493 0 C515 0 527 12 527 35 L527 102 C527 124 515 136 493 136 L245 136 L245 144 L508 539 C518 553 522 565 522 582 L522 635 C522 658 510 670 488 670 L90 670 C68 670 56 658 56 635 L56 568 C56 546 68 534 90 534 L328 534 L328 526 L65 131 C55 117 51 105 51 88 L51 35 C51 12 63 0 85 0 L85 0 Z " />
<glyph glyph-name="zdotaccent" unicode="&#x17c;" horiz-adv-x="492" d="M247 554 C295 554 326 586 326 634 C326 682 295 714 247 714 C199 714 167 682 167 634 C167 586 199 554 247 554 L247 554 Z M73 0 L419 0 C439 0 450 11 450 31 L450 96 C450 116 439 127 419 127 L236 127 L236 135 L430 379 C440 391 445 402 445 417 L445 469 C445 489 434 500 414 500 L78 500 C58 500 47 489 47 469 L47 404 C47 384 58 373 78 373 L251 373 L251 365 L56 121 C46 109 42 98 42 83 L42 31 C42 11 53 0 73 0 L73 0 Z " />
<glyph glyph-name="Zcaron" unicode="&#x17d;" horiz-adv-x="578" d="M240 721 L339 721 C355 721 368 727 377 740 L449 836 C463 856 455 874 429 874 L379 874 C363 874 352 869 341 856 L293 804 L286 804 L238 856 C228 869 216 874 200 874 L150 874 C124 874 116 856 130 836 L203 740 C212 727 224 721 240 721 L240 721 Z M85 0 L493 0 C515 0 527 12 527 35 L527 102 C527 124 515 136 493 136 L245 136 L245 144 L508 539 C518 553 522 565 522 582 L522 635 C522 658 510 670 488 670 L90 670 C68 670 56 658 56 635 L56 568 C56 546 68 534 90 534 L328 534 L328 526 L65 131 C55 117 51 105 51 88 L51 35 C51 12 63 0 85 0 L85 0 Z " />
<glyph glyph-name="zcaron" unicode="&#x17e;" horiz-adv-x="492" d="M196 551 L295 551 C311 551 324 557 333 570 L405 666 C419 686 411 704 385 704 L335 704 C319 704 308 699 297 686 L249 634 L242 634 L194 686 C184 699 172 704 156 704 L106 704 C80 704 72 686 86 666 L159 570 C168 557 180 551 196 551 L196 551 Z M73 0 L419 0 C439 0 450 11 450 31 L450 96 C450 116 439 127 419 127 L236 127 L236 135 L430 379 C440 391 445 402 445 417 L445 469 C445 489 434 500 414 500 L78 500 C58 500 47 489 47 469 L47 404 C47 384 58 373 78 373 L251 373 L251 365 L56 121 C46 109 42 98 42 83 L42 31 C42 11 53 0 73 0 L73 0 Z " />
<glyph glyph-name="florin" unicode="&#x192;" horiz-adv-x="525" d="M432 670 L371 670 C280 670 229 614 219 528 L202 386 L124 386 C104 386 93 375 93 355 L93 292 C93 272 104 261 124 261 L187 261 L154 -14 C149 -45 134 -64 103 -64 L80 -64 C60 -64 49 -75 49 -95 L49 -149 C49 -169 60 -180 80 -180 L141 -180 C233 -180 283 -124 294 -38 L330 261 L414 261 C434 261 445 272 445 292 L445 355 C445 375 434 386 414 386 L345 386 L359 504 C363 535 379 554 410 554 L432 554 C452 554 463 565 463 585 L463 639 C463 659 452 670 432 670 L432 670 Z " />
<glyph glyph-name="uni01C4" unicode="&#x1c4;" horiz-adv-x="1217" d="M841 740 C851 727 862 721 878 721 L978 721 C994 721 1006 727 1016 740 L1088 836 C1102 856 1093 874 1068 874 L1018 874 C1002 874 990 869 980 856 L932 804 L924 804 L876 856 C866 869 854 874 838 874 L788 874 C763 874 755 856 769 836 L841 740 Z M331 670 L111 670 C89 670 76 658 76 635 L76 35 C76 12 89 0 111 0 L331 0 C491 0 597 98 597 248 L597 422 C597 572 491 670 331 670 L331 670 Z M1132 136 L884 136 L884 144 L1147 539 C1157 553 1161 565 1161 582 L1161 635 C1161 658 1149 670 1127 670 L729 670 C707 670 695 658 695 635 L695 568 C695 546 707 534 729 534 L967 534 L967 526 L704 131 C694 117 690 105 690 88 L690 35 C690 12 702 0 724 0 L1132 0 C1154 0 1166 12 1166 35 L1166 102 C1166 124 1154 136 1132 136 L1132 136 Z M449 252 C449 180 403 136 327 136 L224 136 L224 534 L327 534 C403 534 449 490 449 418 L449 252 Z " />
<glyph glyph-name="uni01C5" unicode="&#x1c5;" horiz-adv-x="1142" d="M810 570 C819 557 831 551 847 551 L947 551 C963 551 975 557 984 570 L1056 666 C1070 686 1062 704 1036 704 L987 704 C971 704 959 699 949 686 L901 634 L893 634 L845 686 C835 699 823 704 807 704 L757 704 C732 704 723 686 738 666 L810 570 Z M331 670 L111 670 C89 670 76 658 76 635 L76 35 C76 12 89 0 111 0 L331 0 C491 0 597 98 597 248 L597 422 C597 572 491 670 331 670 L331 670 Z M449 252 C449 180 403 136 327 136 L224 136 L224 534 L327 534 C403 534 449 490 449 418 L449 252 Z M1070 127 L887 127 L887 135 L1081 379 C1091 391 1096 402 1096 417 L1096 469 C1096 489 1085 500 1065 500 L729 500 C709 500 698 489 698 469 L698 404 C698 384 709 373 729 373 L902 373 L902 365 L707 121 C697 109 693 98 693 83 L693 31 C693 11 704 0 724 0 L1070 0 C1090 0 1101 11 1101 31 L1101 96 C1101 116 1090 127 1070 127 L1070 127 Z " />
<glyph glyph-name="uni01C6" unicode="&#x1c6;" horiz-adv-x="1039" d="M706 570 C715 557 727 551 743 551 L843 551 C859 551 871 557 880 570 L952 666 C966 686 958 704 932 704 L883 704 C867 704 855 699 845 686 L797 634 L789 634 L741 686 C731 699 719 704 703 704 L653 704 C628 704 619 686 634 666 L706 570 Z M454 700 L376 700 C356 700 345 689 345 669 L345 430 L337 430 C318 478 269 512 204 512 C111 512 46 447 46 349 L46 151 C46 53 111 -12 204 -12 C269 -12 318 22 337 70 L345 70 L345 31 C345 11 356 0 376 0 L454 0 C474 0 485 11 485 31 L485 669 C485 689 474 700 454 700 L454 700 Z M966 127 L783 127 L783 135 L977 379 C987 391 992 402 992 417 L992 469 C992 489 981 500 961 500 L625 500 C605 500 594 489 594 469 L594 404 C594 384 605 373 625 373 L798 373 L798 365 L603 121 C593 109 589 98 589 83 L589 31 C589 11 600 0 620 0 L966 0 C986 0 997 11 997 31 L997 96 C997 116 986 127 966 127 L966 127 Z M264 119 C217 119 186 148 186 193 L186 307 C186 352 217 381 264 381 C313 381 345 349 345 308 L345 192 C345 151 313 119 264 119 L264 119 Z " />
<glyph glyph-name="uni01C7" unicode="&#x1c7;" horiz-adv-x="1097" d="M454 136 L224 136 L224 635 C224 658 211 670 189 670 L111 670 C89 670 76 658 76 635 L76 35 C76 12 89 0 111 0 L454 0 C476 0 489 12 489 35 L489 102 C489 124 476 136 454 136 L454 136 Z M996 670 L918 670 C895 670 883 658 883 635 L883 202 C883 155 849 124 798 124 C747 124 713 155 713 202 L713 213 C713 235 701 248 678 248 L600 248 C578 248 565 235 565 213 L565 199 C565 72 658 -12 798 -12 C938 -12 1030 72 1030 199 L1030 635 C1030 658 1018 670 996 670 L996 670 Z " />
<glyph glyph-name="uni01C8" unicode="&#x1c8;" horiz-adv-x="792" d="M662 564 C712 564 745 596 745 645 C745 693 712 725 662 725 C611 725 578 693 578 644 C578 597 610 564 662 564 L662 564 Z M489 102 C489 124 476 136 454 136 L224 136 L224 635 C224 658 211 670 189 670 L111 670 C89 670 76 658 76 635 L76 35 C76 12 89 0 111 0 L454 0 C476 0 489 12 489 35 L489 102 Z M701 500 L623 500 C603 500 592 489 592 469 L592 -13 C592 -45 573 -64 541 -64 L519 -64 C499 -64 488 -75 488 -95 L488 -149 C488 -169 499 -180 519 -180 L580 -180 C672 -180 732 -124 732 -38 L732 469 C732 489 721 500 701 500 L701 500 Z " />
<glyph glyph-name="uni01C9" unicode="&#x1c9;" horiz-adv-x="573" d="M443 564 C493 564 526 596 526 645 C526 693 493 725 443 725 C392 725 359 693 359 644 C359 597 391 564 443 564 L443 564 Z M207 0 L244 0 C264 0 275 11 275 31 L275 109 C275 121 268 129 256 129 L245 129 C215 129 197 147 197 177 L197 669 C197 689 186 700 166 700 L88 700 C68 700 57 689 57 669 L57 140 C57 56 117 0 207 0 L207 0 Z M300 -180 L361 -180 C453 -180 513 -124 513 -38 L513 469 C513 489 502 500 482 500 L404 500 C384 500 373 489 373 469 L373 -13 C373 -45 354 -64 322 -64 L300 -64 C280 -64 269 -75 269 -95 L269 -149 C269 -169 280 -180 300 -180 L300 -180 Z " />
<glyph glyph-name="uni01CA" unicode="&#x1ca;" horiz-adv-x="1261" d="M107 0 L193 0 C213 0 224 11 224 31 L224 377 L217 424 L229 424 L425 24 C432 8 444 0 462 0 L578 0 C598 0 609 11 609 31 L609 639 C609 659 598 670 578 670 L492 670 C472 670 461 659 461 639 L461 293 L468 246 L457 246 L260 646 C253 662 241 670 223 670 L107 670 C87 670 76 659 76 639 L76 31 C76 11 87 0 107 0 L107 0 Z M961 -12 C1101 -12 1193 72 1193 199 L1193 635 C1193 658 1181 670 1159 670 L1081 670 C1058 670 1046 658 1046 635 L1046 202 C1046 155 1012 124 961 124 C910 124 876 155 876 202 L876 213 C876 235 864 248 841 248 L763 248 C741 248 728 235 728 213 L728 199 C728 72 821 -12 961 -12 L961 -12 Z " />
<glyph glyph-name="uni01CB" unicode="&#x1cb;" horiz-adv-x="951" d="M820 564 C870 564 903 596 903 645 C903 693 870 725 820 725 C769 725 736 693 736 644 C736 597 768 564 820 564 L820 564 Z M107 0 L193 0 C213 0 224 11 224 31 L224 377 L217 424 L229 424 L425 24 C432 8 444 0 462 0 L578 0 C598 0 609 11 609 31 L609 639 C609 659 598 670 578 670 L492 670 C472 670 461 659 461 639 L461 293 L468 246 L457 246 L260 646 C253 662 241 670 223 670 L107 670 C87 670 76 659 76 639 L76 31 C76 11 87 0 107 0 L107 0 Z M677 -180 L738 -180 C830 -180 890 -124 890 -38 L890 469 C890 489 879 500 859 500 L781 500 C761 500 750 489 750 469 L750 -13 C750 -45 731 -64 699 -64 L677 -64 C657 -64 646 -75 646 -95 L646 -149 C646 -169 657 -180 677 -180 L677 -180 Z " />
<glyph glyph-name="uni01CC" unicode="&#x1cc;" horiz-adv-x="816" d="M685 564 C735 564 768 596 768 645 C768 693 735 725 685 725 C634 725 601 693 601 644 C601 597 633 564 685 564 L685 564 Z M345 512 C280 512 230 478 210 430 L202 430 L202 469 C202 489 191 500 171 500 L93 500 C73 500 62 489 62 469 L62 31 C62 11 73 0 93 0 L171 0 C191 0 202 11 202 31 L202 312 C202 350 234 381 282 381 C326 381 355 353 355 311 L355 31 C355 11 366 0 386 0 L464 0 C484 0 495 11 495 31 L495 365 C495 453 434 512 345 512 L345 512 Z M724 500 L646 500 C626 500 615 489 615 469 L615 -13 C615 -45 596 -64 564 -64 L542 -64 C522 -64 511 -75 511 -95 L511 -149 C511 -169 522 -180 542 -180 L603 -180 C695 -180 755 -124 755 -38 L755 469 C755 489 744 500 724 500 L724 500 Z " />
<glyph glyph-name="uni01CD" unicode="&#x1cd;" horiz-adv-x="649" d="M238 740 C247 727 259 721 275 721 L374 721 C390 721 403 727 412 740 L484 836 C498 856 490 874 464 874 L414 874 C398 874 387 869 376 856 L328 804 L321 804 L273 856 C263 869 251 874 235 874 L185 874 C159 874 151 856 165 836 L238 740 Z M615 39 L437 640 C431 661 419 670 398 670 L251 670 C230 670 218 661 213 640 L34 39 C28 14 38 0 63 0 L154 0 C172 0 183 10 187 28 L213 127 L431 127 L457 28 C461 10 472 0 490 0 L586 0 C612 0 622 14 615 39 L615 39 Z M248 259 L317 522 L326 522 L396 259 L248 259 Z " />
<glyph glyph-name="uni01CE" unicode="&#x1ce;" horiz-adv-x="525" d="M176 570 C185 557 197 551 213 551 L312 551 C328 551 341 557 350 570 L422 666 C436 686 428 704 402 704 L352 704 C336 704 325 699 314 686 L266 634 L259 634 L211 686 C201 699 189 704 173 704 L123 704 C97 704 89 686 103 666 L176 570 Z M260 512 C139 512 50 453 50 366 C50 346 61 335 81 335 L158 335 C176 335 184 345 188 359 C197 387 221 399 257 399 C303 399 332 373 332 333 L332 287 L196 287 C97 287 31 227 31 136 C31 46 96 -12 193 -12 C259 -12 308 17 328 63 L337 63 L337 31 C337 11 348 0 368 0 L441 0 C461 0 472 11 472 31 L472 343 C472 445 389 512 260 512 L260 512 Z M247 94 C201 94 172 115 172 146 C172 175 195 195 230 195 L332 195 L332 152 C332 117 297 94 247 94 L247 94 Z " />
<glyph glyph-name="Gcaron" unicode="&#x1e6;" horiz-adv-x="639" d="M233 740 C242 727 254 721 270 721 L369 721 C385 721 398 727 407 740 L479 836 C493 856 485 874 459 874 L409 874 C393 874 382 869 371 856 L323 804 L316 804 L268 856 C258 869 246 874 230 874 L180 874 C154 874 146 856 160 836 L233 740 Z M550 362 L366 362 C344 362 332 349 332 327 L332 280 C332 258 344 245 366 245 L437 245 L437 220 C437 158 390 117 320 117 C249 117 202 161 202 228 L202 435 C202 502 249 546 320 546 C381 546 423 515 433 460 C439 444 447 434 467 434 L553 434 C573 434 585 446 582 466 C569 603 471 682 320 682 C159 682 54 585 54 438 L54 232 C54 85 159 -12 320 -12 C479 -12 585 82 585 225 L585 327 C585 349 572 362 550 362 L550 362 Z " />
<glyph glyph-name="gcaron" unicode="&#x1e7;" horiz-adv-x="544" d="M189 570 C198 557 210 551 226 551 L325 551 C341 551 354 557 363 570 L435 666 C449 686 441 704 415 704 L365 704 C349 704 338 699 327 686 L279 634 L272 634 L224 686 C214 699 202 704 186 704 L136 704 C110 704 102 686 116 666 L189 570 Z M454 500 L376 500 C356 500 345 489 345 469 L345 430 L337 430 C318 478 269 512 204 512 C111 512 46 447 46 349 L46 178 C46 80 111 15 204 15 C266 15 318 47 337 94 L345 94 L345 -12 C345 -56 315 -86 267 -86 C232 -86 202 -72 194 -40 C188 -30 179 -23 165 -23 L84 -23 C68 -23 55 -35 58 -56 C72 -142 152 -192 269 -192 C402 -192 485 -121 485 -19 L485 469 C485 489 474 500 454 500 L454 500 Z M264 146 C217 146 186 175 186 220 L186 307 C186 352 217 381 264 381 C313 381 345 349 345 308 L345 219 C345 179 313 146 264 146 L264 146 Z " />
<glyph glyph-name="uni01EA" unicode="&#x1ea;" horiz-adv-x="649" d="M325 682 C161 682 54 583 54 433 L54 237 C54 102 141 8 278 -9 C242 -31 220 -70 220 -113 C220 -176 270 -218 345 -218 C371 -218 395 -215 410 -209 C421 -205 425 -196 425 -183 L425 -137 C425 -119 418 -114 404 -118 C399 -119 393 -120 387 -120 C363 -120 347 -104 347 -80 C347 -49 368 -19 402 -4 C402 -4 403 -4 403 -3 C521 24 595 113 595 237 L595 433 C595 583 487 682 325 682 L325 682 Z M447 240 C447 170 398 124 325 124 C251 124 202 170 202 240 L202 430 C202 500 251 546 325 546 C398 546 447 500 447 430 L447 240 Z " />
<glyph glyph-name="uni01EB" unicode="&#x1eb;" horiz-adv-x="526" d="M263 512 C131 512 43 432 43 310 L43 190 C43 82 112 7 219 -9 C190 -31 173 -66 173 -104 C173 -167 223 -209 298 -209 C324 -209 348 -206 363 -200 C374 -196 378 -187 378 -174 L378 -128 C378 -110 371 -105 357 -109 C352 -110 346 -111 340 -111 C316 -111 300 -95 300 -71 C300 -43 317 -17 344 0 C430 26 482 95 482 190 L482 310 C482 432 395 512 263 512 L263 512 Z M183 191 L183 309 C183 354 215 383 263 383 C311 383 342 354 342 309 L342 191 C342 146 311 117 263 117 C215 117 183 146 183 191 L183 191 Z " />
<glyph glyph-name="uni01F1" unicode="&#x1f1;" horiz-adv-x="1217" d="M331 670 L111 670 C89 670 76 658 76 635 L76 35 C76 12 89 0 111 0 L331 0 C491 0 597 98 597 248 L597 422 C597 572 491 670 331 670 L331 670 Z M1132 136 L884 136 L884 144 L1147 539 C1157 553 1161 565 1161 582 L1161 635 C1161 658 1149 670 1127 670 L729 670 C707 670 695 658 695 635 L695 568 C695 546 707 534 729 534 L967 534 L967 526 L704 131 C694 117 690 105 690 88 L690 35 C690 12 702 0 724 0 L1132 0 C1154 0 1166 12 1166 35 L1166 102 C1166 124 1154 136 1132 136 L1132 136 Z M449 252 C449 180 403 136 327 136 L224 136 L224 534 L327 534 C403 534 449 490 449 418 L449 252 Z " />
<glyph glyph-name="uni01F2" unicode="&#x1f2;" horiz-adv-x="1142" d="M331 670 L111 670 C89 670 76 658 76 635 L76 35 C76 12 89 0 111 0 L331 0 C491 0 597 98 597 248 L597 422 C597 572 491 670 331 670 L331 670 Z M449 252 C449 180 403 136 327 136 L224 136 L224 534 L327 534 C403 534 449 490 449 418 L449 252 Z M1070 127 L887 127 L887 135 L1081 379 C1091 391 1096 402 1096 417 L1096 469 C1096 489 1085 500 1065 500 L729 500 C709 500 698 489 698 469 L698 404 C698 384 709 373 729 373 L902 373 L902 365 L707 121 C697 109 693 98 693 83 L693 31 C693 11 704 0 724 0 L1070 0 C1090 0 1101 11 1101 31 L1101 96 C1101 116 1090 127 1070 127 L1070 127 Z " />
<glyph glyph-name="uni01F3" unicode="&#x1f3;" horiz-adv-x="1039" d="M454 700 L376 700 C356 700 345 689 345 669 L345 430 L337 430 C318 478 269 512 204 512 C111 512 46 447 46 349 L46 151 C46 53 111 -12 204 -12 C269 -12 318 22 337 70 L345 70 L345 31 C345 11 356 0 376 0 L454 0 C474 0 485 11 485 31 L485 669 C485 689 474 700 454 700 L454 700 Z M966 127 L783 127 L783 135 L977 379 C987 391 992 402 992 417 L992 469 C992 489 981 500 961 500 L625 500 C605 500 594 489 594 469 L594 404 C594 384 605 373 625 373 L798 373 L798 365 L603 121 C593 109 589 98 589 83 L589 31 C589 11 600 0 620 0 L966 0 C986 0 997 11 997 31 L997 96 C997 116 986 127 966 127 L966 127 Z M264 119 C217 119 186 148 186 193 L186 307 C186 352 217 381 264 381 C313 381 345 349 345 308 L345 192 C345 151 313 119 264 119 L264 119 Z " />
<glyph glyph-name="uni01F4" unicode="&#x1f4;" horiz-adv-x="639" d="M290 721 L337 721 C352 721 364 726 374 738 L459 836 C478 856 469 874 442 874 L356 874 C339 874 327 867 319 851 L268 757 C257 737 266 721 290 721 L290 721 Z M550 362 L366 362 C344 362 332 349 332 327 L332 280 C332 258 344 245 366 245 L437 245 L437 220 C437 158 390 117 320 117 C249 117 202 161 202 228 L202 435 C202 502 249 546 320 546 C381 546 423 515 433 460 C439 444 447 434 467 434 L553 434 C573 434 585 446 582 466 C569 603 471 682 320 682 C159 682 54 585 54 438 L54 232 C54 85 159 -12 320 -12 C479 -12 585 82 585 225 L585 327 C585 349 572 362 550 362 L550 362 Z " />
<glyph glyph-name="uni01F5" unicode="&#x1f5;" horiz-adv-x="544" d="M247 551 L294 551 C309 551 321 556 331 568 L416 666 C435 686 426 704 399 704 L313 704 C296 704 284 697 276 681 L225 587 C214 567 223 551 247 551 L247 551 Z M454 500 L376 500 C356 500 345 489 345 469 L345 430 L337 430 C318 478 269 512 204 512 C111 512 46 447 46 349 L46 178 C46 80 111 15 204 15 C266 15 318 47 337 94 L345 94 L345 -12 C345 -56 315 -86 267 -86 C232 -86 202 -72 194 -40 C188 -30 179 -23 165 -23 L84 -23 C68 -23 55 -35 58 -56 C72 -142 152 -192 269 -192 C402 -192 485 -121 485 -19 L485 469 C485 489 474 500 454 500 L454 500 Z M264 146 C217 146 186 175 186 220 L186 307 C186 352 217 381 264 381 C313 381 345 349 345 308 L345 219 C345 179 313 146 264 146 L264 146 Z " />
<glyph glyph-name="AEacute" unicode="&#x1fc;" horiz-adv-x="891" d="M459 721 L506 721 C521 721 533 726 543 738 L628 836 C647 856 638 874 611 874 L525 874 C508 874 496 867 488 851 L437 757 C426 737 435 721 459 721 L459 721 Z M799 534 C821 534 833 546 833 568 L833 635 C833 658 821 670 799 670 L327 670 C306 670 293 662 285 642 L6 39 C-4 14 5 0 32 0 L125 0 C146 0 158 8 166 28 L210 127 L401 127 L401 35 C401 12 413 0 435 0 L799 0 C821 0 833 12 833 35 L833 102 C833 124 821 136 799 136 L548 136 L548 273 L760 273 C782 273 795 286 795 308 L795 368 C795 390 782 403 760 403 L548 403 L548 534 L799 534 Z M268 259 L389 534 L401 534 L401 259 L268 259 Z " />
<glyph glyph-name="aeacute" unicode="&#x1fd;" horiz-adv-x="815" d="M372 551 L419 551 C434 551 446 556 456 568 L541 666 C560 686 551 704 524 704 L438 704 C421 704 409 697 401 681 L350 587 C339 567 348 551 372 551 L372 551 Z M740 202 C760 202 771 213 771 233 L771 314 C771 433 687 512 563 512 C492 512 431 485 406 445 L399 445 C373 485 314 512 241 512 C134 512 51 463 51 366 C51 346 62 335 82 335 L160 335 C176 335 184 343 189 360 C196 384 217 399 258 399 C303 399 332 373 332 333 L332 291 L198 291 C97 291 31 231 31 141 C31 49 105 -12 221 -12 C298 -12 370 15 399 55 L406 55 C432 15 496 -12 572 -12 C679 -12 754 35 769 124 C772 145 759 156 741 156 L657 156 C641 156 634 148 628 136 C616 113 592 101 557 101 C505 101 472 131 472 176 L472 202 L740 202 Z M552 399 C600 399 631 370 631 325 L631 297 L472 297 L472 325 C472 370 505 399 552 399 L552 399 Z M248 94 C202 94 172 116 172 148 C172 178 196 197 231 197 L332 197 L332 153 C332 118 298 94 248 94 L248 94 Z " />
<glyph glyph-name="Oslashacute" unicode="&#x1fe;" horiz-adv-x="649" d="M292 721 L339 721 C354 721 366 726 376 738 L461 836 C480 856 471 874 444 874 L358 874 C341 874 329 867 321 851 L270 757 C259 737 268 721 292 721 L292 721 Z M529 606 L564 666 C576 686 567 700 548 700 L518 700 C503 700 492 694 485 680 L468 651 C427 671 379 682 325 682 C161 682 54 583 54 433 L54 237 C54 166 78 107 120 64 L84 4 C73 -16 82 -30 101 -30 L130 -30 C145 -30 156 -24 164 -10 L181 19 C222 -1 270 -12 325 -12 C487 -12 595 87 595 237 L595 433 C595 504 571 563 529 606 L529 606 Z M202 240 L202 430 C202 500 251 546 325 546 C352 546 376 540 395 528 L206 209 C203 219 202 229 202 240 L202 240 Z M447 240 C447 170 398 124 325 124 C297 124 273 130 254 142 L443 462 C446 452 447 441 447 430 L447 240 Z " />
<glyph glyph-name="oslashacute" unicode="&#x1ff;" horiz-adv-x="526" d="M242 551 L289 551 C304 551 316 556 326 568 L411 666 C430 686 421 704 394 704 L308 704 C291 704 279 697 271 681 L220 587 C209 567 218 551 242 551 L242 551 Z M426 453 L453 495 C466 515 457 530 437 530 L415 530 C400 530 389 525 381 511 L368 491 C338 505 303 512 263 512 C131 512 43 432 43 310 L43 190 C43 131 63 82 100 47 L73 5 C60 -15 69 -30 89 -30 L111 -30 C126 -30 136 -24 145 -11 L157 9 C188 -5 223 -12 263 -12 C395 -12 482 68 482 190 L482 310 C482 369 462 418 426 453 L426 453 Z M183 309 C183 354 215 383 263 383 C279 383 294 380 306 373 L185 172 C184 178 183 184 183 191 L183 309 Z M342 191 C342 146 311 117 263 117 C247 117 232 120 220 127 L340 327 C341 322 342 315 342 309 L342 191 Z " />
<glyph glyph-name="uni0200" unicode="&#x200;" horiz-adv-x="649" d="M175 743 C184 727 195 721 212 721 L259 721 C282 721 293 736 285 757 L246 849 C239 866 228 874 210 874 L141 874 C117 874 107 857 119 837 L175 743 Z M374 743 C382 727 394 721 411 721 L458 721 C481 721 490 736 483 757 L445 849 C439 866 427 874 409 874 L340 874 C316 874 307 857 318 837 L374 743 Z M615 39 L437 640 C431 661 419 670 398 670 L251 670 C230 670 218 661 213 640 L34 39 C28 14 38 0 63 0 L154 0 C172 0 183 10 187 28 L213 127 L431 127 L457 28 C461 10 472 0 490 0 L586 0 C612 0 622 14 615 39 L615 39 Z M248 259 L317 522 L326 522 L396 259 L248 259 Z " />
<glyph glyph-name="uni0201" unicode="&#x201;" horiz-adv-x="525" d="M113 573 C122 557 133 551 150 551 L197 551 C220 551 231 566 223 587 L184 679 C177 696 166 704 148 704 L79 704 C55 704 45 687 57 667 L113 573 Z M312 573 C320 557 332 551 349 551 L396 551 C419 551 428 566 421 587 L383 679 C377 696 365 704 347 704 L278 704 C254 704 245 687 256 667 L312 573 Z M260 512 C139 512 50 453 50 366 C50 346 61 335 81 335 L158 335 C176 335 184 345 188 359 C197 387 221 399 257 399 C303 399 332 373 332 333 L332 287 L196 287 C97 287 31 227 31 136 C31 46 96 -12 193 -12 C259 -12 308 17 328 63 L337 63 L337 31 C337 11 348 0 368 0 L441 0 C461 0 472 11 472 31 L472 343 C472 445 389 512 260 512 L260 512 Z M247 94 C201 94 172 115 172 146 C172 175 195 195 230 195 L332 195 L332 152 C332 117 297 94 247 94 L247 94 Z " />
<glyph glyph-name="uni0202" unicode="&#x202;" horiz-adv-x="649" d="M195 721 L249 721 C264 721 270 729 273 740 C277 767 296 780 325 780 C354 780 372 766 375 740 C378 729 385 721 399 721 L453 721 C473 721 486 733 483 755 C471 835 412 880 325 880 C236 880 177 834 165 754 C162 733 175 721 195 721 L195 721 Z M615 39 L437 640 C431 661 419 670 398 670 L251 670 C230 670 218 661 213 640 L34 39 C28 14 38 0 63 0 L154 0 C172 0 183 10 187 28 L213 127 L431 127 L457 28 C461 10 472 0 490 0 L586 0 C612 0 622 14 615 39 L615 39 Z M248 259 L317 522 L326 522 L396 259 L248 259 Z " />
<glyph glyph-name="uni0203" unicode="&#x203;" horiz-adv-x="525" d="M133 551 L187 551 C202 551 208 559 211 570 C215 597 234 610 263 610 C292 610 310 596 313 570 C316 559 323 551 337 551 L391 551 C411 551 424 563 421 585 C409 665 350 710 263 710 C174 710 115 664 103 584 C100 563 113 551 133 551 L133 551 Z M260 512 C139 512 50 453 50 366 C50 346 61 335 81 335 L158 335 C176 335 184 345 188 359 C197 387 221 399 257 399 C303 399 332 373 332 333 L332 287 L196 287 C97 287 31 227 31 136 C31 46 96 -12 193 -12 C259 -12 308 17 328 63 L337 63 L337 31 C337 11 348 0 368 0 L441 0 C461 0 472 11 472 31 L472 343 C472 445 389 512 260 512 L260 512 Z M247 94 C201 94 172 115 172 146 C172 175 195 195 230 195 L332 195 L332 152 C332 117 297 94 247 94 L247 94 Z " />
<glyph glyph-name="uni0204" unicode="&#x204;" horiz-adv-x="562" d="M143 743 C152 727 163 721 180 721 L227 721 C250 721 261 736 253 757 L214 849 C207 866 196 874 178 874 L109 874 C85 874 75 857 87 837 L143 743 Z M342 743 C350 727 362 721 379 721 L426 721 C449 721 458 736 451 757 L413 849 C407 866 395 874 377 874 L308 874 C284 874 275 857 286 837 L342 743 Z M475 535 C496 535 509 547 509 569 L509 636 C509 658 496 670 475 670 L110 670 C89 670 76 658 76 636 L76 34 C76 12 89 0 110 0 L475 0 C496 0 509 12 509 34 L509 101 C509 123 496 135 475 135 L224 135 L224 271 L436 271 C458 271 470 284 470 306 L470 370 C470 392 458 405 436 405 L224 405 L224 535 L475 535 Z " />
<glyph glyph-name="uni0205" unicode="&#x205;" horiz-adv-x="526" d="M113 573 C122 557 133 551 150 551 L197 551 C220 551 231 566 223 587 L184 679 C177 696 166 704 148 704 L79 704 C55 704 45 687 57 667 L113 573 Z M312 573 C320 557 332 551 349 551 L396 551 C419 551 428 566 421 587 L383 679 C377 696 365 704 347 704 L278 704 C254 704 245 687 256 667 L312 573 Z M451 204 C471 204 482 215 482 235 L482 308 C482 431 395 512 263 512 C130 512 43 432 43 310 L43 190 C43 68 131 -12 266 -12 C384 -12 466 41 479 126 C482 146 470 156 452 156 L368 156 C350 156 344 148 338 135 C327 113 301 101 266 101 C216 101 183 131 183 176 L183 204 L451 204 Z M263 399 C311 399 342 370 342 325 L342 300 L183 300 L183 325 C183 370 215 399 263 399 L263 399 Z " />
<glyph glyph-name="uni0206" unicode="&#x206;" horiz-adv-x="562" d="M163 721 L217 721 C232 721 238 729 241 740 C245 767 264 780 293 780 C322 780 340 766 343 740 C346 729 353 721 367 721 L421 721 C441 721 454 733 451 755 C439 835 380 880 293 880 C204 880 145 834 133 754 C130 733 143 721 163 721 L163 721 Z M475 535 C496 535 509 547 509 569 L509 636 C509 658 496 670 475 670 L110 670 C89 670 76 658 76 636 L76 34 C76 12 89 0 110 0 L475 0 C496 0 509 12 509 34 L509 101 C509 123 496 135 475 135 L224 135 L224 271 L436 271 C458 271 470 284 470 306 L470 370 C470 392 458 405 436 405 L224 405 L224 535 L475 535 Z " />
<glyph glyph-name="uni0207" unicode="&#x207;" horiz-adv-x="526" d="M133 551 L187 551 C202 551 208 559 211 570 C215 597 234 610 263 610 C292 610 310 596 313 570 C316 559 323 551 337 551 L391 551 C411 551 424 563 421 585 C409 665 350 710 263 710 C174 710 115 664 103 584 C100 563 113 551 133 551 L133 551 Z M451 204 C471 204 482 215 482 235 L482 308 C482 431 395 512 263 512 C130 512 43 432 43 310 L43 190 C43 68 131 -12 266 -12 C384 -12 466 41 479 126 C482 146 470 156 452 156 L368 156 C350 156 344 148 338 135 C327 113 301 101 266 101 C216 101 183 131 183 176 L183 204 L451 204 Z M263 399 C311 399 342 370 342 325 L342 300 L183 300 L183 325 C183 370 215 399 263 399 L263 399 Z " />
<glyph glyph-name="uni0208" unicode="&#x208;" horiz-adv-x="300" d="M38 721 L85 721 C108 721 119 736 111 757 L72 849 C65 866 54 874 36 874 L-33 874 C-57 874 -67 857 -55 837 L1 743 C10 727 21 721 38 721 L38 721 Z M237 721 L284 721 C307 721 316 736 309 757 L271 849 C265 866 253 874 235 874 L166 874 C142 874 133 857 144 837 L200 743 C208 727 220 721 237 721 L237 721 Z M111 0 L189 0 C211 0 224 12 224 35 L224 635 C224 658 211 670 189 670 L111 670 C89 670 76 658 76 635 L76 35 C76 12 89 0 111 0 L111 0 Z " />
<glyph glyph-name="uni0209" unicode="&#x209;" horiz-adv-x="264" d="M20 551 L67 551 C90 551 101 566 93 587 L54 679 C47 696 36 704 18 704 L-51 704 C-75 704 -85 687 -73 667 L-17 573 C-8 557 3 551 20 551 L20 551 Z M219 551 L266 551 C289 551 298 566 291 587 L253 679 C247 696 235 704 217 704 L148 704 C124 704 115 687 126 667 L182 573 C190 557 202 551 219 551 L219 551 Z M93 0 L171 0 C191 0 202 11 202 31 L202 469 C202 489 191 500 171 500 L93 500 C73 500 62 489 62 469 L62 31 C62 11 73 0 93 0 L93 0 Z " />
<glyph glyph-name="uni020A" unicode="&#x20a;" horiz-adv-x="300" d="M151 880 C62 880 3 834 -9 754 C-12 733 1 721 21 721 L75 721 C90 721 96 729 99 740 C103 767 122 780 151 780 C180 780 198 766 201 740 C204 729 211 721 225 721 L279 721 C299 721 312 733 309 755 C297 835 238 880 151 880 L151 880 Z M111 0 L189 0 C211 0 224 12 224 35 L224 635 C224 658 211 670 189 670 L111 670 C89 670 76 658 76 635 L76 35 C76 12 89 0 111 0 L111 0 Z " />
<glyph glyph-name="uni020B" unicode="&#x20b;" horiz-adv-x="264" d="M133 710 C44 710 -15 664 -27 584 C-30 563 -17 551 3 551 L57 551 C72 551 78 559 81 570 C85 597 104 610 133 610 C162 610 180 596 183 570 C186 559 193 551 207 551 L261 551 C281 551 294 563 291 585 C279 665 220 710 133 710 L133 710 Z M93 0 L171 0 C191 0 202 11 202 31 L202 469 C202 489 191 500 171 500 L93 500 C73 500 62 489 62 469 L62 31 C62 11 73 0 93 0 L93 0 Z " />
<glyph glyph-name="uni020C" unicode="&#x20c;" horiz-adv-x="649" d="M212 721 L259 721 C282 721 293 736 285 757 L246 849 C239 866 228 874 210 874 L141 874 C117 874 107 857 119 837 L175 743 C184 727 195 721 212 721 L212 721 Z M411 721 L458 721 C481 721 490 736 483 757 L445 849 C439 866 427 874 409 874 L340 874 C316 874 307 857 318 837 L374 743 C382 727 394 721 411 721 L411 721 Z M325 -12 C487 -12 595 87 595 237 L595 433 C595 583 487 682 325 682 C161 682 54 583 54 433 L54 237 C54 87 161 -12 325 -12 L325 -12 Z M325 124 C251 124 202 170 202 240 L202 430 C202 500 251 546 325 546 C398 546 447 500 447 430 L447 240 C447 170 398 124 325 124 L325 124 Z " />
<glyph glyph-name="uni020D" unicode="&#x20d;" horiz-adv-x="526" d="M150 551 L197 551 C220 551 231 566 223 587 L184 679 C177 696 166 704 148 704 L79 704 C55 704 45 687 57 667 L113 573 C122 557 133 551 150 551 L150 551 Z M349 551 L396 551 C419 551 428 566 421 587 L383 679 C377 696 365 704 347 704 L278 704 C254 704 245 687 256 667 L312 573 C320 557 332 551 349 551 L349 551 Z M263 -12 C395 -12 482 68 482 190 L482 310 C482 432 395 512 263 512 C131 512 43 432 43 310 L43 190 C43 68 131 -12 263 -12 L263 -12 Z M263 117 C215 117 183 146 183 191 L183 309 C183 354 215 383 263 383 C311 383 342 354 342 309 L342 191 C342 146 311 117 263 117 L263 117 Z " />
<glyph glyph-name="uni020E" unicode="&#x20e;" horiz-adv-x="649" d="M325 880 C236 880 177 834 165 754 C162 733 175 721 195 721 L249 721 C264 721 270 729 273 740 C277 767 296 780 325 780 C354 780 372 766 375 740 C378 729 385 721 399 721 L453 721 C473 721 486 733 483 755 C471 835 412 880 325 880 L325 880 Z M325 -12 C487 -12 595 87 595 237 L595 433 C595 583 487 682 325 682 C161 682 54 583 54 433 L54 237 C54 87 161 -12 325 -12 L325 -12 Z M325 124 C251 124 202 170 202 240 L202 430 C202 500 251 546 325 546 C398 546 447 500 447 430 L447 240 C447 170 398 124 325 124 L325 124 Z " />
<glyph glyph-name="uni020F" unicode="&#x20f;" horiz-adv-x="526" d="M263 710 C174 710 115 664 103 584 C100 563 113 551 133 551 L187 551 C202 551 208 559 211 570 C215 597 234 610 263 610 C292 610 310 596 313 570 C316 559 323 551 337 551 L391 551 C411 551 424 563 421 585 C409 665 350 710 263 710 L263 710 Z M263 -12 C395 -12 482 68 482 190 L482 310 C482 432 395 512 263 512 C131 512 43 432 43 310 L43 190 C43 68 131 -12 263 -12 L263 -12 Z M263 117 C215 117 183 146 183 191 L183 309 C183 354 215 383 263 383 C311 383 342 354 342 309 L342 191 C342 146 311 117 263 117 L263 117 Z " />
<glyph glyph-name="uni0210" unicode="&#x210;" horiz-adv-x="640" d="M175 743 C184 727 195 721 212 721 L259 721 C282 721 293 736 285 757 L246 849 C239 866 228 874 210 874 L141 874 C117 874 107 857 119 837 L175 743 Z M374 743 C382 727 394 721 411 721 L458 721 C481 721 490 736 483 757 L445 849 C439 866 427 874 409 874 L340 874 C316 874 307 857 318 837 L374 743 Z M477 233 C553 268 599 344 599 444 C599 582 509 670 373 670 L111 670 C89 670 76 658 76 635 L76 35 C76 12 89 0 111 0 L189 0 C211 0 224 12 224 35 L224 212 L330 212 L426 27 C436 6 448 0 469 0 L567 0 C594 0 603 16 589 41 L477 233 Z M224 534 L358 534 C416 534 451 498 451 441 C451 383 416 348 358 348 L224 348 L224 534 Z " />
<glyph glyph-name="uni0211" unicode="&#x211;" horiz-adv-x="382" d="M94 551 L141 551 C164 551 175 566 167 587 L128 679 C121 696 110 704 92 704 L23 704 C-1 704 -11 687 1 667 L57 573 C66 557 77 551 94 551 L94 551 Z M365 587 L327 679 C321 696 309 704 291 704 L222 704 C198 704 189 687 200 667 L256 573 C264 557 276 551 293 551 L340 551 C363 551 372 566 365 587 L365 587 Z M323 511 C264 507 228 476 210 416 L202 416 L202 469 C202 489 191 500 171 500 L93 500 C73 500 62 489 62 469 L62 31 C62 11 73 0 93 0 L171 0 C191 0 202 11 202 31 L202 255 C202 324 241 368 325 368 C344 368 356 380 356 399 L356 480 C356 500 344 513 323 511 L323 511 Z " />
<glyph glyph-name="uni0212" unicode="&#x212;" horiz-adv-x="640" d="M195 721 L249 721 C264 721 270 729 273 740 C277 767 296 780 325 780 C354 780 372 766 375 740 C378 729 385 721 399 721 L453 721 C473 721 486 733 483 755 C471 835 412 880 325 880 C236 880 177 834 165 754 C162 733 175 721 195 721 L195 721 Z M477 233 C553 268 599 344 599 444 C599 582 509 670 373 670 L111 670 C89 670 76 658 76 635 L76 35 C76 12 89 0 111 0 L189 0 C211 0 224 12 224 35 L224 212 L330 212 L426 27 C436 6 448 0 469 0 L567 0 C594 0 603 16 589 41 L477 233 Z M224 534 L358 534 C416 534 451 498 451 441 C451 383 416 348 358 348 L224 348 L224 534 Z " />
<glyph glyph-name="uni0213" unicode="&#x213;" horiz-adv-x="382" d="M365 585 C353 665 294 710 207 710 C118 710 59 664 47 584 C44 563 57 551 77 551 L131 551 C146 551 152 559 155 570 C159 597 178 610 207 610 C236 610 254 596 257 570 C260 559 267 551 281 551 L335 551 C355 551 368 563 365 585 L365 585 Z M323 511 C264 507 228 476 210 416 L202 416 L202 469 C202 489 191 500 171 500 L93 500 C73 500 62 489 62 469 L62 31 C62 11 73 0 93 0 L171 0 C191 0 202 11 202 31 L202 255 C202 324 241 368 325 368 C344 368 356 380 356 399 L356 480 C356 500 344 513 323 511 L323 511 Z " />
<glyph glyph-name="uni0214" unicode="&#x214;" horiz-adv-x="654" d="M215 721 L262 721 C285 721 296 736 288 757 L249 849 C242 866 231 874 213 874 L144 874 C120 874 110 857 122 837 L178 743 C187 727 198 721 215 721 L215 721 Z M414 721 L461 721 C484 721 493 736 486 757 L448 849 C442 866 430 874 412 874 L343 874 C319 874 310 857 321 837 L377 743 C385 727 397 721 414 721 L414 721 Z M328 -12 C484 -12 587 83 587 227 L587 635 C587 658 575 670 553 670 L475 670 C452 670 440 658 440 635 L440 230 C440 166 395 124 328 124 C259 124 215 166 215 230 L215 635 C215 658 202 670 180 670 L102 670 C79 670 67 658 67 635 L67 227 C67 83 170 -12 328 -12 L328 -12 Z " />
<glyph glyph-name="uni0215" unicode="&#x215;" horiz-adv-x="543" d="M119 573 C128 557 139 551 156 551 L203 551 C226 551 237 566 229 587 L190 679 C183 696 172 704 154 704 L85 704 C61 704 51 687 63 667 L119 573 Z M318 573 C326 557 338 551 355 551 L402 551 C425 551 434 566 427 587 L389 679 C383 696 371 704 353 704 L284 704 C260 704 251 687 262 667 L318 573 Z M450 500 L372 500 C352 500 341 489 341 469 L341 186 C341 148 311 119 266 119 C223 119 196 146 196 187 L196 469 C196 489 185 500 165 500 L87 500 C67 500 56 489 56 469 L56 134 C56 46 116 -12 203 -12 C267 -12 314 22 333 70 L341 70 L341 31 C341 11 352 0 372 0 L450 0 C470 0 481 11 481 31 L481 469 C481 489 470 500 450 500 L450 500 Z " />
<glyph glyph-name="uni0216" unicode="&#x216;" horiz-adv-x="654" d="M328 880 C239 880 180 834 168 754 C165 733 178 721 198 721 L252 721 C267 721 273 729 276 740 C280 767 299 780 328 780 C357 780 375 766 378 740 C381 729 388 721 402 721 L456 721 C476 721 489 733 486 755 C474 835 415 880 328 880 L328 880 Z M328 -12 C484 -12 587 83 587 227 L587 635 C587 658 575 670 553 670 L475 670 C452 670 440 658 440 635 L440 230 C440 166 395 124 328 124 C259 124 215 166 215 230 L215 635 C215 658 202 670 180 670 L102 670 C79 670 67 658 67 635 L67 227 C67 83 170 -12 328 -12 L328 -12 Z " />
<glyph glyph-name="uni0217" unicode="&#x217;" horiz-adv-x="543" d="M139 551 L193 551 C208 551 214 559 217 570 C221 597 240 610 269 610 C298 610 316 596 319 570 C322 559 329 551 343 551 L397 551 C417 551 430 563 427 585 C415 665 356 710 269 710 C180 710 121 664 109 584 C106 563 119 551 139 551 L139 551 Z M450 500 L372 500 C352 500 341 489 341 469 L341 186 C341 148 311 119 266 119 C223 119 196 146 196 187 L196 469 C196 489 185 500 165 500 L87 500 C67 500 56 489 56 469 L56 134 C56 46 116 -12 203 -12 C267 -12 314 22 333 70 L341 70 L341 31 C341 11 352 0 372 0 L450 0 C470 0 481 11 481 31 L481 469 C481 489 470 500 450 500 L450 500 Z " />
<glyph glyph-name="uni0218" unicode="&#x218;" horiz-adv-x="593" d="M299 -12 C453 -12 554 67 554 194 C554 441 202 377 202 498 C202 538 242 562 292 562 C339 562 373 543 385 504 C390 489 398 479 418 479 L506 479 C528 479 542 491 539 514 C523 622 433 682 294 682 C147 682 45 609 45 484 C45 242 398 299 398 177 C398 135 353 108 298 108 C245 108 209 129 198 175 C192 193 185 203 164 203 L75 203 C52 203 39 190 41 167 C58 53 153 -12 299 -12 L299 -12 Z M225 -234 L266 -234 C284 -234 295 -227 304 -212 L363 -88 C374 -67 365 -51 341 -51 L260 -51 C241 -51 229 -60 226 -78 L198 -200 C193 -221 203 -234 225 -234 L225 -234 Z " />
<glyph glyph-name="uni0219" unicode="&#x219;" horiz-adv-x="478" d="M241 -12 C368 -12 448 49 448 151 C448 340 176 285 176 366 C176 390 199 406 236 406 C264 406 282 396 296 375 C304 364 308 354 326 354 L408 354 C426 354 439 366 435 386 C420 467 345 512 234 512 C115 512 35 457 35 355 C35 168 306 219 306 137 C306 111 281 94 240 94 C207 94 183 106 173 132 C167 147 162 155 142 155 L60 155 C42 155 28 143 33 122 C48 37 126 -12 241 -12 L241 -12 Z M166 -234 L207 -234 C225 -234 236 -227 245 -212 L304 -88 C315 -67 306 -51 282 -51 L201 -51 C182 -51 170 -60 167 -78 L139 -200 C134 -221 144 -234 166 -234 L166 -234 Z " />
<glyph glyph-name="uni021A" unicode="&#x21a;" horiz-adv-x="569" d="M500 670 L68 670 C46 670 34 658 34 635 L34 568 C34 546 46 534 68 534 L211 534 L211 35 C211 12 223 0 246 0 L324 0 C346 0 359 12 359 35 L359 534 L500 534 C522 534 535 546 535 568 L535 635 C535 658 522 670 500 670 L500 670 Z M328 -51 L247 -51 C228 -51 216 -60 213 -78 L185 -200 C180 -221 190 -234 212 -234 L253 -234 C271 -234 282 -227 291 -212 L350 -88 C361 -67 352 -51 328 -51 L328 -51 Z " />
<glyph glyph-name="uni021B" unicode="&#x21b;" horiz-adv-x="399" d="M328 375 C348 375 359 386 359 406 L359 469 C359 489 348 500 328 500 L249 500 L249 599 C249 619 238 630 218 630 L149 630 C129 630 118 619 118 599 L118 539 C118 515 104 500 79 500 L54 500 C36 500 26 490 26 472 L26 406 C26 386 37 375 57 375 L109 375 L109 142 C109 56 169 0 261 0 L322 0 C342 0 353 11 353 31 L353 98 C353 118 342 129 322 129 L300 129 C268 129 249 148 249 179 L249 375 L328 375 Z M264 -51 L183 -51 C164 -51 152 -60 149 -78 L121 -200 C116 -221 126 -234 148 -234 L189 -234 C207 -234 218 -227 227 -212 L286 -88 C297 -67 288 -51 264 -51 L264 -51 Z " />
<glyph glyph-name="uni0232" unicode="&#x232;" horiz-adv-x="612" d="M188 739 L425 739 C445 739 456 750 456 770 L456 817 C456 837 445 848 425 848 L188 848 C168 848 157 837 157 817 L157 770 C157 750 168 739 188 739 L188 739 Z M267 0 L345 0 C368 0 380 12 380 35 L380 264 L576 629 C589 654 578 670 551 670 L461 670 C442 670 429 662 421 643 L314 424 L304 424 L196 643 C188 661 175 670 156 670 L61 670 C34 670 23 654 35 629 L232 263 L232 35 C232 12 245 0 267 0 L267 0 Z " />
<glyph glyph-name="uni0233" unicode="&#x233;" horiz-adv-x="528" d="M146 569 L383 569 C403 569 414 580 414 600 L414 647 C414 667 403 678 383 678 L146 678 C126 678 115 667 115 647 L115 600 C115 580 126 569 146 569 L146 569 Z M106 -180 L174 -180 C254 -180 304 -144 327 -71 L499 465 C506 486 495 500 475 500 L389 500 C371 500 359 491 356 472 L275 157 L260 157 L178 472 C175 491 163 500 145 500 L53 500 C34 500 23 486 29 465 L166 36 C171 21 180 15 195 15 L211 15 L195 -28 C187 -53 168 -64 139 -64 L106 -64 C86 -64 75 -75 75 -95 L75 -149 C75 -169 86 -180 106 -180 L106 -180 Z " />
<glyph glyph-name="uni0237" unicode="&#x237;" horiz-adv-x="264" d="M-8 -180 L53 -180 C145 -180 205 -124 205 -38 L205 469 C205 489 194 500 174 500 L96 500 C76 500 65 489 65 469 L65 -13 C65 -45 46 -64 14 -64 L-8 -64 C-28 -64 -39 -75 -39 -95 L-39 -149 C-39 -169 -28 -180 -8 -180 L-8 -180 Z " />
<glyph glyph-name="uni02BC" unicode="&#x2bc;" horiz-adv-x="127" d="M31 487 L72 487 C90 487 102 496 105 515 L121 637 C125 658 114 670 93 670 L31 670 C11 670 0 659 0 639 L0 518 C0 498 11 487 31 487 L31 487 Z " />
<glyph glyph-name="circumflex" unicode="&#x2c6;" horiz-adv-x="371" d="M46 551 L96 551 C112 551 124 556 134 569 L182 621 L189 621 L237 569 C248 556 259 551 275 551 L325 551 C351 551 359 568 345 589 L272 685 C263 698 251 704 235 704 L136 704 C120 704 107 698 98 685 L26 589 C12 568 20 551 46 551 L46 551 Z " />
<glyph glyph-name="caron" unicode="&#x2c7;" horiz-adv-x="371" d="M136 551 L235 551 C251 551 264 557 273 570 L345 666 C359 686 351 704 325 704 L275 704 C259 704 248 699 237 686 L189 634 L182 634 L134 686 C124 699 112 704 96 704 L46 704 C20 704 12 686 26 666 L99 570 C108 557 120 551 136 551 L136 551 Z " />
<glyph glyph-name="breve" unicode="&#x2d8;" horiz-adv-x="323" d="M162 543 C249 543 308 588 320 669 C323 690 310 703 290 703 L236 703 C222 703 215 695 212 683 C209 658 191 643 162 643 C133 643 115 656 110 683 C107 695 101 703 86 703 L32 703 C12 703 -1 691 2 670 C13 590 73 543 162 543 L162 543 Z " />
<glyph glyph-name="dotaccent" unicode="&#x2d9;" horiz-adv-x="159" d="M80 554 C128 554 159 586 159 634 C159 682 128 714 80 714 C32 714 0 682 0 634 C0 586 32 554 80 554 L80 554 Z " />
<glyph glyph-name="ring" unicode="&#x2da;" horiz-adv-x="236" d="M119 543 C189 543 236 589 236 656 C236 723 189 769 119 769 C47 769 0 723 0 656 C0 589 47 543 119 543 L119 543 Z M119 610 C91 610 73 630 73 656 C73 683 92 702 119 702 C145 702 163 683 163 656 C163 629 145 610 119 610 L119 610 Z " />
<glyph glyph-name="ogonek" unicode="&#x2db;" horiz-adv-x="205" d="M125 -218 C151 -218 175 -215 190 -209 C201 -205 205 -196 205 -183 L205 -137 C205 -119 198 -114 184 -118 C179 -119 173 -120 167 -120 C143 -120 127 -104 127 -80 C127 -49 148 -19 182 -4 C191 -1 195 5 195 13 L195 48 L73 18 L74 -1 C29 -20 0 -64 0 -113 C0 -176 50 -218 125 -218 L125 -218 Z " />
</font>
</svg>
