<?xml version="1.0" encoding="UTF-8"?>
<svg xmlns="http://www.w3.org/2000/svg" xmlns:xlink="http://www.w3.org/1999/xlink" version="1.2" >
<font id="Config Rounded Regular">
<font-face  font-family="Config Rounded" units-per-em="1000" ascent="770" descent="-230" font-style="normal" font-weight="400" font-stretch="normal" cap-height="670" x-height="500" underline-position="-93" underline-thickness="54" />
<missing-glyph  horiz-adv-x="500" d="M410 770 L93 770 L93 -230 L410 -230 L410 770 Z M333 703 L333 670 L267 670 L267 633 L333 633 L333 600 L167 600 L167 633 L233 633 L233 670 L168 670 L168 703 L333 703 Z M267 574 L267 504 L333 504 L333 470 L167 470 L167 574 L267 574 Z M233 540 L200 540 L200 504 L233 504 L233 540 Z M333 443 L333 410 L267 410 L267 340 L167 340 L167 373 L233 373 L233 410 L167 410 L167 443 L333 443 Z M333 383 L333 283 L167 283 L167 317 L300 317 L300 383 L333 383 Z M333 261 L333 148 L167 148 L167 261 L200 261 L200 181 L300 181 L300 228 L267 228 L267 205 L233 205 L233 261 L333 261 Z M333 88 L333 -25 L167 -25 L167 88 L333 88 Z M300 55 L200 55 L200 8 L300 8 L300 55 Z M333 -48 L333 -81 L301 -81 L231 -128 L333 -128 L333 -161 L167 -161 L167 -128 L237 -81 L167 -81 L167 -48 L333 -48 Z " />
<glyph glyph-name="NULL" d="" />
<glyph glyph-name="CR" unicode="&#xd;" horiz-adv-x="250" d="" />
<glyph glyph-name="space" unicode="&#x20;" horiz-adv-x="230" d="" />
<glyph glyph-name="exclam" unicode="&#x21;" horiz-adv-x="239" d="M105 180 L134 180 C146 180 152 186 153 198 L162 468 L162 651 C162 663 155 670 143 670 L97 670 C85 670 78 663 78 651 L78 468 L86 198 C87 186 93 180 105 180 L105 180 Z M120 -6 C153 -6 176 16 176 50 C176 84 153 106 120 106 C86 106 63 84 63 50 C63 16 86 -6 120 -6 L120 -6 Z " />
<glyph glyph-name="quotedbl" unicode="&#x22;" horiz-adv-x="387" d="M99 458 L129 458 C141 458 147 465 148 477 L157 639 L157 651 C157 663 150 670 138 670 L90 670 C78 670 71 663 71 651 L71 639 L80 477 C81 465 87 458 99 458 L99 458 Z M258 458 L288 458 C300 458 306 465 307 477 L316 639 L316 651 C316 663 309 670 297 670 L249 670 C237 670 230 663 230 651 L230 639 L239 477 C240 465 246 458 258 458 L258 458 Z " />
<glyph glyph-name="numbersign" unicode="&#x23;" horiz-adv-x="695" d="M615 484 L534 484 L559 650 C561 663 554 670 541 670 L511 670 C500 670 492 665 490 653 L465 484 L277 484 L302 650 C305 663 297 670 285 670 L254 670 C243 670 235 665 233 653 L208 484 L121 484 C109 484 102 477 102 465 L102 443 C102 431 109 424 121 424 L199 424 L173 246 L81 246 C69 246 62 239 62 227 L62 205 C62 193 69 186 81 186 L164 186 L139 20 C137 7 144 0 157 0 L187 0 C199 0 206 5 208 17 L233 186 L421 186 L396 20 C394 7 401 0 414 0 L444 0 C456 0 463 5 465 17 L490 186 L575 186 C587 186 594 193 594 205 L594 227 C594 239 587 246 575 246 L499 246 L525 424 L615 424 C627 424 634 431 634 443 L634 465 C634 477 627 484 615 484 L615 484 Z M430 246 L242 246 L268 424 L456 424 L430 246 Z " />
<glyph glyph-name="dollar" unicode="&#x24;" horiz-adv-x="551" d="M485 208 C485 422 157 329 157 479 C157 537 203 576 272 576 C339 576 384 543 390 481 C393 474 398 468 408 468 L452 468 C464 468 472 475 470 488 C463 575 405 628 314 640 L314 706 C314 718 307 725 295 725 L257 725 C245 725 238 718 238 706 L238 640 C138 627 75 562 75 471 C75 262 403 350 403 198 C403 136 353 94 277 94 C203 94 154 131 149 201 C147 209 142 215 131 215 L86 215 C74 215 66 208 68 195 C76 99 138 41 238 30 L238 -36 C238 -48 245 -55 257 -55 L295 -55 C307 -55 314 -48 314 -36 L314 30 C418 44 485 112 485 208 L485 208 Z " />
<glyph glyph-name="percent" unicode="&#x25;" horiz-adv-x="854" d="M211 308 C297 308 354 360 354 439 L354 551 C354 630 297 682 211 682 C126 682 67 630 67 551 L67 439 C67 360 125 308 211 308 L211 308 Z M216 0 L241 0 C254 0 264 6 271 17 L654 640 C664 657 658 670 638 670 L613 670 C600 670 590 664 583 653 L200 30 C190 13 196 0 216 0 L216 0 Z M211 371 C167 371 137 399 137 440 L137 550 C137 590 167 619 211 619 C256 619 286 591 286 550 L286 440 C286 399 256 371 211 371 L211 371 Z M644 -12 C729 -12 786 40 786 119 L786 231 C786 310 729 362 644 362 C558 362 499 310 499 231 L499 119 C499 40 558 -12 644 -12 L644 -12 Z M644 51 C599 51 568 79 568 120 L568 230 C568 270 599 299 644 299 C688 299 717 271 717 230 L717 120 C717 79 688 51 644 51 L644 51 Z " />
<glyph glyph-name="ampersand" unicode="&#x26;" horiz-adv-x="622" d="M597 39 L527 115 C545 149 554 187 554 230 L554 290 C554 302 547 309 535 309 L498 309 C486 309 479 302 479 290 L479 228 C479 209 476 191 472 175 L302 360 C393 404 445 469 445 540 C445 620 380 682 279 682 C176 682 111 617 111 538 C111 483 144 429 180 385 L180 377 C96 342 44 270 44 186 C44 73 141 -12 290 -12 C371 -12 438 13 484 58 L528 10 C534 2 541 0 551 0 L587 0 C599 0 606 6 606 16 C606 24 603 32 597 39 L597 39 Z M279 615 C334 615 370 581 370 539 C370 495 328 448 253 412 C223 446 188 488 188 533 C188 579 224 615 279 615 L279 615 Z M295 59 C194 59 130 117 130 191 C130 248 169 298 230 329 L434 111 C401 78 353 59 295 59 L295 59 Z " />
<glyph glyph-name="quotesingle" unicode="&#x27;" horiz-adv-x="228" d="M99 458 L129 458 C141 458 147 465 148 477 L157 639 L157 651 C157 663 150 670 138 670 L90 670 C78 670 71 663 71 651 L71 639 L80 477 C81 465 87 458 99 458 L99 458 Z " />
<glyph glyph-name="parenleft" unicode="&#x28;" horiz-adv-x="325" d="M235 -150 L269 -150 C284 -150 289 -141 281 -128 C207 -26 162 123 162 285 C162 446 206 596 281 698 C289 711 284 720 269 720 L235 720 C226 720 219 717 213 709 C127 605 78 451 78 285 C78 120 127 -34 213 -139 C219 -147 226 -150 235 -150 L235 -150 Z " />
<glyph glyph-name="parenright" unicode="&#x29;" horiz-adv-x="325" d="M55 -150 L89 -150 C99 -150 106 -147 112 -139 C197 -34 247 120 247 285 C247 451 197 605 112 709 C106 717 99 720 89 720 L55 720 C40 720 35 711 44 698 C117 597 163 449 163 285 C163 125 119 -25 44 -128 C35 -141 40 -150 55 -150 L55 -150 Z " />
<glyph glyph-name="asterisk" unicode="&#x2a;" horiz-adv-x="439" d="M368 485 L343 500 L252 541 L343 582 L368 596 C376 600 378 608 373 617 L362 636 C358 645 350 646 341 641 L317 627 L235 568 L246 668 L246 697 C246 706 240 712 230 712 L208 712 C199 712 193 706 193 697 L193 668 L203 568 L122 627 L98 641 C89 646 81 645 76 636 L66 617 C61 608 63 600 71 596 L96 582 L187 541 L96 500 L71 485 C63 480 61 473 66 465 L76 446 C81 437 89 436 98 440 L122 454 L203 512 L193 413 L193 385 C193 375 199 369 208 369 L230 369 C240 369 246 375 246 385 L246 413 L235 513 L317 454 L341 440 C350 436 358 437 362 446 L373 465 C378 473 376 480 368 485 L368 485 Z " />
<glyph glyph-name="plus" unicode="&#x2b;" horiz-adv-x="570" d="M473 333 L322 333 L322 487 C322 499 315 506 303 506 L268 506 C256 506 249 499 249 487 L249 333 L97 333 C85 333 78 326 78 314 L78 282 C78 270 85 263 97 263 L249 263 L249 109 C249 97 256 90 268 90 L303 90 C315 90 322 97 322 109 L322 263 L473 263 C485 263 492 270 492 282 L492 314 C492 326 485 333 473 333 L473 333 Z " />
<glyph glyph-name="comma" unicode="&#x2c;" horiz-adv-x="222" d="M64 -105 L88 -105 C99 -105 106 -100 110 -89 L169 79 C174 92 168 101 154 101 L103 101 C92 101 84 96 82 84 L47 -84 C44 -97 51 -105 64 -105 L64 -105 Z " />
<glyph glyph-name="hyphen" unicode="&#x2d;" horiz-adv-x="424" d="M97 240 L327 240 C339 240 346 247 346 259 L346 297 C346 309 339 316 327 316 L97 316 C85 316 78 309 78 297 L78 259 C78 247 85 240 97 240 L97 240 Z " />
<glyph glyph-name="period" unicode="&#x2e;" horiz-adv-x="238" d="M119 -6 C154 -6 177 17 177 52 C177 87 154 110 119 110 C84 110 61 87 61 52 C61 17 84 -6 119 -6 L119 -6 Z " />
<glyph glyph-name="slash" unicode="&#x2f;" horiz-adv-x="422" d="M53 -150 L94 -150 C105 -150 113 -145 116 -134 L383 699 C387 711 382 720 369 720 L328 720 C317 720 310 715 306 704 L39 -129 C35 -141 40 -150 53 -150 L53 -150 Z " />
<glyph glyph-name="zero" unicode="0" horiz-adv-x="626" d="M313 -12 C454 -12 547 73 547 203 L547 467 C547 597 454 682 313 682 C172 682 79 597 79 467 L79 203 C79 73 172 -12 313 -12 L313 -12 Z M313 66 C223 66 163 121 163 205 L163 465 C163 549 223 604 313 604 C403 604 463 549 463 465 L463 205 C463 121 403 66 313 66 L313 66 Z " />
<glyph glyph-name="one" unicode="1" horiz-adv-x="378" d="M209 0 L255 0 C267 0 274 7 274 19 L274 651 C274 663 267 670 255 670 L222 670 C214 670 207 669 198 665 L69 608 C59 604 54 597 54 586 L54 548 C54 534 63 528 76 534 L183 581 L190 581 L190 19 C190 7 197 0 209 0 L209 0 Z " />
<glyph glyph-name="two" unicode="2" horiz-adv-x="559" d="M81 0 L475 0 C487 0 494 7 494 19 L494 59 C494 71 487 78 475 78 L186 78 L186 84 L398 307 C467 377 498 443 498 508 C498 607 415 682 284 682 C151 682 63 609 63 499 L63 479 C63 467 71 462 82 462 L131 462 C142 462 149 467 149 478 L149 491 C149 560 203 605 282 605 C362 605 411 559 411 500 C411 452 378 399 321 341 L72 80 C65 73 62 66 62 57 L62 19 C62 7 69 0 81 0 L81 0 Z " />
<glyph glyph-name="three" unicode="3" horiz-adv-x="577" d="M288 -12 C427 -12 519 65 519 180 C519 259 475 324 408 343 L408 349 C467 369 506 430 506 501 C506 609 419 682 289 682 C157 682 71 610 71 507 L71 495 C71 483 78 476 90 476 L140 476 C152 476 157 484 158 492 C160 566 209 607 288 607 C367 607 418 561 418 490 C418 421 373 375 304 375 L218 375 C206 375 199 368 199 356 L199 326 C199 314 206 307 218 307 L321 307 C387 307 431 261 431 191 C431 114 374 63 288 63 C201 63 148 109 146 184 C143 191 139 200 125 200 L77 200 C65 200 58 193 58 181 L58 167 C58 63 149 -12 288 -12 L288 -12 Z " />
<glyph glyph-name="four" unicode="4" horiz-adv-x="587" d="M522 230 L457 230 L457 651 C457 663 450 670 438 670 L360 670 C350 670 343 666 337 658 L52 229 C47 222 45 214 45 205 L45 175 C45 163 52 156 64 156 L373 156 L373 19 C373 7 380 0 392 0 L438 0 C450 0 457 7 457 19 L457 156 L522 156 C534 156 541 163 541 175 L541 211 C541 223 534 230 522 230 L522 230 Z M137 230 L137 236 L370 582 L378 582 L373 538 L373 230 L137 230 Z " />
<glyph glyph-name="five" unicode="5" horiz-adv-x="566" d="M284 -12 C430 -12 523 76 523 211 C523 340 438 427 310 427 C251 427 198 407 171 376 L166 376 L197 595 L453 595 C465 595 472 602 472 614 L472 651 C472 663 465 670 453 670 L143 670 C132 670 124 664 122 652 L77 317 C75 303 83 297 95 297 L153 297 C158 297 162 298 166 303 C188 334 237 356 290 356 C377 356 436 299 436 209 C436 121 378 63 286 63 C206 63 152 103 148 171 C146 183 142 188 129 188 L80 188 C69 188 62 181 62 170 L62 160 C62 58 153 -12 284 -12 L284 -12 Z " />
<glyph glyph-name="six" unicode="6" horiz-adv-x="576" d="M287 -12 C429 -12 526 77 526 214 C526 341 442 427 318 427 C269 427 226 412 205 390 L200 390 L379 647 C388 660 383 670 369 670 L316 670 C306 670 299 667 293 658 L121 406 C82 348 55 281 55 211 C55 81 143 -12 287 -12 L287 -12 Z M287 63 C198 63 141 121 141 209 C141 299 200 356 289 356 C380 356 439 298 439 210 C439 120 376 63 287 63 L287 63 Z " />
<glyph glyph-name="seven" unicode="7" horiz-adv-x="530" d="M145 0 L198 0 C209 0 217 5 220 14 L479 594 C482 603 484 610 484 618 L484 651 C484 663 477 670 465 670 L74 670 C62 670 55 663 55 651 L55 611 C55 599 62 592 74 592 L385 592 L385 586 L132 24 C125 9 131 0 145 0 L145 0 Z " />
<glyph glyph-name="eight" unicode="8" horiz-adv-x="591" d="M296 -12 C439 -12 533 65 533 177 C533 259 483 322 401 345 L401 351 C472 373 516 432 516 505 C516 609 428 682 296 682 C163 682 75 608 75 505 C75 430 120 373 190 351 L190 345 C109 323 58 259 58 177 C58 65 153 -12 296 -12 L296 -12 Z M296 379 C214 379 158 424 158 494 C158 563 214 609 296 609 C378 609 434 563 434 494 C434 424 378 379 296 379 L296 379 Z M296 62 C203 62 143 111 143 187 C143 263 203 313 296 313 C388 313 448 263 448 187 C448 111 388 62 296 62 L296 62 Z " />
<glyph glyph-name="nine" unicode="9" horiz-adv-x="576" d="M214 0 L266 0 C276 0 283 3 289 13 L457 269 C492 323 521 389 521 459 C521 589 432 682 289 682 C147 682 50 593 50 455 C50 327 134 239 257 239 C306 239 349 254 369 275 L375 275 L203 23 C194 11 199 0 214 0 L214 0 Z M286 314 C196 314 136 372 136 460 C136 550 200 607 288 607 C377 607 434 549 434 461 C434 371 376 314 286 314 L286 314 Z " />
<glyph glyph-name="colon" unicode="&#x3a;" horiz-adv-x="244" d="M122 337 C157 337 180 360 180 395 C180 430 157 453 122 453 C87 453 64 430 64 395 C64 360 87 337 122 337 L122 337 Z M122 -6 C157 -6 180 17 180 52 C180 87 157 110 122 110 C87 110 64 87 64 52 C64 17 87 -6 122 -6 L122 -6 Z " />
<glyph glyph-name="semicolon" unicode="&#x3b;" horiz-adv-x="241" d="M126 337 C161 337 184 360 184 395 C184 430 161 453 126 453 C91 453 68 430 68 395 C68 360 91 337 126 337 L126 337 Z M60 -105 L84 -105 C95 -105 102 -100 106 -89 L165 79 C170 92 164 101 150 101 L99 101 C87 101 80 96 78 84 L43 -84 C40 -97 47 -105 60 -105 L60 -105 Z " />
<glyph glyph-name="less" unicode="&#x3c;" horiz-adv-x="530" d="M452 113 L452 151 C452 162 447 168 438 172 L156 296 L156 301 L438 423 C447 427 452 434 452 445 L452 482 C452 497 443 503 430 497 L92 339 C83 334 78 328 78 317 L78 279 C78 268 83 261 92 257 L430 99 C443 93 452 99 452 113 L452 113 Z " />
<glyph glyph-name="equal" unicode="&#x3d;" horiz-adv-x="570" d="M97 367 L473 367 C485 367 492 374 492 386 L492 418 C492 430 485 437 473 437 L97 437 C85 437 78 430 78 418 L78 386 C78 374 85 367 97 367 L97 367 Z M97 159 L473 159 C485 159 492 166 492 178 L492 209 C492 221 485 228 473 228 L97 228 C85 228 78 221 78 209 L78 178 C78 166 85 159 97 159 L97 159 Z " />
<glyph glyph-name="greater" unicode="&#x3e;" horiz-adv-x="530" d="M100 99 L438 257 C448 261 452 268 452 279 L452 317 C452 328 448 334 438 339 L100 497 C87 503 78 497 78 482 L78 445 C78 434 83 427 93 423 L375 301 L375 296 L93 172 C83 168 78 162 78 151 L78 113 C78 99 87 93 100 99 L100 99 Z " />
<glyph glyph-name="question" unicode="&#x3f;" horiz-adv-x="518" d="M234 180 L282 180 C291 180 300 184 300 194 L300 226 C300 341 476 355 476 505 C476 615 389 682 261 682 C127 682 44 621 42 494 C42 482 49 475 61 475 L113 475 C123 475 127 480 128 487 C133 565 178 605 260 605 C338 605 389 564 389 499 C389 384 216 380 216 236 L216 200 C216 187 222 180 234 180 L234 180 Z M258 -6 C291 -6 314 16 314 50 C314 84 291 106 258 106 C224 106 201 84 201 50 C201 16 224 -6 258 -6 L258 -6 Z " />
<glyph glyph-name="at" unicode="&#x40;" horiz-adv-x="918" d="M597 473 L557 473 C545 473 538 466 538 454 L538 411 L534 411 C517 454 472 483 416 483 C337 483 284 429 284 350 L284 212 C284 129 338 71 424 71 C480 71 527 100 544 143 L547 143 C567 99 615 71 675 71 C789 71 859 169 859 314 C859 538 697 682 467 682 C223 682 65 524 65 283 C65 33 236 -132 487 -132 C560 -132 638 -118 692 -97 C699 -94 702 -87 702 -76 L702 -53 C702 -40 694 -33 681 -38 C629 -57 556 -70 490 -70 C273 -70 131 71 131 284 C131 486 262 620 467 620 C660 620 792 498 792 314 C792 211 752 141 685 141 C647 141 616 167 616 205 L616 454 C616 466 609 473 597 473 L597 473 Z M448 145 C397 145 362 178 362 227 L362 327 C362 376 397 409 448 409 C502 409 538 371 538 328 L538 226 C538 183 502 145 448 145 L448 145 Z " />
<glyph glyph-name="A" unicode="A" horiz-adv-x="643" d="M599 23 L385 652 C382 665 375 670 362 670 L281 670 C268 670 261 665 258 652 L44 23 C40 8 47 0 62 0 L112 0 C123 0 130 6 133 17 L181 167 L458 167 L507 17 C510 6 517 0 528 0 L581 0 C596 0 603 8 599 23 L599 23 Z M206 244 L316 585 L323 585 L433 244 L206 244 Z " />
<glyph glyph-name="B" unicode="B" horiz-adv-x="607" d="M433 341 L433 346 C499 361 543 419 543 498 C543 600 472 670 364 670 L115 670 C102 670 94 662 94 649 L94 21 C94 8 102 0 115 0 L384 0 C492 0 563 71 563 176 C563 264 511 326 433 341 L433 341 Z M344 595 C413 595 459 550 459 484 C459 417 413 375 344 375 L178 375 L178 595 L344 595 Z M364 75 L178 75 L178 307 L364 307 C433 307 479 261 479 191 C479 121 433 75 364 75 L364 75 Z " />
<glyph glyph-name="C" unicode="C" horiz-adv-x="630" d="M317 -12 C466 -12 565 65 565 220 C565 233 558 241 546 241 L499 241 C488 241 482 235 480 222 C477 122 418 66 317 66 C217 66 152 127 152 220 L152 450 C152 543 217 604 317 604 C416 604 477 549 480 448 C482 435 488 429 499 429 L546 429 C558 429 565 436 565 448 C565 601 468 682 317 682 C167 682 68 591 68 452 L68 218 C68 79 167 -12 317 -12 L317 -12 Z " />
<glyph glyph-name="D" unicode="D" horiz-adv-x="649" d="M331 670 L115 670 C102 670 94 662 94 649 L94 21 C94 8 102 0 115 0 L331 0 C482 0 582 92 582 234 L582 436 C582 578 482 670 331 670 L331 670 Z M498 237 C498 140 431 78 329 78 L178 78 L178 592 L329 592 C431 592 498 530 498 433 L498 237 Z " />
<glyph glyph-name="E" unicode="E" horiz-adv-x="566" d="M483 592 C496 592 503 600 503 612 L503 650 C503 662 496 670 483 670 L114 670 C102 670 94 662 94 650 L94 20 C94 8 102 0 114 0 L483 0 C496 0 503 8 503 20 L503 58 C503 70 496 78 483 78 L178 78 L178 299 L446 299 C459 299 466 307 466 320 L466 356 C466 369 459 377 446 377 L178 377 L178 592 L483 592 Z " />
<glyph glyph-name="F" unicode="F" horiz-adv-x="547" d="M473 670 L115 670 C102 670 94 662 94 649 L94 21 C94 8 102 0 115 0 L158 0 C171 0 178 8 178 21 L178 279 L429 279 C442 279 450 287 450 300 L450 336 C450 349 442 357 429 357 L178 357 L178 592 L473 592 C486 592 493 600 493 613 L493 649 C493 662 486 670 473 670 L473 670 Z " />
<glyph glyph-name="G" unicode="G" horiz-adv-x="633" d="M544 340 L354 340 C341 340 333 333 333 320 L333 293 C333 280 341 272 354 272 L481 272 L481 213 C481 122 416 63 317 63 C217 63 152 123 152 216 L152 450 C152 543 217 604 317 604 C411 604 473 553 479 459 C482 449 487 443 500 443 L546 443 C558 443 566 449 564 462 C556 602 464 682 317 682 C167 682 68 591 68 452 L68 218 C68 79 167 -12 317 -12 C467 -12 565 77 565 214 L565 320 C565 333 558 340 544 340 L544 340 Z " />
<glyph glyph-name="H" unicode="H" horiz-adv-x="658" d="M543 670 L500 670 C487 670 479 662 479 649 L479 377 L178 377 L178 649 C178 662 171 670 158 670 L115 670 C102 670 94 662 94 649 L94 21 C94 8 102 0 115 0 L158 0 C171 0 178 8 178 21 L178 299 L479 299 L479 21 C479 8 487 0 500 0 L543 0 C556 0 564 8 564 21 L564 649 C564 662 556 670 543 670 L543 670 Z " />
<glyph glyph-name="I" unicode="I" horiz-adv-x="273" d="M115 0 L158 0 C171 0 178 8 178 21 L178 649 C178 662 171 670 158 670 L115 670 C102 670 94 662 94 649 L94 21 C94 8 102 0 115 0 L115 0 Z " />
<glyph glyph-name="J" unicode="J" horiz-adv-x="567" d="M272 -12 C400 -12 484 65 484 181 L484 649 C484 662 476 670 463 670 L420 670 C407 670 399 662 399 649 L399 184 C399 113 349 66 272 66 C194 66 143 113 143 184 L143 199 C143 213 135 220 122 220 L80 220 C66 220 59 213 59 199 L59 181 C59 65 144 -12 272 -12 L272 -12 Z " />
<glyph glyph-name="K" unicode="K" horiz-adv-x="602" d="M561 25 L317 383 L550 644 C561 658 556 670 540 670 L486 670 C475 670 467 665 461 657 L185 346 L178 346 L178 649 C178 662 171 670 158 670 L115 670 C102 670 94 662 94 649 L94 21 C94 8 102 0 115 0 L158 0 C171 0 178 8 178 21 L178 227 L259 318 L465 15 C470 4 478 0 489 0 L547 0 C562 0 568 12 561 25 L561 25 Z " />
<glyph glyph-name="L" unicode="L" horiz-adv-x="532" d="M463 78 L178 78 L178 649 C178 662 171 670 158 670 L115 670 C102 670 94 662 94 649 L94 21 C94 8 102 0 115 0 L463 0 C476 0 483 8 483 21 L483 57 C483 70 476 78 463 78 L463 78 Z " />
<glyph glyph-name="M" unicode="M" horiz-adv-x="813" d="M115 0 L158 0 C171 0 178 8 178 21 L178 495 L174 538 L181 538 L368 179 C372 167 381 162 392 162 L421 162 C432 162 441 167 445 179 L631 538 L639 538 L634 495 L634 21 C634 8 642 0 655 0 L698 0 C711 0 718 8 718 21 L718 649 C718 662 711 670 698 670 L626 670 C615 670 606 665 602 653 L412 273 L405 273 L214 653 C209 665 201 670 189 670 L115 670 C102 670 94 662 94 649 L94 21 C94 8 102 0 115 0 L115 0 Z " />
<glyph glyph-name="N" unicode="N" horiz-adv-x="679" d="M113 0 L159 0 C171 0 178 7 178 19 L178 491 L174 534 L181 534 L475 14 C479 4 488 0 498 0 L565 0 C577 0 584 7 584 19 L584 651 C584 663 577 670 565 670 L519 670 C507 670 500 663 500 651 L500 179 L505 136 L497 136 L203 656 C199 666 191 670 181 670 L113 670 C101 670 94 663 94 651 L94 19 C94 7 101 0 113 0 L113 0 Z " />
<glyph glyph-name="O" unicode="O" horiz-adv-x="643" d="M322 -12 C475 -12 575 81 575 223 L575 447 C575 589 475 682 322 682 C169 682 68 589 68 447 L68 223 C68 81 169 -12 322 -12 L322 -12 Z M322 66 C219 66 152 129 152 225 L152 445 C152 541 219 604 322 604 C424 604 491 541 491 445 L491 225 C491 129 424 66 322 66 L322 66 Z " />
<glyph glyph-name="P" unicode="P" horiz-adv-x="607" d="M346 670 L115 670 C102 670 94 662 94 649 L94 21 C94 8 102 0 115 0 L158 0 C171 0 178 8 178 21 L178 229 L346 229 C477 229 563 316 563 449 C563 583 477 670 346 670 L346 670 Z M340 307 L178 307 L178 592 L340 592 C424 592 479 536 479 449 C479 363 424 307 340 307 L340 307 Z " />
<glyph glyph-name="Q" unicode="Q" horiz-adv-x="643" d="M575 223 L575 447 C575 589 475 682 322 682 C169 682 68 589 68 447 L68 223 C68 81 169 -12 322 -12 C355 -12 386 -8 413 1 L452 -71 C458 -80 466 -85 476 -85 L514 -85 C529 -85 536 -75 529 -62 L479 31 C540 71 575 138 575 223 L575 223 Z M491 225 C491 174 472 132 439 104 L407 162 C403 172 394 177 384 177 L349 177 C334 177 328 167 335 153 L379 73 C362 69 342 66 322 66 C219 66 152 129 152 225 L152 445 C152 541 219 604 322 604 C424 604 491 541 491 445 L491 225 Z " />
<glyph glyph-name="R" unicode="R" horiz-adv-x="626" d="M429 257 C518 281 573 357 573 461 C573 588 491 670 367 670 L115 670 C102 670 94 662 94 649 L94 21 C94 8 102 0 115 0 L158 0 C171 0 178 8 178 21 L178 249 L342 249 L474 16 C480 4 488 0 499 0 L553 0 C569 0 575 10 567 24 L429 257 Z M178 592 L359 592 C438 592 489 540 489 459 C489 379 438 327 359 327 L178 327 L178 592 Z " />
<glyph glyph-name="S" unicode="S" horiz-adv-x="587" d="M294 -12 C438 -12 534 65 534 181 C534 427 152 336 152 505 C152 570 211 609 289 609 C366 609 421 575 428 508 C431 495 437 488 450 488 L497 488 C510 488 518 495 517 509 C509 620 424 682 291 682 C156 682 63 611 63 498 C63 258 444 344 444 173 C444 104 380 61 295 61 C209 61 151 99 144 176 C142 189 136 195 123 195 L74 195 C61 195 53 188 54 174 C62 54 153 -12 294 -12 L294 -12 Z " />
<glyph glyph-name="T" unicode="T" horiz-adv-x="553" d="M494 670 L60 670 C47 670 39 662 39 649 L39 613 C39 600 47 592 60 592 L235 592 L235 21 C235 8 243 0 256 0 L298 0 C312 0 319 8 319 21 L319 592 L494 592 C507 592 514 600 514 613 L514 649 C514 662 507 670 494 670 L494 670 Z " />
<glyph glyph-name="U" unicode="U" horiz-adv-x="654" d="M327 -12 C474 -12 571 77 571 213 L571 649 C571 662 563 670 550 670 L507 670 C494 670 486 662 486 649 L486 215 C486 125 423 66 327 66 C231 66 167 125 167 215 L167 649 C167 662 160 670 146 670 L104 670 C91 670 83 662 83 649 L83 213 C83 77 180 -12 327 -12 L327 -12 Z " />
<glyph glyph-name="V" unicode="V" horiz-adv-x="634" d="M281 0 L353 0 C365 0 373 6 377 18 L590 647 C594 661 587 670 572 670 L524 670 C512 670 504 664 502 652 L322 94 L316 94 L136 652 C134 664 126 670 113 670 L62 670 C48 670 40 661 44 647 L258 18 C261 6 269 0 281 0 L281 0 Z " />
<glyph glyph-name="W" unicode="W" horiz-adv-x="988" d="M251 0 L316 0 C328 0 336 6 339 19 L491 524 L497 524 L649 19 C652 6 659 0 672 0 L737 0 C750 0 758 6 760 18 L937 647 C940 661 934 670 920 670 L871 670 C858 670 851 664 849 651 L706 112 L699 112 L541 651 C538 664 531 670 518 670 L473 670 C460 670 453 664 450 651 L293 112 L286 112 L142 651 C140 663 133 670 120 670 L68 670 C54 670 48 661 50 647 L228 18 C230 6 238 0 251 0 L251 0 Z " />
<glyph glyph-name="X" unicode="X" horiz-adv-x="630" d="M70 0 L121 0 C132 0 141 5 146 15 L309 262 L318 262 L480 15 C485 5 493 0 504 0 L563 0 C579 0 586 11 577 26 L371 339 L571 644 C580 659 574 670 558 670 L507 670 C496 670 488 665 482 655 L322 410 L313 410 L152 655 C147 665 139 670 128 670 L69 670 C53 670 47 659 55 644 L260 333 L57 26 C48 11 54 0 70 0 L70 0 Z " />
<glyph glyph-name="Y" unicode="Y" horiz-adv-x="587" d="M273 0 L315 0 C328 0 336 8 336 21 L336 280 L545 646 C552 660 545 670 529 670 L481 670 C470 670 461 665 456 654 L299 371 L293 371 L134 654 C130 665 121 670 110 670 L58 670 C42 670 35 660 43 646 L252 279 L252 21 C252 8 259 0 273 0 L273 0 Z " />
<glyph glyph-name="Z" unicode="Z" horiz-adv-x="572" d="M81 0 L491 0 C504 0 512 8 512 21 L512 57 C512 70 504 78 491 78 L171 78 L171 84 L498 593 C504 601 507 609 507 619 L507 649 C507 662 499 670 486 670 L86 670 C73 670 65 662 65 649 L65 613 C65 600 73 592 86 592 L396 592 L396 586 L68 77 C63 69 60 61 60 51 L60 21 C60 8 68 0 81 0 L81 0 Z " />
<glyph glyph-name="bracketleft" unicode="&#x5b;" horiz-adv-x="370" d="M318 644 C330 644 337 651 337 663 L337 701 C337 713 330 720 318 720 L117 720 C105 720 98 713 98 701 L98 -131 C98 -143 105 -150 117 -150 L318 -150 C330 -150 337 -143 337 -131 L337 -93 C337 -81 330 -74 318 -74 L180 -74 L180 644 L318 644 Z " />
<glyph glyph-name="backslash" unicode="&#x5c;" horiz-adv-x="422" d="M328 -150 L369 -150 C382 -150 387 -141 383 -129 L116 704 C113 715 105 720 94 720 L53 720 C40 720 35 711 39 699 L306 -134 C310 -145 317 -150 328 -150 L328 -150 Z " />
<glyph glyph-name="bracketright" unicode="&#x5d;" horiz-adv-x="370" d="M253 720 L52 720 C40 720 33 713 33 701 L33 663 C33 651 40 644 52 644 L190 644 L190 -74 L52 -74 C40 -74 33 -81 33 -93 L33 -131 C33 -143 40 -150 52 -150 L253 -150 C265 -150 272 -143 272 -131 L272 701 C272 713 265 720 253 720 L253 720 Z " />
<glyph glyph-name="asciicircum" unicode="&#x5e;" horiz-adv-x="507" d="M87 416 L129 416 C139 416 146 420 151 430 L251 601 L256 601 L356 430 C361 420 368 416 378 416 L420 416 C434 416 441 426 433 438 L301 657 C296 666 288 670 278 670 L229 670 C219 670 212 666 206 657 L74 438 C67 426 73 416 87 416 L87 416 Z " />
<glyph glyph-name="underscore" unicode="&#x5f;" horiz-adv-x="517" d="M70 -133 L447 -133 C459 -133 466 -126 466 -114 L466 -88 C466 -76 459 -69 447 -69 L70 -69 C58 -69 51 -76 51 -88 L51 -114 C51 -126 58 -133 70 -133 L70 -133 Z " />
<glyph glyph-name="grave" unicode="&#x60;" horiz-adv-x="175" d="M125 557 L149 557 C164 557 169 566 162 579 L102 679 C97 689 89 693 80 693 L31 693 C15 693 10 682 20 669 L102 567 C108 559 116 557 125 557 L125 557 Z " />
<glyph glyph-name="a" unicode="a" horiz-adv-x="523" d="M258 512 C147 512 66 458 66 371 C66 359 73 352 85 352 L126 352 C137 352 143 358 146 369 C152 416 194 442 256 442 C330 442 374 401 374 337 L374 281 L214 281 C111 281 46 224 46 134 C46 44 112 -12 215 -12 C293 -12 350 23 371 77 L378 77 L378 19 C378 7 385 0 397 0 L435 0 C447 0 454 7 454 19 L454 346 C454 446 378 512 258 512 L258 512 Z M239 56 C170 56 127 87 127 139 C127 188 163 218 223 218 L374 218 L374 156 C374 99 321 56 239 56 L239 56 Z " />
<glyph glyph-name="b" unicode="b" horiz-adv-x="544" d="M315 512 C240 512 183 474 164 420 L158 420 L158 681 C158 693 151 700 139 700 L97 700 C85 700 78 693 78 681 L78 19 C78 7 85 0 97 0 L139 0 C151 0 158 7 158 19 L158 80 L164 80 C183 26 240 -12 315 -12 C416 -12 485 55 485 154 L485 346 C485 445 416 512 315 512 L315 512 Z M405 176 C405 108 357 63 284 63 C208 63 158 116 158 175 L158 325 C158 384 208 437 284 437 C357 437 405 392 405 324 L405 176 Z " />
<glyph glyph-name="c" unicode="c" horiz-adv-x="506" d="M256 -12 C371 -12 456 49 456 162 C456 175 449 183 437 183 L395 183 C383 183 377 177 376 168 C374 101 326 62 256 62 C183 62 136 106 136 173 L136 327 C136 394 183 438 256 438 C324 438 374 400 376 332 C377 323 383 317 395 317 L437 317 C449 317 456 325 456 337 C456 449 373 512 256 512 C135 512 56 439 56 328 L56 172 C56 61 135 -12 256 -12 L256 -12 Z " />
<glyph glyph-name="d" unicode="d" horiz-adv-x="544" d="M447 700 L405 700 C393 700 386 693 386 681 L386 420 L380 420 C360 474 303 512 229 512 C127 512 59 445 59 346 L59 154 C59 55 127 -12 229 -12 C303 -12 360 26 380 80 L386 80 L386 19 C386 7 393 0 405 0 L447 0 C459 0 466 7 466 19 L466 681 C466 693 459 700 447 700 L447 700 Z M260 63 C187 63 139 108 139 176 L139 324 C139 392 187 437 260 437 C335 437 386 384 386 325 L386 175 C386 116 335 63 260 63 L260 63 Z " />
<glyph glyph-name="e" unicode="e" horiz-adv-x="518" d="M443 220 C455 220 462 227 462 239 L462 326 C462 438 382 512 259 512 C136 512 55 438 55 326 L55 174 C55 62 137 -12 262 -12 C374 -12 454 42 462 133 C462 143 455 149 443 149 L400 149 C389 149 383 143 380 132 C372 87 327 58 262 58 C185 58 135 103 135 172 L135 220 L443 220 Z M259 442 C334 442 382 397 382 329 L382 287 L135 287 L135 329 C135 397 185 442 259 442 L259 442 Z " />
<glyph glyph-name="f" unicode="f" horiz-adv-x="373" d="M288 633 L317 633 C329 633 336 640 336 652 L336 681 C336 693 329 700 317 700 L270 700 C189 700 135 650 135 574 L135 500 L64 500 C52 500 45 493 45 481 L45 447 C45 435 52 428 64 428 L135 428 L135 19 C135 7 142 0 154 0 L196 0 C208 0 215 7 215 19 L215 428 L317 428 C329 428 336 435 336 447 L336 481 C336 493 329 500 317 500 L215 500 L215 561 C215 605 244 633 288 633 L288 633 Z " />
<glyph glyph-name="g" unicode="g" horiz-adv-x="541" d="M447 500 L405 500 C393 500 386 493 386 481 L386 420 L380 420 C360 474 303 512 229 512 C127 512 59 445 59 346 L59 178 C59 78 127 12 229 12 C302 12 360 48 380 102 L386 102 L386 -21 C386 -86 338 -129 263 -129 C201 -129 152 -102 148 -52 C144 -44 139 -40 129 -40 L86 -40 C76 -40 68 -46 70 -59 C77 -143 152 -192 263 -192 C388 -192 466 -125 466 -25 L466 481 C466 493 459 500 447 500 L447 500 Z M260 87 C187 87 139 132 139 200 L139 324 C139 392 187 437 260 437 C335 437 386 384 386 325 L386 199 C386 139 335 87 260 87 L260 87 Z " />
<glyph glyph-name="h" unicode="h" horiz-adv-x="550" d="M315 512 C241 512 184 474 164 420 L158 420 L158 681 C158 693 151 700 139 700 L97 700 C85 700 78 693 78 681 L78 19 C78 7 85 0 97 0 L139 0 C151 0 158 7 158 19 L158 326 C158 385 208 437 283 437 C353 437 399 393 399 325 L399 19 C399 7 406 0 418 0 L460 0 C472 0 479 7 479 19 L479 354 C479 449 413 512 315 512 L315 512 Z " />
<glyph glyph-name="i" unicode="i" horiz-adv-x="237" d="M119 596 C150 596 171 617 171 648 C171 679 150 699 119 699 C86 699 65 679 65 648 C65 617 86 596 119 596 L119 596 Z M98 0 L140 0 C152 0 159 7 159 19 L159 481 C159 493 152 500 140 500 L98 500 C86 500 79 493 79 481 L79 19 C79 7 86 0 98 0 L98 0 Z " />
<glyph glyph-name="j" unicode="j" horiz-adv-x="238" d="M122 596 C154 596 175 617 175 648 C175 679 154 699 122 699 C90 699 69 679 69 648 C69 617 89 596 122 596 L122 596 Z M-19 -180 L28 -180 C109 -180 163 -130 163 -54 L163 481 C163 493 156 500 144 500 L102 500 C90 500 83 493 83 481 L83 -41 C83 -84 54 -112 10 -112 L-19 -112 C-31 -112 -38 -119 -38 -131 L-38 -161 C-38 -173 -31 -180 -19 -180 L-19 -180 Z " />
<glyph glyph-name="k" unicode="k" horiz-adv-x="502" d="M474 23 L289 299 L464 476 C474 489 469 500 456 500 L402 500 C392 500 385 497 379 488 L164 271 L158 271 L158 681 C158 693 151 700 139 700 L97 700 C85 700 78 693 78 681 L78 19 C78 7 85 0 97 0 L139 0 C151 0 158 7 158 19 L158 166 L235 244 L384 13 C389 4 396 0 406 0 L461 0 C475 0 481 10 474 23 L474 23 Z " />
<glyph glyph-name="l" unicode="l" horiz-adv-x="284" d="M202 0 L227 0 C239 0 246 7 246 19 L246 61 C246 69 241 74 233 74 L221 74 C180 74 153 100 153 140 L153 681 C153 693 146 700 134 700 L92 700 C80 700 73 693 73 681 L73 121 C73 48 124 0 202 0 L202 0 Z " />
<glyph glyph-name="m" unicode="m" horiz-adv-x="847" d="M618 512 C539 512 483 470 462 413 L458 413 C437 475 382 512 309 512 C237 512 183 475 164 422 L158 422 L158 481 C158 493 151 500 139 500 L97 500 C85 500 78 493 78 481 L78 19 C78 7 85 0 97 0 L139 0 C151 0 158 7 158 19 L158 329 C158 387 206 437 277 437 C343 437 387 393 387 328 L387 19 C387 7 394 0 406 0 L448 0 C460 0 467 7 467 19 L467 329 C467 387 515 437 586 437 C652 437 696 393 696 328 L696 19 C696 7 703 0 715 0 L757 0 C769 0 776 7 776 19 L776 354 C776 450 712 512 618 512 L618 512 Z " />
<glyph glyph-name="n" unicode="n" horiz-adv-x="550" d="M315 512 C241 512 184 474 164 420 L158 420 L158 481 C158 493 151 500 139 500 L97 500 C85 500 78 493 78 481 L78 19 C78 7 85 0 97 0 L139 0 C151 0 158 7 158 19 L158 326 C158 385 208 437 283 437 C353 437 399 393 399 325 L399 19 C399 7 406 0 418 0 L460 0 C472 0 479 7 479 19 L479 354 C479 449 413 512 315 512 L315 512 Z " />
<glyph glyph-name="o" unicode="o" horiz-adv-x="518" d="M260 -12 C382 -12 463 62 463 174 L463 326 C463 438 382 512 260 512 C137 512 56 438 56 326 L56 174 C56 62 137 -12 260 -12 L260 -12 Z M260 62 C185 62 136 107 136 175 L136 325 C136 393 185 438 260 438 C334 438 383 393 383 325 L383 175 C383 107 334 62 260 62 L260 62 Z " />
<glyph glyph-name="p" unicode="p" horiz-adv-x="544" d="M315 512 C240 512 183 474 164 420 L158 420 L158 481 C158 493 151 500 139 500 L97 500 C85 500 78 493 78 481 L78 -161 C78 -173 85 -180 97 -180 L139 -180 C151 -180 158 -173 158 -161 L158 80 L164 80 C183 26 240 -12 315 -12 C416 -12 485 55 485 154 L485 346 C485 445 416 512 315 512 L315 512 Z M405 176 C405 108 357 63 284 63 C208 63 158 116 158 175 L158 325 C158 384 208 437 284 437 C357 437 405 392 405 324 L405 176 Z " />
<glyph glyph-name="q" unicode="q" horiz-adv-x="544" d="M447 500 L405 500 C393 500 386 493 386 481 L386 420 L380 420 C360 474 303 512 229 512 C127 512 59 445 59 346 L59 154 C59 55 127 -12 229 -12 C303 -12 360 26 380 80 L386 80 L386 -161 C386 -173 393 -180 405 -180 L447 -180 C459 -180 466 -173 466 -161 L466 481 C466 493 459 500 447 500 L447 500 Z M260 63 C187 63 139 108 139 176 L139 324 C139 392 187 437 260 437 C335 437 386 384 386 325 L386 175 C386 116 335 63 260 63 L260 63 Z " />
<glyph glyph-name="r" unicode="r" horiz-adv-x="367" d="M314 511 C235 509 186 476 164 407 L158 407 L158 481 C158 493 151 500 139 500 L97 500 C85 500 78 493 78 481 L78 19 C78 7 85 0 97 0 L139 0 C151 0 158 7 158 19 L158 291 C158 371 212 430 315 430 C327 430 334 438 334 449 L334 492 C334 505 326 512 314 511 L314 511 Z " />
<glyph glyph-name="s" unicode="s" horiz-adv-x="470" d="M237 -12 C353 -12 428 46 428 142 C428 332 132 255 132 371 C132 414 171 442 232 442 C284 442 318 421 331 379 C337 369 341 361 355 361 L396 361 C408 361 417 368 415 381 C406 465 336 512 230 512 C122 512 49 458 49 365 C49 178 345 252 345 134 C345 88 303 58 237 58 C177 58 135 81 126 132 C122 144 118 149 107 149 L61 149 C49 149 41 142 43 130 C52 39 125 -12 237 -12 L237 -12 Z " />
<glyph glyph-name="t" unicode="t" horiz-adv-x="368" d="M307 500 L199 500 L199 611 C199 623 192 630 180 630 L144 630 C132 630 125 623 125 611 L125 531 C125 511 114 500 94 500 L47 500 C36 500 29 493 29 482 L29 447 C29 435 36 428 48 428 L119 428 L119 126 C119 50 173 0 254 0 L301 0 C313 0 320 7 320 19 L320 55 C320 67 313 74 301 74 L272 74 C228 74 199 102 199 145 L199 428 L307 428 C319 428 326 435 326 447 L326 481 C326 493 319 500 307 500 L307 500 Z " />
<glyph glyph-name="u" unicode="u" horiz-adv-x="538" d="M441 500 L399 500 C387 500 380 493 380 481 L380 171 C380 113 333 63 261 63 C195 63 151 107 151 172 L151 481 C151 493 144 500 132 500 L90 500 C78 500 71 493 71 481 L71 144 C71 50 135 -12 229 -12 C302 -12 355 25 375 78 L380 78 L380 19 C380 7 387 0 399 0 L441 0 C453 0 460 7 460 19 L460 481 C460 493 453 500 441 500 L441 500 Z " />
<glyph glyph-name="v" unicode="v" horiz-adv-x="510" d="M223 0 L287 0 C298 0 305 5 308 16 L474 479 C478 492 471 500 460 500 L412 500 C400 500 393 495 391 483 L260 89 L254 89 L122 483 C120 495 113 500 101 500 L50 500 C39 500 32 492 36 479 L202 16 C204 5 212 0 223 0 L223 0 Z " />
<glyph glyph-name="w" unicode="w" horiz-adv-x="808" d="M207 0 L264 0 C276 0 283 6 285 17 L401 379 L407 379 L523 17 C525 6 532 0 544 0 L601 0 C612 0 620 6 623 17 L769 479 C773 491 766 500 755 500 L706 500 C695 500 688 493 686 483 L572 97 L566 97 L449 483 C446 494 439 500 428 500 L383 500 C372 500 365 494 363 483 L245 97 L239 97 L125 483 C124 493 116 500 105 500 L54 500 C42 500 35 491 39 479 L185 17 C188 6 196 0 207 0 L207 0 Z " />
<glyph glyph-name="x" unicode="x" horiz-adv-x="494" d="M55 0 L103 0 C113 0 121 4 125 13 L241 191 L248 191 L364 13 C369 4 377 0 387 0 L442 0 C456 0 461 10 453 23 L298 254 L448 477 C456 490 450 500 437 500 L389 500 C379 500 371 496 367 487 L253 311 L245 311 L131 487 C126 496 118 500 108 500 L53 500 C39 500 34 490 42 477 L196 248 L44 23 C36 10 41 0 55 0 L55 0 Z " />
<glyph glyph-name="y" unicode="y" horiz-adv-x="518" d="M104 -180 L154 -180 C218 -180 257 -153 277 -94 L482 479 C486 492 479 500 467 500 L420 500 C409 500 401 495 399 483 L268 88 L254 88 L122 483 C120 495 113 500 101 500 L51 500 C39 500 32 492 36 479 L200 20 C203 11 209 7 218 7 L233 7 L202 -68 C190 -99 170 -113 136 -113 L104 -113 C92 -113 85 -120 85 -132 L85 -161 C85 -173 92 -180 104 -180 L104 -180 Z " />
<glyph glyph-name="z" unicode="z" horiz-adv-x="476" d="M67 0 L409 0 C421 0 428 7 428 19 L428 54 C428 66 421 73 409 73 L158 73 L158 78 L415 429 C421 436 423 443 423 452 L423 481 C423 493 416 500 404 500 L72 500 C60 500 53 493 53 481 L53 446 C53 434 60 427 72 427 L313 427 L313 422 L57 71 C51 64 48 57 48 48 L48 19 C48 7 55 0 67 0 L67 0 Z " />
<glyph glyph-name="braceleft" unicode="&#x7b;" horiz-adv-x="415" d="M296 -150 L363 -150 C375 -150 382 -143 382 -131 L382 -93 C382 -81 375 -74 363 -74 L314 -74 C269 -74 240 -46 240 -2 L240 205 C240 248 212 277 170 277 L158 277 L158 294 L170 294 C212 294 240 322 240 365 L240 572 C240 616 269 644 314 644 L363 644 C375 644 382 651 382 663 L382 701 C382 713 375 720 363 720 L296 720 C213 720 158 668 158 590 L158 379 C158 352 139 333 112 333 L95 333 C85 333 78 327 78 316 L78 255 C78 244 85 238 95 238 L112 238 C139 238 158 219 158 191 L158 -20 C158 -98 213 -150 296 -150 L296 -150 Z " />
<glyph glyph-name="bar" unicode="&#x7c;" horiz-adv-x="281" d="M123 -180 L158 -180 C170 -180 177 -173 177 -161 L177 731 C177 743 170 750 158 750 L123 750 C111 750 104 743 104 731 L104 -161 C104 -173 111 -180 123 -180 L123 -180 Z " />
<glyph glyph-name="braceright" unicode="&#x7d;" horiz-adv-x="415" d="M52 -150 L114 -150 C200 -150 257 -98 257 -20 L257 193 C257 220 275 238 303 238 L320 238 C330 238 337 245 337 255 L337 316 C337 326 330 333 320 333 L303 333 C275 333 257 350 257 377 L257 590 C257 668 200 720 114 720 L52 720 C40 720 33 713 33 701 L33 663 C33 651 40 644 52 644 L96 644 C144 644 175 616 175 572 L175 364 C175 322 203 294 245 294 L257 294 L257 277 L245 277 C203 277 175 249 175 207 L175 -2 C175 -46 144 -74 96 -74 L52 -74 C40 -74 33 -81 33 -93 L33 -131 C33 -143 40 -150 52 -150 L52 -150 Z " />
<glyph glyph-name="asciitilde" unicode="&#x7e;" horiz-adv-x="600" d="M402 231 C471 231 515 267 522 337 C523 352 516 360 504 360 L461 360 C452 360 448 356 445 347 C439 325 416 311 385 311 C324 311 276 364 199 364 C129 364 84 326 78 255 C77 242 85 235 97 235 L140 235 C148 235 153 239 156 248 C162 270 185 284 215 284 C274 284 325 231 402 231 L402 231 Z " />
<glyph glyph-name="exclamdown" unicode="&#xa1;" horiz-adv-x="239" d="M120 394 C153 394 176 416 176 450 C176 484 153 506 120 506 C86 506 63 484 63 450 C63 416 86 394 120 394 L120 394 Z M97 -170 L143 -170 C155 -170 162 -163 162 -151 L162 32 L153 302 C152 314 146 320 134 320 L105 320 C93 320 87 314 86 302 L78 32 L78 -151 C78 -163 85 -170 97 -170 L97 -170 Z " />
<glyph glyph-name="cent" unicode="&#xa2;" horiz-adv-x="548" d="M455 268 L413 268 C401 268 396 262 394 253 C390 186 344 147 274 147 C201 147 154 191 154 258 L154 412 C154 479 201 523 274 523 C342 523 390 486 394 417 C396 408 401 402 413 402 L455 402 C467 402 474 410 474 422 C474 521 409 582 312 595 L312 651 C312 663 305 670 293 670 L255 670 C243 670 236 663 236 651 L236 594 C137 581 74 512 74 413 L74 257 C74 158 137 89 236 76 L236 19 C236 7 243 0 255 0 L293 0 C305 0 312 7 312 19 L312 75 C408 87 474 147 474 247 C474 260 467 268 455 268 L455 268 Z " />
<glyph glyph-name="sterling" unicode="&#xa3;" horiz-adv-x="636" d="M355 604 C434 604 479 564 483 478 C485 469 491 463 502 463 L549 463 C561 463 569 471 568 483 C560 614 485 682 355 682 C225 682 140 605 140 487 L140 341 L97 341 C85 341 78 334 78 322 L78 289 C78 277 85 270 97 270 L140 270 L140 165 C140 128 121 93 92 73 C83 68 78 63 78 54 L78 19 C78 7 85 0 97 0 L531 0 C543 0 550 7 550 19 L550 59 C550 71 543 78 531 78 L184 78 L184 84 C209 104 224 138 224 174 L224 270 L430 270 C442 270 449 277 449 289 L449 322 C449 334 442 341 430 341 L224 341 L224 485 C224 557 276 604 355 604 L355 604 Z " />
<glyph glyph-name="currency" unicode="&#xa4;" horiz-adv-x="552" d="M471 195 L421 245 C437 270 445 301 445 336 C445 370 437 401 422 426 L471 475 C479 483 479 493 471 502 L442 529 C434 538 424 538 416 529 L364 478 C340 491 310 498 276 498 C242 498 212 491 188 478 L136 529 C128 538 118 538 110 529 L81 502 C73 493 72 484 81 475 L130 426 C115 401 107 370 107 336 C107 301 115 270 131 245 L81 195 C73 187 73 177 81 168 L110 141 C118 132 128 132 136 141 L188 193 C213 180 243 173 276 173 C309 173 339 180 364 193 L416 141 C424 132 434 132 442 141 L471 168 C480 177 479 187 471 195 L471 195 Z M168 336 C168 400 211 442 276 442 C341 442 384 400 384 336 C384 272 341 229 276 229 C211 229 168 272 168 336 L168 336 Z " />
<glyph glyph-name="yen" unicode="&#xa5;" horiz-adv-x="579" d="M504 670 L454 670 C443 670 434 665 429 655 L295 371 L288 371 L153 655 C148 665 140 670 129 670 L76 670 C60 670 55 659 61 646 L219 335 L128 335 C115 335 109 329 109 316 L109 299 C109 287 115 280 128 280 L246 280 L247 279 L247 205 L128 205 C115 205 109 198 109 186 L109 168 C109 156 115 149 128 149 L247 149 L247 21 C247 8 255 0 268 0 L311 0 C324 0 332 8 332 21 L332 149 L452 149 C465 149 471 156 471 168 L471 186 C471 198 465 205 452 205 L332 205 L332 280 L452 280 C465 280 471 287 471 299 L471 316 C471 329 465 335 452 335 L360 335 L519 646 C526 660 520 670 504 670 L504 670 Z " />
<glyph glyph-name="brokenbar" unicode="&#xa6;" horiz-adv-x="281" d="M123 383 L158 383 C170 383 177 390 177 402 L177 731 C177 743 170 750 158 750 L123 750 C111 750 104 743 104 731 L104 402 C104 390 111 383 123 383 L123 383 Z M123 -180 L158 -180 C170 -180 177 -173 177 -161 L177 168 C177 180 170 187 158 187 L123 187 C111 187 104 180 104 168 L104 -161 C104 -173 111 -180 123 -180 L123 -180 Z " />
<glyph glyph-name="section" unicode="&#xa7;" horiz-adv-x="613" d="M454 91 L454 101 C510 134 535 181 535 239 C535 451 190 377 190 533 C190 590 235 622 302 622 C368 622 412 594 419 538 C421 530 426 525 435 525 L481 525 C493 525 501 533 499 545 C490 634 417 682 304 682 C186 682 107 625 107 522 C107 469 128 434 160 409 L160 403 C107 371 78 324 78 263 C78 51 423 127 423 -30 C423 -88 378 -119 311 -119 C246 -119 202 -92 195 -36 C192 -29 188 -24 179 -24 L133 -24 C120 -24 112 -31 114 -43 C123 -132 196 -180 310 -180 C428 -180 505 -123 505 -21 C505 31 485 66 454 91 L454 91 Z M160 278 C160 319 181 355 215 378 C316 335 453 328 453 223 C453 184 435 148 399 123 C298 168 160 174 160 278 L160 278 Z " />
<glyph glyph-name="dieresis" unicode="&#xa8;" horiz-adv-x="277" d="M49 576 C79 576 98 595 98 625 C98 654 79 674 49 674 C20 674 0 654 0 625 C0 595 20 576 49 576 L49 576 Z M228 576 C257 576 277 595 277 625 C277 654 257 674 228 674 C198 674 178 654 178 625 C178 595 198 576 228 576 L228 576 Z " />
<glyph glyph-name="copyright" unicode="&#xa9;" horiz-adv-x="839" d="M419 -12 C629 -12 768 126 768 335 C768 544 629 682 419 682 C209 682 71 544 71 335 C71 126 209 -12 419 -12 L419 -12 Z M419 36 C241 36 123 155 123 335 C123 515 241 634 419 634 C598 634 716 515 716 335 C716 155 598 36 419 36 L419 36 Z M419 135 C511 135 574 183 583 274 C584 287 577 295 564 295 L524 295 C512 295 506 288 504 276 C497 233 467 209 419 209 C368 209 335 240 335 288 L335 382 C335 430 368 461 419 461 C464 461 496 439 504 394 C506 382 512 375 524 375 L564 375 C577 375 584 382 583 396 C575 485 513 535 419 535 C320 535 255 475 255 383 L255 287 C255 195 320 135 419 135 L419 135 Z " />
<glyph glyph-name="ordfeminine" unicode="&#xaa;" horiz-adv-x="433" d="M223 682 C141 682 84 640 84 587 L84 585 C84 574 90 567 102 567 L132 567 C142 567 147 574 149 583 C156 616 183 631 222 631 C266 631 296 604 296 564 L296 521 L188 521 C115 521 71 480 71 416 C71 355 115 316 186 316 C235 316 278 335 294 370 L299 370 L299 342 C299 330 306 324 317 324 L344 324 C355 324 362 330 362 342 L362 568 C362 636 307 682 223 682 L223 682 Z M204 367 C164 367 138 388 138 421 C138 455 162 475 204 475 L296 475 L296 437 C296 396 259 367 204 367 L204 367 Z " />
<glyph glyph-name="guillemotleft" unicode="&#xab;" horiz-adv-x="541" d="M213 70 L256 70 C272 70 277 81 269 93 L136 261 L136 269 L269 437 C277 449 272 460 256 460 L213 460 C203 460 195 456 190 448 L48 278 C42 269 42 261 48 252 L190 82 C195 74 203 70 213 70 L213 70 Z M424 70 L468 70 C484 70 489 81 480 93 L347 261 L347 269 L480 437 C489 449 484 460 468 460 L424 460 C415 460 407 456 402 448 L260 278 C253 269 253 261 260 252 L402 82 C407 74 415 70 424 70 L424 70 Z " />
<glyph glyph-name="logicalnot" unicode="&#xac;" horiz-adv-x="585" d="M488 373 L97 373 C85 373 78 366 78 354 L78 322 C78 310 85 303 97 303 L435 303 L435 191 C435 179 442 172 454 172 L488 172 C500 172 507 179 507 191 L507 354 C507 366 500 373 488 373 L488 373 Z " />
<glyph glyph-name="registered" unicode="&#xae;" horiz-adv-x="516" d="M258 682 C139 682 61 604 61 485 C61 366 139 288 258 288 C377 288 455 366 455 485 C455 604 377 682 258 682 L258 682 Z M258 326 C163 326 100 390 100 485 C100 580 163 644 258 644 C354 644 416 580 416 485 C416 390 354 326 258 326 L258 326 Z M345 524 C345 565 317 592 277 592 L198 592 C191 592 187 588 187 581 L187 402 C187 395 191 391 198 391 L221 391 C228 391 232 395 232 402 L232 454 L263 454 L292 399 C295 393 299 391 305 391 L333 391 C341 391 344 396 340 404 L308 461 C331 471 345 495 345 524 L345 524 Z M232 550 L272 550 C288 550 300 540 300 523 C300 506 289 496 272 496 L232 496 L232 550 Z " />
<glyph glyph-name="macron" unicode="&#xaf;" horiz-adv-x="270" d="M19 587 L251 587 C263 587 270 594 270 606 L270 633 C270 645 263 652 251 652 L19 652 C7 652 0 645 0 633 L0 606 C0 594 7 587 19 587 L19 587 Z " />
<glyph glyph-name="degree" unicode="&#xb0;" horiz-adv-x="390" d="M195 406 C282 406 339 461 339 544 C339 628 282 682 195 682 C108 682 51 628 51 544 C51 461 108 406 195 406 L195 406 Z M195 461 C144 461 111 494 111 544 C111 594 144 627 195 627 C246 627 279 594 279 544 C279 494 246 461 195 461 L195 461 Z " />
<glyph glyph-name="plusminus" unicode="&#xb1;" horiz-adv-x="570" d="M473 376 L322 376 L322 530 C322 542 315 549 303 549 L268 549 C256 549 249 542 249 530 L249 376 L97 376 C85 376 78 369 78 357 L78 326 C78 314 85 307 97 307 L249 307 L249 153 C249 141 256 134 268 134 L303 134 C315 134 322 141 322 153 L322 307 L473 307 C485 307 492 314 492 326 L492 357 C492 369 485 376 473 376 L473 376 Z M473 70 L97 70 C85 70 78 63 78 51 L78 19 C78 7 85 0 97 0 L473 0 C485 0 492 7 492 19 L492 51 C492 63 485 70 473 70 L473 70 Z " />
<glyph glyph-name="uni00B2" unicode="&#xb2;" horiz-adv-x="359" d="M63 368 L295 368 C306 368 313 374 313 386 L313 410 C313 422 306 428 295 428 L141 428 L141 431 L254 549 C296 592 315 630 315 670 C315 733 261 777 180 777 C100 777 46 732 46 664 L46 655 C46 644 52 637 64 637 L95 637 C106 637 112 643 112 655 L112 659 C112 693 139 717 180 717 C221 717 247 695 247 663 C247 639 230 607 194 571 L54 428 C48 420 45 414 45 405 L45 386 C45 374 51 368 63 368 L63 368 Z " />
<glyph glyph-name="uni00B3" unicode="&#xb3;" horiz-adv-x="374" d="M186 361 C271 361 329 408 329 476 C329 523 303 561 262 574 L262 577 C298 590 322 626 322 668 C322 733 267 777 187 777 C106 777 52 730 52 673 L52 670 C52 659 59 653 70 653 L102 653 C113 653 118 659 120 670 C126 705 150 721 186 721 C227 721 254 697 254 659 C254 623 229 598 192 598 L148 598 C136 598 130 591 130 580 L130 564 C130 552 136 546 148 546 L201 546 C237 546 262 522 262 485 C262 445 231 417 186 417 C146 417 119 433 113 473 C111 484 105 491 94 491 L62 491 C51 491 45 485 45 473 L45 471 C45 410 101 361 186 361 L186 361 Z " />
<glyph glyph-name="acute" unicode="&#xb4;" horiz-adv-x="175" d="M25 557 L50 557 C59 557 66 559 73 567 L155 669 C165 682 159 693 143 693 L96 693 C86 693 78 689 73 679 L13 579 C6 566 11 557 25 557 L25 557 Z " />
<glyph glyph-name="uni00B5" unicode="&#xb5;" horiz-adv-x="574" d="M467 500 L420 500 C408 500 401 493 401 481 L401 175 C401 117 354 67 283 67 C216 67 172 111 172 176 L172 481 C172 493 165 500 153 500 L107 500 C95 500 88 493 88 481 L88 -161 C88 -173 95 -180 107 -180 L153 -180 C165 -180 172 -173 172 -161 L172 4 C194 -6 221 -12 250 -12 C324 -12 376 24 396 75 L401 75 L401 19 C401 7 408 0 420 0 L467 0 C479 0 486 7 486 19 L486 481 C486 493 479 500 467 500 L467 500 Z " />
<glyph glyph-name="paragraph" unicode="&#xb6;" horiz-adv-x="570" d="M337 670 L260 670 C141 670 63 588 63 463 C63 338 141 256 260 256 L298 256 L298 -151 C298 -163 305 -170 317 -170 L337 -170 C349 -170 356 -163 356 -151 L356 651 C356 663 349 670 337 670 L337 670 Z M473 670 L453 670 C441 670 434 663 434 651 L434 -151 C434 -163 441 -170 453 -170 L473 -170 C485 -170 492 -163 492 -151 L492 651 C492 663 485 670 473 670 L473 670 Z " />
<glyph glyph-name="periodcentered" unicode="&#xb7;" horiz-adv-x="266" d="M133 227 C166 227 188 249 188 282 C188 315 166 337 133 337 C100 337 78 315 78 282 C78 249 100 227 133 227 L133 227 Z " />
<glyph glyph-name="cedilla" unicode="&#xb8;" horiz-adv-x="191" d="M109 -53 L82 -53 L109 0 L107 2 L57 2 L58 0 L27 -57 C25 -62 23 -67 23 -72 L23 -77 C23 -87 29 -92 38 -92 L93 -92 C118 -92 134 -106 134 -128 C134 -154 108 -170 70 -170 C52 -170 33 -166 19 -159 C7 -156 0 -162 0 -175 L0 -185 C0 -196 5 -204 16 -207 C33 -213 56 -217 78 -217 C145 -217 191 -183 191 -130 C191 -84 159 -53 109 -53 L109 -53 Z " />
<glyph glyph-name="uni00B9" unicode="&#xb9;" horiz-adv-x="319" d="M257 428 L200 428 L200 752 C200 764 194 770 182 770 L162 770 C153 770 147 769 140 766 L70 735 C60 731 56 724 56 714 L56 692 C56 678 65 673 77 678 L131 702 L135 702 L135 428 L73 428 C61 428 55 422 55 410 L55 386 C55 374 61 368 73 368 L257 368 C268 368 275 374 275 386 L275 410 C275 422 268 428 257 428 L257 428 Z " />
<glyph glyph-name="ordmasculine" unicode="&#xba;" horiz-adv-x="432" d="M217 316 C303 316 361 370 361 449 L361 549 C361 628 303 682 217 682 C130 682 71 628 71 549 L71 449 C71 370 130 316 217 316 L217 316 Z M217 376 C169 376 138 407 138 450 L138 548 C138 591 169 622 217 622 C261 622 295 593 295 548 L295 450 C295 405 261 376 217 376 L217 376 Z " />
<glyph glyph-name="guillemotright" unicode="&#xbb;" horiz-adv-x="541" d="M73 70 L117 70 C127 70 134 74 140 82 L281 252 C288 261 288 269 281 278 L140 448 C134 456 127 460 117 460 L73 460 C58 460 52 449 61 437 L194 269 L194 261 L61 93 C52 81 58 70 73 70 L73 70 Z M285 70 L329 70 C338 70 346 74 352 82 L493 252 C500 261 500 269 493 278 L352 448 C346 456 338 460 329 460 L285 460 C270 460 264 449 273 437 L406 269 L406 261 L273 93 C264 81 270 70 285 70 L285 70 Z " />
<glyph glyph-name="onequarter" unicode="&#xbc;" horiz-adv-x="883" d="M275 286 L275 310 C275 322 268 328 257 328 L200 328 L200 652 C200 664 194 670 182 670 L162 670 C153 670 147 669 140 666 L70 635 C60 631 56 624 56 614 L56 592 C56 578 65 573 77 578 L131 602 L135 602 L135 328 L73 328 C61 328 55 322 55 310 L55 286 C55 274 61 268 73 268 L257 268 C268 268 275 274 275 286 L275 286 Z M650 670 L611 670 C604 670 598 667 594 660 L237 17 C232 7 236 0 247 0 L286 0 C293 0 299 3 303 10 L660 653 C665 663 660 670 650 670 L650 670 Z M821 146 L791 146 L791 384 C791 396 784 402 773 402 L719 402 C709 402 703 398 697 390 L539 147 C535 139 533 133 533 124 L533 106 C533 94 539 88 551 88 L726 88 L726 18 C726 6 733 0 744 0 L773 0 C784 0 791 6 791 18 L791 88 L821 88 C832 88 839 94 839 106 L839 127 C839 139 832 146 821 146 L821 146 Z M601 146 L601 149 L724 334 L729 334 L726 308 L726 146 L601 146 Z " />
<glyph glyph-name="onehalf" unicode="&#xbd;" horiz-adv-x="910" d="M275 286 L275 310 C275 322 268 328 257 328 L200 328 L200 652 C200 664 194 670 182 670 L162 670 C153 670 147 669 140 666 L70 635 C60 631 56 624 56 614 L56 592 C56 578 65 573 77 578 L131 602 L135 602 L135 328 L73 328 C61 328 55 322 55 310 L55 286 C55 274 61 268 73 268 L257 268 C268 268 275 274 275 286 L275 286 Z M650 670 L611 670 C604 670 598 667 594 660 L237 17 C232 7 236 0 247 0 L286 0 C293 0 299 3 303 10 L660 653 C665 663 660 670 650 670 L650 670 Z M846 60 L692 60 L692 63 L805 181 C847 224 866 262 866 302 C866 365 812 409 731 409 C651 409 597 364 597 296 L597 287 C597 276 603 269 615 269 L646 269 C657 269 663 275 663 287 L663 291 C663 325 690 349 731 349 C772 349 798 327 798 295 C798 271 781 239 745 203 L605 60 C599 52 596 46 596 37 L596 18 C596 6 602 0 614 0 L846 0 C857 0 864 6 864 18 L864 42 C864 54 857 60 846 60 L846 60 Z " />
<glyph glyph-name="threequarters" unicode="&#xbe;" horiz-adv-x="911" d="M329 376 C329 423 303 461 262 474 L262 477 C298 490 322 526 322 568 C322 633 267 677 187 677 C106 677 52 630 52 573 L52 570 C52 559 59 553 70 553 L102 553 C113 553 118 559 120 570 C126 605 150 621 186 621 C227 621 254 597 254 559 C254 523 229 498 192 498 L148 498 C136 498 130 491 130 480 L130 464 C130 452 136 446 148 446 L201 446 C237 446 262 422 262 385 C262 345 231 317 186 317 C146 317 119 333 113 373 C111 384 105 391 94 391 L62 391 C51 391 45 385 45 373 L45 371 C45 310 101 261 186 261 C271 261 329 308 329 376 L329 376 Z M678 670 L639 670 C632 670 626 667 622 660 L265 17 C260 7 264 0 275 0 L314 0 C321 0 327 3 331 10 L688 653 C693 663 688 670 678 670 L678 670 Z M849 146 L819 146 L819 384 C819 396 812 402 801 402 L747 402 C737 402 731 398 725 390 L567 147 C563 139 561 133 561 124 L561 106 C561 94 567 88 579 88 L754 88 L754 18 C754 6 761 0 772 0 L801 0 C812 0 819 6 819 18 L819 88 L849 88 C860 88 867 94 867 106 L867 127 C867 139 860 146 849 146 L849 146 Z M629 146 L629 149 L752 334 L757 334 L754 308 L754 146 L629 146 Z " />
<glyph glyph-name="questiondown" unicode="&#xbf;" horiz-adv-x="521" d="M267 506 C233 506 211 484 211 450 C211 416 233 394 267 394 C300 394 323 416 323 450 C323 484 300 506 267 506 L267 506 Z M290 320 L243 320 C233 320 225 316 225 306 L225 274 C225 159 48 145 48 -5 C48 -115 135 -182 263 -182 C398 -182 482 -121 482 6 C482 18 475 25 463 25 L411 25 C402 25 398 20 396 13 C393 -65 346 -105 264 -105 C187 -105 135 -64 135 1 C135 116 309 120 309 264 L309 300 C309 313 302 320 290 320 L290 320 Z " />
<glyph glyph-name="Agrave" unicode="&#xc0;" horiz-adv-x="643" d="M288 737 C294 729 302 727 311 727 L335 727 C350 727 355 736 348 749 L288 849 C283 859 275 863 266 863 L217 863 C201 863 196 852 206 839 L288 737 Z M599 23 L385 652 C382 665 375 670 362 670 L281 670 C268 670 261 665 258 652 L44 23 C40 8 47 0 62 0 L112 0 C123 0 130 6 133 17 L181 167 L458 167 L507 17 C510 6 517 0 528 0 L581 0 C596 0 603 8 599 23 L599 23 Z M206 244 L316 585 L323 585 L433 244 L206 244 Z " />
<glyph glyph-name="Aacute" unicode="&#xc1;" horiz-adv-x="643" d="M307 727 L332 727 C341 727 348 729 355 737 L437 839 C447 852 441 863 425 863 L378 863 C368 863 360 859 355 849 L295 749 C288 736 293 727 307 727 L307 727 Z M599 23 L385 652 C382 665 375 670 362 670 L281 670 C268 670 261 665 258 652 L44 23 C40 8 47 0 62 0 L112 0 C123 0 130 6 133 17 L181 167 L458 167 L507 17 C510 6 517 0 528 0 L581 0 C596 0 603 8 599 23 L599 23 Z M206 244 L316 585 L323 585 L433 244 L206 244 Z " />
<glyph glyph-name="Acircumflex" unicode="&#xc2;" horiz-adv-x="643" d="M193 727 L220 727 C230 727 237 729 244 737 L318 811 L324 811 L399 737 C405 729 413 727 422 727 L450 727 C465 727 470 738 460 750 L375 851 C370 859 362 863 353 863 L290 863 C280 863 273 859 267 851 L182 750 C173 738 178 727 193 727 L193 727 Z M599 23 L385 652 C382 665 375 670 362 670 L281 670 C268 670 261 665 258 652 L44 23 C40 8 47 0 62 0 L112 0 C123 0 130 6 133 17 L181 167 L458 167 L507 17 C510 6 517 0 528 0 L581 0 C596 0 603 8 599 23 L599 23 Z M206 244 L316 585 L323 585 L433 244 L206 244 Z " />
<glyph glyph-name="Atilde" unicode="&#xc3;" horiz-adv-x="643" d="M172 746 L202 746 C213 746 217 750 220 758 C223 781 239 794 262 794 C304 794 340 741 399 741 C451 741 481 775 486 835 C487 849 481 856 472 856 L442 856 C431 856 427 852 424 844 C421 821 405 808 382 808 C337 808 304 860 245 860 C192 860 161 825 157 762 C157 752 163 746 172 746 L172 746 Z M599 23 L385 652 C382 665 375 670 362 670 L281 670 C268 670 261 665 258 652 L44 23 C40 8 47 0 62 0 L112 0 C123 0 130 6 133 17 L181 167 L458 167 L507 17 C510 6 517 0 528 0 L581 0 C596 0 603 8 599 23 L599 23 Z M206 244 L316 585 L323 585 L433 244 L206 244 Z " />
<glyph glyph-name="Adieresis" unicode="&#xc4;" horiz-adv-x="643" d="M232 746 C262 746 281 765 281 795 C281 824 262 844 232 844 C203 844 183 824 183 795 C183 765 203 746 232 746 L232 746 Z M411 746 C440 746 460 765 460 795 C460 824 440 844 411 844 C381 844 361 824 361 795 C361 765 381 746 411 746 L411 746 Z M599 23 L385 652 C382 665 375 670 362 670 L281 670 C268 670 261 665 258 652 L44 23 C40 8 47 0 62 0 L112 0 C123 0 130 6 133 17 L181 167 L458 167 L507 17 C510 6 517 0 528 0 L581 0 C596 0 603 8 599 23 L599 23 Z M206 244 L316 585 L323 585 L433 244 L206 244 Z " />
<glyph glyph-name="Aring" unicode="&#xc5;" horiz-adv-x="643" d="M322 721 C381 721 422 759 422 817 C422 875 381 913 322 913 C261 913 221 875 221 817 C221 759 261 721 322 721 L322 721 Z M322 872 C354 872 377 850 377 817 C377 784 354 762 322 762 C288 762 266 784 266 817 C266 850 288 872 322 872 L322 872 Z M599 23 L385 652 C382 665 375 670 362 670 L281 670 C268 670 261 665 258 652 L44 23 C40 8 47 0 62 0 L112 0 C123 0 130 6 133 17 L181 167 L458 167 L507 17 C510 6 517 0 528 0 L581 0 C596 0 603 8 599 23 L599 23 Z M206 244 L316 585 L323 585 L433 244 L206 244 Z " />
<glyph glyph-name="AE" unicode="&#xc6;" horiz-adv-x="898" d="M809 592 C822 592 830 600 830 613 L830 649 C830 662 822 670 809 670 L378 670 C366 670 358 666 353 654 L16 24 C9 9 15 0 31 0 L83 0 C95 0 103 4 108 17 L187 167 L420 167 L420 21 C420 8 428 0 441 0 L809 0 C822 0 830 8 830 21 L830 57 C830 70 822 78 809 78 L505 78 L505 301 L772 301 C785 301 793 308 793 322 L793 354 C793 368 785 375 772 375 L505 375 L505 592 L809 592 Z M228 244 L412 592 L420 592 L420 244 L228 244 Z " />
<glyph glyph-name="Ccedilla" unicode="&#xc7;" horiz-adv-x="630" d="M546 241 L499 241 C488 241 482 235 480 222 C477 122 418 66 317 66 C217 66 152 127 152 220 L152 450 C152 543 217 604 317 604 C416 604 477 549 480 448 C482 435 488 429 499 429 L546 429 C558 429 565 436 565 448 C565 601 468 682 317 682 C167 682 68 591 68 452 L68 218 C68 90 152 3 282 -10 L257 -57 C255 -62 253 -67 253 -72 L253 -77 C253 -87 259 -92 268 -92 L323 -92 C348 -92 364 -106 364 -128 C364 -154 338 -170 300 -170 C282 -170 263 -166 249 -159 C237 -156 230 -162 230 -175 L230 -185 C230 -196 235 -204 246 -207 C263 -213 286 -217 308 -217 C375 -217 421 -183 421 -130 C421 -84 389 -53 339 -53 L312 -53 L333 -12 C473 -6 565 71 565 220 C565 233 558 241 546 241 L546 241 Z " />
<glyph glyph-name="Egrave" unicode="&#xc8;" horiz-adv-x="566" d="M265 737 C271 729 279 727 288 727 L312 727 C327 727 332 736 325 749 L265 849 C260 859 252 863 243 863 L194 863 C178 863 173 852 183 839 L265 737 Z M483 592 C496 592 503 600 503 612 L503 650 C503 662 496 670 483 670 L114 670 C102 670 94 662 94 650 L94 20 C94 8 102 0 114 0 L483 0 C496 0 503 8 503 20 L503 58 C503 70 496 78 483 78 L178 78 L178 299 L446 299 C459 299 466 307 466 320 L466 356 C466 369 459 377 446 377 L178 377 L178 592 L483 592 Z " />
<glyph glyph-name="Eacute" unicode="&#xc9;" horiz-adv-x="566" d="M284 727 L309 727 C318 727 325 729 332 737 L414 839 C424 852 418 863 402 863 L355 863 C345 863 337 859 332 849 L272 749 C265 736 270 727 284 727 L284 727 Z M483 592 C496 592 503 600 503 612 L503 650 C503 662 496 670 483 670 L114 670 C102 670 94 662 94 650 L94 20 C94 8 102 0 114 0 L483 0 C496 0 503 8 503 20 L503 58 C503 70 496 78 483 78 L178 78 L178 299 L446 299 C459 299 466 307 466 320 L466 356 C466 369 459 377 446 377 L178 377 L178 592 L483 592 Z " />
<glyph glyph-name="Ecircumflex" unicode="&#xca;" horiz-adv-x="566" d="M171 727 L198 727 C208 727 215 729 222 737 L296 811 L302 811 L377 737 C383 729 391 727 400 727 L428 727 C443 727 448 738 438 750 L353 851 C348 859 340 863 331 863 L268 863 C258 863 251 859 245 851 L160 750 C151 738 156 727 171 727 L171 727 Z M483 592 C496 592 503 600 503 612 L503 650 C503 662 496 670 483 670 L114 670 C102 670 94 662 94 650 L94 20 C94 8 102 0 114 0 L483 0 C496 0 503 8 503 20 L503 58 C503 70 496 78 483 78 L178 78 L178 299 L446 299 C459 299 466 307 466 320 L466 356 C466 369 459 377 446 377 L178 377 L178 592 L483 592 Z " />
<glyph glyph-name="Edieresis" unicode="&#xcb;" horiz-adv-x="566" d="M210 746 C240 746 259 765 259 795 C259 824 240 844 210 844 C181 844 161 824 161 795 C161 765 181 746 210 746 L210 746 Z M389 746 C418 746 438 765 438 795 C438 824 418 844 389 844 C359 844 339 824 339 795 C339 765 359 746 389 746 L389 746 Z M483 592 C496 592 503 600 503 612 L503 650 C503 662 496 670 483 670 L114 670 C102 670 94 662 94 650 L94 20 C94 8 102 0 114 0 L483 0 C496 0 503 8 503 20 L503 58 C503 70 496 78 483 78 L178 78 L178 299 L446 299 C459 299 466 307 466 320 L466 356 C466 369 459 377 446 377 L178 377 L178 592 L483 592 Z " />
<glyph glyph-name="Igrave" unicode="&#xcc;" horiz-adv-x="273" d="M126 727 L150 727 C165 727 170 736 163 749 L103 849 C98 859 90 863 81 863 L32 863 C16 863 11 852 21 839 L103 737 C109 729 117 727 126 727 L126 727 Z M115 0 L158 0 C171 0 178 8 178 21 L178 649 C178 662 171 670 158 670 L115 670 C102 670 94 662 94 649 L94 21 C94 8 102 0 115 0 L115 0 Z " />
<glyph glyph-name="Iacute" unicode="&#xcd;" horiz-adv-x="273" d="M122 727 L147 727 C156 727 163 729 170 737 L252 839 C262 852 256 863 240 863 L193 863 C183 863 175 859 170 849 L110 749 C103 736 108 727 122 727 L122 727 Z M115 0 L158 0 C171 0 178 8 178 21 L178 649 C178 662 171 670 158 670 L115 670 C102 670 94 662 94 649 L94 21 C94 8 102 0 115 0 L115 0 Z " />
<glyph glyph-name="Icircumflex" unicode="&#xce;" horiz-adv-x="273" d="M8 727 L35 727 C45 727 52 729 59 737 L133 811 L139 811 L214 737 C220 729 228 727 237 727 L265 727 C280 727 285 738 275 750 L190 851 C185 859 177 863 168 863 L105 863 C95 863 88 859 82 851 L-3 750 C-12 738 -7 727 8 727 L8 727 Z M115 0 L158 0 C171 0 178 8 178 21 L178 649 C178 662 171 670 158 670 L115 670 C102 670 94 662 94 649 L94 21 C94 8 102 0 115 0 L115 0 Z " />
<glyph glyph-name="Idieresis" unicode="&#xcf;" horiz-adv-x="273" d="M47 746 C77 746 96 765 96 795 C96 824 77 844 47 844 C18 844 -2 824 -2 795 C-2 765 18 746 47 746 L47 746 Z M226 746 C255 746 275 765 275 795 C275 824 255 844 226 844 C196 844 176 824 176 795 C176 765 196 746 226 746 L226 746 Z M115 0 L158 0 C171 0 178 8 178 21 L178 649 C178 662 171 670 158 670 L115 670 C102 670 94 662 94 649 L94 21 C94 8 102 0 115 0 L115 0 Z " />
<glyph glyph-name="Eth" unicode="&#xd0;" horiz-adv-x="649" d="M331 670 L115 670 C102 670 94 662 94 649 L94 370 L45 370 C33 370 26 363 26 351 L26 319 C26 307 33 300 45 300 L94 300 L94 21 C94 8 102 0 115 0 L331 0 C482 0 582 92 582 234 L582 436 C582 578 482 670 331 670 L331 670 Z M498 237 C498 140 431 78 329 78 L178 78 L178 300 L295 300 C307 300 314 307 314 319 L314 351 C314 363 307 370 295 370 L178 370 L178 592 L329 592 C431 592 498 530 498 433 L498 237 Z " />
<glyph glyph-name="Ntilde" unicode="&#xd1;" horiz-adv-x="679" d="M416 741 C468 741 498 775 503 835 C504 849 498 856 489 856 L459 856 C448 856 444 852 441 844 C438 821 422 808 399 808 C354 808 321 860 262 860 C209 860 178 825 174 762 C174 752 180 746 189 746 L219 746 C230 746 234 750 237 758 C240 781 256 794 279 794 C321 794 357 741 416 741 L416 741 Z M113 0 L159 0 C171 0 178 7 178 19 L178 491 L174 534 L181 534 L475 14 C479 4 488 0 498 0 L565 0 C577 0 584 7 584 19 L584 651 C584 663 577 670 565 670 L519 670 C507 670 500 663 500 651 L500 179 L505 136 L497 136 L203 656 C199 666 191 670 181 670 L113 670 C101 670 94 663 94 651 L94 19 C94 7 101 0 113 0 L113 0 Z " />
<glyph glyph-name="Ograve" unicode="&#xd2;" horiz-adv-x="643" d="M311 727 L335 727 C350 727 355 736 348 749 L288 849 C283 859 275 863 266 863 L217 863 C201 863 196 852 206 839 L288 737 C294 729 302 727 311 727 L311 727 Z M322 -12 C475 -12 575 81 575 223 L575 447 C575 589 475 682 322 682 C169 682 68 589 68 447 L68 223 C68 81 169 -12 322 -12 L322 -12 Z M322 66 C219 66 152 129 152 225 L152 445 C152 541 219 604 322 604 C424 604 491 541 491 445 L491 225 C491 129 424 66 322 66 L322 66 Z " />
<glyph glyph-name="Oacute" unicode="&#xd3;" horiz-adv-x="643" d="M307 727 L332 727 C341 727 348 729 355 737 L437 839 C447 852 441 863 425 863 L378 863 C368 863 360 859 355 849 L295 749 C288 736 293 727 307 727 L307 727 Z M322 -12 C475 -12 575 81 575 223 L575 447 C575 589 475 682 322 682 C169 682 68 589 68 447 L68 223 C68 81 169 -12 322 -12 L322 -12 Z M322 66 C219 66 152 129 152 225 L152 445 C152 541 219 604 322 604 C424 604 491 541 491 445 L491 225 C491 129 424 66 322 66 L322 66 Z " />
<glyph glyph-name="Ocircumflex" unicode="&#xd4;" horiz-adv-x="643" d="M193 727 L220 727 C230 727 237 729 244 737 L318 811 L324 811 L399 737 C405 729 413 727 422 727 L450 727 C465 727 470 738 460 750 L375 851 C370 859 362 863 353 863 L290 863 C280 863 273 859 267 851 L182 750 C173 738 178 727 193 727 L193 727 Z M322 -12 C475 -12 575 81 575 223 L575 447 C575 589 475 682 322 682 C169 682 68 589 68 447 L68 223 C68 81 169 -12 322 -12 L322 -12 Z M322 66 C219 66 152 129 152 225 L152 445 C152 541 219 604 322 604 C424 604 491 541 491 445 L491 225 C491 129 424 66 322 66 L322 66 Z " />
<glyph glyph-name="Otilde" unicode="&#xd5;" horiz-adv-x="643" d="M399 741 C451 741 481 775 486 835 C487 849 481 856 472 856 L442 856 C431 856 427 852 424 844 C421 821 405 808 382 808 C337 808 304 860 245 860 C192 860 161 825 157 762 C157 752 163 746 172 746 L202 746 C213 746 217 750 220 758 C223 781 239 794 262 794 C304 794 340 741 399 741 L399 741 Z M322 -12 C475 -12 575 81 575 223 L575 447 C575 589 475 682 322 682 C169 682 68 589 68 447 L68 223 C68 81 169 -12 322 -12 L322 -12 Z M322 66 C219 66 152 129 152 225 L152 445 C152 541 219 604 322 604 C424 604 491 541 491 445 L491 225 C491 129 424 66 322 66 L322 66 Z " />
<glyph glyph-name="Odieresis" unicode="&#xd6;" horiz-adv-x="643" d="M232 746 C262 746 281 765 281 795 C281 824 262 844 232 844 C203 844 183 824 183 795 C183 765 203 746 232 746 L232 746 Z M411 746 C440 746 460 765 460 795 C460 824 440 844 411 844 C381 844 361 824 361 795 C361 765 381 746 411 746 L411 746 Z M322 -12 C475 -12 575 81 575 223 L575 447 C575 589 475 682 322 682 C169 682 68 589 68 447 L68 223 C68 81 169 -12 322 -12 L322 -12 Z M322 66 C219 66 152 129 152 225 L152 445 C152 541 219 604 322 604 C424 604 491 541 491 445 L491 225 C491 129 424 66 322 66 L322 66 Z " />
<glyph glyph-name="multiply" unicode="&#xd7;" horiz-adv-x="486" d="M294 298 L402 406 C410 415 410 424 402 433 L378 457 C370 465 360 465 351 457 L243 349 L135 456 C126 466 117 465 108 456 L85 433 C77 424 76 416 85 406 L193 299 L84 190 C76 181 76 171 84 163 L108 139 C117 131 127 131 135 139 L244 248 L351 140 C360 130 370 131 378 140 L401 163 C410 172 410 180 401 190 L294 298 Z " />
<glyph glyph-name="Oslash" unicode="&#xd8;" horiz-adv-x="643" d="M517 606 L556 671 C566 688 558 700 543 700 L521 700 C508 700 499 695 493 683 L470 645 C430 669 380 682 322 682 C169 682 68 589 68 447 L68 223 C68 159 89 104 126 64 L87 -1 C77 -18 85 -30 100 -30 L122 -30 C135 -30 144 -25 150 -13 L173 26 C213 1 264 -12 322 -12 C475 -12 575 81 575 223 L575 447 C575 512 554 566 517 606 L517 606 Z M152 225 L152 445 C152 541 219 604 322 604 C364 604 400 593 428 574 L172 143 C159 166 152 194 152 225 L152 225 Z M491 225 C491 129 424 66 322 66 C279 66 243 77 215 96 L471 527 C484 504 491 476 491 445 L491 225 Z " />
<glyph glyph-name="Ugrave" unicode="&#xd9;" horiz-adv-x="654" d="M317 727 L341 727 C356 727 361 736 354 749 L294 849 C289 859 281 863 272 863 L223 863 C207 863 202 852 212 839 L294 737 C300 729 308 727 317 727 L317 727 Z M327 -12 C474 -12 571 77 571 213 L571 649 C571 662 563 670 550 670 L507 670 C494 670 486 662 486 649 L486 215 C486 125 423 66 327 66 C231 66 167 125 167 215 L167 649 C167 662 160 670 146 670 L104 670 C91 670 83 662 83 649 L83 213 C83 77 180 -12 327 -12 L327 -12 Z " />
<glyph glyph-name="Uacute" unicode="&#xda;" horiz-adv-x="654" d="M312 727 L337 727 C346 727 353 729 360 737 L442 839 C452 852 446 863 430 863 L383 863 C373 863 365 859 360 849 L300 749 C293 736 298 727 312 727 L312 727 Z M327 -12 C474 -12 571 77 571 213 L571 649 C571 662 563 670 550 670 L507 670 C494 670 486 662 486 649 L486 215 C486 125 423 66 327 66 C231 66 167 125 167 215 L167 649 C167 662 160 670 146 670 L104 670 C91 670 83 662 83 649 L83 213 C83 77 180 -12 327 -12 L327 -12 Z " />
<glyph glyph-name="Ucircumflex" unicode="&#xdb;" horiz-adv-x="654" d="M199 727 L226 727 C236 727 243 729 250 737 L324 811 L330 811 L405 737 C411 729 419 727 428 727 L456 727 C471 727 476 738 466 750 L381 851 C376 859 368 863 359 863 L296 863 C286 863 279 859 273 851 L188 750 C179 738 184 727 199 727 L199 727 Z M327 -12 C474 -12 571 77 571 213 L571 649 C571 662 563 670 550 670 L507 670 C494 670 486 662 486 649 L486 215 C486 125 423 66 327 66 C231 66 167 125 167 215 L167 649 C167 662 160 670 146 670 L104 670 C91 670 83 662 83 649 L83 213 C83 77 180 -12 327 -12 L327 -12 Z " />
<glyph glyph-name="Udieresis" unicode="&#xdc;" horiz-adv-x="654" d="M238 746 C268 746 287 765 287 795 C287 824 268 844 238 844 C209 844 189 824 189 795 C189 765 209 746 238 746 L238 746 Z M417 746 C446 746 466 765 466 795 C466 824 446 844 417 844 C387 844 367 824 367 795 C367 765 387 746 417 746 L417 746 Z M327 -12 C474 -12 571 77 571 213 L571 649 C571 662 563 670 550 670 L507 670 C494 670 486 662 486 649 L486 215 C486 125 423 66 327 66 C231 66 167 125 167 215 L167 649 C167 662 160 670 146 670 L104 670 C91 670 83 662 83 649 L83 213 C83 77 180 -12 327 -12 L327 -12 Z " />
<glyph glyph-name="Yacute" unicode="&#xdd;" horiz-adv-x="587" d="M279 727 L304 727 C313 727 320 729 327 737 L409 839 C419 852 413 863 397 863 L350 863 C340 863 332 859 327 849 L267 749 C260 736 265 727 279 727 L279 727 Z M273 0 L315 0 C328 0 336 8 336 21 L336 280 L545 646 C552 660 545 670 529 670 L481 670 C470 670 461 665 456 654 L299 371 L293 371 L134 654 C130 665 121 670 110 670 L58 670 C42 670 35 660 43 646 L252 279 L252 21 C252 8 259 0 273 0 L273 0 Z " />
<glyph glyph-name="Thorn" unicode="&#xde;" horiz-adv-x="615" d="M367 546 L178 546 L178 649 C178 662 171 670 158 670 L115 670 C102 670 94 662 94 649 L94 21 C94 8 102 0 115 0 L158 0 C171 0 178 8 178 21 L178 124 L367 124 C491 124 573 209 573 336 C573 463 491 546 367 546 L367 546 Z M359 203 L178 203 L178 467 L359 467 C438 467 489 416 489 335 C489 254 438 203 359 203 L359 203 Z " />
<glyph glyph-name="germandbls" unicode="&#xdf;" horiz-adv-x="537" d="M92 0 L134 0 C146 0 153 7 153 19 L153 494 C153 564 200 611 273 611 C345 611 392 565 392 495 C392 427 347 381 280 381 L261 381 C254 381 249 377 249 370 L249 328 C249 319 255 314 263 314 L297 314 C369 314 416 265 416 192 C416 119 369 71 297 71 L256 71 C247 71 241 65 241 55 L241 19 C241 7 248 0 260 0 L309 0 C422 0 496 71 496 179 C496 265 447 334 373 348 L373 354 C433 372 472 430 472 503 C472 611 393 682 274 682 C152 682 73 611 73 502 L73 19 C73 7 80 0 92 0 L92 0 Z " />
<glyph glyph-name="agrave" unicode="&#xe0;" horiz-adv-x="523" d="M227 567 C233 559 241 557 250 557 L274 557 C289 557 294 566 287 579 L227 679 C222 689 214 693 205 693 L156 693 C140 693 135 682 145 669 L227 567 Z M258 512 C147 512 66 458 66 371 C66 359 73 352 85 352 L126 352 C137 352 143 358 146 369 C152 416 194 442 256 442 C330 442 374 401 374 337 L374 281 L214 281 C111 281 46 224 46 134 C46 44 112 -12 215 -12 C293 -12 350 23 371 77 L378 77 L378 19 C378 7 385 0 397 0 L435 0 C447 0 454 7 454 19 L454 346 C454 446 378 512 258 512 L258 512 Z M239 56 C170 56 127 87 127 139 C127 188 163 218 223 218 L374 218 L374 156 C374 99 321 56 239 56 L239 56 Z " />
<glyph glyph-name="aacute" unicode="&#xe1;" horiz-adv-x="523" d="M246 557 L271 557 C280 557 287 559 294 567 L376 669 C386 682 380 693 364 693 L317 693 C307 693 299 689 294 679 L234 579 C227 566 232 557 246 557 L246 557 Z M258 512 C147 512 66 458 66 371 C66 359 73 352 85 352 L126 352 C137 352 143 358 146 369 C152 416 194 442 256 442 C330 442 374 401 374 337 L374 281 L214 281 C111 281 46 224 46 134 C46 44 112 -12 215 -12 C293 -12 350 23 371 77 L378 77 L378 19 C378 7 385 0 397 0 L435 0 C447 0 454 7 454 19 L454 346 C454 446 378 512 258 512 L258 512 Z M239 56 C170 56 127 87 127 139 C127 188 163 218 223 218 L374 218 L374 156 C374 99 321 56 239 56 L239 56 Z " />
<glyph glyph-name="acircumflex" unicode="&#xe2;" horiz-adv-x="523" d="M133 557 L160 557 C170 557 177 559 184 567 L258 641 L264 641 L339 567 C345 559 353 557 362 557 L390 557 C405 557 410 568 400 580 L315 681 C310 689 302 693 293 693 L230 693 C220 693 213 689 207 681 L122 580 C113 568 118 557 133 557 L133 557 Z M258 512 C147 512 66 458 66 371 C66 359 73 352 85 352 L126 352 C137 352 143 358 146 369 C152 416 194 442 256 442 C330 442 374 401 374 337 L374 281 L214 281 C111 281 46 224 46 134 C46 44 112 -12 215 -12 C293 -12 350 23 371 77 L378 77 L378 19 C378 7 385 0 397 0 L435 0 C447 0 454 7 454 19 L454 346 C454 446 378 512 258 512 L258 512 Z M239 56 C170 56 127 87 127 139 C127 188 163 218 223 218 L374 218 L374 156 C374 99 321 56 239 56 L239 56 Z " />
<glyph glyph-name="atilde" unicode="&#xe3;" horiz-adv-x="523" d="M111 576 L141 576 C152 576 156 580 159 588 C162 611 178 624 201 624 C243 624 279 571 338 571 C390 571 420 605 425 665 C426 679 420 686 411 686 L381 686 C370 686 366 682 363 674 C360 651 344 638 321 638 C276 638 243 690 184 690 C131 690 100 655 96 592 C96 582 102 576 111 576 L111 576 Z M258 512 C147 512 66 458 66 371 C66 359 73 352 85 352 L126 352 C137 352 143 358 146 369 C152 416 194 442 256 442 C330 442 374 401 374 337 L374 281 L214 281 C111 281 46 224 46 134 C46 44 112 -12 215 -12 C293 -12 350 23 371 77 L378 77 L378 19 C378 7 385 0 397 0 L435 0 C447 0 454 7 454 19 L454 346 C454 446 378 512 258 512 L258 512 Z M239 56 C170 56 127 87 127 139 C127 188 163 218 223 218 L374 218 L374 156 C374 99 321 56 239 56 L239 56 Z " />
<glyph glyph-name="adieresis" unicode="&#xe4;" horiz-adv-x="523" d="M172 576 C202 576 221 595 221 625 C221 654 202 674 172 674 C143 674 123 654 123 625 C123 595 143 576 172 576 L172 576 Z M351 576 C380 576 400 595 400 625 C400 654 380 674 351 674 C321 674 301 654 301 625 C301 595 321 576 351 576 L351 576 Z M258 512 C147 512 66 458 66 371 C66 359 73 352 85 352 L126 352 C137 352 143 358 146 369 C152 416 194 442 256 442 C330 442 374 401 374 337 L374 281 L214 281 C111 281 46 224 46 134 C46 44 112 -12 215 -12 C293 -12 350 23 371 77 L378 77 L378 19 C378 7 385 0 397 0 L435 0 C447 0 454 7 454 19 L454 346 C454 446 378 512 258 512 L258 512 Z M239 56 C170 56 127 87 127 139 C127 188 163 218 223 218 L374 218 L374 156 C374 99 321 56 239 56 L239 56 Z " />
<glyph glyph-name="aring" unicode="&#xe5;" horiz-adv-x="523" d="M261 551 C320 551 361 589 361 647 C361 705 320 743 261 743 C200 743 160 705 160 647 C160 589 200 551 261 551 L261 551 Z M261 702 C293 702 316 680 316 647 C316 614 293 592 261 592 C227 592 205 614 205 647 C205 680 227 702 261 702 L261 702 Z M258 512 C147 512 66 458 66 371 C66 359 73 352 85 352 L126 352 C137 352 143 358 146 369 C152 416 194 442 256 442 C330 442 374 401 374 337 L374 281 L214 281 C111 281 46 224 46 134 C46 44 112 -12 215 -12 C293 -12 350 23 371 77 L378 77 L378 19 C378 7 385 0 397 0 L435 0 C447 0 454 7 454 19 L454 346 C454 446 378 512 258 512 L258 512 Z M239 56 C170 56 127 87 127 139 C127 188 163 218 223 218 L374 218 L374 156 C374 99 321 56 239 56 L239 56 Z " />
<glyph glyph-name="ae" unicode="&#xe6;" horiz-adv-x="838" d="M763 218 C775 218 782 225 782 237 L782 328 C782 439 701 512 585 512 C503 512 438 475 417 419 L412 419 C391 474 330 512 245 512 C142 512 67 465 66 371 C66 359 73 352 85 352 L125 352 C137 352 143 358 146 369 C152 416 189 442 255 442 C328 442 375 399 375 334 L375 283 L212 283 C112 283 46 225 46 136 C46 47 118 -12 227 -12 C315 -12 389 25 412 82 L417 82 C438 25 506 -12 591 -12 C697 -12 772 39 780 130 C782 143 774 150 762 150 L719 150 C708 150 702 144 699 133 C690 86 648 58 584 58 C505 58 455 103 455 172 L455 218 L763 218 Z M579 442 C653 442 702 397 702 329 L702 283 L455 283 L455 329 C455 397 504 442 579 442 L579 442 Z M241 56 C172 56 127 89 127 140 C127 187 164 218 221 218 L375 218 L375 157 C375 96 320 56 241 56 L241 56 Z " />
<glyph glyph-name="ccedilla" unicode="&#xe7;" horiz-adv-x="506" d="M437 183 L395 183 C383 183 377 177 376 168 C374 101 326 62 256 62 C183 62 136 106 136 173 L136 327 C136 394 183 438 256 438 C324 438 374 400 376 332 C377 323 383 317 395 317 L437 317 C449 317 456 325 456 337 C456 449 373 512 256 512 C135 512 56 439 56 328 L56 172 C56 72 121 2 223 -10 L197 -57 C195 -62 193 -67 193 -72 L193 -77 C193 -87 199 -92 208 -92 L263 -92 C288 -92 304 -106 304 -128 C304 -154 278 -170 240 -170 C222 -170 203 -166 189 -159 C177 -156 170 -162 170 -175 L170 -185 C170 -196 175 -204 186 -207 C203 -213 226 -217 248 -217 C315 -217 361 -183 361 -130 C361 -84 329 -53 279 -53 L252 -53 L273 -12 C379 -6 456 55 456 162 C456 175 449 183 437 183 L437 183 Z " />
<glyph glyph-name="egrave" unicode="&#xe8;" horiz-adv-x="518" d="M226 567 C232 559 240 557 249 557 L273 557 C288 557 293 566 286 579 L226 679 C221 689 213 693 204 693 L155 693 C139 693 134 682 144 669 L226 567 Z M443 220 C455 220 462 227 462 239 L462 326 C462 438 382 512 259 512 C136 512 55 438 55 326 L55 174 C55 62 137 -12 262 -12 C374 -12 454 42 462 133 C462 143 455 149 443 149 L400 149 C389 149 383 143 380 132 C372 87 327 58 262 58 C185 58 135 103 135 172 L135 220 L443 220 Z M259 442 C334 442 382 397 382 329 L382 287 L135 287 L135 329 C135 397 185 442 259 442 L259 442 Z " />
<glyph glyph-name="eacute" unicode="&#xe9;" horiz-adv-x="518" d="M244 557 L269 557 C278 557 285 559 292 567 L374 669 C384 682 378 693 362 693 L315 693 C305 693 297 689 292 679 L232 579 C225 566 230 557 244 557 L244 557 Z M443 220 C455 220 462 227 462 239 L462 326 C462 438 382 512 259 512 C136 512 55 438 55 326 L55 174 C55 62 137 -12 262 -12 C374 -12 454 42 462 133 C462 143 455 149 443 149 L400 149 C389 149 383 143 380 132 C372 87 327 58 262 58 C185 58 135 103 135 172 L135 220 L443 220 Z M259 442 C334 442 382 397 382 329 L382 287 L135 287 L135 329 C135 397 185 442 259 442 L259 442 Z " />
<glyph glyph-name="ecircumflex" unicode="&#xea;" horiz-adv-x="518" d="M131 557 L158 557 C168 557 175 559 182 567 L256 641 L262 641 L337 567 C343 559 351 557 360 557 L388 557 C403 557 408 568 398 580 L313 681 C308 689 300 693 291 693 L228 693 C218 693 211 689 205 681 L120 580 C111 568 116 557 131 557 L131 557 Z M443 220 C455 220 462 227 462 239 L462 326 C462 438 382 512 259 512 C136 512 55 438 55 326 L55 174 C55 62 137 -12 262 -12 C374 -12 454 42 462 133 C462 143 455 149 443 149 L400 149 C389 149 383 143 380 132 C372 87 327 58 262 58 C185 58 135 103 135 172 L135 220 L443 220 Z M259 442 C334 442 382 397 382 329 L382 287 L135 287 L135 329 C135 397 185 442 259 442 L259 442 Z " />
<glyph glyph-name="edieresis" unicode="&#xeb;" horiz-adv-x="518" d="M170 576 C200 576 219 595 219 625 C219 654 200 674 170 674 C141 674 121 654 121 625 C121 595 141 576 170 576 L170 576 Z M349 576 C378 576 398 595 398 625 C398 654 378 674 349 674 C319 674 299 654 299 625 C299 595 319 576 349 576 L349 576 Z M443 220 C455 220 462 227 462 239 L462 326 C462 438 382 512 259 512 C136 512 55 438 55 326 L55 174 C55 62 137 -12 262 -12 C374 -12 454 42 462 133 C462 143 455 149 443 149 L400 149 C389 149 383 143 380 132 C372 87 327 58 262 58 C185 58 135 103 135 172 L135 220 L443 220 Z M259 442 C334 442 382 397 382 329 L382 287 L135 287 L135 329 C135 397 185 442 259 442 L259 442 Z " />
<glyph glyph-name="igrave" unicode="&#xec;" horiz-adv-x="236" d="M108 557 L132 557 C147 557 152 566 145 579 L85 679 C80 689 72 693 63 693 L14 693 C-2 693 -7 682 3 669 L85 567 C91 559 99 557 108 557 L108 557 Z M97 0 L139 0 C151 0 158 7 158 19 L158 481 C158 493 151 500 139 500 L97 500 C85 500 78 493 78 481 L78 19 C78 7 85 0 97 0 L97 0 Z " />
<glyph glyph-name="iacute" unicode="&#xed;" horiz-adv-x="236" d="M103 557 L128 557 C137 557 144 559 151 567 L233 669 C243 682 237 693 221 693 L174 693 C164 693 156 689 151 679 L91 579 C84 566 89 557 103 557 L103 557 Z M97 0 L139 0 C151 0 158 7 158 19 L158 481 C158 493 151 500 139 500 L97 500 C85 500 78 493 78 481 L78 19 C78 7 85 0 97 0 L97 0 Z " />
<glyph glyph-name="icircumflex" unicode="&#xee;" horiz-adv-x="236" d="M-10 557 L17 557 C27 557 34 559 41 567 L115 641 L121 641 L196 567 C202 559 210 557 219 557 L247 557 C262 557 267 568 257 580 L172 681 C167 689 159 693 150 693 L87 693 C77 693 70 689 64 681 L-21 580 C-30 568 -25 557 -10 557 L-10 557 Z M97 0 L139 0 C151 0 158 7 158 19 L158 481 C158 493 151 500 139 500 L97 500 C85 500 78 493 78 481 L78 19 C78 7 85 0 97 0 L97 0 Z " />
<glyph glyph-name="idieresis" unicode="&#xef;" horiz-adv-x="236" d="M29 576 C59 576 78 595 78 625 C78 654 59 674 29 674 C0 674 -20 654 -20 625 C-20 595 0 576 29 576 L29 576 Z M208 576 C237 576 257 595 257 625 C257 654 237 674 208 674 C178 674 158 654 158 625 C158 595 178 576 208 576 L208 576 Z M97 0 L139 0 C151 0 158 7 158 19 L158 481 C158 493 151 500 139 500 L97 500 C85 500 78 493 78 481 L78 19 C78 7 85 0 97 0 L97 0 Z " />
<glyph glyph-name="eth" unicode="&#xf0;" horiz-adv-x="523" d="M358 583 L408 604 C419 607 424 615 424 625 L424 637 C424 650 416 656 403 652 L327 621 C310 640 292 657 273 673 C266 680 259 682 250 682 L215 682 C198 682 194 673 207 661 C229 642 250 621 269 598 L199 569 C189 566 183 558 183 547 L183 536 C183 523 192 517 205 520 L298 559 C329 513 352 464 363 415 L358 415 C334 450 284 472 226 472 C124 472 53 401 53 293 L53 174 C53 62 134 -12 257 -12 C379 -12 460 62 460 174 L460 290 C460 391 422 498 358 583 L358 583 Z M380 175 C380 107 331 62 257 62 C182 62 133 107 133 175 L133 285 C133 353 182 398 257 398 C331 398 380 353 380 285 L380 175 Z " />
<glyph glyph-name="ntilde" unicode="&#xf1;" horiz-adv-x="550" d="M129 576 L159 576 C170 576 174 580 177 588 C180 611 196 624 219 624 C261 624 297 571 356 571 C408 571 438 605 443 665 C444 679 438 686 429 686 L399 686 C388 686 384 682 381 674 C378 651 362 638 339 638 C294 638 261 690 202 690 C149 690 118 655 114 592 C114 582 120 576 129 576 L129 576 Z M315 512 C241 512 184 474 164 420 L158 420 L158 481 C158 493 151 500 139 500 L97 500 C85 500 78 493 78 481 L78 19 C78 7 85 0 97 0 L139 0 C151 0 158 7 158 19 L158 326 C158 385 208 437 283 437 C353 437 399 393 399 325 L399 19 C399 7 406 0 418 0 L460 0 C472 0 479 7 479 19 L479 354 C479 449 413 512 315 512 L315 512 Z " />
<glyph glyph-name="ograve" unicode="&#xf2;" horiz-adv-x="518" d="M249 557 L273 557 C288 557 293 566 286 579 L226 679 C221 689 213 693 204 693 L155 693 C139 693 134 682 144 669 L226 567 C232 559 240 557 249 557 L249 557 Z M260 -12 C382 -12 463 62 463 174 L463 326 C463 438 382 512 260 512 C137 512 56 438 56 326 L56 174 C56 62 137 -12 260 -12 L260 -12 Z M260 62 C185 62 136 107 136 175 L136 325 C136 393 185 438 260 438 C334 438 383 393 383 325 L383 175 C383 107 334 62 260 62 L260 62 Z " />
<glyph glyph-name="oacute" unicode="&#xf3;" horiz-adv-x="518" d="M244 557 L269 557 C278 557 285 559 292 567 L374 669 C384 682 378 693 362 693 L315 693 C305 693 297 689 292 679 L232 579 C225 566 230 557 244 557 L244 557 Z M260 -12 C382 -12 463 62 463 174 L463 326 C463 438 382 512 260 512 C137 512 56 438 56 326 L56 174 C56 62 137 -12 260 -12 L260 -12 Z M260 62 C185 62 136 107 136 175 L136 325 C136 393 185 438 260 438 C334 438 383 393 383 325 L383 175 C383 107 334 62 260 62 L260 62 Z " />
<glyph glyph-name="ocircumflex" unicode="&#xf4;" horiz-adv-x="518" d="M131 557 L158 557 C168 557 175 559 182 567 L256 641 L262 641 L337 567 C343 559 351 557 360 557 L388 557 C403 557 408 568 398 580 L313 681 C308 689 300 693 291 693 L228 693 C218 693 211 689 205 681 L120 580 C111 568 116 557 131 557 L131 557 Z M260 -12 C382 -12 463 62 463 174 L463 326 C463 438 382 512 260 512 C137 512 56 438 56 326 L56 174 C56 62 137 -12 260 -12 L260 -12 Z M260 62 C185 62 136 107 136 175 L136 325 C136 393 185 438 260 438 C334 438 383 393 383 325 L383 175 C383 107 334 62 260 62 L260 62 Z " />
<glyph glyph-name="otilde" unicode="&#xf5;" horiz-adv-x="518" d="M336 571 C388 571 418 605 423 665 C424 679 418 686 409 686 L379 686 C368 686 364 682 361 674 C358 651 342 638 319 638 C274 638 241 690 182 690 C129 690 98 655 94 592 C94 582 100 576 109 576 L139 576 C150 576 154 580 157 588 C160 611 176 624 199 624 C241 624 277 571 336 571 L336 571 Z M260 -12 C382 -12 463 62 463 174 L463 326 C463 438 382 512 260 512 C137 512 56 438 56 326 L56 174 C56 62 137 -12 260 -12 L260 -12 Z M260 62 C185 62 136 107 136 175 L136 325 C136 393 185 438 260 438 C334 438 383 393 383 325 L383 175 C383 107 334 62 260 62 L260 62 Z " />
<glyph glyph-name="odieresis" unicode="&#xf6;" horiz-adv-x="518" d="M170 576 C200 576 219 595 219 625 C219 654 200 674 170 674 C141 674 121 654 121 625 C121 595 141 576 170 576 L170 576 Z M349 576 C378 576 398 595 398 625 C398 654 378 674 349 674 C319 674 299 654 299 625 C299 595 319 576 349 576 L349 576 Z M260 -12 C382 -12 463 62 463 174 L463 326 C463 438 382 512 260 512 C137 512 56 438 56 326 L56 174 C56 62 137 -12 260 -12 L260 -12 Z M260 62 C185 62 136 107 136 175 L136 325 C136 393 185 438 260 438 C334 438 383 393 383 325 L383 175 C383 107 334 62 260 62 L260 62 Z " />
<glyph glyph-name="divide" unicode="&#xf7;" horiz-adv-x="570" d="M286 411 C314 411 333 430 333 459 C333 487 314 506 286 506 C257 506 238 487 238 459 C238 430 257 411 286 411 L286 411 Z M97 267 L473 267 C485 267 492 274 492 286 L492 310 C492 322 485 329 473 329 L97 329 C85 329 78 322 78 310 L78 286 C78 274 85 267 97 267 L97 267 Z M286 90 C314 90 333 109 333 138 C333 166 314 185 286 185 C257 185 238 166 238 138 C238 109 257 90 286 90 L286 90 Z " />
<glyph glyph-name="oslash" unicode="&#xf8;" horiz-adv-x="518" d="M416 453 L417 455 L447 501 C457 517 450 530 434 530 L416 530 C403 530 394 526 387 514 L370 487 C339 503 302 512 260 512 C137 512 56 438 56 326 L56 174 C56 122 73 78 104 46 L74 -1 C63 -17 70 -30 86 -30 L105 -30 C117 -30 126 -25 134 -14 L151 12 C181 -3 218 -12 260 -12 C382 -12 463 62 463 174 L463 326 C463 377 446 421 416 453 L416 453 Z M136 325 C136 393 185 438 260 438 C287 438 310 432 329 421 L149 119 C141 135 136 154 136 175 L136 325 Z M383 175 C383 107 334 62 260 62 C233 62 210 68 191 78 L194 84 L371 379 C379 363 383 345 383 325 L383 175 Z " />
<glyph glyph-name="ugrave" unicode="&#xf9;" horiz-adv-x="538" d="M232 567 C238 559 246 557 255 557 L279 557 C294 557 299 566 292 579 L232 679 C227 689 219 693 210 693 L161 693 C145 693 140 682 150 669 L232 567 Z M441 500 L399 500 C387 500 380 493 380 481 L380 171 C380 113 333 63 261 63 C195 63 151 107 151 172 L151 481 C151 493 144 500 132 500 L90 500 C78 500 71 493 71 481 L71 144 C71 50 135 -12 229 -12 C302 -12 355 25 375 78 L380 78 L380 19 C380 7 387 0 399 0 L441 0 C453 0 460 7 460 19 L460 481 C460 493 453 500 441 500 L441 500 Z " />
<glyph glyph-name="uacute" unicode="&#xfa;" horiz-adv-x="538" d="M251 557 L276 557 C285 557 292 559 299 567 L381 669 C391 682 385 693 369 693 L322 693 C312 693 304 689 299 679 L239 579 C232 566 237 557 251 557 L251 557 Z M441 500 L399 500 C387 500 380 493 380 481 L380 171 C380 113 333 63 261 63 C195 63 151 107 151 172 L151 481 C151 493 144 500 132 500 L90 500 C78 500 71 493 71 481 L71 144 C71 50 135 -12 229 -12 C302 -12 355 25 375 78 L380 78 L380 19 C380 7 387 0 399 0 L441 0 C453 0 460 7 460 19 L460 481 C460 493 453 500 441 500 L441 500 Z " />
<glyph glyph-name="ucircumflex" unicode="&#xfb;" horiz-adv-x="538" d="M137 557 L164 557 C174 557 181 559 188 567 L262 641 L268 641 L343 567 C349 559 357 557 366 557 L394 557 C409 557 414 568 404 580 L319 681 C314 689 306 693 297 693 L234 693 C224 693 217 689 211 681 L126 580 C117 568 122 557 137 557 L137 557 Z M441 500 L399 500 C387 500 380 493 380 481 L380 171 C380 113 333 63 261 63 C195 63 151 107 151 172 L151 481 C151 493 144 500 132 500 L90 500 C78 500 71 493 71 481 L71 144 C71 50 135 -12 229 -12 C302 -12 355 25 375 78 L380 78 L380 19 C380 7 387 0 399 0 L441 0 C453 0 460 7 460 19 L460 481 C460 493 453 500 441 500 L441 500 Z " />
<glyph glyph-name="udieresis" unicode="&#xfc;" horiz-adv-x="538" d="M176 576 C206 576 225 595 225 625 C225 654 206 674 176 674 C147 674 127 654 127 625 C127 595 147 576 176 576 L176 576 Z M355 576 C384 576 404 595 404 625 C404 654 384 674 355 674 C325 674 305 654 305 625 C305 595 325 576 355 576 L355 576 Z M441 500 L399 500 C387 500 380 493 380 481 L380 171 C380 113 333 63 261 63 C195 63 151 107 151 172 L151 481 C151 493 144 500 132 500 L90 500 C78 500 71 493 71 481 L71 144 C71 50 135 -12 229 -12 C302 -12 355 25 375 78 L380 78 L380 19 C380 7 387 0 399 0 L441 0 C453 0 460 7 460 19 L460 481 C460 493 453 500 441 500 L441 500 Z " />
<glyph glyph-name="yacute" unicode="&#xfd;" horiz-adv-x="518" d="M244 557 L269 557 C278 557 285 559 292 567 L374 669 C384 682 378 693 362 693 L315 693 C305 693 297 689 292 679 L232 579 C225 566 230 557 244 557 L244 557 Z M104 -180 L154 -180 C218 -180 257 -153 277 -94 L482 479 C486 492 479 500 467 500 L420 500 C409 500 401 495 399 483 L268 88 L254 88 L122 483 C120 495 113 500 101 500 L51 500 C39 500 32 492 36 479 L200 20 C203 11 209 7 218 7 L233 7 L202 -68 C190 -99 170 -113 136 -113 L104 -113 C92 -113 85 -120 85 -132 L85 -161 C85 -173 92 -180 104 -180 L104 -180 Z " />
<glyph glyph-name="thorn" unicode="&#xfe;" horiz-adv-x="544" d="M315 512 C240 512 183 474 164 420 L158 420 L158 681 C158 693 151 700 139 700 L97 700 C85 700 78 693 78 681 L78 -161 C78 -173 85 -180 97 -180 L139 -180 C151 -180 158 -173 158 -161 L158 80 L164 80 C183 26 240 -12 315 -12 C416 -12 485 55 485 154 L485 346 C485 445 416 512 315 512 L315 512 Z M405 176 C405 108 357 63 284 63 C208 63 158 116 158 175 L158 325 C158 384 208 437 284 437 C357 437 405 392 405 324 L405 176 Z " />
<glyph glyph-name="ydieresis" unicode="&#xff;" horiz-adv-x="518" d="M170 576 C200 576 219 595 219 625 C219 654 200 674 170 674 C141 674 121 654 121 625 C121 595 141 576 170 576 L170 576 Z M349 576 C378 576 398 595 398 625 C398 654 378 674 349 674 C319 674 299 654 299 625 C299 595 319 576 349 576 L349 576 Z M104 -180 L154 -180 C218 -180 257 -153 277 -94 L482 479 C486 492 479 500 467 500 L420 500 C409 500 401 495 399 483 L268 88 L254 88 L122 483 C120 495 113 500 101 500 L51 500 C39 500 32 492 36 479 L200 20 C203 11 209 7 218 7 L233 7 L202 -68 C190 -99 170 -113 136 -113 L104 -113 C92 -113 85 -120 85 -132 L85 -161 C85 -173 92 -180 104 -180 L104 -180 Z " />
<glyph glyph-name="Amacron" unicode="&#x100;" horiz-adv-x="643" d="M206 757 L438 757 C450 757 457 764 457 776 L457 803 C457 815 450 822 438 822 L206 822 C194 822 187 815 187 803 L187 776 C187 764 194 757 206 757 L206 757 Z M599 23 L385 652 C382 665 375 670 362 670 L281 670 C268 670 261 665 258 652 L44 23 C40 8 47 0 62 0 L112 0 C123 0 130 6 133 17 L181 167 L458 167 L507 17 C510 6 517 0 528 0 L581 0 C596 0 603 8 599 23 L599 23 Z M206 244 L316 585 L323 585 L433 244 L206 244 Z " />
<glyph glyph-name="amacron" unicode="&#x101;" horiz-adv-x="523" d="M145 587 L377 587 C389 587 396 594 396 606 L396 633 C396 645 389 652 377 652 L145 652 C133 652 126 645 126 633 L126 606 C126 594 133 587 145 587 L145 587 Z M258 512 C147 512 66 458 66 371 C66 359 73 352 85 352 L126 352 C137 352 143 358 146 369 C152 416 194 442 256 442 C330 442 374 401 374 337 L374 281 L214 281 C111 281 46 224 46 134 C46 44 112 -12 215 -12 C293 -12 350 23 371 77 L378 77 L378 19 C378 7 385 0 397 0 L435 0 C447 0 454 7 454 19 L454 346 C454 446 378 512 258 512 L258 512 Z M239 56 C170 56 127 87 127 139 C127 188 163 218 223 218 L374 218 L374 156 C374 99 321 56 239 56 L239 56 Z " />
<glyph glyph-name="Abreve" unicode="&#x102;" horiz-adv-x="643" d="M322 721 C398 721 449 763 454 833 C456 846 448 853 436 853 L406 853 C397 853 392 848 391 840 C389 803 362 780 322 780 C281 780 254 803 252 840 C251 848 246 853 237 853 L207 853 C195 853 187 846 188 834 C194 763 245 721 322 721 L322 721 Z M599 23 L385 652 C382 665 375 670 362 670 L281 670 C268 670 261 665 258 652 L44 23 C40 8 47 0 62 0 L112 0 C123 0 130 6 133 17 L181 167 L458 167 L507 17 C510 6 517 0 528 0 L581 0 C596 0 603 8 599 23 L599 23 Z M206 244 L316 585 L323 585 L433 244 L206 244 Z " />
<glyph glyph-name="abreve" unicode="&#x103;" horiz-adv-x="523" d="M261 551 C337 551 388 593 393 663 C395 676 387 683 375 683 L345 683 C336 683 331 678 330 670 C328 633 301 610 261 610 C220 610 193 633 191 670 C190 678 185 683 176 683 L146 683 C134 683 126 676 127 664 C133 593 184 551 261 551 L261 551 Z M258 512 C147 512 66 458 66 371 C66 359 73 352 85 352 L126 352 C137 352 143 358 146 369 C152 416 194 442 256 442 C330 442 374 401 374 337 L374 281 L214 281 C111 281 46 224 46 134 C46 44 112 -12 215 -12 C293 -12 350 23 371 77 L378 77 L378 19 C378 7 385 0 397 0 L435 0 C447 0 454 7 454 19 L454 346 C454 446 378 512 258 512 L258 512 Z M239 56 C170 56 127 87 127 139 C127 188 163 218 223 218 L374 218 L374 156 C374 99 321 56 239 56 L239 56 Z " />
<glyph glyph-name="Aogonek" unicode="&#x104;" horiz-adv-x="643" d="M582 -135 C576 -138 567 -140 559 -140 C532 -140 513 -122 513 -95 C513 -59 540 -22 580 -1 C581 -1 582 0 582 0 C596 0 603 8 599 23 L385 652 C382 665 375 670 362 670 L281 670 C268 670 261 665 258 652 L44 23 C40 8 47 0 62 0 L112 0 C123 0 130 6 133 17 L181 167 L458 167 L507 17 C509 10 513 5 518 2 L518 1 C471 -21 440 -65 440 -112 C440 -164 478 -198 537 -198 C557 -198 577 -194 588 -189 C595 -186 597 -181 597 -172 L597 -147 C597 -136 592 -132 582 -135 L582 -135 Z M206 244 L316 585 L323 585 L433 244 L206 244 Z " />
<glyph glyph-name="aogonek" unicode="&#x105;" horiz-adv-x="523" d="M448 -136 C442 -139 433 -141 425 -141 C398 -141 379 -123 379 -96 C379 -60 406 -23 446 -2 C451 0 454 3 454 7 L454 346 C454 446 378 512 258 512 C147 512 66 458 66 371 C66 359 73 352 85 352 L126 352 C137 352 143 358 146 369 C152 416 194 442 256 442 C330 442 374 401 374 337 L374 281 L214 281 C111 281 46 224 46 134 C46 44 112 -12 215 -12 C293 -12 350 23 371 77 L378 77 L378 19 C378 13 380 8 384 4 L384 0 C337 -22 306 -66 306 -113 C306 -165 344 -199 403 -199 C423 -199 443 -195 454 -190 C461 -187 463 -182 463 -173 L463 -148 C463 -137 458 -133 448 -136 L448 -136 Z M239 56 C170 56 127 87 127 139 C127 188 163 218 223 218 L374 218 L374 156 C374 99 321 56 239 56 L239 56 Z " />
<glyph glyph-name="Cacute" unicode="&#x106;" horiz-adv-x="630" d="M302 727 L327 727 C336 727 343 729 350 737 L432 839 C442 852 436 863 420 863 L373 863 C363 863 355 859 350 849 L290 749 C283 736 288 727 302 727 L302 727 Z M317 -12 C466 -12 565 65 565 220 C565 233 558 241 546 241 L499 241 C488 241 482 235 480 222 C477 122 418 66 317 66 C217 66 152 127 152 220 L152 450 C152 543 217 604 317 604 C416 604 477 549 480 448 C482 435 488 429 499 429 L546 429 C558 429 565 436 565 448 C565 601 468 682 317 682 C167 682 68 591 68 452 L68 218 C68 79 167 -12 317 -12 L317 -12 Z " />
<glyph glyph-name="cacute" unicode="&#x107;" horiz-adv-x="506" d="M241 557 L266 557 C275 557 282 559 289 567 L371 669 C381 682 375 693 359 693 L312 693 C302 693 294 689 289 679 L229 579 C222 566 227 557 241 557 L241 557 Z M256 -12 C371 -12 456 49 456 162 C456 175 449 183 437 183 L395 183 C383 183 377 177 376 168 C374 101 326 62 256 62 C183 62 136 106 136 173 L136 327 C136 394 183 438 256 438 C324 438 374 400 376 332 C377 323 383 317 395 317 L437 317 C449 317 456 325 456 337 C456 449 373 512 256 512 C135 512 56 439 56 328 L56 172 C56 61 135 -12 256 -12 L256 -12 Z " />
<glyph glyph-name="Ccircumflex" unicode="&#x108;" horiz-adv-x="630" d="M188 727 L215 727 C225 727 232 729 239 737 L313 811 L319 811 L394 737 C400 729 408 727 417 727 L445 727 C460 727 465 738 455 750 L370 851 C365 859 357 863 348 863 L285 863 C275 863 268 859 262 851 L177 750 C168 738 173 727 188 727 L188 727 Z M317 -12 C466 -12 565 65 565 220 C565 233 558 241 546 241 L499 241 C488 241 482 235 480 222 C477 122 418 66 317 66 C217 66 152 127 152 220 L152 450 C152 543 217 604 317 604 C416 604 477 549 480 448 C482 435 488 429 499 429 L546 429 C558 429 565 436 565 448 C565 601 468 682 317 682 C167 682 68 591 68 452 L68 218 C68 79 167 -12 317 -12 L317 -12 Z " />
<glyph glyph-name="ccircumflex" unicode="&#x109;" horiz-adv-x="506" d="M128 557 L155 557 C165 557 172 559 179 567 L253 641 L259 641 L334 567 C340 559 348 557 357 557 L385 557 C400 557 405 568 395 580 L310 681 C305 689 297 693 288 693 L225 693 C215 693 208 689 202 681 L117 580 C108 568 113 557 128 557 L128 557 Z M256 -12 C371 -12 456 49 456 162 C456 175 449 183 437 183 L395 183 C383 183 377 177 376 168 C374 101 326 62 256 62 C183 62 136 106 136 173 L136 327 C136 394 183 438 256 438 C324 438 374 400 376 332 C377 323 383 317 395 317 L437 317 C449 317 456 325 456 337 C456 449 373 512 256 512 C135 512 56 439 56 328 L56 172 C56 61 135 -12 256 -12 L256 -12 Z " />
<glyph glyph-name="Cdotaccent" unicode="&#x10a;" horiz-adv-x="630" d="M317 746 C348 746 369 766 369 797 C369 828 348 848 317 848 C286 848 266 828 266 797 C266 766 286 746 317 746 L317 746 Z M317 -12 C466 -12 565 65 565 220 C565 233 558 241 546 241 L499 241 C488 241 482 235 480 222 C477 122 418 66 317 66 C217 66 152 127 152 220 L152 450 C152 543 217 604 317 604 C416 604 477 549 480 448 C482 435 488 429 499 429 L546 429 C558 429 565 436 565 448 C565 601 468 682 317 682 C167 682 68 591 68 452 L68 218 C68 79 167 -12 317 -12 L317 -12 Z " />
<glyph glyph-name="cdotaccent" unicode="&#x10b;" horiz-adv-x="506" d="M256 576 C287 576 308 596 308 627 C308 658 287 678 256 678 C225 678 205 658 205 627 C205 596 225 576 256 576 L256 576 Z M256 -12 C371 -12 456 49 456 162 C456 175 449 183 437 183 L395 183 C383 183 377 177 376 168 C374 101 326 62 256 62 C183 62 136 106 136 173 L136 327 C136 394 183 438 256 438 C324 438 374 400 376 332 C377 323 383 317 395 317 L437 317 C449 317 456 325 456 337 C456 449 373 512 256 512 C135 512 56 439 56 328 L56 172 C56 61 135 -12 256 -12 L256 -12 Z " />
<glyph glyph-name="Ccaron" unicode="&#x10c;" horiz-adv-x="630" d="M285 727 L348 727 C357 727 365 730 371 738 L455 839 C465 852 459 863 443 863 L417 863 C408 863 400 860 394 853 L319 778 L313 778 L239 853 C232 860 225 863 215 863 L188 863 C173 863 168 852 177 839 L262 738 C268 730 275 727 285 727 L285 727 Z M317 -12 C466 -12 565 65 565 220 C565 233 558 241 546 241 L499 241 C488 241 482 235 480 222 C477 122 418 66 317 66 C217 66 152 127 152 220 L152 450 C152 543 217 604 317 604 C416 604 477 549 480 448 C482 435 488 429 499 429 L546 429 C558 429 565 436 565 448 C565 601 468 682 317 682 C167 682 68 591 68 452 L68 218 C68 79 167 -12 317 -12 L317 -12 Z " />
<glyph glyph-name="ccaron" unicode="&#x10d;" horiz-adv-x="506" d="M225 557 L288 557 C297 557 305 560 311 568 L395 669 C405 682 399 693 383 693 L357 693 C348 693 340 690 334 683 L259 608 L253 608 L179 683 C172 690 165 693 155 693 L128 693 C113 693 108 682 117 669 L202 568 C208 560 215 557 225 557 L225 557 Z M256 -12 C371 -12 456 49 456 162 C456 175 449 183 437 183 L395 183 C383 183 377 177 376 168 C374 101 326 62 256 62 C183 62 136 106 136 173 L136 327 C136 394 183 438 256 438 C324 438 374 400 376 332 C377 323 383 317 395 317 L437 317 C449 317 456 325 456 337 C456 449 373 512 256 512 C135 512 56 439 56 328 L56 172 C56 61 135 -12 256 -12 L256 -12 Z " />
<glyph glyph-name="Dcaron" unicode="&#x10e;" horiz-adv-x="649" d="M274 738 C280 730 287 727 297 727 L360 727 C369 727 377 730 383 738 L467 839 C477 852 471 863 455 863 L429 863 C420 863 412 860 406 853 L331 778 L325 778 L251 853 C244 860 237 863 227 863 L200 863 C185 863 180 852 189 839 L274 738 Z M331 670 L115 670 C102 670 94 662 94 649 L94 21 C94 8 102 0 115 0 L331 0 C482 0 582 92 582 234 L582 436 C582 578 482 670 331 670 L331 670 Z M498 237 C498 140 431 78 329 78 L178 78 L178 592 L329 592 C431 592 498 530 498 433 L498 237 Z " />
<glyph glyph-name="dcaron" unicode="&#x10f;" horiz-adv-x="623" d="M447 700 L405 700 C393 700 386 693 386 681 L386 420 L380 420 C360 474 303 512 229 512 C127 512 59 445 59 346 L59 154 C59 55 127 -12 229 -12 C303 -12 360 26 380 80 L386 80 L386 19 C386 7 393 0 405 0 L447 0 C459 0 466 7 466 19 L466 681 C466 693 459 700 447 700 L447 700 Z M590 700 L554 700 C542 700 535 693 535 681 L535 553 C535 541 542 534 554 534 L576 534 C587 534 594 539 596 551 L608 680 C610 693 602 700 590 700 L590 700 Z M260 63 C187 63 139 108 139 176 L139 324 C139 392 187 437 260 437 C335 437 386 384 386 325 L386 175 C386 116 335 63 260 63 L260 63 Z " />
<glyph glyph-name="Dcroat" unicode="&#x110;" horiz-adv-x="649" d="M331 670 L115 670 C102 670 94 662 94 649 L94 370 L45 370 C33 370 26 363 26 351 L26 319 C26 307 33 300 45 300 L94 300 L94 21 C94 8 102 0 115 0 L331 0 C482 0 582 92 582 234 L582 436 C582 578 482 670 331 670 L331 670 Z M498 237 C498 140 431 78 329 78 L178 78 L178 300 L295 300 C307 300 314 307 314 319 L314 351 C314 363 307 370 295 370 L178 370 L178 592 L329 592 C431 592 498 530 498 433 L498 237 Z " />
<glyph glyph-name="dcroat" unicode="&#x111;" horiz-adv-x="544" d="M510 622 L466 622 L466 681 C466 693 459 700 447 700 L405 700 C393 700 386 693 386 681 L386 622 L290 622 C278 622 271 615 271 603 L271 575 C271 563 278 556 290 556 L386 556 L386 420 L380 420 C360 474 303 512 229 512 C127 512 59 445 59 346 L59 154 C59 55 127 -12 229 -12 C303 -12 360 26 380 80 L386 80 L386 19 C386 7 393 0 405 0 L447 0 C459 0 466 7 466 19 L466 556 L510 556 C522 556 529 563 529 575 L529 603 C529 615 522 622 510 622 L510 622 Z M260 63 C187 63 139 108 139 176 L139 324 C139 392 187 437 260 437 C335 437 386 384 386 325 L386 175 C386 116 335 63 260 63 L260 63 Z " />
<glyph glyph-name="Emacron" unicode="&#x112;" horiz-adv-x="566" d="M183 757 L415 757 C427 757 434 764 434 776 L434 803 C434 815 427 822 415 822 L183 822 C171 822 164 815 164 803 L164 776 C164 764 171 757 183 757 L183 757 Z M483 592 C496 592 503 600 503 612 L503 650 C503 662 496 670 483 670 L114 670 C102 670 94 662 94 650 L94 20 C94 8 102 0 114 0 L483 0 C496 0 503 8 503 20 L503 58 C503 70 496 78 483 78 L178 78 L178 299 L446 299 C459 299 466 307 466 320 L466 356 C466 369 459 377 446 377 L178 377 L178 592 L483 592 Z " />
<glyph glyph-name="emacron" unicode="&#x113;" horiz-adv-x="518" d="M143 587 L375 587 C387 587 394 594 394 606 L394 633 C394 645 387 652 375 652 L143 652 C131 652 124 645 124 633 L124 606 C124 594 131 587 143 587 L143 587 Z M443 220 C455 220 462 227 462 239 L462 326 C462 438 382 512 259 512 C136 512 55 438 55 326 L55 174 C55 62 137 -12 262 -12 C374 -12 454 42 462 133 C462 143 455 149 443 149 L400 149 C389 149 383 143 380 132 C372 87 327 58 262 58 C185 58 135 103 135 172 L135 220 L443 220 Z M259 442 C334 442 382 397 382 329 L382 287 L135 287 L135 329 C135 397 185 442 259 442 L259 442 Z " />
<glyph glyph-name="Ebreve" unicode="&#x114;" horiz-adv-x="566" d="M299 721 C375 721 426 763 431 833 C433 846 425 853 413 853 L383 853 C374 853 369 848 368 840 C366 803 339 780 299 780 C258 780 231 803 229 840 C228 848 223 853 214 853 L184 853 C172 853 164 846 165 834 C171 763 222 721 299 721 L299 721 Z M483 592 C496 592 503 600 503 612 L503 650 C503 662 496 670 483 670 L114 670 C102 670 94 662 94 650 L94 20 C94 8 102 0 114 0 L483 0 C496 0 503 8 503 20 L503 58 C503 70 496 78 483 78 L178 78 L178 299 L446 299 C459 299 466 307 466 320 L466 356 C466 369 459 377 446 377 L178 377 L178 592 L483 592 Z " />
<glyph glyph-name="ebreve" unicode="&#x115;" horiz-adv-x="518" d="M259 551 C335 551 386 593 391 663 C393 676 385 683 373 683 L343 683 C334 683 329 678 328 670 C326 633 299 610 259 610 C218 610 191 633 189 670 C188 678 183 683 174 683 L144 683 C132 683 124 676 125 664 C131 593 182 551 259 551 L259 551 Z M443 220 C455 220 462 227 462 239 L462 326 C462 438 382 512 259 512 C136 512 55 438 55 326 L55 174 C55 62 137 -12 262 -12 C374 -12 454 42 462 133 C462 143 455 149 443 149 L400 149 C389 149 383 143 380 132 C372 87 327 58 262 58 C185 58 135 103 135 172 L135 220 L443 220 Z M259 442 C334 442 382 397 382 329 L382 287 L135 287 L135 329 C135 397 185 442 259 442 L259 442 Z " />
<glyph glyph-name="Edotaccent" unicode="&#x116;" horiz-adv-x="566" d="M299 746 C330 746 351 766 351 797 C351 828 330 848 299 848 C268 848 248 828 248 797 C248 766 268 746 299 746 L299 746 Z M483 592 C496 592 503 600 503 612 L503 650 C503 662 496 670 483 670 L114 670 C102 670 94 662 94 650 L94 20 C94 8 102 0 114 0 L483 0 C496 0 503 8 503 20 L503 58 C503 70 496 78 483 78 L178 78 L178 299 L446 299 C459 299 466 307 466 320 L466 356 C466 369 459 377 446 377 L178 377 L178 592 L483 592 Z " />
<glyph glyph-name="edotaccent" unicode="&#x117;" horiz-adv-x="518" d="M259 576 C290 576 311 596 311 627 C311 658 290 678 259 678 C228 678 208 658 208 627 C208 596 228 576 259 576 L259 576 Z M443 220 C455 220 462 227 462 239 L462 326 C462 438 382 512 259 512 C136 512 55 438 55 326 L55 174 C55 62 137 -12 262 -12 C374 -12 454 42 462 133 C462 143 455 149 443 149 L400 149 C389 149 383 143 380 132 C372 87 327 58 262 58 C185 58 135 103 135 172 L135 220 L443 220 Z M259 442 C334 442 382 397 382 329 L382 287 L135 287 L135 329 C135 397 185 442 259 442 L259 442 Z " />
<glyph glyph-name="Eogonek" unicode="&#x118;" horiz-adv-x="566" d="M498 -136 C492 -139 483 -141 475 -141 C448 -141 429 -123 429 -96 C429 -60 456 -23 496 -2 C501 0 504 3 504 7 L504 30 L503 30 L503 58 C503 70 496 78 483 78 L178 78 L178 299 L446 299 C459 299 466 307 466 320 L466 356 C466 369 459 377 446 377 L178 377 L178 592 L483 592 C496 592 503 600 503 612 L503 650 C503 662 496 670 483 670 L114 670 C102 670 94 662 94 650 L94 20 C94 8 102 0 114 0 L434 0 C387 -22 356 -66 356 -113 C356 -165 394 -199 453 -199 C473 -199 493 -195 504 -190 C511 -187 513 -182 513 -173 L513 -148 C513 -137 508 -133 498 -136 L498 -136 Z " />
<glyph glyph-name="eogonek" unicode="&#x119;" horiz-adv-x="518" d="M443 220 C455 220 462 227 462 239 L462 326 C462 438 382 512 259 512 C136 512 55 438 55 326 L55 174 C55 62 137 -12 262 -12 L263 -12 C235 -36 218 -69 218 -104 C218 -156 256 -190 315 -190 C335 -190 355 -186 366 -181 C373 -178 375 -173 375 -164 L375 -139 C375 -128 370 -124 360 -127 C354 -130 345 -132 337 -132 C310 -132 291 -114 291 -87 C291 -55 312 -22 345 0 C412 20 456 67 462 133 C462 143 455 149 443 149 L400 149 C389 149 383 143 380 132 C372 87 327 58 262 58 C185 58 135 103 135 172 L135 220 L443 220 Z M259 442 C334 442 382 397 382 329 L382 287 L135 287 L135 329 C135 397 185 442 259 442 L259 442 Z " />
<glyph glyph-name="Ecaron" unicode="&#x11a;" horiz-adv-x="566" d="M245 738 C251 730 258 727 268 727 L331 727 C340 727 348 730 354 738 L438 839 C448 852 442 863 426 863 L400 863 C391 863 383 860 377 853 L302 778 L296 778 L222 853 C215 860 208 863 198 863 L171 863 C156 863 151 852 160 839 L245 738 Z M483 592 C496 592 503 600 503 612 L503 650 C503 662 496 670 483 670 L114 670 C102 670 94 662 94 650 L94 20 C94 8 102 0 114 0 L483 0 C496 0 503 8 503 20 L503 58 C503 70 496 78 483 78 L178 78 L178 299 L446 299 C459 299 466 307 466 320 L466 356 C466 369 459 377 446 377 L178 377 L178 592 L483 592 Z " />
<glyph glyph-name="ecaron" unicode="&#x11b;" horiz-adv-x="518" d="M205 568 C211 560 218 557 228 557 L291 557 C300 557 308 560 314 568 L398 669 C408 682 402 693 386 693 L360 693 C351 693 343 690 337 683 L262 608 L256 608 L182 683 C175 690 168 693 158 693 L131 693 C116 693 111 682 120 669 L205 568 Z M443 220 C455 220 462 227 462 239 L462 326 C462 438 382 512 259 512 C136 512 55 438 55 326 L55 174 C55 62 137 -12 262 -12 C374 -12 454 42 462 133 C462 143 455 149 443 149 L400 149 C389 149 383 143 380 132 C372 87 327 58 262 58 C185 58 135 103 135 172 L135 220 L443 220 Z M259 442 C334 442 382 397 382 329 L382 287 L135 287 L135 329 C135 397 185 442 259 442 L259 442 Z " />
<glyph glyph-name="Gcircumflex" unicode="&#x11c;" horiz-adv-x="633" d="M188 727 L215 727 C225 727 232 729 239 737 L313 811 L319 811 L394 737 C400 729 408 727 417 727 L445 727 C460 727 465 738 455 750 L370 851 C365 859 357 863 348 863 L285 863 C275 863 268 859 262 851 L177 750 C168 738 173 727 188 727 L188 727 Z M544 340 L354 340 C341 340 333 333 333 320 L333 293 C333 280 341 272 354 272 L481 272 L481 213 C481 122 416 63 317 63 C217 63 152 123 152 216 L152 450 C152 543 217 604 317 604 C411 604 473 553 479 459 C482 449 487 443 500 443 L546 443 C558 443 566 449 564 462 C556 602 464 682 317 682 C167 682 68 591 68 452 L68 218 C68 79 167 -12 317 -12 C467 -12 565 77 565 214 L565 320 C565 333 558 340 544 340 L544 340 Z " />
<glyph glyph-name="gcircumflex" unicode="&#x11d;" horiz-adv-x="541" d="M144 557 L171 557 C181 557 188 559 195 567 L269 641 L275 641 L350 567 C356 559 364 557 373 557 L401 557 C416 557 421 568 411 580 L326 681 C321 689 313 693 304 693 L241 693 C231 693 224 689 218 681 L133 580 C124 568 129 557 144 557 L144 557 Z M447 500 L405 500 C393 500 386 493 386 481 L386 420 L380 420 C360 474 303 512 229 512 C127 512 59 445 59 346 L59 178 C59 78 127 12 229 12 C302 12 360 48 380 102 L386 102 L386 -21 C386 -86 338 -129 263 -129 C201 -129 152 -102 148 -52 C144 -44 139 -40 129 -40 L86 -40 C76 -40 68 -46 70 -59 C77 -143 152 -192 263 -192 C388 -192 466 -125 466 -25 L466 481 C466 493 459 500 447 500 L447 500 Z M260 87 C187 87 139 132 139 200 L139 324 C139 392 187 437 260 437 C335 437 386 384 386 325 L386 199 C386 139 335 87 260 87 L260 87 Z " />
<glyph glyph-name="Gbreve" unicode="&#x11e;" horiz-adv-x="633" d="M317 721 C393 721 444 763 449 833 C451 846 443 853 431 853 L401 853 C392 853 387 848 386 840 C384 803 357 780 317 780 C276 780 249 803 247 840 C246 848 241 853 232 853 L202 853 C190 853 182 846 183 834 C189 763 240 721 317 721 L317 721 Z M544 340 L354 340 C341 340 333 333 333 320 L333 293 C333 280 341 272 354 272 L481 272 L481 213 C481 122 416 63 317 63 C217 63 152 123 152 216 L152 450 C152 543 217 604 317 604 C411 604 473 553 479 459 C482 449 487 443 500 443 L546 443 C558 443 566 449 564 462 C556 602 464 682 317 682 C167 682 68 591 68 452 L68 218 C68 79 167 -12 317 -12 C467 -12 565 77 565 214 L565 320 C565 333 558 340 544 340 L544 340 Z " />
<glyph glyph-name="gbreve" unicode="&#x11f;" horiz-adv-x="541" d="M273 551 C349 551 400 593 405 663 C407 676 399 683 387 683 L357 683 C348 683 343 678 342 670 C340 633 313 610 273 610 C232 610 205 633 203 670 C202 678 197 683 188 683 L158 683 C146 683 138 676 139 664 C145 593 196 551 273 551 L273 551 Z M447 500 L405 500 C393 500 386 493 386 481 L386 420 L380 420 C360 474 303 512 229 512 C127 512 59 445 59 346 L59 178 C59 78 127 12 229 12 C302 12 360 48 380 102 L386 102 L386 -21 C386 -86 338 -129 263 -129 C201 -129 152 -102 148 -52 C144 -44 139 -40 129 -40 L86 -40 C76 -40 68 -46 70 -59 C77 -143 152 -192 263 -192 C388 -192 466 -125 466 -25 L466 481 C466 493 459 500 447 500 L447 500 Z M260 87 C187 87 139 132 139 200 L139 324 C139 392 187 437 260 437 C335 437 386 384 386 325 L386 199 C386 139 335 87 260 87 L260 87 Z " />
<glyph glyph-name="Gdotaccent" unicode="&#x120;" horiz-adv-x="633" d="M317 746 C348 746 369 766 369 797 C369 828 348 848 317 848 C286 848 266 828 266 797 C266 766 286 746 317 746 L317 746 Z M544 340 L354 340 C341 340 333 333 333 320 L333 293 C333 280 341 272 354 272 L481 272 L481 213 C481 122 416 63 317 63 C217 63 152 123 152 216 L152 450 C152 543 217 604 317 604 C411 604 473 553 479 459 C482 449 487 443 500 443 L546 443 C558 443 566 449 564 462 C556 602 464 682 317 682 C167 682 68 591 68 452 L68 218 C68 79 167 -12 317 -12 C467 -12 565 77 565 214 L565 320 C565 333 558 340 544 340 L544 340 Z " />
<glyph glyph-name="gdotaccent" unicode="&#x121;" horiz-adv-x="541" d="M272 576 C303 576 324 596 324 627 C324 658 303 678 272 678 C241 678 221 658 221 627 C221 596 241 576 272 576 L272 576 Z M447 500 L405 500 C393 500 386 493 386 481 L386 420 L380 420 C360 474 303 512 229 512 C127 512 59 445 59 346 L59 178 C59 78 127 12 229 12 C302 12 360 48 380 102 L386 102 L386 -21 C386 -86 338 -129 263 -129 C201 -129 152 -102 148 -52 C144 -44 139 -40 129 -40 L86 -40 C76 -40 68 -46 70 -59 C77 -143 152 -192 263 -192 C388 -192 466 -125 466 -25 L466 481 C466 493 459 500 447 500 L447 500 Z M260 87 C187 87 139 132 139 200 L139 324 C139 392 187 437 260 437 C335 437 386 384 386 325 L386 199 C386 139 335 87 260 87 L260 87 Z " />
<glyph glyph-name="uni0122" unicode="&#x122;" horiz-adv-x="633" d="M544 340 L354 340 C341 340 333 333 333 320 L333 293 C333 280 341 272 354 272 L481 272 L481 213 C481 122 416 63 317 63 C217 63 152 123 152 216 L152 450 C152 543 217 604 317 604 C411 604 473 553 479 459 C482 449 487 443 500 443 L546 443 C558 443 566 449 564 462 C556 602 464 682 317 682 C167 682 68 591 68 452 L68 218 C68 79 167 -12 317 -12 C467 -12 565 77 565 214 L565 320 C565 333 558 340 544 340 L544 340 Z M346 -57 L299 -57 C288 -57 281 -62 278 -73 L247 -202 C244 -215 250 -223 263 -223 L286 -223 C296 -223 304 -219 308 -209 L360 -79 C366 -66 360 -57 346 -57 L346 -57 Z " />
<glyph glyph-name="uni0123" unicode="&#x123;" horiz-adv-x="541" d="M243 557 L289 557 C301 557 308 562 310 573 L342 701 C345 714 339 723 326 723 L303 723 C292 723 285 718 280 709 L229 579 C223 567 229 557 243 557 L243 557 Z M447 500 L405 500 C393 500 386 493 386 481 L386 420 L380 420 C360 474 303 512 229 512 C127 512 59 445 59 346 L59 178 C59 78 127 12 229 12 C302 12 360 48 380 102 L386 102 L386 -21 C386 -86 338 -129 263 -129 C201 -129 152 -102 148 -52 C144 -44 139 -40 129 -40 L86 -40 C76 -40 68 -46 70 -59 C77 -143 152 -192 263 -192 C388 -192 466 -125 466 -25 L466 481 C466 493 459 500 447 500 L447 500 Z M260 87 C187 87 139 132 139 200 L139 324 C139 392 187 437 260 437 C335 437 386 384 386 325 L386 199 C386 139 335 87 260 87 L260 87 Z " />
<glyph glyph-name="Hcircumflex" unicode="&#x124;" horiz-adv-x="658" d="M200 727 L227 727 C237 727 244 729 251 737 L325 811 L331 811 L406 737 C412 729 420 727 429 727 L457 727 C472 727 477 738 467 750 L382 851 C377 859 369 863 360 863 L297 863 C287 863 280 859 274 851 L189 750 C180 738 185 727 200 727 L200 727 Z M543 670 L500 670 C487 670 479 662 479 649 L479 377 L178 377 L178 649 C178 662 171 670 158 670 L115 670 C102 670 94 662 94 649 L94 21 C94 8 102 0 115 0 L158 0 C171 0 178 8 178 21 L178 299 L479 299 L479 21 C479 8 487 0 500 0 L543 0 C556 0 564 8 564 21 L564 649 C564 662 556 670 543 670 L543 670 Z " />
<glyph glyph-name="hcircumflex" unicode="&#x125;" horiz-adv-x="550" d="M121 821 L196 747 C202 739 210 737 219 737 L247 737 C262 737 267 748 257 760 L172 861 C167 869 159 873 150 873 L87 873 C77 873 70 869 64 861 L-21 760 C-30 748 -25 737 -10 737 L17 737 C27 737 34 739 41 747 L115 821 L121 821 Z M315 512 C241 512 184 474 164 420 L158 420 L158 681 C158 693 151 700 139 700 L97 700 C85 700 78 693 78 681 L78 19 C78 7 85 0 97 0 L139 0 C151 0 158 7 158 19 L158 326 C158 385 208 437 283 437 C353 437 399 393 399 325 L399 19 C399 7 406 0 418 0 L460 0 C472 0 479 7 479 19 L479 354 C479 449 413 512 315 512 L315 512 Z " />
<glyph glyph-name="Hbar" unicode="&#x126;" horiz-adv-x="658" d="M595 552 L564 552 L564 649 C564 662 556 670 543 670 L500 670 C487 670 479 662 479 649 L479 552 L178 552 L178 649 C178 662 171 670 158 670 L115 670 C102 670 94 662 94 649 L94 552 L63 552 C51 552 44 545 44 533 L44 509 C44 497 51 490 63 490 L94 490 L94 21 C94 8 102 0 115 0 L158 0 C171 0 178 8 178 21 L178 299 L479 299 L479 21 C479 8 487 0 500 0 L543 0 C556 0 564 8 564 21 L564 490 L595 490 C607 490 614 497 614 509 L614 533 C614 545 607 552 595 552 L595 552 Z M479 377 L178 377 L178 490 L479 490 L479 377 Z " />
<glyph glyph-name="hbar" unicode="&#x127;" horiz-adv-x="550" d="M315 512 C241 512 184 474 164 420 L158 420 L158 556 L254 556 C266 556 273 563 273 575 L273 603 C273 615 266 622 254 622 L158 622 L158 681 C158 693 151 700 139 700 L97 700 C85 700 78 693 78 681 L78 622 L34 622 C22 622 15 615 15 603 L15 575 C15 563 22 556 34 556 L78 556 L78 19 C78 7 85 0 97 0 L139 0 C151 0 158 7 158 19 L158 326 C158 385 208 437 283 437 C353 437 399 393 399 325 L399 19 C399 7 406 0 418 0 L460 0 C472 0 479 7 479 19 L479 354 C479 449 413 512 315 512 L315 512 Z " />
<glyph glyph-name="Itilde" unicode="&#x128;" horiz-adv-x="273" d="M214 741 C266 741 296 775 301 835 C302 849 296 856 287 856 L257 856 C246 856 242 852 239 844 C236 821 220 808 197 808 C152 808 119 860 60 860 C7 860 -24 825 -28 762 C-28 752 -22 746 -13 746 L17 746 C28 746 32 750 35 758 C38 781 54 794 77 794 C119 794 155 741 214 741 L214 741 Z M115 0 L158 0 C171 0 178 8 178 21 L178 649 C178 662 171 670 158 670 L115 670 C102 670 94 662 94 649 L94 21 C94 8 102 0 115 0 L115 0 Z " />
<glyph glyph-name="itilde" unicode="&#x129;" horiz-adv-x="236" d="M195 571 C247 571 277 605 282 665 C283 679 277 686 268 686 L238 686 C227 686 223 682 220 674 C217 651 201 638 178 638 C133 638 100 690 41 690 C-12 690 -43 655 -47 592 C-47 582 -41 576 -32 576 L-2 576 C9 576 13 580 16 588 C19 611 35 624 58 624 C100 624 136 571 195 571 L195 571 Z M97 0 L139 0 C151 0 158 7 158 19 L158 481 C158 493 151 500 139 500 L97 500 C85 500 78 493 78 481 L78 19 C78 7 85 0 97 0 L97 0 Z " />
<glyph glyph-name="Imacron" unicode="&#x12a;" horiz-adv-x="273" d="M21 757 L253 757 C265 757 272 764 272 776 L272 803 C272 815 265 822 253 822 L21 822 C9 822 2 815 2 803 L2 776 C2 764 9 757 21 757 L21 757 Z M115 0 L158 0 C171 0 178 8 178 21 L178 649 C178 662 171 670 158 670 L115 670 C102 670 94 662 94 649 L94 21 C94 8 102 0 115 0 L115 0 Z " />
<glyph glyph-name="imacron" unicode="&#x12b;" horiz-adv-x="236" d="M2 587 L234 587 C246 587 253 594 253 606 L253 633 C253 645 246 652 234 652 L2 652 C-10 652 -17 645 -17 633 L-17 606 C-17 594 -10 587 2 587 L2 587 Z M97 0 L139 0 C151 0 158 7 158 19 L158 481 C158 493 151 500 139 500 L97 500 C85 500 78 493 78 481 L78 19 C78 7 85 0 97 0 L97 0 Z " />
<glyph glyph-name="Ibreve" unicode="&#x12c;" horiz-adv-x="273" d="M137 721 C213 721 264 763 269 833 C271 846 263 853 251 853 L221 853 C212 853 207 848 206 840 C204 803 177 780 137 780 C96 780 69 803 67 840 C66 848 61 853 52 853 L22 853 C10 853 2 846 3 834 C9 763 60 721 137 721 L137 721 Z M115 0 L158 0 C171 0 178 8 178 21 L178 649 C178 662 171 670 158 670 L115 670 C102 670 94 662 94 649 L94 21 C94 8 102 0 115 0 L115 0 Z " />
<glyph glyph-name="ibreve" unicode="&#x12d;" horiz-adv-x="236" d="M118 551 C194 551 245 593 250 663 C252 676 244 683 232 683 L202 683 C193 683 188 678 187 670 C185 633 158 610 118 610 C77 610 50 633 48 670 C47 678 42 683 33 683 L3 683 C-9 683 -17 676 -16 664 C-10 593 41 551 118 551 L118 551 Z M97 0 L139 0 C151 0 158 7 158 19 L158 481 C158 493 151 500 139 500 L97 500 C85 500 78 493 78 481 L78 19 C78 7 85 0 97 0 L97 0 Z " />
<glyph glyph-name="Iogonek" unicode="&#x12e;" horiz-adv-x="273" d="M173 -136 C167 -139 158 -141 150 -141 C123 -141 104 -123 104 -96 C104 -60 131 -23 171 -2 C176 0 179 3 179 7 L179 30 L178 30 L178 649 C178 662 171 670 158 670 L115 670 C102 670 94 662 94 649 L94 21 C94 10 100 3 109 1 L109 0 C62 -22 31 -66 31 -113 C31 -165 69 -199 128 -199 C148 -199 168 -195 179 -190 C186 -187 188 -182 188 -173 L188 -148 C188 -137 183 -133 173 -136 L173 -136 Z " />
<glyph glyph-name="iogonek" unicode="&#x12f;" horiz-adv-x="236" d="M118 576 C149 576 170 596 170 627 C170 658 149 678 118 678 C87 678 67 658 67 627 C67 596 87 576 118 576 L118 576 Z M152 -136 C146 -139 137 -141 129 -141 C102 -141 83 -123 83 -96 C83 -60 110 -23 150 -2 C155 0 158 3 158 7 L158 481 C158 493 151 500 139 500 L97 500 C85 500 78 493 78 481 L78 19 C78 10 82 4 88 2 L88 0 C41 -22 10 -66 10 -113 C10 -165 48 -199 107 -199 C127 -199 147 -195 158 -190 C165 -187 167 -182 167 -173 L167 -148 C167 -137 162 -133 152 -136 L152 -136 Z " />
<glyph glyph-name="Idotaccent" unicode="&#x130;" horiz-adv-x="273" d="M136 746 C167 746 188 766 188 797 C188 828 167 848 136 848 C105 848 85 828 85 797 C85 766 105 746 136 746 L136 746 Z M115 0 L158 0 C171 0 178 8 178 21 L178 649 C178 662 171 670 158 670 L115 670 C102 670 94 662 94 649 L94 21 C94 8 102 0 115 0 L115 0 Z " />
<glyph glyph-name="dotlessi" unicode="&#x131;" horiz-adv-x="236" d="M97 0 L139 0 C151 0 158 7 158 19 L158 481 C158 493 151 500 139 500 L97 500 C85 500 78 493 78 481 L78 19 C78 7 85 0 97 0 L97 0 Z " />
<glyph glyph-name="IJ" unicode="&#x132;" horiz-adv-x="839" d="M115 0 L158 0 C171 0 178 8 178 21 L178 649 C178 662 171 670 158 670 L115 670 C102 670 94 662 94 649 L94 21 C94 8 102 0 115 0 L115 0 Z M545 -12 C673 -12 757 65 757 181 L757 649 C757 662 749 670 736 670 L693 670 C680 670 672 662 672 649 L672 184 C672 113 622 66 545 66 C467 66 416 113 416 184 L416 199 C416 213 408 220 395 220 L353 220 C339 220 332 213 332 199 L332 181 C332 65 417 -12 545 -12 L545 -12 Z " />
<glyph glyph-name="ij" unicode="&#x133;" horiz-adv-x="475" d="M119 596 C150 596 171 617 171 648 C171 679 150 699 119 699 C86 699 65 679 65 648 C65 617 86 596 119 596 L119 596 Z M359 596 C391 596 412 617 412 648 C412 679 391 699 359 699 C327 699 306 679 306 648 C306 617 326 596 359 596 L359 596 Z M98 0 L140 0 C152 0 159 7 159 19 L159 481 C159 493 152 500 140 500 L98 500 C86 500 79 493 79 481 L79 19 C79 7 86 0 98 0 L98 0 Z M218 -180 L265 -180 C346 -180 400 -130 400 -54 L400 481 C400 493 393 500 381 500 L339 500 C327 500 320 493 320 481 L320 -41 C320 -84 291 -112 247 -112 L218 -112 C206 -112 199 -119 199 -131 L199 -161 C199 -173 206 -180 218 -180 L218 -180 Z " />
<glyph glyph-name="Jcircumflex" unicode="&#x134;" horiz-adv-x="567" d="M311 727 L338 727 C348 727 355 729 362 737 L436 811 L442 811 L517 737 C523 729 531 727 540 727 L568 727 C583 727 588 738 578 750 L493 851 C488 859 480 863 471 863 L408 863 C398 863 391 859 385 851 L300 750 C291 738 296 727 311 727 L311 727 Z M272 -12 C400 -12 484 65 484 181 L484 649 C484 662 476 670 463 670 L420 670 C407 670 399 662 399 649 L399 184 C399 113 349 66 272 66 C194 66 143 113 143 184 L143 199 C143 213 135 220 122 220 L80 220 C66 220 59 213 59 199 L59 181 C59 65 144 -12 272 -12 L272 -12 Z " />
<glyph glyph-name="jcircumflex" unicode="&#x135;" horiz-adv-x="238" d="M-6 557 L21 557 C31 557 38 559 45 567 L119 641 L125 641 L200 567 C206 559 214 557 223 557 L251 557 C266 557 271 568 261 580 L176 681 C171 689 163 693 154 693 L91 693 C81 693 74 689 68 681 L-17 580 C-26 568 -21 557 -6 557 L-6 557 Z M-19 -180 L28 -180 C109 -180 163 -130 163 -54 L163 481 C163 493 156 500 144 500 L102 500 C90 500 83 493 83 481 L83 -41 C83 -84 54 -112 10 -112 L-19 -112 C-31 -112 -38 -119 -38 -131 L-38 -161 C-38 -173 -31 -180 -19 -180 L-19 -180 Z " />
<glyph glyph-name="uni0136" unicode="&#x136;" horiz-adv-x="602" d="M561 25 L317 383 L550 644 C561 658 556 670 540 670 L486 670 C475 670 467 665 461 657 L185 346 L178 346 L178 649 C178 662 171 670 158 670 L115 670 C102 670 94 662 94 649 L94 21 C94 8 102 0 115 0 L158 0 C171 0 178 8 178 21 L178 227 L259 318 L465 15 C470 4 478 0 489 0 L547 0 C562 0 568 12 561 25 L561 25 Z M354 -57 L307 -57 C296 -57 289 -62 286 -73 L255 -202 C252 -215 258 -223 271 -223 L294 -223 C304 -223 312 -219 316 -209 L368 -79 C374 -66 368 -57 354 -57 L354 -57 Z " />
<glyph glyph-name="uni0137" unicode="&#x137;" horiz-adv-x="502" d="M474 23 L289 299 L464 476 C474 489 469 500 456 500 L402 500 C392 500 385 497 379 488 L164 271 L158 271 L158 681 C158 693 151 700 139 700 L97 700 C85 700 78 693 78 681 L78 19 C78 7 85 0 97 0 L139 0 C151 0 158 7 158 19 L158 166 L235 244 L384 13 C389 4 396 0 406 0 L461 0 C475 0 481 10 474 23 L474 23 Z M309 -57 L262 -57 C251 -57 244 -62 241 -73 L210 -202 C207 -215 213 -223 226 -223 L249 -223 C259 -223 267 -219 271 -209 L323 -79 C329 -66 323 -57 309 -57 L309 -57 Z " />
<glyph glyph-name="Lacute" unicode="&#x139;" horiz-adv-x="532" d="M122 727 L147 727 C156 727 163 729 170 737 L252 839 C262 852 256 863 240 863 L193 863 C183 863 175 859 170 849 L110 749 C103 736 108 727 122 727 L122 727 Z M463 78 L178 78 L178 649 C178 662 171 670 158 670 L115 670 C102 670 94 662 94 649 L94 21 C94 8 102 0 115 0 L463 0 C476 0 483 8 483 21 L483 57 C483 70 476 78 463 78 L463 78 Z " />
<glyph glyph-name="lacute" unicode="&#x13a;" horiz-adv-x="284" d="M98 737 L123 737 C132 737 139 739 146 747 L228 849 C238 862 232 873 216 873 L169 873 C159 873 151 869 146 859 L86 759 C79 746 84 737 98 737 L98 737 Z M202 0 L227 0 C239 0 246 7 246 19 L246 61 C246 69 241 74 233 74 L221 74 C180 74 153 100 153 140 L153 681 C153 693 146 700 134 700 L92 700 C80 700 73 693 73 681 L73 121 C73 48 124 0 202 0 L202 0 Z " />
<glyph glyph-name="uni013B" unicode="&#x13b;" horiz-adv-x="532" d="M463 78 L178 78 L178 649 C178 662 171 670 158 670 L115 670 C102 670 94 662 94 649 L94 21 C94 8 102 0 115 0 L463 0 C476 0 483 8 483 21 L483 57 C483 70 476 78 463 78 L463 78 Z M308 -57 L261 -57 C250 -57 243 -62 240 -73 L209 -202 C206 -215 212 -223 225 -223 L248 -223 C258 -223 266 -219 270 -209 L322 -79 C328 -66 322 -57 308 -57 L308 -57 Z " />
<glyph glyph-name="uni013C" unicode="&#x13c;" horiz-adv-x="284" d="M202 0 L227 0 C239 0 246 7 246 19 L246 61 C246 69 241 74 233 74 L221 74 C180 74 153 100 153 140 L153 681 C153 693 146 700 134 700 L92 700 C80 700 73 693 73 681 L73 121 C73 48 124 0 202 0 L202 0 Z M102 -223 L125 -223 C135 -223 143 -219 147 -209 L199 -79 C205 -66 199 -57 185 -57 L138 -57 C127 -57 120 -62 117 -73 L86 -202 C83 -215 89 -223 102 -223 L102 -223 Z " />
<glyph glyph-name="Lcaron" unicode="&#x13d;" horiz-adv-x="532" d="M463 78 L178 78 L178 649 C178 662 171 670 158 670 L115 670 C102 670 94 662 94 649 L94 21 C94 8 102 0 115 0 L463 0 C476 0 483 8 483 21 L483 57 C483 70 476 78 463 78 L463 78 Z M307 504 L329 504 C340 504 348 509 349 521 L361 650 C363 663 356 670 343 670 L307 670 C295 670 288 663 288 651 L288 523 C288 511 295 504 307 504 L307 504 Z " />
<glyph glyph-name="lcaron" unicode="&#x13e;" horiz-adv-x="321" d="M202 0 L227 0 C239 0 246 7 246 19 L246 61 C246 69 241 74 233 74 L221 74 C180 74 153 100 153 140 L153 681 C153 693 146 700 134 700 L92 700 C80 700 73 693 73 681 L73 121 C73 48 124 0 202 0 L202 0 Z M253 534 L275 534 C286 534 293 539 295 551 L306 680 C308 693 301 700 289 700 L253 700 C241 700 234 693 234 681 L234 553 C234 541 241 534 253 534 L253 534 Z " />
<glyph glyph-name="Ldot" unicode="&#x13f;" horiz-adv-x="532" d="M463 78 L178 78 L178 649 C178 662 171 670 158 670 L115 670 C102 670 94 662 94 649 L94 21 C94 8 102 0 115 0 L463 0 C476 0 483 8 483 21 L483 57 C483 70 476 78 463 78 L463 78 Z M330 300 C358 300 378 319 378 348 C378 376 358 395 330 395 C301 395 282 376 282 348 C282 319 301 300 330 300 L330 300 Z " />
<glyph glyph-name="ldot" unicode="&#x140;" horiz-adv-x="332" d="M202 0 L227 0 C239 0 246 7 246 19 L246 61 C246 69 241 74 233 74 L221 74 C180 74 153 100 153 140 L153 681 C153 693 146 700 134 700 L92 700 C80 700 73 693 73 681 L73 121 C73 48 124 0 202 0 L202 0 Z M255 300 C283 300 302 319 302 347 C302 376 283 395 255 395 C226 395 207 376 207 347 C207 319 226 300 255 300 L255 300 Z " />
<glyph glyph-name="Lslash" unicode="&#x141;" horiz-adv-x="532" d="M463 78 L178 78 L178 326 L290 382 C299 387 304 395 304 405 L304 442 C304 456 295 462 282 456 L178 404 L178 649 C178 662 171 670 158 670 L115 670 C102 670 94 662 94 649 L94 362 L36 333 C27 328 22 320 22 310 L22 273 C22 259 31 253 44 258 L94 283 L94 21 C94 8 102 0 115 0 L463 0 C476 0 483 8 483 21 L483 57 C483 70 476 78 463 78 L463 78 Z " />
<glyph glyph-name="lslash" unicode="&#x142;" horiz-adv-x="319" d="M268 74 L256 74 C215 74 188 100 188 140 L188 347 L249 376 C259 380 263 388 263 398 L263 435 C263 449 254 455 242 450 L188 424 L188 681 C188 693 181 700 169 700 L127 700 C115 700 108 693 108 681 L108 386 L65 365 C54 361 50 353 50 343 L50 306 C50 292 60 286 72 291 L108 308 L108 121 C108 48 159 0 237 0 L262 0 C274 0 281 7 281 19 L281 61 C281 69 276 74 268 74 L268 74 Z " />
<glyph glyph-name="Nacute" unicode="&#x143;" horiz-adv-x="679" d="M324 727 L349 727 C358 727 365 729 372 737 L454 839 C464 852 458 863 442 863 L395 863 C385 863 377 859 372 849 L312 749 C305 736 310 727 324 727 L324 727 Z M113 0 L159 0 C171 0 178 7 178 19 L178 491 L174 534 L181 534 L475 14 C479 4 488 0 498 0 L565 0 C577 0 584 7 584 19 L584 651 C584 663 577 670 565 670 L519 670 C507 670 500 663 500 651 L500 179 L505 136 L497 136 L203 656 C199 666 191 670 181 670 L113 670 C101 670 94 663 94 651 L94 19 C94 7 101 0 113 0 L113 0 Z " />
<glyph glyph-name="nacute" unicode="&#x144;" horiz-adv-x="550" d="M264 557 L289 557 C298 557 305 559 312 567 L394 669 C404 682 398 693 382 693 L335 693 C325 693 317 689 312 679 L252 579 C245 566 250 557 264 557 L264 557 Z M315 512 C241 512 184 474 164 420 L158 420 L158 481 C158 493 151 500 139 500 L97 500 C85 500 78 493 78 481 L78 19 C78 7 85 0 97 0 L139 0 C151 0 158 7 158 19 L158 326 C158 385 208 437 283 437 C353 437 399 393 399 325 L399 19 C399 7 406 0 418 0 L460 0 C472 0 479 7 479 19 L479 354 C479 449 413 512 315 512 L315 512 Z " />
<glyph glyph-name="uni0145" unicode="&#x145;" horiz-adv-x="679" d="M113 0 L159 0 C171 0 178 7 178 19 L178 491 L174 534 L181 534 L475 14 C479 4 488 0 498 0 L565 0 C577 0 584 7 584 19 L584 651 C584 663 577 670 565 670 L519 670 C507 670 500 663 500 651 L500 179 L505 136 L497 136 L203 656 C199 666 191 670 181 670 L113 670 C101 670 94 663 94 651 L94 19 C94 7 101 0 113 0 L113 0 Z M289 -223 L312 -223 C322 -223 330 -219 334 -209 L386 -79 C392 -66 386 -57 372 -57 L325 -57 C314 -57 307 -62 304 -73 L273 -202 C270 -215 276 -223 289 -223 L289 -223 Z " />
<glyph glyph-name="uni0146" unicode="&#x146;" horiz-adv-x="550" d="M315 512 C241 512 184 474 164 420 L158 420 L158 481 C158 493 151 500 139 500 L97 500 C85 500 78 493 78 481 L78 19 C78 7 85 0 97 0 L139 0 C151 0 158 7 158 19 L158 326 C158 385 208 437 283 437 C353 437 399 393 399 325 L399 19 C399 7 406 0 418 0 L460 0 C472 0 479 7 479 19 L479 354 C479 449 413 512 315 512 L315 512 Z M308 -57 L261 -57 C250 -57 243 -62 240 -73 L209 -202 C206 -215 212 -223 225 -223 L248 -223 C258 -223 266 -219 270 -209 L322 -79 C328 -66 322 -57 308 -57 L308 -57 Z " />
<glyph glyph-name="Ncaron" unicode="&#x147;" horiz-adv-x="679" d="M308 727 L371 727 C380 727 388 730 394 738 L478 839 C488 852 482 863 466 863 L440 863 C431 863 423 860 417 853 L342 778 L336 778 L262 853 C255 860 248 863 238 863 L211 863 C196 863 191 852 200 839 L285 738 C291 730 298 727 308 727 L308 727 Z M113 0 L159 0 C171 0 178 7 178 19 L178 491 L174 534 L181 534 L475 14 C479 4 488 0 498 0 L565 0 C577 0 584 7 584 19 L584 651 C584 663 577 670 565 670 L519 670 C507 670 500 663 500 651 L500 179 L505 136 L497 136 L203 656 C199 666 191 670 181 670 L113 670 C101 670 94 663 94 651 L94 19 C94 7 101 0 113 0 L113 0 Z " />
<glyph glyph-name="ncaron" unicode="&#x148;" horiz-adv-x="550" d="M225 568 C231 560 238 557 248 557 L311 557 C320 557 328 560 334 568 L418 669 C428 682 422 693 406 693 L380 693 C371 693 363 690 357 683 L282 608 L276 608 L202 683 C195 690 188 693 178 693 L151 693 C136 693 131 682 140 669 L225 568 Z M315 512 C241 512 184 474 164 420 L158 420 L158 481 C158 493 151 500 139 500 L97 500 C85 500 78 493 78 481 L78 19 C78 7 85 0 97 0 L139 0 C151 0 158 7 158 19 L158 326 C158 385 208 437 283 437 C353 437 399 393 399 325 L399 19 C399 7 406 0 418 0 L460 0 C472 0 479 7 479 19 L479 354 C479 449 413 512 315 512 L315 512 Z " />
<glyph glyph-name="Eng" unicode="&#x14a;" horiz-adv-x="679" d="M584 36 L584 651 C584 663 577 670 565 670 L519 670 C507 670 500 663 500 651 L500 179 L505 136 L497 136 L203 656 C199 666 191 670 181 670 L113 670 C101 670 94 663 94 651 L94 19 C94 7 101 0 113 0 L159 0 C171 0 178 7 178 19 L178 491 L174 534 L181 534 L475 14 C479 4 488 0 498 0 L500 0 L500 -60 C500 -93 476 -116 441 -116 L411 -116 C399 -116 392 -123 392 -135 L392 -160 C392 -172 399 -179 411 -179 L466 -179 C538 -179 585 -136 585 -71 L585 36 L584 36 Z " />
<glyph glyph-name="eng" unicode="&#x14b;" horiz-adv-x="550" d="M315 512 C241 512 184 474 164 420 L158 420 L158 481 C158 493 151 500 139 500 L97 500 C85 500 78 493 78 481 L78 19 C78 7 85 0 97 0 L139 0 C151 0 158 7 158 19 L158 326 C158 385 208 437 283 437 C353 437 399 393 399 325 L399 -53 C399 -86 376 -106 342 -106 L319 -106 C310 -106 304 -112 304 -122 L304 -150 C304 -162 311 -169 323 -169 L360 -169 C432 -169 479 -126 479 -61 L479 354 C479 449 413 512 315 512 L315 512 Z " />
<glyph glyph-name="Omacron" unicode="&#x14c;" horiz-adv-x="643" d="M206 757 L438 757 C450 757 457 764 457 776 L457 803 C457 815 450 822 438 822 L206 822 C194 822 187 815 187 803 L187 776 C187 764 194 757 206 757 L206 757 Z M322 -12 C475 -12 575 81 575 223 L575 447 C575 589 475 682 322 682 C169 682 68 589 68 447 L68 223 C68 81 169 -12 322 -12 L322 -12 Z M322 66 C219 66 152 129 152 225 L152 445 C152 541 219 604 322 604 C424 604 491 541 491 445 L491 225 C491 129 424 66 322 66 L322 66 Z " />
<glyph glyph-name="omacron" unicode="&#x14d;" horiz-adv-x="518" d="M143 587 L375 587 C387 587 394 594 394 606 L394 633 C394 645 387 652 375 652 L143 652 C131 652 124 645 124 633 L124 606 C124 594 131 587 143 587 L143 587 Z M260 -12 C382 -12 463 62 463 174 L463 326 C463 438 382 512 260 512 C137 512 56 438 56 326 L56 174 C56 62 137 -12 260 -12 L260 -12 Z M260 62 C185 62 136 107 136 175 L136 325 C136 393 185 438 260 438 C334 438 383 393 383 325 L383 175 C383 107 334 62 260 62 L260 62 Z " />
<glyph glyph-name="Obreve" unicode="&#x14e;" horiz-adv-x="643" d="M322 721 C398 721 449 763 454 833 C456 846 448 853 436 853 L406 853 C397 853 392 848 391 840 C389 803 362 780 322 780 C281 780 254 803 252 840 C251 848 246 853 237 853 L207 853 C195 853 187 846 188 834 C194 763 245 721 322 721 L322 721 Z M322 -12 C475 -12 575 81 575 223 L575 447 C575 589 475 682 322 682 C169 682 68 589 68 447 L68 223 C68 81 169 -12 322 -12 L322 -12 Z M322 66 C219 66 152 129 152 225 L152 445 C152 541 219 604 322 604 C424 604 491 541 491 445 L491 225 C491 129 424 66 322 66 L322 66 Z " />
<glyph glyph-name="obreve" unicode="&#x14f;" horiz-adv-x="518" d="M260 551 C336 551 387 593 392 663 C394 676 386 683 374 683 L344 683 C335 683 330 678 329 670 C327 633 300 610 260 610 C219 610 192 633 190 670 C189 678 184 683 175 683 L145 683 C133 683 125 676 126 664 C132 593 183 551 260 551 L260 551 Z M260 -12 C382 -12 463 62 463 174 L463 326 C463 438 382 512 260 512 C137 512 56 438 56 326 L56 174 C56 62 137 -12 260 -12 L260 -12 Z M260 62 C185 62 136 107 136 175 L136 325 C136 393 185 438 260 438 C334 438 383 393 383 325 L383 175 C383 107 334 62 260 62 L260 62 Z " />
<glyph glyph-name="Ohungarumlaut" unicode="&#x150;" horiz-adv-x="643" d="M212 727 L238 727 C248 727 255 730 260 740 L323 840 C330 853 324 863 310 863 L270 863 C260 863 252 859 248 848 L198 748 C193 736 198 727 212 727 L212 727 Z M377 727 L402 727 C412 727 419 730 424 740 L488 840 C495 853 489 863 474 863 L434 863 C424 863 416 859 412 848 L362 748 C357 736 363 727 377 727 L377 727 Z M322 -12 C475 -12 575 81 575 223 L575 447 C575 589 475 682 322 682 C169 682 68 589 68 447 L68 223 C68 81 169 -12 322 -12 L322 -12 Z M322 66 C219 66 152 129 152 225 L152 445 C152 541 219 604 322 604 C424 604 491 541 491 445 L491 225 C491 129 424 66 322 66 L322 66 Z " />
<glyph glyph-name="ohungarumlaut" unicode="&#x151;" horiz-adv-x="518" d="M150 557 L176 557 C186 557 193 560 198 570 L261 670 C268 683 262 693 248 693 L208 693 C198 693 190 689 186 678 L136 578 C131 566 136 557 150 557 L150 557 Z M315 557 L340 557 C350 557 357 560 362 570 L426 670 C433 683 427 693 412 693 L372 693 C362 693 354 689 350 678 L300 578 C295 566 301 557 315 557 L315 557 Z M260 -12 C382 -12 463 62 463 174 L463 326 C463 438 382 512 260 512 C137 512 56 438 56 326 L56 174 C56 62 137 -12 260 -12 L260 -12 Z M260 62 C185 62 136 107 136 175 L136 325 C136 393 185 438 260 438 C334 438 383 393 383 325 L383 175 C383 107 334 62 260 62 L260 62 Z " />
<glyph glyph-name="OE" unicode="&#x152;" horiz-adv-x="932" d="M843 592 C856 592 864 600 864 613 L864 649 C864 662 856 670 843 670 L322 670 C169 670 68 577 68 435 L68 235 C68 93 169 0 322 0 L843 0 C856 0 864 8 864 21 L864 57 C864 70 856 78 843 78 L539 78 L539 301 L806 301 C819 301 827 308 827 322 L827 354 C827 368 819 375 806 375 L539 375 L539 592 L843 592 Z M322 78 C219 78 152 141 152 237 L152 433 C152 529 219 592 322 592 L454 592 L454 78 L322 78 Z " />
<glyph glyph-name="oe" unicode="&#x153;" horiz-adv-x="846" d="M771 220 C783 220 790 227 790 239 L790 328 C790 439 710 512 593 512 C512 512 449 476 425 419 L420 419 C396 477 332 512 252 512 C135 512 55 439 55 329 L55 171 C55 61 135 -12 252 -12 C334 -12 399 25 420 82 L425 82 C447 25 512 -12 599 -12 C705 -12 779 39 789 130 C791 143 782 150 770 150 L728 150 C716 150 711 144 707 133 C699 86 656 58 592 58 C513 58 463 103 463 172 L463 220 L771 220 Z M587 442 C661 442 710 397 710 329 L710 287 L463 287 L463 329 C463 397 513 442 587 442 L587 442 Z M382 175 C382 107 334 62 259 62 C185 62 135 107 135 175 L135 325 C135 393 185 438 259 438 C334 438 382 393 382 325 L382 175 Z " />
<glyph glyph-name="Racute" unicode="&#x154;" horiz-adv-x="626" d="M303 727 L328 727 C337 727 344 729 351 737 L433 839 C443 852 437 863 421 863 L374 863 C364 863 356 859 351 849 L291 749 C284 736 289 727 303 727 L303 727 Z M429 257 C518 281 573 357 573 461 C573 588 491 670 367 670 L115 670 C102 670 94 662 94 649 L94 21 C94 8 102 0 115 0 L158 0 C171 0 178 8 178 21 L178 249 L342 249 L474 16 C480 4 488 0 499 0 L553 0 C569 0 575 10 567 24 L429 257 Z M178 592 L359 592 C438 592 489 540 489 459 C489 379 438 327 359 327 L178 327 L178 592 Z " />
<glyph glyph-name="racute" unicode="&#x155;" horiz-adv-x="367" d="M189 557 L214 557 C223 557 230 559 237 567 L319 669 C329 682 323 693 307 693 L260 693 C250 693 242 689 237 679 L177 579 C170 566 175 557 189 557 L189 557 Z M314 511 C235 509 186 476 164 407 L158 407 L158 481 C158 493 151 500 139 500 L97 500 C85 500 78 493 78 481 L78 19 C78 7 85 0 97 0 L139 0 C151 0 158 7 158 19 L158 291 C158 371 212 430 315 430 C327 430 334 438 334 449 L334 492 C334 505 326 512 314 511 L314 511 Z " />
<glyph glyph-name="uni0156" unicode="&#x156;" horiz-adv-x="626" d="M429 257 C518 281 573 357 573 461 C573 588 491 670 367 670 L115 670 C102 670 94 662 94 649 L94 21 C94 8 102 0 115 0 L158 0 C171 0 178 8 178 21 L178 249 L342 249 L474 16 C480 4 488 0 499 0 L553 0 C569 0 575 10 567 24 L429 257 Z M178 592 L359 592 C438 592 489 540 489 459 C489 379 438 327 359 327 L178 327 L178 592 Z M347 -57 L300 -57 C289 -57 282 -62 279 -73 L248 -202 C245 -215 251 -223 264 -223 L287 -223 C297 -223 305 -219 309 -209 L361 -79 C367 -66 361 -57 347 -57 L347 -57 Z " />
<glyph glyph-name="uni0157" unicode="&#x157;" horiz-adv-x="367" d="M314 511 C235 509 186 476 164 407 L158 407 L158 481 C158 493 151 500 139 500 L97 500 C85 500 78 493 78 481 L78 19 C78 7 85 0 97 0 L139 0 C151 0 158 7 158 19 L158 291 C158 371 212 430 315 430 C327 430 334 438 334 449 L334 492 C334 505 326 512 314 511 L314 511 Z M147 -57 L100 -57 C89 -57 82 -62 79 -73 L48 -202 C45 -215 51 -223 64 -223 L87 -223 C97 -223 105 -219 109 -209 L161 -79 C167 -66 161 -57 147 -57 L147 -57 Z " />
<glyph glyph-name="Rcaron" unicode="&#x158;" horiz-adv-x="626" d="M263 738 C269 730 276 727 286 727 L349 727 C358 727 366 730 372 738 L456 839 C466 852 460 863 444 863 L418 863 C409 863 401 860 395 853 L320 778 L314 778 L240 853 C233 860 226 863 216 863 L189 863 C174 863 169 852 178 839 L263 738 Z M429 257 C518 281 573 357 573 461 C573 588 491 670 367 670 L115 670 C102 670 94 662 94 649 L94 21 C94 8 102 0 115 0 L158 0 C171 0 178 8 178 21 L178 249 L342 249 L474 16 C480 4 488 0 499 0 L553 0 C569 0 575 10 567 24 L429 257 Z M178 592 L359 592 C438 592 489 540 489 459 C489 379 438 327 359 327 L178 327 L178 592 Z " />
<glyph glyph-name="rcaron" unicode="&#x159;" horiz-adv-x="367" d="M331 693 L305 693 C296 693 288 690 282 683 L207 608 L201 608 L127 683 C120 690 113 693 103 693 L76 693 C61 693 56 682 65 669 L150 568 C156 560 163 557 173 557 L236 557 C245 557 253 560 259 568 L343 669 C353 682 347 693 331 693 L331 693 Z M314 511 C235 509 186 476 164 407 L158 407 L158 481 C158 493 151 500 139 500 L97 500 C85 500 78 493 78 481 L78 19 C78 7 85 0 97 0 L139 0 C151 0 158 7 158 19 L158 291 C158 371 212 430 315 430 C327 430 334 438 334 449 L334 492 C334 505 326 512 314 511 L314 511 Z " />
<glyph glyph-name="Sacute" unicode="&#x15a;" horiz-adv-x="587" d="M278 727 L303 727 C312 727 319 729 326 737 L408 839 C418 852 412 863 396 863 L349 863 C339 863 331 859 326 849 L266 749 C259 736 264 727 278 727 L278 727 Z M294 -12 C438 -12 534 65 534 181 C534 427 152 336 152 505 C152 570 211 609 289 609 C366 609 421 575 428 508 C431 495 437 488 450 488 L497 488 C510 488 518 495 517 509 C509 620 424 682 291 682 C156 682 63 611 63 498 C63 258 444 344 444 173 C444 104 380 61 295 61 C209 61 151 99 144 176 C142 189 136 195 123 195 L74 195 C61 195 53 188 54 174 C62 54 153 -12 294 -12 L294 -12 Z " />
<glyph glyph-name="sacute" unicode="&#x15b;" horiz-adv-x="470" d="M219 557 L244 557 C253 557 260 559 267 567 L349 669 C359 682 353 693 337 693 L290 693 C280 693 272 689 267 679 L207 579 C200 566 205 557 219 557 L219 557 Z M237 -12 C353 -12 428 46 428 142 C428 332 132 255 132 371 C132 414 171 442 232 442 C284 442 318 421 331 379 C337 369 341 361 355 361 L396 361 C408 361 417 368 415 381 C406 465 336 512 230 512 C122 512 49 458 49 365 C49 178 345 252 345 134 C345 88 303 58 237 58 C177 58 135 81 126 132 C122 144 118 149 107 149 L61 149 C49 149 41 142 43 130 C52 39 125 -12 237 -12 L237 -12 Z " />
<glyph glyph-name="Scircumflex" unicode="&#x15c;" horiz-adv-x="587" d="M165 727 L192 727 C202 727 209 729 216 737 L290 811 L296 811 L371 737 C377 729 385 727 394 727 L422 727 C437 727 442 738 432 750 L347 851 C342 859 334 863 325 863 L262 863 C252 863 245 859 239 851 L154 750 C145 738 150 727 165 727 L165 727 Z M294 -12 C438 -12 534 65 534 181 C534 427 152 336 152 505 C152 570 211 609 289 609 C366 609 421 575 428 508 C431 495 437 488 450 488 L497 488 C510 488 518 495 517 509 C509 620 424 682 291 682 C156 682 63 611 63 498 C63 258 444 344 444 173 C444 104 380 61 295 61 C209 61 151 99 144 176 C142 189 136 195 123 195 L74 195 C61 195 53 188 54 174 C62 54 153 -12 294 -12 L294 -12 Z " />
<glyph glyph-name="scircumflex" unicode="&#x15d;" horiz-adv-x="470" d="M106 557 L133 557 C143 557 150 559 157 567 L231 641 L237 641 L312 567 C318 559 326 557 335 557 L363 557 C378 557 383 568 373 580 L288 681 C283 689 275 693 266 693 L203 693 C193 693 186 689 180 681 L95 580 C86 568 91 557 106 557 L106 557 Z M237 -12 C353 -12 428 46 428 142 C428 332 132 255 132 371 C132 414 171 442 232 442 C284 442 318 421 331 379 C337 369 341 361 355 361 L396 361 C408 361 417 368 415 381 C406 465 336 512 230 512 C122 512 49 458 49 365 C49 178 345 252 345 134 C345 88 303 58 237 58 C177 58 135 81 126 132 C122 144 118 149 107 149 L61 149 C49 149 41 142 43 130 C52 39 125 -12 237 -12 L237 -12 Z " />
<glyph glyph-name="Scedilla" unicode="&#x15e;" horiz-adv-x="587" d="M534 181 C534 427 152 336 152 505 C152 570 211 609 289 609 C366 609 421 575 428 508 C431 495 437 488 450 488 L497 488 C510 488 518 495 517 509 C509 620 424 682 291 682 C156 682 63 611 63 498 C63 258 444 344 444 173 C444 104 380 61 295 61 C209 61 151 99 144 176 C142 189 136 195 123 195 L74 195 C61 195 53 188 54 174 C61 64 138 0 259 -11 L234 -57 C232 -62 230 -67 230 -72 L230 -77 C230 -87 236 -92 245 -92 L300 -92 C325 -92 341 -106 341 -128 C341 -154 315 -170 277 -170 C259 -170 240 -166 226 -159 C214 -156 207 -162 207 -175 L207 -185 C207 -196 212 -204 223 -207 C240 -213 263 -217 285 -217 C352 -217 398 -183 398 -130 C398 -84 366 -53 316 -53 L289 -53 L310 -12 C445 -6 534 69 534 181 L534 181 Z " />
<glyph glyph-name="scedilla" unicode="&#x15f;" horiz-adv-x="470" d="M428 142 C428 332 132 255 132 371 C132 414 171 442 232 442 C284 442 318 421 331 379 C337 369 341 361 355 361 L396 361 C408 361 417 368 415 381 C406 465 336 512 230 512 C122 512 49 458 49 365 C49 178 345 252 345 134 C345 88 303 58 237 58 C177 58 135 81 126 132 C122 144 118 149 107 149 L61 149 C49 149 41 142 43 130 C51 50 109 0 200 -10 L174 -57 C172 -62 170 -67 170 -72 L170 -77 C170 -87 176 -92 185 -92 L240 -92 C265 -92 281 -106 281 -128 C281 -154 255 -170 217 -170 C199 -170 180 -166 166 -159 C154 -156 147 -162 147 -175 L147 -185 C147 -196 152 -204 163 -207 C180 -213 203 -217 225 -217 C292 -217 338 -183 338 -130 C338 -84 306 -53 256 -53 L229 -53 L250 -12 C359 -8 428 50 428 142 L428 142 Z " />
<glyph glyph-name="Scaron" unicode="&#x160;" horiz-adv-x="587" d="M262 727 L325 727 C334 727 342 730 348 738 L432 839 C442 852 436 863 420 863 L394 863 C385 863 377 860 371 853 L296 778 L290 778 L216 853 C209 860 202 863 192 863 L165 863 C150 863 145 852 154 839 L239 738 C245 730 252 727 262 727 L262 727 Z M294 -12 C438 -12 534 65 534 181 C534 427 152 336 152 505 C152 570 211 609 289 609 C366 609 421 575 428 508 C431 495 437 488 450 488 L497 488 C510 488 518 495 517 509 C509 620 424 682 291 682 C156 682 63 611 63 498 C63 258 444 344 444 173 C444 104 380 61 295 61 C209 61 151 99 144 176 C142 189 136 195 123 195 L74 195 C61 195 53 188 54 174 C62 54 153 -12 294 -12 L294 -12 Z " />
<glyph glyph-name="scaron" unicode="&#x161;" horiz-adv-x="470" d="M203 557 L266 557 C275 557 283 560 289 568 L373 669 C383 682 377 693 361 693 L335 693 C326 693 318 690 312 683 L237 608 L231 608 L157 683 C150 690 143 693 133 693 L106 693 C91 693 86 682 95 669 L180 568 C186 560 193 557 203 557 L203 557 Z M237 -12 C353 -12 428 46 428 142 C428 332 132 255 132 371 C132 414 171 442 232 442 C284 442 318 421 331 379 C337 369 341 361 355 361 L396 361 C408 361 417 368 415 381 C406 465 336 512 230 512 C122 512 49 458 49 365 C49 178 345 252 345 134 C345 88 303 58 237 58 C177 58 135 81 126 132 C122 144 118 149 107 149 L61 149 C49 149 41 142 43 130 C52 39 125 -12 237 -12 L237 -12 Z " />
<glyph glyph-name="uni0162" unicode="&#x162;" horiz-adv-x="553" d="M494 670 L60 670 C47 670 39 662 39 649 L39 613 C39 600 47 592 60 592 L235 592 L235 21 C235 11 240 4 247 1 L248 0 L217 -57 C215 -62 213 -67 213 -72 L213 -77 C213 -87 219 -92 228 -92 L283 -92 C308 -92 324 -106 324 -128 C324 -154 298 -170 260 -170 C242 -170 223 -166 209 -159 C197 -156 190 -162 190 -175 L190 -185 C190 -196 195 -204 206 -207 C223 -213 246 -217 268 -217 C335 -217 381 -183 381 -130 C381 -84 349 -53 299 -53 L272 -53 L299 0 C312 0 319 8 319 21 L319 592 L494 592 C507 592 514 600 514 613 L514 649 C514 662 507 670 494 670 L494 670 Z " />
<glyph glyph-name="uni0163" unicode="&#x163;" horiz-adv-x="368" d="M307 500 L199 500 L199 611 C199 623 192 630 180 630 L144 630 C132 630 125 623 125 611 L125 531 C125 511 114 500 94 500 L47 500 C36 500 29 493 29 482 L29 447 C29 435 36 428 48 428 L119 428 L119 126 C119 76 142 38 181 17 L141 -57 C139 -62 138 -66 138 -71 L138 -77 C138 -87 143 -92 153 -92 L207 -92 C232 -92 248 -106 248 -128 C248 -154 222 -170 184 -170 C166 -170 147 -166 133 -159 C121 -156 114 -162 114 -175 L114 -185 C114 -196 119 -204 130 -207 C147 -213 170 -217 192 -217 C259 -217 305 -183 305 -130 C305 -84 273 -53 223 -53 L196 -53 L224 3 C233 1 243 0 254 0 L301 0 C313 0 320 7 320 19 L320 55 C320 67 313 74 301 74 L272 74 C228 74 199 102 199 145 L199 428 L307 428 C319 428 326 435 326 447 L326 481 C326 493 319 500 307 500 L307 500 Z " />
<glyph glyph-name="Tcaron" unicode="&#x164;" horiz-adv-x="553" d="M222 738 C228 730 235 727 245 727 L308 727 C317 727 325 730 331 738 L415 839 C425 852 419 863 403 863 L377 863 C368 863 360 860 354 853 L279 778 L273 778 L199 853 C192 860 185 863 175 863 L148 863 C133 863 128 852 137 839 L222 738 Z M494 670 L60 670 C47 670 39 662 39 649 L39 613 C39 600 47 592 60 592 L235 592 L235 21 C235 8 243 0 256 0 L298 0 C312 0 319 8 319 21 L319 592 L494 592 C507 592 514 600 514 613 L514 649 C514 662 507 670 494 670 L494 670 Z " />
<glyph glyph-name="tcaron" unicode="&#x165;" horiz-adv-x="368" d="M319 727 L283 727 C271 727 264 720 264 708 L264 580 C264 568 271 561 283 561 L305 561 C316 561 324 566 325 578 L337 707 C339 720 332 727 319 727 L319 727 Z M307 500 L199 500 L199 611 C199 623 192 630 180 630 L144 630 C132 630 125 623 125 611 L125 531 C125 511 114 500 94 500 L47 500 C36 500 29 493 29 482 L29 447 C29 435 36 428 48 428 L119 428 L119 126 C119 50 173 0 254 0 L301 0 C313 0 320 7 320 19 L320 55 C320 67 313 74 301 74 L272 74 C228 74 199 102 199 145 L199 428 L307 428 C319 428 326 435 326 447 L326 481 C326 493 319 500 307 500 L307 500 Z " />
<glyph glyph-name="Tbar" unicode="&#x166;" horiz-adv-x="553" d="M494 670 L60 670 C47 670 39 662 39 649 L39 613 C39 600 47 592 60 592 L235 592 L235 351 L130 351 C118 351 111 344 111 332 L111 301 C111 289 118 282 130 282 L235 282 L235 21 C235 8 243 0 256 0 L298 0 C312 0 319 8 319 21 L319 282 L422 282 C434 282 441 289 441 301 L441 332 C441 344 434 351 422 351 L319 351 L319 592 L494 592 C507 592 514 600 514 613 L514 649 C514 662 507 670 494 670 L494 670 Z " />
<glyph glyph-name="tbar" unicode="&#x167;" horiz-adv-x="368" d="M307 500 L199 500 L199 611 C199 623 192 630 180 630 L144 630 C132 630 125 623 125 611 L125 531 C125 511 114 500 94 500 L47 500 C36 500 29 493 29 482 L29 447 C29 435 36 428 48 428 L119 428 L119 291 L68 291 C56 291 49 284 49 272 L49 244 C49 232 56 225 68 225 L119 225 L119 126 C119 50 173 0 254 0 L301 0 C313 0 320 7 320 19 L320 55 C320 67 313 74 301 74 L272 74 C228 74 199 102 199 145 L199 225 L288 225 C300 225 307 232 307 244 L307 272 C307 284 300 291 288 291 L199 291 L199 428 L307 428 C319 428 326 435 326 447 L326 481 C326 493 319 500 307 500 L307 500 Z " />
<glyph glyph-name="Utilde" unicode="&#x168;" horiz-adv-x="654" d="M404 741 C456 741 486 775 491 835 C492 849 486 856 477 856 L447 856 C436 856 432 852 429 844 C426 821 410 808 387 808 C342 808 309 860 250 860 C197 860 166 825 162 762 C162 752 168 746 177 746 L207 746 C218 746 222 750 225 758 C228 781 244 794 267 794 C309 794 345 741 404 741 L404 741 Z M327 -12 C474 -12 571 77 571 213 L571 649 C571 662 563 670 550 670 L507 670 C494 670 486 662 486 649 L486 215 C486 125 423 66 327 66 C231 66 167 125 167 215 L167 649 C167 662 160 670 146 670 L104 670 C91 670 83 662 83 649 L83 213 C83 77 180 -12 327 -12 L327 -12 Z " />
<glyph glyph-name="utilde" unicode="&#x169;" horiz-adv-x="538" d="M116 576 L146 576 C157 576 161 580 164 588 C167 611 183 624 206 624 C248 624 284 571 343 571 C395 571 425 605 430 665 C431 679 425 686 416 686 L386 686 C375 686 371 682 368 674 C365 651 349 638 326 638 C281 638 248 690 189 690 C136 690 105 655 101 592 C101 582 107 576 116 576 L116 576 Z M441 500 L399 500 C387 500 380 493 380 481 L380 171 C380 113 333 63 261 63 C195 63 151 107 151 172 L151 481 C151 493 144 500 132 500 L90 500 C78 500 71 493 71 481 L71 144 C71 50 135 -12 229 -12 C302 -12 355 25 375 78 L380 78 L380 19 C380 7 387 0 399 0 L441 0 C453 0 460 7 460 19 L460 481 C460 493 453 500 441 500 L441 500 Z " />
<glyph glyph-name="Umacron" unicode="&#x16a;" horiz-adv-x="654" d="M211 757 L443 757 C455 757 462 764 462 776 L462 803 C462 815 455 822 443 822 L211 822 C199 822 192 815 192 803 L192 776 C192 764 199 757 211 757 L211 757 Z M327 -12 C474 -12 571 77 571 213 L571 649 C571 662 563 670 550 670 L507 670 C494 670 486 662 486 649 L486 215 C486 125 423 66 327 66 C231 66 167 125 167 215 L167 649 C167 662 160 670 146 670 L104 670 C91 670 83 662 83 649 L83 213 C83 77 180 -12 327 -12 L327 -12 Z " />
<glyph glyph-name="umacron" unicode="&#x16b;" horiz-adv-x="538" d="M150 587 L382 587 C394 587 401 594 401 606 L401 633 C401 645 394 652 382 652 L150 652 C138 652 131 645 131 633 L131 606 C131 594 138 587 150 587 L150 587 Z M441 500 L399 500 C387 500 380 493 380 481 L380 171 C380 113 333 63 261 63 C195 63 151 107 151 172 L151 481 C151 493 144 500 132 500 L90 500 C78 500 71 493 71 481 L71 144 C71 50 135 -12 229 -12 C302 -12 355 25 375 78 L380 78 L380 19 C380 7 387 0 399 0 L441 0 C453 0 460 7 460 19 L460 481 C460 493 453 500 441 500 L441 500 Z " />
<glyph glyph-name="Ubreve" unicode="&#x16c;" horiz-adv-x="654" d="M327 721 C403 721 454 763 459 833 C461 846 453 853 441 853 L411 853 C402 853 397 848 396 840 C394 803 367 780 327 780 C286 780 259 803 257 840 C256 848 251 853 242 853 L212 853 C200 853 192 846 193 834 C199 763 250 721 327 721 L327 721 Z M327 -12 C474 -12 571 77 571 213 L571 649 C571 662 563 670 550 670 L507 670 C494 670 486 662 486 649 L486 215 C486 125 423 66 327 66 C231 66 167 125 167 215 L167 649 C167 662 160 670 146 670 L104 670 C91 670 83 662 83 649 L83 213 C83 77 180 -12 327 -12 L327 -12 Z " />
<glyph glyph-name="ubreve" unicode="&#x16d;" horiz-adv-x="538" d="M266 551 C342 551 393 593 398 663 C400 676 392 683 380 683 L350 683 C341 683 336 678 335 670 C333 633 306 610 266 610 C225 610 198 633 196 670 C195 678 190 683 181 683 L151 683 C139 683 131 676 132 664 C138 593 189 551 266 551 L266 551 Z M441 500 L399 500 C387 500 380 493 380 481 L380 171 C380 113 333 63 261 63 C195 63 151 107 151 172 L151 481 C151 493 144 500 132 500 L90 500 C78 500 71 493 71 481 L71 144 C71 50 135 -12 229 -12 C302 -12 355 25 375 78 L380 78 L380 19 C380 7 387 0 399 0 L441 0 C453 0 460 7 460 19 L460 481 C460 493 453 500 441 500 L441 500 Z " />
<glyph glyph-name="Uring" unicode="&#x16e;" horiz-adv-x="654" d="M328 721 C387 721 428 759 428 817 C428 875 387 913 328 913 C267 913 227 875 227 817 C227 759 267 721 328 721 L328 721 Z M328 762 C294 762 272 784 272 817 C272 850 294 872 328 872 C360 872 383 850 383 817 C383 784 360 762 328 762 L328 762 Z M327 -12 C474 -12 571 77 571 213 L571 649 C571 662 563 670 550 670 L507 670 C494 670 486 662 486 649 L486 215 C486 125 423 66 327 66 C231 66 167 125 167 215 L167 649 C167 662 160 670 146 670 L104 670 C91 670 83 662 83 649 L83 213 C83 77 180 -12 327 -12 L327 -12 Z " />
<glyph glyph-name="uring" unicode="&#x16f;" horiz-adv-x="538" d="M266 551 C325 551 366 589 366 647 C366 705 325 743 266 743 C205 743 165 705 165 647 C165 589 205 551 266 551 L266 551 Z M266 702 C298 702 321 680 321 647 C321 614 298 592 266 592 C232 592 210 614 210 647 C210 680 232 702 266 702 L266 702 Z M441 500 L399 500 C387 500 380 493 380 481 L380 171 C380 113 333 63 261 63 C195 63 151 107 151 172 L151 481 C151 493 144 500 132 500 L90 500 C78 500 71 493 71 481 L71 144 C71 50 135 -12 229 -12 C302 -12 355 25 375 78 L380 78 L380 19 C380 7 387 0 399 0 L441 0 C453 0 460 7 460 19 L460 481 C460 493 453 500 441 500 L441 500 Z " />
<glyph glyph-name="Uhungarumlaut" unicode="&#x170;" horiz-adv-x="654" d="M218 727 L244 727 C254 727 261 730 266 740 L329 840 C336 853 330 863 316 863 L276 863 C266 863 258 859 254 848 L204 748 C199 736 204 727 218 727 L218 727 Z M383 727 L408 727 C418 727 425 730 430 740 L494 840 C501 853 495 863 480 863 L440 863 C430 863 422 859 418 848 L368 748 C363 736 369 727 383 727 L383 727 Z M327 -12 C474 -12 571 77 571 213 L571 649 C571 662 563 670 550 670 L507 670 C494 670 486 662 486 649 L486 215 C486 125 423 66 327 66 C231 66 167 125 167 215 L167 649 C167 662 160 670 146 670 L104 670 C91 670 83 662 83 649 L83 213 C83 77 180 -12 327 -12 L327 -12 Z " />
<glyph glyph-name="uhungarumlaut" unicode="&#x171;" horiz-adv-x="538" d="M156 557 L182 557 C192 557 199 560 204 570 L267 670 C274 683 268 693 254 693 L214 693 C204 693 196 689 192 678 L142 578 C137 566 142 557 156 557 L156 557 Z M321 557 L346 557 C356 557 363 560 368 570 L432 670 C439 683 433 693 418 693 L378 693 C368 693 360 689 356 678 L306 578 C301 566 307 557 321 557 L321 557 Z M441 500 L399 500 C387 500 380 493 380 481 L380 171 C380 113 333 63 261 63 C195 63 151 107 151 172 L151 481 C151 493 144 500 132 500 L90 500 C78 500 71 493 71 481 L71 144 C71 50 135 -12 229 -12 C302 -12 355 25 375 78 L380 78 L380 19 C380 7 387 0 399 0 L441 0 C453 0 460 7 460 19 L460 481 C460 493 453 500 441 500 L441 500 Z " />
<glyph glyph-name="Uogonek" unicode="&#x172;" horiz-adv-x="654" d="M550 670 L507 670 C494 670 486 662 486 649 L486 215 C486 125 423 66 327 66 C231 66 167 125 167 215 L167 649 C167 662 160 670 146 670 L104 670 C91 670 83 662 83 649 L83 213 C83 78 178 -10 323 -12 C288 -36 266 -73 266 -113 C266 -165 304 -199 363 -199 C383 -199 403 -195 414 -190 C421 -187 423 -182 423 -173 L423 -148 C423 -137 418 -133 408 -136 C402 -139 393 -141 385 -141 C358 -141 339 -123 339 -96 C339 -60 365 -24 405 -3 C507 23 571 103 571 213 L571 649 C571 662 563 670 550 670 L550 670 Z " />
<glyph glyph-name="uogonek" unicode="&#x173;" horiz-adv-x="538" d="M454 -136 C448 -139 439 -141 431 -141 C404 -141 385 -123 385 -96 C385 -60 412 -23 452 -2 C457 0 460 3 460 7 L460 481 C460 493 453 500 441 500 L399 500 C387 500 380 493 380 481 L380 171 C380 113 333 63 261 63 C195 63 151 107 151 172 L151 481 C151 493 144 500 132 500 L90 500 C78 500 71 493 71 481 L71 144 C71 50 135 -12 229 -12 C302 -12 355 25 375 78 L380 78 L380 19 C380 10 384 4 390 2 L390 0 C343 -22 312 -66 312 -113 C312 -165 350 -199 409 -199 C429 -199 449 -195 460 -190 C467 -187 469 -182 469 -173 L469 -148 C469 -137 464 -133 454 -136 L454 -136 Z " />
<glyph glyph-name="Wcircumflex" unicode="&#x174;" horiz-adv-x="988" d="M365 727 L392 727 C402 727 409 729 416 737 L490 811 L496 811 L571 737 C577 729 585 727 594 727 L622 727 C637 727 642 738 632 750 L547 851 C542 859 534 863 525 863 L462 863 C452 863 445 859 439 851 L354 750 C345 738 350 727 365 727 L365 727 Z M251 0 L316 0 C328 0 336 6 339 19 L491 524 L497 524 L649 19 C652 6 659 0 672 0 L737 0 C750 0 758 6 760 18 L937 647 C940 661 934 670 920 670 L871 670 C858 670 851 664 849 651 L706 112 L699 112 L541 651 C538 664 531 670 518 670 L473 670 C460 670 453 664 450 651 L293 112 L286 112 L142 651 C140 663 133 670 120 670 L68 670 C54 670 48 661 50 647 L228 18 C230 6 238 0 251 0 L251 0 Z " />
<glyph glyph-name="wcircumflex" unicode="&#x175;" horiz-adv-x="808" d="M276 557 L303 557 C313 557 320 559 327 567 L401 641 L407 641 L482 567 C488 559 496 557 505 557 L533 557 C548 557 553 568 543 580 L458 681 C453 689 445 693 436 693 L373 693 C363 693 356 689 350 681 L265 580 C256 568 261 557 276 557 L276 557 Z M207 0 L264 0 C276 0 283 6 285 17 L401 379 L407 379 L523 17 C525 6 532 0 544 0 L601 0 C612 0 620 6 623 17 L769 479 C773 491 766 500 755 500 L706 500 C695 500 688 493 686 483 L572 97 L566 97 L449 483 C446 494 439 500 428 500 L383 500 C372 500 365 494 363 483 L245 97 L239 97 L125 483 C124 493 116 500 105 500 L54 500 C42 500 35 491 39 479 L185 17 C188 6 196 0 207 0 L207 0 Z " />
<glyph glyph-name="Ycircumflex" unicode="&#x176;" horiz-adv-x="587" d="M166 727 L193 727 C203 727 210 729 217 737 L291 811 L297 811 L372 737 C378 729 386 727 395 727 L423 727 C438 727 443 738 433 750 L348 851 C343 859 335 863 326 863 L263 863 C253 863 246 859 240 851 L155 750 C146 738 151 727 166 727 L166 727 Z M273 0 L315 0 C328 0 336 8 336 21 L336 280 L545 646 C552 660 545 670 529 670 L481 670 C470 670 461 665 456 654 L299 371 L293 371 L134 654 C130 665 121 670 110 670 L58 670 C42 670 35 660 43 646 L252 279 L252 21 C252 8 259 0 273 0 L273 0 Z " />
<glyph glyph-name="ycircumflex" unicode="&#x177;" horiz-adv-x="518" d="M131 557 L158 557 C168 557 175 559 182 567 L256 641 L262 641 L337 567 C343 559 351 557 360 557 L388 557 C403 557 408 568 398 580 L313 681 C308 689 300 693 291 693 L228 693 C218 693 211 689 205 681 L120 580 C111 568 116 557 131 557 L131 557 Z M104 -180 L154 -180 C218 -180 257 -153 277 -94 L482 479 C486 492 479 500 467 500 L420 500 C409 500 401 495 399 483 L268 88 L254 88 L122 483 C120 495 113 500 101 500 L51 500 C39 500 32 492 36 479 L200 20 C203 11 209 7 218 7 L233 7 L202 -68 C190 -99 170 -113 136 -113 L104 -113 C92 -113 85 -120 85 -132 L85 -161 C85 -173 92 -180 104 -180 L104 -180 Z " />
<glyph glyph-name="Ydieresis" unicode="&#x178;" horiz-adv-x="587" d="M205 746 C235 746 254 765 254 795 C254 824 235 844 205 844 C176 844 156 824 156 795 C156 765 176 746 205 746 L205 746 Z M384 746 C413 746 433 765 433 795 C433 824 413 844 384 844 C354 844 334 824 334 795 C334 765 354 746 384 746 L384 746 Z M273 0 L315 0 C328 0 336 8 336 21 L336 280 L545 646 C552 660 545 670 529 670 L481 670 C470 670 461 665 456 654 L299 371 L293 371 L134 654 C130 665 121 670 110 670 L58 670 C42 670 35 660 43 646 L252 279 L252 21 C252 8 259 0 273 0 L273 0 Z " />
<glyph glyph-name="Zacute" unicode="&#x179;" horiz-adv-x="572" d="M271 727 L296 727 C305 727 312 729 319 737 L401 839 C411 852 405 863 389 863 L342 863 C332 863 324 859 319 849 L259 749 C252 736 257 727 271 727 L271 727 Z M81 0 L491 0 C504 0 512 8 512 21 L512 57 C512 70 504 78 491 78 L171 78 L171 84 L498 593 C504 601 507 609 507 619 L507 649 C507 662 499 670 486 670 L86 670 C73 670 65 662 65 649 L65 613 C65 600 73 592 86 592 L396 592 L396 586 L68 77 C63 69 60 61 60 51 L60 21 C60 8 68 0 81 0 L81 0 Z " />
<glyph glyph-name="zacute" unicode="&#x17a;" horiz-adv-x="476" d="M223 557 L248 557 C257 557 264 559 271 567 L353 669 C363 682 357 693 341 693 L294 693 C284 693 276 689 271 679 L211 579 C204 566 209 557 223 557 L223 557 Z M67 0 L409 0 C421 0 428 7 428 19 L428 54 C428 66 421 73 409 73 L158 73 L158 78 L415 429 C421 436 423 443 423 452 L423 481 C423 493 416 500 404 500 L72 500 C60 500 53 493 53 481 L53 446 C53 434 60 427 72 427 L313 427 L313 422 L57 71 C51 64 48 57 48 48 L48 19 C48 7 55 0 67 0 L67 0 Z " />
<glyph glyph-name="Zdotaccent" unicode="&#x17b;" horiz-adv-x="572" d="M286 746 C317 746 338 766 338 797 C338 828 317 848 286 848 C255 848 235 828 235 797 C235 766 255 746 286 746 L286 746 Z M81 0 L491 0 C504 0 512 8 512 21 L512 57 C512 70 504 78 491 78 L171 78 L171 84 L498 593 C504 601 507 609 507 619 L507 649 C507 662 499 670 486 670 L86 670 C73 670 65 662 65 649 L65 613 C65 600 73 592 86 592 L396 592 L396 586 L68 77 C63 69 60 61 60 51 L60 21 C60 8 68 0 81 0 L81 0 Z " />
<glyph glyph-name="zdotaccent" unicode="&#x17c;" horiz-adv-x="476" d="M238 576 C269 576 290 596 290 627 C290 658 269 678 238 678 C207 678 187 658 187 627 C187 596 207 576 238 576 L238 576 Z M67 0 L409 0 C421 0 428 7 428 19 L428 54 C428 66 421 73 409 73 L158 73 L158 78 L415 429 C421 436 423 443 423 452 L423 481 C423 493 416 500 404 500 L72 500 C60 500 53 493 53 481 L53 446 C53 434 60 427 72 427 L313 427 L313 422 L57 71 C51 64 48 57 48 48 L48 19 C48 7 55 0 67 0 L67 0 Z " />
<glyph glyph-name="Zcaron" unicode="&#x17d;" horiz-adv-x="572" d="M255 727 L318 727 C327 727 335 730 341 738 L425 839 C435 852 429 863 413 863 L387 863 C378 863 370 860 364 853 L289 778 L283 778 L209 853 C202 860 195 863 185 863 L158 863 C143 863 138 852 147 839 L232 738 C238 730 245 727 255 727 L255 727 Z M81 0 L491 0 C504 0 512 8 512 21 L512 57 C512 70 504 78 491 78 L171 78 L171 84 L498 593 C504 601 507 609 507 619 L507 649 C507 662 499 670 486 670 L86 670 C73 670 65 662 65 649 L65 613 C65 600 73 592 86 592 L396 592 L396 586 L68 77 C63 69 60 61 60 51 L60 21 C60 8 68 0 81 0 L81 0 Z " />
<glyph glyph-name="zcaron" unicode="&#x17e;" horiz-adv-x="476" d="M207 557 L270 557 C279 557 287 560 293 568 L377 669 C387 682 381 693 365 693 L339 693 C330 693 322 690 316 683 L241 608 L235 608 L161 683 C154 690 147 693 137 693 L110 693 C95 693 90 682 99 669 L184 568 C190 560 197 557 207 557 L207 557 Z M67 0 L409 0 C421 0 428 7 428 19 L428 54 C428 66 421 73 409 73 L158 73 L158 78 L415 429 C421 436 423 443 423 452 L423 481 C423 493 416 500 404 500 L72 500 C60 500 53 493 53 481 L53 446 C53 434 60 427 72 427 L313 427 L313 422 L57 71 C51 64 48 57 48 48 L48 19 C48 7 55 0 67 0 L67 0 Z " />
<glyph glyph-name="florin" unicode="&#x192;" horiz-adv-x="534" d="M437 670 L389 670 C310 670 264 620 255 544 L233 368 L140 368 C128 368 121 361 121 349 L121 315 C121 303 128 296 140 296 L224 296 L182 -41 C177 -85 152 -113 109 -113 L81 -113 C69 -113 62 -120 62 -132 L62 -161 C62 -173 69 -180 81 -180 L128 -180 C208 -180 253 -130 262 -54 L306 296 L405 296 C417 296 424 303 424 315 L424 349 C424 361 417 368 405 368 L315 368 L335 531 C341 575 365 603 408 603 L437 603 C449 603 456 610 456 622 L456 651 C456 663 449 670 437 670 L437 670 Z " />
<glyph glyph-name="uni01C4" unicode="&#x1c4;" horiz-adv-x="1208" d="M868 738 C874 730 881 727 891 727 L953 727 C963 727 971 730 976 738 L1061 839 C1070 852 1065 863 1049 863 L1023 863 C1013 863 1006 860 999 853 L925 778 L919 778 L845 853 C838 860 831 863 821 863 L794 863 C778 863 774 852 783 839 L868 738 Z M331 670 L115 670 C102 670 94 662 94 649 L94 21 C94 8 102 0 115 0 L331 0 C482 0 582 92 582 234 L582 436 C582 578 482 670 331 670 L331 670 Z M1127 78 L807 78 L807 84 L1134 593 C1140 601 1143 609 1143 619 L1143 649 C1143 662 1135 670 1122 670 L722 670 C709 670 701 662 701 649 L701 613 C701 600 709 592 722 592 L1032 592 L1032 586 L704 77 C699 69 696 61 696 51 L696 21 C696 8 704 0 717 0 L1127 0 C1140 0 1148 8 1148 21 L1148 57 C1148 70 1140 78 1127 78 L1127 78 Z M498 237 C498 140 431 78 329 78 L178 78 L178 592 L329 592 C431 592 498 530 498 433 L498 237 Z " />
<glyph glyph-name="uni01C5" unicode="&#x1c5;" horiz-adv-x="1126" d="M834 568 C839 560 847 557 856 557 L919 557 C928 557 936 560 942 568 L1027 669 C1036 682 1030 693 1015 693 L988 693 C979 693 971 690 965 683 L890 608 L885 608 L810 683 C803 690 796 693 787 693 L759 693 C744 693 739 682 748 669 L834 568 Z M331 670 L115 670 C102 670 94 662 94 649 L94 21 C94 8 102 0 115 0 L331 0 C482 0 582 92 582 234 L582 436 C582 578 482 670 331 670 L331 670 Z M498 237 C498 140 431 78 329 78 L178 78 L178 592 L329 592 C431 592 498 530 498 433 L498 237 Z M1058 73 L807 73 L807 78 L1064 429 C1070 436 1072 443 1072 452 L1072 481 C1072 493 1065 500 1053 500 L721 500 C709 500 702 493 702 481 L702 446 C702 434 709 427 721 427 L962 427 L962 422 L706 71 C700 64 697 57 697 48 L697 19 C697 7 704 0 716 0 L1058 0 C1070 0 1077 7 1077 19 L1077 54 C1077 66 1070 73 1058 73 L1058 73 Z " />
<glyph glyph-name="uni01C6" unicode="&#x1c6;" horiz-adv-x="1020" d="M447 700 L405 700 C393 700 386 693 386 681 L386 420 L380 420 C360 474 303 512 229 512 C127 512 59 445 59 346 L59 154 C59 55 127 -12 229 -12 C303 -12 360 26 380 80 L386 80 L386 19 C386 7 393 0 405 0 L447 0 C459 0 466 7 466 19 L466 681 C466 693 459 700 447 700 L447 700 Z M729 568 C734 560 742 557 751 557 L814 557 C823 557 831 560 837 568 L922 669 C931 682 925 693 910 693 L883 693 C874 693 866 690 860 683 L785 608 L780 608 L705 683 C698 690 691 693 682 693 L654 693 C639 693 634 682 643 669 L729 568 Z M953 73 L702 73 L702 78 L959 429 C965 436 967 443 967 452 L967 481 C967 493 960 500 948 500 L616 500 C604 500 597 493 597 481 L597 446 C597 434 604 427 616 427 L857 427 L857 422 L601 71 C595 64 592 57 592 48 L592 19 C592 7 599 0 611 0 L953 0 C965 0 972 7 972 19 L972 54 C972 66 965 73 953 73 L953 73 Z M260 63 C187 63 139 108 139 176 L139 324 C139 392 187 437 260 437 C335 437 386 384 386 325 L386 175 C386 116 335 63 260 63 L260 63 Z " />
<glyph glyph-name="uni01C7" unicode="&#x1c7;" horiz-adv-x="1086" d="M463 78 L178 78 L178 649 C178 662 171 670 158 670 L115 670 C102 670 94 662 94 649 L94 21 C94 8 102 0 115 0 L463 0 C476 0 483 8 483 21 L483 57 C483 70 476 78 463 78 L463 78 Z M982 670 L939 670 C926 670 918 662 918 649 L918 184 C918 113 868 66 791 66 C713 66 662 113 662 184 L662 199 C662 213 654 220 641 220 L599 220 C585 220 578 213 578 199 L578 181 C578 65 663 -12 791 -12 C919 -12 1003 65 1003 181 L1003 649 C1003 662 995 670 982 670 L982 670 Z " />
<glyph glyph-name="uni01C8" unicode="&#x1c8;" horiz-adv-x="770" d="M654 596 C686 596 707 617 707 648 C707 679 686 699 654 699 C622 699 601 679 601 648 C601 617 621 596 654 596 L654 596 Z M463 78 L178 78 L178 649 C178 662 171 670 158 670 L115 670 C102 670 94 662 94 649 L94 21 C94 8 102 0 115 0 L463 0 C476 0 483 8 483 21 L483 57 C483 70 476 78 463 78 L463 78 Z M676 500 L634 500 C622 500 615 493 615 481 L615 -41 C615 -84 586 -112 542 -112 L513 -112 C501 -112 494 -119 494 -131 L494 -161 C494 -173 501 -180 513 -180 L560 -180 C641 -180 695 -130 695 -54 L695 481 C695 493 688 500 676 500 L676 500 Z " />
<glyph glyph-name="uni01C9" unicode="&#x1c9;" horiz-adv-x="523" d="M202 0 L227 0 C239 0 246 7 246 19 L246 61 C246 69 241 74 233 74 L221 74 C180 74 153 100 153 140 L153 681 C153 693 146 700 134 700 L92 700 C80 700 73 693 73 681 L73 121 C73 48 124 0 202 0 L202 0 Z M406 596 C438 596 459 617 459 648 C459 679 438 699 406 699 C374 699 353 679 353 648 C353 617 373 596 406 596 L406 596 Z M265 -180 L312 -180 C393 -180 447 -130 447 -54 L447 481 C447 493 440 500 428 500 L386 500 C374 500 367 493 367 481 L367 -41 C367 -84 338 -112 294 -112 L265 -112 C253 -112 246 -119 246 -131 L246 -161 C246 -173 253 -180 265 -180 L265 -180 Z " />
<glyph glyph-name="uni01CA" unicode="&#x1ca;" horiz-adv-x="1245" d="M113 0 L159 0 C171 0 178 7 178 19 L178 491 L174 534 L181 534 L475 14 C479 4 488 0 498 0 L565 0 C577 0 584 7 584 19 L584 651 C584 663 577 670 565 670 L519 670 C507 670 500 663 500 651 L500 179 L505 136 L497 136 L203 656 C199 666 191 670 181 670 L113 670 C101 670 94 663 94 651 L94 19 C94 7 101 0 113 0 L113 0 Z M951 -12 C1079 -12 1163 65 1163 181 L1163 649 C1163 662 1155 670 1142 670 L1099 670 C1086 670 1078 662 1078 649 L1078 184 C1078 113 1028 66 951 66 C873 66 822 113 822 184 L822 199 C822 213 814 220 801 220 L759 220 C745 220 738 213 738 199 L738 181 C738 65 823 -12 951 -12 L951 -12 Z " />
<glyph glyph-name="uni01CB" unicode="&#x1cb;" horiz-adv-x="917" d="M801 596 C833 596 854 617 854 648 C854 679 833 699 801 699 C769 699 748 679 748 648 C748 617 768 596 801 596 L801 596 Z M113 0 L159 0 C171 0 178 7 178 19 L178 491 L174 534 L181 534 L475 14 C479 4 488 0 498 0 L565 0 C577 0 584 7 584 19 L584 651 C584 663 577 670 565 670 L519 670 C507 670 500 663 500 651 L500 179 L505 136 L497 136 L203 656 C199 666 191 670 181 670 L113 670 C101 670 94 663 94 651 L94 19 C94 7 101 0 113 0 L113 0 Z M660 -180 L707 -180 C788 -180 842 -130 842 -54 L842 481 C842 493 835 500 823 500 L781 500 C769 500 762 493 762 481 L762 -41 C762 -84 733 -112 689 -112 L660 -112 C648 -112 641 -119 641 -131 L641 -161 C641 -173 648 -180 660 -180 L660 -180 Z " />
<glyph glyph-name="uni01CC" unicode="&#x1cc;" horiz-adv-x="788" d="M672 596 C704 596 725 617 725 648 C725 679 704 699 672 699 C640 699 619 679 619 648 C619 617 639 596 672 596 L672 596 Z M315 512 C241 512 184 474 164 420 L158 420 L158 481 C158 493 151 500 139 500 L97 500 C85 500 78 493 78 481 L78 19 C78 7 85 0 97 0 L139 0 C151 0 158 7 158 19 L158 326 C158 385 208 437 283 437 C353 437 399 393 399 325 L399 19 C399 7 406 0 418 0 L460 0 C472 0 479 7 479 19 L479 354 C479 449 413 512 315 512 L315 512 Z M694 500 L652 500 C640 500 633 493 633 481 L633 -41 C633 -84 604 -112 560 -112 L531 -112 C519 -112 512 -119 512 -131 L512 -161 C512 -173 519 -180 531 -180 L578 -180 C659 -180 713 -130 713 -54 L713 481 C713 493 706 500 694 500 L694 500 Z " />
<glyph glyph-name="uni01CD" unicode="&#x1cd;" horiz-adv-x="643" d="M267 738 C273 730 280 727 290 727 L353 727 C362 727 370 730 376 738 L460 839 C470 852 464 863 448 863 L422 863 C413 863 405 860 399 853 L324 778 L318 778 L244 853 C237 860 230 863 220 863 L193 863 C178 863 173 852 182 839 L267 738 Z M599 23 L385 652 C382 665 375 670 362 670 L281 670 C268 670 261 665 258 652 L44 23 C40 8 47 0 62 0 L112 0 C123 0 130 6 133 17 L181 167 L458 167 L507 17 C510 6 517 0 528 0 L581 0 C596 0 603 8 599 23 L599 23 Z M206 244 L316 585 L323 585 L433 244 L206 244 Z " />
<glyph glyph-name="uni01CE" unicode="&#x1ce;" horiz-adv-x="523" d="M207 568 C213 560 220 557 230 557 L293 557 C302 557 310 560 316 568 L400 669 C410 682 404 693 388 693 L362 693 C353 693 345 690 339 683 L264 608 L258 608 L184 683 C177 690 170 693 160 693 L133 693 C118 693 113 682 122 669 L207 568 Z M258 512 C147 512 66 458 66 371 C66 359 73 352 85 352 L126 352 C137 352 143 358 146 369 C152 416 194 442 256 442 C330 442 374 401 374 337 L374 281 L214 281 C111 281 46 224 46 134 C46 44 112 -12 215 -12 C293 -12 350 23 371 77 L378 77 L378 19 C378 7 385 0 397 0 L435 0 C447 0 454 7 454 19 L454 346 C454 446 378 512 258 512 L258 512 Z M239 56 C170 56 127 87 127 139 C127 188 163 218 223 218 L374 218 L374 156 C374 99 321 56 239 56 L239 56 Z " />
<glyph glyph-name="Gcaron" unicode="&#x1e6;" horiz-adv-x="633" d="M262 738 C268 730 275 727 285 727 L348 727 C357 727 365 730 371 738 L455 839 C465 852 459 863 443 863 L417 863 C408 863 400 860 394 853 L319 778 L313 778 L239 853 C232 860 225 863 215 863 L188 863 C173 863 168 852 177 839 L262 738 Z M544 340 L354 340 C341 340 333 333 333 320 L333 293 C333 280 341 272 354 272 L481 272 L481 213 C481 122 416 63 317 63 C217 63 152 123 152 216 L152 450 C152 543 217 604 317 604 C411 604 473 553 479 459 C482 449 487 443 500 443 L546 443 C558 443 566 449 564 462 C556 602 464 682 317 682 C167 682 68 591 68 452 L68 218 C68 79 167 -12 317 -12 C467 -12 565 77 565 214 L565 320 C565 333 558 340 544 340 L544 340 Z " />
<glyph glyph-name="gcaron" unicode="&#x1e7;" horiz-adv-x="541" d="M218 568 C224 560 231 557 241 557 L304 557 C313 557 321 560 327 568 L411 669 C421 682 415 693 399 693 L373 693 C364 693 356 690 350 683 L275 608 L269 608 L195 683 C188 690 181 693 171 693 L144 693 C129 693 124 682 133 669 L218 568 Z M447 500 L405 500 C393 500 386 493 386 481 L386 420 L380 420 C360 474 303 512 229 512 C127 512 59 445 59 346 L59 178 C59 78 127 12 229 12 C302 12 360 48 380 102 L386 102 L386 -21 C386 -86 338 -129 263 -129 C201 -129 152 -102 148 -52 C144 -44 139 -40 129 -40 L86 -40 C76 -40 68 -46 70 -59 C77 -143 152 -192 263 -192 C388 -192 466 -125 466 -25 L466 481 C466 493 459 500 447 500 L447 500 Z M260 87 C187 87 139 132 139 200 L139 324 C139 392 187 437 260 437 C335 437 386 384 386 325 L386 199 C386 139 335 87 260 87 L260 87 Z " />
<glyph glyph-name="uni01EA" unicode="&#x1ea;" horiz-adv-x="643" d="M322 682 C169 682 68 589 68 447 L68 223 C68 82 168 -11 319 -12 C284 -36 262 -73 262 -113 C262 -165 300 -199 359 -199 C379 -199 399 -195 410 -190 C417 -187 419 -182 419 -173 L419 -148 C419 -137 414 -133 404 -136 C398 -139 389 -141 381 -141 C354 -141 335 -123 335 -96 C335 -61 361 -24 400 -3 C508 24 575 107 575 223 L575 447 C575 589 475 682 322 682 L322 682 Z M491 225 C491 129 424 66 322 66 C219 66 152 129 152 225 L152 445 C152 541 219 604 322 604 C424 604 491 541 491 445 L491 225 Z " />
<glyph glyph-name="uni01EB" unicode="&#x1eb;" horiz-adv-x="518" d="M260 512 C137 512 56 438 56 326 L56 174 C56 64 134 -9 252 -12 C221 -36 202 -71 202 -108 C202 -160 240 -194 299 -194 C319 -194 339 -190 350 -185 C357 -182 359 -177 359 -168 L359 -143 C359 -132 354 -128 344 -131 C338 -134 329 -136 321 -136 C294 -136 275 -118 275 -91 C275 -58 298 -23 333 -2 C413 22 463 86 463 174 L463 326 C463 438 382 512 260 512 L260 512 Z M383 175 C383 107 334 62 260 62 C185 62 136 107 136 175 L136 325 C136 393 185 438 260 438 C334 438 383 393 383 325 L383 175 Z " />
<glyph glyph-name="uni01F1" unicode="&#x1f1;" horiz-adv-x="1208" d="M331 670 L115 670 C102 670 94 662 94 649 L94 21 C94 8 102 0 115 0 L331 0 C482 0 582 92 582 234 L582 436 C582 578 482 670 331 670 L331 670 Z M1127 78 L807 78 L807 84 L1134 593 C1140 601 1143 609 1143 619 L1143 649 C1143 662 1135 670 1122 670 L722 670 C709 670 701 662 701 649 L701 613 C701 600 709 592 722 592 L1032 592 L1032 586 L704 77 C699 69 696 61 696 51 L696 21 C696 8 704 0 717 0 L1127 0 C1140 0 1148 8 1148 21 L1148 57 C1148 70 1140 78 1127 78 L1127 78 Z M498 237 C498 140 431 78 329 78 L178 78 L178 592 L329 592 C431 592 498 530 498 433 L498 237 Z " />
<glyph glyph-name="uni01F2" unicode="&#x1f2;" horiz-adv-x="1126" d="M331 670 L115 670 C102 670 94 662 94 649 L94 21 C94 8 102 0 115 0 L331 0 C482 0 582 92 582 234 L582 436 C582 578 482 670 331 670 L331 670 Z M498 237 C498 140 431 78 329 78 L178 78 L178 592 L329 592 C431 592 498 530 498 433 L498 237 Z M1058 73 L807 73 L807 78 L1064 429 C1070 436 1072 443 1072 452 L1072 481 C1072 493 1065 500 1053 500 L721 500 C709 500 702 493 702 481 L702 446 C702 434 709 427 721 427 L962 427 L962 422 L706 71 C700 64 697 57 697 48 L697 19 C697 7 704 0 716 0 L1058 0 C1070 0 1077 7 1077 19 L1077 54 C1077 66 1070 73 1058 73 L1058 73 Z " />
<glyph glyph-name="uni01F3" unicode="&#x1f3;" horiz-adv-x="1020" d="M447 700 L405 700 C393 700 386 693 386 681 L386 420 L380 420 C360 474 303 512 229 512 C127 512 59 445 59 346 L59 154 C59 55 127 -12 229 -12 C303 -12 360 26 380 80 L386 80 L386 19 C386 7 393 0 405 0 L447 0 C459 0 466 7 466 19 L466 681 C466 693 459 700 447 700 L447 700 Z M953 73 L702 73 L702 78 L959 429 C965 436 967 443 967 452 L967 481 C967 493 960 500 948 500 L616 500 C604 500 597 493 597 481 L597 446 C597 434 604 427 616 427 L857 427 L857 422 L601 71 C595 64 592 57 592 48 L592 19 C592 7 599 0 611 0 L953 0 C965 0 972 7 972 19 L972 54 C972 66 965 73 953 73 L953 73 Z M260 63 C187 63 139 108 139 176 L139 324 C139 392 187 437 260 437 C335 437 386 384 386 325 L386 175 C386 116 335 63 260 63 L260 63 Z " />
<glyph glyph-name="uni01F4" unicode="&#x1f4;" horiz-adv-x="633" d="M302 727 L327 727 C336 727 343 729 350 737 L432 839 C442 852 436 863 420 863 L373 863 C363 863 355 859 350 849 L290 749 C283 736 288 727 302 727 L302 727 Z M544 340 L354 340 C341 340 333 333 333 320 L333 293 C333 280 341 272 354 272 L481 272 L481 213 C481 122 416 63 317 63 C217 63 152 123 152 216 L152 450 C152 543 217 604 317 604 C411 604 473 553 479 459 C482 449 487 443 500 443 L546 443 C558 443 566 449 564 462 C556 602 464 682 317 682 C167 682 68 591 68 452 L68 218 C68 79 167 -12 317 -12 C467 -12 565 77 565 214 L565 320 C565 333 558 340 544 340 L544 340 Z " />
<glyph glyph-name="uni01F5" unicode="&#x1f5;" horiz-adv-x="541" d="M257 557 L282 557 C291 557 298 559 305 567 L387 669 C397 682 391 693 375 693 L328 693 C318 693 310 689 305 679 L245 579 C238 566 243 557 257 557 L257 557 Z M447 500 L405 500 C393 500 386 493 386 481 L386 420 L380 420 C360 474 303 512 229 512 C127 512 59 445 59 346 L59 178 C59 78 127 12 229 12 C302 12 360 48 380 102 L386 102 L386 -21 C386 -86 338 -129 263 -129 C201 -129 152 -102 148 -52 C144 -44 139 -40 129 -40 L86 -40 C76 -40 68 -46 70 -59 C77 -143 152 -192 263 -192 C388 -192 466 -125 466 -25 L466 481 C466 493 459 500 447 500 L447 500 Z M260 87 C187 87 139 132 139 200 L139 324 C139 392 187 437 260 437 C335 437 386 384 386 325 L386 199 C386 139 335 87 260 87 L260 87 Z " />
<glyph glyph-name="AEacute" unicode="&#x1fc;" horiz-adv-x="898" d="M456 727 L481 727 C490 727 497 729 504 737 L586 839 C596 852 590 863 574 863 L527 863 C517 863 509 859 504 849 L444 749 C437 736 442 727 456 727 L456 727 Z M809 592 C822 592 830 600 830 613 L830 649 C830 662 822 670 809 670 L378 670 C366 670 358 666 353 654 L16 24 C9 9 15 0 31 0 L83 0 C95 0 103 4 108 17 L187 167 L420 167 L420 21 C420 8 428 0 441 0 L809 0 C822 0 830 8 830 21 L830 57 C830 70 822 78 809 78 L505 78 L505 301 L772 301 C785 301 793 308 793 322 L793 354 C793 368 785 375 772 375 L505 375 L505 592 L809 592 Z M228 244 L412 592 L420 592 L420 244 L228 244 Z " />
<glyph glyph-name="aeacute" unicode="&#x1fd;" horiz-adv-x="838" d="M399 557 L424 557 C433 557 440 559 447 567 L529 669 C539 682 533 693 517 693 L470 693 C460 693 452 689 447 679 L387 579 C380 566 385 557 399 557 L399 557 Z M763 218 C775 218 782 225 782 237 L782 328 C782 439 701 512 585 512 C503 512 438 475 417 419 L412 419 C391 474 330 512 245 512 C142 512 67 465 66 371 C66 359 73 352 85 352 L125 352 C137 352 143 358 146 369 C152 416 189 442 255 442 C328 442 375 399 375 334 L375 283 L212 283 C112 283 46 225 46 136 C46 47 118 -12 227 -12 C315 -12 389 25 412 82 L417 82 C438 25 506 -12 591 -12 C697 -12 772 39 780 130 C782 143 774 150 762 150 L719 150 C708 150 702 144 699 133 C690 86 648 58 584 58 C505 58 455 103 455 172 L455 218 L763 218 Z M579 442 C653 442 702 397 702 329 L702 283 L455 283 L455 329 C455 397 504 442 579 442 L579 442 Z M241 56 C172 56 127 89 127 140 C127 187 164 218 221 218 L375 218 L375 157 C375 96 320 56 241 56 L241 56 Z " />
<glyph glyph-name="Oslashacute" unicode="&#x1fe;" horiz-adv-x="643" d="M305 727 L330 727 C339 727 346 729 353 737 L435 839 C445 852 439 863 423 863 L376 863 C366 863 358 859 353 849 L293 749 C286 736 291 727 305 727 L305 727 Z M517 606 L556 671 C566 688 558 700 543 700 L521 700 C508 700 499 695 493 683 L470 645 C430 669 380 682 322 682 C169 682 68 589 68 447 L68 223 C68 159 89 104 126 64 L87 -1 C77 -18 85 -30 100 -30 L122 -30 C135 -30 144 -25 150 -13 L173 26 C213 1 264 -12 322 -12 C475 -12 575 81 575 223 L575 447 C575 512 554 566 517 606 L517 606 Z M152 225 L152 445 C152 541 219 604 322 604 C364 604 400 593 428 574 L172 143 C159 166 152 194 152 225 L152 225 Z M491 225 C491 129 424 66 322 66 C279 66 243 77 215 96 L471 527 C484 504 491 476 491 445 L491 225 Z " />
<glyph glyph-name="oslashacute" unicode="&#x1ff;" horiz-adv-x="518" d="M254 557 L279 557 C288 557 295 559 302 567 L384 669 C394 682 388 693 372 693 L325 693 C315 693 307 689 302 679 L242 579 C235 566 240 557 254 557 L254 557 Z M416 453 L417 455 L447 501 C457 517 450 530 434 530 L416 530 C403 530 394 526 387 514 L370 487 C339 503 302 512 260 512 C137 512 56 438 56 326 L56 174 C56 122 73 78 104 46 L74 -1 C63 -17 70 -30 86 -30 L105 -30 C117 -30 126 -25 134 -14 L151 12 C181 -3 218 -12 260 -12 C382 -12 463 62 463 174 L463 326 C463 377 446 421 416 453 L416 453 Z M136 325 C136 393 185 438 260 438 C287 438 310 432 329 421 L149 119 C141 135 136 154 136 175 L136 325 Z M383 175 C383 107 334 62 260 62 C233 62 210 68 191 78 L194 84 L371 379 C379 363 383 345 383 325 L383 175 Z " />
<glyph glyph-name="uni0200" unicode="&#x200;" horiz-adv-x="643" d="M218 740 C223 730 231 727 241 727 L265 727 C279 727 286 736 280 748 L230 848 C226 859 218 863 208 863 L168 863 C154 863 148 853 156 840 L218 740 Z M382 740 C388 730 395 727 405 727 L430 727 C443 727 450 736 445 748 L395 848 C391 859 383 863 373 863 L333 863 C318 863 313 853 320 840 L382 740 Z M599 23 L385 652 C382 665 375 670 362 670 L281 670 C268 670 261 665 258 652 L44 23 C40 8 47 0 62 0 L112 0 C123 0 130 6 133 17 L181 167 L458 167 L507 17 C510 6 517 0 528 0 L581 0 C596 0 603 8 599 23 L599 23 Z M206 244 L316 585 L323 585 L433 244 L206 244 Z " />
<glyph glyph-name="uni0201" unicode="&#x201;" horiz-adv-x="523" d="M157 570 C162 560 170 557 180 557 L204 557 C218 557 225 566 219 578 L169 678 C165 689 157 693 147 693 L107 693 C93 693 87 683 95 670 L157 570 Z M321 570 C327 560 334 557 344 557 L369 557 C382 557 389 566 384 578 L334 678 C330 689 322 693 312 693 L272 693 C257 693 252 683 259 670 L321 570 Z M258 512 C147 512 66 458 66 371 C66 359 73 352 85 352 L126 352 C137 352 143 358 146 369 C152 416 194 442 256 442 C330 442 374 401 374 337 L374 281 L214 281 C111 281 46 224 46 134 C46 44 112 -12 215 -12 C293 -12 350 23 371 77 L378 77 L378 19 C378 7 385 0 397 0 L435 0 C447 0 454 7 454 19 L454 346 C454 446 378 512 258 512 L258 512 Z M239 56 C170 56 127 87 127 139 C127 188 163 218 223 218 L374 218 L374 156 C374 99 321 56 239 56 L239 56 Z " />
<glyph glyph-name="uni0202" unicode="&#x202;" horiz-adv-x="643" d="M207 727 L237 727 C246 727 251 731 252 740 C254 777 281 800 322 800 C362 800 389 776 391 740 C392 731 397 727 406 727 L436 727 C448 727 456 734 454 747 C449 817 398 859 322 859 C245 859 194 816 188 746 C186 734 195 727 207 727 L207 727 Z M599 23 L385 652 C382 665 375 670 362 670 L281 670 C268 670 261 665 258 652 L44 23 C40 8 47 0 62 0 L112 0 C123 0 130 6 133 17 L181 167 L458 167 L507 17 C510 6 517 0 528 0 L581 0 C596 0 603 8 599 23 L599 23 Z M206 244 L316 585 L323 585 L433 244 L206 244 Z " />
<glyph glyph-name="uni0203" unicode="&#x203;" horiz-adv-x="523" d="M146 557 L176 557 C185 557 190 561 191 570 C193 607 220 630 261 630 C301 630 328 606 330 570 C331 561 336 557 345 557 L375 557 C387 557 395 564 393 577 C388 647 337 689 261 689 C184 689 133 646 127 576 C125 564 134 557 146 557 L146 557 Z M258 512 C147 512 66 458 66 371 C66 359 73 352 85 352 L126 352 C137 352 143 358 146 369 C152 416 194 442 256 442 C330 442 374 401 374 337 L374 281 L214 281 C111 281 46 224 46 134 C46 44 112 -12 215 -12 C293 -12 350 23 371 77 L378 77 L378 19 C378 7 385 0 397 0 L435 0 C447 0 454 7 454 19 L454 346 C454 446 378 512 258 512 L258 512 Z M239 56 C170 56 127 87 127 139 C127 188 163 218 223 218 L374 218 L374 156 C374 99 321 56 239 56 L239 56 Z " />
<glyph glyph-name="uni0204" unicode="&#x204;" horiz-adv-x="566" d="M195 740 C200 730 208 727 218 727 L242 727 C256 727 263 736 257 748 L207 848 C203 859 195 863 185 863 L145 863 C131 863 125 853 133 840 L195 740 Z M359 740 C365 730 372 727 382 727 L407 727 C420 727 427 736 422 748 L372 848 C368 859 360 863 350 863 L310 863 C295 863 290 853 297 840 L359 740 Z M483 592 C496 592 503 600 503 612 L503 650 C503 662 496 670 483 670 L114 670 C102 670 94 662 94 650 L94 20 C94 8 102 0 114 0 L483 0 C496 0 503 8 503 20 L503 58 C503 70 496 78 483 78 L178 78 L178 299 L446 299 C459 299 466 307 466 320 L466 356 C466 369 459 377 446 377 L178 377 L178 592 L483 592 Z " />
<glyph glyph-name="uni0205" unicode="&#x205;" horiz-adv-x="518" d="M155 570 C160 560 168 557 178 557 L202 557 C216 557 223 566 217 578 L167 678 C163 689 155 693 145 693 L105 693 C91 693 85 683 93 670 L155 570 Z M319 570 C325 560 332 557 342 557 L367 557 C380 557 387 566 382 578 L332 678 C328 689 320 693 310 693 L270 693 C255 693 250 683 257 670 L319 570 Z M443 220 C455 220 462 227 462 239 L462 326 C462 438 382 512 259 512 C136 512 55 438 55 326 L55 174 C55 62 137 -12 262 -12 C374 -12 454 42 462 133 C462 143 455 149 443 149 L400 149 C389 149 383 143 380 132 C372 87 327 58 262 58 C185 58 135 103 135 172 L135 220 L443 220 Z M259 442 C334 442 382 397 382 329 L382 287 L135 287 L135 329 C135 397 185 442 259 442 L259 442 Z " />
<glyph glyph-name="uni0206" unicode="&#x206;" horiz-adv-x="566" d="M184 727 L214 727 C223 727 228 731 229 740 C231 777 258 800 299 800 C339 800 366 776 368 740 C369 731 374 727 383 727 L413 727 C425 727 433 734 431 747 C426 817 375 859 299 859 C222 859 171 816 165 746 C163 734 172 727 184 727 L184 727 Z M483 592 C496 592 503 600 503 612 L503 650 C503 662 496 670 483 670 L114 670 C102 670 94 662 94 650 L94 20 C94 8 102 0 114 0 L483 0 C496 0 503 8 503 20 L503 58 C503 70 496 78 483 78 L178 78 L178 299 L446 299 C459 299 466 307 466 320 L466 356 C466 369 459 377 446 377 L178 377 L178 592 L483 592 Z " />
<glyph glyph-name="uni0207" unicode="&#x207;" horiz-adv-x="518" d="M144 557 L174 557 C183 557 188 561 189 570 C191 607 218 630 259 630 C299 630 326 606 328 570 C329 561 334 557 343 557 L373 557 C385 557 393 564 391 577 C386 647 335 689 259 689 C182 689 131 646 125 576 C123 564 132 557 144 557 L144 557 Z M443 220 C455 220 462 227 462 239 L462 326 C462 438 382 512 259 512 C136 512 55 438 55 326 L55 174 C55 62 137 -12 262 -12 C374 -12 454 42 462 133 C462 143 455 149 443 149 L400 149 C389 149 383 143 380 132 C372 87 327 58 262 58 C185 58 135 103 135 172 L135 220 L443 220 Z M259 442 C334 442 382 397 382 329 L382 287 L135 287 L135 329 C135 397 185 442 259 442 L259 442 Z " />
<glyph glyph-name="uni0208" unicode="&#x208;" horiz-adv-x="273" d="M56 727 L80 727 C94 727 101 736 95 748 L45 848 C41 859 33 863 23 863 L-17 863 C-31 863 -37 853 -29 840 L33 740 C38 730 46 727 56 727 L56 727 Z M220 727 L245 727 C258 727 265 736 260 748 L210 848 C206 859 198 863 188 863 L148 863 C133 863 128 853 135 840 L197 740 C203 730 210 727 220 727 L220 727 Z M115 0 L158 0 C171 0 178 8 178 21 L178 649 C178 662 171 670 158 670 L115 670 C102 670 94 662 94 649 L94 21 C94 8 102 0 115 0 L115 0 Z " />
<glyph glyph-name="uni0209" unicode="&#x209;" horiz-adv-x="236" d="M37 557 L61 557 C75 557 82 566 76 578 L26 678 C22 689 14 693 4 693 L-36 693 C-50 693 -56 683 -48 670 L14 570 C19 560 27 557 37 557 L37 557 Z M201 557 L226 557 C239 557 246 566 241 578 L191 678 C187 689 179 693 169 693 L129 693 C114 693 109 683 116 670 L178 570 C184 560 191 557 201 557 L201 557 Z M97 0 L139 0 C151 0 158 7 158 19 L158 481 C158 493 151 500 139 500 L97 500 C85 500 78 493 78 481 L78 19 C78 7 85 0 97 0 L97 0 Z " />
<glyph glyph-name="uni020A" unicode="&#x20a;" horiz-adv-x="273" d="M137 859 C60 859 9 816 3 746 C1 734 10 727 22 727 L52 727 C61 727 66 731 67 740 C69 777 96 800 137 800 C177 800 204 776 206 740 C207 731 212 727 221 727 L251 727 C263 727 271 734 269 747 C264 817 213 859 137 859 L137 859 Z M115 0 L158 0 C171 0 178 8 178 21 L178 649 C178 662 171 670 158 670 L115 670 C102 670 94 662 94 649 L94 21 C94 8 102 0 115 0 L115 0 Z " />
<glyph glyph-name="uni020B" unicode="&#x20b;" horiz-adv-x="236" d="M118 689 C41 689 -10 646 -16 576 C-18 564 -9 557 3 557 L33 557 C42 557 47 561 48 570 C50 607 77 630 118 630 C158 630 185 606 187 570 C188 561 193 557 202 557 L232 557 C244 557 252 564 250 577 C245 647 194 689 118 689 L118 689 Z M97 0 L139 0 C151 0 158 7 158 19 L158 481 C158 493 151 500 139 500 L97 500 C85 500 78 493 78 481 L78 19 C78 7 85 0 97 0 L97 0 Z " />
<glyph glyph-name="uni020C" unicode="&#x20c;" horiz-adv-x="643" d="M241 727 L265 727 C279 727 286 736 280 748 L230 848 C226 859 218 863 208 863 L168 863 C154 863 148 853 156 840 L218 740 C223 730 231 727 241 727 L241 727 Z M405 727 L430 727 C443 727 450 736 445 748 L395 848 C391 859 383 863 373 863 L333 863 C318 863 313 853 320 840 L382 740 C388 730 395 727 405 727 L405 727 Z M322 -12 C475 -12 575 81 575 223 L575 447 C575 589 475 682 322 682 C169 682 68 589 68 447 L68 223 C68 81 169 -12 322 -12 L322 -12 Z M322 66 C219 66 152 129 152 225 L152 445 C152 541 219 604 322 604 C424 604 491 541 491 445 L491 225 C491 129 424 66 322 66 L322 66 Z " />
<glyph glyph-name="uni020D" unicode="&#x20d;" horiz-adv-x="518" d="M179 557 L203 557 C217 557 224 566 218 578 L168 678 C164 689 156 693 146 693 L106 693 C92 693 86 683 94 670 L156 570 C161 560 169 557 179 557 L179 557 Z M343 557 L368 557 C381 557 388 566 383 578 L333 678 C329 689 321 693 311 693 L271 693 C256 693 251 683 258 670 L320 570 C326 560 333 557 343 557 L343 557 Z M260 -12 C382 -12 463 62 463 174 L463 326 C463 438 382 512 260 512 C137 512 56 438 56 326 L56 174 C56 62 137 -12 260 -12 L260 -12 Z M260 62 C185 62 136 107 136 175 L136 325 C136 393 185 438 260 438 C334 438 383 393 383 325 L383 175 C383 107 334 62 260 62 L260 62 Z " />
<glyph glyph-name="uni020E" unicode="&#x20e;" horiz-adv-x="643" d="M322 859 C245 859 194 816 188 746 C186 734 195 727 207 727 L237 727 C246 727 251 731 252 740 C254 777 281 800 322 800 C362 800 389 776 391 740 C392 731 397 727 406 727 L436 727 C448 727 456 734 454 747 C449 817 398 859 322 859 L322 859 Z M322 -12 C475 -12 575 81 575 223 L575 447 C575 589 475 682 322 682 C169 682 68 589 68 447 L68 223 C68 81 169 -12 322 -12 L322 -12 Z M322 66 C219 66 152 129 152 225 L152 445 C152 541 219 604 322 604 C424 604 491 541 491 445 L491 225 C491 129 424 66 322 66 L322 66 Z " />
<glyph glyph-name="uni020F" unicode="&#x20f;" horiz-adv-x="518" d="M260 689 C183 689 132 646 126 576 C124 564 133 557 145 557 L175 557 C184 557 189 561 190 570 C192 607 219 630 260 630 C300 630 327 606 329 570 C330 561 335 557 344 557 L374 557 C386 557 394 564 392 577 C387 647 336 689 260 689 L260 689 Z M260 -12 C382 -12 463 62 463 174 L463 326 C463 438 382 512 260 512 C137 512 56 438 56 326 L56 174 C56 62 137 -12 260 -12 L260 -12 Z M260 62 C185 62 136 107 136 175 L136 325 C136 393 185 438 260 438 C334 438 383 393 383 325 L383 175 C383 107 334 62 260 62 L260 62 Z " />
<glyph glyph-name="uni0210" unicode="&#x210;" horiz-adv-x="626" d="M214 740 C219 730 227 727 237 727 L261 727 C275 727 282 736 276 748 L226 848 C222 859 214 863 204 863 L164 863 C150 863 144 853 152 840 L214 740 Z M378 740 C384 730 391 727 401 727 L426 727 C439 727 446 736 441 748 L391 848 C387 859 379 863 369 863 L329 863 C314 863 309 853 316 840 L378 740 Z M429 257 C518 281 573 357 573 461 C573 588 491 670 367 670 L115 670 C102 670 94 662 94 649 L94 21 C94 8 102 0 115 0 L158 0 C171 0 178 8 178 21 L178 249 L342 249 L474 16 C480 4 488 0 499 0 L553 0 C569 0 575 10 567 24 L429 257 Z M178 592 L359 592 C438 592 489 540 489 459 C489 379 438 327 359 327 L178 327 L178 592 Z " />
<glyph glyph-name="uni0211" unicode="&#x211;" horiz-adv-x="367" d="M123 557 L147 557 C161 557 168 566 162 578 L112 678 C108 689 100 693 90 693 L50 693 C36 693 30 683 38 670 L100 570 C105 560 113 557 123 557 L123 557 Z M264 570 C270 560 277 557 287 557 L312 557 C325 557 332 566 327 578 L277 678 C273 689 265 693 255 693 L215 693 C200 693 195 683 202 670 L264 570 Z M314 511 C235 509 186 476 164 407 L158 407 L158 481 C158 493 151 500 139 500 L97 500 C85 500 78 493 78 481 L78 19 C78 7 85 0 97 0 L139 0 C151 0 158 7 158 19 L158 291 C158 371 212 430 315 430 C327 430 334 438 334 449 L334 492 C334 505 326 512 314 511 L314 511 Z " />
<glyph glyph-name="uni0212" unicode="&#x212;" horiz-adv-x="626" d="M203 727 L233 727 C242 727 247 731 248 740 C250 777 277 800 318 800 C358 800 385 776 387 740 C388 731 393 727 402 727 L432 727 C444 727 452 734 450 747 C445 817 394 859 318 859 C241 859 190 816 184 746 C182 734 191 727 203 727 L203 727 Z M429 257 C518 281 573 357 573 461 C573 588 491 670 367 670 L115 670 C102 670 94 662 94 649 L94 21 C94 8 102 0 115 0 L158 0 C171 0 178 8 178 21 L178 249 L342 249 L474 16 C480 4 488 0 499 0 L553 0 C569 0 575 10 567 24 L429 257 Z M178 592 L359 592 C438 592 489 540 489 459 C489 379 438 327 359 327 L178 327 L178 592 Z " />
<glyph glyph-name="uni0213" unicode="&#x213;" horiz-adv-x="367" d="M119 557 C128 557 133 561 134 570 C136 607 163 630 204 630 C244 630 271 606 273 570 C274 561 279 557 288 557 L318 557 C330 557 338 564 336 577 C331 647 280 689 204 689 C127 689 76 646 70 576 C68 564 77 557 89 557 L119 557 Z M314 511 C235 509 186 476 164 407 L158 407 L158 481 C158 493 151 500 139 500 L97 500 C85 500 78 493 78 481 L78 19 C78 7 85 0 97 0 L139 0 C151 0 158 7 158 19 L158 291 C158 371 212 430 315 430 C327 430 334 438 334 449 L334 492 C334 505 326 512 314 511 L314 511 Z " />
<glyph glyph-name="uni0214" unicode="&#x214;" horiz-adv-x="654" d="M246 727 L270 727 C284 727 291 736 285 748 L235 848 C231 859 223 863 213 863 L173 863 C159 863 153 853 161 840 L223 740 C228 730 236 727 246 727 L246 727 Z M410 727 L435 727 C448 727 455 736 450 748 L400 848 C396 859 388 863 378 863 L338 863 C323 863 318 853 325 840 L387 740 C393 730 400 727 410 727 L410 727 Z M327 -12 C474 -12 571 77 571 213 L571 649 C571 662 563 670 550 670 L507 670 C494 670 486 662 486 649 L486 215 C486 125 423 66 327 66 C231 66 167 125 167 215 L167 649 C167 662 160 670 146 670 L104 670 C91 670 83 662 83 649 L83 213 C83 77 180 -12 327 -12 L327 -12 Z " />
<glyph glyph-name="uni0215" unicode="&#x215;" horiz-adv-x="538" d="M162 570 C167 560 175 557 185 557 L209 557 C223 557 230 566 224 578 L174 678 C170 689 162 693 152 693 L112 693 C98 693 92 683 100 670 L162 570 Z M326 570 C332 560 339 557 349 557 L374 557 C387 557 394 566 389 578 L339 678 C335 689 327 693 317 693 L277 693 C262 693 257 683 264 670 L326 570 Z M441 500 L399 500 C387 500 380 493 380 481 L380 171 C380 113 333 63 261 63 C195 63 151 107 151 172 L151 481 C151 493 144 500 132 500 L90 500 C78 500 71 493 71 481 L71 144 C71 50 135 -12 229 -12 C302 -12 355 25 375 78 L380 78 L380 19 C380 7 387 0 399 0 L441 0 C453 0 460 7 460 19 L460 481 C460 493 453 500 441 500 L441 500 Z " />
<glyph glyph-name="uni0216" unicode="&#x216;" horiz-adv-x="654" d="M327 859 C250 859 199 816 193 746 C191 734 200 727 212 727 L242 727 C251 727 256 731 257 740 C259 777 286 800 327 800 C367 800 394 776 396 740 C397 731 402 727 411 727 L441 727 C453 727 461 734 459 747 C454 817 403 859 327 859 L327 859 Z M327 -12 C474 -12 571 77 571 213 L571 649 C571 662 563 670 550 670 L507 670 C494 670 486 662 486 649 L486 215 C486 125 423 66 327 66 C231 66 167 125 167 215 L167 649 C167 662 160 670 146 670 L104 670 C91 670 83 662 83 649 L83 213 C83 77 180 -12 327 -12 L327 -12 Z " />
<glyph glyph-name="uni0217" unicode="&#x217;" horiz-adv-x="538" d="M151 557 L181 557 C190 557 195 561 196 570 C198 607 225 630 266 630 C306 630 333 606 335 570 C336 561 341 557 350 557 L380 557 C392 557 400 564 398 577 C393 647 342 689 266 689 C189 689 138 646 132 576 C130 564 139 557 151 557 L151 557 Z M441 500 L399 500 C387 500 380 493 380 481 L380 171 C380 113 333 63 261 63 C195 63 151 107 151 172 L151 481 C151 493 144 500 132 500 L90 500 C78 500 71 493 71 481 L71 144 C71 50 135 -12 229 -12 C302 -12 355 25 375 78 L380 78 L380 19 C380 7 387 0 399 0 L441 0 C453 0 460 7 460 19 L460 481 C460 493 453 500 441 500 L441 500 Z " />
<glyph glyph-name="uni0218" unicode="&#x218;" horiz-adv-x="587" d="M294 -12 C438 -12 534 65 534 181 C534 427 152 336 152 505 C152 570 211 609 289 609 C366 609 421 575 428 508 C431 495 437 488 450 488 L497 488 C510 488 518 495 517 509 C509 620 424 682 291 682 C156 682 63 611 63 498 C63 258 444 344 444 173 C444 104 380 61 295 61 C209 61 151 99 144 176 C142 189 136 195 123 195 L74 195 C61 195 53 188 54 174 C62 54 153 -12 294 -12 L294 -12 Z M240 -223 L263 -223 C273 -223 281 -219 285 -209 L337 -79 C343 -66 337 -57 323 -57 L276 -57 C265 -57 258 -62 255 -73 L224 -202 C221 -215 227 -223 240 -223 L240 -223 Z " />
<glyph glyph-name="uni0219" unicode="&#x219;" horiz-adv-x="470" d="M237 -12 C353 -12 428 46 428 142 C428 332 132 255 132 371 C132 414 171 442 232 442 C284 442 318 421 331 379 C337 369 341 361 355 361 L396 361 C408 361 417 368 415 381 C406 465 336 512 230 512 C122 512 49 458 49 365 C49 178 345 252 345 134 C345 88 303 58 237 58 C177 58 135 81 126 132 C122 144 118 149 107 149 L61 149 C49 149 41 142 43 130 C52 39 125 -12 237 -12 L237 -12 Z M180 -223 L203 -223 C213 -223 221 -219 225 -209 L277 -79 C283 -66 277 -57 263 -57 L216 -57 C205 -57 198 -62 195 -73 L164 -202 C161 -215 167 -223 180 -223 L180 -223 Z " />
<glyph glyph-name="uni021A" unicode="&#x21a;" horiz-adv-x="553" d="M494 670 L60 670 C47 670 39 662 39 649 L39 613 C39 600 47 592 60 592 L235 592 L235 21 C235 8 243 0 256 0 L298 0 C312 0 319 8 319 21 L319 592 L494 592 C507 592 514 600 514 613 L514 649 C514 662 507 670 494 670 L494 670 Z M306 -57 L259 -57 C248 -57 241 -62 238 -73 L207 -202 C204 -215 210 -223 223 -223 L246 -223 C256 -223 264 -219 268 -209 L320 -79 C326 -66 320 -57 306 -57 L306 -57 Z " />
<glyph glyph-name="uni021B" unicode="&#x21b;" horiz-adv-x="368" d="M307 500 L199 500 L199 611 C199 623 192 630 180 630 L144 630 C132 630 125 623 125 611 L125 531 C125 511 114 500 94 500 L47 500 C36 500 29 493 29 482 L29 447 C29 435 36 428 48 428 L119 428 L119 126 C119 50 173 0 254 0 L301 0 C313 0 320 7 320 19 L320 55 C320 67 313 74 301 74 L272 74 C228 74 199 102 199 145 L199 428 L307 428 C319 428 326 435 326 447 L326 481 C326 493 319 500 307 500 L307 500 Z M231 -57 L184 -57 C173 -57 166 -62 163 -73 L132 -202 C129 -215 135 -223 148 -223 L171 -223 C181 -223 189 -219 193 -209 L245 -79 C251 -66 245 -57 231 -57 L231 -57 Z " />
<glyph glyph-name="uni0232" unicode="&#x232;" horiz-adv-x="587" d="M178 757 L410 757 C422 757 429 764 429 776 L429 803 C429 815 422 822 410 822 L178 822 C166 822 159 815 159 803 L159 776 C159 764 166 757 178 757 L178 757 Z M273 0 L315 0 C328 0 336 8 336 21 L336 280 L545 646 C552 660 545 670 529 670 L481 670 C470 670 461 665 456 654 L299 371 L293 371 L134 654 C130 665 121 670 110 670 L58 670 C42 670 35 660 43 646 L252 279 L252 21 C252 8 259 0 273 0 L273 0 Z " />
<glyph glyph-name="uni0233" unicode="&#x233;" horiz-adv-x="518" d="M143 587 L375 587 C387 587 394 594 394 606 L394 633 C394 645 387 652 375 652 L143 652 C131 652 124 645 124 633 L124 606 C124 594 131 587 143 587 L143 587 Z M104 -180 L154 -180 C218 -180 257 -153 277 -94 L482 479 C486 492 479 500 467 500 L420 500 C409 500 401 495 399 483 L268 88 L254 88 L122 483 C120 495 113 500 101 500 L51 500 C39 500 32 492 36 479 L200 20 C203 11 209 7 218 7 L233 7 L202 -68 C190 -99 170 -113 136 -113 L104 -113 C92 -113 85 -120 85 -132 L85 -161 C85 -173 92 -180 104 -180 L104 -180 Z " />
<glyph glyph-name="uni0237" unicode="&#x237;" horiz-adv-x="238" d="M-19 -180 L28 -180 C109 -180 163 -130 163 -54 L163 481 C163 493 156 500 144 500 L102 500 C90 500 83 493 83 481 L83 -41 C83 -84 54 -112 10 -112 L-19 -112 C-31 -112 -38 -119 -38 -131 L-38 -161 C-38 -173 -31 -180 -19 -180 L-19 -180 Z " />
<glyph glyph-name="uni02BC" unicode="&#x2bc;" horiz-adv-x="76" d="M19 504 L41 504 C52 504 60 509 61 521 L73 650 C75 663 68 670 55 670 L19 670 C7 670 0 663 0 651 L0 523 C0 511 7 504 19 504 L19 504 Z " />
<glyph glyph-name="circumflex" unicode="&#x2c6;" horiz-adv-x="313" d="M28 557 L55 557 C65 557 72 559 79 567 L153 641 L159 641 L234 567 C240 559 248 557 257 557 L285 557 C300 557 305 568 295 580 L210 681 C205 689 197 693 188 693 L125 693 C115 693 108 689 102 681 L17 580 C8 568 13 557 28 557 L28 557 Z " />
<glyph glyph-name="caron" unicode="&#x2c7;" horiz-adv-x="313" d="M125 557 L188 557 C197 557 205 560 211 568 L295 669 C305 682 299 693 283 693 L257 693 C248 693 240 690 234 683 L159 608 L153 608 L79 683 C72 690 65 693 55 693 L28 693 C13 693 8 682 17 669 L102 568 C108 560 115 557 125 557 L125 557 Z " />
<glyph glyph-name="breve" unicode="&#x2d8;" horiz-adv-x="269" d="M135 551 C211 551 262 593 267 663 C269 676 261 683 249 683 L219 683 C210 683 205 678 204 670 C202 633 175 610 135 610 C94 610 67 633 65 670 C64 678 59 683 50 683 L20 683 C8 683 0 676 1 664 C7 593 58 551 135 551 L135 551 Z " />
<glyph glyph-name="dotaccent" unicode="&#x2d9;" horiz-adv-x="103" d="M51 576 C82 576 103 596 103 627 C103 658 82 678 51 678 C20 678 0 658 0 627 C0 596 20 576 51 576 L51 576 Z " />
<glyph glyph-name="ring" unicode="&#x2da;" horiz-adv-x="201" d="M101 551 C160 551 201 589 201 647 C201 705 160 743 101 743 C40 743 0 705 0 647 C0 589 40 551 101 551 L101 551 Z M101 592 C67 592 45 614 45 647 C45 680 67 702 101 702 C133 702 156 680 156 647 C156 614 133 592 101 592 L101 592 Z " />
<glyph glyph-name="ogonek" unicode="&#x2db;" horiz-adv-x="157" d="M97 -199 C117 -199 137 -195 148 -190 C155 -187 157 -182 157 -173 L157 -148 C157 -137 152 -133 142 -136 C136 -139 127 -141 119 -141 C92 -141 73 -123 73 -96 C73 -60 100 -23 140 -2 C145 0 148 3 148 7 L148 30 L77 14 L78 0 C31 -22 0 -66 0 -113 C0 -165 38 -199 97 -199 L97 -199 Z " />
<glyph glyph-name="tilde" unicode="&#x2dc;" horiz-adv-x="330" d="M242 571 C294 571 324 605 329 665 C330 679 324 686 315 686 L285 686 C274 686 270 682 267 674 C264 651 248 638 225 638 C180 638 147 690 88 690 C35 690 4 655 0 592 C0 582 6 576 15 576 L45 576 C56 576 60 580 63 588 C66 611 82 624 105 624 C147 624 183 571 242 571 L242 571 Z " />
<glyph glyph-name="hungarumlaut" unicode="&#x2dd;" horiz-adv-x="312" d="M23 557 L49 557 C59 557 66 560 71 570 L134 670 C141 683 135 693 121 693 L81 693 C71 693 63 689 59 678 L9 578 C4 566 9 557 23 557 L23 557 Z M188 557 L213 557 C223 557 230 560 235 570 L299 670 C306 683 300 693 285 693 L245 693 C235 693 227 689 223 678 L173 578 C168 566 174 557 188 557 L188 557 Z " />
<glyph glyph-name="gravecomb" unicode="&#x300;" d="M-50 557 L-26 557 C-11 557 -6 566 -13 579 L-73 679 C-78 689 -86 693 -95 693 L-144 693 C-160 693 -165 682 -155 669 L-73 567 C-67 559 -59 557 -50 557 L-50 557 Z " />
<glyph glyph-name="acutecomb" unicode="&#x301;" d="M-150 557 L-125 557 C-116 557 -109 559 -102 567 L-20 669 C-10 682 -16 693 -32 693 L-79 693 C-89 693 -97 689 -102 679 L-162 579 C-169 566 -164 557 -150 557 L-150 557 Z " />
</font>
</svg>
