<?xml version="1.0" encoding="UTF-8"?>
<svg xmlns="http://www.w3.org/2000/svg" xmlns:xlink="http://www.w3.org/1999/xlink" version="1.2" >
<font id="Config Rounded Bold Italic">
<font-face  font-family="Config Rounded" units-per-em="1000" ascent="770" descent="-230" font-style="italic" font-weight="700" font-stretch="normal" slope="-9" cap-height="670" x-height="500" underline-position="-74" underline-thickness="92" />
<missing-glyph  horiz-adv-x="500" d="M410 770 L93 770 L93 -230 L410 -230 L410 770 Z M333 703 L333 670 L267 670 L267 633 L333 633 L333 600 L167 600 L167 633 L233 633 L233 670 L168 670 L168 703 L333 703 Z M267 574 L267 504 L333 504 L333 470 L167 470 L167 574 L267 574 Z M233 540 L200 540 L200 504 L233 504 L233 540 Z M333 443 L333 410 L267 410 L267 340 L167 340 L167 373 L233 373 L233 410 L167 410 L167 443 L333 443 Z M333 383 L333 283 L167 283 L167 317 L300 317 L300 383 L333 383 Z M333 261 L333 148 L167 148 L167 261 L200 261 L200 181 L300 181 L300 228 L267 228 L267 205 L233 205 L233 261 L333 261 Z M333 88 L333 -25 L167 -25 L167 88 L333 88 Z M300 55 L200 55 L200 8 L300 8 L300 55 Z M333 -48 L333 -81 L301 -81 L231 -128 L333 -128 L333 -161 L167 -161 L167 -128 L237 -81 L167 -81 L167 -48 L333 -48 Z " />
<glyph glyph-name="NULL" d="" />
<glyph glyph-name="CR" unicode="&#xd;" horiz-adv-x="250" d="" />
<glyph glyph-name="space" unicode="&#x20;" horiz-adv-x="226" d="" />
<glyph glyph-name="exclam" unicode="&#x21;" horiz-adv-x="267" d="M102 219 L157 219 C176 219 188 229 193 249 L245 486 L269 639 C272 659 264 670 244 670 L158 670 C138 670 125 659 121 639 L98 486 L75 249 C73 229 82 219 102 219 L102 219 Z M93 -10 C147 -10 187 26 195 79 C203 132 174 167 121 167 C68 167 27 132 18 79 C10 26 40 -10 93 -10 L93 -10 Z " />
<glyph glyph-name="quotedbl" unicode="&#x22;" horiz-adv-x="463" d="M124 415 L183 415 C202 415 214 424 219 444 L262 628 L263 639 C266 659 257 670 237 670 L151 670 C131 670 118 659 115 639 L113 628 L98 444 C96 424 105 415 124 415 L124 415 Z M333 415 L391 415 C410 415 422 424 427 444 L470 628 L471 639 C474 659 466 670 446 670 L360 670 C340 670 326 659 323 639 L322 628 L306 444 C304 424 313 415 333 415 L333 415 Z " />
<glyph glyph-name="numbersign" unicode="&#x23;" horiz-adv-x="703" d="M663 504 L604 504 L645 637 C651 658 643 670 622 670 L565 670 C546 670 533 661 527 641 L485 504 L352 504 L393 637 C400 658 391 670 370 670 L313 670 C294 670 281 661 275 641 L233 504 L161 504 C141 504 128 493 124 473 L118 433 C115 413 124 402 144 402 L201 402 L160 268 L84 268 C64 268 50 257 47 237 L40 197 C37 177 47 166 67 166 L128 166 L87 33 C81 12 90 0 111 0 L168 0 C186 0 200 9 206 29 L248 166 L380 166 L339 33 C333 12 342 0 362 0 L420 0 C438 0 452 9 458 29 L500 166 L569 166 C589 166 601 177 604 197 L611 237 C614 257 606 268 586 268 L532 268 L573 402 L646 402 C666 402 679 413 682 433 L688 473 C692 493 683 504 663 504 L663 504 Z M412 268 L280 268 L321 402 L453 402 L412 268 Z " />
<glyph glyph-name="dollar" unicode="&#x24;" horiz-adv-x="559" d="M407 639 L416 694 C420 714 410 725 390 725 L320 725 C300 725 287 714 284 694 L275 638 C177 617 107 550 93 459 C59 248 372 312 355 202 C349 163 313 136 264 136 C218 136 191 158 189 200 C187 212 182 221 164 221 L82 221 C62 221 47 210 48 189 C46 104 93 49 179 31 L170 -24 C167 -44 177 -55 197 -55 L267 -55 C287 -55 299 -44 303 -24 L312 32 C413 54 484 123 499 219 C534 434 220 363 238 473 C243 509 276 534 322 534 C362 534 386 515 388 479 C392 468 397 459 414 459 L495 459 C515 459 529 471 530 491 C532 571 487 622 407 639 L407 639 Z " />
<glyph glyph-name="percent" unicode="&#x25;" horiz-adv-x="864" d="M214 308 C306 308 375 363 389 447 L404 543 C417 627 365 682 273 682 C181 682 111 627 98 543 L83 447 C69 363 122 308 214 308 L214 308 Z M171 0 L220 0 C238 0 252 7 264 23 L734 630 C751 652 745 670 720 670 L671 670 C653 670 639 663 627 647 L158 40 C140 18 146 0 171 0 L171 0 Z M229 404 C201 404 184 422 188 449 L203 541 C208 568 230 586 258 586 C287 586 304 568 300 541 L285 449 C281 422 258 404 229 404 L229 404 Z M620 -12 C711 -12 780 43 792 127 L808 223 C822 307 770 362 679 362 C586 362 516 307 502 223 L487 127 C474 43 527 -12 620 -12 L620 -12 Z M634 84 C605 84 588 102 592 129 L607 221 C611 248 634 266 663 266 C692 266 707 248 703 221 L689 129 C684 102 663 84 634 84 L634 84 Z " />
<glyph glyph-name="ampersand" unicode="&#x26;" horiz-adv-x="639" d="M595 291 C598 311 589 322 569 322 L511 322 C491 322 478 311 474 291 L468 243 C467 235 465 227 462 219 L365 344 C450 389 506 454 517 524 C531 615 468 682 354 682 C239 682 155 613 141 526 C134 479 148 430 174 384 L172 374 C91 340 35 271 22 192 C3 73 96 -12 250 -12 C324 -12 386 7 437 44 L459 16 C468 4 478 0 494 0 L557 0 C577 0 590 10 592 26 C595 41 591 53 583 64 L537 123 C564 157 581 199 588 245 L595 291 Z M266 517 C271 549 300 573 337 573 C374 573 395 551 390 522 C385 492 351 459 297 433 C277 461 262 489 266 517 L266 517 Z M285 104 C204 104 160 145 169 199 C175 234 202 267 241 290 L374 123 C348 111 318 104 285 104 L285 104 Z " />
<glyph glyph-name="quotesingle" unicode="&#x27;" horiz-adv-x="255" d="M124 415 L183 415 C202 415 214 424 219 444 L262 628 L263 639 C266 659 257 670 237 670 L151 670 C131 670 118 659 115 639 L113 628 L98 444 C96 424 105 415 124 415 L124 415 Z " />
<glyph glyph-name="parenleft" unicode="&#x28;" horiz-adv-x="352" d="M170 -150 L233 -150 C258 -150 268 -135 258 -114 C208 -10 189 133 214 285 C237 435 300 580 384 684 C400 705 395 720 370 720 L307 720 C291 720 278 715 267 702 C165 597 94 447 68 285 C42 124 67 -26 134 -132 C143 -145 154 -150 170 -150 L170 -150 Z " />
<glyph glyph-name="parenright" unicode="&#x29;" horiz-adv-x="352" d="M-7 -150 L56 -150 C72 -150 85 -145 96 -132 C198 -26 271 124 296 285 C322 447 297 597 229 702 C220 715 209 720 193 720 L130 720 C106 720 96 705 105 684 C156 581 175 438 151 285 C126 135 64 -9 -21 -114 C-37 -135 -31 -150 -7 -150 L-7 -150 Z " />
<glyph glyph-name="asterisk" unicode="&#x2a;" horiz-adv-x="426" d="M433 607 L420 639 C416 652 404 655 389 647 L366 636 L295 584 L321 665 L325 688 C327 703 320 712 305 712 L267 712 C252 712 242 703 240 688 L236 665 L237 585 L182 636 L163 647 C151 655 139 652 129 639 L106 607 C97 593 97 582 109 574 L128 562 L199 533 L119 504 L96 493 C83 485 77 474 83 460 L96 428 C100 415 112 412 127 420 L150 431 L221 483 L195 402 L191 379 C189 364 196 355 211 355 L249 355 C263 355 274 364 276 379 L280 402 L279 482 L334 431 L353 420 C365 412 377 415 387 428 L411 460 C419 474 419 485 407 493 L389 504 L317 533 L398 562 L420 574 C433 582 439 593 433 607 L433 607 Z " />
<glyph glyph-name="plus" unicode="&#x2b;" horiz-adv-x="551" d="M475 359 L356 359 L375 481 C378 501 369 512 349 512 L285 512 C265 512 253 501 250 481 L230 359 L110 359 C90 359 78 348 74 328 L65 269 C61 249 71 238 91 238 L211 238 L191 115 C188 95 198 84 218 84 L282 84 C302 84 314 95 317 115 L336 238 L456 238 C476 238 488 249 491 269 L501 328 C504 348 495 359 475 359 L475 359 Z " />
<glyph glyph-name="comma" unicode="&#x2c;" horiz-adv-x="270" d="M10 -99 L55 -99 C73 -99 86 -92 95 -75 L200 115 C211 137 204 152 181 152 L93 152 C74 152 61 143 55 124 L-12 -66 C-19 -87 -11 -99 10 -99 L10 -99 Z " />
<glyph glyph-name="hyphen" unicode="&#x2d;" horiz-adv-x="408" d="M87 212 L309 212 C329 212 342 223 345 243 L356 313 C359 333 350 344 330 344 L108 344 C88 344 75 333 72 313 L61 243 C58 223 67 212 87 212 L87 212 Z " />
<glyph glyph-name="period" unicode="&#x2e;" horiz-adv-x="268" d="M94 -10 C149 -10 190 27 198 82 C207 137 177 172 122 172 C67 172 25 137 17 82 C8 27 39 -10 94 -10 L94 -10 Z " />
<glyph glyph-name="slash" unicode="&#x2f;" horiz-adv-x="455" d="M-9 -150 L66 -150 C84 -150 97 -142 105 -124 L493 685 C504 706 495 720 475 720 L400 720 C383 720 369 712 361 694 L-27 -115 C-37 -136 -29 -150 -9 -150 L-9 -150 Z " />
<glyph glyph-name="zero" unicode="0" horiz-adv-x="629" d="M274 -12 C425 -12 538 79 560 217 L597 453 C618 591 534 682 383 682 C232 682 118 591 96 453 L59 217 C37 79 123 -12 274 -12 L274 -12 Z M295 124 C233 124 198 162 207 220 L243 450 C253 508 299 546 362 546 C423 546 458 508 449 450 L412 220 C403 162 356 124 295 124 L295 124 Z " />
<glyph glyph-name="one" unicode="1" horiz-adv-x="406" d="M164 0 L250 0 C270 0 283 11 286 31 L382 639 C385 659 377 670 357 670 L293 670 C279 670 267 668 252 662 L125 610 C108 604 99 592 96 575 L85 504 C81 480 94 470 117 480 L206 517 L216 517 L139 31 C136 11 144 0 164 0 L164 0 Z " />
<glyph glyph-name="two" unicode="2" horiz-adv-x="572" d="M42 0 L449 0 C469 0 482 11 486 31 L497 105 C500 125 491 136 471 136 L253 136 L254 144 L428 295 C517 369 551 431 561 494 C579 605 498 682 355 682 C212 682 106 603 87 487 L84 469 C81 449 93 440 111 440 L203 440 C220 440 233 447 236 467 L238 475 C245 519 282 547 334 547 C384 547 412 519 406 480 C400 445 367 406 296 345 L49 133 C35 122 29 110 26 95 L16 31 C13 11 22 0 42 0 L42 0 Z " />
<glyph glyph-name="three" unicode="3" horiz-adv-x="579" d="M248 -12 C398 -12 508 66 526 181 C539 257 505 320 440 341 L442 349 C505 369 554 426 565 497 C582 607 500 682 358 682 C215 682 110 605 94 504 L92 496 C89 476 99 465 119 465 L212 465 C228 465 240 474 245 486 C254 526 286 553 336 553 C386 553 415 523 407 476 C399 428 360 397 308 397 L241 397 C221 397 208 386 204 366 L196 311 C193 291 202 280 222 280 L302 280 C354 280 382 248 374 199 C366 150 324 117 268 117 C211 117 185 148 188 188 C184 201 177 210 157 210 L67 210 C47 210 34 199 31 179 L29 168 C13 67 98 -12 248 -12 L248 -12 Z " />
<glyph glyph-name="four" unicode="4" horiz-adv-x="605" d="M539 260 L498 260 L558 639 C561 659 553 670 533 670 L394 670 C377 670 364 664 353 649 L48 261 C39 248 34 236 32 222 L23 162 C20 142 29 131 49 131 L331 131 L315 31 C311 11 320 0 340 0 L426 0 C446 0 459 11 462 31 L478 131 L519 131 C539 131 552 142 555 162 L565 229 C569 249 559 260 539 260 L539 260 Z M383 468 L351 260 L190 260 L192 268 L386 516 L398 516 L383 468 Z " />
<glyph glyph-name="five" unicode="5" horiz-adv-x="578" d="M247 -12 C403 -12 518 81 540 222 C561 352 490 439 364 439 C317 439 274 425 250 404 L242 404 L284 541 L511 541 C531 541 543 552 546 572 L557 639 C560 659 551 670 531 670 L208 670 C189 670 175 660 170 641 L73 313 C66 292 76 280 97 280 L208 280 C216 280 220 282 226 286 C243 304 274 317 307 317 C364 317 396 277 386 216 C377 156 333 117 273 117 C220 117 193 141 191 185 C189 199 183 207 164 207 L72 207 C54 207 41 195 37 177 L36 167 C20 63 108 -12 247 -12 L247 -12 Z " />
<glyph glyph-name="six" unicode="6" horiz-adv-x="583" d="M251 -12 C403 -12 521 82 544 226 C564 352 498 439 378 439 C339 439 302 429 284 414 L276 414 L464 632 C482 653 477 670 454 670 L357 670 C341 670 328 665 316 650 L140 436 C88 373 48 295 36 222 C14 84 98 -12 251 -12 L251 -12 Z M272 117 C211 117 178 157 187 217 C197 278 244 317 304 317 C365 317 400 277 391 218 C381 157 331 117 272 117 L272 117 Z " />
<glyph glyph-name="seven" unicode="7" horiz-adv-x="543" d="M92 0 L190 0 C207 0 221 7 230 23 L542 536 C550 550 555 561 556 575 L567 639 C570 659 561 670 541 670 L145 670 C125 670 111 659 108 639 L96 565 C93 545 102 534 122 534 L377 534 L376 526 L77 40 C62 15 69 0 92 0 L92 0 Z " />
<glyph glyph-name="eight" unicode="8" horiz-adv-x="593" d="M255 -12 C409 -12 522 68 540 183 C552 259 517 320 450 345 L451 353 C518 378 563 434 574 499 C591 606 507 682 364 682 C221 682 115 605 98 499 C87 432 118 377 174 353 L173 345 C98 321 43 259 31 183 C13 68 102 -12 255 -12 L255 -12 Z M321 401 C265 401 231 432 238 478 C246 525 289 556 345 556 C400 556 434 525 426 478 C419 432 376 401 321 401 L321 401 Z M275 116 C212 116 175 149 183 203 C192 256 239 289 302 289 C366 289 403 256 394 203 C386 149 339 116 275 116 L275 116 Z " />
<glyph glyph-name="nine" unicode="9" horiz-adv-x="583" d="M160 0 L256 0 C272 0 285 5 297 20 L472 236 C522 297 562 374 574 447 C596 586 513 682 359 682 C207 682 89 589 66 442 C46 314 111 224 231 224 C269 224 305 233 323 248 L331 248 L150 38 C132 17 137 0 160 0 L160 0 Z M306 353 C245 353 210 393 219 452 C229 513 278 553 338 553 C398 553 432 513 423 453 C413 392 366 353 306 353 L306 353 Z " />
<glyph glyph-name="colon" unicode="&#x3a;" horiz-adv-x="277" d="M147 303 C202 303 244 339 252 394 C261 449 231 484 176 484 C121 484 79 449 71 394 C62 339 92 303 147 303 L147 303 Z M98 -10 C153 -10 194 27 203 82 C211 137 181 172 126 172 C71 172 30 137 21 82 C12 27 43 -10 98 -10 L98 -10 Z " />
<glyph glyph-name="semicolon" unicode="&#x3b;" horiz-adv-x="285" d="M159 303 C214 303 256 339 264 394 C273 449 243 484 188 484 C133 484 91 449 83 394 C74 339 104 303 159 303 L159 303 Z M5 -99 L50 -99 C68 -99 80 -92 90 -75 L194 115 C206 137 199 152 176 152 L87 152 C69 152 56 143 50 124 L-18 -66 C-24 -87 -16 -99 5 -99 L5 -99 Z " />
<glyph glyph-name="less" unicode="&#x3c;" horiz-adv-x="511" d="M425 101 L436 170 C439 188 432 198 417 205 L205 295 L206 303 L447 392 C464 397 474 409 477 427 L488 496 C491 519 477 529 455 520 L104 369 C87 362 78 350 75 333 L64 263 C61 246 66 235 82 227 L385 77 C404 67 421 77 425 101 L425 101 Z " />
<glyph glyph-name="equal" unicode="&#x3d;" horiz-adv-x="551" d="M108 347 L473 347 C493 347 506 358 509 378 L519 436 C521 456 512 467 492 467 L127 467 C107 467 95 456 92 436 L82 378 C79 358 88 347 108 347 L108 347 Z M74 129 L438 129 C458 129 472 140 475 160 L484 219 C487 239 478 250 458 250 L93 250 C73 250 60 239 57 219 L48 160 C45 140 54 129 74 129 L74 129 Z " />
<glyph glyph-name="greater" unicode="&#x3e;" horiz-adv-x="511" d="M71 77 L422 227 C439 235 448 246 451 263 L462 333 C465 350 459 362 444 369 L141 520 C121 529 104 519 101 496 L90 427 C87 409 93 397 109 392 L322 303 L320 295 L80 205 C61 198 52 188 50 170 L38 101 C35 77 48 67 71 77 L71 77 Z " />
<glyph glyph-name="question" unicode="&#x3f;" horiz-adv-x="531" d="M213 219 L304 219 C319 219 334 224 336 242 L339 258 C352 340 518 353 540 493 C559 612 475 682 335 682 C191 682 91 620 69 494 C66 474 75 462 95 462 L193 462 C207 462 213 470 218 480 C231 524 262 547 313 547 C362 547 391 522 385 482 C372 398 213 404 193 276 L189 253 C185 232 193 219 213 219 L213 219 Z M222 -10 C275 -10 315 26 323 79 C332 132 303 167 249 167 C196 167 155 132 146 79 C139 26 168 -10 222 -10 L222 -10 Z " />
<glyph glyph-name="at" unicode="&#x40;" horiz-adv-x="903" d="M626 469 L562 469 C542 469 529 458 526 438 L522 416 L516 416 C506 454 471 479 423 479 C351 479 292 427 280 350 L260 220 C246 134 288 75 371 75 C421 75 469 100 492 138 L498 138 C518 98 565 75 626 75 C753 75 848 176 871 325 C906 542 764 682 529 682 C278 682 92 524 54 283 C15 34 160 -132 421 -132 C495 -132 572 -119 626 -99 C639 -95 646 -83 648 -66 L654 -32 C657 -10 645 -1 623 -7 C573 -23 505 -34 444 -34 C238 -34 129 92 159 284 C188 467 326 584 514 584 C687 584 791 482 766 324 C753 244 714 186 662 186 C635 186 616 205 620 233 L653 438 C656 458 646 469 626 469 L626 469 Z M434 194 C403 194 385 214 389 243 L400 311 C405 340 429 360 460 360 C492 360 510 339 506 312 L495 242 C490 215 466 194 434 194 L434 194 Z " />
<glyph glyph-name="A" unicode="A" horiz-adv-x="649" d="M582 39 L498 640 C496 661 486 670 465 670 L318 670 C297 670 283 661 274 640 L0 39 C-10 14 -2 0 23 0 L114 0 C132 0 145 10 152 28 L193 127 L411 127 L422 28 C423 10 432 0 450 0 L546 0 C572 0 584 14 582 39 L582 39 Z M249 259 L359 522 L369 522 L397 259 L249 259 Z " />
<glyph glyph-name="B" unicode="B" horiz-adv-x="621" d="M608 496 C624 600 564 670 455 670 L178 670 C156 670 141 658 137 635 L43 35 C39 12 49 0 71 0 L368 0 C477 0 560 71 577 176 C591 262 549 322 473 336 L474 344 C542 356 595 415 608 496 L608 496 Z M456 468 C449 425 415 397 371 397 L247 397 L270 541 L394 541 C438 541 463 512 456 468 L456 468 Z M433 205 C426 159 393 129 349 129 L205 129 L229 279 L372 279 C416 279 441 250 433 205 L433 205 Z " />
<glyph glyph-name="C" unicode="C" horiz-adv-x="636" d="M279 -12 C434 -12 554 67 579 224 C582 246 574 258 554 258 L468 258 C448 258 438 248 431 228 C416 163 371 124 300 124 C229 124 189 168 199 235 L231 435 C242 502 295 546 367 546 C436 546 470 508 465 442 C466 422 473 412 492 412 L579 412 C599 412 611 424 614 444 C638 600 546 682 388 682 C227 682 107 585 84 438 L51 232 C28 85 118 -12 279 -12 L279 -12 Z " />
<glyph glyph-name="D" unicode="D" horiz-adv-x="651" d="M398 670 L178 670 C156 670 141 658 137 635 L43 35 C39 12 49 0 71 0 L291 0 C451 0 573 98 596 248 L624 422 C648 572 558 670 398 670 L398 670 Z M476 418 L450 252 C438 180 385 136 309 136 L206 136 L269 534 L372 534 C447 534 487 490 476 418 L476 418 Z " />
<glyph glyph-name="E" unicode="E" horiz-adv-x="562" d="M542 670 L177 670 C156 670 141 658 137 636 L42 34 C39 12 49 0 70 0 L435 0 C456 0 471 12 475 34 L485 101 C489 123 478 135 456 135 L206 135 L227 271 L439 271 C461 271 475 284 479 306 L489 370 C493 392 482 405 460 405 L249 405 L269 535 L520 535 C542 535 556 547 559 569 L570 636 C573 658 563 670 542 670 L542 670 Z " />
<glyph glyph-name="F" unicode="F" horiz-adv-x="545" d="M531 670 L178 670 C156 670 141 658 137 635 L43 35 C39 12 49 0 71 0 L149 0 C171 0 186 12 190 35 L224 250 L417 250 C439 250 454 262 457 284 L468 352 C471 374 461 386 438 386 L246 386 L269 534 L509 534 C531 534 546 546 549 568 L560 635 C563 658 553 670 531 670 L531 670 Z " />
<glyph glyph-name="G" unicode="G" horiz-adv-x="639" d="M388 682 C227 682 107 585 84 438 L51 232 C28 85 118 -12 279 -12 C438 -12 558 82 580 225 L597 327 C600 349 590 362 567 362 L384 362 C362 362 348 349 344 327 L336 280 C333 258 344 245 366 245 L436 245 L432 220 C423 158 369 117 299 117 C227 117 187 161 198 228 L231 435 C242 502 295 546 367 546 C427 546 465 515 466 460 C470 444 476 434 496 434 L582 434 C602 434 617 446 617 466 C625 603 539 682 388 682 L388 682 Z " />
<glyph glyph-name="H" unicode="H" horiz-adv-x="656" d="M612 670 L533 670 C511 670 496 658 492 635 L456 406 L249 406 L285 635 C288 658 278 670 256 670 L178 670 C156 670 141 658 137 635 L43 35 C39 12 49 0 71 0 L149 0 C171 0 186 12 190 35 L227 270 L435 270 L398 35 C394 12 404 0 426 0 L505 0 C527 0 542 12 546 35 L640 635 C644 658 634 670 612 670 L612 670 Z " />
<glyph glyph-name="I" unicode="I" horiz-adv-x="300" d="M71 0 L149 0 C171 0 186 12 190 35 L285 635 C288 658 278 670 256 670 L178 670 C156 670 141 658 137 635 L43 35 C39 12 49 0 71 0 L71 0 Z " />
<glyph glyph-name="J" unicode="J" horiz-adv-x="575" d="M235 -12 C375 -12 481 72 500 199 L569 635 C573 658 563 670 541 670 L463 670 C440 670 425 658 422 635 L354 202 C346 155 307 124 257 124 C205 124 176 155 184 202 L185 213 C188 235 178 248 156 248 L78 248 C56 248 41 235 38 213 L35 199 C16 72 95 -12 235 -12 L235 -12 Z " />
<glyph glyph-name="K" unicode="K" horiz-adv-x="630" d="M622 670 L529 670 C511 670 496 663 484 647 L257 400 L248 400 L285 635 C288 658 278 670 256 670 L178 670 C156 670 141 658 137 635 L43 35 C39 12 49 0 71 0 L149 0 C171 0 186 12 190 35 L215 194 L284 266 L387 25 C392 8 404 0 423 0 L525 0 C550 0 563 18 554 42 L401 387 L633 628 C654 650 649 670 622 670 L622 670 Z " />
<glyph glyph-name="L" unicode="L" horiz-adv-x="527" d="M436 136 L206 136 L285 635 C288 658 278 670 256 670 L178 670 C156 670 141 658 137 635 L43 35 C39 12 49 0 71 0 L414 0 C436 0 451 12 455 35 L465 102 C469 124 459 136 436 136 L436 136 Z " />
<glyph glyph-name="M" unicode="M" horiz-adv-x="828" d="M71 0 L149 0 C171 0 186 12 190 35 L246 389 L247 436 L258 436 L334 156 C338 137 351 128 370 128 L420 128 C440 128 454 137 463 156 L629 436 L640 436 L626 389 L571 35 C567 12 577 0 599 0 L677 0 C699 0 714 12 718 35 L813 635 C816 658 806 670 784 670 L659 670 C639 670 624 662 615 642 L434 324 L425 324 L344 642 C340 662 328 670 309 670 L178 670 C156 670 141 658 137 635 L43 35 C39 12 49 0 71 0 L71 0 Z " />
<glyph glyph-name="N" unicode="N" horiz-adv-x="685" d="M67 0 L153 0 C173 0 186 11 190 31 L244 377 L245 424 L256 424 L389 24 C393 8 404 0 422 0 L538 0 C558 0 571 11 574 31 L670 639 C673 659 665 670 645 670 L559 670 C539 670 526 659 523 639 L468 293 L467 246 L456 246 L323 646 C319 662 308 670 290 670 L174 670 C154 670 141 659 138 639 L42 31 C39 11 47 0 67 0 L67 0 Z " />
<glyph glyph-name="O" unicode="O" horiz-adv-x="649" d="M284 -12 C446 -12 569 87 593 237 L623 433 C647 583 555 682 393 682 C229 682 107 583 83 433 L52 237 C28 87 120 -12 284 -12 L284 -12 Z M305 124 C231 124 189 170 200 240 L230 430 C242 500 297 546 372 546 C445 546 487 500 476 430 L445 240 C434 170 378 124 305 124 L305 124 Z " />
<glyph glyph-name="P" unicode="P" horiz-adv-x="621" d="M419 670 L178 670 C156 670 141 658 137 635 L43 35 C39 12 49 0 71 0 L149 0 C171 0 186 12 190 35 L215 192 L342 192 C485 192 594 286 617 431 C640 575 562 670 419 670 L419 670 Z M470 431 C460 367 415 328 353 328 L237 328 L269 534 L385 534 C447 534 480 494 470 431 L470 431 Z " />
<glyph glyph-name="Q" unicode="Q" horiz-adv-x="649" d="M393 682 C229 682 107 583 83 433 L52 237 C29 87 120 -12 284 -12 C305 -12 326 -10 345 -7 L364 -60 C370 -76 381 -85 400 -85 L465 -85 C491 -85 504 -69 496 -45 L467 40 C534 83 579 152 593 237 L623 433 C647 583 555 682 393 682 L393 682 Z M476 430 L445 240 C441 217 433 196 420 179 L418 185 C413 202 400 209 382 209 L339 209 C314 209 301 193 308 170 L323 125 C317 124 311 124 305 124 C230 124 189 170 200 240 L231 430 C242 500 297 546 372 546 C445 546 487 500 476 430 L476 430 Z " />
<glyph glyph-name="R" unicode="R" horiz-adv-x="640" d="M630 444 C651 582 576 670 440 670 L178 670 C156 670 141 658 137 635 L43 35 C39 12 49 0 71 0 L149 0 C171 0 186 12 190 35 L218 212 L323 212 L391 27 C398 6 408 0 429 0 L527 0 C554 0 566 16 556 41 L474 233 C556 268 613 344 630 444 L630 444 Z M481 441 C473 383 431 348 373 348 L240 348 L269 534 L403 534 C460 534 490 498 481 441 L481 441 Z " />
<glyph glyph-name="S" unicode="S" horiz-adv-x="593" d="M258 -12 C412 -12 525 67 545 194 C584 441 222 377 241 498 C247 538 291 562 342 562 C389 562 420 543 425 504 C428 489 434 479 455 479 L542 479 C564 479 580 491 581 514 C582 622 501 682 362 682 C215 682 102 609 83 484 C44 242 406 299 386 177 C379 135 331 108 276 108 C222 108 189 129 186 175 C183 193 178 203 157 203 L67 203 C45 203 29 190 28 167 C26 53 112 -12 258 -12 L258 -12 Z " />
<glyph glyph-name="T" unicode="T" horiz-adv-x="569" d="M567 670 L135 670 C113 670 98 658 94 635 L84 568 C81 546 91 534 113 534 L256 534 L177 35 C173 12 183 0 206 0 L284 0 C306 0 321 12 325 35 L403 534 L545 534 C567 534 582 546 585 568 L595 635 C599 658 589 670 567 670 L567 670 Z " />
<glyph glyph-name="U" unicode="U" horiz-adv-x="654" d="M287 -12 C443 -12 561 83 584 227 L648 635 C652 658 642 670 620 670 L542 670 C519 670 504 658 501 635 L437 230 C427 166 375 124 308 124 C240 124 202 166 212 230 L275 635 C279 658 269 670 247 670 L169 670 C146 670 132 658 128 635 L63 227 C40 83 129 -12 287 -12 L287 -12 Z " />
<glyph glyph-name="V" unicode="V" horiz-adv-x="632" d="M211 0 L341 0 C361 0 375 10 384 30 L659 631 C669 655 660 670 635 670 L549 670 C528 670 513 660 506 639 L310 166 L301 166 L255 639 C254 660 243 670 222 670 L131 670 C106 670 92 655 95 631 L178 30 C180 10 191 0 211 0 L211 0 Z " />
<glyph glyph-name="W" unicode="W" horiz-adv-x="946" d="M182 0 L297 0 C318 0 332 10 340 31 L494 415 L504 415 L537 31 C537 10 548 0 568 0 L683 0 C704 0 720 11 727 31 L966 632 C975 655 966 670 942 670 L855 670 C834 670 819 659 813 638 L659 203 L649 203 L613 639 C612 660 602 670 582 670 L503 670 C483 670 468 660 461 639 L287 203 L278 203 L261 638 C261 659 251 670 230 670 L137 670 C113 670 100 655 101 632 L150 31 C151 11 162 0 182 0 L182 0 Z " />
<glyph glyph-name="X" unicode="X" horiz-adv-x="640" d="M36 0 L127 0 C146 0 161 8 172 26 L304 204 L315 204 L390 26 C395 8 407 0 426 0 L531 0 C557 0 571 18 561 44 L429 341 L645 626 C664 653 657 670 630 670 L540 670 C521 670 506 662 494 644 L364 466 L353 466 L278 644 C273 662 261 670 242 670 L138 670 C111 670 97 652 107 626 L239 329 L21 44 C3 17 10 0 36 0 L36 0 Z " />
<glyph glyph-name="Y" unicode="Y" horiz-adv-x="612" d="M227 0 L305 0 C328 0 342 12 346 35 L382 264 L636 629 C653 654 645 670 618 670 L528 670 C509 670 494 662 484 643 L342 424 L332 424 L258 643 C253 661 242 670 223 670 L128 670 C101 670 87 654 95 629 L234 263 L199 35 C195 12 205 0 227 0 L227 0 Z " />
<glyph glyph-name="Z" unicode="Z" horiz-adv-x="578" d="M45 0 L453 0 C475 0 490 12 494 35 L504 102 C507 124 497 136 475 136 L227 136 L228 144 L554 539 C565 553 572 565 575 582 L583 635 C587 658 577 670 555 670 L157 670 C135 670 120 658 116 635 L106 568 C103 546 113 534 135 534 L373 534 L371 526 L46 131 C35 117 28 105 25 88 L17 35 C13 12 23 0 45 0 L45 0 Z " />
<glyph glyph-name="bracketleft" unicode="&#x5b;" horiz-adv-x="394" d="M406 720 L187 720 C167 720 155 709 151 689 L24 -119 C20 -139 30 -150 50 -150 L269 -150 C289 -150 301 -139 305 -119 L316 -49 C319 -29 309 -18 289 -18 L184 -18 L279 588 L385 588 C405 588 418 599 421 619 L432 689 C435 709 426 720 406 720 L406 720 Z " />
<glyph glyph-name="backslash" unicode="&#x5c;" horiz-adv-x="455" d="M263 -150 L338 -150 C358 -150 369 -136 367 -115 L235 694 C232 712 221 720 203 720 L128 720 C108 720 97 706 100 685 L232 -124 C234 -142 246 -150 263 -150 L263 -150 Z " />
<glyph glyph-name="bracketright" unicode="&#x5d;" horiz-adv-x="394" d="M355 720 L136 720 C116 720 104 709 100 689 L90 619 C86 599 96 588 116 588 L221 588 L126 -18 L20 -18 C0 -18 -13 -29 -16 -49 L-27 -119 C-30 -139 -21 -150 -1 -150 L218 -150 C238 -150 250 -139 254 -119 L381 689 C385 709 375 720 355 720 L355 720 Z " />
<glyph glyph-name="asciicircum" unicode="&#x5e;" horiz-adv-x="520" d="M105 403 L180 403 C197 403 210 411 220 427 L304 551 L312 551 L358 426 C362 410 373 403 389 403 L465 403 C489 403 501 420 492 440 L405 648 C398 664 388 670 372 670 L284 670 C267 670 253 664 243 648 L88 440 C74 420 81 403 105 403 L105 403 Z " />
<glyph glyph-name="underscore" unicode="&#x5f;" horiz-adv-x="493" d="M-2 -167 L363 -167 C383 -167 396 -156 399 -136 L406 -89 C409 -69 401 -58 381 -58 L16 -58 C-4 -58 -17 -69 -21 -89 L-28 -136 C-31 -156 -22 -167 -2 -167 L-2 -167 Z " />
<glyph glyph-name="grave" unicode="&#x60;" horiz-adv-x="245" d="M205 551 L251 551 C275 551 287 567 279 587 L243 681 C238 697 227 704 210 704 L123 704 C97 704 86 686 100 666 L170 568 C178 556 189 551 205 551 L205 551 Z " />
<glyph glyph-name="a" unicode="a" horiz-adv-x="547" d="M494 500 L416 500 C396 500 383 489 380 469 L374 430 L366 430 C354 478 310 512 245 512 C152 512 77 447 62 349 L31 151 C15 53 70 -12 163 -12 C228 -12 283 22 309 70 L317 70 L311 31 C308 11 316 0 336 0 L414 0 C434 0 448 11 451 31 L520 469 C523 489 514 500 494 500 L494 500 Z M244 119 C197 119 170 148 177 193 L195 307 C202 352 238 381 285 381 C333 381 361 349 354 308 L336 192 C330 151 292 119 244 119 L244 119 Z " />
<glyph glyph-name="b" unicode="b" horiz-adv-x="547" d="M384 512 C319 512 265 478 239 430 L231 430 L268 669 C272 689 262 700 242 700 L164 700 C144 700 132 689 128 669 L28 31 C24 11 33 0 53 0 L131 0 C151 0 164 11 168 31 L173 70 L181 70 C193 22 237 -12 302 -12 C396 -12 470 53 485 151 L517 349 C532 447 478 512 384 512 L384 512 Z M352 193 C345 148 310 119 262 119 C214 119 187 151 193 192 L211 308 C217 349 255 381 303 381 C351 381 377 352 370 307 L352 193 Z " />
<glyph glyph-name="c" unicode="c" horiz-adv-x="512" d="M218 -12 C340 -12 443 51 461 168 C464 189 456 201 436 201 L357 201 C338 201 328 191 323 179 C313 139 280 117 238 117 C192 117 167 146 173 189 L193 311 C200 354 235 383 281 383 C321 383 348 362 346 321 C347 309 355 299 373 299 L453 299 C473 299 484 311 487 331 C505 447 424 512 300 512 C170 512 72 433 53 312 L33 188 C14 67 88 -12 218 -12 L218 -12 Z " />
<glyph glyph-name="d" unicode="d" horiz-adv-x="547" d="M525 700 L447 700 C427 700 415 689 412 669 L374 430 L366 430 C354 478 310 512 245 512 C152 512 77 447 62 349 L31 151 C15 53 70 -12 163 -12 C228 -12 283 22 309 70 L317 70 L311 31 C308 11 316 0 336 0 L414 0 C434 0 448 11 451 31 L552 669 C555 689 545 700 525 700 L525 700 Z M244 119 C197 119 170 148 177 193 L195 307 C202 352 238 381 285 381 C333 381 361 349 354 308 L336 192 C330 151 292 119 244 119 L244 119 Z " />
<glyph glyph-name="e" unicode="e" horiz-adv-x="525" d="M304 512 C171 512 72 432 53 310 L33 190 C14 68 90 -12 225 -12 C343 -12 433 41 460 126 C466 146 454 156 436 156 L353 156 C335 156 328 148 319 135 C305 113 278 101 243 101 C192 101 164 131 172 176 L176 204 L444 204 C464 204 477 215 479 235 L491 308 C511 431 436 512 304 512 L304 512 Z M195 325 C202 370 238 399 286 399 C334 399 361 370 354 325 L350 300 L191 300 L195 325 Z " />
<glyph glyph-name="f" unicode="f" horiz-adv-x="394" d="M404 700 L343 700 C251 700 182 644 169 558 L160 500 L108 500 C88 500 74 489 71 469 L61 406 C58 386 67 375 87 375 L140 375 L85 31 C82 11 91 0 111 0 L189 0 C209 0 222 11 225 31 L280 375 L353 375 C373 375 386 386 389 406 L398 469 C402 489 393 500 373 500 L300 500 L305 534 C309 565 332 584 363 584 L386 584 C406 584 418 595 422 615 L430 669 C434 689 424 700 404 700 L404 700 Z " />
<glyph glyph-name="g" unicode="g" horiz-adv-x="544" d="M494 500 L416 500 C396 500 383 489 380 469 L374 430 L366 430 C354 478 310 512 245 512 C152 512 77 447 62 349 L35 178 C19 80 73 15 167 15 C229 15 286 47 312 94 L320 94 L304 -12 C297 -56 262 -86 214 -86 C179 -86 151 -72 148 -40 C143 -30 137 -23 122 -23 L41 -23 C25 -23 9 -35 10 -56 C10 -142 82 -192 199 -192 C332 -192 427 -121 442 -19 L520 469 C523 489 514 500 494 500 L494 500 Z M248 146 C201 146 174 175 182 220 L195 307 C202 352 238 381 285 381 C333 381 361 349 354 308 L340 219 C334 179 297 146 248 146 L248 146 Z " />
<glyph glyph-name="h" unicode="h" horiz-adv-x="550" d="M386 512 C321 512 265 478 239 430 L231 430 L268 669 C272 689 262 700 242 700 L164 700 C144 700 132 689 128 669 L28 31 C24 11 33 0 53 0 L131 0 C151 0 164 11 168 31 L212 312 C218 350 254 381 302 381 C347 381 372 353 365 311 L321 31 C317 11 326 0 346 0 L424 0 C444 0 457 11 461 31 L514 365 C527 453 475 512 386 512 L386 512 Z " />
<glyph glyph-name="i" unicode="i" horiz-adv-x="264" d="M182 564 C233 564 270 596 278 645 C286 693 258 725 208 725 C157 725 119 693 111 644 C103 597 131 564 182 564 L182 564 Z M53 0 L131 0 C151 0 165 11 168 31 L237 469 C240 489 231 500 211 500 L133 500 C113 500 100 489 97 469 L28 31 C25 11 33 0 53 0 L53 0 Z " />
<glyph glyph-name="j" unicode="j" horiz-adv-x="266" d="M185 564 C235 564 272 596 280 645 C288 693 260 725 210 725 C159 725 121 693 113 644 C105 597 133 564 185 564 L185 564 Z M-76 -180 L-15 -180 C77 -180 146 -124 159 -38 L239 469 C243 489 234 500 214 500 L136 500 C116 500 103 489 99 469 L24 -13 C18 -45 -4 -64 -35 -64 L-58 -64 C-78 -64 -91 -75 -94 -95 L-103 -149 C-106 -169 -96 -180 -76 -180 L-76 -180 Z " />
<glyph glyph-name="k" unicode="k" horiz-adv-x="528" d="M514 500 L420 500 C404 500 390 494 379 480 L223 319 L213 319 L268 669 C272 689 262 700 242 700 L164 700 C144 700 132 689 128 669 L28 31 C24 11 33 0 53 0 L131 0 C151 0 164 11 168 31 L185 141 L241 195 L310 23 C315 8 326 0 343 0 L439 0 C463 0 476 16 466 37 L348 297 L521 462 C541 482 536 500 514 500 L514 500 Z " />
<glyph glyph-name="l" unicode="l" horiz-adv-x="308" d="M167 0 L204 0 C224 0 238 11 241 31 L253 109 C255 121 248 129 236 129 L226 129 C196 129 181 147 186 177 L263 669 C267 689 257 700 237 700 L159 700 C139 700 127 689 123 669 L40 140 C26 56 77 0 167 0 L167 0 Z " />
<glyph glyph-name="m" unicode="m" horiz-adv-x="827" d="M667 512 C597 512 540 474 512 423 L504 423 C493 478 447 512 381 512 C318 512 265 478 239 430 L231 430 L236 469 C240 489 231 500 211 500 L133 500 C113 500 100 489 96 469 L28 31 C24 11 33 0 53 0 L131 0 C151 0 164 11 168 31 L212 314 C218 352 253 381 298 381 C340 381 364 354 357 313 L313 31 C309 11 318 0 338 0 L416 0 C436 0 449 11 453 31 L497 314 C503 352 538 381 583 381 C625 381 649 354 642 313 L598 31 C594 11 603 0 623 0 L701 0 C721 0 734 11 738 31 L790 364 C804 453 753 512 667 512 L667 512 Z " />
<glyph glyph-name="n" unicode="n" horiz-adv-x="550" d="M386 512 C321 512 265 478 239 430 L231 430 L236 469 C240 489 231 500 211 500 L133 500 C113 500 100 489 96 469 L28 31 C24 11 33 0 53 0 L131 0 C151 0 164 11 168 31 L212 312 C218 350 254 381 302 381 C347 381 372 353 365 311 L321 31 C317 11 326 0 346 0 L424 0 C444 0 457 11 461 31 L514 365 C527 453 475 512 386 512 L386 512 Z " />
<glyph glyph-name="o" unicode="o" horiz-adv-x="526" d="M222 -12 C354 -12 453 68 472 190 L492 310 C511 432 436 512 304 512 C172 512 72 432 53 310 L33 190 C14 68 90 -12 222 -12 L222 -12 Z M242 117 C194 117 167 146 174 191 L193 309 C200 354 237 383 285 383 C332 383 359 354 352 309 L333 191 C326 146 290 117 242 117 L242 117 Z " />
<glyph glyph-name="p" unicode="p" horiz-adv-x="547" d="M384 512 C319 512 265 478 239 430 L231 430 L236 469 C240 489 231 500 211 500 L133 500 C113 500 100 489 96 469 L-1 -149 C-5 -169 5 -180 25 -180 L103 -180 C123 -180 135 -169 139 -149 L173 70 L181 70 C193 22 237 -12 302 -12 C396 -12 470 53 485 151 L517 349 C532 447 478 512 384 512 L384 512 Z M352 193 C345 148 310 119 262 119 C214 119 187 151 193 192 L211 308 C217 349 255 381 303 381 C351 381 377 352 370 307 L352 193 Z " />
<glyph glyph-name="q" unicode="q" horiz-adv-x="547" d="M494 500 L416 500 C396 500 383 489 380 469 L374 430 L366 430 C354 478 310 512 245 512 C152 512 77 447 62 349 L31 151 C15 53 70 -12 163 -12 C228 -12 283 22 309 70 L317 70 L282 -149 C279 -169 288 -180 308 -180 L386 -180 C406 -180 419 -169 422 -149 L520 469 C523 489 514 500 494 500 L494 500 Z M244 119 C197 119 170 148 177 193 L195 307 C202 352 238 381 285 381 C333 381 361 349 354 308 L336 192 C330 151 292 119 244 119 L244 119 Z " />
<glyph glyph-name="r" unicode="r" horiz-adv-x="382" d="M364 511 C304 507 264 476 236 416 L228 416 L236 469 C240 489 231 500 211 500 L133 500 C113 500 100 489 96 469 L28 31 C24 11 33 0 53 0 L131 0 C151 0 164 11 168 31 L203 255 C214 324 259 368 343 368 C363 368 376 380 379 399 L392 480 C395 500 386 513 364 511 L364 511 Z " />
<glyph glyph-name="s" unicode="s" horiz-adv-x="478" d="M200 -12 C327 -12 416 49 432 151 C462 340 182 285 195 366 C198 390 223 406 261 406 C289 406 306 396 316 375 C321 364 325 354 343 354 L425 354 C443 354 458 366 457 386 C454 467 386 512 275 512 C156 512 67 457 51 355 C22 168 301 219 288 137 C285 111 257 94 216 94 C182 94 160 106 154 132 C151 147 147 155 127 155 L45 155 C27 155 11 143 13 122 C15 37 85 -12 200 -12 L200 -12 Z " />
<glyph glyph-name="t" unicode="t" horiz-adv-x="399" d="M368 500 L288 500 L304 599 C307 619 298 630 278 630 L209 630 C189 630 177 619 174 599 L164 539 C160 515 144 500 119 500 L94 500 C76 500 64 490 61 472 L51 406 C47 386 56 375 76 375 L129 375 L92 142 C78 56 129 0 221 0 L282 0 C302 0 316 11 319 31 L329 98 C332 118 323 129 303 129 L280 129 C248 129 232 148 238 179 L269 375 L348 375 C368 375 381 386 384 406 L394 469 C397 489 388 500 368 500 L368 500 Z " />
<glyph glyph-name="u" unicode="u" horiz-adv-x="543" d="M490 500 L412 500 C392 500 379 489 376 469 L331 186 C325 148 291 119 245 119 C203 119 180 146 186 187 L231 469 C234 489 225 500 205 500 L127 500 C107 500 94 489 91 469 L38 134 C24 46 75 -12 162 -12 C226 -12 279 22 304 70 L312 70 L307 31 C304 11 312 0 332 0 L410 0 C430 0 444 11 447 31 L516 469 C519 489 510 500 490 500 L490 500 Z " />
<glyph glyph-name="v" unicode="v" horiz-adv-x="522" d="M164 0 L278 0 C296 0 310 9 318 26 L527 465 C537 486 529 500 510 500 L423 500 C405 500 391 491 385 472 L255 157 L245 157 L213 472 C213 491 203 500 185 500 L92 500 C74 500 60 486 63 465 L134 26 C136 9 146 0 164 0 L164 0 Z " />
<glyph glyph-name="w" unicode="w" horiz-adv-x="801" d="M150 0 L253 0 C271 0 285 10 292 28 L402 290 L412 290 L439 28 C439 10 450 0 468 0 L571 0 C590 0 603 9 611 27 L803 466 C812 487 804 500 785 500 L698 500 C679 500 666 490 660 471 L546 172 L536 172 L510 472 C510 491 500 500 482 500 L405 500 C386 500 373 491 367 472 L246 172 L236 172 L217 471 C218 490 208 500 189 500 L96 500 C77 500 64 487 67 466 L120 27 C121 9 131 0 150 0 L150 0 Z " />
<glyph glyph-name="x" unicode="x" horiz-adv-x="522" d="M21 0 L106 0 C123 0 137 8 146 23 L236 147 L245 147 L297 23 C302 8 312 0 329 0 L428 0 C451 0 463 16 453 37 L349 256 L512 463 C528 484 523 500 500 500 L416 500 C399 500 385 492 376 477 L286 354 L277 354 L226 477 C221 492 211 500 194 500 L95 500 C72 500 60 484 70 463 L174 244 L9 37 C-6 16 -1 0 21 0 L21 0 Z " />
<glyph glyph-name="y" unicode="y" horiz-adv-x="528" d="M38 -180 L106 -180 C186 -180 242 -144 276 -71 L533 465 C543 486 535 500 515 500 L429 500 C411 500 397 491 391 472 L260 157 L245 157 L213 472 C213 491 203 500 185 500 L93 500 C74 500 60 486 63 465 L132 36 C134 21 143 15 158 15 L174 15 L151 -28 C139 -53 118 -64 90 -64 L56 -64 C36 -64 23 -75 20 -95 L11 -149 C8 -169 18 -180 38 -180 L38 -180 Z " />
<glyph glyph-name="z" unicode="z" horiz-adv-x="492" d="M33 0 L379 0 C399 0 412 11 416 31 L426 96 C429 116 419 127 399 127 L216 127 L217 135 L451 379 C463 391 469 402 471 417 L479 469 C482 489 474 500 454 500 L118 500 C98 500 84 489 81 469 L71 404 C68 384 77 373 97 373 L270 373 L269 365 L36 121 C24 109 18 98 15 83 L7 31 C4 11 13 0 33 0 L33 0 Z " />
<glyph glyph-name="braceleft" unicode="&#x7b;" horiz-adv-x="434" d="M243 -150 L309 -150 C329 -150 341 -139 344 -119 L356 -49 C358 -29 349 -18 329 -18 L298 -18 C265 -18 247 4 252 36 L277 195 C284 243 261 275 219 275 L207 275 L210 296 L222 296 C264 296 298 328 305 376 L330 534 C336 566 361 588 394 588 L425 588 C445 588 458 599 461 619 L472 689 C475 709 466 720 446 720 L380 720 C281 720 207 660 192 568 L166 404 C162 374 141 355 116 355 L106 355 C89 355 77 345 75 328 L61 243 C58 226 67 216 84 216 L94 216 C119 216 134 196 129 166 L103 2 C88 -90 144 -150 243 -150 L243 -150 Z " />
<glyph glyph-name="bar" unicode="&#x7c;" horiz-adv-x="299" d="M49 -180 L113 -180 C133 -180 146 -169 149 -149 L287 719 C290 739 280 750 260 750 L196 750 C176 750 164 739 161 719 L23 -149 C20 -169 29 -180 49 -180 L49 -180 Z " />
<glyph glyph-name="braceright" unicode="&#x7d;" horiz-adv-x="434" d="M-1 -150 L62 -150 C163 -150 238 -90 252 2 L279 168 C284 198 303 218 329 218 L339 218 C356 218 368 228 371 245 L384 326 C387 343 378 353 361 353 L351 353 C325 353 311 372 316 402 L342 568 C357 660 300 720 199 720 L136 720 C116 720 104 709 100 689 L90 619 C86 599 96 588 116 588 L144 588 C179 588 198 566 193 534 L168 375 C160 328 184 296 226 296 L238 296 L235 275 L223 275 C181 275 147 243 140 195 L115 36 C109 4 83 -18 48 -18 L20 -18 C0 -18 -13 -29 -16 -49 L-27 -119 C-30 -139 -21 -150 -1 -150 L-1 -150 Z " />
<glyph glyph-name="asciitilde" unicode="&#x7e;" horiz-adv-x="622" d="M405 203 C494 203 551 253 576 350 C582 375 572 389 552 389 L472 389 C459 389 453 382 445 369 C435 353 417 343 395 343 C345 343 313 392 236 392 C143 392 85 339 60 238 C56 218 66 206 86 206 L166 206 C179 206 185 213 194 226 C203 242 221 252 243 252 C290 252 327 203 405 203 L405 203 Z " />
<glyph glyph-name="exclamdown" unicode="&#xa1;" horiz-adv-x="267" d="M147 333 C200 333 241 368 249 421 C257 474 228 510 175 510 C122 510 80 474 73 421 C64 368 94 333 147 333 L147 333 Z M24 -170 L110 -170 C130 -170 143 -159 146 -139 L170 14 L193 251 C195 271 185 281 166 281 L111 281 C92 281 79 271 75 251 L22 14 L-1 -139 C-4 -159 4 -170 24 -170 L24 -170 Z " />
<glyph glyph-name="cent" unicode="&#xa2;" horiz-adv-x="550" d="M395 590 L403 639 C406 659 397 670 377 670 L307 670 C287 670 273 659 270 639 L262 589 C167 567 97 496 81 397 L63 273 C47 174 93 103 182 80 L174 31 C171 11 180 0 200 0 L270 0 C290 0 304 11 307 31 L315 80 C405 100 475 159 490 253 C493 274 486 286 466 286 L386 286 C368 286 359 276 352 264 C338 222 309 202 267 202 C221 202 196 231 203 274 L221 396 C228 439 263 468 309 468 C350 468 374 448 374 406 C377 394 383 384 401 384 L481 384 C501 384 512 396 516 416 C531 510 480 570 395 590 L395 590 Z " />
<glyph glyph-name="sterling" unicode="&#xa3;" horiz-adv-x="632" d="M417 682 C278 682 172 599 153 472 L137 373 L112 373 C92 373 80 362 77 342 L67 283 C64 263 73 252 93 252 L118 252 L109 194 C104 166 89 142 65 127 C50 119 41 111 39 96 L28 31 C25 11 34 0 54 0 L489 0 C509 0 523 11 526 31 L537 105 C541 125 531 136 511 136 L220 136 L221 144 C241 160 255 184 259 209 L266 252 L440 252 C460 252 473 263 476 283 L486 342 C489 362 479 373 459 373 L285 373 L300 469 C307 516 345 546 396 546 C444 546 466 523 465 474 C467 461 476 452 494 452 L580 452 C600 452 614 463 615 483 C623 612 552 682 417 682 L417 682 Z " />
<glyph glyph-name="currency" unicode="&#xa4;" horiz-adv-x="561" d="M525 489 L481 542 C470 556 455 556 438 542 L388 499 C369 506 347 509 322 509 C297 509 274 506 252 499 L216 542 C204 556 189 556 173 542 L111 489 C96 475 93 460 105 446 L137 407 C125 386 117 362 113 336 C108 309 109 285 114 263 L69 224 C54 210 51 195 62 181 L107 128 C119 114 133 114 151 128 L201 171 C220 164 242 161 267 161 C291 161 315 164 336 171 L372 128 C384 114 398 114 415 128 L476 181 C494 195 495 210 483 224 L451 263 C464 284 472 309 477 336 C481 362 480 386 475 408 L519 446 C534 460 537 475 525 489 L525 489 Z M215 336 C222 384 258 416 307 416 C355 416 382 384 375 336 C367 287 330 255 282 255 C233 255 207 287 215 336 L215 336 Z " />
<glyph glyph-name="yen" unicode="&#xa5;" horiz-adv-x="608" d="M598 670 L503 670 C484 670 470 662 461 644 L339 424 L329 424 L277 644 C274 662 263 670 245 670 L144 670 C120 670 107 654 114 632 L206 344 L151 344 C133 344 120 334 118 315 L114 293 C111 275 120 265 138 265 L231 265 L232 263 L224 212 L130 212 C112 212 100 202 97 184 L93 161 C90 143 99 132 118 132 L211 132 L195 32 C192 11 201 0 222 0 L306 0 C326 0 340 11 343 32 L359 132 L454 132 C473 132 485 143 487 161 L491 184 C494 202 485 212 467 212 L372 212 L380 265 L475 265 C493 265 506 275 509 293 L512 315 C514 334 506 344 488 344 L431 344 L615 632 C630 654 622 670 598 670 L598 670 Z " />
<glyph glyph-name="brokenbar" unicode="&#xa6;" horiz-adv-x="299" d="M137 375 L201 375 C221 375 234 386 237 406 L287 719 C290 739 280 750 260 750 L196 750 C176 750 164 739 161 719 L111 406 C108 386 117 375 137 375 L137 375 Z M49 -180 L113 -180 C133 -180 146 -169 149 -149 L199 164 C202 184 192 195 172 195 L109 195 C89 195 76 184 73 164 L23 -149 C20 -169 29 -180 49 -180 L49 -180 Z " />
<glyph glyph-name="section" unicode="&#xa7;" horiz-adv-x="615" d="M357 582 C397 582 421 566 425 529 C428 519 433 511 448 511 L533 511 C554 511 568 523 568 544 C567 633 494 682 372 682 C240 682 144 619 125 506 C116 451 132 414 159 387 L157 378 C103 347 70 303 61 246 C29 39 360 93 342 -26 C336 -63 303 -85 258 -85 C218 -85 193 -68 189 -33 C186 -23 182 -15 167 -15 L81 -15 C60 -15 46 -27 46 -48 C47 -137 120 -186 241 -186 C374 -186 471 -123 488 -9 C497 45 483 81 457 108 L459 120 C512 150 544 194 553 252 C586 458 254 404 273 523 C279 560 312 582 357 582 L357 582 Z M405 223 C400 200 387 176 368 159 C287 189 199 202 210 271 C214 296 229 320 250 337 C330 308 415 293 405 223 L405 223 Z " />
<glyph glyph-name="dieresis" unicode="&#xa8;" horiz-adv-x="359" d="M125 554 C171 554 205 585 213 631 C220 676 194 706 149 706 C103 706 68 676 60 631 C53 585 79 554 125 554 L125 554 Z M332 554 C377 554 412 585 419 631 C427 676 401 706 356 706 C310 706 274 676 267 631 C260 585 286 554 332 554 L332 554 Z " />
<glyph glyph-name="copyright" unicode="&#xa9;" horiz-adv-x="817" d="M367 -12 C578 -12 738 126 771 335 C805 544 687 682 476 682 C266 682 106 544 72 335 C39 126 157 -12 367 -12 L367 -12 Z M377 54 C210 54 118 165 145 335 C172 505 300 616 466 616 C633 616 725 505 698 335 C672 165 544 54 377 54 L377 54 Z M390 135 C487 135 561 186 588 279 C592 296 584 305 567 305 L489 305 C477 305 471 299 466 287 C457 263 437 248 408 248 C376 248 358 269 363 299 L375 371 C380 401 403 422 435 422 C462 422 480 409 481 383 C483 371 487 365 499 365 L577 365 C594 365 605 374 605 391 C609 482 552 535 453 535 C347 535 268 470 252 372 L240 298 C225 200 284 135 390 135 L390 135 Z " />
<glyph glyph-name="ordfeminine" unicode="&#xaa;" horiz-adv-x="419" d="M285 682 C195 682 128 637 120 584 L119 581 C116 565 124 556 140 556 L195 556 C209 556 217 565 221 573 C230 595 247 603 270 603 C297 603 314 586 310 561 L304 524 L212 524 C142 524 90 482 80 418 C70 356 107 316 175 316 C217 316 256 331 275 359 L282 359 L280 349 C278 333 286 324 302 324 L353 324 C369 324 379 333 381 349 L416 566 C427 635 374 682 285 682 L285 682 Z M227 390 C200 390 184 404 188 426 C191 447 209 461 236 461 L294 461 L289 433 C285 407 260 390 227 390 L227 390 Z " />
<glyph glyph-name="guillemotleft" unicode="&#xab;" horiz-adv-x="615" d="M171 70 L251 70 C275 70 288 87 278 107 L193 260 L194 270 L328 423 C344 443 337 460 313 460 L233 460 C217 460 204 454 193 441 L49 287 C37 272 35 258 43 243 L137 89 C144 76 155 70 171 70 L171 70 Z M425 70 L504 70 C529 70 542 87 531 107 L446 260 L448 270 L582 423 C598 443 591 460 566 460 L487 460 C471 460 458 454 446 441 L303 287 C291 272 288 258 296 243 L390 89 C398 76 409 70 425 70 L425 70 Z " />
<glyph glyph-name="logicalnot" unicode="&#xac;" horiz-adv-x="580" d="M511 399 L117 399 C97 399 84 388 80 368 L71 309 C68 289 77 278 97 278 L397 278 L383 187 C380 167 389 156 409 156 L472 156 C492 156 504 167 508 187 L536 368 C539 388 531 399 511 399 L511 399 Z " />
<glyph glyph-name="registered" unicode="&#xae;" horiz-adv-x="481" d="M308 682 C189 682 99 604 80 485 C61 366 127 288 246 288 C365 288 455 366 474 485 C493 604 427 682 308 682 L308 682 Z M430 485 C416 392 346 331 252 331 C160 331 109 392 123 485 C138 578 209 639 301 639 C394 639 445 578 430 485 L430 485 Z M313 592 L234 592 C225 592 219 587 217 578 L190 405 C188 396 193 391 202 391 L229 391 C238 391 244 396 246 405 L253 448 L273 448 L289 402 C291 395 296 391 304 391 L337 391 C348 391 353 398 349 408 L330 457 C353 469 369 492 374 521 C381 564 356 592 313 592 L313 592 Z M267 540 L300 540 C312 540 319 533 317 520 C315 507 306 499 293 499 L261 499 L267 540 Z " />
<glyph glyph-name="macron" unicode="&#xaf;" horiz-adv-x="299" d="M81 569 L318 569 C338 569 351 580 354 600 L362 647 C365 667 355 678 335 678 L99 678 C79 678 66 667 63 647 L56 600 C53 580 61 569 81 569 L81 569 Z " />
<glyph glyph-name="degree" unicode="&#xb0;" horiz-adv-x="381" d="M212 384 C307 384 378 443 393 533 C407 623 353 682 259 682 C164 682 93 623 78 533 C64 443 117 384 212 384 L212 384 Z M227 476 C193 476 174 498 180 533 C185 567 210 590 244 590 C278 590 297 567 292 533 C286 498 261 476 227 476 L227 476 Z " />
<glyph glyph-name="plusminus" unicode="&#xb1;" horiz-adv-x="551" d="M489 446 L370 446 L389 568 C392 588 383 599 363 599 L299 599 C279 599 267 588 263 568 L244 446 L124 446 C104 446 91 435 88 415 L78 356 C75 336 85 325 105 325 L224 325 L205 203 C202 183 212 172 232 172 L295 172 C315 172 328 183 331 203 L350 325 L470 325 C490 325 502 336 505 356 L515 415 C518 435 509 446 489 446 L489 446 Z M437 121 L73 121 C53 121 40 110 36 90 L28 31 C24 11 33 0 53 0 L418 0 C438 0 451 11 454 31 L463 90 C466 110 457 121 437 121 L437 121 Z " />
<glyph glyph-name="uni00B2" unicode="&#xb2;" horiz-adv-x="361" d="M80 368 L317 368 C333 368 343 377 346 393 L352 433 C355 449 347 458 331 458 L215 458 L216 463 L309 543 C349 576 382 613 390 662 C401 731 350 777 264 777 C177 777 112 729 100 657 L100 652 C97 636 105 627 121 627 L176 627 C189 627 197 634 199 647 L200 650 C203 672 223 689 250 689 C276 689 291 674 287 653 C284 631 258 604 222 573 L82 455 C72 445 66 436 64 424 L59 393 C56 377 64 368 80 368 L80 368 Z " />
<glyph glyph-name="uni00B3" unicode="&#xb3;" horiz-adv-x="375" d="M204 361 C294 361 363 409 374 477 C381 523 360 560 322 572 L323 577 C361 589 391 624 397 666 C408 732 356 777 271 777 C183 777 119 729 109 670 L108 667 C107 655 113 647 126 647 L184 647 C199 647 205 653 211 664 C219 684 235 693 256 693 C282 693 297 677 294 652 C290 626 267 609 239 609 L205 609 C189 609 178 600 176 584 L172 557 C169 541 177 532 193 532 L234 532 C261 532 278 515 274 489 C270 463 246 445 217 445 C192 445 177 454 175 476 C173 487 168 495 153 495 L95 495 C82 495 74 488 72 475 L71 470 C61 410 112 361 204 361 L204 361 Z " />
<glyph glyph-name="acute" unicode="&#xb4;" horiz-adv-x="245" d="M89 551 L135 551 C151 551 163 556 176 568 L276 666 C298 686 291 704 265 704 L179 704 C162 704 149 697 139 681 L72 587 C58 567 65 551 89 551 L89 551 Z " />
<glyph glyph-name="uni00B5" unicode="&#xb5;" horiz-adv-x="584" d="M521 500 L436 500 C416 500 402 489 399 469 L355 193 C350 156 315 127 269 127 C230 127 207 151 209 187 L254 469 C257 489 249 500 229 500 L143 500 C123 500 110 489 106 469 L53 134 C52 130 52 127 52 123 L9 -149 C5 -169 15 -180 35 -180 L121 -180 C141 -180 153 -169 156 -149 L178 -12 L183 -12 C250 -12 301 19 327 62 L335 62 L330 31 C327 11 336 0 356 0 L441 0 C461 0 475 11 478 31 L546 469 C550 489 541 500 521 500 L521 500 Z " />
<glyph glyph-name="paragraph" unicode="&#xb6;" horiz-adv-x="606" d="M420 670 L331 670 C200 670 100 582 79 448 C57 315 130 226 261 226 L283 226 L225 -139 C222 -159 231 -170 251 -170 L286 -170 C306 -170 319 -159 322 -139 L445 639 C448 659 440 670 420 670 L420 670 Z M580 670 L546 670 C526 670 512 659 509 639 L386 -139 C383 -159 392 -170 412 -170 L446 -170 C466 -170 480 -159 483 -139 L606 639 C609 659 600 670 580 670 L580 670 Z " />
<glyph glyph-name="periodcentered" unicode="&#xb7;" horiz-adv-x="300" d="M141 195 C194 195 234 230 243 283 C251 336 222 370 169 370 C116 370 76 336 67 283 C58 230 88 195 141 195 L141 195 Z " />
<glyph glyph-name="cedilla" unicode="&#xb8;" horiz-adv-x="219" d="M81 -41 L69 -41 L98 0 L97 2 L17 2 L18 0 L-19 -49 C-24 -56 -28 -62 -28 -70 L-30 -79 C-32 -94 -25 -102 -10 -102 L42 -102 C57 -102 66 -112 64 -126 C62 -145 39 -156 8 -156 C-7 -156 -21 -153 -34 -149 C-52 -145 -64 -153 -67 -175 L-69 -189 C-72 -206 -67 -219 -50 -224 C-33 -229 -12 -232 10 -232 C89 -232 149 -191 159 -130 C167 -76 136 -41 81 -41 L81 -41 Z " />
<glyph glyph-name="uni00B9" unicode="&#xb9;" horiz-adv-x="328" d="M299 458 L254 458 L299 745 C302 761 294 770 278 770 L243 770 C232 770 223 768 212 764 L144 736 C130 730 122 721 120 707 L114 670 C111 651 122 643 140 651 L184 669 L190 669 L157 458 L104 458 C88 458 77 449 75 433 L68 393 C66 377 73 368 89 368 L285 368 C300 368 311 377 314 393 L320 433 C322 449 315 458 299 458 L299 458 Z " />
<glyph glyph-name="ordmasculine" unicode="&#xba;" horiz-adv-x="418" d="M219 316 C312 316 384 373 397 459 L410 539 C424 625 370 682 277 682 C184 682 113 625 99 539 L86 459 C73 373 126 316 219 316 L219 316 Z M235 413 C205 413 188 432 192 460 L205 538 C209 566 232 585 263 585 C292 585 309 567 305 538 L292 460 C288 431 264 413 235 413 L235 413 Z " />
<glyph glyph-name="guillemotright" unicode="&#xbb;" horiz-adv-x="615" d="M53 70 L132 70 C148 70 162 76 173 89 L317 243 C329 258 332 272 324 287 L229 441 C222 454 210 460 194 460 L115 460 C90 460 78 443 89 423 L173 270 L171 260 L38 107 C22 87 28 70 53 70 L53 70 Z M306 70 L386 70 C402 70 416 76 427 89 L570 243 C583 258 585 272 577 287 L483 441 C475 454 464 460 448 460 L368 460 C343 460 332 443 342 423 L427 270 L425 260 L292 107 C275 87 281 70 306 70 L306 70 Z " />
<glyph glyph-name="onequarter" unicode="&#xbc;" horiz-adv-x="927" d="M298 293 L304 333 C306 349 299 358 283 358 L238 358 L283 645 C286 661 278 670 262 670 L227 670 C216 670 207 668 196 664 L128 636 C114 630 106 621 104 607 L98 570 C95 551 106 543 124 551 L168 569 L174 569 L141 358 L88 358 C72 358 61 349 59 333 L52 293 C50 277 57 268 73 268 L269 268 C284 268 295 277 298 293 L298 293 Z M751 670 L685 670 C673 670 661 665 654 654 L207 28 C197 12 201 0 219 0 L285 0 C297 0 309 5 316 16 L763 642 C774 658 769 670 751 670 L751 670 Z M852 161 L835 161 L869 377 C871 393 864 402 848 402 L765 402 C752 402 741 396 733 385 L561 163 C553 152 549 144 547 132 L543 100 C540 84 548 75 564 75 L724 75 L716 25 C714 9 721 0 737 0 L784 0 C800 0 810 9 813 25 L821 75 L838 75 C854 75 865 84 867 100 L872 136 C875 152 868 161 852 161 L852 161 Z M755 272 L737 161 L652 161 L653 165 L757 300 L764 300 L755 272 Z " />
<glyph glyph-name="onehalf" unicode="&#xbd;" horiz-adv-x="947" d="M298 293 L304 333 C306 349 299 358 283 358 L238 358 L283 645 C286 661 278 670 262 670 L227 670 C216 670 207 668 196 664 L128 636 C114 630 106 621 104 607 L98 570 C95 551 106 543 124 551 L168 569 L174 569 L141 358 L88 358 C72 358 61 349 59 333 L52 293 C50 277 57 268 73 268 L269 268 C284 268 295 277 298 293 L298 293 Z M751 670 L685 670 C673 670 661 665 654 654 L207 28 C197 12 201 0 219 0 L285 0 C297 0 309 5 316 16 L763 642 C774 658 769 670 751 670 L751 670 Z M836 175 C876 208 909 245 917 294 C928 363 877 409 791 409 C704 409 639 361 627 289 L627 284 C624 268 632 259 648 259 L703 259 C716 259 724 266 726 279 L727 282 C730 304 750 321 777 321 C803 321 818 306 814 285 C811 263 785 236 749 205 L609 87 C599 77 593 68 591 56 L586 25 C583 9 591 0 607 0 L844 0 C860 0 870 9 873 25 L879 65 C882 81 874 90 858 90 L742 90 L743 95 L836 175 Z " />
<glyph glyph-name="threequarters" unicode="&#xbe;" horiz-adv-x="944" d="M358 377 C365 423 344 460 306 472 L307 477 C345 489 375 524 381 566 C392 632 340 677 255 677 C167 677 103 629 93 570 L92 567 C91 555 97 547 110 547 L168 547 C183 547 189 553 195 564 C203 584 219 593 240 593 C266 593 281 577 278 552 C274 526 251 509 223 509 L189 509 C173 509 162 500 160 484 L156 457 C153 441 161 432 177 432 L218 432 C245 432 262 415 258 389 C254 363 230 345 201 345 C176 345 161 354 159 376 C157 387 152 395 137 395 L79 395 C66 395 58 388 56 375 L55 370 C45 310 96 261 188 261 C278 261 347 309 358 377 L358 377 Z M768 670 L702 670 C690 670 678 665 671 654 L224 28 C214 12 218 0 236 0 L302 0 C314 0 326 5 333 16 L780 642 C791 658 786 670 768 670 L768 670 Z M869 161 L852 161 L886 377 C888 393 881 402 865 402 L782 402 C769 402 758 396 750 385 L578 163 C570 152 566 144 564 132 L560 100 C557 84 565 75 581 75 L741 75 L733 25 C731 9 738 0 754 0 L801 0 C817 0 827 9 830 25 L838 75 L855 75 C871 75 882 84 884 100 L889 136 C892 152 885 161 869 161 L869 161 Z M772 272 L754 161 L669 161 L670 165 L774 300 L781 300 L772 272 Z " />
<glyph glyph-name="questiondown" unicode="&#xbf;" horiz-adv-x="527" d="M312 510 C259 510 219 474 211 421 C202 368 231 333 285 333 C338 333 379 368 387 421 C395 474 365 510 312 510 L312 510 Z M321 281 L230 281 C215 281 200 276 198 258 L195 242 C182 160 16 147 -6 7 C-25 -112 59 -182 199 -182 C342 -182 444 -120 465 6 C468 26 459 38 439 38 L341 38 C327 38 321 30 316 20 C303 -24 272 -47 221 -47 C171 -47 142 -22 148 18 C162 102 321 96 341 224 L345 247 C349 268 341 281 321 281 L321 281 Z " />
<glyph glyph-name="Agrave" unicode="&#xc0;" horiz-adv-x="649" d="M347 738 C355 726 366 721 382 721 L428 721 C452 721 464 737 456 757 L420 851 C415 867 404 874 387 874 L300 874 C274 874 263 856 277 836 L347 738 Z M582 39 L498 640 C496 661 486 670 465 670 L318 670 C297 670 283 661 274 640 L0 39 C-10 14 -2 0 23 0 L114 0 C132 0 145 10 152 28 L193 127 L411 127 L422 28 C423 10 432 0 450 0 L546 0 C572 0 584 14 582 39 L582 39 Z M249 259 L359 522 L369 522 L397 259 L249 259 Z " />
<glyph glyph-name="Aacute" unicode="&#xc1;" horiz-adv-x="649" d="M370 721 L416 721 C432 721 444 726 457 738 L557 836 C579 856 572 874 546 874 L460 874 C443 874 430 867 420 851 L353 757 C339 737 346 721 370 721 L370 721 Z M582 39 L498 640 C496 661 486 670 465 670 L318 670 C297 670 283 661 274 640 L0 39 C-10 14 -2 0 23 0 L114 0 C132 0 145 10 152 28 L193 127 L411 127 L422 28 C423 10 432 0 450 0 L546 0 C572 0 584 14 582 39 L582 39 Z M249 259 L359 522 L369 522 L397 259 L249 259 Z " />
<glyph glyph-name="Acircumflex" unicode="&#xc2;" horiz-adv-x="649" d="M259 721 L309 721 C325 721 338 726 351 739 L406 791 L414 791 L454 739 C462 726 473 721 489 721 L539 721 C564 721 576 738 565 759 L507 855 C500 868 489 874 473 874 L373 874 C357 874 344 868 333 855 L246 759 C229 738 234 721 259 721 L259 721 Z M582 39 L498 640 C496 661 486 670 465 670 L318 670 C297 670 283 661 274 640 L0 39 C-10 14 -2 0 23 0 L114 0 C132 0 145 10 152 28 L193 127 L411 127 L422 28 C423 10 432 0 450 0 L546 0 C572 0 584 14 582 39 L582 39 Z M249 259 L359 522 L369 522 L397 259 L249 259 Z " />
<glyph glyph-name="Atilde" unicode="&#xc3;" horiz-adv-x="649" d="M591 881 L538 881 C518 881 512 875 506 863 C499 847 485 838 467 838 C428 838 404 884 343 884 C274 884 232 839 213 752 C210 736 218 728 233 728 L286 728 C306 728 312 734 318 746 C325 761 339 771 356 771 C393 771 421 725 481 725 C547 725 589 767 608 848 C614 869 606 881 591 881 L591 881 Z M498 640 C496 661 486 670 465 670 L318 670 C297 670 283 661 274 640 L0 39 C-10 14 -2 0 23 0 L114 0 C132 0 145 10 152 28 L193 127 L411 127 L422 28 C423 10 432 0 450 0 L546 0 C572 0 584 14 582 39 L498 640 Z M249 259 L359 522 L369 522 L397 259 L249 259 Z " />
<glyph glyph-name="Adieresis" unicode="&#xc4;" horiz-adv-x="649" d="M297 724 C343 724 377 755 385 801 C392 846 366 876 321 876 C275 876 240 846 232 801 C225 755 251 724 297 724 L297 724 Z M528 876 C482 876 446 846 439 801 C432 755 458 724 504 724 C549 724 584 755 591 801 C599 846 573 876 528 876 L528 876 Z M498 640 C496 661 486 670 465 670 L318 670 C297 670 283 661 274 640 L0 39 C-10 14 -2 0 23 0 L114 0 C132 0 145 10 152 28 L193 127 L411 127 L422 28 C423 10 432 0 450 0 L546 0 C572 0 584 14 582 39 L498 640 Z M249 259 L359 522 L369 522 L397 259 L249 259 Z " />
<glyph glyph-name="Aring" unicode="&#xc5;" horiz-adv-x="649" d="M398 713 C469 713 523 759 533 826 C544 893 504 939 434 939 C362 939 308 893 297 826 C287 759 327 713 398 713 L398 713 Z M370 826 C374 853 397 872 424 872 C450 872 465 853 460 826 C456 799 434 780 408 780 C381 780 366 800 370 826 L370 826 Z M582 39 L498 640 C496 661 486 670 465 670 L318 670 C297 670 283 661 274 640 L0 39 C-10 14 -2 0 23 0 L114 0 C132 0 145 10 152 28 L193 127 L411 127 L422 28 C423 10 432 0 450 0 L546 0 C572 0 584 14 582 39 L582 39 Z M249 259 L359 522 L369 522 L397 259 L249 259 Z " />
<glyph glyph-name="AE" unicode="&#xc6;" horiz-adv-x="891" d="M865 670 L394 670 C373 670 358 662 347 642 L-28 39 C-42 14 -35 0 -8 0 L85 0 C106 0 120 8 130 28 L189 127 L381 127 L367 35 C363 12 373 0 395 0 L758 0 C780 0 795 12 799 35 L809 102 C813 124 803 136 780 136 L530 136 L552 273 L763 273 C785 273 800 286 804 308 L813 368 C816 390 806 403 784 403 L572 403 L593 534 L843 534 C865 534 880 546 883 568 L893 635 C897 658 887 670 865 670 L865 670 Z M269 259 L434 534 L446 534 L402 259 L269 259 Z " />
<glyph glyph-name="Ccedilla" unicode="&#xc7;" horiz-adv-x="636" d="M388 682 C227 682 107 585 84 438 L51 232 C30 100 101 9 231 -9 L201 -49 C196 -56 192 -62 192 -70 L190 -79 C188 -94 195 -102 210 -102 L262 -102 C277 -102 286 -112 284 -126 C282 -145 259 -156 228 -156 C213 -156 199 -153 186 -149 C168 -145 156 -153 153 -175 L151 -189 C148 -206 153 -219 170 -224 C187 -229 208 -232 230 -232 C309 -232 369 -191 379 -130 C387 -76 356 -41 301 -41 L289 -41 L310 -11 C450 -1 556 78 579 224 C582 246 574 258 554 258 L468 258 C448 258 438 248 431 228 C416 163 371 124 300 124 C229 124 189 168 199 235 L231 435 C242 502 295 546 367 546 C436 546 470 508 465 442 C466 422 473 412 492 412 L579 412 C599 412 611 424 614 444 C638 600 546 682 388 682 L388 682 Z " />
<glyph glyph-name="Egrave" unicode="&#xc8;" horiz-adv-x="562" d="M315 738 C323 726 334 721 350 721 L396 721 C420 721 432 737 424 757 L388 851 C383 867 372 874 355 874 L268 874 C242 874 231 856 245 836 L315 738 Z M542 670 L177 670 C156 670 141 658 137 636 L42 34 C39 12 49 0 70 0 L435 0 C456 0 471 12 475 34 L485 101 C489 123 478 135 456 135 L206 135 L227 271 L439 271 C461 271 475 284 479 306 L489 370 C493 392 482 405 460 405 L249 405 L269 535 L520 535 C542 535 556 547 559 569 L570 636 C573 658 563 670 542 670 L542 670 Z " />
<glyph glyph-name="Eacute" unicode="&#xc9;" horiz-adv-x="562" d="M338 721 L384 721 C400 721 412 726 425 738 L525 836 C547 856 540 874 514 874 L428 874 C411 874 398 867 388 851 L321 757 C307 737 314 721 338 721 L338 721 Z M542 670 L177 670 C156 670 141 658 137 636 L42 34 C39 12 49 0 70 0 L435 0 C456 0 471 12 475 34 L485 101 C489 123 478 135 456 135 L206 135 L227 271 L439 271 C461 271 475 284 479 306 L489 370 C493 392 482 405 460 405 L249 405 L269 535 L520 535 C542 535 556 547 559 569 L570 636 C573 658 563 670 542 670 L542 670 Z " />
<glyph glyph-name="Ecircumflex" unicode="&#xca;" horiz-adv-x="562" d="M227 721 L277 721 C293 721 306 726 319 739 L374 791 L382 791 L422 739 C430 726 441 721 457 721 L507 721 C532 721 544 738 533 759 L475 855 C468 868 457 874 441 874 L341 874 C325 874 312 868 301 855 L214 759 C197 738 202 721 227 721 L227 721 Z M542 670 L177 670 C156 670 141 658 137 636 L42 34 C39 12 49 0 70 0 L435 0 C456 0 471 12 475 34 L485 101 C489 123 478 135 456 135 L206 135 L227 271 L439 271 C461 271 475 284 479 306 L489 370 C493 392 482 405 460 405 L249 405 L269 535 L520 535 C542 535 556 547 559 569 L570 636 C573 658 563 670 542 670 L542 670 Z " />
<glyph glyph-name="Edieresis" unicode="&#xcb;" horiz-adv-x="562" d="M265 724 C311 724 345 755 353 801 C360 846 334 876 289 876 C243 876 208 846 200 801 C193 755 219 724 265 724 L265 724 Z M472 724 C517 724 552 755 559 801 C567 846 541 876 496 876 C450 876 414 846 407 801 C400 755 426 724 472 724 L472 724 Z M542 670 L177 670 C156 670 141 658 137 636 L42 34 C39 12 49 0 70 0 L435 0 C456 0 471 12 475 34 L485 101 C489 123 478 135 456 135 L206 135 L227 271 L439 271 C461 271 475 284 479 306 L489 370 C493 392 482 405 460 405 L249 405 L269 535 L520 535 C542 535 556 547 559 569 L570 636 C573 658 563 670 542 670 L542 670 Z " />
<glyph glyph-name="Igrave" unicode="&#xcc;" horiz-adv-x="300" d="M207 721 L253 721 C277 721 289 737 281 757 L245 851 C240 867 229 874 212 874 L125 874 C99 874 88 856 102 836 L172 738 C180 726 191 721 207 721 L207 721 Z M71 0 L149 0 C171 0 186 12 190 35 L285 635 C288 658 278 670 256 670 L178 670 C156 670 141 658 137 635 L43 35 C39 12 49 0 71 0 L71 0 Z " />
<glyph glyph-name="Iacute" unicode="&#xcd;" horiz-adv-x="300" d="M196 721 L242 721 C258 721 270 726 283 738 L383 836 C405 856 398 874 372 874 L286 874 C269 874 256 867 246 851 L179 757 C165 737 172 721 196 721 L196 721 Z M71 0 L149 0 C171 0 186 12 190 35 L285 635 C288 658 278 670 256 670 L178 670 C156 670 141 658 137 635 L43 35 C39 12 49 0 71 0 L71 0 Z " />
<glyph glyph-name="Icircumflex" unicode="&#xce;" horiz-adv-x="300" d="M85 721 L135 721 C151 721 164 726 177 739 L232 791 L240 791 L280 739 C288 726 299 721 315 721 L365 721 C390 721 402 738 391 759 L333 855 C326 868 315 874 299 874 L199 874 C183 874 170 868 159 855 L72 759 C55 738 60 721 85 721 L85 721 Z M71 0 L149 0 C171 0 186 12 190 35 L285 635 C288 658 278 670 256 670 L178 670 C156 670 141 658 137 635 L43 35 C39 12 49 0 71 0 L71 0 Z " />
<glyph glyph-name="Idieresis" unicode="&#xcf;" horiz-adv-x="300" d="M123 724 C169 724 203 755 211 801 C218 846 192 876 147 876 C101 876 66 846 58 801 C51 755 77 724 123 724 L123 724 Z M330 724 C375 724 410 755 417 801 C425 846 399 876 354 876 C308 876 272 846 265 801 C258 755 284 724 330 724 L330 724 Z M71 0 L149 0 C171 0 186 12 190 35 L285 635 C288 658 278 670 256 670 L178 670 C156 670 141 658 137 635 L43 35 C39 12 49 0 71 0 L71 0 Z " />
<glyph glyph-name="Eth" unicode="&#xd0;" horiz-adv-x="651" d="M398 670 L178 670 C156 670 141 658 137 635 L99 394 L68 394 C48 394 36 383 32 363 L23 307 C19 287 29 276 49 276 L81 276 L43 35 C39 12 49 0 71 0 L291 0 C451 0 573 98 596 248 L624 422 C648 572 558 670 398 670 L398 670 Z M476 418 L450 252 C438 180 385 136 309 136 L206 136 L228 276 L301 276 C321 276 334 287 337 307 L346 363 C350 383 340 394 320 394 L247 394 L269 534 L372 534 C447 534 487 490 476 418 L476 418 Z " />
<glyph glyph-name="Ntilde" unicode="&#xd1;" horiz-adv-x="685" d="M499 725 C565 725 607 767 626 848 C632 869 624 881 609 881 L556 881 C536 881 530 875 524 863 C517 847 503 838 485 838 C446 838 422 884 361 884 C292 884 250 839 231 752 C228 736 236 728 251 728 L304 728 C324 728 330 734 336 746 C343 761 357 771 374 771 C411 771 439 725 499 725 L499 725 Z M67 0 L153 0 C173 0 186 11 190 31 L244 377 L245 424 L256 424 L389 24 C393 8 404 0 422 0 L538 0 C558 0 571 11 574 31 L670 639 C673 659 665 670 645 670 L559 670 C539 670 526 659 523 639 L468 293 L467 246 L456 246 L323 646 C319 662 308 670 290 670 L174 670 C154 670 141 659 138 639 L42 31 C39 11 47 0 67 0 L67 0 Z " />
<glyph glyph-name="Ograve" unicode="&#xd2;" horiz-adv-x="649" d="M382 721 L428 721 C452 721 464 737 456 757 L420 851 C415 867 404 874 387 874 L300 874 C274 874 263 856 277 836 L347 738 C355 726 366 721 382 721 L382 721 Z M284 -12 C446 -12 569 87 593 237 L623 433 C647 583 555 682 393 682 C229 682 107 583 83 433 L52 237 C28 87 120 -12 284 -12 L284 -12 Z M305 124 C231 124 189 170 200 240 L230 430 C242 500 297 546 372 546 C445 546 487 500 476 430 L445 240 C434 170 378 124 305 124 L305 124 Z " />
<glyph glyph-name="Oacute" unicode="&#xd3;" horiz-adv-x="649" d="M370 721 L416 721 C432 721 444 726 457 738 L557 836 C579 856 572 874 546 874 L460 874 C443 874 430 867 420 851 L353 757 C339 737 346 721 370 721 L370 721 Z M284 -12 C446 -12 569 87 593 237 L623 433 C647 583 555 682 393 682 C229 682 107 583 83 433 L52 237 C28 87 120 -12 284 -12 L284 -12 Z M305 124 C231 124 189 170 200 240 L230 430 C242 500 297 546 372 546 C445 546 487 500 476 430 L445 240 C434 170 378 124 305 124 L305 124 Z " />
<glyph glyph-name="Ocircumflex" unicode="&#xd4;" horiz-adv-x="649" d="M259 721 L309 721 C325 721 338 726 351 739 L406 791 L414 791 L454 739 C462 726 473 721 489 721 L539 721 C564 721 576 738 565 759 L507 855 C500 868 489 874 473 874 L373 874 C357 874 344 868 333 855 L246 759 C229 738 234 721 259 721 L259 721 Z M284 -12 C446 -12 569 87 593 237 L623 433 C647 583 555 682 393 682 C229 682 107 583 83 433 L52 237 C28 87 120 -12 284 -12 L284 -12 Z M305 124 C231 124 189 170 200 240 L230 430 C242 500 297 546 372 546 C445 546 487 500 476 430 L445 240 C434 170 378 124 305 124 L305 124 Z " />
<glyph glyph-name="Otilde" unicode="&#xd5;" horiz-adv-x="649" d="M481 725 C547 725 589 767 608 848 C614 869 606 881 591 881 L538 881 C518 881 512 875 506 863 C499 847 485 838 467 838 C428 838 404 884 343 884 C274 884 232 839 213 752 C210 736 218 728 233 728 L286 728 C306 728 312 734 318 746 C325 761 339 771 356 771 C393 771 421 725 481 725 L481 725 Z M284 -12 C446 -12 569 87 593 237 L623 433 C647 583 555 682 393 682 C229 682 107 583 83 433 L52 237 C28 87 120 -12 284 -12 L284 -12 Z M305 124 C231 124 189 170 200 240 L230 430 C242 500 297 546 372 546 C445 546 487 500 476 430 L445 240 C434 170 378 124 305 124 L305 124 Z " />
<glyph glyph-name="Odieresis" unicode="&#xd6;" horiz-adv-x="649" d="M297 724 C343 724 377 755 385 801 C392 846 366 876 321 876 C275 876 240 846 232 801 C225 755 251 724 297 724 L297 724 Z M504 724 C549 724 584 755 591 801 C599 846 573 876 528 876 C482 876 446 846 439 801 C432 755 458 724 504 724 L504 724 Z M284 -12 C446 -12 569 87 593 237 L623 433 C647 583 555 682 393 682 C229 682 107 583 83 433 L52 237 C28 87 120 -12 284 -12 L284 -12 Z M305 124 C231 124 189 170 200 240 L230 430 C242 500 297 546 372 546 C445 546 487 500 476 430 L445 240 C434 170 378 124 305 124 L305 124 Z " />
<glyph glyph-name="multiply" unicode="&#xd7;" horiz-adv-x="491" d="M447 428 L410 471 C399 485 383 485 367 471 L266 384 L194 470 C182 485 166 484 151 470 L102 428 C85 414 82 399 94 384 L167 298 L67 212 C51 198 48 183 60 169 L96 125 C108 111 123 111 140 125 L240 211 L312 126 C325 111 339 112 356 126 L405 169 C422 183 424 197 412 212 L339 298 L439 384 C456 398 458 414 447 428 L447 428 Z " />
<glyph glyph-name="Oslash" unicode="&#xd8;" horiz-adv-x="649" d="M619 700 L589 700 C574 700 562 694 553 680 L531 650 C494 671 447 682 393 682 C229 682 107 583 83 433 L52 237 C41 167 55 107 90 64 L45 4 C31 -16 38 -30 57 -30 L86 -30 C101 -30 113 -24 123 -10 L145 19 C182 -1 229 -12 284 -12 C446 -12 569 87 593 237 L623 433 C634 503 620 563 585 606 L630 666 C645 686 638 700 619 700 L619 700 Z M200 240 L230 430 C242 500 297 546 372 546 C399 546 422 540 439 528 L199 209 C198 218 198 229 200 240 L200 240 Z M476 430 L445 240 C434 170 378 124 305 124 C278 124 254 130 237 142 L477 462 C478 452 478 441 476 430 L476 430 Z " />
<glyph glyph-name="Ugrave" unicode="&#xd9;" horiz-adv-x="654" d="M384 721 L430 721 C454 721 466 737 458 757 L422 851 C417 867 406 874 389 874 L302 874 C276 874 265 856 279 836 L349 738 C357 726 368 721 384 721 L384 721 Z M287 -12 C443 -12 561 83 584 227 L648 635 C652 658 642 670 620 670 L542 670 C519 670 504 658 501 635 L437 230 C427 166 375 124 308 124 C240 124 202 166 212 230 L275 635 C279 658 269 670 247 670 L169 670 C146 670 132 658 128 635 L63 227 C40 83 129 -12 287 -12 L287 -12 Z " />
<glyph glyph-name="Uacute" unicode="&#xda;" horiz-adv-x="654" d="M373 721 L419 721 C435 721 447 726 460 738 L560 836 C582 856 575 874 549 874 L463 874 C446 874 433 867 423 851 L356 757 C342 737 349 721 373 721 L373 721 Z M287 -12 C443 -12 561 83 584 227 L648 635 C652 658 642 670 620 670 L542 670 C519 670 504 658 501 635 L437 230 C427 166 375 124 308 124 C240 124 202 166 212 230 L275 635 C279 658 269 670 247 670 L169 670 C146 670 132 658 128 635 L63 227 C40 83 129 -12 287 -12 L287 -12 Z " />
<glyph glyph-name="Ucircumflex" unicode="&#xdb;" horiz-adv-x="654" d="M262 721 L312 721 C328 721 341 726 354 739 L409 791 L417 791 L457 739 C465 726 476 721 492 721 L542 721 C567 721 579 738 568 759 L510 855 C503 868 492 874 476 874 L376 874 C360 874 347 868 336 855 L249 759 C232 738 237 721 262 721 L262 721 Z M287 -12 C443 -12 561 83 584 227 L648 635 C652 658 642 670 620 670 L542 670 C519 670 504 658 501 635 L437 230 C427 166 375 124 308 124 C240 124 202 166 212 230 L275 635 C279 658 269 670 247 670 L169 670 C146 670 132 658 128 635 L63 227 C40 83 129 -12 287 -12 L287 -12 Z " />
<glyph glyph-name="Udieresis" unicode="&#xdc;" horiz-adv-x="654" d="M300 724 C346 724 380 755 388 801 C395 846 369 876 324 876 C278 876 243 846 235 801 C228 755 254 724 300 724 L300 724 Z M507 724 C552 724 587 755 594 801 C602 846 576 876 531 876 C485 876 449 846 442 801 C435 755 461 724 507 724 L507 724 Z M287 -12 C443 -12 561 83 584 227 L648 635 C652 658 642 670 620 670 L542 670 C519 670 504 658 501 635 L437 230 C427 166 375 124 308 124 C240 124 202 166 212 230 L275 635 C279 658 269 670 247 670 L169 670 C146 670 132 658 128 635 L63 227 C40 83 129 -12 287 -12 L287 -12 Z " />
<glyph glyph-name="Yacute" unicode="&#xdd;" horiz-adv-x="612" d="M352 721 L398 721 C414 721 426 726 439 738 L539 836 C561 856 554 874 528 874 L442 874 C425 874 412 867 402 851 L335 757 C321 737 328 721 352 721 L352 721 Z M227 0 L305 0 C328 0 342 12 346 35 L382 264 L636 629 C653 654 645 670 618 670 L528 670 C509 670 494 662 484 643 L342 424 L332 424 L258 643 C253 661 242 670 223 670 L128 670 C101 670 87 654 95 629 L234 263 L199 35 C195 12 205 0 227 0 L227 0 Z " />
<glyph glyph-name="Thorn" unicode="&#xde;" horiz-adv-x="629" d="M423 564 L274 564 L285 635 C288 658 278 670 256 670 L178 670 C156 670 141 658 137 635 L43 35 C39 12 49 0 71 0 L149 0 C171 0 186 12 190 35 L201 106 L350 106 C487 106 591 199 612 338 C634 476 559 564 423 564 L423 564 Z M464 335 C455 278 414 242 356 242 L223 242 L252 428 L386 428 C444 428 474 392 464 335 L464 335 Z " />
<glyph glyph-name="germandbls" unicode="&#xdf;" horiz-adv-x="552" d="M48 0 L126 0 C146 0 159 11 163 31 L234 480 C241 528 279 560 329 560 C378 560 406 528 398 481 C391 434 357 403 314 403 L305 403 C295 403 288 397 286 387 L274 307 C272 295 279 286 291 286 L309 286 C357 286 384 254 376 205 C368 155 331 122 283 122 L261 122 C246 122 236 113 233 99 L223 31 C220 11 228 0 248 0 L287 0 C405 0 495 70 512 179 C525 261 492 329 428 345 L429 352 C486 372 529 426 540 495 C558 607 482 682 349 682 C214 682 114 607 96 493 L23 31 C19 11 28 0 48 0 L48 0 Z " />
<glyph glyph-name="agrave" unicode="&#xe0;" horiz-adv-x="547" d="M304 551 L350 551 C374 551 386 567 378 587 L342 681 C337 697 326 704 309 704 L222 704 C196 704 185 686 199 666 L269 568 C277 556 288 551 304 551 L304 551 Z M494 500 L416 500 C396 500 383 489 380 469 L374 430 L366 430 C354 478 310 512 245 512 C152 512 77 447 62 349 L31 151 C15 53 70 -12 163 -12 C228 -12 283 22 309 70 L317 70 L311 31 C308 11 316 0 336 0 L414 0 C434 0 448 11 451 31 L520 469 C523 489 514 500 494 500 L494 500 Z M244 119 C197 119 170 148 177 193 L195 307 C202 352 238 381 285 381 C333 381 361 349 354 308 L336 192 C330 151 292 119 244 119 L244 119 Z " />
<glyph glyph-name="aacute" unicode="&#xe1;" horiz-adv-x="547" d="M293 551 L339 551 C355 551 367 556 380 568 L480 666 C502 686 495 704 469 704 L383 704 C366 704 353 697 343 681 L276 587 C262 567 269 551 293 551 L293 551 Z M494 500 L416 500 C396 500 383 489 380 469 L374 430 L366 430 C354 478 310 512 245 512 C152 512 77 447 62 349 L31 151 C15 53 70 -12 163 -12 C228 -12 283 22 309 70 L317 70 L311 31 C308 11 316 0 336 0 L414 0 C434 0 448 11 451 31 L520 469 C523 489 514 500 494 500 L494 500 Z M244 119 C197 119 170 148 177 193 L195 307 C202 352 238 381 285 381 C333 381 361 349 354 308 L336 192 C330 151 292 119 244 119 L244 119 Z " />
<glyph glyph-name="acircumflex" unicode="&#xe2;" horiz-adv-x="547" d="M181 551 L231 551 C247 551 260 556 273 569 L328 621 L336 621 L376 569 C384 556 395 551 411 551 L461 551 C486 551 498 568 487 589 L429 685 C422 698 411 704 395 704 L295 704 C279 704 266 698 255 685 L168 589 C151 568 156 551 181 551 L181 551 Z M494 500 L416 500 C396 500 383 489 380 469 L374 430 L366 430 C354 478 310 512 245 512 C152 512 77 447 62 349 L31 151 C15 53 70 -12 163 -12 C228 -12 283 22 309 70 L317 70 L311 31 C308 11 316 0 336 0 L414 0 C434 0 448 11 451 31 L520 469 C523 489 514 500 494 500 L494 500 Z M244 119 C197 119 170 148 177 193 L195 307 C202 352 238 381 285 381 C333 381 361 349 354 308 L336 192 C330 151 292 119 244 119 L244 119 Z " />
<glyph glyph-name="atilde" unicode="&#xe3;" horiz-adv-x="547" d="M404 555 C470 555 512 597 531 678 C537 699 529 711 514 711 L461 711 C441 711 435 705 429 693 C422 677 408 668 390 668 C351 668 327 714 266 714 C197 714 155 669 136 582 C133 566 141 558 156 558 L209 558 C229 558 235 564 241 576 C248 591 262 601 279 601 C316 601 344 555 404 555 L404 555 Z M494 500 L416 500 C396 500 383 489 380 469 L374 430 L366 430 C354 478 310 512 245 512 C152 512 77 447 62 349 L31 151 C15 53 70 -12 163 -12 C228 -12 283 22 309 70 L317 70 L311 31 C308 11 316 0 336 0 L414 0 C434 0 448 11 451 31 L520 469 C523 489 514 500 494 500 L494 500 Z M244 119 C197 119 170 148 177 193 L195 307 C202 352 238 381 285 381 C333 381 361 349 354 308 L336 192 C330 151 292 119 244 119 L244 119 Z " />
<glyph glyph-name="adieresis" unicode="&#xe4;" horiz-adv-x="547" d="M219 554 C265 554 299 585 307 631 C314 676 288 706 243 706 C197 706 162 676 154 631 C147 585 173 554 219 554 L219 554 Z M426 554 C471 554 506 585 513 631 C521 676 495 706 450 706 C404 706 368 676 361 631 C354 585 380 554 426 554 L426 554 Z M494 500 L416 500 C396 500 383 489 380 469 L374 430 L366 430 C354 478 310 512 245 512 C152 512 77 447 62 349 L31 151 C15 53 70 -12 163 -12 C228 -12 283 22 309 70 L317 70 L311 31 C308 11 316 0 336 0 L414 0 C434 0 448 11 451 31 L520 469 C523 489 514 500 494 500 L494 500 Z M244 119 C197 119 170 148 177 193 L195 307 C202 352 238 381 285 381 C333 381 361 349 354 308 L336 192 C330 151 292 119 244 119 L244 119 Z " />
<glyph glyph-name="aring" unicode="&#xe5;" horiz-adv-x="547" d="M321 543 C392 543 446 589 456 656 C467 723 427 769 357 769 C285 769 231 723 220 656 C210 589 250 543 321 543 L321 543 Z M331 610 C304 610 289 630 293 656 C297 683 320 702 347 702 C373 702 388 683 383 656 C379 629 357 610 331 610 L331 610 Z M494 500 L416 500 C396 500 383 489 380 469 L374 430 L366 430 C354 478 310 512 245 512 C152 512 77 447 62 349 L31 151 C15 53 70 -12 163 -12 C228 -12 283 22 309 70 L317 70 L311 31 C308 11 316 0 336 0 L414 0 C434 0 448 11 451 31 L520 469 C523 489 514 500 494 500 L494 500 Z M244 119 C197 119 170 148 177 193 L195 307 C202 352 238 381 285 381 C333 381 361 349 354 308 L336 192 C330 151 292 119 244 119 L244 119 Z " />
<glyph glyph-name="ae" unicode="&#xe6;" horiz-adv-x="814" d="M604 512 C533 512 468 485 437 445 L430 445 C409 485 355 512 282 512 C175 512 85 463 70 366 C67 346 75 335 95 335 L174 335 C190 335 199 343 206 360 C217 384 240 399 281 399 C326 399 352 373 345 333 L338 291 L204 291 C104 291 28 231 14 141 C-1 49 64 -12 180 -12 C257 -12 333 15 368 55 L375 55 C395 15 455 -12 531 -12 C638 -12 720 35 749 124 C756 145 744 156 726 156 L642 156 C626 156 617 148 610 136 C594 113 569 101 534 101 C482 101 454 131 461 176 L465 202 L733 202 C753 202 765 213 769 233 L781 314 C800 433 728 512 604 512 L604 512 Z M485 325 C492 370 528 399 576 399 C623 399 651 370 644 325 L639 297 L480 297 L485 325 Z M223 94 C178 94 151 116 156 148 C161 178 187 197 223 197 L324 197 L317 153 C312 118 274 94 223 94 L223 94 Z " />
<glyph glyph-name="ccedilla" unicode="&#xe7;" horiz-adv-x="512" d="M300 512 C170 512 72 433 53 312 L33 188 C16 82 71 9 172 -8 L141 -49 C136 -56 132 -62 132 -70 L130 -79 C128 -94 135 -102 150 -102 L202 -102 C217 -102 226 -112 224 -126 C222 -145 199 -156 168 -156 C153 -156 139 -153 126 -149 C108 -145 96 -153 93 -175 L91 -189 C88 -206 93 -219 110 -224 C127 -229 148 -232 170 -232 C249 -232 309 -191 319 -130 C327 -76 296 -41 241 -41 L229 -41 L251 -10 C358 0 445 62 461 168 C464 189 456 201 436 201 L357 201 C338 201 328 191 323 179 C313 139 280 117 238 117 C192 117 167 146 173 189 L193 311 C200 354 235 383 281 383 C321 383 348 362 346 321 C347 309 355 299 373 299 L453 299 C473 299 484 311 487 331 C505 447 424 512 300 512 L300 512 Z " />
<glyph glyph-name="egrave" unicode="&#xe8;" horiz-adv-x="525" d="M258 568 C266 556 277 551 293 551 L339 551 C363 551 375 567 367 587 L331 681 C326 697 315 704 298 704 L211 704 C185 704 174 686 188 666 L258 568 Z M304 512 C171 512 72 432 53 310 L33 190 C14 68 90 -12 225 -12 C343 -12 433 41 460 126 C466 146 454 156 436 156 L353 156 C335 156 328 148 319 135 C305 113 278 101 243 101 C192 101 164 131 172 176 L176 204 L444 204 C464 204 477 215 479 235 L491 308 C511 431 436 512 304 512 L304 512 Z M195 325 C202 370 238 399 286 399 C334 399 361 370 354 325 L350 300 L191 300 L195 325 Z " />
<glyph glyph-name="eacute" unicode="&#xe9;" horiz-adv-x="525" d="M282 551 L328 551 C344 551 356 556 369 568 L469 666 C491 686 484 704 458 704 L372 704 C355 704 342 697 332 681 L265 587 C251 567 258 551 282 551 L282 551 Z M304 512 C171 512 72 432 53 310 L33 190 C14 68 90 -12 225 -12 C343 -12 433 41 460 126 C466 146 454 156 436 156 L353 156 C335 156 328 148 319 135 C305 113 278 101 243 101 C192 101 164 131 172 176 L176 204 L444 204 C464 204 477 215 479 235 L491 308 C511 431 436 512 304 512 L304 512 Z M195 325 C202 370 238 399 286 399 C334 399 361 370 354 325 L350 300 L191 300 L195 325 Z " />
<glyph glyph-name="ecircumflex" unicode="&#xea;" horiz-adv-x="525" d="M170 551 L220 551 C236 551 249 556 262 569 L317 621 L325 621 L365 569 C373 556 384 551 400 551 L450 551 C475 551 487 568 476 589 L418 685 C411 698 400 704 384 704 L284 704 C268 704 255 698 244 685 L157 589 C140 568 145 551 170 551 L170 551 Z M304 512 C171 512 72 432 53 310 L33 190 C14 68 90 -12 225 -12 C343 -12 433 41 460 126 C466 146 454 156 436 156 L353 156 C335 156 328 148 319 135 C305 113 278 101 243 101 C192 101 164 131 172 176 L176 204 L444 204 C464 204 477 215 479 235 L491 308 C511 431 436 512 304 512 L304 512 Z M195 325 C202 370 238 399 286 399 C334 399 361 370 354 325 L350 300 L191 300 L195 325 Z " />
<glyph glyph-name="edieresis" unicode="&#xeb;" horiz-adv-x="525" d="M208 554 C254 554 288 585 296 631 C303 676 277 706 232 706 C186 706 151 676 143 631 C136 585 162 554 208 554 L208 554 Z M439 706 C393 706 357 676 350 631 C343 585 369 554 415 554 C460 554 495 585 502 631 C510 676 484 706 439 706 L439 706 Z M304 512 C171 512 72 432 53 310 L33 190 C14 68 90 -12 225 -12 C343 -12 433 41 460 126 C466 146 454 156 436 156 L353 156 C335 156 328 148 319 135 C305 113 278 101 243 101 C192 101 164 131 172 176 L176 204 L444 204 C464 204 477 215 479 235 L491 308 C511 431 436 512 304 512 L304 512 Z M195 325 C202 370 238 399 286 399 C334 399 361 370 354 325 L350 300 L191 300 L195 325 Z " />
<glyph glyph-name="igrave" unicode="&#xec;" horiz-adv-x="264" d="M162 551 L208 551 C232 551 244 567 236 587 L200 681 C195 697 184 704 167 704 L80 704 C54 704 43 686 57 666 L127 568 C135 556 146 551 162 551 L162 551 Z M53 0 L131 0 C151 0 164 11 168 31 L236 469 C240 489 231 500 211 500 L133 500 C113 500 100 489 96 469 L28 31 C24 11 33 0 53 0 L53 0 Z " />
<glyph glyph-name="iacute" unicode="&#xed;" horiz-adv-x="264" d="M151 551 L197 551 C213 551 225 556 238 568 L338 666 C360 686 353 704 327 704 L241 704 C224 704 211 697 201 681 L134 587 C120 567 127 551 151 551 L151 551 Z M53 0 L131 0 C151 0 164 11 168 31 L236 469 C240 489 231 500 211 500 L133 500 C113 500 100 489 96 469 L28 31 C24 11 33 0 53 0 L53 0 Z " />
<glyph glyph-name="icircumflex" unicode="&#xee;" horiz-adv-x="264" d="M39 551 L89 551 C105 551 118 556 131 569 L186 621 L194 621 L234 569 C242 556 253 551 269 551 L319 551 C344 551 356 568 345 589 L287 685 C280 698 269 704 253 704 L153 704 C137 704 124 698 113 685 L26 589 C9 568 14 551 39 551 L39 551 Z M53 0 L131 0 C151 0 164 11 168 31 L236 469 C240 489 231 500 211 500 L133 500 C113 500 100 489 96 469 L28 31 C24 11 33 0 53 0 L53 0 Z " />
<glyph glyph-name="idieresis" unicode="&#xef;" horiz-adv-x="264" d="M77 554 C123 554 157 585 165 631 C172 676 146 706 101 706 C55 706 20 676 12 631 C5 585 31 554 77 554 L77 554 Z M284 554 C329 554 364 585 371 631 C379 676 353 706 308 706 C262 706 226 676 219 631 C212 585 238 554 284 554 L284 554 Z M53 0 L131 0 C151 0 164 11 168 31 L236 469 C240 489 231 500 211 500 L133 500 C113 500 100 489 96 469 L28 31 C24 11 33 0 53 0 L53 0 Z " />
<glyph glyph-name="eth" unicode="&#xf0;" horiz-adv-x="526" d="M473 654 L400 634 C391 645 382 656 372 667 C362 678 351 682 336 682 L275 682 C248 682 241 668 256 648 C268 634 280 619 290 603 L241 589 C223 585 212 573 209 555 L206 536 C203 514 215 504 236 509 L325 534 C337 501 346 466 350 432 L342 432 C325 456 289 472 242 472 C145 472 64 397 45 285 L30 190 C11 68 87 -12 219 -12 C351 -12 450 68 469 190 L484 278 C499 376 483 480 441 566 L468 574 C487 578 498 590 500 609 L504 627 C507 649 495 659 473 654 L473 654 Z M342 269 L330 191 C323 146 287 117 239 117 C191 117 164 146 171 191 L183 269 C191 314 227 343 275 343 C323 343 350 314 342 269 L342 269 Z " />
<glyph glyph-name="ntilde" unicode="&#xf1;" horiz-adv-x="550" d="M409 555 C475 555 517 597 536 678 C542 699 534 711 519 711 L466 711 C446 711 440 705 434 693 C427 677 413 668 395 668 C356 668 332 714 271 714 C202 714 160 669 141 582 C138 566 146 558 161 558 L214 558 C234 558 240 564 246 576 C253 591 267 601 284 601 C321 601 349 555 409 555 L409 555 Z M386 512 C321 512 265 478 239 430 L231 430 L236 469 C240 489 231 500 211 500 L133 500 C113 500 100 489 96 469 L28 31 C24 11 33 0 53 0 L131 0 C151 0 164 11 168 31 L212 312 C218 350 254 381 302 381 C347 381 372 353 365 311 L321 31 C317 11 326 0 346 0 L424 0 C444 0 457 11 461 31 L514 365 C527 453 475 512 386 512 L386 512 Z " />
<glyph glyph-name="ograve" unicode="&#xf2;" horiz-adv-x="526" d="M293 551 L339 551 C363 551 375 567 367 587 L331 681 C326 697 315 704 298 704 L211 704 C185 704 174 686 188 666 L258 568 C266 556 277 551 293 551 L293 551 Z M222 -12 C354 -12 453 68 472 190 L492 310 C511 432 436 512 304 512 C172 512 72 432 53 310 L33 190 C14 68 90 -12 222 -12 L222 -12 Z M242 117 C194 117 167 146 174 191 L193 309 C200 354 237 383 285 383 C332 383 359 354 352 309 L333 191 C326 146 290 117 242 117 L242 117 Z " />
<glyph glyph-name="oacute" unicode="&#xf3;" horiz-adv-x="526" d="M282 551 L328 551 C344 551 356 556 369 568 L469 666 C491 686 484 704 458 704 L372 704 C355 704 342 697 332 681 L265 587 C251 567 258 551 282 551 L282 551 Z M222 -12 C354 -12 453 68 472 190 L492 310 C511 432 436 512 304 512 C172 512 72 432 53 310 L33 190 C14 68 90 -12 222 -12 L222 -12 Z M242 117 C194 117 167 146 174 191 L193 309 C200 354 237 383 285 383 C332 383 359 354 352 309 L333 191 C326 146 290 117 242 117 L242 117 Z " />
<glyph glyph-name="ocircumflex" unicode="&#xf4;" horiz-adv-x="526" d="M170 551 L220 551 C236 551 249 556 262 569 L317 621 L325 621 L365 569 C373 556 384 551 400 551 L450 551 C475 551 487 568 476 589 L418 685 C411 698 400 704 384 704 L284 704 C268 704 255 698 244 685 L157 589 C140 568 145 551 170 551 L170 551 Z M222 -12 C354 -12 453 68 472 190 L492 310 C511 432 436 512 304 512 C172 512 72 432 53 310 L33 190 C14 68 90 -12 222 -12 L222 -12 Z M242 117 C194 117 167 146 174 191 L193 309 C200 354 237 383 285 383 C332 383 359 354 352 309 L333 191 C326 146 290 117 242 117 L242 117 Z " />
<glyph glyph-name="otilde" unicode="&#xf5;" horiz-adv-x="526" d="M393 555 C459 555 501 597 520 678 C526 699 518 711 503 711 L450 711 C430 711 424 705 418 693 C411 677 397 668 379 668 C340 668 316 714 255 714 C186 714 144 669 125 582 C122 566 130 558 145 558 L198 558 C218 558 224 564 230 576 C237 591 251 601 268 601 C305 601 333 555 393 555 L393 555 Z M222 -12 C354 -12 453 68 472 190 L492 310 C511 432 436 512 304 512 C172 512 72 432 53 310 L33 190 C14 68 90 -12 222 -12 L222 -12 Z M242 117 C194 117 167 146 174 191 L193 309 C200 354 237 383 285 383 C332 383 359 354 352 309 L333 191 C326 146 290 117 242 117 L242 117 Z " />
<glyph glyph-name="odieresis" unicode="&#xf6;" horiz-adv-x="526" d="M208 554 C254 554 288 585 296 631 C303 676 277 706 232 706 C186 706 151 676 143 631 C136 585 162 554 208 554 L208 554 Z M415 554 C460 554 495 585 502 631 C510 676 484 706 439 706 C393 706 357 676 350 631 C343 585 369 554 415 554 L415 554 Z M222 -12 C354 -12 453 68 472 190 L492 310 C511 432 436 512 304 512 C172 512 72 432 53 310 L33 190 C14 68 90 -12 222 -12 L222 -12 Z M242 117 C194 117 167 146 174 191 L193 309 C200 354 237 383 285 383 C332 383 359 354 352 309 L333 191 C326 146 290 117 242 117 L242 117 Z " />
<glyph glyph-name="divide" unicode="&#xf7;" horiz-adv-x="551" d="M301 406 C344 406 378 435 386 479 C393 523 367 552 324 552 C279 552 246 523 239 479 C232 435 256 406 301 406 L301 406 Z M92 245 L457 245 C477 245 490 256 493 276 L500 320 C503 340 494 351 474 351 L109 351 C89 351 76 340 73 320 L66 276 C63 256 72 245 92 245 L92 245 Z M244 44 C287 44 321 74 328 118 C335 162 310 191 267 191 C222 191 188 162 182 118 C175 74 199 44 244 44 L244 44 Z " />
<glyph glyph-name="oslash" unicode="&#xf8;" horiz-adv-x="526" d="M492 495 C508 515 501 530 481 530 L459 530 C444 530 433 525 423 511 L407 491 C378 505 344 512 304 512 C172 512 72 432 53 310 L33 190 C24 131 37 82 67 47 L34 5 C18 -15 25 -30 45 -30 L67 -30 C82 -30 93 -24 103 -11 L119 9 C147 -5 182 -12 222 -12 C354 -12 453 68 472 190 L492 310 C501 369 488 418 458 453 L492 495 Z M174 191 L193 309 C200 354 237 383 285 383 C301 383 314 380 325 374 L173 172 C173 178 173 184 174 191 L174 191 Z M352 309 L333 191 C326 146 290 117 242 117 C226 117 212 120 201 127 L353 328 C353 322 353 316 352 309 L352 309 Z " />
<glyph glyph-name="ugrave" unicode="&#xf9;" horiz-adv-x="543" d="M299 551 L345 551 C369 551 381 567 373 587 L337 681 C332 697 321 704 304 704 L217 704 C191 704 180 686 194 666 L264 568 C272 556 283 551 299 551 L299 551 Z M490 500 L412 500 C392 500 379 489 376 469 L331 186 C325 148 291 119 245 119 C203 119 180 146 186 187 L231 469 C234 489 225 500 205 500 L127 500 C107 500 94 489 91 469 L38 134 C24 46 75 -12 162 -12 C226 -12 279 22 304 70 L312 70 L307 31 C304 11 312 0 332 0 L410 0 C430 0 444 11 447 31 L516 469 C519 489 510 500 490 500 L490 500 Z " />
<glyph glyph-name="uacute" unicode="&#xfa;" horiz-adv-x="543" d="M287 551 L333 551 C349 551 361 556 374 568 L474 666 C496 686 489 704 463 704 L377 704 C360 704 347 697 337 681 L270 587 C256 567 263 551 287 551 L287 551 Z M490 500 L412 500 C392 500 379 489 376 469 L331 186 C325 148 291 119 245 119 C203 119 180 146 186 187 L231 469 C234 489 225 500 205 500 L127 500 C107 500 94 489 91 469 L38 134 C24 46 75 -12 162 -12 C226 -12 279 22 304 70 L312 70 L307 31 C304 11 312 0 332 0 L410 0 C430 0 444 11 447 31 L516 469 C519 489 510 500 490 500 L490 500 Z " />
<glyph glyph-name="ucircumflex" unicode="&#xfb;" horiz-adv-x="543" d="M176 551 L226 551 C242 551 255 556 268 569 L323 621 L331 621 L371 569 C379 556 390 551 406 551 L456 551 C481 551 493 568 482 589 L424 685 C417 698 406 704 390 704 L290 704 C274 704 261 698 250 685 L163 589 C146 568 151 551 176 551 L176 551 Z M490 500 L412 500 C392 500 379 489 376 469 L331 186 C325 148 291 119 245 119 C203 119 180 146 186 187 L231 469 C234 489 225 500 205 500 L127 500 C107 500 94 489 91 469 L38 134 C24 46 75 -12 162 -12 C226 -12 279 22 304 70 L312 70 L307 31 C304 11 312 0 332 0 L410 0 C430 0 444 11 447 31 L516 469 C519 489 510 500 490 500 L490 500 Z " />
<glyph glyph-name="udieresis" unicode="&#xfc;" horiz-adv-x="543" d="M214 554 C260 554 294 585 302 631 C309 676 283 706 238 706 C192 706 157 676 149 631 C142 585 168 554 214 554 L214 554 Z M421 554 C466 554 501 585 508 631 C516 676 490 706 445 706 C399 706 363 676 356 631 C349 585 375 554 421 554 L421 554 Z M490 500 L412 500 C392 500 379 489 376 469 L331 186 C325 148 291 119 245 119 C203 119 180 146 186 187 L231 469 C234 489 225 500 205 500 L127 500 C107 500 94 489 91 469 L38 134 C24 46 75 -12 162 -12 C226 -12 279 22 304 70 L312 70 L307 31 C304 11 312 0 332 0 L410 0 C430 0 444 11 447 31 L516 469 C519 489 510 500 490 500 L490 500 Z " />
<glyph glyph-name="yacute" unicode="&#xfd;" horiz-adv-x="528" d="M283 551 L329 551 C345 551 357 556 370 568 L470 666 C492 686 485 704 459 704 L373 704 C356 704 343 697 333 681 L266 587 C252 567 259 551 283 551 L283 551 Z M38 -180 L106 -180 C186 -180 242 -144 276 -71 L533 465 C543 486 535 500 515 500 L429 500 C411 500 397 491 391 472 L260 157 L245 157 L213 472 C213 491 203 500 185 500 L93 500 C74 500 60 486 63 465 L132 36 C134 21 143 15 158 15 L174 15 L151 -28 C139 -53 118 -64 90 -64 L56 -64 C36 -64 23 -75 20 -95 L11 -149 C8 -169 18 -180 38 -180 L38 -180 Z " />
<glyph glyph-name="thorn" unicode="&#xfe;" horiz-adv-x="547" d="M384 512 C319 512 265 478 239 430 L231 430 L268 669 C272 689 262 700 242 700 L164 700 C144 700 132 689 128 669 L-1 -149 C-5 -169 5 -180 25 -180 L103 -180 C123 -180 135 -169 139 -149 L173 70 L181 70 C193 22 237 -12 302 -12 C396 -12 470 53 485 151 L517 349 C532 447 478 512 384 512 L384 512 Z M352 193 C345 148 310 119 262 119 C214 119 187 151 193 192 L211 308 C217 349 255 381 303 381 C351 381 377 352 370 307 L352 193 Z " />
<glyph glyph-name="ydieresis" unicode="&#xff;" horiz-adv-x="528" d="M209 554 C255 554 289 585 297 631 C304 676 278 706 233 706 C187 706 152 676 144 631 C137 585 163 554 209 554 L209 554 Z M416 554 C461 554 496 585 503 631 C511 676 485 706 440 706 C394 706 358 676 351 631 C344 585 370 554 416 554 L416 554 Z M38 -180 L106 -180 C186 -180 242 -144 276 -71 L533 465 C543 486 535 500 515 500 L429 500 C411 500 397 491 391 472 L260 157 L245 157 L213 472 C213 491 203 500 185 500 L93 500 C74 500 60 486 63 465 L132 36 C134 21 143 15 158 15 L174 15 L151 -28 C139 -53 118 -64 90 -64 L56 -64 C36 -64 23 -75 20 -95 L11 -149 C8 -169 18 -180 38 -180 L38 -180 Z " />
<glyph glyph-name="Amacron" unicode="&#x100;" horiz-adv-x="649" d="M283 739 L520 739 C540 739 553 750 556 770 L564 817 C567 837 557 848 537 848 L301 848 C281 848 268 837 265 817 L258 770 C255 750 263 739 283 739 L283 739 Z M582 39 L498 640 C496 661 486 670 465 670 L318 670 C297 670 283 661 274 640 L0 39 C-10 14 -2 0 23 0 L114 0 C132 0 145 10 152 28 L193 127 L411 127 L422 28 C423 10 432 0 450 0 L546 0 C572 0 584 14 582 39 L582 39 Z M249 259 L359 522 L369 522 L397 259 L249 259 Z " />
<glyph glyph-name="amacron" unicode="&#x101;" horiz-adv-x="547" d="M206 569 L443 569 C463 569 476 580 479 600 L487 647 C490 667 480 678 460 678 L224 678 C204 678 191 667 188 647 L181 600 C178 580 186 569 206 569 L206 569 Z M494 500 L416 500 C396 500 383 489 380 469 L374 430 L366 430 C354 478 310 512 245 512 C152 512 77 447 62 349 L31 151 C15 53 70 -12 163 -12 C228 -12 283 22 309 70 L317 70 L311 31 C308 11 316 0 336 0 L414 0 C434 0 448 11 451 31 L520 469 C523 489 514 500 494 500 L494 500 Z M244 119 C197 119 170 148 177 193 L195 307 C202 352 238 381 285 381 C333 381 361 349 354 308 L336 192 C330 151 292 119 244 119 L244 119 Z " />
<glyph glyph-name="Abreve" unicode="&#x102;" horiz-adv-x="649" d="M399 713 C485 713 552 758 576 839 C583 860 572 873 552 873 L498 873 C484 873 475 865 471 853 C463 828 443 813 414 813 C385 813 369 826 369 853 C367 865 362 873 348 873 L294 873 C274 873 259 861 258 840 C257 760 310 713 399 713 L399 713 Z M582 39 L498 640 C496 661 486 670 465 670 L318 670 C297 670 283 661 274 640 L0 39 C-10 14 -2 0 23 0 L114 0 C132 0 145 10 152 28 L193 127 L411 127 L422 28 C423 10 432 0 450 0 L546 0 C572 0 584 14 582 39 L582 39 Z M249 259 L359 522 L369 522 L397 259 L249 259 Z " />
<glyph glyph-name="abreve" unicode="&#x103;" horiz-adv-x="547" d="M321 543 C407 543 474 588 498 669 C505 690 494 703 474 703 L420 703 C406 703 397 695 393 683 C385 658 365 643 336 643 C307 643 291 656 291 683 C289 695 284 703 270 703 L216 703 C196 703 181 691 180 670 C179 590 232 543 321 543 L321 543 Z M494 500 L416 500 C396 500 383 489 380 469 L374 430 L366 430 C354 478 310 512 245 512 C152 512 77 447 62 349 L31 151 C15 53 70 -12 163 -12 C228 -12 283 22 309 70 L317 70 L311 31 C308 11 316 0 336 0 L414 0 C434 0 448 11 451 31 L520 469 C523 489 514 500 494 500 L494 500 Z M244 119 C197 119 170 148 177 193 L195 307 C202 352 238 381 285 381 C333 381 361 349 354 308 L336 192 C330 151 292 119 244 119 L244 119 Z " />
<glyph glyph-name="Aogonek" unicode="&#x104;" horiz-adv-x="649" d="M543 -2 L548 0 C573 1 584 15 582 39 L498 640 C496 661 486 670 465 670 L318 670 C297 670 283 661 274 640 L0 39 C-10 14 -2 0 23 0 L114 0 C132 0 145 10 152 28 L193 127 L411 127 L422 28 C423 16 427 7 435 3 L435 1 C388 -18 351 -62 344 -111 C333 -174 377 -216 453 -216 C478 -216 503 -213 518 -207 C530 -203 536 -194 537 -181 L545 -135 C548 -117 541 -112 527 -116 C521 -117 515 -118 510 -118 C486 -118 472 -102 476 -78 C481 -47 507 -17 543 -2 L543 -2 Z M249 259 L359 522 L369 522 L397 259 L249 259 Z " />
<glyph glyph-name="aogonek" unicode="&#x105;" horiz-adv-x="547" d="M494 500 L416 500 C396 500 383 489 380 469 L374 430 L366 430 C354 478 310 512 245 512 C152 512 77 447 62 349 L31 151 C15 53 70 -12 163 -12 C228 -12 283 22 309 70 L317 70 L311 31 C309 16 313 5 324 2 L324 -1 C277 -20 240 -64 233 -113 C222 -176 266 -218 342 -218 C367 -218 392 -215 407 -209 C419 -205 425 -196 426 -183 L434 -137 C437 -119 430 -114 416 -118 C410 -119 404 -120 399 -120 C375 -120 361 -104 365 -80 C370 -49 396 -19 432 -4 C441 -1 446 5 448 13 L450 25 C450 27 451 29 451 31 L520 469 C523 489 514 500 494 500 L494 500 Z M244 119 C197 119 170 148 177 193 L195 307 C202 352 238 381 285 381 C333 381 361 349 354 308 L336 192 C330 151 292 119 244 119 L244 119 Z " />
<glyph glyph-name="Cacute" unicode="&#x106;" horiz-adv-x="636" d="M365 721 L411 721 C427 721 439 726 452 738 L552 836 C574 856 567 874 541 874 L455 874 C438 874 425 867 415 851 L348 757 C334 737 341 721 365 721 L365 721 Z M279 -12 C434 -12 554 67 579 224 C582 246 574 258 554 258 L468 258 C448 258 438 248 431 228 C416 163 371 124 300 124 C229 124 189 168 199 235 L231 435 C242 502 295 546 367 546 C436 546 470 508 465 442 C466 422 473 412 492 412 L579 412 C599 412 611 424 614 444 C638 600 546 682 388 682 C227 682 107 585 84 438 L51 232 C28 85 118 -12 279 -12 L279 -12 Z " />
<glyph glyph-name="cacute" unicode="&#x107;" horiz-adv-x="512" d="M279 551 L325 551 C341 551 353 556 366 568 L466 666 C488 686 481 704 455 704 L369 704 C352 704 339 697 329 681 L262 587 C248 567 255 551 279 551 L279 551 Z M218 -12 C340 -12 443 51 461 168 C464 189 456 201 436 201 L357 201 C338 201 328 191 323 179 C313 139 280 117 238 117 C192 117 167 146 173 189 L193 311 C200 354 235 383 281 383 C321 383 348 362 346 321 C347 309 355 299 373 299 L453 299 C473 299 484 311 487 331 C505 447 424 512 300 512 C170 512 72 433 53 312 L33 188 C14 67 88 -12 218 -12 L218 -12 Z " />
<glyph glyph-name="Ccircumflex" unicode="&#x108;" horiz-adv-x="636" d="M254 721 L304 721 C320 721 333 726 346 739 L401 791 L409 791 L449 739 C457 726 468 721 484 721 L534 721 C559 721 571 738 560 759 L502 855 C495 868 484 874 468 874 L368 874 C352 874 339 868 328 855 L241 759 C224 738 229 721 254 721 L254 721 Z M279 -12 C434 -12 554 67 579 224 C582 246 574 258 554 258 L468 258 C448 258 438 248 431 228 C416 163 371 124 300 124 C229 124 189 168 199 235 L231 435 C242 502 295 546 367 546 C436 546 470 508 465 442 C466 422 473 412 492 412 L579 412 C599 412 611 424 614 444 C638 600 546 682 388 682 C227 682 107 585 84 438 L51 232 C28 85 118 -12 279 -12 L279 -12 Z " />
<glyph glyph-name="ccircumflex" unicode="&#x109;" horiz-adv-x="512" d="M167 551 L217 551 C233 551 246 556 259 569 L314 621 L322 621 L362 569 C370 556 381 551 397 551 L447 551 C472 551 484 568 473 589 L415 685 C408 698 397 704 381 704 L281 704 C265 704 252 698 241 685 L154 589 C137 568 142 551 167 551 L167 551 Z M218 -12 C340 -12 443 51 461 168 C464 189 456 201 436 201 L357 201 C338 201 328 191 323 179 C313 139 280 117 238 117 C192 117 167 146 173 189 L193 311 C200 354 235 383 281 383 C321 383 348 362 346 321 C347 309 355 299 373 299 L453 299 C473 299 484 311 487 331 C505 447 424 512 300 512 C170 512 72 433 53 312 L33 188 C14 67 88 -12 218 -12 L218 -12 Z " />
<glyph glyph-name="Cdotaccent" unicode="&#x10a;" horiz-adv-x="636" d="M395 724 C443 724 480 756 488 804 C495 852 469 884 420 884 C372 884 335 852 328 804 C320 756 347 724 395 724 L395 724 Z M279 -12 C434 -12 554 67 579 224 C582 246 574 258 554 258 L468 258 C448 258 438 248 431 228 C416 163 371 124 300 124 C229 124 189 168 199 235 L231 435 C242 502 295 546 367 546 C436 546 470 508 465 442 C466 422 473 412 492 412 L579 412 C599 412 611 424 614 444 C638 600 546 682 388 682 C227 682 107 585 84 438 L51 232 C28 85 118 -12 279 -12 L279 -12 Z " />
<glyph glyph-name="cdotaccent" unicode="&#x10b;" horiz-adv-x="512" d="M309 554 C357 554 394 586 402 634 C409 682 383 714 334 714 C286 714 249 682 242 634 C234 586 261 554 309 554 L309 554 Z M218 -12 C340 -12 443 51 461 168 C464 189 456 201 436 201 L357 201 C338 201 328 191 323 179 C313 139 280 117 238 117 C192 117 167 146 173 189 L193 311 C200 354 235 383 281 383 C321 383 348 362 346 321 C347 309 355 299 373 299 L453 299 C473 299 484 311 487 331 C505 447 424 512 300 512 C170 512 72 433 53 312 L33 188 C14 67 88 -12 218 -12 L218 -12 Z " />
<glyph glyph-name="Ccaron" unicode="&#x10c;" horiz-adv-x="636" d="M344 721 L444 721 C460 721 473 727 485 740 L571 836 C590 856 583 874 558 874 L508 874 C492 874 479 869 468 856 L411 804 L404 804 L364 856 C355 869 344 874 328 874 L278 874 C253 874 242 856 253 836 L310 740 C318 727 328 721 344 721 L344 721 Z M279 -12 C434 -12 554 67 579 224 C582 246 574 258 554 258 L468 258 C448 258 438 248 431 228 C416 163 371 124 300 124 C229 124 189 168 199 235 L231 435 C242 502 295 546 367 546 C436 546 470 508 465 442 C466 422 473 412 492 412 L579 412 C599 412 611 424 614 444 C638 600 546 682 388 682 C227 682 107 585 84 438 L51 232 C28 85 118 -12 279 -12 L279 -12 Z " />
<glyph glyph-name="ccaron" unicode="&#x10d;" horiz-adv-x="512" d="M257 551 L357 551 C373 551 386 557 398 570 L484 666 C503 686 496 704 471 704 L421 704 C405 704 392 699 381 686 L324 634 L317 634 L277 686 C268 699 257 704 241 704 L191 704 C166 704 155 686 166 666 L223 570 C231 557 241 551 257 551 L257 551 Z M218 -12 C340 -12 443 51 461 168 C464 189 456 201 436 201 L357 201 C338 201 328 191 323 179 C313 139 280 117 238 117 C192 117 167 146 173 189 L193 311 C200 354 235 383 281 383 C321 383 348 362 346 321 C347 309 355 299 373 299 L453 299 C473 299 484 311 487 331 C505 447 424 512 300 512 C170 512 72 433 53 312 L33 188 C14 67 88 -12 218 -12 L218 -12 Z " />
<glyph glyph-name="Dcaron" unicode="&#x10e;" horiz-adv-x="651" d="M317 740 C325 727 335 721 351 721 L451 721 C467 721 480 727 492 740 L578 836 C597 856 590 874 565 874 L515 874 C499 874 486 869 475 856 L418 804 L411 804 L371 856 C362 869 351 874 335 874 L285 874 C260 874 249 856 260 836 L317 740 Z M398 670 L178 670 C156 670 141 658 137 635 L43 35 C39 12 49 0 71 0 L291 0 C451 0 573 98 596 248 L624 422 C648 572 558 670 398 670 L398 670 Z M476 418 L450 252 C438 180 385 136 309 136 L206 136 L269 534 L372 534 C447 534 487 490 476 418 L476 418 Z " />
<glyph glyph-name="dcaron" unicode="&#x10f;" horiz-adv-x="659" d="M525 700 L447 700 C427 700 415 689 412 669 L374 430 L366 430 C354 478 310 512 245 512 C152 512 77 447 62 349 L31 151 C15 53 70 -12 163 -12 C228 -12 283 22 309 70 L317 70 L311 31 C308 11 316 0 336 0 L414 0 C434 0 448 11 451 31 L552 669 C555 689 545 700 525 700 L525 700 Z M708 700 L645 700 C625 700 613 689 610 669 L591 548 C588 528 597 517 617 517 L658 517 C677 517 689 527 696 545 L731 667 C739 688 729 700 708 700 L708 700 Z M336 192 C330 151 292 119 244 119 C197 119 170 148 177 193 L195 307 C202 352 238 381 285 381 C333 381 361 349 354 308 L355 308 L336 192 Z " />
<glyph glyph-name="Dcroat" unicode="&#x110;" horiz-adv-x="651" d="M398 670 L178 670 C156 670 141 658 137 635 L99 394 L68 394 C48 394 36 383 32 363 L23 307 C19 287 29 276 49 276 L81 276 L43 35 C39 12 49 0 71 0 L291 0 C451 0 573 98 596 248 L624 422 C648 572 558 670 398 670 L398 670 Z M476 418 L450 252 C438 180 385 136 309 136 L206 136 L228 276 L301 276 C321 276 334 287 337 307 L346 363 C350 383 340 394 320 394 L247 394 L269 534 L372 534 C447 534 487 490 476 418 L476 418 Z " />
<glyph glyph-name="dcroat" unicode="&#x111;" horiz-adv-x="547" d="M570 626 L545 626 L552 669 C555 689 545 700 525 700 L447 700 C427 700 415 689 412 669 L405 626 L339 626 C319 626 306 615 303 595 L300 574 C296 554 306 543 326 543 L392 543 L374 430 L366 430 C354 478 310 512 245 512 C152 512 77 447 62 349 L31 151 C15 53 70 -12 163 -12 C228 -12 283 22 309 70 L317 70 L311 31 C308 11 316 0 336 0 L414 0 C434 0 448 11 451 31 L532 543 L557 543 C577 543 590 554 594 574 L597 595 C600 615 590 626 570 626 L570 626 Z M354 308 L336 192 C330 151 292 119 244 119 C197 119 170 148 177 193 L195 307 C202 352 238 381 285 381 C333 381 361 349 354 308 L354 308 Z " />
<glyph glyph-name="Emacron" unicode="&#x112;" horiz-adv-x="562" d="M251 739 L488 739 C508 739 521 750 524 770 L532 817 C535 837 525 848 505 848 L269 848 C249 848 236 837 233 817 L226 770 C223 750 231 739 251 739 L251 739 Z M542 670 L177 670 C156 670 141 658 137 636 L42 34 C39 12 49 0 70 0 L435 0 C456 0 471 12 475 34 L485 101 C489 123 478 135 456 135 L206 135 L227 271 L439 271 C461 271 475 284 479 306 L489 370 C493 392 482 405 460 405 L249 405 L269 535 L520 535 C542 535 556 547 559 569 L570 636 C573 658 563 670 542 670 L542 670 Z " />
<glyph glyph-name="emacron" unicode="&#x113;" horiz-adv-x="525" d="M195 569 L432 569 C452 569 465 580 468 600 L476 647 C479 667 469 678 449 678 L213 678 C193 678 180 667 177 647 L170 600 C167 580 175 569 195 569 L195 569 Z M304 512 C171 512 72 432 53 310 L33 190 C14 68 90 -12 225 -12 C343 -12 433 41 460 126 C466 146 454 156 436 156 L353 156 C335 156 328 148 319 135 C305 113 278 101 243 101 C192 101 164 131 172 176 L176 204 L444 204 C464 204 477 215 479 235 L491 308 C511 431 436 512 304 512 L304 512 Z M195 325 C202 370 238 399 286 399 C334 399 361 370 354 325 L350 300 L191 300 L195 325 Z " />
<glyph glyph-name="Ebreve" unicode="&#x114;" horiz-adv-x="562" d="M367 713 C453 713 520 758 544 839 C551 860 540 873 520 873 L466 873 C452 873 443 865 439 853 C431 828 411 813 382 813 C353 813 337 826 337 853 C335 865 330 873 316 873 L262 873 C242 873 227 861 226 840 C225 760 278 713 367 713 L367 713 Z M542 670 L177 670 C156 670 141 658 137 636 L42 34 C39 12 49 0 70 0 L435 0 C456 0 471 12 475 34 L485 101 C489 123 478 135 456 135 L206 135 L227 271 L439 271 C461 271 475 284 479 306 L489 370 C493 392 482 405 460 405 L249 405 L269 535 L520 535 C542 535 556 547 559 569 L570 636 C573 658 563 670 542 670 L542 670 Z " />
<glyph glyph-name="ebreve" unicode="&#x115;" horiz-adv-x="525" d="M310 543 C396 543 463 588 487 669 C494 690 483 703 463 703 L409 703 C395 703 386 695 382 683 C374 658 354 643 325 643 C296 643 280 656 280 683 C278 695 273 703 259 703 L205 703 C185 703 170 691 169 670 C168 590 221 543 310 543 L310 543 Z M304 512 C171 512 72 432 53 310 L33 190 C14 68 90 -12 225 -12 C343 -12 433 41 460 126 C466 146 454 156 436 156 L353 156 C335 156 328 148 319 135 C305 113 278 101 243 101 C192 101 164 131 172 176 L176 204 L444 204 C464 204 477 215 479 235 L491 308 C511 431 436 512 304 512 L304 512 Z M195 325 C202 370 238 399 286 399 C334 399 361 370 354 325 L350 300 L191 300 L195 325 Z " />
<glyph glyph-name="Edotaccent" unicode="&#x116;" horiz-adv-x="562" d="M368 724 C416 724 453 756 461 804 C468 852 442 884 393 884 C345 884 308 852 301 804 C293 756 320 724 368 724 L368 724 Z M542 670 L177 670 C156 670 141 658 137 636 L42 34 C39 12 49 0 70 0 L435 0 C456 0 471 12 475 34 L485 101 C489 123 478 135 456 135 L206 135 L227 271 L439 271 C461 271 475 284 479 306 L489 370 C493 392 482 405 460 405 L249 405 L269 535 L520 535 C542 535 556 547 559 569 L570 636 C573 658 563 670 542 670 L542 670 Z " />
<glyph glyph-name="edotaccent" unicode="&#x117;" horiz-adv-x="525" d="M311 554 C359 554 396 586 404 634 C411 682 385 714 336 714 C288 714 251 682 244 634 C236 586 263 554 311 554 L311 554 Z M304 512 C171 512 72 432 53 310 L33 190 C14 68 90 -12 225 -12 C343 -12 433 41 460 126 C466 146 454 156 436 156 L353 156 C335 156 328 148 319 135 C305 113 278 101 243 101 C192 101 164 131 172 176 L176 204 L444 204 C464 204 477 215 479 235 L491 308 C511 431 436 512 304 512 L304 512 Z M195 325 C202 370 238 399 286 399 C334 399 361 370 354 325 L350 300 L191 300 L195 325 Z " />
<glyph glyph-name="Eogonek" unicode="&#x118;" horiz-adv-x="562" d="M542 670 L177 670 C156 670 141 658 137 636 L42 34 C39 12 49 0 70 0 L348 0 L348 -1 C301 -20 264 -64 257 -113 C246 -176 290 -218 366 -218 C391 -218 416 -215 431 -209 C443 -205 449 -196 450 -183 L458 -137 C461 -119 454 -114 440 -118 C434 -119 428 -120 423 -120 C399 -120 385 -104 389 -80 C394 -49 420 -19 456 -4 C465 -1 470 5 472 13 L475 34 L485 101 C489 123 478 135 456 135 L206 135 L227 271 L439 271 C461 271 475 284 479 306 L489 370 C493 392 482 405 460 405 L249 405 L269 535 L520 535 C542 535 556 547 559 569 L570 636 C573 658 563 670 542 670 L542 670 Z " />
<glyph glyph-name="eogonek" unicode="&#x119;" horiz-adv-x="525" d="M304 512 C171 512 72 432 53 310 L33 190 C16 79 77 3 190 -10 C161 -33 141 -65 136 -100 C125 -163 169 -205 245 -205 C270 -205 295 -202 310 -196 C322 -192 328 -183 329 -170 L337 -124 C340 -106 333 -101 319 -105 C313 -106 307 -107 302 -107 C278 -107 264 -91 268 -67 C272 -41 291 -16 318 0 C389 21 441 65 460 126 C466 146 454 156 436 156 L353 156 C335 156 328 148 319 135 C305 113 278 101 243 101 C192 101 164 131 172 176 L176 204 L444 204 C464 204 477 215 479 235 L491 308 C511 431 436 512 304 512 L304 512 Z M195 325 C202 370 238 399 286 399 C334 399 361 370 354 325 L350 300 L191 300 L195 325 Z " />
<glyph glyph-name="Ecaron" unicode="&#x11a;" horiz-adv-x="562" d="M283 740 C291 727 301 721 317 721 L417 721 C433 721 446 727 458 740 L544 836 C563 856 556 874 531 874 L481 874 C465 874 452 869 441 856 L384 804 L377 804 L337 856 C328 869 317 874 301 874 L251 874 C226 874 215 856 226 836 L283 740 Z M542 670 L177 670 C156 670 141 658 137 636 L42 34 C39 12 49 0 70 0 L435 0 C456 0 471 12 475 34 L485 101 C489 123 478 135 456 135 L206 135 L227 271 L439 271 C461 271 475 284 479 306 L489 370 C493 392 482 405 460 405 L249 405 L269 535 L520 535 C542 535 556 547 559 569 L570 636 C573 658 563 670 542 670 L542 670 Z " />
<glyph glyph-name="ecaron" unicode="&#x11b;" horiz-adv-x="525" d="M226 570 C234 557 244 551 260 551 L360 551 C376 551 389 557 401 570 L487 666 C506 686 499 704 474 704 L424 704 C408 704 395 699 384 686 L327 634 L320 634 L280 686 C271 699 260 704 244 704 L194 704 C169 704 158 686 169 666 L226 570 Z M304 512 C171 512 72 432 53 310 L33 190 C14 68 90 -12 225 -12 C343 -12 433 41 460 126 C466 146 454 156 436 156 L353 156 C335 156 328 148 319 135 C305 113 278 101 243 101 C192 101 164 131 172 176 L176 204 L444 204 C464 204 477 215 479 235 L491 308 C511 431 436 512 304 512 L304 512 Z M195 325 C202 370 238 399 286 399 C334 399 361 370 354 325 L350 300 L191 300 L195 325 Z " />
<glyph glyph-name="Gcircumflex" unicode="&#x11c;" horiz-adv-x="639" d="M254 721 L304 721 C320 721 333 726 346 739 L401 791 L409 791 L449 739 C457 726 468 721 484 721 L534 721 C559 721 571 738 560 759 L502 855 C495 868 484 874 468 874 L368 874 C352 874 339 868 328 855 L241 759 C224 738 229 721 254 721 L254 721 Z M388 682 C227 682 107 585 84 438 L51 232 C28 85 118 -12 279 -12 C438 -12 558 82 580 225 L597 327 C600 349 590 362 567 362 L384 362 C362 362 348 349 344 327 L336 280 C333 258 344 245 366 245 L436 245 L432 220 C423 158 369 117 299 117 C227 117 187 161 198 228 L231 435 C242 502 295 546 367 546 C427 546 465 515 466 460 C470 444 476 434 496 434 L582 434 C602 434 617 446 617 466 C625 603 539 682 388 682 L388 682 Z " />
<glyph glyph-name="gcircumflex" unicode="&#x11d;" horiz-adv-x="544" d="M183 551 L233 551 C249 551 262 556 275 569 L330 621 L338 621 L378 569 C386 556 397 551 413 551 L463 551 C488 551 500 568 489 589 L431 685 C424 698 413 704 397 704 L297 704 C281 704 268 698 257 685 L170 589 C153 568 158 551 183 551 L183 551 Z M494 500 L416 500 C396 500 383 489 380 469 L374 430 L366 430 C354 478 310 512 245 512 C152 512 77 447 62 349 L35 178 C19 80 73 15 167 15 C229 15 286 47 312 94 L320 94 L304 -12 C297 -56 262 -86 214 -86 C179 -86 151 -72 148 -40 C143 -30 137 -23 122 -23 L41 -23 C25 -23 9 -35 10 -56 C10 -142 82 -192 199 -192 C332 -192 427 -121 442 -19 L520 469 C523 489 514 500 494 500 L494 500 Z M248 146 C201 146 174 175 182 220 L195 307 C202 352 238 381 285 381 C333 381 361 349 354 308 L340 219 C334 179 297 146 248 146 L248 146 Z " />
<glyph glyph-name="Gbreve" unicode="&#x11e;" horiz-adv-x="639" d="M394 713 C480 713 547 758 571 839 C578 860 567 873 547 873 L493 873 C479 873 470 865 466 853 C458 828 438 813 409 813 C380 813 364 826 364 853 C362 865 357 873 343 873 L289 873 C269 873 254 861 253 840 C252 760 305 713 394 713 L394 713 Z M388 682 C227 682 107 585 84 438 L51 232 C28 85 118 -12 279 -12 C438 -12 558 82 580 225 L597 327 C600 349 590 362 567 362 L384 362 C362 362 348 349 344 327 L336 280 C333 258 344 245 366 245 L436 245 L432 220 C423 158 369 117 299 117 C227 117 187 161 198 228 L231 435 C242 502 295 546 367 546 C427 546 465 515 466 460 C470 444 476 434 496 434 L582 434 C602 434 617 446 617 466 C625 603 539 682 388 682 L388 682 Z " />
<glyph glyph-name="gbreve" unicode="&#x11f;" horiz-adv-x="544" d="M323 543 C409 543 476 588 500 669 C507 690 496 703 476 703 L422 703 C408 703 399 695 395 683 C387 658 367 643 338 643 C309 643 293 656 293 683 C291 695 286 703 272 703 L218 703 C198 703 183 691 182 670 C181 590 234 543 323 543 L323 543 Z M494 500 L416 500 C396 500 383 489 380 469 L374 430 L366 430 C354 478 310 512 245 512 C152 512 77 447 62 349 L35 178 C19 80 73 15 167 15 C229 15 286 47 312 94 L320 94 L304 -12 C297 -56 262 -86 214 -86 C179 -86 151 -72 148 -40 C143 -30 137 -23 122 -23 L41 -23 C25 -23 9 -35 10 -56 C10 -142 82 -192 199 -192 C332 -192 427 -121 442 -19 L520 469 C523 489 514 500 494 500 L494 500 Z M248 146 C201 146 174 175 182 220 L195 307 C202 352 238 381 285 381 C333 381 361 349 354 308 L340 219 C334 179 297 146 248 146 L248 146 Z " />
<glyph glyph-name="Gdotaccent" unicode="&#x120;" horiz-adv-x="639" d="M395 724 C443 724 480 756 488 804 C495 852 469 884 420 884 C372 884 335 852 328 804 C320 756 347 724 395 724 L395 724 Z M388 682 C227 682 107 585 84 438 L51 232 C28 85 118 -12 279 -12 C438 -12 558 82 580 225 L597 327 C600 349 590 362 567 362 L384 362 C362 362 348 349 344 327 L336 280 C333 258 344 245 366 245 L436 245 L432 220 C423 158 369 117 299 117 C227 117 187 161 198 228 L231 435 C242 502 295 546 367 546 C427 546 465 515 466 460 C470 444 476 434 496 434 L582 434 C602 434 617 446 617 466 C625 603 539 682 388 682 L388 682 Z " />
<glyph glyph-name="gdotaccent" unicode="&#x121;" horiz-adv-x="544" d="M325 554 C373 554 410 586 418 634 C425 682 399 714 350 714 C302 714 265 682 258 634 C250 586 277 554 325 554 L325 554 Z M494 500 L416 500 C396 500 383 489 380 469 L374 430 L366 430 C354 478 310 512 245 512 C152 512 77 447 62 349 L35 178 C19 80 73 15 167 15 C229 15 286 47 312 94 L320 94 L304 -12 C297 -56 262 -86 214 -86 C179 -86 151 -72 148 -40 C143 -30 137 -23 122 -23 L41 -23 C25 -23 9 -35 10 -56 C10 -142 82 -192 199 -192 C332 -192 427 -121 442 -19 L520 469 C523 489 514 500 494 500 L494 500 Z M248 146 C201 146 174 175 182 220 L195 307 C202 352 238 381 285 381 C333 381 361 349 354 308 L340 219 C334 179 297 146 248 146 L248 146 Z " />
<glyph glyph-name="uni0122" unicode="&#x122;" horiz-adv-x="639" d="M388 682 C227 682 107 585 84 438 L51 232 C28 85 118 -12 279 -12 C438 -12 558 82 580 225 L597 327 C600 349 590 362 567 362 L384 362 C362 362 348 349 344 327 L336 280 C333 258 344 245 366 245 L436 245 L432 220 C423 158 369 117 299 117 C227 117 187 161 198 228 L231 435 C242 502 295 546 367 546 C427 546 465 515 466 460 C470 444 476 434 496 434 L582 434 C602 434 617 446 617 466 C625 603 539 682 388 682 L388 682 Z M316 -51 L235 -51 C217 -51 203 -60 196 -78 L150 -200 C142 -221 150 -234 171 -234 L213 -234 C230 -234 242 -227 254 -212 L332 -88 C347 -67 340 -51 316 -51 L316 -51 Z " />
<glyph glyph-name="uni0123" unicode="&#x123;" horiz-adv-x="544" d="M279 551 L359 551 C378 551 391 560 398 578 L445 699 C453 720 445 733 424 733 L381 733 C364 733 351 727 340 711 L263 588 C248 567 255 551 279 551 L279 551 Z M494 500 L416 500 C396 500 383 489 380 469 L374 430 L366 430 C354 478 310 512 245 512 C152 512 77 447 62 349 L35 178 C19 80 73 15 167 15 C229 15 286 47 312 94 L320 94 L304 -12 C297 -56 262 -86 214 -86 C179 -86 151 -72 148 -40 C143 -30 137 -23 122 -23 L41 -23 C25 -23 9 -35 10 -56 C10 -142 82 -192 199 -192 C332 -192 427 -121 442 -19 L520 469 C523 489 514 500 494 500 L494 500 Z M248 146 C201 146 174 175 182 220 L195 307 C202 352 238 381 285 381 C333 381 361 349 354 308 L340 219 C334 179 297 146 248 146 L248 146 Z " />
<glyph glyph-name="Hcircumflex" unicode="&#x124;" horiz-adv-x="656" d="M262 721 L312 721 C328 721 341 726 354 739 L409 791 L417 791 L457 739 C465 726 476 721 492 721 L542 721 C567 721 579 738 568 759 L510 855 C503 868 492 874 476 874 L376 874 C360 874 347 868 336 855 L249 759 C232 738 237 721 262 721 L262 721 Z M612 670 L533 670 C511 670 496 658 492 635 L456 406 L249 406 L285 635 C288 658 278 670 256 670 L178 670 C156 670 141 658 137 635 L43 35 C39 12 49 0 71 0 L149 0 C171 0 186 12 190 35 L227 270 L435 270 L398 35 C394 12 404 0 426 0 L505 0 C527 0 542 12 546 35 L640 635 C644 658 634 670 612 670 L612 670 Z " />
<glyph glyph-name="hcircumflex" unicode="&#x125;" horiz-adv-x="550" d="M67 731 L117 731 C133 731 146 736 159 749 L214 801 L222 801 L262 749 C270 736 281 731 297 731 L347 731 C372 731 384 748 373 769 L315 865 C308 878 297 884 281 884 L181 884 C165 884 152 878 141 865 L54 769 C37 748 42 731 67 731 L67 731 Z M386 512 C321 512 265 478 239 430 L231 430 L268 669 C272 689 262 700 242 700 L164 700 C144 700 132 689 128 669 L28 31 C24 11 33 0 53 0 L131 0 C151 0 164 11 168 31 L212 312 C218 350 254 381 302 381 C347 381 372 353 365 311 L321 31 C317 11 326 0 346 0 L424 0 C444 0 457 11 461 31 L514 365 C527 453 475 512 386 512 L386 512 Z " />
<glyph glyph-name="Hbar" unicode="&#x126;" horiz-adv-x="656" d="M648 584 L632 584 L640 635 C644 658 634 670 612 670 L533 670 C511 670 496 658 492 635 L484 584 L277 584 L285 635 C288 658 278 670 256 670 L178 670 C156 670 141 658 137 635 L129 584 L112 584 C92 584 79 573 76 553 L69 511 C66 491 75 480 95 480 L113 480 L43 35 C39 12 49 0 71 0 L149 0 C171 0 186 12 190 35 L227 270 L435 270 L398 35 C394 12 404 0 426 0 L505 0 C527 0 542 12 546 35 L616 480 L632 480 C652 480 665 491 668 511 L675 553 C678 573 668 584 648 584 L648 584 Z M456 406 L249 406 L260 480 L468 480 L456 406 Z " />
<glyph glyph-name="hbar" unicode="&#x127;" horiz-adv-x="550" d="M386 512 C321 512 265 478 239 430 L231 430 L248 543 L314 543 C334 543 347 554 351 574 L354 595 C357 615 347 626 327 626 L261 626 L268 669 C272 689 262 700 242 700 L164 700 C144 700 132 689 128 669 L121 626 L96 626 C76 626 63 615 60 595 L57 574 C53 554 63 543 83 543 L108 543 L28 31 C24 11 33 0 53 0 L131 0 C151 0 164 11 168 31 L212 312 C218 350 254 381 302 381 C347 381 372 353 365 311 L321 31 C317 11 326 0 346 0 L424 0 C444 0 457 11 461 31 L514 365 C527 453 475 512 386 512 L386 512 Z " />
<glyph glyph-name="Itilde" unicode="&#x128;" horiz-adv-x="300" d="M307 725 C373 725 415 767 434 848 C440 869 432 881 417 881 L364 881 C344 881 338 875 332 863 C325 847 311 838 293 838 C254 838 230 884 169 884 C100 884 58 839 39 752 C36 736 44 728 59 728 L112 728 C132 728 138 734 144 746 C151 761 165 771 182 771 C219 771 247 725 307 725 L307 725 Z M71 0 L149 0 C171 0 186 12 190 35 L285 635 C288 658 278 670 256 670 L178 670 C156 670 141 658 137 635 L43 35 C39 12 49 0 71 0 L71 0 Z " />
<glyph glyph-name="itilde" unicode="&#x129;" horiz-adv-x="264" d="M262 555 C328 555 370 597 389 678 C395 699 387 711 372 711 L319 711 C299 711 293 705 287 693 C280 677 266 668 248 668 C209 668 185 714 124 714 C55 714 13 669 -6 582 C-9 566 -1 558 14 558 L67 558 C87 558 93 564 99 576 C106 591 120 601 137 601 C174 601 202 555 262 555 L262 555 Z M53 0 L131 0 C151 0 164 11 168 31 L236 469 C240 489 231 500 211 500 L133 500 C113 500 100 489 96 469 L28 31 C24 11 33 0 53 0 L53 0 Z " />
<glyph glyph-name="Imacron" unicode="&#x12a;" horiz-adv-x="300" d="M109 739 L346 739 C366 739 379 750 382 770 L390 817 C393 837 383 848 363 848 L127 848 C107 848 94 837 91 817 L84 770 C81 750 89 739 109 739 L109 739 Z M71 0 L149 0 C171 0 186 12 190 35 L285 635 C288 658 278 670 256 670 L178 670 C156 670 141 658 137 635 L43 35 C39 12 49 0 71 0 L71 0 Z " />
<glyph glyph-name="imacron" unicode="&#x12b;" horiz-adv-x="264" d="M64 569 L301 569 C321 569 334 580 337 600 L345 647 C348 667 338 678 318 678 L82 678 C62 678 49 667 46 647 L39 600 C36 580 44 569 64 569 L64 569 Z M53 0 L131 0 C151 0 164 11 168 31 L236 469 C240 489 231 500 211 500 L133 500 C113 500 100 489 96 469 L28 31 C24 11 33 0 53 0 L53 0 Z " />
<glyph glyph-name="Ibreve" unicode="&#x12c;" horiz-adv-x="300" d="M225 713 C311 713 378 758 402 839 C409 860 398 873 378 873 L324 873 C310 873 301 865 297 853 C289 828 269 813 240 813 C211 813 195 826 195 853 C193 865 188 873 174 873 L120 873 C100 873 85 861 84 840 C83 760 136 713 225 713 L225 713 Z M71 0 L149 0 C171 0 186 12 190 35 L285 635 C288 658 278 670 256 670 L178 670 C156 670 141 658 137 635 L43 35 C39 12 49 0 71 0 L71 0 Z " />
<glyph glyph-name="ibreve" unicode="&#x12d;" horiz-adv-x="264" d="M180 543 C266 543 333 588 357 669 C364 690 353 703 333 703 L279 703 C265 703 256 695 252 683 C244 658 224 643 195 643 C166 643 150 656 150 683 C148 695 143 703 129 703 L75 703 C55 703 40 691 39 670 C38 590 91 543 180 543 L180 543 Z M53 0 L131 0 C151 0 164 11 168 31 L236 469 C240 489 231 500 211 500 L133 500 C113 500 100 489 96 469 L28 31 C24 11 33 0 53 0 L53 0 Z " />
<glyph glyph-name="Iogonek" unicode="&#x12e;" horiz-adv-x="300" d="M256 670 L178 670 C156 670 141 658 137 635 L43 35 C40 15 47 3 63 1 L63 -1 C16 -20 -21 -64 -28 -113 C-39 -176 5 -218 81 -218 C106 -218 131 -215 146 -209 C158 -205 164 -196 165 -183 L173 -137 C176 -119 169 -114 155 -118 C149 -119 143 -120 138 -120 C114 -120 100 -104 104 -80 C109 -49 135 -19 171 -4 C180 -1 185 5 187 13 L191 44 L285 635 C288 658 278 670 256 670 L256 670 Z " />
<glyph glyph-name="iogonek" unicode="&#x12f;" horiz-adv-x="264" d="M206 714 C158 714 121 682 114 634 C106 586 133 554 181 554 C229 554 266 586 274 634 C281 682 255 714 206 714 L206 714 Z M211 500 L133 500 C113 500 100 489 96 469 L28 31 C25 15 30 5 41 2 L41 -1 C-6 -20 -43 -64 -50 -113 C-61 -176 -17 -218 59 -218 C84 -218 109 -215 124 -209 C136 -205 142 -196 143 -183 L151 -137 C154 -119 147 -114 133 -118 C127 -119 121 -120 116 -120 C92 -120 78 -104 82 -80 C87 -49 113 -19 149 -4 C158 -1 163 5 165 13 L167 27 L168 31 L236 469 C240 489 231 500 211 500 L211 500 Z " />
<glyph glyph-name="Idotaccent" unicode="&#x130;" horiz-adv-x="300" d="M226 724 C274 724 311 756 319 804 C326 852 300 884 251 884 C203 884 166 852 159 804 C151 756 178 724 226 724 L226 724 Z M71 0 L149 0 C171 0 186 12 190 35 L285 635 C288 658 278 670 256 670 L178 670 C156 670 141 658 137 635 L43 35 C39 12 49 0 71 0 L71 0 Z " />
<glyph glyph-name="dotlessi" unicode="&#x131;" horiz-adv-x="264" d="M53 0 L131 0 C151 0 164 11 168 31 L236 469 C240 489 231 500 211 500 L133 500 C113 500 100 489 96 469 L28 31 C24 11 33 0 53 0 L53 0 Z " />
<glyph glyph-name="IJ" unicode="&#x132;" horiz-adv-x="876" d="M71 0 L149 0 C171 0 186 12 190 35 L285 635 C288 658 278 670 256 670 L178 670 C156 670 141 658 137 635 L43 35 C39 12 49 0 71 0 L71 0 Z M535 -12 C675 -12 781 72 800 199 L869 635 C873 658 863 670 841 670 L763 670 C740 670 725 658 722 635 L654 202 C646 155 607 124 557 124 C505 124 476 155 484 202 L485 213 C488 235 478 248 456 248 L378 248 C356 248 341 235 338 213 L335 199 C316 72 395 -12 535 -12 L535 -12 Z " />
<glyph glyph-name="ij" unicode="&#x133;" horiz-adv-x="530" d="M182 564 C233 564 270 596 278 645 C286 693 258 725 208 725 C157 725 119 693 111 644 C103 597 131 564 182 564 L182 564 Z M449 564 C499 564 536 596 544 645 C552 693 524 725 474 725 C423 725 385 693 377 644 C369 597 397 564 449 564 L449 564 Z M53 0 L131 0 C151 0 165 11 168 31 L237 469 C240 489 231 500 211 500 L133 500 C113 500 100 489 97 469 L28 31 C25 11 33 0 53 0 L53 0 Z M188 -180 L249 -180 C341 -180 410 -124 423 -38 L503 469 C507 489 498 500 478 500 L400 500 C380 500 367 489 363 469 L288 -13 C282 -45 260 -64 229 -64 L206 -64 C186 -64 173 -75 170 -95 L161 -149 C158 -169 168 -180 188 -180 L188 -180 Z " />
<glyph glyph-name="Jcircumflex" unicode="&#x134;" horiz-adv-x="575" d="M366 721 L416 721 C432 721 445 726 458 739 L513 791 L521 791 L561 739 C569 726 580 721 596 721 L646 721 C671 721 683 738 672 759 L614 855 C607 868 596 874 580 874 L480 874 C464 874 451 868 440 855 L353 759 C336 738 341 721 366 721 L366 721 Z M235 -12 C375 -12 481 72 500 199 L569 635 C573 658 563 670 541 670 L463 670 C440 670 425 658 422 635 L354 202 C346 155 307 124 257 124 C205 124 176 155 184 202 L185 213 C188 235 178 248 156 248 L78 248 C56 248 41 235 38 213 L35 199 C16 72 95 -12 235 -12 L235 -12 Z " />
<glyph glyph-name="jcircumflex" unicode="&#x135;" horiz-adv-x="264" d="M42 551 L92 551 C108 551 121 556 134 569 L189 621 L197 621 L237 569 C245 556 256 551 272 551 L322 551 C347 551 359 568 348 589 L290 685 C283 698 272 704 256 704 L156 704 C140 704 127 698 116 685 L29 589 C12 568 17 551 42 551 L42 551 Z M-76 -180 L-15 -180 C77 -180 146 -124 159 -38 L239 469 C243 489 234 500 214 500 L136 500 C116 500 103 489 99 469 L24 -13 C18 -45 -4 -64 -35 -64 L-58 -64 C-78 -64 -91 -75 -94 -95 L-103 -149 C-106 -169 -96 -180 -76 -180 L-76 -180 Z " />
<glyph glyph-name="uni0136" unicode="&#x136;" horiz-adv-x="630" d="M622 670 L529 670 C511 670 496 663 484 647 L257 400 L248 400 L285 635 C288 658 278 670 256 670 L178 670 C156 670 141 658 137 635 L43 35 C39 12 49 0 71 0 L149 0 C171 0 186 12 190 35 L215 194 L284 266 L387 25 C392 8 404 0 423 0 L525 0 C550 0 563 18 554 42 L401 387 L633 628 C654 650 649 670 622 670 L622 670 Z M329 -51 L248 -51 C230 -51 216 -60 209 -78 L163 -200 C155 -221 163 -234 184 -234 L226 -234 C243 -234 255 -227 267 -212 L345 -88 C360 -67 353 -51 329 -51 L329 -51 Z " />
<glyph glyph-name="uni0137" unicode="&#x137;" horiz-adv-x="528" d="M514 500 L420 500 C404 500 390 494 379 480 L223 319 L213 319 L268 669 C272 689 262 700 242 700 L164 700 C144 700 132 689 128 669 L28 31 C24 11 33 0 53 0 L131 0 C151 0 164 11 168 31 L185 141 L241 195 L310 23 C315 8 326 0 343 0 L439 0 C463 0 476 16 466 37 L348 297 L521 462 C541 482 536 500 514 500 L514 500 Z M284 -51 L203 -51 C185 -51 171 -60 164 -78 L118 -200 C110 -221 118 -234 139 -234 L181 -234 C198 -234 210 -227 222 -212 L300 -88 C315 -67 308 -51 284 -51 L284 -51 Z " />
<glyph glyph-name="Lacute" unicode="&#x139;" horiz-adv-x="527" d="M196 721 L242 721 C258 721 270 726 283 738 L383 836 C405 856 398 874 372 874 L286 874 C269 874 256 867 246 851 L179 757 C165 737 172 721 196 721 L196 721 Z M436 136 L206 136 L285 635 C288 658 278 670 256 670 L178 670 C156 670 141 658 137 635 L43 35 C39 12 49 0 71 0 L414 0 C436 0 451 12 455 35 L465 102 C469 124 459 136 436 136 L436 136 Z " />
<glyph glyph-name="lacute" unicode="&#x13a;" horiz-adv-x="308" d="M174 731 L220 731 C236 731 248 736 261 748 L361 846 C383 866 376 884 350 884 L264 884 C247 884 234 877 224 861 L157 767 C143 747 150 731 174 731 L174 731 Z M167 0 L204 0 C224 0 238 11 241 31 L253 109 C255 121 248 129 236 129 L226 129 C196 129 181 147 186 177 L263 669 C267 689 257 700 237 700 L159 700 C139 700 127 689 123 669 L40 140 C26 56 77 0 167 0 L167 0 Z " />
<glyph glyph-name="uni013B" unicode="&#x13b;" horiz-adv-x="527" d="M436 136 L206 136 L285 635 C288 658 278 670 256 670 L178 670 C156 670 141 658 137 635 L43 35 C39 12 49 0 71 0 L414 0 C436 0 451 12 455 35 L465 102 C469 124 459 136 436 136 L436 136 Z M269 -51 L188 -51 C170 -51 156 -60 149 -78 L103 -200 C95 -221 103 -234 124 -234 L166 -234 C183 -234 195 -227 207 -212 L285 -88 C300 -67 293 -51 269 -51 L269 -51 Z " />
<glyph glyph-name="uni013C" unicode="&#x13c;" horiz-adv-x="308" d="M167 0 L204 0 C224 0 238 11 241 31 L253 109 C255 121 248 129 236 129 L226 129 C196 129 181 147 186 177 L263 669 C267 689 257 700 237 700 L159 700 C139 700 127 689 123 669 L40 140 C26 56 77 0 167 0 L167 0 Z M16 -234 L58 -234 C75 -234 87 -227 99 -212 L177 -88 C192 -67 185 -51 161 -51 L80 -51 C62 -51 48 -60 41 -78 L-5 -200 C-13 -221 -5 -234 16 -234 L16 -234 Z " />
<glyph glyph-name="Lcaron" unicode="&#x13d;" horiz-adv-x="527" d="M436 136 L206 136 L285 635 C288 658 278 670 256 670 L178 670 C156 670 141 658 137 635 L43 35 C39 12 49 0 71 0 L414 0 C436 0 451 12 455 35 L465 102 C469 124 459 136 436 136 L436 136 Z M461 670 L399 670 C379 670 366 659 362 639 L344 518 C340 498 350 487 370 487 L411 487 C429 487 442 496 448 515 L484 637 C491 658 482 670 461 670 L461 670 Z " />
<glyph glyph-name="lcaron" unicode="&#x13e;" horiz-adv-x="378" d="M167 0 L204 0 C224 0 238 11 241 31 L253 109 C255 121 248 129 236 129 L226 129 C196 129 181 147 186 177 L263 669 C267 689 257 700 237 700 L159 700 C139 700 127 689 123 669 L40 140 C26 56 77 0 167 0 L167 0 Z M336 517 L376 517 C395 517 408 526 414 545 L450 667 C457 688 448 700 427 700 L364 700 C344 700 332 689 329 669 L310 548 C307 528 316 517 336 517 L336 517 Z " />
<glyph glyph-name="Ldot" unicode="&#x13f;" horiz-adv-x="527" d="M436 136 L206 136 L285 635 C288 658 278 670 256 670 L178 670 C156 670 141 658 137 635 L43 35 C39 12 49 0 71 0 L414 0 C436 0 451 12 455 35 L465 102 C469 124 459 136 436 136 L436 136 Z M371 286 C414 286 448 315 455 359 C462 403 437 432 394 432 C349 432 315 403 308 359 C301 315 326 286 371 286 L371 286 Z " />
<glyph glyph-name="ldot" unicode="&#x140;" horiz-adv-x="401" d="M167 0 L204 0 C224 0 238 11 241 31 L253 109 C255 121 248 129 236 129 L226 129 C196 129 181 147 186 177 L263 669 C267 689 257 700 237 700 L159 700 C139 700 127 689 123 669 L40 140 C26 56 77 0 167 0 L167 0 Z M318 286 C362 286 396 315 403 360 C410 403 385 433 341 433 C296 433 263 403 256 360 C249 315 273 286 318 286 L318 286 Z " />
<glyph glyph-name="Lslash" unicode="&#x141;" horiz-adv-x="527" d="M436 136 L206 136 L236 324 L327 364 C344 372 353 384 356 401 L366 467 C370 490 356 500 333 491 L257 457 L285 635 C288 658 278 670 256 670 L178 670 C156 670 141 658 137 635 L98 386 L52 366 C34 359 25 347 22 330 L12 264 C8 240 22 230 44 240 L77 255 L43 35 C39 12 49 0 71 0 L414 0 C436 0 451 12 455 35 L465 102 C469 124 459 136 436 136 L436 136 Z " />
<glyph glyph-name="lslash" unicode="&#x142;" horiz-adv-x="344" d="M304 478 L267 463 L300 669 C303 689 293 700 273 700 L195 700 C175 700 163 689 160 669 L118 403 L86 390 C68 383 59 372 57 354 L46 288 C42 264 55 254 78 263 L97 271 L76 140 C62 56 113 0 203 0 L240 0 C260 0 274 11 277 31 L289 109 C291 121 284 129 272 129 L262 129 C232 129 217 147 222 177 L246 331 L296 351 C313 358 323 369 325 387 L336 453 C339 477 327 487 304 478 L304 478 Z " />
<glyph glyph-name="Nacute" unicode="&#x143;" horiz-adv-x="685" d="M388 721 L434 721 C450 721 462 726 475 738 L575 836 C597 856 590 874 564 874 L478 874 C461 874 448 867 438 851 L371 757 C357 737 364 721 388 721 L388 721 Z M67 0 L153 0 C173 0 186 11 190 31 L244 377 L245 424 L256 424 L389 24 C393 8 404 0 422 0 L538 0 C558 0 571 11 574 31 L670 639 C673 659 665 670 645 670 L559 670 C539 670 526 659 523 639 L468 293 L467 246 L456 246 L323 646 C319 662 308 670 290 670 L174 670 C154 670 141 659 138 639 L42 31 C39 11 47 0 67 0 L67 0 Z " />
<glyph glyph-name="nacute" unicode="&#x144;" horiz-adv-x="550" d="M298 551 L344 551 C360 551 372 556 385 568 L485 666 C507 686 500 704 474 704 L388 704 C371 704 358 697 348 681 L281 587 C267 567 274 551 298 551 L298 551 Z M386 512 C321 512 265 478 239 430 L231 430 L236 469 C240 489 231 500 211 500 L133 500 C113 500 100 489 96 469 L28 31 C24 11 33 0 53 0 L131 0 C151 0 164 11 168 31 L212 312 C218 350 254 381 302 381 C347 381 372 353 365 311 L321 31 C317 11 326 0 346 0 L424 0 C444 0 457 11 461 31 L514 365 C527 453 475 512 386 512 L386 512 Z " />
<glyph glyph-name="uni0145" unicode="&#x145;" horiz-adv-x="685" d="M67 0 L153 0 C173 0 186 11 190 31 L244 377 L245 424 L256 424 L389 24 C393 8 404 0 422 0 L538 0 C558 0 571 11 574 31 L670 639 C673 659 665 670 645 670 L559 670 C539 670 526 659 523 639 L468 293 L467 246 L456 246 L323 646 C319 662 308 670 290 670 L174 670 C154 670 141 659 138 639 L42 31 C39 11 47 0 67 0 L67 0 Z M201 -234 L243 -234 C260 -234 272 -227 284 -212 L362 -88 C377 -67 370 -51 346 -51 L265 -51 C247 -51 233 -60 226 -78 L180 -200 C172 -221 180 -234 201 -234 L201 -234 Z " />
<glyph glyph-name="uni0146" unicode="&#x146;" horiz-adv-x="550" d="M386 512 C321 512 265 478 239 430 L231 430 L236 469 C240 489 231 500 211 500 L133 500 C113 500 100 489 96 469 L28 31 C24 11 33 0 53 0 L131 0 C151 0 164 11 168 31 L212 312 C218 350 254 381 302 381 C347 381 372 353 365 311 L321 31 C317 11 326 0 346 0 L424 0 C444 0 457 11 461 31 L514 365 C527 453 475 512 386 512 L386 512 Z M130 -234 L172 -234 C189 -234 201 -227 213 -212 L291 -88 C306 -67 299 -51 275 -51 L194 -51 C176 -51 162 -60 155 -78 L109 -200 C101 -221 109 -234 130 -234 L130 -234 Z " />
<glyph glyph-name="Ncaron" unicode="&#x147;" horiz-adv-x="685" d="M367 721 L467 721 C483 721 496 727 508 740 L594 836 C613 856 606 874 581 874 L531 874 C515 874 502 869 491 856 L434 804 L427 804 L387 856 C378 869 367 874 351 874 L301 874 C276 874 265 856 276 836 L333 740 C341 727 351 721 367 721 L367 721 Z M67 0 L153 0 C173 0 186 11 190 31 L244 377 L245 424 L256 424 L389 24 C393 8 404 0 422 0 L538 0 C558 0 571 11 574 31 L670 639 C673 659 665 670 645 670 L559 670 C539 670 526 659 523 639 L468 293 L467 246 L456 246 L323 646 C319 662 308 670 290 670 L174 670 C154 670 141 659 138 639 L42 31 C39 11 47 0 67 0 L67 0 Z " />
<glyph glyph-name="ncaron" unicode="&#x148;" horiz-adv-x="550" d="M276 551 L376 551 C392 551 405 557 417 570 L503 666 C522 686 515 704 490 704 L440 704 C424 704 411 699 400 686 L343 634 L336 634 L296 686 C287 699 276 704 260 704 L210 704 C185 704 174 686 185 666 L242 570 C250 557 260 551 276 551 L276 551 Z M386 512 C321 512 265 478 239 430 L231 430 L236 469 C240 489 231 500 211 500 L133 500 C113 500 100 489 96 469 L28 31 C24 11 33 0 53 0 L131 0 C151 0 164 11 168 31 L212 312 C218 350 254 381 302 381 C347 381 372 353 365 311 L321 31 C317 11 326 0 346 0 L424 0 C444 0 457 11 461 31 L514 365 C527 453 475 512 386 512 L386 512 Z " />
<glyph glyph-name="Eng" unicode="&#x14a;" horiz-adv-x="685" d="M645 670 L559 670 C539 670 526 659 523 639 L468 293 L467 246 L456 246 L323 646 C319 662 308 670 290 670 L174 670 C154 670 141 659 138 639 L42 31 C39 11 47 0 67 0 L153 0 C173 0 186 11 190 31 L244 377 L245 424 L256 424 L389 24 C393 8 404 0 421 0 L415 -42 C410 -71 386 -90 354 -90 L336 -90 C316 -90 304 -101 300 -121 L293 -166 C290 -186 299 -197 319 -197 L389 -197 C479 -197 546 -144 559 -63 L572 23 C573 25 574 28 574 31 L670 639 C673 659 665 670 645 670 L645 670 Z " />
<glyph glyph-name="eng" unicode="&#x14b;" horiz-adv-x="550" d="M386 512 C321 512 265 478 239 430 L231 430 L236 469 C240 489 231 500 211 500 L133 500 C113 500 100 489 96 469 L28 31 C24 11 33 0 53 0 L131 0 C151 0 164 11 168 31 L212 312 C218 350 254 381 302 381 C347 381 372 353 365 311 L332 98 L331 98 L310 -39 C306 -64 285 -80 258 -80 L243 -80 C229 -80 218 -89 216 -104 L208 -156 C205 -176 214 -187 234 -187 L277 -187 C367 -187 435 -134 448 -53 L460 27 L461 31 L514 365 C527 453 475 512 386 512 L386 512 Z " />
<glyph glyph-name="Omacron" unicode="&#x14c;" horiz-adv-x="649" d="M283 739 L520 739 C540 739 553 750 556 770 L564 817 C567 837 557 848 537 848 L301 848 C281 848 268 837 265 817 L258 770 C255 750 263 739 283 739 L283 739 Z M284 -12 C446 -12 569 87 593 237 L623 433 C647 583 555 682 393 682 C229 682 107 583 83 433 L52 237 C28 87 120 -12 284 -12 L284 -12 Z M305 124 C231 124 189 170 200 240 L230 430 C242 500 297 546 372 546 C445 546 487 500 476 430 L445 240 C434 170 378 124 305 124 L305 124 Z " />
<glyph glyph-name="omacron" unicode="&#x14d;" horiz-adv-x="526" d="M195 569 L432 569 C452 569 465 580 468 600 L476 647 C479 667 469 678 449 678 L213 678 C193 678 180 667 177 647 L170 600 C167 580 175 569 195 569 L195 569 Z M222 -12 C354 -12 453 68 472 190 L492 310 C511 432 436 512 304 512 C172 512 72 432 53 310 L33 190 C14 68 90 -12 222 -12 L222 -12 Z M242 117 C194 117 167 146 174 191 L193 309 C200 354 237 383 285 383 C332 383 359 354 352 309 L333 191 C326 146 290 117 242 117 L242 117 Z " />
<glyph glyph-name="Obreve" unicode="&#x14e;" horiz-adv-x="649" d="M399 713 C485 713 552 758 576 839 C583 860 572 873 552 873 L498 873 C484 873 475 865 471 853 C463 828 443 813 414 813 C385 813 369 826 369 853 C367 865 362 873 348 873 L294 873 C274 873 259 861 258 840 C257 760 310 713 399 713 L399 713 Z M284 -12 C446 -12 569 87 593 237 L623 433 C647 583 555 682 393 682 C229 682 107 583 83 433 L52 237 C28 87 120 -12 284 -12 L284 -12 Z M305 124 C231 124 189 170 200 240 L230 430 C242 500 297 546 372 546 C445 546 487 500 476 430 L445 240 C434 170 378 124 305 124 L305 124 Z " />
<glyph glyph-name="obreve" unicode="&#x14f;" horiz-adv-x="526" d="M310 543 C396 543 463 588 487 669 C494 690 483 703 463 703 L409 703 C395 703 386 695 382 683 C374 658 354 643 325 643 C296 643 280 656 280 683 C278 695 273 703 259 703 L205 703 C185 703 170 691 169 670 C168 590 221 543 310 543 L310 543 Z M222 -12 C354 -12 453 68 472 190 L492 310 C511 432 436 512 304 512 C172 512 72 432 53 310 L33 190 C14 68 90 -12 222 -12 L222 -12 Z M242 117 C194 117 167 146 174 191 L193 309 C200 354 237 383 285 383 C332 383 359 354 352 309 L333 191 C326 146 290 117 242 117 L242 117 Z " />
<glyph glyph-name="Ohungarumlaut" unicode="&#x150;" horiz-adv-x="649" d="M265 721 L313 721 C330 721 343 727 353 743 L424 837 C439 857 432 874 408 874 L338 874 C321 874 308 866 299 849 L246 757 C236 736 242 721 265 721 L265 721 Z M464 721 L511 721 C528 721 541 727 552 743 L623 837 C639 857 631 874 607 874 L537 874 C520 874 508 866 499 849 L445 757 C433 736 442 721 464 721 L464 721 Z M284 -12 C446 -12 569 87 593 237 L623 433 C647 583 555 682 393 682 C229 682 107 583 83 433 L52 237 C28 87 120 -12 284 -12 L284 -12 Z M305 124 C231 124 189 170 200 240 L230 430 C242 500 297 546 372 546 C445 546 487 500 476 430 L445 240 C434 170 378 124 305 124 L305 124 Z " />
<glyph glyph-name="ohungarumlaut" unicode="&#x151;" horiz-adv-x="526" d="M176 551 L224 551 C241 551 254 557 264 573 L335 667 C350 687 343 704 319 704 L249 704 C232 704 219 696 210 679 L157 587 C147 566 153 551 176 551 L176 551 Z M375 551 L422 551 C439 551 452 557 463 573 L534 667 C550 687 542 704 518 704 L448 704 C431 704 419 696 410 679 L356 587 C344 566 353 551 375 551 L375 551 Z M222 -12 C354 -12 453 68 472 190 L492 310 C511 432 436 512 304 512 C172 512 72 432 53 310 L33 190 C14 68 90 -12 222 -12 L222 -12 Z M242 117 C194 117 167 146 174 191 L193 309 C200 354 237 383 285 383 C332 383 359 354 352 309 L333 191 C326 146 290 117 242 117 L242 117 Z " />
<glyph glyph-name="OE" unicode="&#x152;" horiz-adv-x="913" d="M888 670 L392 670 C228 670 105 571 81 421 L54 249 C30 99 121 0 285 0 L781 0 C803 0 818 12 822 35 L832 102 C835 124 825 136 803 136 L552 136 L574 273 L785 273 C807 273 822 286 826 308 L835 368 C839 390 828 403 806 403 L594 403 L615 534 L865 534 C888 534 903 546 905 568 L916 635 C920 658 910 670 888 670 L888 670 Z M405 136 L307 136 C233 136 191 182 202 252 L228 418 C240 488 295 534 370 534 L468 534 L405 136 Z " />
<glyph glyph-name="oe" unicode="&#x153;" horiz-adv-x="825" d="M614 512 C543 512 481 487 447 445 L439 445 C418 487 362 512 292 512 C168 512 73 435 54 317 L32 183 C13 65 86 -12 210 -12 C282 -12 347 15 377 55 L386 55 C406 15 463 -12 539 -12 C647 -12 730 35 759 124 C766 145 755 156 735 156 L654 156 C638 156 627 147 619 136 C604 113 578 101 544 101 C492 101 464 131 471 176 L476 204 L743 204 C763 204 776 215 779 235 L791 314 C810 433 739 512 614 512 L614 512 Z M495 325 C502 370 538 399 586 399 C634 399 661 370 654 325 L650 300 L491 300 L495 325 Z M352 309 L332 191 C325 146 290 117 242 117 C194 117 166 146 173 191 L193 309 C200 354 236 383 284 383 C332 383 359 354 352 309 L352 309 Z " />
<glyph glyph-name="Racute" unicode="&#x154;" horiz-adv-x="640" d="M370 721 L416 721 C432 721 444 726 457 738 L557 836 C579 856 572 874 546 874 L460 874 C443 874 430 867 420 851 L353 757 C339 737 346 721 370 721 L370 721 Z M630 444 C651 582 576 670 440 670 L178 670 C156 670 141 658 137 635 L43 35 C39 12 49 0 71 0 L149 0 C171 0 186 12 190 35 L218 212 L323 212 L391 27 C398 6 408 0 429 0 L527 0 C554 0 566 16 556 41 L474 233 C556 268 613 344 630 444 L630 444 Z M481 441 C473 383 431 348 373 348 L240 348 L269 534 L403 534 C460 534 490 498 481 441 L481 441 Z " />
<glyph glyph-name="racute" unicode="&#x155;" horiz-adv-x="382" d="M225 551 L271 551 C287 551 299 556 312 568 L412 666 C434 686 427 704 401 704 L315 704 C298 704 285 697 275 681 L208 587 C194 567 201 551 225 551 L225 551 Z M364 511 C304 507 264 476 236 416 L228 416 L236 469 C240 489 231 500 211 500 L133 500 C113 500 100 489 96 469 L28 31 C24 11 33 0 53 0 L131 0 C151 0 164 11 168 31 L203 255 C214 324 259 368 343 368 C363 368 376 380 379 399 L392 480 C395 500 386 513 364 511 L364 511 Z " />
<glyph glyph-name="uni0156" unicode="&#x156;" horiz-adv-x="640" d="M630 444 C651 582 576 670 440 670 L178 670 C156 670 141 658 137 635 L43 35 C39 12 49 0 71 0 L149 0 C171 0 186 12 190 35 L218 212 L323 212 L391 27 C398 6 408 0 429 0 L527 0 C554 0 566 16 556 41 L474 233 C556 268 613 344 630 444 L630 444 Z M481 441 C473 383 431 348 373 348 L240 348 L269 534 L403 534 C460 534 490 498 481 441 L481 441 Z M321 -51 L240 -51 C222 -51 208 -60 201 -78 L155 -200 C147 -221 155 -234 176 -234 L218 -234 C235 -234 247 -227 259 -212 L337 -88 C352 -67 345 -51 321 -51 L321 -51 Z " />
<glyph glyph-name="uni0157" unicode="&#x157;" horiz-adv-x="382" d="M364 511 C304 507 264 476 236 416 L228 416 L236 469 C240 489 231 500 211 500 L133 500 C113 500 100 489 96 469 L28 31 C24 11 33 0 53 0 L131 0 C151 0 164 11 168 31 L203 255 C214 324 259 368 343 368 C363 368 376 380 379 399 L392 480 C395 500 386 513 364 511 L364 511 Z M-17 -234 L25 -234 C42 -234 54 -227 66 -212 L144 -88 C159 -67 152 -51 128 -51 L47 -51 C29 -51 15 -60 8 -78 L-38 -200 C-46 -221 -38 -234 -17 -234 L-17 -234 Z " />
<glyph glyph-name="Rcaron" unicode="&#x158;" horiz-adv-x="640" d="M315 740 C323 727 333 721 349 721 L449 721 C465 721 478 727 490 740 L576 836 C595 856 588 874 563 874 L513 874 C497 874 484 869 473 856 L416 804 L409 804 L369 856 C360 869 349 874 333 874 L283 874 C258 874 247 856 258 836 L315 740 Z M630 444 C651 582 576 670 440 670 L178 670 C156 670 141 658 137 635 L43 35 C39 12 49 0 71 0 L149 0 C171 0 186 12 190 35 L218 212 L323 212 L391 27 C398 6 408 0 429 0 L527 0 C554 0 566 16 556 41 L474 233 C556 268 613 344 630 444 L630 444 Z M481 441 C473 383 431 348 373 348 L240 348 L269 534 L403 534 C460 534 490 498 481 441 L481 441 Z " />
<glyph glyph-name="rcaron" unicode="&#x159;" horiz-adv-x="382" d="M203 551 L303 551 C319 551 332 557 344 570 L430 666 C449 686 442 704 417 704 L367 704 C351 704 338 699 327 686 L270 634 L263 634 L223 686 C214 699 203 704 187 704 L137 704 C112 704 101 686 112 666 L169 570 C177 557 187 551 203 551 L203 551 Z M364 511 C304 507 264 476 236 416 L228 416 L236 469 C240 489 231 500 211 500 L133 500 C113 500 100 489 96 469 L28 31 C24 11 33 0 53 0 L131 0 C151 0 164 11 168 31 L203 255 C214 324 259 368 343 368 C363 368 376 380 379 399 L392 480 C395 500 386 513 364 511 L364 511 Z " />
<glyph glyph-name="Sacute" unicode="&#x15a;" horiz-adv-x="593" d="M343 721 L389 721 C405 721 417 726 430 738 L530 836 C552 856 545 874 519 874 L433 874 C416 874 403 867 393 851 L326 757 C312 737 319 721 343 721 L343 721 Z M258 -12 C412 -12 525 67 545 194 C584 441 222 377 241 498 C247 538 291 562 342 562 C389 562 420 543 425 504 C428 489 434 479 455 479 L542 479 C564 479 580 491 581 514 C582 622 501 682 362 682 C215 682 102 609 83 484 C44 242 406 299 386 177 C379 135 331 108 276 108 C222 108 189 129 186 175 C183 193 178 203 157 203 L67 203 C45 203 29 190 28 167 C26 53 112 -12 258 -12 L258 -12 Z " />
<glyph glyph-name="sacute" unicode="&#x15b;" horiz-adv-x="478" d="M257 551 L303 551 C319 551 331 556 344 568 L444 666 C466 686 459 704 433 704 L347 704 C330 704 317 697 307 681 L240 587 C226 567 233 551 257 551 L257 551 Z M200 -12 C327 -12 416 49 432 151 C462 340 182 285 195 366 C198 390 223 406 261 406 C289 406 306 396 316 375 C321 364 325 354 343 354 L425 354 C443 354 458 366 457 386 C454 467 386 512 275 512 C156 512 67 457 51 355 C22 168 301 219 288 137 C285 111 257 94 216 94 C182 94 160 106 154 132 C151 147 147 155 127 155 L45 155 C27 155 11 143 13 122 C15 37 85 -12 200 -12 L200 -12 Z " />
<glyph glyph-name="Scircumflex" unicode="&#x15c;" horiz-adv-x="593" d="M231 721 L281 721 C297 721 310 726 323 739 L378 791 L386 791 L426 739 C434 726 445 721 461 721 L511 721 C536 721 548 738 537 759 L479 855 C472 868 461 874 445 874 L345 874 C329 874 316 868 305 855 L218 759 C201 738 206 721 231 721 L231 721 Z M258 -12 C412 -12 525 67 545 194 C584 441 222 377 241 498 C247 538 291 562 342 562 C389 562 420 543 425 504 C428 489 434 479 455 479 L542 479 C564 479 580 491 581 514 C582 622 501 682 362 682 C215 682 102 609 83 484 C44 242 406 299 386 177 C379 135 331 108 276 108 C222 108 189 129 186 175 C183 193 178 203 157 203 L67 203 C45 203 29 190 28 167 C26 53 112 -12 258 -12 L258 -12 Z " />
<glyph glyph-name="scircumflex" unicode="&#x15d;" horiz-adv-x="478" d="M145 551 L195 551 C211 551 224 556 237 569 L292 621 L300 621 L340 569 C348 556 359 551 375 551 L425 551 C450 551 462 568 451 589 L393 685 C386 698 375 704 359 704 L259 704 C243 704 230 698 219 685 L132 589 C115 568 120 551 145 551 L145 551 Z M200 -12 C327 -12 416 49 432 151 C462 340 182 285 195 366 C198 390 223 406 261 406 C289 406 306 396 316 375 C321 364 325 354 343 354 L425 354 C443 354 458 366 457 386 C454 467 386 512 275 512 C156 512 67 457 51 355 C22 168 301 219 288 137 C285 111 257 94 216 94 C182 94 160 106 154 132 C151 147 147 155 127 155 L45 155 C27 155 11 143 13 122 C15 37 85 -12 200 -12 L200 -12 Z " />
<glyph glyph-name="Scedilla" unicode="&#x15e;" horiz-adv-x="593" d="M362 682 C215 682 102 609 83 484 C44 242 406 299 386 177 C379 135 331 108 276 108 C222 108 189 129 186 175 C183 193 178 203 157 203 L67 203 C45 203 29 190 28 167 C26 67 93 4 208 -9 L178 -49 C173 -56 169 -62 169 -70 L167 -79 C165 -94 172 -102 187 -102 L239 -102 C254 -102 263 -112 261 -126 C259 -145 236 -156 205 -156 C190 -156 176 -153 163 -149 C145 -145 133 -153 130 -175 L128 -189 C125 -206 130 -219 147 -224 C164 -229 185 -232 207 -232 C286 -232 346 -191 356 -130 C364 -76 333 -41 278 -41 L266 -41 L287 -11 C426 -2 526 75 545 194 C584 441 222 377 241 498 C247 538 291 562 342 562 C389 562 420 543 425 504 C428 489 434 479 455 479 L542 479 C564 479 580 491 581 514 C582 622 501 682 362 682 L362 682 Z " />
<glyph glyph-name="scedilla" unicode="&#x15f;" horiz-adv-x="478" d="M261 406 C289 406 306 396 316 375 C321 364 325 354 343 354 L425 354 C443 354 458 366 457 386 C454 467 386 512 275 512 C156 512 67 457 51 355 C22 168 301 219 288 137 C285 111 257 94 216 94 C182 94 160 106 154 132 C151 147 147 155 127 155 L45 155 C27 155 11 143 13 122 C15 50 65 4 150 -8 L119 -49 C114 -56 110 -62 110 -70 L108 -79 C106 -94 113 -102 128 -102 L180 -102 C195 -102 204 -112 202 -126 C200 -145 177 -156 146 -156 C131 -156 117 -153 104 -149 C86 -145 74 -153 71 -175 L69 -189 C66 -206 71 -219 88 -224 C105 -229 126 -232 148 -232 C227 -232 287 -191 297 -130 C305 -76 274 -41 219 -41 L207 -41 L228 -11 C340 -2 417 57 432 151 C462 340 182 285 195 366 C198 390 223 406 261 406 L261 406 Z " />
<glyph glyph-name="Scaron" unicode="&#x160;" horiz-adv-x="593" d="M321 721 L421 721 C437 721 450 727 462 740 L548 836 C567 856 560 874 535 874 L485 874 C469 874 456 869 445 856 L388 804 L381 804 L341 856 C332 869 321 874 305 874 L255 874 C230 874 219 856 230 836 L287 740 C295 727 305 721 321 721 L321 721 Z M258 -12 C412 -12 525 67 545 194 C584 441 222 377 241 498 C247 538 291 562 342 562 C389 562 420 543 425 504 C428 489 434 479 455 479 L542 479 C564 479 580 491 581 514 C582 622 501 682 362 682 C215 682 102 609 83 484 C44 242 406 299 386 177 C379 135 331 108 276 108 C222 108 189 129 186 175 C183 193 178 203 157 203 L67 203 C45 203 29 190 28 167 C26 53 112 -12 258 -12 L258 -12 Z " />
<glyph glyph-name="scaron" unicode="&#x161;" horiz-adv-x="478" d="M235 551 L335 551 C351 551 364 557 376 570 L462 666 C481 686 474 704 449 704 L399 704 C383 704 370 699 359 686 L302 634 L295 634 L255 686 C246 699 235 704 219 704 L169 704 C144 704 133 686 144 666 L201 570 C209 557 219 551 235 551 L235 551 Z M200 -12 C327 -12 416 49 432 151 C462 340 182 285 195 366 C198 390 223 406 261 406 C289 406 306 396 316 375 C321 364 325 354 343 354 L425 354 C443 354 458 366 457 386 C454 467 386 512 275 512 C156 512 67 457 51 355 C22 168 301 219 288 137 C285 111 257 94 216 94 C182 94 160 106 154 132 C151 147 147 155 127 155 L45 155 C27 155 11 143 13 122 C15 37 85 -12 200 -12 L200 -12 Z " />
<glyph glyph-name="uni0162" unicode="&#x162;" horiz-adv-x="569" d="M567 670 L135 670 C113 670 98 658 94 635 L84 568 C81 546 91 534 113 534 L256 534 L177 35 C173 13 182 2 202 0 L165 -49 C160 -56 156 -62 156 -70 L154 -79 C152 -94 159 -102 174 -102 L226 -102 C241 -102 250 -112 248 -126 C246 -145 223 -156 192 -156 C177 -156 163 -153 150 -149 C132 -145 120 -153 117 -175 L115 -189 C112 -206 117 -219 134 -224 C151 -229 172 -232 194 -232 C273 -232 333 -191 343 -130 C351 -76 320 -41 265 -41 L253 -41 L282 0 L284 0 C306 0 321 12 325 35 L403 534 L545 534 C567 534 582 546 585 568 L595 635 C599 658 589 670 567 670 L567 670 Z " />
<glyph glyph-name="uni0163" unicode="&#x163;" horiz-adv-x="399" d="M368 500 L288 500 L304 599 C307 619 298 630 278 630 L209 630 C189 630 177 619 174 599 L164 539 C160 515 144 500 119 500 L94 500 C76 500 64 490 61 472 L51 406 C47 386 56 375 76 375 L129 375 L92 142 C82 83 104 38 148 15 L101 -49 C95 -56 93 -62 92 -69 L90 -79 C88 -94 95 -102 110 -102 L162 -102 C177 -102 186 -112 184 -126 C182 -145 159 -156 128 -156 C113 -156 99 -153 86 -149 C68 -145 56 -153 53 -175 L51 -189 C48 -206 53 -220 70 -224 C87 -229 108 -232 130 -232 C209 -232 269 -191 279 -130 C287 -76 256 -41 201 -41 L189 -41 L218 0 L221 0 L282 0 C302 0 316 11 319 31 L329 98 C332 118 323 129 303 129 L280 129 C248 129 232 148 238 179 L269 375 L348 375 C368 375 381 386 384 406 L394 469 C397 489 388 500 368 500 L368 500 Z " />
<glyph glyph-name="Tcaron" unicode="&#x164;" horiz-adv-x="569" d="M274 740 C282 727 292 721 308 721 L408 721 C424 721 437 727 449 740 L535 836 C554 856 547 874 522 874 L472 874 C456 874 443 869 432 856 L375 804 L368 804 L328 856 C319 869 308 874 292 874 L242 874 C217 874 206 856 217 836 L274 740 Z M567 670 L135 670 C113 670 98 658 94 635 L84 568 C81 546 91 534 113 534 L256 534 L177 35 C173 12 183 0 206 0 L284 0 C306 0 321 12 325 35 L403 534 L545 534 C567 534 582 546 585 568 L595 635 C599 658 589 670 567 670 L567 670 Z " />
<glyph glyph-name="tcaron" unicode="&#x165;" horiz-adv-x="399" d="M471 733 L409 733 C389 733 376 722 372 702 L354 581 C350 561 360 550 380 550 L421 550 C439 550 452 559 458 578 L494 700 C501 721 492 733 471 733 L471 733 Z M368 500 L288 500 L304 599 C307 619 298 630 278 630 L209 630 C189 630 177 619 174 599 L164 539 C160 515 144 500 119 500 L94 500 C76 500 64 490 61 472 L51 406 C47 386 56 375 76 375 L129 375 L92 142 C78 56 129 0 221 0 L282 0 C302 0 316 11 319 31 L329 98 C332 118 323 129 303 129 L280 129 C248 129 232 148 238 179 L269 375 L348 375 C368 375 381 386 384 406 L394 469 C397 489 388 500 368 500 L368 500 Z " />
<glyph glyph-name="Tbar" unicode="&#x166;" horiz-adv-x="569" d="M567 670 L135 670 C113 670 98 658 94 635 L84 568 C81 546 91 534 113 534 L256 534 L228 358 L153 358 C133 358 121 347 117 327 L108 270 C105 250 114 239 134 239 L209 239 L177 35 C173 12 183 0 206 0 L284 0 C306 0 321 12 325 35 L357 239 L431 239 C451 239 463 250 467 270 L476 327 C479 347 470 358 450 358 L376 358 L403 534 L545 534 C567 534 582 546 585 568 L595 635 C599 658 589 670 567 670 L567 670 Z " />
<glyph glyph-name="tbar" unicode="&#x167;" horiz-adv-x="399" d="M368 500 L288 500 L304 599 C307 619 298 630 278 630 L209 630 C189 630 177 619 174 599 L164 539 C160 515 144 500 119 500 L94 500 C76 500 64 490 61 472 L51 406 C47 386 56 375 76 375 L129 375 L116 298 L85 298 C65 298 52 287 49 267 L46 246 C42 226 52 215 72 215 L103 215 L92 142 C78 56 129 0 221 0 L282 0 C302 0 316 11 319 31 L329 98 C332 118 323 129 303 129 L280 129 C248 129 232 148 238 179 L244 215 L303 215 C323 215 336 226 340 246 L343 267 C346 287 336 298 316 298 L257 298 L269 375 L348 375 C368 375 381 386 384 406 L394 469 C397 489 388 500 368 500 L368 500 Z " />
<glyph glyph-name="Utilde" unicode="&#x168;" horiz-adv-x="654" d="M484 725 C550 725 592 767 611 848 C617 869 609 881 594 881 L541 881 C521 881 515 875 509 863 C502 847 488 838 470 838 C431 838 407 884 346 884 C277 884 235 839 216 752 C213 736 221 728 236 728 L289 728 C309 728 315 734 321 746 C328 761 342 771 359 771 C396 771 424 725 484 725 L484 725 Z M287 -12 C443 -12 561 83 584 227 L648 635 C652 658 642 670 620 670 L542 670 C519 670 504 658 501 635 L437 230 C427 166 375 124 308 124 C240 124 202 166 212 230 L275 635 C279 658 269 670 247 670 L169 670 C146 670 132 658 128 635 L63 227 C40 83 129 -12 287 -12 L287 -12 Z " />
<glyph glyph-name="utilde" unicode="&#x169;" horiz-adv-x="543" d="M398 555 C464 555 506 597 525 678 C531 699 523 711 508 711 L455 711 C435 711 429 705 423 693 C416 677 402 668 384 668 C345 668 321 714 260 714 C191 714 149 669 130 582 C127 566 135 558 150 558 L203 558 C223 558 229 564 235 576 C242 591 256 601 273 601 C310 601 338 555 398 555 L398 555 Z M490 500 L412 500 C392 500 379 489 376 469 L331 186 C325 148 291 119 245 119 C203 119 180 146 186 187 L231 469 C234 489 225 500 205 500 L127 500 C107 500 94 489 91 469 L38 134 C24 46 75 -12 162 -12 C226 -12 279 22 304 70 L312 70 L307 31 C304 11 312 0 332 0 L410 0 C430 0 444 11 447 31 L516 469 C519 489 510 500 490 500 L490 500 Z " />
<glyph glyph-name="Umacron" unicode="&#x16a;" horiz-adv-x="654" d="M286 739 L523 739 C543 739 556 750 559 770 L567 817 C570 837 560 848 540 848 L304 848 C284 848 271 837 268 817 L261 770 C258 750 266 739 286 739 L286 739 Z M287 -12 C443 -12 561 83 584 227 L648 635 C652 658 642 670 620 670 L542 670 C519 670 504 658 501 635 L437 230 C427 166 375 124 308 124 C240 124 202 166 212 230 L275 635 C279 658 269 670 247 670 L169 670 C146 670 132 658 128 635 L63 227 C40 83 129 -12 287 -12 L287 -12 Z " />
<glyph glyph-name="umacron" unicode="&#x16b;" horiz-adv-x="543" d="M200 569 L437 569 C457 569 470 580 473 600 L481 647 C484 667 474 678 454 678 L218 678 C198 678 185 667 182 647 L175 600 C172 580 180 569 200 569 L200 569 Z M490 500 L412 500 C392 500 379 489 376 469 L331 186 C325 148 291 119 245 119 C203 119 180 146 186 187 L231 469 C234 489 225 500 205 500 L127 500 C107 500 94 489 91 469 L38 134 C24 46 75 -12 162 -12 C226 -12 279 22 304 70 L312 70 L307 31 C304 11 312 0 332 0 L410 0 C430 0 444 11 447 31 L516 469 C519 489 510 500 490 500 L490 500 Z " />
<glyph glyph-name="Ubreve" unicode="&#x16c;" horiz-adv-x="654" d="M402 713 C488 713 555 758 579 839 C586 860 575 873 555 873 L501 873 C487 873 478 865 474 853 C466 828 446 813 417 813 C388 813 372 826 372 853 C370 865 365 873 351 873 L297 873 C277 873 262 861 261 840 C260 760 313 713 402 713 L402 713 Z M287 -12 C443 -12 561 83 584 227 L648 635 C652 658 642 670 620 670 L542 670 C519 670 504 658 501 635 L437 230 C427 166 375 124 308 124 C240 124 202 166 212 230 L275 635 C279 658 269 670 247 670 L169 670 C146 670 132 658 128 635 L63 227 C40 83 129 -12 287 -12 L287 -12 Z " />
<glyph glyph-name="ubreve" unicode="&#x16d;" horiz-adv-x="543" d="M316 543 C402 543 469 588 493 669 C500 690 489 703 469 703 L415 703 C401 703 392 695 388 683 C380 658 360 643 331 643 C302 643 286 656 286 683 C284 695 279 703 265 703 L211 703 C191 703 176 691 175 670 C174 590 227 543 316 543 L316 543 Z M490 500 L412 500 C392 500 379 489 376 469 L331 186 C325 148 291 119 245 119 C203 119 180 146 186 187 L231 469 C234 489 225 500 205 500 L127 500 C107 500 94 489 91 469 L38 134 C24 46 75 -12 162 -12 C226 -12 279 22 304 70 L312 70 L307 31 C304 11 312 0 332 0 L410 0 C430 0 444 11 447 31 L516 469 C519 489 510 500 490 500 L490 500 Z " />
<glyph glyph-name="Uring" unicode="&#x16e;" horiz-adv-x="654" d="M401 713 C472 713 526 759 536 826 C547 893 507 939 437 939 C365 939 311 893 300 826 C290 759 330 713 401 713 L401 713 Z M411 780 C384 780 369 800 373 826 C377 853 400 872 427 872 C453 872 468 853 463 826 C459 799 437 780 411 780 L411 780 Z M287 -12 C443 -12 561 83 584 227 L648 635 C652 658 642 670 620 670 L542 670 C519 670 504 658 501 635 L437 230 C427 166 375 124 308 124 C240 124 202 166 212 230 L275 635 C279 658 269 670 247 670 L169 670 C146 670 132 658 128 635 L63 227 C40 83 129 -12 287 -12 L287 -12 Z " />
<glyph glyph-name="uring" unicode="&#x16f;" horiz-adv-x="543" d="M315 543 C386 543 440 589 450 656 C461 723 421 769 351 769 C279 769 225 723 214 656 C204 589 244 543 315 543 L315 543 Z M325 610 C298 610 283 630 287 656 C291 683 314 702 341 702 C367 702 382 683 377 656 C373 629 351 610 325 610 L325 610 Z M490 500 L412 500 C392 500 379 489 376 469 L331 186 C325 148 291 119 245 119 C203 119 180 146 186 187 L231 469 C234 489 225 500 205 500 L127 500 C107 500 94 489 91 469 L38 134 C24 46 75 -12 162 -12 C226 -12 279 22 304 70 L312 70 L307 31 C304 11 312 0 332 0 L410 0 C430 0 444 11 447 31 L516 469 C519 489 510 500 490 500 L490 500 Z " />
<glyph glyph-name="Uhungarumlaut" unicode="&#x170;" horiz-adv-x="654" d="M267 721 L315 721 C332 721 345 727 355 743 L426 837 C441 857 434 874 410 874 L340 874 C323 874 310 866 301 849 L248 757 C238 736 244 721 267 721 L267 721 Z M466 721 L513 721 C530 721 543 727 554 743 L625 837 C641 857 633 874 609 874 L539 874 C522 874 510 866 501 849 L447 757 C435 736 444 721 466 721 L466 721 Z M287 -12 C443 -12 561 83 584 227 L648 635 C652 658 642 670 620 670 L542 670 C519 670 504 658 501 635 L437 230 C427 166 375 124 308 124 C240 124 202 166 212 230 L275 635 C279 658 269 670 247 670 L169 670 C146 670 132 658 128 635 L63 227 C40 83 129 -12 287 -12 L287 -12 Z " />
<glyph glyph-name="uhungarumlaut" unicode="&#x171;" horiz-adv-x="543" d="M182 551 L230 551 C247 551 260 557 270 573 L341 667 C356 687 349 704 325 704 L255 704 C238 704 225 696 216 679 L163 587 C153 566 159 551 182 551 L182 551 Z M381 551 L428 551 C445 551 458 557 469 573 L540 667 C556 687 548 704 524 704 L454 704 C437 704 425 696 416 679 L362 587 C350 566 359 551 381 551 L381 551 Z M490 500 L412 500 C392 500 379 489 376 469 L331 186 C325 148 291 119 245 119 C203 119 180 146 186 187 L231 469 C234 489 225 500 205 500 L127 500 C107 500 94 489 91 469 L38 134 C24 46 75 -12 162 -12 C226 -12 279 22 304 70 L312 70 L307 31 C304 11 312 0 332 0 L410 0 C430 0 444 11 447 31 L516 469 C519 489 510 500 490 500 L490 500 Z " />
<glyph glyph-name="Uogonek" unicode="&#x172;" horiz-adv-x="654" d="M620 670 L542 670 C519 670 504 658 501 635 L437 230 C427 166 375 124 308 124 C240 124 202 166 212 230 L275 635 C279 658 269 670 247 670 L169 670 C146 670 132 658 128 635 L63 227 C42 98 111 9 239 -9 C200 -31 170 -70 164 -113 C153 -176 197 -218 273 -218 C298 -218 323 -215 338 -209 C350 -205 356 -196 357 -183 L365 -137 C368 -119 361 -114 347 -118 C341 -119 335 -120 330 -120 C306 -120 292 -104 296 -80 C301 -49 327 -19 363 -4 C480 22 565 108 584 227 L648 635 C652 658 642 670 620 670 L620 670 Z " />
<glyph glyph-name="uogonek" unicode="&#x173;" horiz-adv-x="543" d="M490 500 L412 500 C392 500 379 489 376 469 L331 186 C325 148 291 119 245 119 C203 119 180 146 186 187 L231 469 C234 489 225 500 205 500 L127 500 C107 500 94 489 91 469 L38 134 C24 46 75 -12 162 -12 C226 -12 279 22 304 70 L312 70 L307 31 C305 16 309 5 320 2 L320 -1 C273 -20 236 -64 229 -113 C218 -176 262 -218 338 -218 C363 -218 388 -215 403 -209 C415 -205 421 -196 422 -183 L430 -137 C433 -119 426 -114 412 -118 C406 -119 400 -120 395 -120 C371 -120 357 -104 361 -80 C366 -49 392 -19 428 -4 C437 -1 442 5 444 13 L446 25 C446 27 447 29 447 31 L516 469 C519 489 510 500 490 500 L490 500 Z " />
<glyph glyph-name="Wcircumflex" unicode="&#x174;" horiz-adv-x="946" d="M407 721 L457 721 C473 721 486 726 499 739 L554 791 L562 791 L602 739 C610 726 621 721 637 721 L687 721 C712 721 724 738 713 759 L655 855 C648 868 637 874 621 874 L521 874 C505 874 492 868 481 855 L394 759 C377 738 382 721 407 721 L407 721 Z M182 0 L297 0 C318 0 332 10 340 31 L494 415 L504 415 L537 31 C537 10 548 0 568 0 L683 0 C704 0 720 11 727 31 L966 632 C975 655 966 670 942 670 L855 670 C834 670 819 659 813 638 L659 203 L649 203 L613 639 C612 660 602 670 582 670 L503 670 C483 670 468 660 461 639 L287 203 L278 203 L261 638 C261 659 251 670 230 670 L137 670 C113 670 100 655 101 632 L150 31 C151 11 162 0 182 0 L182 0 Z " />
<glyph glyph-name="wcircumflex" unicode="&#x175;" horiz-adv-x="801" d="M308 551 L358 551 C374 551 387 556 400 569 L455 621 L463 621 L503 569 C511 556 522 551 538 551 L588 551 C613 551 625 568 614 589 L556 685 C549 698 538 704 522 704 L422 704 C406 704 393 698 382 685 L295 589 C278 568 283 551 308 551 L308 551 Z M150 0 L253 0 C271 0 285 10 292 28 L402 290 L412 290 L439 28 C439 10 450 0 468 0 L571 0 C590 0 603 9 611 27 L803 466 C812 487 804 500 785 500 L698 500 C679 500 666 490 660 471 L546 172 L536 172 L510 472 C510 491 500 500 482 500 L405 500 C386 500 373 491 367 472 L246 172 L236 172 L217 471 C218 490 208 500 189 500 L96 500 C77 500 64 487 67 466 L120 27 C121 9 131 0 150 0 L150 0 Z " />
<glyph glyph-name="Ycircumflex" unicode="&#x176;" horiz-adv-x="612" d="M240 721 L290 721 C306 721 319 726 332 739 L387 791 L395 791 L435 739 C443 726 454 721 470 721 L520 721 C545 721 557 738 546 759 L488 855 C481 868 470 874 454 874 L354 874 C338 874 325 868 314 855 L227 759 C210 738 215 721 240 721 L240 721 Z M227 0 L305 0 C328 0 342 12 346 35 L382 264 L636 629 C653 654 645 670 618 670 L528 670 C509 670 494 662 484 643 L342 424 L332 424 L258 643 C253 661 242 670 223 670 L128 670 C101 670 87 654 95 629 L234 263 L199 35 C195 12 205 0 227 0 L227 0 Z " />
<glyph glyph-name="ycircumflex" unicode="&#x177;" horiz-adv-x="528" d="M171 551 L221 551 C237 551 250 556 263 569 L318 621 L326 621 L366 569 C374 556 385 551 401 551 L451 551 C476 551 488 568 477 589 L419 685 C412 698 401 704 385 704 L285 704 C269 704 256 698 245 685 L158 589 C141 568 146 551 171 551 L171 551 Z M38 -180 L106 -180 C186 -180 242 -144 276 -71 L533 465 C543 486 535 500 515 500 L429 500 C411 500 397 491 391 472 L260 157 L245 157 L213 472 C213 491 203 500 185 500 L93 500 C74 500 60 486 63 465 L132 36 C134 21 143 15 158 15 L174 15 L151 -28 C139 -53 118 -64 90 -64 L56 -64 C36 -64 23 -75 20 -95 L11 -149 C8 -169 18 -180 38 -180 L38 -180 Z " />
<glyph glyph-name="Ydieresis" unicode="&#x178;" horiz-adv-x="612" d="M278 724 C324 724 358 755 366 801 C373 846 347 876 302 876 C256 876 221 846 213 801 C206 755 232 724 278 724 L278 724 Z M485 724 C530 724 565 755 572 801 C580 846 554 876 509 876 C463 876 427 846 420 801 C413 755 439 724 485 724 L485 724 Z M227 0 L305 0 C328 0 342 12 346 35 L382 264 L636 629 C653 654 645 670 618 670 L528 670 C509 670 494 662 484 643 L342 424 L332 424 L258 643 C253 661 242 670 223 670 L128 670 C101 670 87 654 95 629 L234 263 L199 35 C195 12 205 0 227 0 L227 0 Z " />
<glyph glyph-name="Zacute" unicode="&#x179;" horiz-adv-x="578" d="M335 721 L381 721 C397 721 409 726 422 738 L522 836 C544 856 537 874 511 874 L425 874 C408 874 395 867 385 851 L318 757 C304 737 311 721 335 721 L335 721 Z M45 0 L453 0 C475 0 490 12 494 35 L504 102 C507 124 497 136 475 136 L227 136 L228 144 L554 539 C565 553 572 565 575 582 L583 635 C587 658 577 670 555 670 L157 670 C135 670 120 658 116 635 L106 568 C103 546 113 534 135 534 L373 534 L371 526 L46 131 C35 117 28 105 25 88 L17 35 C13 12 23 0 45 0 L45 0 Z " />
<glyph glyph-name="zacute" unicode="&#x17a;" horiz-adv-x="492" d="M265 551 L311 551 C327 551 339 556 352 568 L452 666 C474 686 467 704 441 704 L355 704 C338 704 325 697 315 681 L248 587 C234 567 241 551 265 551 L265 551 Z M33 0 L379 0 C399 0 412 11 416 31 L426 96 C429 116 419 127 399 127 L216 127 L217 135 L451 379 C463 391 469 402 471 417 L479 469 C482 489 474 500 454 500 L118 500 C98 500 84 489 81 469 L71 404 C68 384 77 373 97 373 L270 373 L269 365 L36 121 C24 109 18 98 15 83 L7 31 C4 11 13 0 33 0 L33 0 Z " />
<glyph glyph-name="Zdotaccent" unicode="&#x17b;" horiz-adv-x="578" d="M365 724 C413 724 450 756 458 804 C465 852 439 884 390 884 C342 884 305 852 298 804 C290 756 317 724 365 724 L365 724 Z M45 0 L453 0 C475 0 490 12 494 35 L504 102 C507 124 497 136 475 136 L227 136 L228 144 L554 539 C565 553 572 565 575 582 L583 635 C587 658 577 670 555 670 L157 670 C135 670 120 658 116 635 L106 568 C103 546 113 534 135 534 L373 534 L371 526 L46 131 C35 117 28 105 25 88 L17 35 C13 12 23 0 45 0 L45 0 Z " />
<glyph glyph-name="zdotaccent" unicode="&#x17c;" horiz-adv-x="492" d="M295 554 C343 554 380 586 388 634 C395 682 369 714 320 714 C272 714 235 682 228 634 C220 586 247 554 295 554 L295 554 Z M33 0 L379 0 C399 0 412 11 416 31 L426 96 C429 116 419 127 399 127 L216 127 L217 135 L451 379 C463 391 469 402 471 417 L479 469 C482 489 474 500 454 500 L118 500 C98 500 84 489 81 469 L71 404 C68 384 77 373 97 373 L270 373 L269 365 L36 121 C24 109 18 98 15 83 L7 31 C4 11 13 0 33 0 L33 0 Z " />
<glyph glyph-name="Zcaron" unicode="&#x17d;" horiz-adv-x="578" d="M314 721 L414 721 C430 721 443 727 455 740 L541 836 C560 856 553 874 528 874 L478 874 C462 874 449 869 438 856 L381 804 L374 804 L334 856 C325 869 314 874 298 874 L248 874 C223 874 212 856 223 836 L280 740 C288 727 298 721 314 721 L314 721 Z M45 0 L453 0 C475 0 490 12 494 35 L504 102 C507 124 497 136 475 136 L227 136 L228 144 L554 539 C565 553 572 565 575 582 L583 635 C587 658 577 670 555 670 L157 670 C135 670 120 658 116 635 L106 568 C103 546 113 534 135 534 L373 534 L371 526 L46 131 C35 117 28 105 25 88 L17 35 C13 12 23 0 45 0 L45 0 Z " />
<glyph glyph-name="zcaron" unicode="&#x17e;" horiz-adv-x="492" d="M243 551 L343 551 C359 551 372 557 384 570 L470 666 C489 686 482 704 457 704 L407 704 C391 704 378 699 367 686 L310 634 L303 634 L263 686 C254 699 243 704 227 704 L177 704 C152 704 141 686 152 666 L209 570 C217 557 227 551 243 551 L243 551 Z M33 0 L379 0 C399 0 412 11 416 31 L426 96 C429 116 419 127 399 127 L216 127 L217 135 L451 379 C463 391 469 402 471 417 L479 469 C482 489 474 500 454 500 L118 500 C98 500 84 489 81 469 L71 404 C68 384 77 373 97 373 L270 373 L269 365 L36 121 C24 109 18 98 15 83 L7 31 C4 11 13 0 33 0 L33 0 Z " />
<glyph glyph-name="florin" unicode="&#x192;" horiz-adv-x="525" d="M499 670 L438 670 C347 670 287 614 263 528 L223 386 L146 386 C126 386 113 375 109 355 L100 292 C97 272 106 261 126 261 L189 261 L112 -14 C103 -45 84 -64 53 -64 L31 -64 C11 -64 -2 -75 -5 -95 L-14 -149 C-17 -169 -8 -180 12 -180 L73 -180 C165 -180 225 -124 248 -38 L331 261 L416 261 C436 261 449 272 452 292 L462 355 C465 375 456 386 436 386 L366 386 L399 504 C409 535 427 554 458 554 L480 554 C500 554 513 565 517 585 L525 639 C528 659 519 670 499 670 L499 670 Z " />
<glyph glyph-name="uni01C4" unicode="&#x1c4;" horiz-adv-x="1217" d="M919 740 C926 727 937 721 953 721 L1052 721 C1069 721 1082 727 1093 740 L1180 836 C1198 856 1192 874 1166 874 L1117 874 C1101 874 1088 869 1076 856 L1020 804 L1012 804 L973 856 C964 869 953 874 937 874 L887 874 C862 874 851 856 861 836 L919 740 Z M398 670 L178 670 C156 670 141 658 137 635 L43 35 C39 12 49 0 71 0 L291 0 C451 0 573 98 596 248 L624 422 C648 572 558 670 398 670 L398 670 Z M1194 670 L796 670 C774 670 759 658 755 635 L745 568 C742 546 752 534 774 534 L1012 534 L1010 526 L685 131 C674 117 667 105 664 88 L656 35 C652 12 662 0 684 0 L1092 0 C1114 0 1129 12 1133 35 L1143 102 C1146 124 1136 136 1114 136 L866 136 L867 144 L1193 539 C1204 553 1211 565 1214 582 L1222 635 C1226 658 1216 670 1194 670 L1194 670 Z M476 418 L450 252 C438 180 385 136 309 136 L206 136 L269 534 L372 534 C447 534 487 490 476 418 L476 418 Z " />
<glyph glyph-name="uni01C5" unicode="&#x1c5;" horiz-adv-x="1142" d="M861 570 C868 557 879 551 895 551 L994 551 C1010 551 1024 557 1035 570 L1122 666 C1140 686 1134 704 1108 704 L1058 704 C1042 704 1030 699 1018 686 L962 634 L954 634 L915 686 C906 699 895 704 879 704 L829 704 C803 704 793 686 803 666 L861 570 Z M398 670 L178 670 C156 670 141 658 137 635 L43 35 C39 12 49 0 71 0 L291 0 C451 0 573 98 596 248 L624 422 C648 572 558 670 398 670 L398 670 Z M476 418 L450 252 C438 180 385 136 309 136 L206 136 L269 534 L372 534 C447 534 487 490 476 418 L476 418 Z M1105 500 L769 500 C749 500 735 489 732 469 L722 404 C719 384 728 373 748 373 L921 373 L920 365 L687 121 C675 109 669 98 666 83 L658 31 C655 11 664 0 684 0 L1030 0 C1050 0 1063 11 1067 31 L1077 96 C1080 116 1070 127 1050 127 L867 127 L868 135 L1102 379 C1114 391 1120 402 1122 417 L1130 469 C1133 489 1125 500 1105 500 L1105 500 Z " />
<glyph glyph-name="uni01C6" unicode="&#x1c6;" horiz-adv-x="1039" d="M791 551 L890 551 C906 551 920 557 931 570 L1018 666 C1036 686 1030 704 1004 704 L954 704 C938 704 926 699 914 686 L858 634 L850 634 L811 686 C802 699 791 704 775 704 L725 704 C699 704 689 686 699 666 L757 570 C764 557 775 551 791 551 L791 551 Z M525 700 L447 700 C427 700 415 689 412 669 L374 430 L366 430 C354 478 310 512 245 512 C152 512 77 447 62 349 L31 151 C15 53 70 -12 163 -12 C228 -12 283 22 309 70 L317 70 L311 31 C308 11 316 0 336 0 L414 0 C434 0 448 11 451 31 L552 669 C555 689 545 700 525 700 L525 700 Z M580 0 L926 0 C946 0 959 11 963 31 L973 96 C976 116 966 127 946 127 L763 127 L764 135 L998 379 C1010 391 1016 402 1018 417 L1026 469 C1029 489 1021 500 1001 500 L665 500 C645 500 631 489 628 469 L618 404 C615 384 624 373 644 373 L817 373 L816 365 L583 121 C571 109 565 98 562 83 L554 31 C551 11 560 0 580 0 L580 0 Z M244 119 C197 119 170 148 177 193 L195 307 C202 352 238 381 285 381 C333 381 361 349 354 308 L336 192 C330 151 292 119 244 119 L244 119 Z " />
<glyph glyph-name="uni01C7" unicode="&#x1c7;" horiz-adv-x="1097" d="M436 136 L206 136 L285 635 C288 658 278 670 256 670 L178 670 C156 670 141 658 137 635 L43 35 C39 12 49 0 71 0 L414 0 C436 0 451 12 455 35 L465 102 C469 124 459 136 436 136 L436 136 Z M1063 670 L985 670 C962 670 947 658 944 635 L876 202 C868 155 829 124 779 124 C727 124 698 155 706 202 L707 213 C710 235 700 248 678 248 L600 248 C578 248 563 235 560 213 L557 199 C538 72 617 -12 757 -12 C897 -12 1003 72 1022 199 L1091 635 C1095 658 1085 670 1063 670 L1063 670 Z " />
<glyph glyph-name="uni01C8" unicode="&#x1c8;" horiz-adv-x="792" d="M737 725 C686 725 648 693 640 644 C632 597 660 564 712 564 C762 564 799 596 807 645 C815 693 787 725 737 725 L737 725 Z M455 35 L465 102 C469 124 459 136 436 136 L206 136 L285 635 C288 658 278 670 256 670 L178 670 C156 670 141 658 137 635 L43 35 C39 12 49 0 71 0 L414 0 C436 0 451 12 455 35 L455 35 Z M741 500 L663 500 C643 500 630 489 626 469 L551 -13 C545 -45 523 -64 492 -64 L469 -64 C449 -64 436 -75 433 -95 L424 -149 C421 -169 431 -180 451 -180 L512 -180 C604 -180 673 -124 686 -38 L766 469 C770 489 761 500 741 500 L741 500 Z " />
<glyph glyph-name="uni01C9" unicode="&#x1c9;" horiz-adv-x="573" d="M493 564 C543 564 580 596 588 645 C596 693 568 725 518 725 C467 725 429 693 421 644 C413 597 441 564 493 564 L493 564 Z M167 0 L204 0 C224 0 238 11 241 31 L253 109 C255 121 248 129 236 129 L226 129 C196 129 181 147 186 177 L263 669 C267 689 257 700 237 700 L159 700 C139 700 127 689 123 669 L40 140 C26 56 77 0 167 0 L167 0 Z M232 -180 L293 -180 C385 -180 454 -124 467 -38 L547 469 C551 489 542 500 522 500 L444 500 C424 500 411 489 407 469 L332 -13 C326 -45 304 -64 273 -64 L250 -64 C230 -64 217 -75 214 -95 L205 -149 C202 -169 212 -180 232 -180 L232 -180 Z " />
<glyph glyph-name="uni01CA" unicode="&#x1ca;" horiz-adv-x="1261" d="M67 0 L153 0 C173 0 186 11 190 31 L244 377 L245 424 L256 424 L389 24 C393 8 404 0 422 0 L538 0 C558 0 571 11 574 31 L670 639 C673 659 665 670 645 670 L559 670 C539 670 526 659 523 639 L468 293 L467 246 L456 246 L323 646 C319 662 308 670 290 670 L174 670 C154 670 141 659 138 639 L42 31 C39 11 47 0 67 0 L67 0 Z M920 -12 C1060 -12 1166 72 1185 199 L1254 635 C1258 658 1248 670 1226 670 L1148 670 C1125 670 1110 658 1107 635 L1039 202 C1031 155 992 124 942 124 C890 124 861 155 869 202 L870 213 C873 235 863 248 841 248 L763 248 C741 248 726 235 723 213 L720 199 C701 72 780 -12 920 -12 L920 -12 Z " />
<glyph glyph-name="uni01CB" unicode="&#x1cb;" horiz-adv-x="951" d="M870 564 C920 564 957 596 965 645 C973 693 945 725 895 725 C844 725 806 693 798 644 C790 597 818 564 870 564 L870 564 Z M67 0 L153 0 C173 0 186 11 190 31 L244 377 L245 424 L256 424 L389 24 C393 8 404 0 422 0 L538 0 C558 0 571 11 574 31 L670 639 C673 659 665 670 645 670 L559 670 C539 670 526 659 523 639 L468 293 L467 246 L456 246 L323 646 C319 662 308 670 290 670 L174 670 C154 670 141 659 138 639 L42 31 C39 11 47 0 67 0 L67 0 Z M609 -180 L670 -180 C762 -180 831 -124 844 -38 L924 469 C928 489 919 500 899 500 L821 500 C801 500 788 489 784 469 L709 -13 C703 -45 681 -64 650 -64 L627 -64 C607 -64 594 -75 591 -95 L582 -149 C579 -169 589 -180 609 -180 L609 -180 Z " />
<glyph glyph-name="uni01CC" unicode="&#x1cc;" horiz-adv-x="816" d="M735 564 C785 564 822 596 830 645 C838 693 810 725 760 725 C709 725 671 693 663 644 C655 597 683 564 735 564 L735 564 Z M386 512 C321 512 265 478 239 430 L231 430 L236 469 C240 489 231 500 211 500 L133 500 C113 500 100 489 96 469 L28 31 C24 11 33 0 53 0 L131 0 C151 0 164 11 168 31 L212 312 C218 350 254 381 302 381 C347 381 372 353 365 311 L321 31 C317 11 326 0 346 0 L424 0 C444 0 457 11 461 31 L514 365 C527 453 475 512 386 512 L386 512 Z M474 -180 L535 -180 C627 -180 696 -124 709 -38 L789 469 C793 489 784 500 764 500 L686 500 C666 500 653 489 649 469 L574 -13 C568 -45 546 -64 515 -64 L492 -64 C472 -64 459 -75 456 -95 L447 -149 C444 -169 454 -180 474 -180 L474 -180 Z " />
<glyph glyph-name="uni01CD" unicode="&#x1cd;" horiz-adv-x="649" d="M315 740 C323 727 333 721 349 721 L449 721 C465 721 478 727 490 740 L576 836 C595 856 588 874 563 874 L513 874 C497 874 484 869 473 856 L416 804 L409 804 L369 856 C360 869 349 874 333 874 L283 874 C258 874 247 856 258 836 L315 740 Z M498 640 C496 661 486 670 465 670 L318 670 C297 670 283 661 274 640 L0 39 C-10 14 -2 0 23 0 L114 0 C132 0 145 10 152 28 L193 127 L411 127 L422 28 C423 10 432 0 450 0 L546 0 C572 0 584 14 582 39 L498 640 Z M249 259 L359 522 L369 522 L397 259 L249 259 Z " />
<glyph glyph-name="uni01CE" unicode="&#x1ce;" horiz-adv-x="547" d="M271 551 L371 551 C387 551 400 557 412 570 L498 666 C517 686 510 704 485 704 L435 704 C419 704 406 699 395 686 L338 634 L331 634 L291 686 C282 699 271 704 255 704 L205 704 C180 704 169 686 180 666 L237 570 C245 557 255 551 271 551 L271 551 Z M494 500 L416 500 C396 500 383 489 380 469 L374 430 L366 430 C354 478 310 512 245 512 C152 512 77 447 62 349 L31 151 C15 53 70 -12 163 -12 C228 -12 283 22 309 70 L317 70 L311 31 C308 11 316 0 336 0 L414 0 C434 0 448 11 451 31 L520 469 C523 489 514 500 494 500 L494 500 Z M244 119 C197 119 170 148 177 193 L195 307 C202 352 238 381 285 381 C333 381 361 349 354 308 L336 192 C330 151 292 119 244 119 L244 119 Z " />
<glyph glyph-name="Gcaron" unicode="&#x1e6;" horiz-adv-x="639" d="M310 740 C318 727 328 721 344 721 L444 721 C460 721 473 727 485 740 L571 836 C590 856 583 874 558 874 L508 874 C492 874 479 869 468 856 L411 804 L404 804 L364 856 C355 869 344 874 328 874 L278 874 C253 874 242 856 253 836 L310 740 Z M388 682 C227 682 107 585 84 438 L51 232 C28 85 118 -12 279 -12 C438 -12 558 82 580 225 L597 327 C600 349 590 362 567 362 L384 362 C362 362 348 349 344 327 L336 280 C333 258 344 245 366 245 L436 245 L432 220 C423 158 369 117 299 117 C227 117 187 161 198 228 L231 435 C242 502 295 546 367 546 C427 546 465 515 466 460 C470 444 476 434 496 434 L582 434 C602 434 617 446 617 466 C625 603 539 682 388 682 L388 682 Z " />
<glyph glyph-name="gcaron" unicode="&#x1e7;" horiz-adv-x="544" d="M273 551 L373 551 C389 551 402 557 414 570 L500 666 C519 686 512 704 487 704 L437 704 C421 704 408 699 397 686 L340 634 L333 634 L293 686 C284 699 273 704 257 704 L207 704 C182 704 171 686 182 666 L239 570 C247 557 257 551 273 551 L273 551 Z M494 500 L416 500 C396 500 383 489 380 469 L374 430 L366 430 C354 478 310 512 245 512 C152 512 77 447 62 349 L35 178 C19 80 73 15 167 15 C229 15 286 47 312 94 L320 94 L304 -12 C297 -56 262 -86 214 -86 C179 -86 151 -72 148 -40 C143 -30 137 -23 122 -23 L41 -23 C25 -23 9 -35 10 -56 C10 -142 82 -192 199 -192 C332 -192 427 -121 442 -19 L520 469 C523 489 514 500 494 500 L494 500 Z M248 146 C201 146 174 175 182 220 L195 307 C202 352 238 381 285 381 C333 381 361 349 354 308 L340 219 C334 179 297 146 248 146 L248 146 Z " />
<glyph glyph-name="uni01EA" unicode="&#x1ea;" horiz-adv-x="649" d="M393 682 C229 682 107 583 83 433 L52 237 C30 102 103 8 237 -9 C198 -31 169 -70 163 -113 C152 -176 196 -218 272 -218 C297 -218 322 -215 337 -209 C349 -205 355 -196 356 -183 L364 -137 C367 -119 360 -114 346 -118 C340 -119 334 -120 329 -120 C305 -120 291 -104 295 -80 C300 -49 326 -19 362 -4 L363 -4 C485 23 573 113 593 237 L623 433 C647 583 555 682 393 682 L393 682 Z M476 430 L445 240 C434 170 378 124 305 124 C231 124 189 170 200 240 L230 430 C242 500 297 546 372 546 C445 546 487 500 476 430 L476 430 Z " />
<glyph glyph-name="uni01EB" unicode="&#x1eb;" horiz-adv-x="526" d="M304 512 C172 512 72 432 53 310 L33 190 C16 82 73 8 178 -9 C146 -31 122 -66 117 -104 C106 -167 150 -209 226 -209 C251 -209 276 -206 291 -200 C303 -196 309 -187 310 -174 L318 -128 C321 -110 314 -105 300 -109 C294 -110 288 -111 283 -111 C259 -111 245 -95 249 -71 C253 -44 274 -17 304 -1 C394 25 457 95 472 190 L492 310 C511 432 436 512 304 512 L304 512 Z M352 309 L333 191 C326 146 290 117 242 117 C194 117 167 146 174 191 L193 309 C200 354 237 383 285 383 C332 383 359 354 352 309 L352 309 Z " />
<glyph glyph-name="uni01F1" unicode="&#x1f1;" horiz-adv-x="1217" d="M398 670 L178 670 C156 670 141 658 137 635 L43 35 C39 12 49 0 71 0 L291 0 C451 0 573 98 596 248 L624 422 C648 572 558 670 398 670 L398 670 Z M1194 670 L796 670 C774 670 759 658 755 635 L745 568 C742 546 752 534 774 534 L1012 534 L1010 526 L685 131 C674 117 667 105 664 88 L656 35 C652 12 662 0 684 0 L1092 0 C1114 0 1129 12 1133 35 L1143 102 C1146 124 1136 136 1114 136 L866 136 L867 144 L1193 539 C1204 553 1211 565 1214 582 L1222 635 C1226 658 1216 670 1194 670 L1194 670 Z M476 418 L450 252 C438 180 385 136 309 136 L206 136 L269 534 L372 534 C447 534 487 490 476 418 L476 418 Z " />
<glyph glyph-name="uni01F2" unicode="&#x1f2;" horiz-adv-x="1142" d="M398 670 L178 670 C156 670 141 658 137 635 L43 35 C39 12 49 0 71 0 L291 0 C451 0 573 98 596 248 L624 422 C648 572 558 670 398 670 L398 670 Z M476 418 L450 252 C438 180 385 136 309 136 L206 136 L269 534 L372 534 C447 534 487 490 476 418 L476 418 Z M1105 500 L769 500 C749 500 735 489 732 469 L722 404 C719 384 728 373 748 373 L921 373 L920 365 L687 121 C675 109 669 98 666 83 L658 31 C655 11 664 0 684 0 L1030 0 C1050 0 1063 11 1067 31 L1077 96 C1080 116 1070 127 1050 127 L867 127 L868 135 L1102 379 C1114 391 1120 402 1122 417 L1130 469 C1133 489 1125 500 1105 500 L1105 500 Z " />
<glyph glyph-name="uni01F3" unicode="&#x1f3;" horiz-adv-x="1039" d="M525 700 L447 700 C427 700 415 689 412 669 L374 430 L366 430 C354 478 310 512 245 512 C152 512 77 447 62 349 L31 151 C15 53 70 -12 163 -12 C228 -12 283 22 309 70 L317 70 L311 31 C308 11 316 0 336 0 L414 0 C434 0 448 11 451 31 L552 669 C555 689 545 700 525 700 L525 700 Z M580 0 L926 0 C946 0 959 11 963 31 L973 96 C976 116 966 127 946 127 L763 127 L764 135 L998 379 C1010 391 1016 402 1018 417 L1026 469 C1029 489 1021 500 1001 500 L665 500 C645 500 631 489 628 469 L618 404 C615 384 624 373 644 373 L817 373 L816 365 L583 121 C571 109 565 98 562 83 L554 31 C551 11 560 0 580 0 L580 0 Z M244 119 C197 119 170 148 177 193 L195 307 C202 352 238 381 285 381 C333 381 361 349 354 308 L336 192 C330 151 292 119 244 119 L244 119 Z " />
<glyph glyph-name="uni01F4" unicode="&#x1f4;" horiz-adv-x="639" d="M365 721 L411 721 C427 721 439 726 452 738 L552 836 C574 856 567 874 541 874 L455 874 C438 874 425 867 415 851 L348 757 C334 737 341 721 365 721 L365 721 Z M388 682 C227 682 107 585 84 438 L51 232 C28 85 118 -12 279 -12 C438 -12 558 82 580 225 L597 327 C600 349 590 362 567 362 L384 362 C362 362 348 349 344 327 L336 280 C333 258 344 245 366 245 L436 245 L432 220 C423 158 369 117 299 117 C227 117 187 161 198 228 L231 435 C242 502 295 546 367 546 C427 546 465 515 466 460 C470 444 476 434 496 434 L582 434 C602 434 617 446 617 466 C625 603 539 682 388 682 L388 682 Z " />
<glyph glyph-name="uni01F5" unicode="&#x1f5;" horiz-adv-x="544" d="M295 551 L341 551 C357 551 369 556 382 568 L482 666 C504 686 497 704 471 704 L385 704 C368 704 355 697 345 681 L278 587 C264 567 271 551 295 551 L295 551 Z M494 500 L416 500 C396 500 383 489 380 469 L374 430 L366 430 C354 478 310 512 245 512 C152 512 77 447 62 349 L35 178 C19 80 73 15 167 15 C229 15 286 47 312 94 L320 94 L304 -12 C297 -56 262 -86 214 -86 C179 -86 151 -72 148 -40 C143 -30 137 -23 122 -23 L41 -23 C25 -23 9 -35 10 -56 C10 -142 82 -192 199 -192 C332 -192 427 -121 442 -19 L520 469 C523 489 514 500 494 500 L494 500 Z M248 146 C201 146 174 175 182 220 L195 307 C202 352 238 381 285 381 C333 381 361 349 354 308 L340 219 C334 179 297 146 248 146 L248 146 Z " />
<glyph glyph-name="AEacute" unicode="&#x1fc;" horiz-adv-x="891" d="M534 721 L580 721 C596 721 608 726 621 738 L721 836 C743 856 736 874 710 874 L624 874 C607 874 594 867 584 851 L517 757 C503 737 510 721 534 721 L534 721 Z M865 670 L394 670 C373 670 358 662 347 642 L-28 39 C-42 14 -35 0 -8 0 L85 0 C106 0 120 8 130 28 L189 127 L381 127 L367 35 C363 12 373 0 395 0 L758 0 C780 0 795 12 799 35 L809 102 C813 124 803 136 780 136 L530 136 L552 273 L763 273 C785 273 800 286 804 308 L813 368 C816 390 806 403 784 403 L572 403 L593 534 L843 534 C865 534 880 546 883 568 L893 635 C897 658 887 670 865 670 L865 670 Z M269 259 L434 534 L446 534 L402 259 L269 259 Z " />
<glyph glyph-name="aeacute" unicode="&#x1fd;" horiz-adv-x="814" d="M420 551 L466 551 C482 551 494 556 507 568 L607 666 C629 686 622 704 596 704 L510 704 C493 704 480 697 470 681 L403 587 C389 567 396 551 420 551 L420 551 Z M604 512 C533 512 468 485 437 445 L430 445 C409 485 355 512 282 512 C175 512 85 463 70 366 C67 346 75 335 95 335 L174 335 C190 335 199 343 206 360 C217 384 240 399 281 399 C326 399 352 373 345 333 L338 291 L204 291 C104 291 28 231 14 141 C-1 49 64 -12 180 -12 C257 -12 333 15 368 55 L375 55 C395 15 455 -12 531 -12 C638 -12 720 35 749 124 C756 145 744 156 726 156 L642 156 C626 156 617 148 610 136 C594 113 569 101 534 101 C482 101 454 131 461 176 L465 202 L733 202 C753 202 765 213 769 233 L781 314 C800 433 728 512 604 512 L604 512 Z M485 325 C492 370 528 399 576 399 C623 399 651 370 644 325 L639 297 L480 297 L485 325 Z M223 94 C178 94 151 116 156 148 C161 178 187 197 223 197 L324 197 L317 153 C312 118 274 94 223 94 L223 94 Z " />
<glyph glyph-name="Oslashacute" unicode="&#x1fe;" horiz-adv-x="649" d="M367 721 L413 721 C429 721 441 726 454 738 L554 836 C576 856 569 874 543 874 L457 874 C440 874 427 867 417 851 L350 757 C336 737 343 721 367 721 L367 721 Z M619 700 L589 700 C574 700 562 694 553 680 L531 650 C494 671 447 682 393 682 C229 682 107 583 83 433 L52 237 C41 167 55 107 90 64 L45 4 C31 -16 38 -30 57 -30 L86 -30 C101 -30 113 -24 123 -10 L145 19 C182 -1 229 -12 284 -12 C446 -12 569 87 593 237 L623 433 C634 503 620 563 585 606 L630 666 C645 686 638 700 619 700 L619 700 Z M200 240 L230 430 C242 500 297 546 372 546 C399 546 422 540 439 528 L199 209 C198 218 198 229 200 240 L200 240 Z M476 430 L445 240 C434 170 378 124 305 124 C278 124 254 130 237 142 L477 462 C478 452 478 441 476 430 L476 430 Z " />
<glyph glyph-name="oslashacute" unicode="&#x1ff;" horiz-adv-x="526" d="M290 551 L336 551 C352 551 364 556 377 568 L477 666 C499 686 492 704 466 704 L380 704 C363 704 350 697 340 681 L273 587 C259 567 266 551 290 551 L290 551 Z M492 495 C508 515 501 530 481 530 L459 530 C444 530 433 525 423 511 L407 491 C378 505 344 512 304 512 C172 512 72 432 53 310 L33 190 C24 131 37 82 67 47 L34 5 C18 -15 25 -30 45 -30 L67 -30 C82 -30 93 -24 103 -11 L119 9 C147 -5 182 -12 222 -12 C354 -12 453 68 472 190 L492 310 C501 369 488 418 458 453 L492 495 Z M174 191 L193 309 C200 354 237 383 285 383 C301 383 314 380 325 374 L173 172 C173 178 173 184 174 191 L174 191 Z M352 309 L333 191 C326 146 290 117 242 117 C226 117 212 120 201 127 L353 328 C353 322 353 316 352 309 L352 309 Z " />
<glyph glyph-name="uni0200" unicode="&#x200;" horiz-adv-x="649" d="M253 743 C259 727 270 721 287 721 L334 721 C356 721 370 736 365 757 L341 849 C337 866 327 874 309 874 L239 874 C215 874 203 857 213 837 L253 743 Z M451 743 C458 727 468 721 485 721 L533 721 C555 721 567 736 563 757 L540 849 C537 866 526 874 508 874 L438 874 C415 874 403 857 412 837 L451 743 Z M582 39 L498 640 C496 661 486 670 465 670 L318 670 C297 670 283 661 274 640 L0 39 C-10 14 -2 0 23 0 L114 0 C132 0 145 10 152 28 L193 127 L411 127 L422 28 C423 10 432 0 450 0 L546 0 C572 0 584 14 582 39 L582 39 Z M249 259 L359 522 L369 522 L397 259 L249 259 Z " />
<glyph glyph-name="uni0201" unicode="&#x201;" horiz-adv-x="547" d="M209 551 L256 551 C278 551 292 566 287 587 L263 679 C259 696 249 704 231 704 L161 704 C137 704 125 687 135 667 L175 573 C181 557 192 551 209 551 L209 551 Z M407 551 L455 551 C477 551 489 566 485 587 L462 679 C459 696 448 704 430 704 L360 704 C337 704 325 687 334 667 L373 573 C380 557 390 551 407 551 L407 551 Z M494 500 L416 500 C396 500 383 489 380 469 L374 430 L366 430 C354 478 310 512 245 512 C152 512 77 447 62 349 L31 151 C15 53 70 -12 163 -12 C228 -12 283 22 309 70 L317 70 L311 31 C308 11 316 0 336 0 L414 0 C434 0 448 11 451 31 L520 469 C523 489 514 500 494 500 L494 500 Z M244 119 C197 119 170 148 177 193 L195 307 C202 352 238 381 285 381 C333 381 361 349 354 308 L336 192 C330 151 292 119 244 119 L244 119 Z " />
<glyph glyph-name="uni0202" unicode="&#x202;" horiz-adv-x="649" d="M270 721 L324 721 C338 721 347 729 351 740 C359 767 380 780 409 780 C438 780 454 766 453 740 C455 729 460 721 474 721 L528 721 C548 721 563 733 563 755 C564 835 511 880 424 880 C335 880 270 834 245 754 C238 733 250 721 270 721 L270 721 Z M582 39 L498 640 C496 661 486 670 465 670 L318 670 C297 670 283 661 274 640 L0 39 C-10 14 -2 0 23 0 L114 0 C132 0 145 10 152 28 L193 127 L411 127 L422 28 C423 10 432 0 450 0 L546 0 C572 0 584 14 582 39 L582 39 Z M249 259 L359 522 L369 522 L397 259 L249 259 Z " />
<glyph glyph-name="uni0203" unicode="&#x203;" horiz-adv-x="547" d="M346 710 C257 710 192 664 167 584 C160 563 172 551 192 551 L246 551 C260 551 269 559 273 570 C281 597 302 610 331 610 C360 610 376 596 375 570 C377 559 382 551 396 551 L450 551 C470 551 485 563 485 585 C486 665 433 710 346 710 L346 710 Z M494 500 L416 500 C396 500 383 489 380 469 L374 430 L366 430 C354 478 310 512 245 512 C152 512 77 447 62 349 L31 151 C15 53 70 -12 163 -12 C228 -12 283 22 309 70 L317 70 L311 31 C308 11 316 0 336 0 L414 0 C434 0 448 11 451 31 L520 469 C523 489 514 500 494 500 L494 500 Z M244 119 C197 119 170 148 177 193 L195 307 C202 352 238 381 285 381 C333 381 361 349 354 308 L336 192 C330 151 292 119 244 119 L244 119 Z " />
<glyph glyph-name="uni0204" unicode="&#x204;" horiz-adv-x="562" d="M221 743 C227 727 238 721 255 721 L302 721 C324 721 338 736 333 757 L309 849 C305 866 295 874 277 874 L207 874 C183 874 171 857 181 837 L221 743 Z M419 743 C426 727 436 721 453 721 L501 721 C523 721 535 736 531 757 L508 849 C505 866 494 874 476 874 L406 874 C383 874 371 857 380 837 L419 743 Z M542 670 L177 670 C156 670 141 658 137 636 L42 34 C39 12 49 0 70 0 L435 0 C456 0 471 12 475 34 L485 101 C489 123 478 135 456 135 L206 135 L227 271 L439 271 C461 271 475 284 479 306 L489 370 C493 392 482 405 460 405 L249 405 L269 535 L520 535 C542 535 556 547 559 569 L570 636 C573 658 563 670 542 670 L542 670 Z " />
<glyph glyph-name="uni0205" unicode="&#x205;" horiz-adv-x="525" d="M164 573 C170 557 181 551 198 551 L245 551 C267 551 281 566 276 587 L252 679 C248 696 238 704 220 704 L150 704 C126 704 114 687 124 667 L164 573 Z M362 573 C369 557 379 551 396 551 L444 551 C466 551 478 566 474 587 L451 679 C448 696 437 704 419 704 L349 704 C326 704 314 687 323 667 L362 573 Z M304 512 C171 512 72 432 53 310 L33 190 C14 68 90 -12 225 -12 C343 -12 433 41 460 126 C466 146 454 156 436 156 L353 156 C335 156 328 148 319 135 C305 113 278 101 243 101 C192 101 164 131 172 176 L176 204 L444 204 C464 204 477 215 479 235 L491 308 C511 431 436 512 304 512 L304 512 Z M195 325 C202 370 238 399 286 399 C334 399 361 370 354 325 L350 300 L191 300 L195 325 Z " />
<glyph glyph-name="uni0206" unicode="&#x206;" horiz-adv-x="562" d="M238 721 L292 721 C306 721 315 729 319 740 C327 767 348 780 377 780 C406 780 422 766 421 740 C423 729 428 721 442 721 L496 721 C516 721 531 733 531 755 C532 835 479 880 392 880 C303 880 238 834 213 754 C206 733 218 721 238 721 L238 721 Z M542 670 L177 670 C156 670 141 658 137 636 L42 34 C39 12 49 0 70 0 L435 0 C456 0 471 12 475 34 L485 101 C489 123 478 135 456 135 L206 135 L227 271 L439 271 C461 271 475 284 479 306 L489 370 C493 392 482 405 460 405 L249 405 L269 535 L520 535 C542 535 556 547 559 569 L570 636 C573 658 563 670 542 670 L542 670 Z " />
<glyph glyph-name="uni0207" unicode="&#x207;" horiz-adv-x="525" d="M181 551 L235 551 C249 551 258 559 262 570 C270 597 291 610 320 610 C349 610 365 596 364 570 C366 559 371 551 385 551 L439 551 C459 551 474 563 474 585 C475 665 422 710 335 710 C246 710 181 664 156 584 C149 563 161 551 181 551 L181 551 Z M304 512 C171 512 72 432 53 310 L33 190 C14 68 90 -12 225 -12 C343 -12 433 41 460 126 C466 146 454 156 436 156 L353 156 C335 156 328 148 319 135 C305 113 278 101 243 101 C192 101 164 131 172 176 L176 204 L444 204 C464 204 477 215 479 235 L491 308 C511 431 436 512 304 512 L304 512 Z M195 325 C202 370 238 399 286 399 C334 399 361 370 354 325 L350 300 L191 300 L195 325 Z " />
<glyph glyph-name="uni0208" unicode="&#x208;" horiz-adv-x="300" d="M113 721 L160 721 C182 721 196 736 191 757 L167 849 C163 866 153 874 135 874 L65 874 C41 874 29 857 39 837 L79 743 C85 727 96 721 113 721 L113 721 Z M311 721 L359 721 C381 721 393 736 389 757 L366 849 C363 866 352 874 334 874 L264 874 C241 874 229 857 238 837 L277 743 C284 727 294 721 311 721 L311 721 Z M71 0 L149 0 C171 0 186 12 190 35 L285 635 C288 658 278 670 256 670 L178 670 C156 670 141 658 137 635 L43 35 C39 12 49 0 71 0 L71 0 Z " />
<glyph glyph-name="uni0209" unicode="&#x209;" horiz-adv-x="264" d="M68 551 L115 551 C137 551 151 566 146 587 L122 679 C118 696 108 704 90 704 L20 704 C-4 704 -16 687 -6 667 L34 573 C40 557 51 551 68 551 L68 551 Z M266 551 L314 551 C336 551 348 566 344 587 L321 679 C318 696 307 704 289 704 L219 704 C196 704 184 687 193 667 L232 573 C239 557 249 551 266 551 L266 551 Z M53 0 L131 0 C151 0 164 11 168 31 L236 469 C240 489 231 500 211 500 L133 500 C113 500 100 489 96 469 L28 31 C24 11 33 0 53 0 L53 0 Z " />
<glyph glyph-name="uni020A" unicode="&#x20a;" horiz-adv-x="300" d="M250 880 C161 880 96 834 71 754 C64 733 76 721 96 721 L150 721 C164 721 173 729 177 740 C185 767 206 780 235 780 C264 780 280 766 279 740 C281 729 286 721 300 721 L354 721 C374 721 389 733 389 755 C390 835 337 880 250 880 L250 880 Z M71 0 L149 0 C171 0 186 12 190 35 L285 635 C288 658 278 670 256 670 L178 670 C156 670 141 658 137 635 L43 35 C39 12 49 0 71 0 L71 0 Z " />
<glyph glyph-name="uni020B" unicode="&#x20b;" horiz-adv-x="264" d="M205 710 C116 710 51 664 26 584 C19 563 31 551 51 551 L105 551 C119 551 128 559 132 570 C140 597 161 610 190 610 C219 610 235 596 234 570 C236 559 241 551 255 551 L309 551 C329 551 344 563 344 585 C345 665 292 710 205 710 L205 710 Z M53 0 L131 0 C151 0 164 11 168 31 L236 469 C240 489 231 500 211 500 L133 500 C113 500 100 489 96 469 L28 31 C24 11 33 0 53 0 L53 0 Z " />
<glyph glyph-name="uni020C" unicode="&#x20c;" horiz-adv-x="649" d="M287 721 L334 721 C356 721 370 736 365 757 L341 849 C337 866 327 874 309 874 L239 874 C215 874 203 857 213 837 L253 743 C259 727 270 721 287 721 L287 721 Z M485 721 L533 721 C555 721 567 736 563 757 L540 849 C537 866 526 874 508 874 L438 874 C415 874 403 857 412 837 L451 743 C458 727 468 721 485 721 L485 721 Z M284 -12 C446 -12 569 87 593 237 L623 433 C647 583 555 682 393 682 C229 682 107 583 83 433 L52 237 C28 87 120 -12 284 -12 L284 -12 Z M305 124 C231 124 189 170 200 240 L230 430 C242 500 297 546 372 546 C445 546 487 500 476 430 L445 240 C434 170 378 124 305 124 L305 124 Z " />
<glyph glyph-name="uni020D" unicode="&#x20d;" horiz-adv-x="526" d="M198 551 L245 551 C267 551 281 566 276 587 L252 679 C248 696 238 704 220 704 L150 704 C126 704 114 687 124 667 L164 573 C170 557 181 551 198 551 L198 551 Z M396 551 L444 551 C466 551 478 566 474 587 L451 679 C448 696 437 704 419 704 L349 704 C326 704 314 687 323 667 L362 573 C369 557 379 551 396 551 L396 551 Z M222 -12 C354 -12 453 68 472 190 L492 310 C511 432 436 512 304 512 C172 512 72 432 53 310 L33 190 C14 68 90 -12 222 -12 L222 -12 Z M242 117 C194 117 167 146 174 191 L193 309 C200 354 237 383 285 383 C332 383 359 354 352 309 L333 191 C326 146 290 117 242 117 L242 117 Z " />
<glyph glyph-name="uni020E" unicode="&#x20e;" horiz-adv-x="649" d="M424 880 C335 880 270 834 245 754 C238 733 250 721 270 721 L324 721 C338 721 347 729 351 740 C359 767 380 780 409 780 C438 780 454 766 453 740 C455 729 460 721 474 721 L528 721 C548 721 563 733 563 755 C564 835 511 880 424 880 L424 880 Z M284 -12 C446 -12 569 87 593 237 L623 433 C647 583 555 682 393 682 C229 682 107 583 83 433 L52 237 C28 87 120 -12 284 -12 L284 -12 Z M305 124 C231 124 189 170 200 240 L230 430 C242 500 297 546 372 546 C445 546 487 500 476 430 L445 240 C434 170 378 124 305 124 L305 124 Z " />
<glyph glyph-name="uni020F" unicode="&#x20f;" horiz-adv-x="526" d="M335 710 C246 710 181 664 156 584 C149 563 161 551 181 551 L235 551 C249 551 258 559 262 570 C270 597 291 610 320 610 C349 610 365 596 364 570 C366 559 371 551 385 551 L439 551 C459 551 474 563 474 585 C475 665 422 710 335 710 L335 710 Z M222 -12 C354 -12 453 68 472 190 L492 310 C511 432 436 512 304 512 C172 512 72 432 53 310 L33 190 C14 68 90 -12 222 -12 L222 -12 Z M242 117 C194 117 167 146 174 191 L193 309 C200 354 237 383 285 383 C332 383 359 354 352 309 L333 191 C326 146 290 117 242 117 L242 117 Z " />
<glyph glyph-name="uni0210" unicode="&#x210;" horiz-adv-x="640" d="M253 743 C259 727 270 721 287 721 L334 721 C356 721 370 736 365 757 L341 849 C337 866 327 874 309 874 L239 874 C215 874 203 857 213 837 L253 743 Z M451 743 C458 727 468 721 485 721 L533 721 C555 721 567 736 563 757 L540 849 C537 866 526 874 508 874 L438 874 C415 874 403 857 412 837 L451 743 Z M630 444 C651 582 576 670 440 670 L178 670 C156 670 141 658 137 635 L43 35 C39 12 49 0 71 0 L149 0 C171 0 186 12 190 35 L218 212 L323 212 L391 27 C398 6 408 0 429 0 L527 0 C554 0 566 16 556 41 L474 233 C556 268 613 344 630 444 L630 444 Z M481 441 C473 383 431 348 373 348 L240 348 L269 534 L403 534 C460 534 490 498 481 441 L481 441 Z " />
<glyph glyph-name="uni0211" unicode="&#x211;" horiz-adv-x="382" d="M142 551 L189 551 C211 551 225 566 220 587 L196 679 C192 696 182 704 164 704 L94 704 C70 704 58 687 68 667 L108 573 C114 557 125 551 142 551 L142 551 Z M340 551 L388 551 C410 551 422 566 418 587 L395 679 C392 696 381 704 363 704 L293 704 C270 704 258 687 267 667 L306 573 C313 557 323 551 340 551 L340 551 Z M364 511 C304 507 264 476 236 416 L228 416 L236 469 C240 489 231 500 211 500 L133 500 C113 500 100 489 96 469 L28 31 C24 11 33 0 53 0 L131 0 C151 0 164 11 168 31 L203 255 C214 324 259 368 343 368 C363 368 376 380 379 399 L392 480 C395 500 386 513 364 511 L364 511 Z " />
<glyph glyph-name="uni0212" unicode="&#x212;" horiz-adv-x="640" d="M270 721 L324 721 C338 721 347 729 351 740 C359 767 380 780 409 780 C438 780 454 766 453 740 C455 729 460 721 474 721 L528 721 C548 721 563 733 563 755 C564 835 511 880 424 880 C335 880 270 834 245 754 C238 733 250 721 270 721 L270 721 Z M630 444 C651 582 576 670 440 670 L178 670 C156 670 141 658 137 635 L43 35 C39 12 49 0 71 0 L149 0 C171 0 186 12 190 35 L218 212 L323 212 L391 27 C398 6 408 0 429 0 L527 0 C554 0 566 16 556 41 L474 233 C556 268 613 344 630 444 L630 444 Z M481 441 C473 383 431 348 373 348 L240 348 L269 534 L403 534 C460 534 490 498 481 441 L481 441 Z " />
<glyph glyph-name="uni0213" unicode="&#x213;" horiz-adv-x="382" d="M279 710 C190 710 125 664 100 584 C93 563 105 551 125 551 L179 551 C193 551 202 559 206 570 C214 597 235 610 264 610 C293 610 309 596 308 570 C310 559 315 551 329 551 L383 551 C403 551 418 563 418 585 C419 665 366 710 279 710 L279 710 Z M364 511 C304 507 264 476 236 416 L228 416 L236 469 C240 489 231 500 211 500 L133 500 C113 500 100 489 96 469 L28 31 C24 11 33 0 53 0 L131 0 C151 0 164 11 168 31 L203 255 C214 324 259 368 343 368 C363 368 376 380 379 399 L392 480 C395 500 386 513 364 511 L364 511 Z " />
<glyph glyph-name="uni0214" unicode="&#x214;" horiz-adv-x="654" d="M290 721 L337 721 C359 721 373 736 368 757 L344 849 C340 866 330 874 312 874 L242 874 C218 874 206 857 216 837 L256 743 C262 727 273 721 290 721 L290 721 Z M488 721 L536 721 C558 721 570 736 566 757 L543 849 C540 866 529 874 511 874 L441 874 C418 874 406 857 415 837 L454 743 C461 727 471 721 488 721 L488 721 Z M287 -12 C443 -12 561 83 584 227 L648 635 C652 658 642 670 620 670 L542 670 C519 670 504 658 501 635 L437 230 C427 166 375 124 308 124 C240 124 202 166 212 230 L275 635 C279 658 269 670 247 670 L169 670 C146 670 132 658 128 635 L63 227 C40 83 129 -12 287 -12 L287 -12 Z " />
<glyph glyph-name="uni0215" unicode="&#x215;" horiz-adv-x="543" d="M204 551 L251 551 C273 551 287 566 282 587 L258 679 C254 696 244 704 226 704 L156 704 C132 704 120 687 130 667 L170 573 C176 557 187 551 204 551 L204 551 Z M402 551 L450 551 C472 551 484 566 480 587 L457 679 C454 696 443 704 425 704 L355 704 C332 704 320 687 329 667 L368 573 C375 557 385 551 402 551 L402 551 Z M490 500 L412 500 C392 500 379 489 376 469 L331 186 C325 148 291 119 245 119 C203 119 180 146 186 187 L231 469 C234 489 225 500 205 500 L127 500 C107 500 94 489 91 469 L38 134 C24 46 75 -12 162 -12 C226 -12 279 22 304 70 L312 70 L307 31 C304 11 312 0 332 0 L410 0 C430 0 444 11 447 31 L516 469 C519 489 510 500 490 500 L490 500 Z " />
<glyph glyph-name="uni0216" unicode="&#x216;" horiz-adv-x="654" d="M427 880 C338 880 273 834 248 754 C241 733 253 721 273 721 L327 721 C341 721 350 729 354 740 C362 767 383 780 412 780 C441 780 457 766 456 740 C458 729 463 721 477 721 L531 721 C551 721 566 733 566 755 C567 835 514 880 427 880 L427 880 Z M287 -12 C443 -12 561 83 584 227 L648 635 C652 658 642 670 620 670 L542 670 C519 670 504 658 501 635 L437 230 C427 166 375 124 308 124 C240 124 202 166 212 230 L275 635 C279 658 269 670 247 670 L169 670 C146 670 132 658 128 635 L63 227 C40 83 129 -12 287 -12 L287 -12 Z " />
<glyph glyph-name="uni0217" unicode="&#x217;" horiz-adv-x="543" d="M341 710 C252 710 187 664 162 584 C155 563 167 551 187 551 L241 551 C255 551 264 559 268 570 C276 597 297 610 326 610 C355 610 371 596 370 570 C372 559 377 551 391 551 L445 551 C465 551 480 563 480 585 C481 665 428 710 341 710 L341 710 Z M490 500 L412 500 C392 500 379 489 376 469 L331 186 C325 148 291 119 245 119 C203 119 180 146 186 187 L231 469 C234 489 225 500 205 500 L127 500 C107 500 94 489 91 469 L38 134 C24 46 75 -12 162 -12 C226 -12 279 22 304 70 L312 70 L307 31 C304 11 312 0 332 0 L410 0 C430 0 444 11 447 31 L516 469 C519 489 510 500 490 500 L490 500 Z " />
<glyph glyph-name="uni0218" unicode="&#x218;" horiz-adv-x="593" d="M258 -12 C412 -12 525 67 545 194 C584 441 222 377 241 498 C247 538 291 562 342 562 C389 562 420 543 425 504 C428 489 434 479 455 479 L542 479 C564 479 580 491 581 514 C582 622 501 682 362 682 C215 682 102 609 83 484 C44 242 406 299 386 177 C379 135 331 108 276 108 C222 108 189 129 186 175 C183 193 178 203 157 203 L67 203 C45 203 29 190 28 167 C26 53 112 -12 258 -12 L258 -12 Z M148 -234 L190 -234 C207 -234 219 -227 231 -212 L309 -88 C324 -67 317 -51 293 -51 L212 -51 C194 -51 180 -60 173 -78 L127 -200 C119 -221 127 -234 148 -234 L148 -234 Z " />
<glyph glyph-name="uni0219" unicode="&#x219;" horiz-adv-x="478" d="M200 -12 C327 -12 416 49 432 151 C462 340 182 285 195 366 C198 390 223 406 261 406 C289 406 306 396 316 375 C321 364 325 354 343 354 L425 354 C443 354 458 366 457 386 C454 467 386 512 275 512 C156 512 67 457 51 355 C22 168 301 219 288 137 C285 111 257 94 216 94 C182 94 160 106 154 132 C151 147 147 155 127 155 L45 155 C27 155 11 143 13 122 C15 37 85 -12 200 -12 L200 -12 Z M89 -234 L131 -234 C148 -234 160 -227 172 -212 L250 -88 C265 -67 258 -51 234 -51 L153 -51 C135 -51 121 -60 114 -78 L68 -200 C60 -221 68 -234 89 -234 L89 -234 Z " />
<glyph glyph-name="uni021A" unicode="&#x21a;" horiz-adv-x="569" d="M567 670 L135 670 C113 670 98 658 94 635 L84 568 C81 546 91 534 113 534 L256 534 L177 35 C173 12 183 0 206 0 L284 0 C306 0 321 12 325 35 L403 534 L545 534 C567 534 582 546 585 568 L595 635 C599 658 589 670 567 670 L567 670 Z M280 -51 L199 -51 C181 -51 167 -60 160 -78 L114 -200 C106 -221 114 -234 135 -234 L177 -234 C194 -234 206 -227 218 -212 L296 -88 C311 -67 304 -51 280 -51 L280 -51 Z " />
<glyph glyph-name="uni021B" unicode="&#x21b;" horiz-adv-x="399" d="M368 500 L288 500 L304 599 C307 619 298 630 278 630 L209 630 C189 630 177 619 174 599 L164 539 C160 515 144 500 119 500 L94 500 C76 500 64 490 61 472 L51 406 C47 386 56 375 76 375 L129 375 L92 142 C78 56 129 0 221 0 L282 0 C302 0 316 11 319 31 L329 98 C332 118 323 129 303 129 L280 129 C248 129 232 148 238 179 L269 375 L348 375 C368 375 381 386 384 406 L394 469 C397 489 388 500 368 500 L368 500 Z M216 -51 L135 -51 C117 -51 103 -60 96 -78 L50 -200 C42 -221 50 -234 71 -234 L113 -234 C130 -234 142 -227 154 -212 L232 -88 C247 -67 240 -51 216 -51 L216 -51 Z " />
<glyph glyph-name="uni0232" unicode="&#x232;" horiz-adv-x="612" d="M265 739 L502 739 C522 739 535 750 538 770 L546 817 C549 837 539 848 519 848 L283 848 C263 848 250 837 247 817 L240 770 C237 750 245 739 265 739 L265 739 Z M227 0 L305 0 C328 0 342 12 346 35 L382 264 L636 629 C653 654 645 670 618 670 L528 670 C509 670 494 662 484 643 L342 424 L332 424 L258 643 C253 661 242 670 223 670 L128 670 C101 670 87 654 95 629 L234 263 L199 35 C195 12 205 0 227 0 L227 0 Z " />
<glyph glyph-name="uni0233" unicode="&#x233;" horiz-adv-x="528" d="M196 569 L433 569 C453 569 466 580 469 600 L477 647 C480 667 470 678 450 678 L214 678 C194 678 181 667 178 647 L171 600 C168 580 176 569 196 569 L196 569 Z M38 -180 L106 -180 C186 -180 242 -144 276 -71 L533 465 C543 486 535 500 515 500 L429 500 C411 500 397 491 391 472 L260 157 L245 157 L213 472 C213 491 203 500 185 500 L93 500 C74 500 60 486 63 465 L132 36 C134 21 143 15 158 15 L174 15 L151 -28 C139 -53 118 -64 90 -64 L56 -64 C36 -64 23 -75 20 -95 L11 -149 C8 -169 18 -180 38 -180 L38 -180 Z " />
<glyph glyph-name="uni0237" unicode="&#x237;" horiz-adv-x="264" d="M-76 -180 L-15 -180 C77 -180 146 -124 159 -38 L239 469 C243 489 234 500 214 500 L136 500 C116 500 103 489 99 469 L24 -13 C18 -45 -4 -64 -35 -64 L-58 -64 C-78 -64 -91 -75 -94 -95 L-103 -149 C-106 -169 -96 -180 -76 -180 L-76 -180 Z " />
<glyph glyph-name="uni02BC" unicode="&#x2bc;" horiz-adv-x="127" d="M69 487 L110 487 C128 487 141 496 147 515 L183 637 C190 658 181 670 160 670 L98 670 C78 670 65 659 61 639 L43 518 C39 498 49 487 69 487 L69 487 Z " />
<glyph glyph-name="circumflex" unicode="&#x2c6;" horiz-adv-x="371" d="M93 551 L143 551 C159 551 172 556 185 569 L240 621 L248 621 L288 569 C296 556 307 551 323 551 L373 551 C398 551 410 568 399 589 L341 685 C334 698 323 704 307 704 L207 704 C191 704 178 698 167 685 L80 589 C63 568 68 551 93 551 L93 551 Z " />
<glyph glyph-name="caron" unicode="&#x2c7;" horiz-adv-x="371" d="M183 551 L283 551 C299 551 312 557 324 570 L410 666 C429 686 422 704 397 704 L347 704 C331 704 318 699 307 686 L250 634 L243 634 L203 686 C194 699 183 704 167 704 L117 704 C92 704 81 686 92 666 L149 570 C157 557 167 551 183 551 L183 551 Z " />
<glyph glyph-name="breve" unicode="&#x2d8;" horiz-adv-x="323" d="M209 543 C295 543 362 588 386 669 C393 690 382 703 362 703 L308 703 C294 703 285 695 281 683 C273 658 253 643 224 643 C195 643 179 656 179 683 C177 695 172 703 158 703 L104 703 C84 703 69 691 68 670 C67 590 120 543 209 543 L209 543 Z " />
</font>
</svg>
