<svg width="400" height="300" viewBox="0 0 800 600" fill="none" xmlns="http://www.w3.org/2000/svg" data-reactroot="">
<path d="M499 31.5945C499.222 31.4835 499.555 31.3725 499.777 31.1506C500.11 30.9286 500.443 30.8176 500.776 30.8176C501.109 30.7066 501.553 30.7066 501.886 30.8176C502.219 30.9286 502.552 31.0396 502.885 31.3725C503.218 31.5945 503.44 31.8165 503.662 32.1495C503.773 32.3715 503.884 32.5935 503.995 32.8155C504.106 33.3705 504.106 33.8144 503.995 34.3694C503.884 34.5914 503.773 34.8134 503.662 35.0354C503.44 35.4794 503.107 35.8123 502.663 36.0343C502.441 36.1453 502.108 36.2563 501.886 36.4783C501.553 36.7003 501.22 36.8113 500.887 36.8113C500.554 36.9223 500.11 36.9223 499.777 36.8113C499.222 36.7003 498.889 36.4783 498.667 36.2563C498.334 36.0343 498.112 35.8123 497.89 35.4793C497.779 35.2574 497.668 35.0354 497.557 34.8134C497.446 34.2584 497.446 33.8144 497.557 33.2595C497.668 33.0375 497.779 32.8155 497.89 32.5935C498.223 32.1495 498.556 31.8165 499 31.5945Z" fill="black" fill-opacity="0.19"></path>
<path d="M527.192 44.2455C530.855 44.2455 530.855 49.9062 527.192 49.9062C523.53 49.9062 523.53 44.2455 527.192 44.2455Z" fill="black" fill-opacity="0.19"></path>
<path d="M568.372 31.4838C572.035 31.4838 572.035 37.1445 568.372 37.1445C564.709 37.0335 564.709 31.4838 568.372 31.4838Z" fill="black" fill-opacity="0.19"></path>
<path d="M658.61 36.8119C662.273 36.8119 662.273 42.4727 658.61 42.4727C654.948 42.4727 654.948 36.8119 658.61 36.8119Z" fill="black" fill-opacity="0.19"></path>
<path d="M677.258 28.265C680.92 28.265 680.92 33.9258 677.258 33.9258C673.706 33.9258 673.706 28.265 677.258 28.265Z" fill="black" fill-opacity="0.19"></path>
<path d="M636.189 35.3666C639.852 35.3666 639.852 41.0273 636.189 41.0273C632.526 41.0273 632.526 35.3666 636.189 35.3666Z" fill="black" fill-opacity="0.19"></path>
<path d="M662.828 56.9018C666.491 56.9018 666.491 62.5625 662.828 62.5625C659.165 62.5625 659.165 56.9018 662.828 56.9018Z" fill="black" fill-opacity="0.19"></path>
<path d="M686.359 67.1127C690.022 67.1127 690.022 72.7734 686.359 72.7734C682.696 72.7734 682.696 67.1127 686.359 67.1127Z" fill="black" fill-opacity="0.19"></path>
<path d="M689.467 48.0229C693.13 48.0229 693.13 53.6836 689.467 53.6836C685.804 53.6836 685.804 48.0229 689.467 48.0229Z" fill="black" fill-opacity="0.19"></path>
<path d="M583.245 42.0268C586.908 42.0268 586.908 47.6875 583.245 47.6875C579.693 47.6875 579.693 42.0268 583.245 42.0268Z" fill="black" fill-opacity="0.19"></path>
<path d="M618.43 47.0229C622.093 47.0229 622.093 52.6836 618.43 52.6836C614.767 52.6836 614.767 47.0229 618.43 47.0229Z" fill="black" fill-opacity="0.19"></path>
<path d="M610.216 29.8158C613.879 29.8158 613.879 35.4766 610.216 35.4766C606.553 35.4766 606.553 29.8158 610.216 29.8158Z" fill="black" fill-opacity="0.19"></path>
<path d="M708.336 33.3705C711.999 33.3705 711.999 39.0312 708.336 39.0312C704.673 39.0312 704.673 33.3705 708.336 33.3705Z" fill="black" fill-opacity="0.19"></path>
<path d="M714.218 58.9018C717.881 58.9018 717.881 64.5625 714.218 64.5625C710.555 64.5625 710.555 58.9018 714.218 58.9018Z" fill="black" fill-opacity="0.19"></path>
<path d="M741.19 54.5697C744.853 54.5697 744.853 60.2305 741.19 60.2305C737.638 60.2305 737.638 54.5697 741.19 54.5697Z" fill="black" fill-opacity="0.19"></path>
<path d="M762.834 69.6674C766.497 69.6674 766.497 75.3281 762.834 75.3281C759.282 75.3281 759.282 69.6674 762.834 69.6674Z" fill="black" fill-opacity="0.19"></path>
<path d="M767.427 103.203C771.089 103.203 771.089 108.863 767.427 108.863C763.875 108.863 763.875 103.203 767.427 103.203Z" fill="black" fill-opacity="0.19"></path>
<path d="M787.253 38.1986C790.916 38.1986 790.916 43.8594 787.253 43.8594C783.701 43.8594 783.701 38.1986 787.253 38.1986Z" fill="black" fill-opacity="0.19"></path>
<path d="M787.253 71.8861C790.916 71.8861 790.916 77.5469 787.253 77.5469C783.701 77.5469 783.701 71.8861 787.253 71.8861Z" fill="black" fill-opacity="0.19"></path>
<path d="M741.19 36.9213C744.853 36.9213 744.853 42.582 741.19 42.582C737.638 42.582 737.638 36.9213 741.19 36.9213Z" fill="black" fill-opacity="0.19"></path>
<path d="M764.721 33.8158C768.384 33.8158 768.384 39.4766 764.721 39.4766C761.169 39.4766 761.169 33.8158 764.721 33.8158Z" fill="black" fill-opacity="0.19"></path>
<path d="M736.085 74.5502C739.748 74.5502 739.748 80.2109 736.085 80.2109C732.533 80.2109 732.533 74.5502 736.085 74.5502Z" fill="black" fill-opacity="0.19"></path>
<path d="M786.559 121.367C790.222 121.367 790.222 127.027 786.559 127.027C783.007 127.027 783.007 121.367 786.559 121.367Z" fill="black" fill-opacity="0.19"></path>
<path d="M781.148 87.2065C784.811 87.2065 784.811 92.8672 781.148 92.8672C777.596 92.8672 777.596 87.2065 781.148 87.2065Z" fill="black" fill-opacity="0.19"></path>
<path d="M778.485 55.3471C782.147 55.3471 782.147 61.0078 778.485 61.0078C774.822 61.0078 774.822 55.3471 778.485 55.3471Z" fill="black" fill-opacity="0.19"></path>
<path d="M524.418 28.265C528.081 28.265 528.081 33.9258 524.418 33.9258C520.866 33.9258 520.866 28.265 524.418 28.265Z" fill="black" fill-opacity="0.19"></path>
<path d="M551.501 33.3705C555.163 33.3705 555.163 39.0312 551.501 39.0312C547.838 39.0312 547.838 33.3705 551.501 33.3705Z" fill="black" fill-opacity="0.19"></path>
<path d="M129.734 554.106C133.397 554.106 133.397 548.445 129.734 548.445C126.071 548.445 126.071 554.106 129.734 554.106Z" fill="#f1f1e6"></path>
<path d="M148.381 562.653C152.044 562.653 152.044 556.992 148.381 556.992C144.829 556.992 144.829 562.653 148.381 562.653Z" fill="#f1f1e6"></path>
<path d="M107.313 555.551C110.975 555.551 110.975 549.891 107.313 549.891C103.65 549.891 103.65 555.551 107.313 555.551Z" fill="#f1f1e6"></path>
<path d="M133.951 534.016C137.614 534.016 137.614 528.355 133.951 528.355C130.289 528.355 130.289 534.016 133.951 534.016Z" fill="#f1f1e6"></path>
<path d="M157.482 523.805C161.145 523.805 161.145 518.145 157.482 518.145C153.82 518.145 153.82 523.805 157.482 523.805Z" fill="#f1f1e6"></path>
<path d="M160.59 542.895C164.253 542.895 164.253 537.234 160.59 537.234C156.927 537.234 156.927 542.895 160.59 542.895Z" fill="#f1f1e6"></path>
<path d="M54.3682 548.891C58.031 548.891 58.031 543.23 54.3682 543.23C50.8164 543.23 50.8164 548.891 54.3682 548.891Z" fill="#f1f1e6"></path>
<path d="M89.5535 543.895C93.2163 543.895 93.2163 538.234 89.5535 538.234C85.8907 538.234 85.8907 543.895 89.5535 543.895Z" fill="#f1f1e6"></path>
<path d="M81.3394 561.102C85.0022 561.102 85.0022 555.441 81.3394 555.441C77.6766 555.441 77.6766 561.102 81.3394 561.102Z" fill="#f1f1e6"></path>
<path d="M179.459 557.547C183.122 557.547 183.122 551.887 179.459 551.887C175.796 551.887 175.796 557.547 179.459 557.547Z" fill="#f1f1e6"></path>
<path d="M185.342 532.016C189.004 532.016 189.004 526.355 185.342 526.355C181.679 526.355 181.679 532.016 185.342 532.016Z" fill="#f1f1e6"></path>
<path d="M212.313 536.348C215.976 536.348 215.976 530.688 212.313 530.688C208.761 530.688 208.761 536.348 212.313 536.348Z" fill="#f1f1e6"></path>
<path d="M233.957 521.251C237.62 521.251 237.62 515.59 233.957 515.59C230.405 515.59 230.405 521.251 233.957 521.251Z" fill="#f1f1e6"></path>
<path d="M238.55 487.715C242.213 487.715 242.213 482.055 238.55 482.055C234.998 482.055 234.998 487.715 238.55 487.715Z" fill="#f1f1e6"></path>
<path d="M258.376 552.719C262.039 552.719 262.039 547.059 258.376 547.059C254.824 547.059 254.824 552.719 258.376 552.719Z" fill="#f1f1e6"></path>
<path d="M258.376 519.032C262.039 519.032 262.039 513.371 258.376 513.371C254.824 513.371 254.824 519.032 258.376 519.032Z" fill="#f1f1e6"></path>
<path d="M212.313 553.993C215.976 553.993 215.976 548.332 212.313 548.332C208.761 548.332 208.761 553.993 212.313 553.993Z" fill="#f1f1e6"></path>
<path d="M235.845 557.102C239.507 557.102 239.507 551.441 235.845 551.441C232.293 551.441 232.293 557.102 235.845 557.102Z" fill="#f1f1e6"></path>
<path d="M207.208 516.368C210.871 516.368 210.871 510.707 207.208 510.707C203.656 510.707 203.656 516.368 207.208 516.368Z" fill="#f1f1e6"></path>
<path d="M257.682 469.551C261.345 469.551 261.345 463.891 257.682 463.891C254.131 463.891 254.131 469.551 257.682 469.551Z" fill="#f1f1e6"></path>
<path d="M252.272 503.712C255.934 503.712 255.934 498.051 252.272 498.051C248.72 498.051 248.72 503.712 252.272 503.712Z" fill="#f1f1e6"></path>
<path d="M249.608 535.571C253.271 535.571 253.271 529.91 249.608 529.91C245.945 529.91 245.945 535.571 249.608 535.571Z" fill="#f1f1e6"></path>
<path d="M740.626 580.456H667.369C659.378 580.456 652.94 574.019 652.94 566.027C652.94 558.035 659.378 551.598 667.369 551.598H740.626C748.617 551.598 755.055 558.035 755.055 566.027C755.055 574.019 748.617 580.456 740.626 580.456Z" fill="#b9cce2"></path>
<path d="M584.552 580.456H511.295C503.303 580.456 496.866 574.019 496.866 566.027C496.866 558.035 503.303 551.598 511.295 551.598H584.552C592.543 551.598 598.981 558.035 598.981 566.027C598.981 574.019 592.543 580.456 584.552 580.456Z" fill="#f1f1e6"></path>
<path opacity="0.96" fill-rule="evenodd" clip-rule="evenodd" d="M593.185 87.5011C580.573 87.5011 570.409 97.7252 570.409 110.277C570.409 122.831 580.575 133.053 593.121 133.053H736.564C749.176 133.053 759.34 122.829 759.34 110.277C759.34 97.6649 749.116 87.5011 736.564 87.5011H593.185ZM568.189 110.277C568.189 96.5031 579.343 85.2812 593.185 85.2812H736.564C750.338 85.2812 761.56 96.435 761.56 110.277C761.56 124.051 750.406 135.273 736.564 135.273H593.121C579.341 135.273 568.189 124.049 568.189 110.277Z" fill="#f1f1e6"></path>
<path d="M697.525 472.546H350.025C334.166 472.546 321.26 459.705 321.26 443.781V309.52C321.26 293.66 334.102 280.754 350.025 280.754H697.589C713.449 280.754 726.355 293.596 726.355 309.52V443.781C726.291 459.64 713.385 472.546 697.525 472.546Z" fill="#b9cce2"></path>
<path opacity="0.8" d="M581.885 105.401C581.885 92.2385 592.544 81.5156 605.771 81.5156H749.15C762.313 81.5156 773.035 92.1743 773.035 105.401C773.035 118.564 762.377 129.287 749.15 129.287H605.771C592.544 129.223 581.885 118.564 581.885 105.401Z" fill="#2c3e50"></path>
<path opacity="0.6" d="M479.214 300.015H42.9131C33.988 300.015 26.7966 292.824 26.7966 283.899V216.351C26.7966 207.49 33.988 200.234 42.9131 200.234H479.278C488.139 200.234 495.395 207.426 495.395 216.351V283.899C495.33 292.824 488.139 300.015 479.214 300.015Z" fill="#f1f1e6"></path>
<path d="M99.867 172.969C122.79 172.969 158.747 200.771 190.851 214.448C159.517 226.776 122.79 255.927 99.867 255.927C76.9444 255.927 58.3879 237.37 58.3879 214.448C58.3879 191.525 76.9444 172.969 99.867 172.969Z" fill="#2c3e50"></path>
<path d="M242.517 509.144H166.798C154.799 509.144 145.071 501.439 145.071 491.936V139.235C145.071 129.732 154.799 122.027 166.798 122.027H242.517C254.515 122.027 264.243 129.732 264.243 139.235V491.936C264.243 501.439 254.515 509.144 242.517 509.144Z" fill="#b9cce2"></path>
<path d="M308.931 167.551C308.995 168.514 309.509 171.018 313.362 174.036C310.408 171.917 308.931 169.734 308.931 167.551Z" fill="#414141"></path>
<path d="M308.931 167.551C308.931 167.615 308.931 167.679 308.931 167.679L308.995 167.936C308.995 168.064 309.06 168.193 309.06 168.321L309.188 168.835C309.252 169.028 309.381 169.284 309.445 169.413L309.766 170.055C309.894 170.312 310.087 170.569 310.215 170.825L311.178 172.11C311.821 172.688 312.655 173.522 313.362 174.036C310.408 171.917 308.931 169.734 308.931 167.551Z" fill="#414141"></path>
<path d="M308.931 167.551C308.931 167.615 308.931 167.679 308.931 167.679L308.995 167.936C308.995 168.064 309.06 168.193 309.06 168.321L309.188 168.835C309.252 169.028 309.381 169.284 309.445 169.413L309.766 170.055C309.894 170.312 310.087 170.569 310.215 170.825L311.178 172.11C311.821 172.688 312.655 173.522 313.362 174.036C310.408 171.917 308.931 169.734 308.931 167.551Z" fill="#3F3F3F"></path>
<path d="M308.931 167.551C308.931 167.615 308.931 167.679 308.931 167.679L308.995 167.936C308.995 168.064 309.06 168.193 309.06 168.321L309.188 168.835C309.252 169.028 309.381 169.284 309.445 169.413L309.766 170.055C309.894 170.312 310.087 170.569 310.215 170.825L311.178 172.11C311.821 172.688 312.655 173.522 313.362 174.036C310.408 171.917 308.931 169.734 308.931 167.551Z" fill="#3D3D3D"></path>
<path d="M308.931 167.551C308.931 167.615 308.931 167.679 308.931 167.679L308.995 167.936C308.995 168.064 309.06 168.193 309.06 168.321L309.188 168.835C309.252 169.028 309.381 169.284 309.445 169.413L309.766 170.055C309.894 170.312 310.087 170.569 310.215 170.825L311.178 172.11C311.821 172.688 312.655 173.522 313.362 174.036C310.408 171.917 308.931 169.734 308.931 167.551Z" fill="#3B3B3B"></path>
<path d="M308.931 167.551C308.931 167.615 308.931 167.679 308.931 167.679L308.995 167.936C308.995 168.064 309.06 168.193 309.06 168.321L309.188 168.835C309.252 169.028 309.381 169.284 309.445 169.413L309.766 170.055C309.894 170.312 310.087 170.569 310.215 170.825L311.178 172.11C311.821 172.688 312.655 173.522 313.362 174.036C310.408 171.917 308.931 169.734 308.931 167.551Z" fill="#393939"></path>
<path d="M168.635 134.229C168.699 133.972 168.827 133.587 168.956 133.266C168.827 133.587 168.699 133.972 168.635 134.229Z" fill="#f1f1e6"></path>
<path d="M435.359 248.009C440.367 239.983 444.669 231.571 448.329 222.839C474.912 159.465 457.896 84.7253 403.897 46.8419C401.264 45.1083 397.861 42.861 395.164 41.1273C380.717 32.0096 359.849 24.4972 344.182 22.1214C332.432 20.0667 320.425 19.7457 308.418 20.5804C303.666 20.773 297.952 21.5435 293.329 22.5067C289.283 23.213 285.624 23.9835 282.156 24.8824L282.028 24.9466C270.984 27.7718 258.848 32.2665 248.703 37.7242C241.704 41.5126 235.284 45.1725 228.991 49.924C226.102 52.0429 222.955 54.4186 219.809 57.1154C217.112 59.3627 213.709 62.3163 211.269 64.8205C208.765 67.1962 205.747 70.4067 203.307 73.1034C198.492 78.4328 193.034 85.4316 189.246 91.2104C186.356 95.5124 184.302 98.9797 183.21 100.97C177.495 110.537 172.487 122.48 169.02 133.396C169.02 133.396 169.02 133.396 169.02 133.332C166.451 142.192 164.589 148.87 163.305 159.015C163.305 158.887 163.369 158.823 163.369 158.694C162.984 161.648 162.599 164.73 162.342 167.812C161.764 172.435 161.764 177.957 161.828 182.773C161.828 182.452 161.828 182.066 161.828 181.745C161.893 185.277 161.957 189.515 162.278 192.853C162.535 196.256 162.92 200.045 163.498 204.026C167.607 240.497 186.42 276.068 222.699 301.11C222.827 301.174 222.891 301.238 223.02 301.303C229.12 305.669 235.669 309.457 242.411 312.732C242.347 312.732 242.282 312.668 242.218 312.668C266.297 324.289 293.906 328.335 321.773 324.225C321.709 324.225 321.645 324.225 321.645 324.225C331.212 322.813 340.651 320.501 349.833 317.355C356.896 314.915 363.766 311.897 370.38 308.494C376.544 305.284 382.451 301.752 388.101 297.771C393.752 293.854 399.209 289.552 404.346 284.993C409.804 280.114 415.005 274.848 419.756 269.326C420.591 268.299 421.49 267.336 422.325 266.309C426.948 260.53 431.378 254.43 435.359 248.009Z" fill="#2c3e50"></path>
<path d="M398.338 45.2347C398.081 45.042 397.824 44.9136 397.567 44.721C397.054 44.3357 396.54 44.0147 395.962 43.6936C395.641 43.501 395.32 43.3084 394.999 43.0516C394.55 42.7305 394.036 42.4095 393.586 42.1526C393.522 42.0884 393.458 42.0884 393.394 42.0242C393.009 41.7674 392.688 41.5747 392.302 41.3179L392.752 41.5747L392.174 41.2537C389.927 39.8411 387.743 38.5569 385.689 37.5296C385.689 37.5296 385.625 37.5296 385.625 37.4654C382.671 35.8601 379.396 34.2549 375.801 32.6497L375.736 32.5855C375.608 32.5213 375.544 32.5213 375.415 32.4571C375.094 32.3286 374.837 32.2002 374.516 32.0718C374.324 32.0076 374.195 31.9434 374.003 31.8792C370.921 30.5308 366.747 28.8613 363.537 27.834C362.83 27.6414 362.124 27.3845 361.354 27.1277C359.812 26.614 358.271 26.1646 356.666 25.7151L356.217 25.5867C356.153 25.5867 356.088 25.5225 356.024 25.5225C354.933 25.2014 353.841 24.8804 352.685 24.6235C342.219 21.8626 332.074 20.6426 323.021 20.2573C320.388 20.1289 317.563 20.1289 315.251 20.1289C312.234 20.1931 308.317 20.2573 303.373 20.7068C303.373 20.7068 303.308 20.7068 303.244 20.7068C303.116 20.7068 302.987 20.7068 302.795 20.771C302.602 20.771 302.41 20.8352 302.217 20.8352C302.153 20.8352 302.089 20.8352 302.024 20.8352C301.832 20.8352 301.575 20.8994 301.318 20.8994C286.807 22.312 274.864 25.6509 266.452 28.6045C263.948 29.4392 259.967 30.916 255.023 33.0991C249.694 35.4107 244.75 37.9148 240.255 40.4832C238.2 41.639 236.338 42.7947 234.412 44.0147C231.587 45.8125 229.019 47.5462 226.771 49.1514C226.322 49.4725 225.872 49.7293 225.423 50.0503C225.294 50.1788 221.57 52.7471 216.434 57.1133C214.893 58.3975 211.811 61.0301 207.958 64.7542C207.958 64.7542 207.958 64.7542 207.894 64.8184L207.83 64.8826C207.444 65.2679 206.995 65.6532 206.61 66.1026C204.362 68.3499 202.115 70.6615 199.996 73.0372C199.868 73.1656 199.739 73.294 199.675 73.4225C197.685 75.6698 195.758 77.9171 193.896 80.2928C193.511 80.7423 193.126 81.256 192.74 81.7696C192.74 81.8338 192.676 81.8338 192.676 81.8981C192.548 82.0907 192.355 82.3475 192.163 82.6044C190.108 85.3011 187.989 88.1905 185.998 91.2084C184.136 94.0336 182.017 97.3082 179.899 100.968C178.55 103.28 177.009 106.169 175.404 109.315C175.276 109.636 175.083 109.893 174.955 110.214C174.89 110.278 174.89 110.343 174.826 110.407C169.689 120.809 166.928 129.092 165.773 133.137V133.201C164.745 136.476 163.654 140.264 162.691 144.438C161.663 148.74 160.957 152.528 160.443 156.06V156.124C160.379 156.637 160.315 157.087 160.251 157.601C159.865 160.426 159.48 163.379 159.223 166.526C159.159 167.168 159.095 167.81 159.031 168.516C158.517 174.488 158.389 182.449 158.774 188.485C158.902 191.31 159.159 194.2 159.48 197.089C159.609 198.309 159.737 199.529 159.865 200.621C159.994 201.584 160.122 202.611 160.315 203.703C161.471 211.279 163.076 218.728 165.195 225.277V225.341C165.259 225.47 165.259 225.662 165.323 225.791C165.323 225.855 165.387 225.919 165.387 225.983C166.736 230.285 168.02 233.817 169.111 236.578C169.304 237.027 169.497 237.541 169.689 237.99C171.359 242.1 173.542 246.915 176.303 252.052C177.266 253.85 178.229 255.648 179.192 257.189C180.798 259.95 182.595 262.775 184.586 265.6C185.356 266.82 186.191 267.912 186.962 268.939L187.026 269.003C189.594 272.535 194.346 278.763 201.409 285.826C202.5 286.982 203.72 288.202 205.069 289.422C206.545 290.77 207.83 291.926 209.563 293.339C210.077 293.788 210.526 294.173 210.976 294.559C211.746 295.201 212.517 295.843 213.416 296.549C215.47 298.218 217.589 299.824 219.772 301.365C218.681 300.53 217.718 299.759 216.819 299.117C214.443 297.32 212.645 295.907 211.168 294.687C181.568 269.645 162.947 231.441 162.947 187.073C162.947 185.724 162.947 184.376 163.012 183.027C163.012 182.963 163.012 182.963 163.012 182.899C163.012 182.706 163.012 182.514 163.012 182.321C163.012 182.193 163.012 182.064 163.012 181.936C163.012 181.743 163.012 181.615 163.012 181.422C163.012 180.523 163.076 179.624 163.14 178.725C163.14 178.661 163.14 178.597 163.14 178.533C163.14 178.34 163.14 178.083 163.204 177.891C163.204 177.826 163.204 177.826 163.204 177.762C163.204 177.505 163.268 177.184 163.268 176.928C163.333 176.093 163.397 175.258 163.461 174.423C163.461 174.295 163.461 174.231 163.461 174.102C163.461 174.038 163.461 173.974 163.461 173.91C163.525 173.524 163.525 173.075 163.589 172.69C163.654 171.855 163.782 170.956 163.846 170.121V170.057C163.911 169.543 163.975 169.03 164.039 168.516C164.167 167.617 164.232 166.718 164.36 165.819C164.424 165.306 164.488 164.856 164.553 164.343C164.681 163.251 164.874 162.159 165.066 161.068C165.066 160.875 165.131 160.683 165.131 160.554C165.195 160.169 165.259 159.784 165.323 159.398C165.516 158.499 165.644 157.536 165.837 156.637C165.837 156.573 165.837 156.509 165.837 156.509C165.901 156.188 165.965 155.867 166.029 155.61C166.094 155.417 166.094 155.289 166.158 155.096C166.35 154.262 166.479 153.427 166.672 152.592C166.736 152.4 166.736 152.207 166.8 152.014C166.864 151.822 166.864 151.629 166.928 151.436C166.993 151.18 167.057 150.923 167.121 150.73C167.314 149.96 167.506 149.189 167.699 148.483C167.699 148.483 167.699 148.483 167.699 148.419C167.763 148.226 167.827 147.969 167.891 147.777C168.02 147.391 168.084 147.006 168.213 146.557C168.405 145.722 168.662 144.887 168.855 144.117C168.983 143.603 169.176 143.089 169.304 142.576C169.561 141.741 169.818 140.906 170.075 140.071C170.203 139.686 170.331 139.237 170.46 138.852C170.524 138.595 170.588 138.402 170.717 138.145C170.974 137.375 171.23 136.604 171.487 135.834C171.551 135.641 171.616 135.448 171.68 135.32C171.808 134.999 171.937 134.678 172.001 134.357C172.065 134.228 172.065 134.1 172.129 133.972C172.386 133.201 172.707 132.366 172.964 131.596C173.028 131.339 173.157 131.146 173.221 130.89C173.349 130.633 173.413 130.312 173.542 130.055C173.863 129.284 174.184 128.45 174.441 127.679C174.441 127.615 174.505 127.551 174.505 127.487C174.633 127.165 174.762 126.844 174.89 126.523C175.019 126.267 175.083 126.01 175.211 125.753C175.532 125.047 175.789 124.34 176.11 123.634C176.174 123.441 176.239 123.313 176.303 123.12C176.496 122.671 176.688 122.286 176.881 121.836C177.202 121.066 177.587 120.295 177.908 119.525C178.101 119.075 178.358 118.626 178.55 118.112C178.614 118.048 178.614 117.984 178.679 117.855C179 117.149 179.385 116.443 179.706 115.672C179.834 115.351 180.027 115.03 180.155 114.709C180.284 114.516 180.348 114.324 180.476 114.067C180.541 114.003 180.541 113.938 180.605 113.81C180.926 113.104 181.311 112.462 181.632 111.755C181.696 111.627 181.761 111.498 181.825 111.306C181.953 111.113 182.017 110.921 182.146 110.728C182.274 110.471 182.403 110.214 182.531 109.957C182.916 109.251 183.302 108.481 183.751 107.774C183.815 107.71 183.88 107.582 183.88 107.517C184.072 107.132 184.329 106.747 184.522 106.362C184.971 105.591 185.421 104.821 185.87 104.05C186.063 103.793 186.191 103.472 186.384 103.215C186.448 103.087 186.512 103.023 186.576 102.894C186.705 102.702 186.833 102.509 186.897 102.317C187.347 101.546 187.796 100.84 188.246 100.069C188.31 99.9408 188.374 99.8766 188.438 99.7482C188.695 99.3629 188.952 98.9777 189.145 98.5924C189.594 97.8861 190.044 97.1798 190.557 96.4735C190.814 96.0883 191.071 95.703 191.328 95.3177C191.392 95.2535 191.392 95.1893 191.456 95.1251L191.52 95.0609C191.97 94.4188 192.419 93.7125 192.869 93.0704C193.061 92.7494 193.318 92.4926 193.511 92.1715C193.639 91.9789 193.832 91.7862 193.96 91.5294C194.41 90.8873 194.859 90.2452 195.309 89.6674C195.437 89.4747 195.566 89.3463 195.694 89.1537C195.951 88.8326 196.144 88.5116 196.4 88.1905C196.914 87.4842 197.492 86.7779 198.006 86.0716C198.262 85.7506 198.519 85.4296 198.776 85.0443C198.84 84.9159 198.905 84.8517 199.033 84.7233C199.611 83.9527 200.253 83.2464 200.831 82.4759C200.895 82.4117 200.959 82.3475 200.959 82.2833C201.152 82.0907 201.344 81.8338 201.473 81.6412C201.601 81.5128 201.73 81.3202 201.858 81.1917C202.5 80.4212 203.078 79.7149 203.72 78.9444C203.913 78.6876 204.17 78.4308 204.362 78.1739C204.491 78.0455 204.619 77.8529 204.748 77.7245C205.261 77.0824 205.839 76.5045 206.417 75.8624C206.545 75.6698 206.738 75.5414 206.866 75.3487C207.123 75.0919 207.316 74.8351 207.573 74.5782C208.151 74.0003 208.664 73.4225 209.242 72.7804C209.306 72.7162 209.371 72.6519 209.435 72.5877C209.756 72.2667 210.077 71.8814 210.398 71.5604C210.976 70.9183 211.618 70.3404 212.196 69.7625C212.581 69.3773 212.902 69.0562 213.287 68.671C213.929 68.0289 214.636 67.3868 215.342 66.7447C215.535 66.5521 215.727 66.3595 215.92 66.231C216.113 66.0384 216.241 65.91 216.434 65.7174C216.562 65.6532 216.626 65.5247 216.755 65.4605C217.461 64.8184 218.103 64.1763 218.809 63.5985C218.874 63.5342 218.938 63.47 219.002 63.4058C219.387 63.0848 219.708 62.7637 220.093 62.4427C220.607 61.9932 221.057 61.608 221.57 61.1585C222.02 60.7733 222.469 60.388 222.854 60.067C223.368 59.6817 223.818 59.2322 224.331 58.847C224.781 58.4617 225.23 58.1407 225.68 57.7554C226.193 57.3702 226.707 56.9207 227.157 56.5355C227.606 56.1502 228.055 55.8292 228.505 55.4439C229.019 55.0587 229.532 54.6734 230.046 54.2881C230.495 53.9671 230.945 53.5818 231.459 53.2608C231.972 52.8755 232.486 52.4903 233 52.105C233.449 51.784 233.963 51.4629 234.412 51.0777C234.926 50.6924 235.439 50.3714 236.017 49.9861C236.467 49.6651 236.98 49.344 237.43 49.023C237.944 48.6377 238.522 48.3167 239.035 47.9314C239.549 47.6104 239.998 47.2894 240.512 46.9683C241.026 46.6473 241.604 46.262 242.117 45.941C242.567 45.6841 243.016 45.3631 243.53 45.1062C243.594 45.042 243.658 45.042 243.722 44.9778C244.236 44.6568 244.75 44.3357 245.263 44.0789C245.713 43.8221 246.162 43.5652 246.612 43.3084C246.676 43.2442 246.804 43.2442 246.869 43.18C247.382 42.8589 247.96 42.6021 248.474 42.281C248.988 42.0242 249.501 41.7032 250.015 41.4463C250.593 41.1253 251.171 40.8042 251.749 40.5474C252.262 40.2906 252.776 40.0337 253.29 39.7127C253.867 39.3916 254.445 39.1348 255.023 38.8138C255.537 38.5569 256.051 38.3001 256.564 38.0432C257.142 37.7864 257.72 37.4654 258.362 37.2085C258.812 36.9517 259.325 36.7591 259.775 36.5022C259.903 36.438 260.096 36.3738 260.224 36.3096C260.738 36.117 261.187 35.8601 261.701 35.6675C262.086 35.4749 262.536 35.2823 262.921 35.1538C263.178 35.0254 263.435 34.9612 263.691 34.8328C264.141 34.6402 264.655 34.4475 265.104 34.2549C265.425 34.1265 265.81 33.9981 266.131 33.8054C266.388 33.677 266.709 33.5486 266.966 33.4844C267.48 33.2918 267.993 33.0991 268.507 32.8423C268.828 32.7139 269.085 32.5855 269.406 32.4571C269.663 32.3286 269.92 32.2644 270.177 32.136C270.754 31.9434 271.332 31.6865 271.974 31.4939C272.424 31.3013 272.873 31.1729 273.323 30.9802C273.387 30.9802 273.387 30.916 273.451 30.916C274.158 30.6592 274.8 30.4666 275.506 30.2097C275.955 30.0813 276.469 29.8887 276.919 29.7603C277.689 29.5034 278.46 29.3108 279.23 29.054C279.615 28.9256 280.065 28.7971 280.45 28.6687C281.542 28.3477 282.569 28.0266 283.66 27.7698C283.789 27.7056 283.917 27.7056 284.046 27.6414C285.266 27.3203 286.422 26.9993 287.641 26.7424C288.027 26.6782 288.412 26.5498 288.797 26.4856C289.632 26.293 290.467 26.1004 291.237 25.9077C291.687 25.7793 292.2 25.7151 292.65 25.5867C293.356 25.4583 294.127 25.2656 294.833 25.1372C295.347 25.0088 295.86 24.9446 296.374 24.8804C297.08 24.752 297.786 24.6235 298.493 24.4951C299.006 24.4309 299.584 24.3025 300.098 24.2383C303.373 23.7246 306.712 23.3394 310.05 23.0183C332.267 21.092 353.327 24.2383 372.205 31.6223C375.865 33.0991 378.818 34.4475 380.873 35.3465C381.323 35.5391 381.772 35.7959 382.221 35.9886C382.607 36.1812 382.992 36.3738 383.441 36.5664C383.891 36.8233 384.34 37.0159 384.79 37.2727C385.175 37.4654 385.56 37.658 385.946 37.8506C386.202 37.979 386.459 38.1075 386.716 38.2359L388.386 39.199C392.431 41.639 396.99 44.3999 400.457 46.7757C399.879 46.262 399.108 45.7483 398.338 45.2347ZM392.495 41.5105C392.559 41.5105 392.559 41.5747 392.623 41.5747C392.623 41.5747 392.559 41.5105 392.495 41.5105Z" fill="#f1f1e6"></path>
<path opacity="0.6" d="M245.429 566.996H67.2486C54.471 566.996 44.0691 556.594 44.0691 543.817V365.636C44.0691 352.859 54.471 342.457 67.2486 342.457H245.429C258.206 342.457 268.608 352.859 268.608 365.636V543.817C268.608 556.594 258.271 566.996 245.429 566.996Z" fill="#f1f1e6"></path>
<path d="M598.322 230.353C598.386 230.353 598.45 230.353 598.579 230.353C599.028 230.353 599.413 230.417 599.799 230.417C599.863 230.417 599.927 230.417 599.991 230.417C600.441 230.481 600.89 230.545 601.275 230.61C601.34 230.61 601.468 230.674 601.532 230.674C601.982 230.738 602.367 230.866 602.816 230.931C602.881 230.931 602.881 230.931 602.945 230.995C603.33 231.123 603.715 231.188 604.101 231.38C604.165 231.38 604.293 231.444 604.358 231.444C604.743 231.573 605.128 231.765 605.513 231.894C605.577 231.894 605.642 231.958 605.706 232.022C606.091 232.215 606.476 232.407 606.862 232.6L589.268 223.033C589.076 222.905 588.819 222.776 588.626 222.712C588.498 222.648 588.305 222.583 588.113 222.519C588.048 222.455 587.984 222.455 587.92 222.391C587.535 222.198 587.149 222.07 586.764 221.941C586.7 221.941 586.572 221.877 586.507 221.877C586.122 221.749 585.737 221.62 585.352 221.556C585.287 221.556 585.287 221.556 585.223 221.492C585.223 221.492 585.223 221.492 585.159 221.492C584.774 221.364 584.324 221.299 583.939 221.235C583.875 221.235 583.746 221.171 583.682 221.171C583.233 221.107 582.847 221.042 582.398 220.978C582.334 220.978 582.27 220.978 582.205 220.978C581.82 220.914 581.371 220.914 580.985 220.914C580.921 220.914 580.857 220.914 580.729 220.914C580.279 220.914 579.83 220.914 579.38 220.978C579.252 220.978 579.188 220.978 579.059 220.978C578.61 221.042 578.096 221.042 577.647 221.107L389.835 247.497L407.428 257.064L595.24 230.674C595.753 230.61 596.203 230.545 596.652 230.545C596.781 230.545 596.845 230.545 596.973 230.545C597.423 230.353 597.872 230.289 598.322 230.353Z" fill="#b9cce2"></path>
<path opacity="0.9" d="M290.118 273.368L272.525 263.801L389.835 247.363L407.428 256.93L290.118 273.368Z" fill="#f1f1e6"></path>
<path opacity="0.9" d="M270.791 455.597H270.727C268.993 452.451 267.966 448.663 267.966 444.489L268.223 300.083L250.63 290.516L250.373 434.858C250.373 443.269 254.418 450.075 260.518 453.414L278.111 462.981C278.304 463.11 278.561 463.238 278.753 463.302C278.882 463.367 279.074 463.431 279.267 463.495C279.331 463.559 279.395 463.559 279.46 463.623C279.845 463.816 280.23 463.944 280.615 464.073C280.679 464.073 280.808 464.137 280.872 464.137C281.257 464.265 281.643 464.394 282.028 464.458C282.092 464.458 282.092 464.458 282.156 464.522C282.156 464.522 282.156 464.522 282.22 464.522C282.606 464.651 283.055 464.715 283.44 464.779C283.505 464.779 283.633 464.843 283.697 464.843C284.147 464.908 284.532 464.972 284.981 465.036C285.046 465.036 285.11 465.036 285.174 465.036C285.559 465.1 286.009 465.1 286.394 465.1C286.458 465.1 286.523 465.1 286.651 465.1C287.1 465.1 287.55 465.1 287.999 465.036C288.128 465.036 288.192 465.036 288.32 465.036C288.77 464.972 289.284 464.972 289.733 464.908L272.14 455.34C271.69 455.469 271.241 455.533 270.791 455.597Z" fill="#f1f1e6"></path>
<path opacity="0.9" d="M251.785 282.872C251.721 283.064 251.657 283.193 251.657 283.386C251.593 283.578 251.528 283.835 251.464 284.028C251.4 284.22 251.4 284.349 251.336 284.541C251.271 284.734 251.271 284.991 251.207 285.183C251.143 285.376 251.143 285.504 251.079 285.697C251.015 285.89 251.015 286.147 250.95 286.403C250.95 286.596 250.886 286.724 250.886 286.917C250.822 287.174 250.822 287.367 250.822 287.623C250.822 287.752 250.758 287.944 250.758 288.073C250.758 288.33 250.694 288.586 250.694 288.843C250.694 288.972 250.694 289.1 250.694 289.229C250.694 289.614 250.694 290.063 250.694 290.449L268.223 300.08C268.223 299.695 268.223 299.245 268.223 298.86C268.223 298.732 268.223 298.603 268.223 298.475C268.223 298.218 268.223 297.961 268.287 297.704C268.287 297.512 268.351 297.383 268.351 297.19C268.351 296.934 268.415 296.741 268.415 296.484C268.415 296.292 268.48 296.163 268.48 295.971C268.544 295.778 268.544 295.521 268.608 295.328C268.672 295.136 268.672 294.943 268.736 294.815C268.801 294.622 268.801 294.365 268.865 294.173C268.929 293.98 268.929 293.787 268.993 293.659C269.057 293.466 269.122 293.274 269.122 293.017C269.186 292.824 269.25 292.632 269.25 292.503C269.314 292.311 269.378 292.118 269.443 291.925C269.507 291.733 269.571 291.604 269.635 291.412C269.699 291.219 269.764 291.026 269.828 290.834C270.021 290.256 270.277 289.742 270.534 289.164C270.598 289.036 270.598 288.972 270.663 288.843C270.919 288.33 271.176 287.816 271.433 287.302C271.497 287.174 271.562 287.11 271.626 286.981C271.818 286.596 272.011 286.275 272.268 285.89C272.332 285.761 272.396 285.697 272.46 285.569C272.717 285.119 272.974 284.734 273.295 284.349C273.359 284.284 273.424 284.22 273.488 284.092C273.68 283.771 273.937 283.45 274.194 283.193C274.258 283.064 274.387 282.936 274.451 282.872C274.708 282.551 274.965 282.294 275.221 281.973C275.286 281.909 275.35 281.845 275.414 281.78C275.735 281.395 276.056 281.074 276.377 280.753C276.441 280.689 276.57 280.56 276.634 280.496C276.891 280.239 277.148 279.982 277.405 279.726C277.533 279.661 277.597 279.533 277.726 279.469C278.111 279.148 278.496 278.827 278.881 278.506C278.946 278.506 278.946 278.441 279.01 278.441C279.395 278.185 279.716 277.864 280.101 277.607C280.23 277.478 280.358 277.414 280.487 277.35C280.615 277.286 280.743 277.157 280.872 277.093C281.065 276.965 281.257 276.836 281.386 276.772C281.514 276.708 281.642 276.644 281.771 276.515C281.963 276.387 282.156 276.323 282.349 276.194C282.477 276.13 282.606 276.066 282.734 276.001C282.927 275.873 283.183 275.809 283.376 275.68C283.504 275.616 283.569 275.552 283.697 275.488C283.761 275.424 283.825 275.424 283.89 275.424C284.275 275.231 284.66 275.103 285.11 274.91C285.238 274.846 285.366 274.846 285.495 274.782C285.944 274.589 286.394 274.46 286.908 274.332C286.972 274.332 286.972 274.332 287.036 274.268C287.485 274.139 287.935 274.011 288.384 273.947C288.513 273.947 288.641 273.883 288.77 273.883C289.283 273.754 289.733 273.69 290.246 273.626L272.653 264.059C272.139 264.123 271.69 264.251 271.176 264.315C271.048 264.315 270.919 264.38 270.791 264.38C270.342 264.508 269.892 264.572 269.443 264.701C269.378 264.701 269.378 264.701 269.314 264.765C268.865 264.893 268.351 265.086 267.902 265.214C267.773 265.279 267.645 265.279 267.516 265.343C267.131 265.471 266.682 265.664 266.296 265.856C266.232 265.856 266.168 265.921 266.168 265.921H266.104C265.975 265.985 265.911 266.049 265.783 266.113C265.59 266.242 265.333 266.306 265.141 266.434C265.012 266.499 264.884 266.563 264.755 266.627C264.563 266.755 264.37 266.82 264.178 266.948C264.049 267.012 263.921 267.076 263.792 267.205C263.6 267.333 263.407 267.462 263.279 267.526C263.15 267.59 263.022 267.719 262.893 267.783C262.829 267.847 262.701 267.911 262.636 267.975C262.572 268.04 262.508 268.04 262.444 268.104C262.059 268.361 261.673 268.617 261.352 268.938C261.288 268.938 261.288 269.003 261.224 269.003C260.839 269.324 260.453 269.645 260.068 269.966C260.004 270.03 260.004 270.03 259.94 270.094C259.875 270.158 259.811 270.223 259.747 270.287C259.49 270.544 259.233 270.801 258.977 271.057C258.912 271.122 258.784 271.25 258.72 271.314C258.399 271.635 258.078 272.021 257.757 272.342C257.757 272.342 257.757 272.342 257.692 272.406C257.628 272.47 257.628 272.534 257.564 272.598C257.307 272.919 257.05 273.176 256.793 273.497C256.729 273.626 256.601 273.69 256.537 273.818C256.28 274.139 256.087 274.46 255.83 274.717C255.766 274.782 255.766 274.846 255.702 274.91C255.702 274.91 255.702 274.974 255.638 274.974C255.381 275.359 255.06 275.809 254.803 276.194C254.739 276.323 254.675 276.387 254.61 276.515C254.418 276.836 254.225 277.221 253.968 277.607C253.904 277.671 253.904 277.735 253.84 277.799C253.84 277.799 253.84 277.864 253.776 277.928C253.519 278.441 253.262 278.955 253.005 279.469C252.941 279.597 252.941 279.661 252.877 279.79C252.62 280.303 252.427 280.881 252.17 281.459V281.523C252.106 281.716 252.042 281.845 251.978 282.037C251.914 282.23 251.849 282.358 251.785 282.551C251.849 282.487 251.785 282.679 251.785 282.872Z" fill="#f1f1e6"></path>
<path opacity="0.81" d="M290.118 273.367C278.046 275.036 268.222 287.044 268.158 300.078L267.901 444.42C267.901 457.454 277.661 466.701 289.733 464.967L406.978 448.465L406.914 495.145C406.914 507.73 397.411 519.224 385.789 520.893L245.3 540.669C233.614 542.339 224.239 533.478 224.239 520.893L224.817 226.944C224.817 214.359 234.32 202.865 245.942 201.196L386.431 181.42C398.117 179.75 407.492 188.675 407.492 201.196L407.364 256.865L290.118 273.367ZM275.285 485.385C269.25 486.22 264.37 492.192 264.37 498.677C264.37 505.162 269.25 509.721 275.221 508.886L361.799 497.118C367.834 496.283 372.714 490.312 372.714 483.827C372.714 477.342 367.834 472.783 361.863 473.618L275.285 485.385Z" fill="#f1f1e6"></path>
<path opacity="0.91" d="M595.24 230.544C607.312 228.874 617.136 238.056 617.071 251.091L616.879 395.433C616.879 408.467 607.055 420.474 594.919 422.143L289.798 465.035C277.726 466.705 267.902 457.523 267.967 444.488L268.223 300.082C268.223 287.048 278.047 275.04 290.183 273.371L407.429 256.869L595.24 230.544ZM582.077 294.046C588.113 293.212 592.993 287.24 592.993 280.755C592.993 274.27 588.113 269.711 582.142 270.546L304.181 309.649C298.145 310.484 293.265 316.455 293.265 322.94C293.265 329.426 298.145 333.984 304.116 333.15L582.077 294.046Z" fill="#2c3e50"></path>
<path opacity="0.7" d="M582.141 270.446C588.176 269.611 592.992 274.17 592.992 280.655C592.992 287.141 588.112 293.112 582.077 293.947L304.115 333.05C298.08 333.885 293.264 329.326 293.264 322.841C293.264 316.356 298.144 310.384 304.18 309.55L582.141 270.446Z" fill="#f1f1e6"></path>
<path d="M228.349 191.633C227.9 191.697 227.386 191.761 226.937 191.89C226.808 191.89 226.68 191.954 226.551 191.954C226.102 192.082 225.717 192.146 225.267 192.275C225.203 192.275 225.203 192.275 225.139 192.275C224.689 192.403 224.24 192.596 223.79 192.724C223.662 192.789 223.533 192.789 223.469 192.853C223.084 192.981 222.699 193.174 222.314 193.366C222.249 193.366 222.249 193.431 222.185 193.431H222.121C221.992 193.495 221.928 193.559 221.8 193.559C221.607 193.688 221.415 193.752 221.158 193.88C221.029 193.944 220.901 194.009 220.772 194.073C220.58 194.201 220.387 194.265 220.195 194.394C220.066 194.458 219.938 194.522 219.809 194.651C219.617 194.779 219.488 194.843 219.296 194.972C219.167 195.036 219.039 195.164 218.91 195.229C218.846 195.293 218.718 195.357 218.654 195.421C218.589 195.485 218.525 195.485 218.525 195.55C218.14 195.806 217.819 196.063 217.434 196.32L217.369 196.384C216.984 196.705 216.599 197.026 216.278 197.347C216.214 197.412 216.214 197.412 216.149 197.476C216.085 197.54 216.021 197.604 215.957 197.604C215.7 197.861 215.443 198.118 215.186 198.311C215.122 198.375 214.994 198.439 214.929 198.567C214.608 198.888 214.287 199.209 213.966 199.595C213.966 199.595 213.966 199.595 213.902 199.659C213.838 199.723 213.838 199.787 213.774 199.852C213.517 200.108 213.324 200.429 213.067 200.686C213.003 200.815 212.875 200.879 212.811 201.007C212.554 201.328 212.361 201.585 212.168 201.906C212.104 201.97 212.104 202.035 212.04 202.099C212.04 202.099 212.04 202.163 211.976 202.163C211.719 202.548 211.462 202.934 211.205 203.383C211.141 203.511 211.077 203.576 211.013 203.704C210.82 204.025 210.627 204.41 210.435 204.731C210.371 204.796 210.371 204.86 210.306 204.924C210.306 204.924 210.306 204.988 210.242 204.988C209.985 205.502 209.729 206.016 209.472 206.529C209.407 206.658 209.407 206.722 209.343 206.85C209.086 207.364 208.894 207.878 208.701 208.456C208.701 208.456 208.701 208.456 208.701 208.52C208.637 208.712 208.573 208.841 208.509 209.033C208.444 209.226 208.38 209.355 208.316 209.547C208.252 209.74 208.188 209.932 208.123 210.125C208.059 210.318 207.995 210.446 207.995 210.639C207.931 210.831 207.866 211.024 207.866 211.217C207.802 211.409 207.802 211.538 207.738 211.73C207.674 211.923 207.674 212.116 207.61 212.372C207.545 212.565 207.545 212.693 207.481 212.886C207.417 213.079 207.417 213.335 207.353 213.528C207.353 213.657 207.289 213.849 207.289 213.978C207.224 214.234 207.224 214.427 207.224 214.684C207.224 214.812 207.16 215.005 207.16 215.133C207.16 215.39 207.096 215.647 207.096 215.904C207.096 216.032 207.096 216.161 207.096 216.289C207.096 216.674 207.096 217.06 207.096 217.445L206.518 511.394C206.518 519.484 210.435 526.034 216.278 529.244L233.871 538.811C227.964 535.601 224.047 529.052 224.111 520.961L224.689 227.012C224.689 226.627 224.689 226.242 224.689 225.856C224.689 225.728 224.689 225.599 224.689 225.471C224.689 225.214 224.689 224.957 224.753 224.7C224.753 224.572 224.818 224.379 224.818 224.251C224.818 223.994 224.882 223.802 224.882 223.545C224.882 223.352 224.946 223.224 224.946 223.031C225.01 222.838 225.01 222.582 225.074 222.389C225.074 222.196 225.139 222.068 225.203 221.875C225.267 221.683 225.267 221.49 225.331 221.233C225.396 221.041 225.396 220.912 225.46 220.72C225.524 220.527 225.588 220.334 225.588 220.142C225.652 219.949 225.717 219.821 225.717 219.628C225.781 219.435 225.845 219.243 225.909 219.05C225.973 218.857 226.038 218.729 226.102 218.536C226.166 218.344 226.23 218.151 226.294 217.959C226.487 217.445 226.744 216.867 226.937 216.353C227.001 216.225 227.001 216.161 227.065 216.032C227.322 215.519 227.579 215.005 227.835 214.491C227.9 214.363 227.964 214.299 227.964 214.17C228.157 213.849 228.349 213.464 228.542 213.143C228.606 213.014 228.67 212.95 228.734 212.822C228.991 212.437 229.248 211.987 229.505 211.602C229.569 211.538 229.633 211.473 229.698 211.345C229.89 211.024 230.147 210.767 230.34 210.446C230.404 210.318 230.532 210.253 230.596 210.125C230.853 209.868 231.046 209.547 231.303 209.29C231.367 209.226 231.431 209.162 231.495 209.098C231.816 208.777 232.137 208.456 232.459 208.07C232.523 208.006 232.651 207.942 232.715 207.813C232.972 207.557 233.229 207.3 233.486 207.107C233.614 207.043 233.679 206.915 233.807 206.85C234.192 206.529 234.513 206.208 234.898 205.887L234.963 205.823C235.284 205.566 235.669 205.309 236.054 205.053C236.183 204.988 236.311 204.86 236.44 204.796C236.568 204.731 236.696 204.603 236.825 204.539C237.017 204.41 237.146 204.346 237.338 204.218C237.467 204.154 237.595 204.089 237.724 204.025C237.916 203.897 238.109 203.833 238.302 203.704C238.43 203.64 238.558 203.576 238.687 203.511C238.879 203.383 239.072 203.319 239.329 203.19C239.457 203.126 239.522 203.062 239.65 203.062C239.714 203.062 239.778 202.998 239.843 202.998C240.228 202.805 240.613 202.677 240.998 202.484C241.127 202.42 241.255 202.42 241.319 202.356C241.769 202.163 242.218 202.035 242.668 201.906C242.732 201.906 242.732 201.906 242.796 201.842C243.246 201.714 243.631 201.585 244.08 201.521C244.209 201.521 244.337 201.457 244.466 201.457C244.915 201.328 245.429 201.264 245.878 201.2L228.349 191.633Z" fill="#f1f1e6"></path>
<path d="M476.453 381.238C476.967 381.173 477.416 381.173 477.93 381.109L481.846 380.531L476.003 377.321L472.087 377.899C471.573 377.963 471.059 378.027 470.61 378.027C470.481 378.027 470.353 378.027 470.225 378.027C469.775 378.027 469.326 378.091 468.94 378.091C468.876 378.091 468.876 378.091 468.812 378.091C468.363 378.091 467.913 378.091 467.464 378.027C467.335 378.027 467.271 378.027 467.143 378.027C466.757 378.027 466.372 377.963 466.051 377.899C465.987 377.899 465.923 377.899 465.858 377.899C465.473 377.834 465.088 377.77 464.703 377.706C464.638 377.706 464.51 377.642 464.446 377.642C464.189 377.578 463.932 377.513 463.74 377.449C463.483 377.385 463.29 377.321 463.033 377.257C462.841 377.192 462.648 377.128 462.455 377.064C462.263 377 462.006 376.871 461.813 376.807C461.556 376.679 461.3 376.55 461.043 376.422L466.886 379.632C467.014 379.697 467.207 379.761 467.335 379.889C467.464 379.953 467.528 379.953 467.656 380.018C467.849 380.146 468.106 380.21 468.298 380.274C468.491 380.339 468.684 380.403 468.876 380.467C469.133 380.531 469.326 380.595 469.583 380.66C469.711 380.66 469.775 380.724 469.904 380.788C470.032 380.852 470.16 380.852 470.289 380.852C470.353 380.852 470.481 380.917 470.546 380.917C470.931 380.981 471.316 381.045 471.701 381.109C471.766 381.109 471.83 381.109 471.894 381.109C472.279 381.173 472.6 381.173 472.986 381.238C473.114 381.238 473.178 381.238 473.307 381.238C473.756 381.238 474.206 381.302 474.655 381.302C474.719 381.302 474.719 381.302 474.783 381.302C475.233 381.302 475.618 381.302 476.068 381.238C476.196 381.238 476.324 381.238 476.453 381.238Z" fill="#f1f1e6"></path>
<path d="M447.43 299.115C447.237 298.987 447.045 298.923 446.788 298.794H446.724C446.595 298.73 446.403 298.666 446.274 298.602C446.146 298.538 446.082 298.473 445.953 298.473C445.76 298.409 445.568 298.345 445.439 298.281C445.375 298.217 445.247 298.217 445.183 298.152C444.926 298.088 444.669 297.96 444.412 297.896H444.348C444.091 297.831 443.77 297.703 443.449 297.639H443.385C443.064 297.574 442.678 297.446 442.357 297.382C442.229 297.382 442.165 297.318 442.036 297.318C441.651 297.253 441.266 297.189 440.881 297.125L446.724 300.335C447.109 300.4 447.494 300.464 447.879 300.528C448.008 300.528 448.072 300.592 448.2 300.592C448.586 300.656 448.907 300.721 449.228 300.849H449.292C449.613 300.913 449.87 300.978 450.191 301.106H450.255C450.512 301.17 450.769 301.299 451.026 301.363C451.09 301.427 451.218 301.427 451.282 301.491C451.475 301.555 451.668 301.62 451.796 301.684C451.925 301.748 451.989 301.812 452.117 301.812C452.246 301.876 452.438 301.941 452.567 302.005C452.823 302.133 453.016 302.262 453.273 302.326L447.43 299.115Z" fill="#f1f1e6"></path>
<path d="M443.771 365.573C443.771 358.895 444.734 351.832 445.633 344.961C446.596 338.155 447.495 331.285 447.495 324.607C447.495 319.535 446.532 313.242 441.074 310.289L435.231 307.078C440.689 310.032 441.652 316.324 441.652 321.397C441.652 328.075 440.689 334.945 439.79 341.751C438.827 348.557 437.928 355.62 437.928 362.362C437.928 371.287 439.726 377.901 442.936 382.588C444.862 385.413 447.238 387.532 450.063 389.073L455.906 392.284C448.394 388.238 443.707 379.827 443.771 365.573Z" fill="#b9cce2"></path>
<path d="M458.153 204.407C458.217 204.343 458.282 204.279 458.346 204.279C458.474 204.215 458.603 204.086 458.731 204.022C459.052 203.829 459.309 203.637 459.63 203.444C459.823 203.316 459.951 203.251 460.144 203.123C460.4 202.93 460.722 202.802 460.978 202.609C461.171 202.481 461.364 202.417 461.556 202.288C461.813 202.16 462.07 201.967 462.391 201.839C462.584 201.71 462.776 201.646 463.033 201.518C463.29 201.389 463.547 201.261 463.804 201.133C464.06 201.004 464.381 200.876 464.638 200.747C464.895 200.619 465.152 200.555 465.345 200.426C465.601 200.298 465.922 200.169 466.244 200.105C466.5 200.041 466.757 199.913 467.014 199.848C467.335 199.72 467.592 199.656 467.913 199.527C468.17 199.463 468.427 199.335 468.683 199.271C469.004 199.142 469.326 199.078 469.647 198.949C469.903 198.885 470.16 198.821 470.417 198.757C470.738 198.693 471.059 198.564 471.444 198.5C471.701 198.436 471.958 198.372 472.215 198.307C472.536 198.243 472.921 198.115 473.307 198.051C473.563 197.986 473.756 197.922 474.013 197.922C474.398 197.858 474.848 197.794 475.233 197.665C475.425 197.601 475.618 197.601 475.811 197.537C476.453 197.408 477.031 197.344 477.673 197.216L482.296 196.574L476.453 193.363L471.83 194.005C471.188 194.07 470.61 194.198 469.968 194.326C469.775 194.391 469.582 194.391 469.39 194.455C469.004 194.519 468.555 194.583 468.17 194.712C467.913 194.776 467.72 194.84 467.463 194.84C467.078 194.904 466.757 194.969 466.372 195.097C466.115 195.161 465.858 195.225 465.601 195.29C465.28 195.354 464.959 195.482 464.574 195.546C464.317 195.611 464.06 195.675 463.804 195.739C463.482 195.803 463.161 195.932 462.84 196.06C462.584 196.124 462.327 196.253 462.07 196.317C461.749 196.445 461.428 196.51 461.171 196.638C460.914 196.702 460.657 196.831 460.4 196.895C460.079 197.023 459.823 197.152 459.502 197.216C459.245 197.344 458.988 197.408 458.795 197.537C458.538 197.665 458.217 197.794 457.961 197.922C457.896 197.986 457.768 197.986 457.704 198.051C457.511 198.115 457.383 198.243 457.19 198.307C456.997 198.436 456.805 198.5 456.548 198.628C456.291 198.757 455.97 198.885 455.713 199.078C455.521 199.206 455.328 199.271 455.135 199.399C454.878 199.527 454.557 199.72 454.301 199.913C454.108 200.041 453.915 200.105 453.787 200.234C453.466 200.426 453.209 200.619 452.888 200.812C452.76 200.876 452.631 201.004 452.503 201.068C452.503 201.068 452.503 201.068 452.439 201.068C452.374 201.133 452.31 201.133 452.246 201.197C451.796 201.518 451.347 201.839 450.898 202.16C450.769 202.288 450.576 202.417 450.448 202.545C450.063 202.866 449.742 203.123 449.356 203.444C449.292 203.508 449.164 203.573 449.1 203.701C449.035 203.765 448.971 203.829 448.971 203.829C448.714 204.086 448.458 204.343 448.201 204.6C448.072 204.728 447.88 204.857 447.751 205.049C447.43 205.37 447.109 205.691 446.852 206.012C446.788 206.077 446.724 206.141 446.595 206.269C446.21 206.655 445.889 207.104 445.504 207.553C445.44 207.618 445.376 207.746 445.311 207.81C445.054 208.196 444.798 208.517 444.477 208.902C444.477 208.902 444.477 208.966 444.412 208.966C444.348 209.095 444.284 209.223 444.156 209.351C443.899 209.672 443.706 210.058 443.449 210.379C443.321 210.571 443.192 210.764 443.128 210.957C442.936 211.278 442.743 211.599 442.55 211.92C442.486 211.984 442.486 212.048 442.422 212.177C442.358 212.305 442.293 212.369 442.293 212.498C442.037 212.947 441.78 213.461 441.587 213.974C441.523 214.103 441.459 214.295 441.395 214.424C441.138 215.066 440.817 215.708 440.624 216.35C440.624 216.35 440.624 216.414 440.56 216.414C440.496 216.671 440.367 216.928 440.303 217.185C440.239 217.442 440.11 217.699 440.046 217.955C439.982 218.276 439.854 218.597 439.789 218.854C439.725 219.111 439.661 219.368 439.532 219.625C439.468 219.946 439.404 220.267 439.276 220.588C439.211 220.845 439.147 221.102 439.083 221.423C439.019 221.744 438.955 222.065 438.89 222.45C438.826 222.707 438.762 223.028 438.762 223.285C438.698 223.606 438.634 223.991 438.634 224.376C438.569 224.633 438.569 224.954 438.505 225.211C438.441 225.596 438.441 225.982 438.377 226.367C438.377 226.624 438.313 226.88 438.313 227.137C438.248 227.587 438.248 228.036 438.248 228.486C438.248 228.743 438.248 228.935 438.184 229.192C438.184 229.898 438.12 230.605 438.12 231.311C438.12 238.245 439.019 244.795 439.918 251.601C440.817 258.407 441.716 265.213 441.716 272.148C441.716 272.469 441.716 272.854 441.716 273.175C441.716 273.239 441.716 273.368 441.716 273.432C441.716 273.689 441.716 274.01 441.651 274.267C441.651 274.331 441.651 274.395 441.651 274.459C441.651 274.78 441.587 275.166 441.587 275.487C441.587 275.551 441.587 275.679 441.587 275.744C441.587 276 441.523 276.321 441.523 276.578C441.523 276.642 441.523 276.771 441.459 276.835C441.395 277.156 441.33 277.541 441.266 277.862C441.266 277.927 441.266 277.927 441.266 277.991C441.202 278.312 441.138 278.569 441.074 278.89C441.074 279.018 441.009 279.082 441.009 279.211C440.945 279.532 440.881 279.789 440.752 280.11C440.752 280.174 440.752 280.174 440.688 280.238C440.56 280.559 440.496 280.88 440.367 281.266C440.367 281.33 440.303 281.458 440.239 281.522C440.11 281.779 440.046 282.036 439.918 282.293C439.854 282.357 439.854 282.486 439.789 282.55C439.661 282.871 439.468 283.192 439.34 283.513C439.276 283.641 439.211 283.705 439.147 283.834C439.083 283.962 438.955 284.155 438.89 284.283C438.826 284.412 438.762 284.476 438.698 284.604C438.634 284.733 438.505 284.925 438.441 285.054C438.377 285.182 438.248 285.311 438.184 285.439C438.12 285.568 438.056 285.632 437.927 285.76C437.799 285.889 437.735 286.017 437.606 286.145C437.542 286.274 437.414 286.338 437.349 286.466C437.221 286.595 437.157 286.723 437.028 286.852C436.964 286.98 436.836 287.044 436.772 287.173C436.643 287.301 436.515 287.43 436.386 287.558C436.258 287.622 436.194 287.751 436.065 287.815C436.001 287.879 435.873 288.007 435.808 288.072C435.68 288.2 435.487 288.329 435.359 288.457C435.23 288.521 435.102 288.65 435.038 288.714C434.909 288.842 434.717 288.971 434.524 289.099C434.332 289.227 434.075 289.42 433.882 289.549C433.882 289.549 433.818 289.549 433.818 289.613C433.561 289.805 433.304 289.934 432.983 290.126C432.919 290.191 432.791 290.191 432.726 290.255C432.534 290.383 432.277 290.512 432.084 290.576C432.02 290.64 431.892 290.64 431.827 290.704C431.571 290.833 431.378 290.897 431.121 291.025C431.057 291.09 430.928 291.09 430.864 291.154C430.543 291.282 430.158 291.411 429.837 291.539C429.773 291.539 429.709 291.603 429.644 291.603C429.323 291.732 429.066 291.796 428.745 291.924C428.617 291.988 428.489 291.988 428.36 292.053C428.103 292.117 427.846 292.181 427.59 292.245C427.461 292.309 427.269 292.31 427.14 292.374C426.883 292.438 426.626 292.502 426.37 292.566C426.241 292.631 426.049 292.631 425.92 292.695C425.599 292.759 425.342 292.823 425.021 292.887C424.893 292.887 424.764 292.952 424.572 292.952C424.122 293.016 423.673 293.08 423.159 293.144L429.002 296.355C429.452 296.29 429.965 296.226 430.415 296.162C430.543 296.162 430.672 296.098 430.864 296.098C431.185 296.034 431.442 295.969 431.763 295.905C431.892 295.841 432.084 295.841 432.213 295.777C432.47 295.713 432.726 295.648 432.983 295.584C433.112 295.52 433.304 295.52 433.433 295.456C433.689 295.392 433.946 295.327 434.203 295.263C434.332 295.199 434.46 295.199 434.588 295.135C434.909 295.006 435.23 294.942 435.487 294.814C435.552 294.814 435.616 294.749 435.68 294.749C436.065 294.621 436.386 294.493 436.707 294.364C436.772 294.3 436.9 294.3 436.964 294.236C437.157 294.172 437.349 294.107 437.478 293.979C437.542 293.979 437.606 293.915 437.67 293.915C437.735 293.851 437.863 293.851 437.927 293.786C438.12 293.658 438.377 293.594 438.569 293.465C438.634 293.401 438.762 293.401 438.826 293.337C439.083 293.208 439.404 293.016 439.661 292.823C439.661 292.823 439.725 292.823 439.725 292.759C439.918 292.631 440.11 292.502 440.303 292.374C440.367 292.374 440.367 292.309 440.431 292.309C440.624 292.181 440.752 292.053 440.945 291.924C441.074 291.86 441.202 291.732 441.266 291.667C441.459 291.539 441.587 291.411 441.716 291.282C441.78 291.218 441.908 291.154 441.972 291.09C441.972 291.09 441.972 291.09 442.037 291.025C442.165 290.961 442.229 290.833 442.358 290.768C442.486 290.64 442.615 290.512 442.743 290.383C442.807 290.255 442.936 290.191 443 290.062C443.064 289.934 443.192 289.87 443.257 289.741L443.321 289.677C443.385 289.549 443.513 289.484 443.578 289.356C443.706 289.227 443.77 289.099 443.899 288.971C443.963 288.842 444.027 288.778 444.156 288.65C444.22 288.585 444.284 288.457 444.348 288.393C444.348 288.329 444.412 288.329 444.412 288.264C444.541 288.136 444.605 288.007 444.669 287.815C444.733 287.686 444.798 287.622 444.862 287.494C444.926 287.365 445.054 287.173 445.119 287.044C445.183 286.98 445.247 286.852 445.247 286.788C445.247 286.788 445.247 286.788 445.247 286.723C445.44 286.402 445.568 286.081 445.697 285.76C445.761 285.696 445.761 285.568 445.825 285.503C445.953 285.246 446.018 284.99 446.146 284.733C446.146 284.669 446.21 284.604 446.21 284.604C446.21 284.54 446.21 284.54 446.274 284.476C446.403 284.155 446.531 283.834 446.595 283.449C446.595 283.384 446.596 283.384 446.66 283.32C446.724 282.999 446.852 282.742 446.917 282.421C446.917 282.293 446.981 282.229 446.981 282.1C447.045 281.779 447.109 281.522 447.173 281.201C447.173 281.137 447.173 281.137 447.173 281.073C447.238 280.752 447.302 280.367 447.366 280.046C447.366 279.981 447.366 279.853 447.43 279.789C447.494 279.532 447.494 279.211 447.494 278.954C447.494 278.89 447.494 278.761 447.494 278.697C447.494 278.376 447.559 277.991 447.559 277.67C447.559 277.606 447.559 277.541 447.559 277.477C447.559 277.22 447.559 276.899 447.623 276.642C447.623 276.578 447.623 276.45 447.623 276.386C447.623 276.065 447.623 275.679 447.623 275.358C447.623 268.424 446.724 261.618 445.825 254.811C444.926 248.005 444.027 241.456 444.027 234.521C444.027 233.815 444.027 233.109 444.091 232.402C444.091 232.146 444.091 231.953 444.156 231.76C444.156 231.311 444.22 230.861 444.22 230.412C444.22 230.155 444.284 229.898 444.284 229.641C444.348 229.256 444.348 228.871 444.412 228.486C444.477 228.229 444.477 227.908 444.541 227.651C444.605 227.266 444.669 226.945 444.669 226.559C444.733 226.303 444.798 225.982 444.798 225.725C444.862 225.404 444.926 225.018 444.99 224.697C445.054 224.44 445.119 224.184 445.183 223.863C445.247 223.542 445.311 223.221 445.44 222.899C445.504 222.643 445.568 222.386 445.697 222.129C445.761 221.808 445.889 221.487 445.953 221.23C446.018 220.973 446.146 220.716 446.21 220.46C446.339 220.203 446.403 219.882 446.531 219.625C446.788 218.983 447.045 218.276 447.302 217.699C447.366 217.506 447.43 217.377 447.494 217.249C447.751 216.735 447.944 216.286 448.201 215.772C448.329 215.58 448.393 215.387 448.522 215.194C448.714 214.873 448.907 214.552 449.1 214.231C449.228 214.039 449.292 213.846 449.421 213.653C449.613 213.268 449.87 212.947 450.127 212.626C450.191 212.498 450.32 212.369 450.384 212.241C450.641 211.856 450.898 211.534 451.154 211.149C451.219 211.085 451.283 210.957 451.347 210.892C451.668 210.443 452.053 210.058 452.439 209.608C452.503 209.544 452.631 209.416 452.695 209.351C453.016 209.03 453.273 208.709 453.594 208.388C453.723 208.26 453.915 208.131 454.044 207.939C454.301 207.682 454.557 207.425 454.814 207.168C454.943 207.04 455.135 206.911 455.264 206.783C455.585 206.462 455.97 206.205 456.355 205.884C456.484 205.756 456.676 205.627 456.805 205.499C457.254 205.049 457.704 204.728 458.153 204.407Z" fill="#b9cce2"></path>
<path d="M477.608 197.279L482.232 196.637V210.249L478.122 210.827C464.831 212.946 459.951 221.293 459.951 234.713C459.951 240.427 460.85 246.206 461.556 252.113C462.455 258.213 463.354 263.992 463.354 270.67C463.354 286.529 456.869 295.39 446.788 299.757V300.27C456.869 301.554 463.29 309.131 463.29 324.991C463.29 331.668 462.327 338.025 461.428 344.061C460.722 350.353 459.823 356.196 459.758 362.104C459.758 375.973 465.216 382.65 478.122 381.109L482.039 380.532V394.144L477.223 394.85C458.41 397.483 443.963 390.612 443.963 365.571C443.963 358.893 444.926 351.83 445.825 344.96C446.788 338.154 447.687 331.283 447.687 324.605C447.687 316.9 445.44 306.563 429.131 308.874V296.225C445.44 293.913 447.751 283.961 447.751 275.293C447.751 268.358 446.852 261.552 445.953 254.746C445.054 247.94 444.156 241.39 444.156 234.456C444.027 211.662 458.089 199.976 477.608 197.279Z" fill="#f1f1e6"></path>
<path d="M423.287 293.105V305.755L429.13 308.965V296.316L423.287 293.105Z" fill="#b9cce2"></path>
<path d="M547.725 335.777L553.568 338.924V339.437L547.725 336.291V335.777Z" fill="#828282"></path>
<path d="M685.775 307.271C672.612 307.271 661.889 296.612 661.889 283.385V95.1241C661.889 81.9612 672.548 71.2383 685.775 71.2383C698.938 71.2383 709.66 81.897 709.66 95.1241V283.385C709.596 296.548 698.938 307.271 685.775 307.271Z" fill="#b9cce2"></path>
<path d="M664.842 457.716C669.878 457.716 673.96 453.634 673.96 448.598C673.96 443.563 669.878 439.48 664.842 439.48C659.807 439.48 655.725 443.563 655.725 448.598C655.725 453.634 659.807 457.716 664.842 457.716Z" fill="#f1f1e6"></path>
<path d="M700.736 457.716C705.771 457.716 709.853 453.634 709.853 448.598C709.853 443.563 705.771 439.48 700.736 439.48C695.7 439.48 691.618 443.563 691.618 448.598C691.618 453.634 695.7 457.716 700.736 457.716Z" fill="#f1f1e6"></path>
<path d="M700.736 428.372C705.771 428.372 709.853 424.29 709.853 419.254C709.853 414.219 705.771 410.137 700.736 410.137C695.7 410.137 691.618 414.219 691.618 419.254C691.618 424.29 695.7 428.372 700.736 428.372Z" fill="#f1f1e6"></path>
<path d="M510.644 151.169C515.68 151.169 519.762 147.087 519.762 142.051C519.762 137.016 515.68 132.934 510.644 132.934C505.609 132.934 501.527 137.016 501.527 142.051C501.527 147.087 505.609 151.169 510.644 151.169Z" fill="#2c3e50"></path>
<path d="M546.538 151.169C551.573 151.169 555.655 147.087 555.655 142.051C555.655 137.016 551.573 132.934 546.538 132.934C541.502 132.934 537.42 137.016 537.42 142.051C537.42 147.087 541.502 151.169 546.538 151.169Z" fill="#2c3e50"></path>
<path d="M546.538 121.821C551.573 121.821 555.655 117.739 555.655 112.704C555.655 107.668 551.573 103.586 546.538 103.586C541.502 103.586 537.42 107.668 537.42 112.704C537.42 117.739 541.502 121.821 546.538 121.821Z" fill="#2c3e50"></path>
<path d="M255.573 590.755C260.609 590.755 264.691 586.673 264.691 581.637C264.691 576.602 260.609 572.52 255.573 572.52C250.538 572.52 246.456 576.602 246.456 581.637C246.456 586.673 250.538 590.755 255.573 590.755Z" fill="#f1f1e6"></path>
<path d="M291.467 590.755C296.502 590.755 300.584 586.673 300.584 581.637C300.584 576.602 296.502 572.52 291.467 572.52C286.431 572.52 282.349 576.602 282.349 581.637C282.349 586.673 286.431 590.755 291.467 590.755Z" fill="#f1f1e6"></path>
<path d="M291.467 561.474C296.502 561.474 300.584 557.392 300.584 552.356C300.584 547.32 296.502 543.238 291.467 543.238C286.431 543.238 282.349 547.32 282.349 552.356C282.349 557.392 286.431 561.474 291.467 561.474Z" fill="#f1f1e6"></path>
<path d="M685.775 365.25C672.612 365.25 661.889 354.592 661.889 341.365V198.05C661.889 184.887 672.548 174.164 685.775 174.164C698.938 174.164 709.66 184.823 709.66 198.05V341.429C709.596 354.592 698.938 365.25 685.775 365.25Z" fill="#2c3e50"></path>
<path d="M685.774 113.425C690.384 113.425 694.122 109.688 694.122 105.078C694.122 100.468 690.384 96.7305 685.774 96.7305C681.164 96.7305 677.427 100.468 677.427 105.078C677.427 109.688 681.164 113.425 685.774 113.425Z" fill="#f1f1e6"></path>
<path fill-rule="evenodd" clip-rule="evenodd" d="M685.774 273.517C681.777 273.517 678.537 276.757 678.537 280.754C678.537 284.751 681.777 287.991 685.774 287.991C689.771 287.991 693.012 284.751 693.012 280.754C693.012 276.757 689.771 273.517 685.774 273.517ZM676.317 280.754C676.317 275.531 680.551 271.297 685.774 271.297C690.997 271.297 695.231 275.531 695.231 280.754C695.231 285.977 690.997 290.211 685.774 290.211C680.551 290.211 676.317 285.977 676.317 280.754Z" fill="#f1f1e6"></path>
<path fill-rule="evenodd" clip-rule="evenodd" d="M684.665 273.433V110.277H686.884V273.433H684.665Z" fill="#f1f1e6"></path>
<path d="M387.845 207.043L358.822 211.152C355.548 211.602 352.915 209.226 352.915 205.823C352.915 202.42 355.548 199.274 358.822 198.824L387.845 194.715C391.119 194.265 393.752 196.641 393.752 200.044C393.752 203.447 391.119 206.593 387.845 207.043Z" fill="#808080"></path>
<path d="M280.873 224.894L251.85 229.004C248.575 229.453 245.943 227.078 245.943 223.674C245.943 220.271 248.575 217.125 251.85 216.676L280.873 212.566C284.147 212.117 286.78 214.493 286.78 217.896C286.78 221.299 284.147 224.445 280.873 224.894Z" fill="#b9cce2"></path>
<path fill-rule="evenodd" clip-rule="evenodd" d="M77.5171 374.446C77.5171 373.22 78.511 372.227 79.737 372.227H188.7C189.926 372.227 190.92 373.22 190.92 374.446C190.92 375.672 189.926 376.666 188.7 376.666H79.737C78.511 376.666 77.5171 375.672 77.5171 374.446Z" fill="#F2F6FF"></path>
<path fill-rule="evenodd" clip-rule="evenodd" d="M77.5171 388.446C77.5171 387.22 78.511 386.227 79.737 386.227H188.7C189.926 386.227 190.92 387.22 190.92 388.446C190.92 389.672 189.926 390.666 188.7 390.666H79.737C78.511 390.666 77.5171 389.672 77.5171 388.446Z" fill="#F2F6FF"></path>
<path fill-rule="evenodd" clip-rule="evenodd" d="M77.5171 402.443C77.5171 401.217 78.511 400.223 79.737 400.223H188.7C189.926 400.223 190.92 401.217 190.92 402.443C190.92 403.669 189.926 404.662 188.7 404.662H79.737C78.511 404.662 77.5171 403.669 77.5171 402.443Z" fill="#F2F6FF"></path>
<path opacity="0.9" d="M361.18 401.512C372.874 385.813 371.288 364.843 357.636 354.674C343.985 344.505 323.438 348.989 311.744 364.688C300.05 380.387 301.637 401.357 315.288 411.525C328.94 421.694 349.486 417.211 361.18 401.512Z" fill="#f1f1e6"></path>
<path fill-rule="evenodd" clip-rule="evenodd" d="M310.468 362.96C297.52 380.341 299.436 403.299 314.242 414.328C329.048 425.357 351.593 420.619 364.54 403.238C377.488 385.856 375.573 362.898 360.766 351.869C345.96 340.84 323.415 345.578 310.468 362.96ZM312.763 416.313C296.609 404.281 294.918 379.69 308.482 361.48C322.046 343.271 346.092 337.851 362.245 349.884C378.399 361.917 380.09 386.507 366.526 404.717C352.962 422.926 328.917 428.346 312.763 416.313Z" fill="#b9cce2"></path>
<path d="M350.218 400.822L322.673 404.611C320.104 404.996 317.985 403.07 317.985 400.437C317.985 394.723 322.48 389.457 328.002 388.687L344.825 386.375C350.347 385.605 354.841 389.65 354.841 395.365C354.906 397.997 352.787 400.501 350.218 400.822Z" fill="#2c3e50"></path>
<path d="M343.782 378.9C347.278 374.207 346.814 367.947 342.748 364.917C338.681 361.888 332.55 363.236 329.054 367.929C325.559 372.622 326.022 378.882 330.089 381.911C334.156 384.94 340.287 383.592 343.782 378.9Z" fill="#2c3e50"></path>
<path d="M12.9277 455.335L92.0975 414.562V426.313L25.3843 459.766V460.087L92.0975 493.54V505.29L12.9277 464.581V455.335Z" fill="#F2F6FF"></path>
<path d="M192.713 464.776L113.543 505.356V493.606L180.77 460.153V459.832L113.543 426.379V414.629L192.713 455.273V464.776Z" fill="#F2F6FF"></path>
<path d="M387.845 207.043L358.822 211.152C355.548 211.602 352.915 209.226 352.915 205.823C352.915 202.42 355.548 199.274 358.822 198.824L387.845 194.715C391.119 194.265 393.752 196.641 393.752 200.044C393.752 203.447 391.119 206.593 387.845 207.043Z" fill="#b9cce2"></path>
<path opacity="0.9" d="M388.102 181.292C388.551 181.292 389.001 181.228 389.386 181.292C389.45 181.292 389.514 181.292 389.643 181.292C390.028 181.292 390.477 181.292 390.863 181.356C390.927 181.356 390.991 181.356 391.055 181.356C391.505 181.42 391.89 181.485 392.339 181.549C392.404 181.549 392.532 181.549 392.596 181.613C392.981 181.677 393.431 181.806 393.816 181.87C393.88 181.87 393.88 181.87 393.945 181.934C394.33 182.063 394.715 182.127 395.036 182.255C395.1 182.255 395.229 182.319 395.293 182.319C395.678 182.448 396.064 182.576 396.449 182.769C396.513 182.769 396.577 182.833 396.641 182.833C397.027 183.026 397.412 183.154 397.733 183.411L380.14 173.844C379.947 173.715 379.69 173.587 379.498 173.523C379.369 173.458 379.176 173.394 379.048 173.33C378.984 173.33 378.92 173.266 378.855 173.266C378.47 173.073 378.085 172.945 377.7 172.816C377.635 172.816 377.507 172.752 377.443 172.752C377.058 172.624 376.737 172.495 376.351 172.431C376.287 172.431 376.287 172.431 376.223 172.367C376.223 172.367 376.223 172.367 376.159 172.367C375.773 172.239 375.388 172.174 375.003 172.11C374.939 172.11 374.81 172.046 374.746 172.046C374.361 171.982 373.911 171.917 373.462 171.853C373.398 171.853 373.333 171.853 373.269 171.853C372.884 171.789 372.499 171.789 372.049 171.789C371.985 171.789 371.921 171.789 371.792 171.789C371.343 171.789 370.894 171.789 370.508 171.789C370.444 171.789 370.316 171.789 370.251 171.789C369.802 171.853 369.353 171.853 368.903 171.917L228.414 191.694L246.007 201.261L386.496 181.485C386.946 181.42 387.395 181.356 387.909 181.356C387.973 181.292 388.037 181.292 388.102 181.292Z" fill="#b9cce2"></path>
<path d="M227.771 89.8916C222.735 89.8916 218.653 85.8095 218.653 80.7739C218.653 75.7384 222.735 71.6562 227.771 71.6562C232.807 71.6562 236.889 75.7384 236.889 80.7739C236.889 85.8095 232.807 89.8916 227.771 89.8916Z" fill="#f1f1e6"></path>
<path d="M209.6 118.657C204.565 118.657 200.482 114.575 200.482 109.54C200.482 104.504 204.565 100.422 209.6 100.422C214.636 100.422 218.718 104.504 218.718 109.54C218.718 114.575 214.636 118.657 209.6 118.657Z" fill="#f1f1e6"></path>
<path d="M195.538 147.423C190.503 147.423 186.42 143.341 186.42 138.305C186.42 133.27 190.503 129.188 195.538 129.188C200.574 129.188 204.656 133.27 204.656 138.305C204.656 143.341 200.574 147.423 195.538 147.423Z" fill="#f1f1e6"></path>
<path d="M186.42 183.157C181.385 183.157 177.302 179.075 177.302 174.04C177.302 169.004 181.385 164.922 186.42 164.922C191.456 164.922 195.538 169.004 195.538 174.04C195.538 179.075 191.456 183.157 186.42 183.157Z" fill="#f1f1e6"></path>
<path d="M284.079 90.2289C279.047 90.4157 274.816 86.4877 274.629 81.4556C274.442 76.4235 278.37 72.1928 283.402 72.0061C288.435 71.8193 292.665 75.7473 292.852 80.7794C293.039 85.8115 289.111 90.0422 284.079 90.2289Z" fill="#f1f1e6"></path>
<path d="M255.807 115.506C250.774 115.693 246.544 111.765 246.357 106.733C246.17 101.701 250.098 97.4702 255.13 97.2834C260.162 97.0967 264.393 101.025 264.58 106.057C264.767 111.089 260.839 115.32 255.807 115.506Z" fill="#f1f1e6"></path>
<path d="M235.097 147.084C230.065 147.271 225.834 143.343 225.648 138.311C225.461 133.279 229.389 129.048 234.421 128.862C239.453 128.675 243.684 132.603 243.87 137.635C244.057 142.667 240.129 146.898 235.097 147.084Z" fill="#f1f1e6"></path>
<path opacity="0.87" d="M535.589 69.2695H346.75C340.008 69.2695 334.615 74.7273 334.615 81.4051V133.158C334.615 133.607 334.615 134.057 334.679 134.506L323.053 161.066L366.719 145.293H535.589C542.331 145.293 547.725 139.835 547.725 133.158V81.4693C547.789 74.7273 542.331 69.2695 535.589 69.2695Z" fill="#b9cce2"></path>
<path d="M511.672 108.711H380.236V115.581H511.672V108.711Z" fill="#2c3e50"></path>
<path d="M511.67 92.7227H380.234V99.593H511.67V92.7227Z" fill="#f1f1e6"></path>
<circle cx="85.2426" cy="213.265" r="5.83514" fill="#f1f1e6"></circle>
<circle opacity="0.5" cx="103.369" cy="213.265" r="5.83514" fill="#f1f1e6"></circle>
<circle cx="121.496" cy="213.265" r="5.83514" fill="#f1f1e6"></circle>
<path d="M481.523 531.54C477.446 529.462 475.483 524.692 473.923 520.648C472.673 517.671 470.867 513.112 469.026 513.083C466.889 513.033 465.126 511.614 465.186 509.825C465.246 508.036 466.94 506.561 469.077 506.611C476.33 506.67 479.007 513.233 481.216 518.518C482.466 521.494 484.272 526.054 486.113 526.083C488.137 526.075 490.605 521.616 492.359 518.351C495.335 512.98 498.566 506.831 505.706 506.832C512.959 506.891 515.636 513.454 517.845 518.739C519.095 521.716 520.901 526.275 522.743 526.305C524.766 526.297 527.234 521.837 528.919 518.667C531.895 513.297 535.127 507.147 542.266 507.148C549.519 507.207 552.196 513.771 554.406 519.056C555.655 522.032 557.461 526.592 559.303 526.621C561.327 526.613 563.795 522.153 565.549 518.889C568.524 513.518 571.756 507.368 578.896 507.37C586.149 507.429 588.825 513.992 591.035 519.277C592.285 522.254 594.091 526.813 595.932 526.842C597.956 526.835 600.424 522.375 602.178 519.11C605.153 513.74 608.385 507.59 615.525 507.591C622.778 507.65 625.455 514.213 627.664 519.499C628.914 522.475 630.72 527.035 632.561 527.064C634.585 527.056 637.053 522.596 638.807 519.332C641.783 513.961 645.014 507.811 652.154 507.813C659.407 507.872 662.084 514.435 664.293 519.72C665.543 522.697 667.349 527.256 669.191 527.285C671.214 527.277 673.682 522.818 675.436 519.553C678.412 514.182 681.644 508.033 688.783 508.034C696.036 508.093 698.713 514.656 700.923 519.941C702.172 522.918 703.978 527.478 705.82 527.507C707.957 527.557 709.719 528.975 709.66 530.764C709.6 532.553 707.906 534.029 705.769 533.979C698.516 533.92 695.839 527.356 693.63 522.071C692.38 519.095 690.574 514.535 688.732 514.506C686.709 514.514 684.24 518.974 682.487 522.238C679.511 527.609 676.279 533.759 669.14 533.757C661.887 533.698 659.21 527.135 657 521.85C655.75 518.873 653.945 514.314 652.103 514.285C650.079 514.292 647.611 518.752 645.926 521.922C642.951 527.293 639.719 533.442 632.579 533.441C625.326 533.382 622.649 526.819 620.44 521.534C619.19 518.557 617.384 513.998 615.543 513.968C613.519 513.976 611.051 518.436 609.297 521.7C606.322 527.071 603.09 533.221 595.95 533.219C588.697 533.16 586.02 526.597 583.811 521.312C582.561 518.336 580.755 513.776 578.914 513.747C576.89 513.755 574.422 518.215 572.668 521.479C569.692 526.85 566.46 532.999 559.321 532.998C552.068 532.939 549.391 526.376 547.182 521.091C545.932 518.114 544.126 513.555 542.398 513.583C540.374 513.591 537.906 518.051 536.221 521.22C533.245 526.591 530.013 532.741 522.874 532.74C515.621 532.68 512.944 526.117 510.735 520.832C509.485 517.856 507.679 513.296 505.837 513.267C503.814 513.275 501.345 517.735 499.592 520.999C496.616 526.37 493.384 532.519 486.244 532.518C484.221 532.526 482.768 532.175 481.523 531.54Z" fill="#b9cce2"></path>
<path d="M701.961 580.456H628.704C620.713 580.456 614.275 574.019 614.275 566.027C614.275 558.035 620.713 551.598 628.704 551.598H701.961C709.952 551.598 716.39 558.035 716.39 566.027C716.39 574.019 709.952 580.456 701.961 580.456Z" fill="#2c3e50"></path>
<path d="M698.462 572.079H632.309C630.311 572.079 628.757 570.525 628.757 568.527V563.532C628.757 561.534 630.311 559.98 632.309 559.98H698.351C700.349 559.98 701.903 561.534 701.903 563.532V568.527C702.014 570.525 700.46 572.079 698.462 572.079Z" fill="#f1f1e6"></path>
<path d="M545.886 580.456H472.63C464.638 580.456 458.201 574.019 458.201 566.027C458.201 558.035 464.638 551.598 472.63 551.598H545.886C553.878 551.598 560.316 558.035 560.316 566.027C560.316 574.019 553.878 580.456 545.886 580.456Z" fill="#b9cce2"></path>
<path d="M542.388 572.079H476.235C474.237 572.079 472.683 570.525 472.683 568.527V563.532C472.683 561.534 474.237 559.98 476.235 559.98H542.277C544.275 559.98 545.829 561.534 545.829 563.532V568.527C545.94 570.525 544.386 572.079 542.388 572.079Z" fill="#f1f1e6"></path>
<path d="M55.6473 100.421C54.2085 100.421 52.9006 100.421 51.4618 100.29C50.5463 100.159 49.8923 99.3743 50.0231 98.4588C50.1539 97.5432 50.9387 96.8892 51.8542 97.02C53.1622 97.1508 54.4701 97.1508 55.778 97.1508C57.086 97.1508 58.3939 97.1508 59.7019 97.02C60.6174 96.8892 61.4022 97.5432 61.533 98.4588C61.6638 99.3743 61.0098 100.159 60.0943 100.29C58.5247 100.29 57.086 100.421 55.6473 100.421ZM43.6142 98.7204C43.4834 98.7204 43.3526 98.7204 43.2218 98.7204C40.4751 97.9356 37.8592 96.8892 35.2433 95.7121C34.4586 95.3197 34.0662 94.2733 34.4586 93.4886C34.8509 92.7038 35.8973 92.3114 36.6821 92.7038C39.0364 93.881 41.5215 94.7965 44.0066 95.5813C44.9221 95.8429 45.4453 96.7584 45.1837 97.5432C44.9221 98.328 44.2681 98.7204 43.6142 98.7204ZM67.6803 98.7204C67.0264 98.7204 66.3724 98.1972 66.1108 97.5432C65.8492 96.6276 66.3724 95.7121 67.288 95.5813C69.7731 94.9273 72.2581 93.881 74.6124 92.7038C75.3972 92.3114 76.4436 92.573 76.836 93.4886C77.2283 94.2733 76.9668 95.3197 76.0512 95.7121C73.5661 97.02 70.9502 97.9356 68.2035 98.7204C67.9419 98.7204 67.8111 98.7204 67.6803 98.7204ZM29.096 91.5267C28.7036 91.5267 28.442 91.3959 28.0496 91.1343C25.8261 89.434 23.7334 87.6028 21.7715 85.5101C21.1175 84.8561 21.2483 83.8098 21.9023 83.1558C22.5563 82.5018 23.6026 82.6326 24.2566 83.2866C25.9569 85.2485 27.9188 86.9489 30.0115 88.5184C30.7963 89.0416 30.9271 90.0879 30.2731 90.8727C30.1423 91.3959 29.6192 91.5267 29.096 91.5267ZM82.1985 91.5267C81.6754 91.5267 81.1522 91.2651 80.8906 90.8727C80.3674 90.0879 80.4982 89.1724 81.1522 88.5184C83.2449 86.9489 85.2068 85.1177 86.9071 83.2866C87.5611 82.6326 88.6075 82.6326 89.2614 83.1558C89.9154 83.8098 89.9154 84.8561 89.3922 85.5101C87.5611 87.6028 85.4684 89.434 83.1141 91.1343C82.8525 91.3959 82.4601 91.5267 82.1985 91.5267ZM18.24 79.6244C17.7169 79.6244 17.1937 79.3628 16.8013 78.8396C15.3626 76.4853 14.0546 73.8694 13.0083 71.2535C12.6159 70.4688 13.1391 69.4224 13.9238 69.1608C14.7086 68.8992 15.755 69.2916 16.0165 70.0764C16.9321 72.5615 18.1093 74.9158 19.548 77.0085C20.0712 77.7932 19.8096 78.8396 19.0248 79.232C18.7632 79.4936 18.5016 79.6244 18.24 79.6244ZM93.0545 79.4936C92.7929 79.4936 92.4005 79.3628 92.1389 79.232C91.3541 78.7088 91.0925 77.7932 91.6157 77.0085C93.0545 74.785 94.1008 72.4307 95.1472 69.9456C95.4088 69.1608 96.4551 68.6376 97.2399 69.03C98.0247 69.2916 98.5478 70.338 98.1554 71.1227C97.1091 73.7386 95.9319 76.2237 94.3624 78.7088C94.1008 79.232 93.5776 79.4936 93.0545 79.4936ZM12.3543 64.583C11.5695 64.583 10.9156 64.0598 10.7848 63.2751C10.2616 60.5284 10 57.6509 10 54.9042C10 53.9887 10.7848 53.2039 11.5695 53.2039C12.4851 53.2039 13.1391 53.9887 13.2699 54.7734C13.2699 57.3893 13.5315 60.0052 14.0546 62.6211C14.1854 63.5366 13.6622 64.3214 12.7467 64.583C12.4851 64.583 12.4851 64.583 12.3543 64.583ZM98.9402 64.4522C98.8094 64.4522 98.6786 64.4522 98.6786 64.4522C97.7631 64.3214 97.2399 63.4059 97.3707 62.4903C97.8939 60.0052 98.0247 57.2585 98.0247 54.6426V54.5118C98.0247 53.5963 98.8094 52.8115 99.725 52.8115C100.641 52.8115 101.425 53.5963 101.425 54.5118V54.6426C101.425 57.5201 101.164 60.2668 100.641 63.0135C100.379 63.929 99.725 64.4522 98.9402 64.4522ZM12.3543 48.3645C12.2235 48.3645 12.0927 48.3645 12.0927 48.3645C11.1772 48.2337 10.654 47.3181 10.7848 46.4026C11.3079 43.6559 12.0927 40.9092 13.0083 38.2933C13.2699 37.5086 14.3162 36.9854 15.101 37.3778C15.8858 37.6394 16.4089 38.6857 16.0165 39.4705C15.101 41.9556 14.3162 44.4407 13.9238 47.0565C13.793 47.8413 13.0083 48.3645 12.3543 48.3645ZM98.8094 48.1029C98.0247 48.1029 97.3707 47.5797 97.2399 46.795C96.7167 44.1791 96.0627 41.694 95.0164 39.3397C94.624 38.5549 95.1472 37.5086 95.9319 37.247C96.7167 36.8546 97.7631 37.3778 98.0247 38.1625C99.071 40.7784 99.8558 43.5251 100.379 46.2718C100.51 47.1873 99.9866 47.9721 99.071 48.2337C99.071 48.1029 98.9402 48.1029 98.8094 48.1029ZM18.1093 33.3231C17.8477 33.3231 17.4553 33.1923 17.1937 33.0615C16.4089 32.5384 16.1473 31.6228 16.6705 30.838C18.1093 28.4837 19.8096 26.1294 21.7715 24.1675C22.4255 23.5136 23.4718 23.3828 24.1258 24.0367C24.7798 24.6907 24.9106 25.7371 24.2566 26.391C22.4255 28.2222 20.8559 30.3149 19.548 32.5384C19.1556 33.0615 18.6324 33.3231 18.1093 33.3231ZM92.9237 33.0615C92.4005 33.0615 91.8773 32.8 91.4849 32.2768C90.0462 30.0533 88.4767 27.9606 86.7763 25.9987C86.2532 25.3447 86.2532 24.2983 86.9071 23.7751C87.5611 23.1212 88.6075 23.252 89.2614 23.9059C91.2233 25.9987 92.9237 28.2222 94.3624 30.5765C94.8856 31.3612 94.624 32.4076 93.8392 32.8C93.5777 32.9308 93.3161 33.0615 92.9237 33.0615ZM28.9652 21.2901C28.442 21.2901 27.9188 21.0285 27.6572 20.6361C27.1341 19.8513 27.2649 18.9358 27.9188 18.2818C30.1423 16.5815 32.4966 15.1427 35.1125 13.8348C35.8973 13.4424 36.9437 13.704 37.336 14.6195C37.7284 15.4043 37.4668 16.4507 36.5513 16.843C34.197 18.0202 31.9735 19.4589 29.8808 21.0285C29.6192 21.1593 29.3576 21.2901 28.9652 21.2901ZM43.4834 14.0964C42.8294 14.0964 42.1754 13.5732 41.9138 12.9192C41.6523 12.0036 42.1754 11.0881 43.091 10.9573C45.8377 10.1725 48.5844 9.64935 51.331 9.38776C52.2466 9.25696 53.0314 9.91094 53.1622 10.8265C53.293 11.7421 52.639 12.5268 51.7234 12.6576C49.1075 12.9192 46.4916 13.4424 44.0066 14.0964C43.745 13.9656 43.6142 14.0964 43.4834 14.0964Z" fill="#f1f1e6"></path>
<rect x="44.6467" y="17.4883" width="69.389" height="69.389" rx="9" fill="#2c3e50"></rect>
<path d="M55.7126 41.415C61.9174 41.415 62.8366 37.9679 62.8366 34.9804C62.8366 32.4525 62.377 30.1545 62.1472 27.6266C61.6876 25.0988 61.4578 22.8007 61.4578 20.5027C61.4578 12.4595 66.7433 9.24219 74.0971 9.24219H75.9355V14.0681H74.3269C69.2712 14.0681 67.4327 16.8258 67.4327 21.4219C67.4327 23.4901 67.6625 25.5584 68.1221 27.6266C68.5817 29.6949 68.8116 31.7631 68.8116 34.291C68.8116 39.8063 66.5135 42.564 62.6068 43.713V43.9428C66.5135 44.862 69.0414 47.8495 68.8116 53.3648C68.8116 55.6629 68.5817 57.9609 68.1221 60.0292C67.6625 62.0974 67.4327 64.1657 67.4327 66.2339C67.4327 71.0599 69.501 73.8175 74.3269 73.8175H75.9355V78.6434H74.0971C66.9731 78.6434 61.4578 75.4262 61.4578 66.6936C61.4578 64.3955 61.9174 61.8676 62.1472 59.5696C62.6068 57.2715 62.8366 54.9735 62.8366 52.4456C62.8366 49.688 61.9174 46.0111 55.7126 46.0111V41.415Z" fill="#f1f1e6"></path>
<path d="M108.277 67.7884C102.072 67.7884 101.153 71.4653 101.153 74.223C101.153 76.521 101.613 78.8191 101.842 81.3469C102.302 83.645 102.532 86.1728 102.532 88.4709C102.532 97.2035 97.0164 100.421 89.8925 100.421H88.054V95.5949H89.4329C94.2588 95.5949 96.327 92.8372 96.327 88.0113C96.327 85.943 95.8674 83.8748 95.6376 81.8065C95.178 79.7383 94.9482 77.67 94.9482 75.1422C94.9482 69.6268 97.4761 66.6394 101.153 65.7202V65.4904C97.2463 64.3413 94.9482 61.5837 94.9482 56.0683C94.9482 53.7703 95.4078 51.702 95.6376 49.404C95.8674 47.3357 96.327 45.2675 96.327 43.1992C96.327 38.6031 94.4886 35.8454 89.4329 35.8454H87.8242V31.0195H89.8925C97.2462 31.0195 102.532 34.4666 102.532 42.28C102.532 44.8079 102.072 47.1059 101.842 49.404C101.383 51.9318 101.153 54.2299 101.153 56.7577C101.153 59.7452 102.072 63.1923 108.277 63.1923V67.7884Z" fill="#f1f1e6"></path>
<path d="M555.538 305.923C555.538 299.245 556.501 292.375 557.4 285.569C558.363 278.763 559.262 271.7 559.262 264.958C559.326 239.916 544.879 233.046 526.001 235.678L521.186 236.385V249.997L525.103 249.419C537.944 247.878 543.466 254.491 543.466 268.425C543.466 274.396 542.503 280.175 541.797 286.468C540.834 292.567 539.935 298.86 539.935 305.538C539.935 321.397 546.356 328.91 556.437 330.258V330.772C546.356 335.138 539.871 343.999 539.871 359.859C539.871 366.536 540.77 372.379 541.668 378.415C542.375 384.258 543.274 390.101 543.21 395.816C543.21 409.235 538.33 417.583 525.038 419.701L520.929 420.279V433.892L525.552 433.25C545.072 430.489 559.133 418.867 559.133 396.073C559.133 389.138 558.234 382.589 557.336 375.782C556.437 368.976 555.538 362.17 555.538 355.236C555.538 346.567 557.849 336.551 574.158 334.303V321.654C557.785 323.966 555.473 313.628 555.538 305.923Z" fill="white"></path>
<path d="M570.242 321.975C570.628 321.975 570.949 321.975 571.334 321.911C571.462 321.911 571.527 321.911 571.655 321.911C571.976 321.911 572.233 321.847 572.554 321.847C572.682 321.847 572.811 321.847 572.875 321.783C573.26 321.719 573.71 321.719 574.095 321.654L568.252 318.444C567.803 318.508 567.417 318.572 567.032 318.572C566.904 318.572 566.775 318.572 566.711 318.636C566.39 318.636 566.133 318.701 565.812 318.701C565.684 318.701 565.619 318.701 565.491 318.701C565.106 318.701 564.721 318.765 564.399 318.765C564.335 318.765 564.271 318.765 564.271 318.765C563.95 318.765 563.693 318.765 563.372 318.765C563.244 318.765 563.179 318.765 563.051 318.765C562.794 318.765 562.537 318.765 562.281 318.701C562.216 318.701 562.152 318.701 562.024 318.701C561.703 318.701 561.382 318.636 561.125 318.572C561.061 318.572 560.996 318.572 560.932 318.572C560.675 318.508 560.483 318.508 560.226 318.444C560.162 318.444 560.033 318.38 559.969 318.38C559.712 318.315 559.52 318.251 559.263 318.251C559.199 318.251 559.199 318.251 559.134 318.187C558.685 318.059 558.235 317.93 557.786 317.802C557.401 317.673 556.951 317.481 556.63 317.288C556.502 317.224 556.309 317.16 556.181 317.031L562.024 320.242C562.152 320.306 562.345 320.37 562.473 320.499C562.858 320.691 563.244 320.82 563.629 321.012C564.078 321.141 564.464 321.269 564.977 321.397C565.042 321.397 565.042 321.397 565.106 321.397C565.363 321.462 565.555 321.526 565.812 321.526C565.876 321.526 566.005 321.59 566.069 321.59C566.326 321.654 566.518 321.654 566.775 321.719C566.839 321.719 566.904 321.719 566.968 321.719C567.289 321.783 567.61 321.783 567.867 321.847C567.931 321.847 567.995 321.847 568.124 321.847C568.38 321.847 568.637 321.911 568.894 321.911C569.023 321.911 569.087 321.911 569.215 321.911C569.536 321.911 569.793 321.911 570.114 321.911C570.114 321.975 570.178 321.975 570.242 321.975Z" fill="#f1f1e6"></path>
<path d="M540.449 234.715C540.385 234.715 540.385 234.651 540.321 234.651C540.128 234.587 539.936 234.458 539.807 234.394C539.615 234.33 539.422 234.201 539.229 234.137C539.037 234.073 538.844 234.009 538.651 233.945C538.459 233.88 538.266 233.816 538.074 233.752C537.881 233.688 537.688 233.624 537.496 233.559C537.303 233.495 537.11 233.431 536.918 233.367C536.725 233.302 536.532 233.238 536.34 233.174C536.211 233.11 536.019 233.11 535.89 233.046C535.826 233.046 535.826 233.046 535.762 233.046C535.248 232.917 534.735 232.789 534.221 232.725C534.157 232.725 534.028 232.66 533.964 232.66C533.515 232.596 533.065 232.532 532.616 232.468C532.487 232.468 532.295 232.404 532.166 232.404C531.653 232.339 531.139 232.275 530.625 232.275C530.561 232.275 530.497 232.275 530.497 232.275C529.919 232.211 529.341 232.211 528.763 232.211C528.635 232.211 528.442 232.211 528.314 232.211C527.864 232.211 527.351 232.211 526.901 232.211C526.773 232.211 526.644 232.211 526.452 232.211C525.874 232.211 525.232 232.275 524.654 232.275C524.525 232.275 524.397 232.275 524.269 232.275C523.755 232.339 523.241 232.339 522.792 232.404C522.599 232.404 522.471 232.468 522.278 232.468C521.636 232.532 520.994 232.596 520.416 232.725L515.6 233.431L521.443 236.641L526.259 235.935C526.901 235.871 527.543 235.742 528.121 235.678C528.314 235.678 528.442 235.614 528.635 235.614C529.148 235.55 529.662 235.55 530.176 235.486C530.304 235.486 530.433 235.486 530.561 235.486C531.139 235.421 531.781 235.421 532.359 235.421C532.487 235.421 532.616 235.421 532.808 235.421C533.258 235.421 533.772 235.421 534.221 235.421C534.349 235.421 534.542 235.421 534.67 235.421C535.248 235.421 535.826 235.486 536.404 235.486C536.468 235.486 536.532 235.486 536.532 235.486C537.046 235.55 537.56 235.55 538.074 235.614C538.202 235.614 538.395 235.678 538.523 235.678C538.972 235.742 539.422 235.807 539.871 235.871C539.936 235.871 540.064 235.871 540.128 235.935C540.642 236.063 541.156 236.128 541.669 236.256C541.862 236.32 542.054 236.385 542.247 236.385C542.44 236.449 542.632 236.513 542.825 236.577C543.018 236.641 543.21 236.706 543.403 236.77C543.595 236.834 543.788 236.898 543.981 236.962C544.173 237.027 544.366 237.091 544.559 237.155C544.751 237.219 544.944 237.283 545.137 237.348C545.329 237.412 545.522 237.54 545.714 237.604C545.907 237.669 546.1 237.797 546.228 237.861C546.549 237.99 546.87 238.182 547.191 238.375L541.348 235.165C540.963 234.972 540.706 234.844 540.449 234.715Z" fill="#f1f1e6"></path>
<path d="M514.958 430.809L520.801 433.956L520.865 420.343L515.022 417.133L514.958 430.809Z" fill="#f1f1e6"></path>
<path d="M550.53 327.693C550.273 327.821 549.952 327.949 549.695 328.078C549.695 328.078 549.695 328.078 549.631 328.078C549.566 328.078 549.566 328.142 549.502 328.142C543.467 324.739 539.871 317.547 539.935 305.669C539.935 298.991 540.898 292.634 541.797 286.599C542.503 280.306 543.402 274.463 543.467 268.556C543.467 262.456 542.439 257.769 540.128 254.494C539.1 253.017 537.816 251.862 536.275 251.027L530.432 247.816C535.44 250.513 537.688 256.42 537.624 265.345C537.624 271.317 536.66 277.096 535.954 283.388C534.991 289.488 534.092 295.781 534.092 302.458C534.092 314.465 537.752 321.721 543.916 325.06L549.502 328.078C549.245 328.206 548.924 328.335 548.668 328.527C548.603 328.591 548.539 328.591 548.411 328.656C548.154 328.784 547.897 328.912 547.64 329.041C547.512 329.105 547.383 329.169 547.319 329.234C547.127 329.362 546.934 329.49 546.677 329.619C546.549 329.683 546.42 329.747 546.292 329.876C546.099 330.004 545.907 330.132 545.714 330.261C545.65 330.325 545.586 330.325 545.521 330.389C545.457 330.389 545.457 330.454 545.393 330.454C545.008 330.71 544.622 331.031 544.237 331.288C544.173 331.352 544.109 331.417 544.044 331.417C543.659 331.673 543.338 331.995 543.017 332.316L542.953 332.38C542.632 332.637 542.375 332.958 542.054 333.214C541.99 333.279 541.926 333.343 541.797 333.471C541.54 333.728 541.348 333.921 541.155 334.178C541.091 334.242 541.027 334.306 541.027 334.306L540.962 334.37C540.706 334.691 540.449 335.012 540.192 335.269C540.192 335.333 540.128 335.333 540.128 335.398C539.935 335.654 539.678 335.975 539.486 336.297C539.486 336.361 539.421 336.361 539.421 336.425C539.357 336.489 539.357 336.553 539.293 336.618C539.1 336.939 538.908 337.26 538.651 337.517C538.587 337.581 538.587 337.645 538.522 337.709C538.266 338.094 538.073 338.48 537.88 338.865C537.88 338.929 537.816 338.929 537.816 338.993C537.816 339.058 537.752 339.122 537.752 339.122C537.495 339.635 537.238 340.149 536.981 340.663C536.981 340.727 536.917 340.727 536.917 340.791C536.66 341.305 536.468 341.883 536.211 342.461C536.211 342.525 536.211 342.525 536.147 342.525C536.147 342.525 536.147 342.525 536.147 342.589C536.018 343.038 535.826 343.488 535.697 343.937C535.633 344.066 535.633 344.194 535.569 344.323C535.44 344.708 535.376 345.029 535.248 345.414C535.184 345.543 535.184 345.671 535.119 345.799C534.991 346.249 534.863 346.763 534.798 347.276C534.798 347.341 534.798 347.405 534.734 347.469C534.67 347.918 534.542 348.368 534.477 348.817C534.477 348.946 534.413 349.138 534.413 349.267C534.349 349.716 534.285 350.101 534.221 350.551C534.221 350.679 534.22 350.744 534.156 350.872C534.092 351.386 534.028 351.964 534.028 352.541C534.028 352.67 534.028 352.798 534.028 352.927C534.028 353.376 533.964 353.826 533.964 354.275C533.964 354.468 533.964 354.596 533.964 354.789C533.964 355.367 533.899 356.009 533.899 356.587C533.899 363.264 534.798 369.107 535.697 375.143C536.404 380.986 537.303 386.829 537.238 392.544C537.238 393.057 537.238 393.507 537.238 394.021C537.238 394.149 537.238 394.277 537.238 394.47C537.238 394.855 537.238 395.176 537.174 395.497C537.174 395.626 537.174 395.754 537.174 395.947C537.174 396.396 537.11 396.846 537.046 397.231V397.295C536.981 397.745 536.917 398.194 536.853 398.644C536.853 398.772 536.789 398.9 536.789 399.029C536.725 399.35 536.66 399.671 536.596 399.992C536.596 400.12 536.532 400.249 536.532 400.377C536.468 400.762 536.404 401.148 536.275 401.533C536.275 401.597 536.275 401.597 536.275 401.661C536.147 402.047 536.083 402.432 535.954 402.817C535.89 402.946 535.89 403.01 535.826 403.138C535.762 403.395 535.633 403.716 535.569 403.973C535.505 404.101 535.505 404.166 535.44 404.294C535.312 404.679 535.119 405.064 534.991 405.45C534.991 405.514 534.927 405.514 534.927 405.578C534.798 405.899 534.606 406.284 534.413 406.605C534.349 406.734 534.285 406.798 534.221 406.927C534.092 407.119 534.028 407.312 533.899 407.44C533.835 407.569 533.771 407.697 533.707 407.761C533.578 407.954 533.45 408.147 533.322 408.275C533.257 408.403 533.193 408.468 533.129 408.596C533.065 408.724 532.936 408.853 532.872 408.981C532.808 409.11 532.679 409.238 532.615 409.366C532.487 409.495 532.423 409.623 532.294 409.752C532.166 409.88 532.102 410.009 531.973 410.073C531.845 410.201 531.716 410.33 531.652 410.458C531.524 410.586 531.46 410.651 531.331 410.779C531.203 410.907 531.074 411.036 530.946 411.1C530.817 411.229 530.753 411.293 530.625 411.421C530.368 411.614 530.111 411.871 529.854 412.063C529.79 412.063 529.79 412.127 529.726 412.127C529.469 412.32 529.276 412.513 529.02 412.641C528.955 412.705 528.891 412.705 528.827 412.77C528.506 413.026 528.121 413.219 527.8 413.412C527.735 413.476 527.671 413.476 527.543 413.54C527.157 413.733 526.708 413.99 526.323 414.182C526.259 414.246 526.13 414.246 526.066 414.311C525.616 414.503 525.103 414.76 524.589 414.953C524.075 415.145 523.562 415.338 523.048 415.466C522.92 415.466 522.855 415.531 522.727 415.531C522.213 415.659 521.636 415.852 521.122 415.98C520.993 415.98 520.929 416.044 520.801 416.044C520.223 416.173 519.581 416.301 519.003 416.365L514.894 416.943L520.737 420.154L524.846 419.576C525.488 419.447 526.066 419.383 526.644 419.255C526.772 419.255 526.836 419.19 526.965 419.19C527.543 419.062 528.056 418.934 528.57 418.741C528.699 418.741 528.763 418.677 528.891 418.677C529.405 418.484 529.983 418.356 530.432 418.163C530.946 417.97 531.395 417.778 531.909 417.521C531.973 417.521 532.037 417.457 532.102 417.457C532.166 417.457 532.166 417.393 532.23 417.393C532.679 417.2 533.065 417.007 533.45 416.75C533.514 416.686 533.578 416.686 533.707 416.622C534.092 416.429 534.413 416.173 534.734 415.98C534.798 415.98 534.798 415.916 534.863 415.916C534.863 415.916 534.927 415.916 534.927 415.852C535.184 415.659 535.376 415.531 535.633 415.338C535.697 415.338 535.697 415.274 535.762 415.274C536.018 415.081 536.275 414.824 536.532 414.632C536.532 414.632 536.532 414.632 536.596 414.567C536.66 414.503 536.789 414.375 536.853 414.311C536.981 414.182 537.11 414.054 537.238 413.99C537.367 413.861 537.431 413.797 537.559 413.668C537.688 413.54 537.816 413.412 537.88 413.283C537.88 413.283 537.88 413.219 537.945 413.219C538.009 413.155 538.137 413.026 538.201 412.898C538.33 412.77 538.394 412.641 538.522 412.513C538.587 412.384 538.715 412.256 538.779 412.127C538.844 411.999 538.972 411.871 539.036 411.742C539.036 411.742 539.036 411.678 539.1 411.678C539.165 411.614 539.229 411.55 539.229 411.421C539.357 411.229 539.486 411.036 539.614 410.907C539.678 410.779 539.742 410.651 539.807 410.586C539.935 410.394 539.999 410.265 540.128 410.073C540.128 410.009 540.192 409.944 540.192 409.944C540.192 409.88 540.256 409.816 540.256 409.816C540.449 409.495 540.577 409.174 540.77 408.789C540.77 408.724 540.834 408.724 540.834 408.66C541.027 408.275 541.155 407.89 541.284 407.504C541.284 407.44 541.348 407.44 541.348 407.376C541.348 407.312 541.412 407.248 541.412 407.183C541.54 406.927 541.605 406.605 541.669 406.349C541.733 406.22 541.733 406.156 541.797 406.028C541.926 405.642 541.99 405.257 542.118 404.872C542.118 404.808 542.118 404.808 542.118 404.743C542.182 404.358 542.311 403.973 542.375 403.588C542.375 403.459 542.439 403.331 542.439 403.202C542.503 402.881 542.568 402.56 542.632 402.239C542.632 402.111 542.696 401.982 542.696 401.854C542.76 401.405 542.825 400.955 542.889 400.506V400.441C542.953 399.992 542.953 399.542 543.017 399.157C543.017 399.029 543.017 398.9 543.017 398.708C543.017 398.387 543.081 398.001 543.081 397.68C543.081 397.552 543.081 397.424 543.081 397.231C543.081 396.717 543.081 396.268 543.081 395.754C543.081 390.04 542.182 384.261 541.54 378.353C540.641 372.254 539.742 366.475 539.742 359.797C539.742 359.155 539.742 358.577 539.807 357.999C539.807 357.807 539.807 357.678 539.807 357.486C539.807 357.036 539.871 356.587 539.871 356.137C539.871 356.009 539.871 355.88 539.871 355.752C539.935 355.174 539.999 354.66 539.999 354.082C539.999 353.954 539.999 353.826 540.064 353.761C540.128 353.312 540.192 352.862 540.256 352.477C540.256 352.349 540.32 352.156 540.32 352.028C540.385 351.578 540.513 351.129 540.577 350.679C540.577 350.615 540.577 350.551 540.641 350.487C540.77 349.973 540.834 349.524 540.962 349.01C541.027 348.881 541.027 348.753 541.091 348.625C541.219 348.239 541.283 347.918 541.412 347.533C541.476 347.405 541.476 347.276 541.54 347.148C541.669 346.698 541.861 346.249 541.99 345.799C541.99 345.735 542.054 345.735 542.054 345.671C542.247 345.093 542.503 344.515 542.76 344.002C542.76 343.937 542.825 343.937 542.825 343.873C543.081 343.36 543.338 342.846 543.595 342.332C543.659 342.268 543.659 342.14 543.723 342.075C543.916 341.69 544.173 341.305 544.366 340.92C544.43 340.855 544.43 340.791 544.494 340.727C544.687 340.406 544.879 340.085 545.136 339.828C545.2 339.7 545.264 339.635 545.329 339.507C545.521 339.186 545.778 338.929 545.971 338.608C545.971 338.544 546.035 338.544 546.035 338.48C546.292 338.159 546.549 337.838 546.805 337.581C546.87 337.516 546.934 337.388 546.998 337.324C547.191 337.067 547.448 336.81 547.64 336.618C547.704 336.553 547.769 336.489 547.897 336.361C548.218 336.04 548.475 335.783 548.796 335.526C548.86 335.462 548.86 335.462 548.924 335.398C549.245 335.077 549.631 334.82 549.952 334.499C550.016 334.434 550.08 334.37 550.144 334.37C550.53 334.049 550.915 333.792 551.3 333.536C551.429 333.471 551.493 333.407 551.621 333.343C551.814 333.215 552.006 333.086 552.199 332.958C552.327 332.893 552.456 332.829 552.584 332.701C552.777 332.572 552.97 332.444 553.162 332.316C553.291 332.251 553.419 332.187 553.483 332.123C553.74 331.995 553.997 331.866 554.19 331.738C554.254 331.673 554.318 331.673 554.446 331.609C554.767 331.417 555.088 331.288 555.474 331.096C555.795 330.967 556.052 330.839 556.373 330.71L550.53 327.693Z" fill="#f1f1e6"></path>
<path d="M521.187 236.385L515.344 233.238V246.851L521.187 250.061V236.385Z" fill="#f1f1e6"></path>
<path d="M263.328 497.47C263.328 491.551 267.699 486.54 273.564 485.736L361.116 473.731C368.23 472.756 374.569 478.285 374.569 485.466C374.569 491.386 370.199 496.396 364.334 497.201L276.781 509.205C269.667 510.18 263.328 504.651 263.328 497.47Z" fill="#2c3e50"></path>
</svg>